<?xml version="1.0" standalone="no"?><!DOCTYPE svg PUBLIC "-//W3C//DTD SVG 1.1//EN" "http://www.w3.org/Graphics/SVG/1.1/DTD/svg11.dtd"><svg class="icon" width="64px" height="64.00px" viewBox="0 0 1024 1024" version="1.1" xmlns="http://www.w3.org/2000/svg"><path  d="M892.245333 939.690667H131.754667C77.994667 939.690667 34.133333 895.829333 34.133333 841.898667V182.101333c0-53.930667 43.861333-97.621333 97.621334-97.621333h760.490666c53.930667 0 97.621333 43.861333 97.621334 97.621333v659.968c0 53.76-43.861333 97.621333-97.621334 97.621334zM131.754667 135.509333C106.154667 135.509333 85.333333 156.501333 85.333333 182.101333v659.968c0 25.6 20.821333 46.421333 46.421334 46.421334h760.490666c25.6 0 46.421333-20.821333 46.421334-46.421334V182.101333c0-25.6-20.821333-46.421333-46.421334-46.421333H131.754667z"  /><path  d="M247.296 738.645333c-6.485333 0-13.141333-2.56-18.090667-7.509333a25.429333 25.429333 0 0 1 0-36.181333L412.16 512 229.205333 329.045333c-10.069333-10.069333-10.069333-26.282667 0-36.181333s26.282667-10.069333 36.181334 0l201.045333 201.045333a25.582933 25.582933 0 0 1 0 36.181334L265.386667 731.136c-4.949333 4.949333-11.434667 7.509333-18.090667 7.509333zM813.568 758.442667H512c-14.165333 0-25.6-11.434667-25.6-25.6s11.434667-25.6 25.6-25.6h301.568c14.165333 0 25.6 11.434667 25.6 25.6s-11.434667 25.6-25.6 25.6z"  /></svg>