<?xml version="1.0" standalone="no"?><!DOCTYPE svg PUBLIC "-//W3C//DTD SVG 1.1//EN" "http://www.w3.org/Graphics/SVG/1.1/DTD/svg11.dtd"><svg class="icon" width="64px" height="64.00px" viewBox="0 0 1024 1024" version="1.1" xmlns="http://www.w3.org/2000/svg"><path  d="M892.245333 939.690667H131.754667C77.994667 939.690667 34.133333 895.829333 34.133333 841.898667V182.101333c0-53.930667 43.861333-97.621333 97.621334-97.621333h760.490666c53.930667 0 97.621333 43.861333 97.621334 97.621333v659.968c0 53.76-43.861333 97.621333-97.621334 97.621334zM131.754667 135.509333C106.154667 135.509333 85.333333 156.501333 85.333333 182.101333v659.968c0 25.6 20.821333 46.421333 46.421334 46.421334h760.490666c25.6 0 46.421333-20.821333 46.421334-46.421334V182.101333c0-25.6-20.821333-46.421333-46.421334-46.421333H131.754667z"  /><path  d="M964.266667 302.592h-904.533334c-14.165333 0-25.6-11.434667-25.6-25.6s11.434667-25.6 25.6-25.6h904.533334c14.165333 0 25.6 11.434667 25.6 25.6s-11.434667 25.6-25.6 25.6zM707.925333 724.821333c-6.485333 0-13.141333-2.56-18.090666-7.509333a25.429333 25.429333 0 0 1 0-36.181333L790.698667 580.266667l-100.864-100.864c-10.069333-10.069333-10.069333-26.282667 0-36.181334s26.282667-10.069333 36.181333 0l118.954667 118.954667c10.069333 10.069333 10.069333 26.282667 0 36.181333l-118.954667 118.954667c-4.949333 5.12-11.605333 7.509333-18.090667 7.509333zM316.074667 724.821333c-6.485333 0-13.141333-2.56-18.090667-7.509333l-118.954667-118.954667a25.429333 25.429333 0 0 1 0-36.181333l118.954667-118.954667c10.069333-10.069333 26.282667-10.069333 36.181333 0s10.069333 26.282667 0 36.181334L233.301333 580.266667l100.864 100.864c10.069333 10.069333 10.069333 26.282667 0 36.181333-4.949333 5.12-11.605333 7.509333-18.090666 7.509333z"  /><path  d="M458.922667 792.746667c-2.389333 0-4.608-0.341333-6.997334-1.024-13.653333-3.925333-21.504-18.090667-17.578666-31.573334l106.154666-373.589333c3.925333-13.653333 18.090667-21.333333 31.573334-17.578667 13.653333 3.925333 21.504 18.090667 17.578666 31.573334l-106.154666 373.589333c-3.072 11.093333-13.312 18.602667-24.576 18.602667z"  /></svg>