<?xml version="1.0" standalone="no"?><!DOCTYPE svg PUBLIC "-//W3C//DTD SVG 1.1//EN" "http://www.w3.org/Graphics/SVG/1.1/DTD/svg11.dtd"><svg class="icon" width="64px" height="64.00px" viewBox="0 0 1024 1024" version="1.1" xmlns="http://www.w3.org/2000/svg"><path  d="M218.453333 933.546667c-5.12 0-8.533333-1.706667-13.653333-3.413334-6.826667-5.12-11.946667-13.653333-11.946667-22.186666v-87.04H138.24C80.213333 820.906667 34.133333 773.12 34.133333 716.8V194.56C34.133333 136.533333 80.213333 90.453333 138.24 90.453333h747.52c58.026667 0 104.106667 46.08 104.106667 104.106667v170.666667c0 13.653333-11.946667 25.6-25.6 25.6s-25.6-11.946667-25.6-25.6v-170.666667c0-29.013333-23.893333-52.906667-52.906667-52.906667H138.24C109.226667 141.653333 85.333333 165.546667 85.333333 194.56V716.8c0 29.013333 23.893333 52.906667 52.906667 52.906667h80.213333c13.653333 0 25.6 11.946667 25.6 25.6v71.68l189.44-93.866667c3.413333-1.706667 6.826667-3.413333 11.946667-3.413333h102.4c13.653333 0 25.6 11.946667 25.6 25.6s-11.946667 25.6-25.6 25.6h-95.573333l-220.16 110.933333c-6.826667 0-10.24 1.706667-13.653334 1.706667z"  /><path  d="M783.36 843.093333c-5.12 0-8.533333-1.706667-13.653333-3.413333-6.826667-3.413333-170.666667-105.813333-170.666667-310.613333 0-15.36 0-42.666667 175.786667-97.28 5.12-1.706667 10.24-1.706667 15.36 0 175.786667 52.906667 175.786667 81.92 175.786666 97.28 0 204.8-163.84 307.2-170.666666 310.613333-3.413333 1.706667-6.826667 3.413333-11.946667 3.413333z m-133.12-307.2c3.413333 139.946667 97.28 223.573333 133.12 250.88 35.84-27.306667 129.706667-109.226667 133.12-250.88-17.066667-11.946667-78.506667-35.84-133.12-52.906666-54.613333 17.066667-116.053333 39.253333-133.12 52.906666zM377.173333 322.56h-136.533333c-13.653333 0-25.6-11.946667-25.6-25.6s11.946667-25.6 25.6-25.6h136.533333c13.653333 0 25.6 11.946667 25.6 25.6s-11.946667 25.6-25.6 25.6zM512 459.093333H240.64c-13.653333 0-25.6-11.946667-25.6-25.6s11.946667-25.6 25.6-25.6H512c13.653333 0 25.6 11.946667 25.6 25.6s-11.946667 25.6-25.6 25.6z"  /></svg>