<?xml version="1.0" standalone="no"?><!DOCTYPE svg PUBLIC "-//W3C//DTD SVG 1.1//EN" "http://www.w3.org/Graphics/SVG/1.1/DTD/svg11.dtd"><svg class="icon" width="64px" height="64.00px" viewBox="0 0 1024 1024" version="1.1" xmlns="http://www.w3.org/2000/svg"><path  d="M745.813333 962.56H278.186667c-61.44 0-110.933333-49.493333-110.933334-110.933333v-699.733334c0-49.493333 40.96-90.453333 90.453334-90.453333h508.586666c49.493333 0 90.453333 40.96 90.453334 90.453333V853.333333c0 59.733333-49.493333 109.226667-110.933334 109.226667zM257.706667 112.64c-20.48 0-39.253333 17.066667-39.253334 39.253333V853.333333c0 32.426667 27.306667 59.733333 59.733334 59.733334h467.626666c32.426667 0 59.733333-27.306667 59.733334-59.733334V151.893333c0-20.48-17.066667-39.253333-39.253334-39.253333H257.706667z"  /><path  d="M921.6 820.906667h-90.453333c-13.653333 0-25.6-11.946667-25.6-25.6V228.693333c0-13.653333 11.946667-25.6 25.6-25.6H921.6c37.546667 0 68.266667 29.013333 68.266667 64.853334v489.813333c0 34.133333-30.72 63.146667-68.266667 63.146667z m-64.853333-51.2H921.6c8.533333 0 17.066667-5.12 17.066667-13.653334V267.946667c0-6.826667-8.533333-13.653333-17.066667-13.653334h-64.853333v515.413334zM192.853333 820.906667H102.4c-37.546667 0-68.266667-29.013333-68.266667-64.853334V267.946667c0-35.84 30.72-64.853333 68.266667-64.853334h90.453333c13.653333 0 25.6 11.946667 25.6 25.6v566.613334c0 13.653333-11.946667 25.6-25.6 25.6zM102.4 254.293333c-8.533333 0-17.066667 5.12-17.066667 13.653334v489.813333c0 6.826667 8.533333 13.653333 17.066667 13.653333h64.853333V254.293333H102.4z"  /><path  d="M684.373333 302.08H339.626667c-13.653333 0-25.6-11.946667-25.6-25.6s11.946667-25.6 25.6-25.6h346.453333c13.653333 0 25.6 11.946667 25.6 25.6s-11.946667 25.6-27.306667 25.6zM684.373333 459.093333H339.626667c-13.653333 0-25.6-11.946667-25.6-25.6s11.946667-25.6 25.6-25.6h346.453333c13.653333 0 25.6 11.946667 25.6 25.6s-11.946667 25.6-27.306667 25.6zM684.373333 616.106667H339.626667c-13.653333 0-25.6-11.946667-25.6-25.6s11.946667-25.6 25.6-25.6h346.453333c13.653333 0 25.6 11.946667 25.6 25.6s-11.946667 25.6-27.306667 25.6zM684.373333 773.12H339.626667c-13.653333 0-25.6-11.946667-25.6-25.6s11.946667-25.6 25.6-25.6h346.453333c13.653333 0 25.6 11.946667 25.6 25.6s-11.946667 25.6-27.306667 25.6z"  /></svg>