<?xml version="1.0" standalone="no"?><!DOCTYPE svg PUBLIC "-//W3C//DTD SVG 1.1//EN" "http://www.w3.org/Graphics/SVG/1.1/DTD/svg11.dtd"><svg class="icon" width="64px" height="64.00px" viewBox="0 0 1024 1024" version="1.1" xmlns="http://www.w3.org/2000/svg"><path  d="M512 954.026667c-13.653333 0-25.6-11.946667-25.6-25.6 0-64.853333-52.906667-117.76-117.76-117.76H59.733333c-13.653333 0-25.6-10.24-25.6-25.6V95.573333c0-13.653333 11.946667-25.6 25.6-25.6h261.12c119.466667 0 216.746667 97.28 216.746667 216.746667v643.413333c0 11.946667-11.946667 23.893333-25.6 23.893334zM85.333333 759.466667h283.306667c46.08 0 87.04 18.773333 117.76 47.786666V285.013333c0-90.453333-73.386667-165.546667-165.546667-165.546666H85.333333v640z"  /><path  d="M512 954.026667c-13.653333 0-25.6-11.946667-25.6-25.6V285.013333c0-119.466667 97.28-216.746667 216.746667-216.746666h261.12c13.653333 0 25.6 11.946667 25.6 25.6V785.066667c0 13.653333-11.946667 25.6-25.6 25.6H655.36c-64.853333 0-117.76 52.906667-117.76 117.76 0 13.653333-11.946667 25.6-25.6 25.6zM703.146667 121.173333c-90.453333 0-165.546667 73.386667-165.546667 165.546667v522.24c30.72-29.013333 71.68-47.786667 117.76-47.786667H938.666667V121.173333H703.146667z"  /></svg>