<?xml version="1.0" standalone="no"?><!DOCTYPE svg PUBLIC "-//W3C//DTD SVG 1.1//EN" "http://www.w3.org/Graphics/SVG/1.1/DTD/svg11.dtd"><svg class="icon" width="64px" height="64.00px" viewBox="0 0 1024 1024" version="1.1" xmlns="http://www.w3.org/2000/svg"><path  d="M913.408 797.696H144.725333C93.184 797.696 51.2 755.712 51.2 704.170667V161.450667c0-51.541333 41.984-93.525333 93.525333-93.525334h768.853334c51.541333 0 93.354667 41.984 93.354666 93.525334v542.72c0 51.541333-41.984 93.525333-93.525333 93.525333zM144.725333 119.296C121.344 119.296 102.4 138.24 102.4 161.450667v542.72c0 23.210667 18.944 42.154667 42.325333 42.154666h768.853334c23.210667 0 42.154667-18.944 42.154666-42.154666V161.450667c0-23.381333-18.944-42.325333-42.154666-42.325334H144.725333z"  /><path  d="M529.066667 955.904c-14.165333 0-25.6-11.434667-25.6-25.6v-158.378667c0-14.165333 11.434667-25.6 25.6-25.6s25.6 11.434667 25.6 25.6v158.378667c0 14.165333-11.434667 25.6-25.6 25.6z"  /><path  d="M845.653333 955.904h-633.173333c-14.165333 0-25.6-11.434667-25.6-25.6s11.434667-25.6 25.6-25.6h633.173333c14.165333 0 25.6 11.434667 25.6 25.6s-11.434667 25.6-25.6 25.6zM647.68 409.088h-237.226667c-14.165333 0-25.6-11.434667-25.6-25.6s11.434667-25.6 25.6-25.6h237.226667c14.165333 0 25.6 11.434667 25.6 25.6s-11.434667 25.6-25.6 25.6zM647.68 527.701333h-237.226667c-14.165333 0-25.6-11.434667-25.6-25.6s11.434667-25.6 25.6-25.6h237.226667c14.165333 0 25.6 11.434667 25.6 25.6s-11.434667 25.6-25.6 25.6z"  /><path  d="M529.237333 646.144c-14.165333 0-25.6-11.434667-25.6-25.6V383.488c0-14.165333 11.434667-25.6 25.6-25.6s25.6 11.434667 25.6 25.6v237.056c0 14.165333-11.434667 25.6-25.6 25.6z"  /><path  d="M529.066667 399.872l-136.704-136.704c-10.069333-10.069333-10.069333-26.282667 0-36.181333s26.282667-10.069333 36.181333 0L529.066667 327.509333l100.522666-100.522666c10.069333-10.069333 26.282667-10.069333 36.181334 0s10.069333 26.282667 0 36.181333L529.066667 399.872z"  /></svg>