<?xml version="1.0" standalone="no"?><!DOCTYPE svg PUBLIC "-//W3C//DTD SVG 1.1//EN" "http://www.w3.org/Graphics/SVG/1.1/DTD/svg11.dtd"><svg class="icon" width="64px" height="64.00px" viewBox="0 0 1024 1024" version="1.1" xmlns="http://www.w3.org/2000/svg"><path  d="M839.168 616.618667c-37.546667-31.914667-82.090667-54.101333-129.365333-65.706667V191.488c0-6.656-2.56-13.141333-7.338667-17.92L573.44 41.472l-0.170667-0.170667c-1.024-1.024-2.048-1.877333-3.242666-2.730666a25.975467 25.975467 0 0 0-9.898667-4.437334c-1.706667-0.341333-3.413333-0.512-5.12-0.512H215.210667a94.037333 94.037333 0 0 0-93.866667 93.866667v455.509333c-42.496 3.242667-64 21.333333-74.922667 37.717334-14.336 23.04-16.213333 51.541333-5.290666 75.093333 6.656 16.725333 8.704 21.674667 208.554666 177.834667 13.994667 10.922667 51.2 39.936 54.101334 42.325333 18.090667 18.261333 21.333333 21.504 347.477333 14.336l19.456-0.341333c6.314667 3.925333 19.456 13.141333 42.154667 30.890666 28.330667 21.845333 37.888 29.184 56.149333 29.184 22.698667 0 26.282667-3.413333 118.613333-92.842666 41.813333-40.277333 84.138667-82.090667 88.746667-86.528 9.386667-9.386667 14.336-22.528 13.824-35.84-1.365333-22.869333-1.706667-31.402667-151.04-158.208zM580.778667 122.368l51.2 52.394667h-51.2V122.368zM215.210667 84.992h314.538666v115.2c0 14.165333 11.434667 25.6 25.6 25.6h103.424v316.586667c-8.021333-0.682667-16.042667-1.024-24.234666-1.024H457.557333c-67.925333 0-98.986667 47.616-98.986666 91.989333 0 23.381333 10.922667 46.250667 28.330666 63.829333H334.506667c-8.874667-5.802667-27.477333-20.48-37.546667-28.501333-37.376-29.525333-81.578667-64.512-124.416-79.189333V127.658667a42.666667 42.666667 0 0 1 42.666667-42.666667zM851.626667 860.501333c-41.984 40.618667-73.045333 70.485333-83.456 77.994667-4.266667-2.56-13.653333-9.728-24.405334-17.92-43.008-33.621333-53.248-38.058667-57.002666-39.594667-3.242667-1.365333-6.656-2.048-10.069334-2.048h-0.512l-26.282666 0.512c-172.032 3.754667-290.986667 5.12-310.784 0l-0.341334-0.341333c-2.730667-2.389333-12.8-10.410667-57.856-45.738667-110.592-86.528-185.856-146.261333-192.853333-157.525333-4.096-9.045333-3.413333-19.456 1.194667-27.136 8.362667-12.458667 29.184-15.018667 45.056-15.018667 35.84 0 90.794667 43.52 131.413333 75.605334 28.672 22.698667 43.008 33.450667 52.736 37.205333 3.072 1.194667 6.314667 1.877333 9.557333 1.877333h183.125334c3.754667 0 7.68-0.853333 11.093333-2.56 6.826667-3.242667 13.482667-7.168 19.626667-11.434666 8.704-5.973333 12.629333-16.725333 10.24-26.965334-2.389333-10.24-10.922667-17.92-21.333334-19.456l-24.405333-3.584c-21.845333-3.072-44.544-6.314667-56.149333-8.533333-20.821333-3.925333-40.618667-24.746667-40.618667-42.666667 0-12.288 4.608-40.789333 47.786667-40.789333h176.810666c62.805333 0 123.733333 22.357333 171.690667 62.976 79.018667 67.242667 123.392 107.690667 132.096 120.661333-9.045333 9.216-47.957333 47.445333-86.357333 84.48z"  /><path  d="M351.573333 379.562667c-14.165333 0-25.6 11.434667-25.6 25.6s11.434667 25.6 25.6 25.6h38.4v38.4c0 14.165333 11.434667 25.6 25.6 25.6s25.6-11.434667 25.6-25.6v-38.4h38.4c14.165333 0 25.6-11.434667 25.6-25.6s-11.434667-25.6-25.6-25.6h-38.4v-12.8h38.4c14.165333 0 25.6-11.434667 25.6-25.6s-11.434667-25.6-25.6-25.6h-12.8l30.890667-30.890667c10.069333-10.069333 10.069333-26.282667 0-36.181333s-26.282667-10.069333-36.181333 0l-45.909334 45.909333-45.909333-45.909333c-10.069333-10.069333-26.282667-10.069333-36.181333 0s-10.069333 26.282667 0 36.181333l30.890666 30.890667h-12.8c-14.165333 0-25.6 11.434667-25.6 25.6s11.434667 25.6 25.6 25.6h38.4v12.8H351.573333z"  /></svg>