<?xml version="1.0" standalone="no"?><!DOCTYPE svg PUBLIC "-//W3C//DTD SVG 1.1//EN" "http://www.w3.org/Graphics/SVG/1.1/DTD/svg11.dtd"><svg class="icon" width="64px" height="64.00px" viewBox="0 0 1024 1024" version="1.1" xmlns="http://www.w3.org/2000/svg"><path  d="M761.173333 989.866667H150.186667c-51.2 0-93.866667-42.666667-93.866667-93.866667v-768c0-51.2 42.666667-93.866667 93.866667-93.866667h542.72c51.2 0 93.866667 42.666667 93.866666 93.866667v836.266667c0 13.653333-11.946667 25.6-25.6 25.6zM150.186667 85.333333C126.293333 85.333333 107.52 104.106667 107.52 128v768c0 23.893333 18.773333 42.666667 42.666667 42.666667h585.386666V128C735.573333 104.106667 716.8 85.333333 692.906667 85.333333H150.186667z"  /><path  d="M873.813333 989.866667h-112.64c-13.653333 0-25.6-11.946667-25.6-25.6V512c0-39.253333 32.426667-69.973333 69.973334-69.973333h90.453333c39.253333 0 69.973333 32.426667 69.973333 69.973333v384c1.706667 51.2-40.96 93.866667-92.16 93.866667z m-87.04-51.2h87.04c23.893333 0 42.666667-18.773333 42.666667-42.666667V512c0-10.24-8.533333-18.773333-18.773333-18.773333h-90.453334c-10.24 0-18.773333 8.533333-18.773333 18.773333v426.666667zM399.36 266.24H218.453333c-13.653333 0-25.6-11.946667-25.6-25.6s11.946667-25.6 25.6-25.6h180.906667c13.653333 0 25.6 11.946667 25.6 25.6s-11.946667 25.6-25.6 25.6zM489.813333 424.96H218.453333c-13.653333 0-25.6-11.946667-25.6-25.6s11.946667-25.6 25.6-25.6h271.36c13.653333 0 25.6 11.946667 25.6 25.6s-11.946667 25.6-25.6 25.6z"  /></svg>