<?xml version="1.0" standalone="no"?><!DOCTYPE svg PUBLIC "-//W3C//DTD SVG 1.1//EN" "http://www.w3.org/Graphics/SVG/1.1/DTD/svg11.dtd"><svg class="icon" width="64px" height="64.00px" viewBox="0 0 1024 1024" version="1.1" xmlns="http://www.w3.org/2000/svg"><path  d="M896 138.24h-836.266667c-10.069333 0-19.285333 5.973333-23.381333 15.189333-4.096 9.216-2.389333 19.968 4.437333 27.648l138.922667 153.088-139.264 161.109334c-8.021333 9.216-8.362667 22.869333-0.853333 32.426666l139.946666 180.394667-137.728 133.802667c-7.509333 7.338667-9.728 18.261333-5.802666 27.989333 3.925333 9.728 13.312 16.042667 23.722666 16.042667h836.266667c51.712 0 93.866667-42.154667 93.866667-93.866667V232.106667c0-51.712-42.154667-93.866667-93.866667-93.866667zM938.666667 791.893333a42.666667 42.666667 0 0 1-42.666667 42.666667H386.389333v-76.8c0-14.165333-11.434667-25.6-25.6-25.6s-25.6 11.434667-25.6 25.6v76.8H122.709333l108.885334-105.813333c9.386667-9.045333 10.410667-23.722667 2.389333-34.133334L92.842667 512.853333l140.288-162.304c8.533333-9.728 8.362667-24.405333-0.341334-33.962666L117.418667 189.44h217.770666v76.8c0 14.165333 11.434667 25.6 25.6 25.6s25.6-11.434667 25.6-25.6v-76.8H896a42.666667 42.666667 0 0 1 42.666667 42.666667v559.786666z"  /><path  d="M360.789333 404.48c-14.165333 0-25.6 11.434667-25.6 25.6v163.84c0 14.165333 11.434667 25.6 25.6 25.6s25.6-11.434667 25.6-25.6v-163.84c0-14.165333-11.434667-25.6-25.6-25.6zM781.141333 327.509333a25.429333 25.429333 0 0 0-36.181333 0l-87.04 87.04-87.04-87.04c-10.069333-10.069333-26.282667-10.069333-36.181333 0s-10.069333 26.282667 0 36.181334l78.848 78.848h-60.757334c-14.165333 0-25.6 11.434667-25.6 25.6s11.434667 25.6 25.6 25.6h79.701334v53.930666h-79.701334c-14.165333 0-25.6 11.434667-25.6 25.6s11.434667 25.6 25.6 25.6h79.701334v79.530667c0 14.165333 11.434667 25.6 25.6 25.6s25.6-11.434667 25.6-25.6v-79.530667h79.36c14.165333 0 25.6-11.434667 25.6-25.6s-11.434667-25.6-25.6-25.6h-79.36v-53.930666h79.36c14.165333 0 25.6-11.434667 25.6-25.6s-11.434667-25.6-25.6-25.6h-60.757334l78.848-78.848c9.898667-10.069333 9.898667-26.112 0-36.181334z"  /></svg>