<?xml version="1.0" standalone="no"?><!DOCTYPE svg PUBLIC "-//W3C//DTD SVG 1.1//EN" "http://www.w3.org/Graphics/SVG/1.1/DTD/svg11.dtd"><svg class="icon" width="64px" height="64.00px" viewBox="0 0 1024 1024" version="1.1" xmlns="http://www.w3.org/2000/svg"><path  d="M572.586667 989.866667H197.290667c-60.245333 0-109.397333-49.152-109.397334-109.397334V143.530667C87.893333 83.285333 137.045333 34.133333 197.290667 34.133333h592.725333c51.712 0 93.866667 42.154667 93.866667 93.866667v253.781333c0 14.165333-11.434667 25.6-25.6 25.6s-25.6-11.434667-25.6-25.6V128a42.666667 42.666667 0 0 0-42.666667-42.666667H197.290667C165.205333 85.333333 139.093333 111.445333 139.093333 143.530667v736.938666c0 32.085333 26.112 58.197333 58.197334 58.197334h375.296c14.165333 0 25.6 11.434667 25.6 25.6s-11.434667 25.6-25.6 25.6z"  /><path  d="M858.282667 690.005333H599.722667c-14.165333 0-25.6-11.434667-25.6-25.6s11.434667-25.6 25.6-25.6H858.453333c14.165333 0 25.6 11.434667 25.6 25.6s-11.605333 25.6-25.770666 25.6zM858.282667 819.370667H599.722667c-14.165333 0-25.6-11.434667-25.6-25.6s11.434667-25.6 25.6-25.6H858.453333c14.165333 0 25.6 11.434667 25.6 25.6s-11.605333 25.6-25.770666 25.6z"  /><path  d="M729.258667 948.736c-14.165333 0-25.6-11.434667-25.6-25.6V664.405333c0-14.165333 11.434667-25.6 25.6-25.6s25.6 11.434667 25.6 25.6v258.730667c0 14.165333-11.605333 25.6-25.6 25.6z"  /><path  d="M729.088 679.082667l-147.456-147.456c-10.069333-10.069333-10.069333-26.282667 0-36.181334s26.282667-10.069333 36.181333 0l111.274667 111.274667 111.274667-111.274667c10.069333-10.069333 26.282667-10.069333 36.181333 0s10.069333 26.282667 0 36.181334l-147.456 147.456z"  /><path  d="M683.008 249.344h-394.24c-14.165333 0-25.6-11.434667-25.6-25.6s11.434667-25.6 25.6-25.6h394.24c14.165333 0 25.6 11.434667 25.6 25.6s-11.434667 25.6-25.6 25.6z"  /></svg>