<?xml version="1.0" standalone="no"?><!DOCTYPE svg PUBLIC "-//W3C//DTD SVG 1.1//EN" "http://www.w3.org/Graphics/SVG/1.1/DTD/svg11.dtd"><svg class="icon" width="64px" height="64.00px" viewBox="0 0 1024 1024" version="1.1" xmlns="http://www.w3.org/2000/svg"><path  d="M964.266667 368.128c14.165333 0 25.6-11.434667 25.6-25.6v-122.197333c0-51.712-42.154667-93.866667-93.866667-93.866667h-768a94.037333 94.037333 0 0 0-93.866667 93.866667v122.197333c0 14.165333 11.434667 25.6 25.6 25.6 78.506667 0 142.336 63.829333 142.336 142.336S138.24 652.629333 59.733333 652.629333c-14.165333 0-25.6 11.434667-25.6 25.6v122.197334c0 51.712 42.154667 93.866667 93.866667 93.866666h768c51.712 0 93.866667-42.154667 93.866667-93.866666v-122.197334c0-14.165333-11.434667-25.6-25.6-25.6-78.506667 0-142.336-63.829333-142.336-142.336s63.829333-142.165333 142.336-142.165333z m-193.536 142.336c0 97.962667 73.216 179.2 167.936 191.829333v98.304a42.666667 42.666667 0 0 1-42.666667 42.666667h-768a42.666667 42.666667 0 0 1-42.666667-42.666667v-98.304c94.72-12.629333 167.936-93.866667 167.936-191.829333S180.053333 331.264 85.333333 318.634667v-98.304a42.666667 42.666667 0 0 1 42.666667-42.666667h768a42.666667 42.666667 0 0 1 42.666667 42.666667v98.304c-94.72 12.458667-167.936 93.696-167.936 191.829333z"  /><path  d="M637.781333 509.098667c14.165333 0 25.6-11.434667 25.6-25.6s-11.434667-25.6-25.6-25.6h-99.84l100.010667-100.010667c10.069333-10.069333 10.069333-26.282667 0-36.181333s-26.282667-10.069333-36.181333 0L512 411.306667l-89.6-89.770667c-10.069333-10.069333-26.282667-10.069333-36.181333 0s-10.069333 26.282667 0 36.181333l100.010666 100.010667h-99.84c-14.165333 0-25.6 11.434667-25.6 25.6s11.434667 25.6 25.6 25.6h100.181334v56.661333h-100.181334c-14.165333 0-25.6 11.434667-25.6 25.6s11.434667 25.6 25.6 25.6h100.181334v64.170667c0 14.165333 11.434667 25.6 25.6 25.6s25.6-11.434667 25.6-25.6v-64.170667h100.181333c14.165333 0 25.6-11.434667 25.6-25.6s-11.434667-25.6-25.6-25.6H537.6v-56.661333h100.181333z"  /></svg>