<?xml version="1.0" standalone="no"?><!DOCTYPE svg PUBLIC "-//W3C//DTD SVG 1.1//EN" "http://www.w3.org/Graphics/SVG/1.1/DTD/svg11.dtd"><svg class="icon" width="64px" height="64.00px" viewBox="0 0 1024 1024" version="1.1" xmlns="http://www.w3.org/2000/svg"><path  d="M512 989.866667C249.173333 989.866667 34.133333 774.826667 34.133333 512S249.173333 34.133333 512 34.133333s477.866667 215.04 477.866667 477.866667c0 13.653333-11.946667 25.6-25.6 25.6H559.786667c-11.946667 0-22.186667 10.24-22.186667 22.186667v404.48c0 13.653333-11.946667 25.6-25.6 25.6z m0-904.533334C276.48 85.333333 85.333333 276.48 85.333333 512c0 226.986667 177.493333 413.013333 401.066667 426.666667V559.786667c0-40.96 32.426667-73.386667 73.386667-73.386667H938.666667C925.013333 262.826667 738.986667 85.333333 512 85.333333z"  /><path  d="M940.373333 965.973333H655.36c-13.653333 0-25.6-11.946667-25.6-25.6V655.36c0-13.653333 11.946667-25.6 25.6-25.6h285.013333c13.653333 0 25.6 11.946667 25.6 25.6v285.013333c0 13.653333-11.946667 25.6-25.6 25.6z m-259.413333-51.2h233.813333V680.96H680.96v233.813333z"  /></svg>