<?xml version="1.0" standalone="no"?><!DOCTYPE svg PUBLIC "-//W3C//DTD SVG 1.1//EN" "http://www.w3.org/Graphics/SVG/1.1/DTD/svg11.dtd"><svg class="icon" width="64px" height="64.00px" viewBox="0 0 1024 1024" version="1.1" xmlns="http://www.w3.org/2000/svg"><path  d="M225.621333 261.632h420.352c14.165333 0 25.6-11.434667 25.6-25.6s-11.434667-25.6-25.6-25.6H225.621333c-14.165333 0-25.6 11.434667-25.6 25.6s11.434667 25.6 25.6 25.6zM671.573333 417.109333c0-14.165333-11.434667-25.6-25.6-25.6H225.621333c-14.165333 0-25.6 11.434667-25.6 25.6s11.434667 25.6 25.6 25.6h420.352c13.994667 0 25.6-11.434667 25.6-25.6z"  /><path  d="M834.218667 530.944V127.488c0-51.541333-44.373333-93.354667-98.645334-93.354667H136.021333C81.578667 34.133333 37.205333 75.946667 37.205333 127.488v830.464c0 9.045333 4.778667 17.578667 12.629334 22.016 3.925333 2.389333 8.533333 3.584 12.970666 3.584 4.266667 0 8.704-1.024 12.458667-3.242667l169.813333-95.232 178.517334 95.573334c7.168 3.925333 15.872 4.096 23.210666 0.512l132.096-63.488c43.178667 44.373333 103.594667 72.192 170.325334 72.192 130.901333 0 237.397333-106.496 237.397333-237.397334 0.170667-101.034667-63.317333-187.221333-152.405333-221.525333zM436.394667 929.28l-179.370667-96.085333c-7.68-4.096-17.066667-4.096-24.576 0.170666l-143.872 80.725334V127.488C88.405333 104.277333 109.738667 85.333333 136.021333 85.333333H735.573333c26.112 0 47.445333 18.944 47.445334 42.154667v390.144c-11.093333-1.536-22.186667-2.730667-33.792-2.730667-130.901333 0-237.397333 106.496-237.397334 237.397334 0 45.397333 12.970667 87.552 35.157334 123.733333l-110.592 53.248zM749.226667 938.666667c-102.741333 0-186.197333-83.626667-186.197334-186.197334s83.626667-186.197333 186.197334-186.197333 186.197333 83.626667 186.197333 186.197333S851.968 938.666667 749.226667 938.666667z"  /><path  d="M830.976 638.976a25.429333 25.429333 0 0 0-36.181333 0L749.226667 684.373333l-45.397334-45.397333a25.429333 25.429333 0 0 0-36.181333 0 25.429333 25.429333 0 0 0 0 36.181333l30.378667 30.378667h-12.288c-14.165333 0-25.6 11.434667-25.6 25.6s11.434667 25.6 25.6 25.6h38.058666v12.288h-38.058666c-14.165333 0-25.6 11.434667-25.6 25.6s11.434667 25.6 25.6 25.6h38.058666v37.888c0 14.165333 11.434667 25.6 25.6 25.6s25.6-11.434667 25.6-25.6v-37.888h37.888c14.165333 0 25.6-11.434667 25.6-25.6s-11.434667-25.6-25.6-25.6h-37.888v-12.288h37.888c14.165333 0 25.6-11.434667 25.6-25.6s-11.434667-25.6-25.6-25.6h-12.458666l30.378666-30.378667a25.6 25.6 0 0 0 0.170667-36.181333z"  /></svg>