<?xml version="1.0" standalone="no"?><!DOCTYPE svg PUBLIC "-//W3C//DTD SVG 1.1//EN" "http://www.w3.org/Graphics/SVG/1.1/DTD/svg11.dtd"><svg class="icon" width="64px" height="64.00px" viewBox="0 0 1024 1024" version="1.1" xmlns="http://www.w3.org/2000/svg"><path  d="M884.394667 34.133333H139.605333C81.408 34.133333 34.133333 81.408 34.133333 139.605333v744.96C34.133333 942.592 81.408 989.866667 139.605333 989.866667H445.44c14.165333 0 25.6-11.434667 25.6-25.6s-11.434667-25.6-25.6-25.6H139.605333C109.568 938.666667 85.333333 914.432 85.333333 884.394667V139.605333C85.333333 109.568 109.568 85.333333 139.605333 85.333333h744.96C914.432 85.333333 938.666667 109.568 938.666667 139.605333v328.704c0 14.165333 11.434667 25.6 25.6 25.6s25.6-11.434667 25.6-25.6V139.605333C989.866667 81.408 942.592 34.133333 884.394667 34.133333z"  /><path  d="M497.834667 476.842667H397.653333v-56.661334h100.181334c14.165333 0 25.6-11.434667 25.6-25.6s-11.434667-25.6-25.6-25.6h-99.84l100.010666-100.010666c10.069333-10.069333 10.069333-26.282667 0-36.181334s-26.282667-10.069333-36.181333 0l-89.6 89.6-89.770667-89.6c-10.069333-10.069333-26.282667-10.069333-36.181333 0s-10.069333 26.282667 0 36.181334l100.010667 100.010666h-99.84c-14.165333 0-25.6 11.434667-25.6 25.6s11.434667 25.6 25.6 25.6h100.181333v56.661334h-100.181333c-14.165333 0-25.6 11.434667-25.6 25.6s11.434667 25.6 25.6 25.6h100.181333v64.170666c0 14.165333 11.434667 25.6 25.6 25.6s25.6-11.434667 25.6-25.6v-64.170666h100.181333c14.165333 0 25.6-11.434667 25.6-25.6s-11.605333-25.6-25.770666-25.6zM841.045333 738.645333a126.498133 126.498133 0 0 0 40.789334-93.184c0-70.314667-57.173333-127.488-127.488-127.488s-127.317333 57.173333-127.317334 127.488c0 36.864 15.701333 69.802667 40.789334 93.184-84.821333 34.304-144.896 117.589333-144.896 214.698667 0 14.165333 11.434667 25.6 25.6 25.6s25.6-11.434667 25.6-25.6c0-99.498667 80.896-180.394667 180.394666-180.394667s180.394667 80.896 180.394667 180.394667c0 14.165333 11.434667 25.6 25.6 25.6s25.6-11.434667 25.6-25.6c-0.170667-97.109333-60.245333-180.224-145.066667-214.698667z m-162.816-93.013333c0-41.984 34.133333-76.288 76.117334-76.288s76.288 34.133333 76.288 76.288a76.219733 76.219733 0 0 1-152.405334 0z"  /></svg>