<?xml version="1.0" standalone="no"?><!DOCTYPE svg PUBLIC "-//W3C//DTD SVG 1.1//EN" "http://www.w3.org/Graphics/SVG/1.1/DTD/svg11.dtd"><svg class="icon" width="64px" height="64.00px" viewBox="0 0 1024 1024" version="1.1" xmlns="http://www.w3.org/2000/svg"><path  d="M896.341333 34.133333H308.565333c-51.541333 0-93.525333 41.984-93.525333 93.525334v42.154666H127.658667C76.117333 169.813333 34.133333 211.797333 34.133333 263.168v633.173333C34.133333 947.882667 76.117333 989.866667 127.658667 989.866667h633.173333c51.541333 0 93.354667-41.984 93.354667-93.354667V808.96h42.325333c51.541333 0 93.525333-41.984 93.525333-93.525333V127.658667C989.866667 76.117333 947.882667 34.133333 896.341333 34.133333z m-93.354666 862.378667c0 23.210667-18.944 42.154667-42.154667 42.154667H127.658667C104.277333 938.666667 85.333333 919.722667 85.333333 896.512v-633.173333c0-23.210667 18.944-42.154667 42.325334-42.154667h633.173333c23.210667 0 42.154667 18.944 42.154667 42.154667v633.173333zM938.666667 715.434667a42.325333 42.325333 0 0 1-42.325334 42.325333h-42.325333V263.168c0-51.541333-41.984-93.354667-93.354667-93.354667H266.24V127.658667A42.325333 42.325333 0 0 1 308.565333 85.333333h587.946667C919.722667 85.333333 938.666667 104.277333 938.666667 127.658667v587.776z"  /><path  d="M602.453333 560.298667c14.165333 0 25.6-11.434667 25.6-25.6s-11.434667-25.6-25.6-25.6H460.8l137.216-137.216c10.069333-10.069333 10.069333-26.282667 0-36.181334s-26.282667-10.069333-36.181333 0l-117.589334 117.589334-117.589333-117.589334c-10.069333-10.069333-26.282667-10.069333-36.181333 0s-10.069333 26.282667 0 36.181334l137.216 137.216h-141.653334c-14.165333 0-25.6 11.434667-25.6 25.6s11.434667 25.6 25.6 25.6h132.608v84.48h-132.608c-14.165333 0-25.6 11.434667-25.6 25.6s11.434667 25.6 25.6 25.6h132.608v87.552c0 14.165333 11.434667 25.6 25.6 25.6s25.6-11.434667 25.6-25.6v-87.552h132.608c14.165333 0 25.6-11.434667 25.6-25.6s-11.434667-25.6-25.6-25.6h-132.608v-84.48h132.608z"  /></svg>