<?xml version="1.0" standalone="no"?><!DOCTYPE svg PUBLIC "-//W3C//DTD SVG 1.1//EN" "http://www.w3.org/Graphics/SVG/1.1/DTD/svg11.dtd"><svg class="icon" width="64px" height="64.00px" viewBox="0 0 1024 1024" version="1.1" xmlns="http://www.w3.org/2000/svg"><path  d="M861.866667 887.466667h-90.453334c-13.653333 0-25.6-11.946667-25.6-25.6s11.946667-25.6 25.6-25.6h90.453334c23.893333 0 42.666667-18.773333 42.666666-42.666667v-665.6C904.533333 104.106667 885.76 85.333333 861.866667 85.333333H329.386667c-23.893333 0-42.666667 18.773333-42.666667 42.666667v52.906667c0 13.653333-11.946667 25.6-25.6 25.6s-25.6-11.946667-25.6-25.6V128c0-51.2 42.666667-93.866667 93.866667-93.866667h534.186666c51.2 0 93.866667 42.666667 93.866667 93.866667v663.893333c0 52.906667-42.666667 95.573333-95.573333 95.573334z"  /><path  d="M696.32 989.866667H160.426667c-51.2 0-93.866667-42.666667-93.866667-93.866667V259.413333c0-51.2 42.666667-93.866667 93.866667-93.866666h534.186666c51.2 0 93.866667 42.666667 93.866667 93.866666v636.586667c1.706667 51.2-40.96 93.866667-92.16 93.866667zM160.426667 216.746667c-23.893333 0-42.666667 18.773333-42.666667 42.666666v636.586667C117.76 919.893333 136.533333 938.666667 160.426667 938.666667h534.186666c23.893333 0 42.666667-18.773333 42.666667-42.666667V259.413333c0-23.893333-18.773333-42.666667-42.666667-42.666666H160.426667z"  /><path  d="M256 503.466667c-6.826667 0-13.653333-3.413333-18.773333-8.533334-10.24-10.24-8.533333-27.306667 1.706666-35.84l109.226667-100.693333c5.12-5.12 11.946667-6.826667 18.773333-6.826667 6.826667 0 13.653333 3.413333 18.773334 8.533334l68.266666 80.213333 131.413334-119.466667c10.24-10.24 27.306667-8.533333 35.84 1.706667 10.24 10.24 8.533333 27.306667-1.706667 35.84l-151.893333 136.533333c-5.12 5.12-11.946667 6.826667-18.773334 6.826667-6.826667 0-13.653333-3.413333-17.066666-8.533333l-68.266667-80.213334-90.453333 83.626667c-5.12 3.413333-11.946667 6.826667-17.066667 6.826667zM257.706667 839.68c-13.653333 0-25.6-11.946667-25.6-25.6v-170.666667c0-13.653333 11.946667-25.6 25.6-25.6s25.6 11.946667 25.6 25.6v170.666667c0 13.653333-11.946667 25.6-25.6 25.6zM428.373333 839.68c-13.653333 0-25.6-11.946667-25.6-25.6v-170.666667c0-13.653333 11.946667-25.6 25.6-25.6s25.6 11.946667 25.6 25.6v170.666667c0 13.653333-11.946667 25.6-25.6 25.6zM599.04 839.68c-13.653333 0-25.6-11.946667-25.6-25.6v-170.666667c0-13.653333 11.946667-25.6 25.6-25.6s25.6 11.946667 25.6 25.6v170.666667c0 13.653333-11.946667 25.6-25.6 25.6z"  /></svg>