<?xml version="1.0" standalone="no"?><!DOCTYPE svg PUBLIC "-//W3C//DTD SVG 1.1//EN" "http://www.w3.org/Graphics/SVG/1.1/DTD/svg11.dtd"><svg class="icon" width="64px" height="64.00px" viewBox="0 0 1024 1024" version="1.1" xmlns="http://www.w3.org/2000/svg"><path d="M921.6 85.333333c9.386667 0 17.066667 7.68 17.066667 17.066667v819.2c0 9.386667-7.68 17.066667-17.066667 17.066667H102.4c-9.386667 0-17.066667-7.68-17.066667-17.066667V102.4c0-9.386667 7.68-17.066667 17.066667-17.066667h819.2m0-51.2H102.4C64.682667 34.133333 34.133333 64.682667 34.133333 102.4v819.2c0 37.717333 30.549333 68.266667 68.266667 68.266667h819.2c37.717333 0 68.266667-30.549333 68.266667-68.266667V102.4c0-37.717333-30.549333-68.266667-68.266667-68.266667z" fill="#333333" /><path d="M512 223.232c30.549333 0 55.466667 24.917333 55.466667 55.466667s-24.917333 55.466667-55.466667 55.466666-55.466667-24.917333-55.466667-55.466666 24.917333-55.466667 55.466667-55.466667m0-51.2c-58.88 0-106.666667 47.786667-106.666667 106.666667s47.786667 106.666667 106.666667 106.666666 106.666667-47.786667 106.666667-106.666666-47.786667-106.666667-106.666667-106.666667zM539.648 497.834667c9.386667 0 17.066667 7.68 17.066667 17.066666v268.8c0 9.386667-7.68 17.066667-17.066667 17.066667h-55.125333c-9.386667 0-17.066667-7.68-17.066667-17.066667V514.901333c0-9.386667 7.68-17.066667 17.066667-17.066666h55.125333m0-51.2h-55.125333c-37.717333 0-68.266667 30.549333-68.266667 68.266666v268.8c0 37.717333 30.549333 68.266667 68.266667 68.266667h55.125333c37.717333 0 68.266667-30.549333 68.266667-68.266667V514.901333c0-37.717333-30.549333-68.266667-68.266667-68.266666z"  /></svg>