<?xml version="1.0" standalone="no"?><!DOCTYPE svg PUBLIC "-//W3C//DTD SVG 1.1//EN" "http://www.w3.org/Graphics/SVG/1.1/DTD/svg11.dtd"><svg class="icon" width="64px" height="64.00px" viewBox="0 0 1024 1024" version="1.1" xmlns="http://www.w3.org/2000/svg"><path  d="M861.013333 34.133333H162.986667a94.037333 94.037333 0 0 0-93.866667 93.866667v768c0 51.712 42.154667 93.866667 93.866667 93.866667h318.634666c14.165333 0 25.6-11.434667 25.6-25.6s-11.434667-25.6-25.6-25.6H162.986667a42.666667 42.666667 0 0 1-42.666667-42.666667v-768A42.666667 42.666667 0 0 1 162.986667 85.333333h697.856a42.666667 42.666667 0 0 1 42.666666 42.666667v323.925333c0 14.165333 11.434667 25.6 25.6 25.6s25.6-11.434667 25.6-25.6V128c0.170667-51.712-41.984-93.866667-93.696-93.866667z"  /><path  d="M221.525333 244.394667h366.421334c14.165333 0 25.6-11.434667 25.6-25.6s-11.434667-25.6-25.6-25.6H221.525333c-14.165333 0-25.6 11.434667-25.6 25.6s11.605333 25.6 25.6 25.6zM613.717333 388.266667c0-14.165333-11.434667-25.6-25.6-25.6H221.525333c-14.165333 0-25.6 11.434667-25.6 25.6s11.434667 25.6 25.6 25.6h366.421334a25.6 25.6 0 0 0 25.770666-25.6zM221.525333 532.138667c-14.165333 0-25.6 11.434667-25.6 25.6s11.434667 25.6 25.6 25.6h159.061334c14.165333 0 25.6-11.434667 25.6-25.6s-11.434667-25.6-25.6-25.6h-159.061334zM715.946667 503.466667c-131.754667 0-238.933333 107.178667-238.933334 238.933333s107.178667 238.933333 238.933334 238.933333 238.933333-107.178667 238.933333-238.933333-107.178667-238.933333-238.933333-238.933333z m0 426.666666c-103.594667 0-187.733333-84.138667-187.733334-187.733333s84.138667-187.733333 187.733334-187.733333 187.733333 84.138667 187.733333 187.733333-84.309333 187.733333-187.733333 187.733333z"  /><path  d="M798.037333 628.224a25.429333 25.429333 0 0 0-36.181333 0l-45.909333 45.909333-45.909334-45.909333c-10.069333-10.069333-26.282667-10.069333-36.181333 0s-10.069333 26.282667 0 36.181333l30.890667 30.890667h-12.8c-14.165333 0-25.6 11.434667-25.6 25.6s11.434667 25.6 25.6 25.6h38.570666v12.8H651.946667c-14.165333 0-25.6 11.434667-25.6 25.6s11.434667 25.6 25.6 25.6h38.570666v38.4c0 14.165333 11.434667 25.6 25.6 25.6s25.6-11.434667 25.6-25.6V810.666667h38.229334c14.165333 0 25.6-11.434667 25.6-25.6s-11.434667-25.6-25.6-25.6h-38.229334v-12.8h38.229334c14.165333 0 25.6-11.434667 25.6-25.6s-11.434667-25.6-25.6-25.6h-12.8l30.890666-30.890667c9.898667-10.069333 9.898667-26.282667 0-36.352z"  /></svg>