<?xml version="1.0" standalone="no"?><!DOCTYPE svg PUBLIC "-//W3C//DTD SVG 1.1//EN" "http://www.w3.org/Graphics/SVG/1.1/DTD/svg11.dtd"><svg class="icon" width="64px" height="64.00px" viewBox="0 0 1024 1024" version="1.1" xmlns="http://www.w3.org/2000/svg"><path  d="M445.44 989.866667H139.946667C81.92 989.866667 34.133333 942.08 34.133333 884.053333V139.946667C34.133333 81.92 81.92 34.133333 139.946667 34.133333h744.106666C942.08 34.133333 989.866667 81.92 989.866667 139.946667v329.386666c0 13.653333-11.946667 25.6-25.6 25.6s-25.6-11.946667-25.6-27.306666V139.946667C938.666667 109.226667 914.773333 85.333333 884.053333 85.333333H139.946667C109.226667 85.333333 85.333333 109.226667 85.333333 139.946667v744.106666C85.333333 914.773333 109.226667 938.666667 139.946667 938.666667h305.493333c13.653333 0 25.6 11.946667 25.6 25.6s-11.946667 25.6-25.6 25.6z"  /><path  d="M372.053333 394.24l-126.293333-126.293333c-10.24-10.24-10.24-25.6 0-35.84s25.6-10.24 35.84 0l90.453333 90.453333 90.453334-90.453333c10.24-10.24 25.6-10.24 35.84 0s10.24 25.6 0 35.84l-126.293334 126.293333z"  /><path  d="M498.346667 419.84H245.76c-13.653333 0-25.6-11.946667-25.6-25.6s11.946667-25.6 25.6-25.6h250.88c13.653333 0 25.6 11.946667 25.6 25.6s-10.24 25.6-23.893333 25.6zM498.346667 527.36H245.76c-13.653333 0-25.6-11.946667-25.6-25.6s11.946667-25.6 25.6-25.6h250.88c13.653333 0 25.6 11.946667 25.6 25.6s-10.24 25.6-23.893333 25.6z"  /><path  d="M372.053333 617.813333c-13.653333 0-25.6-11.946667-25.6-25.6V394.24c0-13.653333 11.946667-25.6 25.6-25.6s25.6 11.946667 25.6 25.6v197.973333c0 13.653333-11.946667 25.6-25.6 25.6z"  /><path  d="M740.693333 989.866667h-81.92c-13.653333 0-25.6-11.946667-25.6-25.6v-81.92c0-5.12 1.706667-10.24 5.12-15.36l213.333334-293.546667c3.413333-5.12 10.24-8.533333 17.066666-10.24 6.826667-1.706667 13.653333 1.706667 18.773334 5.12l92.16 71.68c10.24 8.533333 13.653333 23.893333 5.12 35.84L761.173333 979.626667c-5.12 6.826667-11.946667 10.24-20.48 10.24z m-54.613333-51.2h42.666667l201.386666-273.066667-51.2-39.253333-192.853333 264.533333V938.666667z"  /></svg>