<?xml version="1.0" standalone="no"?><!DOCTYPE svg PUBLIC "-//W3C//DTD SVG 1.1//EN" "http://www.w3.org/Graphics/SVG/1.1/DTD/svg11.dtd"><svg class="icon" width="64px" height="64.00px" viewBox="0 0 1024 1024" version="1.1" xmlns="http://www.w3.org/2000/svg"><path  d="M870.4 989.866667H129.706667c-40.96 0-73.386667-32.426667-73.386667-73.386667V240.64c0-13.653333 11.946667-25.6 25.6-25.6h858.453333c13.653333 0 25.6 11.946667 25.6 25.6v651.946667c1.706667 54.613333-42.666667 97.28-95.573333 97.28zM107.52 266.24v650.24c0 11.946667 10.24 22.186667 22.186667 22.186667H870.4c25.6 0 46.08-20.48 46.08-46.08V266.24H107.52z"  /><path  d="M942.08 266.24c-8.533333 0-15.36-3.413333-20.48-10.24l-114.346667-151.893333C798.72 92.16 785.066667 85.333333 769.706667 85.333333H254.293333c-13.653333 0-27.306667 6.826667-37.546666 18.773334L102.4 256c-8.533333 11.946667-23.893333 13.653333-35.84 5.12-11.946667-8.533333-13.653333-23.893333-5.12-35.84l114.346667-151.893333C194.56 49.493333 223.573333 34.133333 254.293333 34.133333h517.12c30.72 0 59.733333 15.36 78.506667 39.253334l114.346667 151.893333c8.533333 11.946667 6.826667 27.306667-5.12 35.84-6.826667 3.413333-11.946667 5.12-17.066667 5.12zM512 559.786667c-8.533333 0-15.36-3.413333-20.48-10.24l-107.52-136.533334c-8.533333-10.24-6.826667-27.306667 3.413333-35.84s27.306667-6.826667 35.84 3.413334l87.04 110.933333 87.04-110.933333c8.533333-10.24 25.6-13.653333 35.84-3.413334 10.24 8.533333 13.653333 25.6 3.413334 35.84l-107.52 136.533334c-1.706667 6.826667-8.533333 10.24-17.066667 10.24zM641.706667 696.32H382.293333c-13.653333 0-25.6-11.946667-25.6-25.6s11.946667-25.6 25.6-25.6h259.413334c13.653333 0 25.6 11.946667 25.6 25.6s-11.946667 25.6-25.6 25.6z"  /><path  d="M641.706667 559.786667H382.293333c-13.653333 0-25.6-11.946667-25.6-25.6s11.946667-25.6 25.6-25.6h259.413334c13.653333 0 25.6 11.946667 25.6 25.6s-11.946667 25.6-25.6 25.6z"  /><path  d="M512 831.146667c-13.653333 0-25.6-11.946667-25.6-25.6V534.186667c0-13.653333 11.946667-25.6 25.6-25.6s25.6 11.946667 25.6 25.6v271.36c0 15.36-11.946667 25.6-25.6 25.6z"  /></svg>