<?xml version="1.0" standalone="no"?><!DOCTYPE svg PUBLIC "-//W3C//DTD SVG 1.1//EN" "http://www.w3.org/Graphics/SVG/1.1/DTD/svg11.dtd"><svg class="icon" width="64px" height="64.00px" viewBox="0 0 1024 1024" version="1.1" xmlns="http://www.w3.org/2000/svg"><path  d="M520.874667 501.418667c-9.216 0-18.602667-2.389333-26.794667-7.168l-144.725333-83.626667a54.101333 54.101333 0 0 1-26.794667-46.421333v-167.253334c0-18.944 10.24-36.693333 26.624-46.250666l144.896-83.626667c16.554667-9.557333 37.034667-9.557333 53.589333 0l144.725334 83.456c16.554667 9.557333 26.794667 27.306667 26.794666 46.421333v79.018667c0 14.165333-11.434667 25.6-25.6 25.6s-25.6-11.434667-25.6-25.6v-79.018667c0-0.853333-0.512-1.536-1.194666-2.048l-144.725334-83.456c-0.682667-0.512-1.536-0.341333-2.218666 0l-144.896 83.626667c-0.682667 0.341333-1.194667 1.194667-1.194667 2.048v167.253333c0 0.853333 0.512 1.706667 1.194667 2.048l144.725333 83.456c0.682667 0.341333 1.536 0.341333 2.218667 0l46.250666-26.794666c12.288-7.168 27.818667-2.901333 34.986667 9.386666 6.997333 12.288 2.901333 27.818667-9.386667 34.986667l-46.08 26.624c-8.362667 4.949333-17.578667 7.338667-26.794666 7.338667z"  /><path  d="M520.704 308.394667c-4.266667 0-8.533333-1.024-12.458667-3.242667l-157.696-87.722667c-12.288-6.826667-16.725333-22.528-9.898666-34.816 6.826667-12.458667 22.528-16.896 34.816-9.898666l157.696 87.722666c12.288 6.826667 16.725333 22.528 9.898666 34.816-4.608 8.362667-13.312 13.141333-22.357333 13.141334z"  /><path  d="M520.704 308.394667c-9.045333 0-17.749333-4.778667-22.357333-13.141334-6.826667-12.288-2.389333-27.989333 9.898666-34.816l158.378667-88.234666c12.288-6.997333 27.989333-2.389333 34.816 9.898666 6.826667 12.288 2.389333 27.989333-9.898667 34.816l-158.378666 88.234667c-3.925333 2.218667-8.192 3.242667-12.458667 3.242667z"  /><path  d="M520.704 487.082667c-14.165333 0-25.6-11.434667-25.6-25.6V282.965333c0-14.165333 11.434667-25.6 25.6-25.6s25.6 11.434667 25.6 25.6v178.517334c0 13.994667-11.434667 25.6-25.6 25.6zM448.341333 334.677333c-4.266667 0-8.533333-1.024-12.458666-3.242666l-45.568-25.258667c-12.288-6.826667-16.725333-22.528-9.898667-34.816s22.528-16.896 34.816-9.898667L460.8 286.72c12.288 6.826667 16.725333 22.528 9.898667 34.816-4.778667 8.533333-13.482667 13.141333-22.357334 13.141333z"  /><path  d="M232.106667 964.096c-9.216 0-18.602667-2.389333-26.794667-7.168l-144.725333-83.626667a54.101333 54.101333 0 0 1-26.794667-46.421333v-167.253333c0-18.944 10.24-36.693333 26.624-46.250667l144.896-83.626667c16.554667-9.557333 37.034667-9.557333 53.589333 0l144.725334 83.456c16.554667 9.557333 26.794667 27.306667 26.794666 46.421334v79.018666c0 14.165333-11.434667 25.6-25.6 25.6s-25.6-11.434667-25.6-25.6v-79.018666c0-0.853333-0.512-1.536-1.194666-2.048l-144.725334-83.626667c-0.682667-0.512-1.536-0.341333-2.218666 0l-144.896 83.626667c-0.682667 0.341333-1.194667 1.194667-1.194667 2.048v167.253333c0 0.853333 0.512 1.706667 1.194667 2.048l144.725333 83.456c0.682667 0.341333 1.536 0.341333 2.218667 0l46.250666-26.624c12.288-6.997333 27.818667-2.901333 34.986667 9.386667s2.901333 27.818667-9.386667 34.986666l-46.08 26.624c-8.192 4.949333-17.408 7.338667-26.794666 7.338667z"  /><path  d="M232.106667 771.072c-4.266667 0-8.533333-1.024-12.458667-3.242667l-157.696-87.722666c-12.288-6.826667-16.725333-22.528-9.898667-34.816s22.528-16.896 34.816-9.898667l157.696 87.722667c12.288 6.826667 16.725333 22.528 9.898667 34.816-4.608 8.533333-13.312 13.141333-22.357333 13.141333z"  /><path  d="M232.106667 771.072c-9.045333 0-17.749333-4.778667-22.357334-13.141333-6.826667-12.288-2.389333-27.989333 9.898667-34.816l158.378667-88.234667c12.288-6.826667 27.989333-2.56 34.816 9.898667 6.826667 12.288 2.389333 27.989333-9.898667 34.816l-158.378667 88.234666c-3.925333 2.218667-8.192 3.242667-12.458666 3.242667z"  /><path  d="M232.106667 949.76c-14.165333 0-25.6-11.434667-25.6-25.6V745.642667c0-14.165333 11.434667-25.6 25.6-25.6s25.6 11.434667 25.6 25.6v178.517333c0 14.165333-11.434667 25.6-25.6 25.6zM159.744 797.525333c-4.266667 0-8.533333-1.024-12.458667-3.242666l-45.568-25.258667c-12.288-6.826667-16.725333-22.528-9.898666-34.816 6.826667-12.458667 22.528-16.896 34.816-9.898667l45.568 25.258667c12.288 6.826667 16.725333 22.528 9.898666 34.816-4.778667 8.362667-13.482667 13.141333-22.357333 13.141333z"  /><path  d="M792.405333 964.096c-9.216 0-18.602667-2.389333-26.794666-7.168l-144.384-83.285333a53.8624 53.8624 0 0 1-26.624-46.250667v-166.741333c0-18.944 10.24-36.522667 26.624-46.250667l144.554666-83.456c16.554667-9.557333 37.034667-9.557333 53.589334 0L963.413333 614.4c16.554667 9.557333 26.624 27.306667 26.624 46.250667v78.677333c0 14.165333-11.434667 25.6-25.6 25.6s-25.6-11.434667-25.6-25.6v-78.677333c0-0.853333-0.512-1.536-1.194666-2.048l-144.384-83.285334c-0.682667-0.341333-1.536-0.341333-2.048 0l-144.384 83.285334c-0.682667 0.341333-1.024 1.194667-1.024 1.877333v166.741333c0 0.853333 0.512 1.536 1.194666 2.048l144.213334 83.285334c0.682667 0.341333 1.365333 0.512 2.048 0l46.250666-26.624c12.117333-6.997333 27.818667-2.901333 34.986667 9.386666 6.997333 12.288 2.901333 27.818667-9.386667 34.986667l-46.08 26.453333c-8.021333 4.949333-17.237333 7.338667-26.624 7.338667z"  /><path  d="M792.405333 771.754667c-4.266667 0-8.533333-1.024-12.458666-3.242667l-157.184-87.552c-12.288-6.826667-16.725333-22.528-9.898667-34.816 6.826667-12.458667 22.528-16.896 34.816-9.898667l157.184 87.552c12.288 6.826667 16.725333 22.528 9.898667 34.816-4.608 8.362667-13.312 13.141333-22.357334 13.141334z"  /><path  d="M792.405333 771.754667c-9.045333 0-17.749333-4.778667-22.357333-13.141334-6.826667-12.288-2.389333-27.989333 9.898667-34.816l157.866666-87.893333c12.288-6.997333 27.989333-2.389333 34.816 9.898667 6.826667 12.288 2.389333 27.989333-9.898666 34.816l-157.866667 87.893333c-3.925333 2.218667-8.192 3.242667-12.458667 3.242667z"  /><path  d="M792.405333 949.76c-14.165333 0-25.6-11.434667-25.6-25.6V746.154667c0-14.165333 11.434667-25.6 25.6-25.6s25.6 11.434667 25.6 25.6v178.005333c0 14.165333-11.434667 25.6-25.6 25.6zM720.213333 798.037333c-4.266667 0-8.533333-1.024-12.458666-3.242666l-45.397334-25.258667c-12.288-6.826667-16.725333-22.528-9.898666-34.816s22.357333-16.896 34.816-9.898667l45.397333 25.258667c12.288 6.826667 16.725333 22.528 9.898667 34.816-4.778667 8.362667-13.482667 13.141333-22.357334 13.141333z"  /></svg>