<?xml version="1.0" standalone="no"?><!DOCTYPE svg PUBLIC "-//W3C//DTD SVG 1.1//EN" "http://www.w3.org/Graphics/SVG/1.1/DTD/svg11.dtd"><svg class="icon" width="64px" height="64.00px" viewBox="0 0 1024 1024" version="1.1" xmlns="http://www.w3.org/2000/svg"><path  d="M765.610667 162.133333c9.386667 0 17.066667 7.68 17.066666 17.066667v120.661333c0 9.386667-7.68 17.066667-17.066666 17.066667h-508.586667c-9.386667 0-17.066667-7.68-17.066667-17.066667V179.2c0-9.386667 7.68-17.066667 17.066667-17.066667h508.586667m0-51.2h-508.586667c-37.717333 0-68.266667 30.549333-68.266667 68.266667v120.661333c0 37.717333 30.549333 68.266667 68.266667 68.266667h508.586667c37.717333 0 68.266667-30.549333 68.266666-68.266667V179.2c0-37.717333-30.549333-68.266667-68.266666-68.266667z"  /><path  d="M920.917333 366.421333c9.386667 0 17.066667 7.68 17.066667 17.066667v462.506667c0 9.386667-7.68 17.066667-17.066667 17.066666h-819.2c-9.386667 0-17.066667-7.68-17.066666-17.066666v-462.506667c0-9.386667 7.68-17.066667 17.066666-17.066667h819.2m0-51.2h-819.2c-37.717333 0-68.266667 30.549333-68.266666 68.266667v462.506667c0 37.717333 30.549333 68.266667 68.266666 68.266666h819.2c37.717333 0 68.266667-30.549333 68.266667-68.266666v-462.506667c0-37.717333-30.549333-68.266667-68.266667-68.266667z"  /><path  d="M373.76 564.053333c9.386667 0 17.066667 7.68 17.066667 17.066667v31.914667c0 9.386667-7.68 17.066667-17.066667 17.066666h-31.914667c-9.386667 0-17.066667-7.68-17.066666-17.066666v-31.914667c0-9.386667 7.68-17.066667 17.066666-17.066667h31.914667m0-51.2h-31.914667c-37.717333 0-68.266667 30.549333-68.266666 68.266667v31.914667c0 37.717333 30.549333 68.266667 68.266666 68.266666h31.914667c37.717333 0 68.266667-30.549333 68.266667-68.266666v-31.914667c0-37.546667-30.549333-68.266667-68.266667-68.266667zM680.618667 564.053333c9.386667 0 17.066667 7.68 17.066666 17.066667v31.914667c0 9.386667-7.68 17.066667-17.066666 17.066666h-31.914667c-9.386667 0-17.066667-7.68-17.066667-17.066666v-31.914667c0-9.386667 7.68-17.066667 17.066667-17.066667h31.914667m0-51.2h-31.914667c-37.717333 0-68.266667 30.549333-68.266667 68.266667v31.914667c0 37.717333 30.549333 68.266667 68.266667 68.266666h31.914667c37.717333 0 68.266667-30.549333 68.266666-68.266666v-31.914667c0-37.546667-30.549333-68.266667-68.266666-68.266667z"  /><path  d="M273.578667 622.762667H74.752c-14.165333 0-25.6-11.434667-25.6-25.6s11.434667-25.6 25.6-25.6h198.826667c14.165333 0 25.6 11.434667 25.6 25.6s-11.434667 25.6-25.6 25.6zM933.205333 622.762667H734.378667c-14.165333 0-25.6-11.434667-25.6-25.6s11.434667-25.6 25.6-25.6h198.826666c14.165333 0 25.6 11.434667 25.6 25.6s-11.434667 25.6-25.6 25.6zM589.482667 622.762667h-153.941334c-14.165333 0-25.6-11.434667-25.6-25.6s11.434667-25.6 25.6-25.6h153.941334c14.165333 0 25.6 11.434667 25.6 25.6s-11.434667 25.6-25.6 25.6z"  /></svg>