<?xml version="1.0" standalone="no"?><!DOCTYPE svg PUBLIC "-//W3C//DTD SVG 1.1//EN" "http://www.w3.org/Graphics/SVG/1.1/DTD/svg11.dtd"><svg class="icon" width="64px" height="64.00px" viewBox="0 0 1024 1024" version="1.1" xmlns="http://www.w3.org/2000/svg"><path  d="M512 989.866667C249.173333 989.866667 34.133333 774.826667 34.133333 512S249.173333 34.133333 512 34.133333c13.653333 0 25.6 11.946667 25.6 25.6v426.666667h426.666667c13.653333 0 25.6 11.946667 25.6 25.6 0 262.826667-215.04 477.866667-477.866667 477.866667zM486.4 85.333333C262.826667 98.986667 85.333333 285.013333 85.333333 512c0 235.52 191.146667 426.666667 426.666667 426.666667 226.986667 0 413.013333-177.493333 426.666667-401.066667H512c-13.653333 0-25.6-11.946667-25.6-25.6V85.333333z"  /><path  d="M943.786667 401.066667H648.533333c-13.653333 0-25.6-11.946667-25.6-25.6V80.213333c0-8.533333 3.413333-15.36 10.24-20.48 6.826667-5.12 15.36-6.826667 22.186667-3.413333C803.84 102.4 921.6 220.16 967.68 368.64c1.706667 8.533333 1.706667 17.066667-3.413333 22.186667-5.12 6.826667-11.946667 10.24-20.48 10.24z m-269.653334-51.2h233.813334c-42.666667-105.813333-128-191.146667-233.813334-233.813334v233.813334z"  /></svg>