<?xml version="1.0" standalone="no"?><!DOCTYPE svg PUBLIC "-//W3C//DTD SVG 1.1//EN" "http://www.w3.org/Graphics/SVG/1.1/DTD/svg11.dtd"><svg class="icon" width="64px" height="64.00px" viewBox="0 0 1024 1024" version="1.1" xmlns="http://www.w3.org/2000/svg"><path  d="M847.018667 901.12H268.117333c-41.813333 0-75.946667-38.570667-75.946666-86.016V120.149333c0-47.445333 34.133333-86.016 75.946666-86.016h478.549334c7.509333 0 14.677333 3.242667 19.456 9.045334l150.869333 177.493333c3.925333 4.608 6.144 10.581333 6.144 16.554667v577.706666c-0.170667 47.445333-34.133333 86.186667-76.117333 86.186667zM268.117333 85.333333c-13.482667 0-24.746667 15.872-24.746666 34.816v694.784c0 18.944 11.264 34.816 24.746666 34.816h579.072c13.482667 0 24.746667-15.872 24.746667-34.816v-568.32L734.72 85.333333H268.117333z"  /><path  d="M897.365333 278.016h-145.749333c-22.528 0-40.96-18.432-40.96-40.96V59.733333c0-14.165333 11.434667-25.6 25.6-25.6s25.6 11.434667 25.6 25.6v167.082667h135.509333c14.165333 0 25.6 11.434667 25.6 25.6s-11.434667 25.6-25.6 25.6zM755.882667 989.866667H176.981333c-41.813333 0-75.946667-38.570667-75.946666-86.016V209.066667c0-47.445333 34.133333-86.016 75.946666-86.016h40.789334c14.165333 0 25.6 11.434667 25.6 25.6s-11.434667 25.6-25.6 25.6h-40.789334c-13.482667 0-24.746667 15.872-24.746666 34.816v694.784c0 18.944 11.434667 34.816 24.746666 34.816H756.053333c13.482667 0 24.746667-15.872 24.746667-34.816 0-14.165333 11.434667-25.6 25.6-25.6s25.6 11.434667 25.6 25.6c-0.170667 47.445333-34.133333 86.016-76.117333 86.016z"  /><path  d="M557.568 493.738667c-56.149333 0-101.717333-45.738667-101.717333-101.717334S501.418667 290.133333 557.568 290.133333s101.717333 45.568 101.717333 101.717334-45.568 101.888-101.717333 101.888z m0-152.405334c-27.818667 0-50.517333 22.698667-50.517333 50.517334s22.698667 50.517333 50.517333 50.517333 50.517333-22.698667 50.517333-50.517333S585.386667 341.333333 557.568 341.333333zM724.821333 716.458667h-334.506666c-14.165333 0-25.6-11.434667-25.6-25.6v-13.141334c0-52.224 0-78.506667 10.24-101.888 9.386667-21.504 24.234667-38.741333 42.837333-49.834666 22.016-13.141333 46.592-13.141333 91.477333-13.141334h96.597334c44.885333 0 69.461333 0 91.477333 13.141334 18.602667 11.093333 33.450667 28.330667 42.837333 49.834666 10.24 23.552 10.24 49.834667 10.24 102.058667v13.141333c0 13.994667-11.434667 25.429333-25.6 25.429334z m-308.906666-51.2h283.306666c0-35.84-0.682667-56.661333-5.973333-68.949334-4.949333-11.434667-12.8-20.650667-22.016-26.282666-9.898667-5.802667-29.525333-5.802667-65.194667-5.802667h-96.597333c-35.669333 0-55.296 0-65.194667 5.802667-9.386667 5.632-17.237333 14.848-22.186666 26.282666-5.461333 12.288-5.973333 33.109333-6.144 68.949334z"  /></svg>