<?xml version="1.0" standalone="no"?><!DOCTYPE svg PUBLIC "-//W3C//DTD SVG 1.1//EN" "http://www.w3.org/Graphics/SVG/1.1/DTD/svg11.dtd"><svg class="icon" width="64px" height="64.00px" viewBox="0 0 1024 1024" version="1.1" xmlns="http://www.w3.org/2000/svg"><path  d="M481.792 989.866667H162.986667a94.037333 94.037333 0 0 1-93.866667-93.866667v-768c0-51.712 42.154667-93.866667 93.866667-93.866667h697.856c51.712 0 93.866667 42.154667 93.866666 93.866667v323.925333c0 14.165333-11.434667 25.6-25.6 25.6s-25.6-11.434667-25.6-25.6V128a42.666667 42.666667 0 0 0-42.666666-42.666667H162.986667a42.666667 42.666667 0 0 0-42.666667 42.666667v768a42.666667 42.666667 0 0 0 42.666667 42.666667h318.634666c14.165333 0 25.6 11.434667 25.6 25.6s-11.434667 25.6-25.429333 25.6z"  /><path  d="M690.517333 278.528H221.525333c-14.165333 0-25.6-11.434667-25.6-25.6s11.434667-25.6 25.6-25.6h468.821334c14.165333 0 25.6 11.434667 25.6 25.6s-11.264 25.6-25.429334 25.6zM690.517333 448H221.525333c-14.165333 0-25.6-11.434667-25.6-25.6s11.434667-25.6 25.6-25.6h468.821334c14.165333 0 25.6 11.434667 25.6 25.6s-11.264 25.6-25.429334 25.6zM380.586667 617.472h-159.061334c-14.165333 0-25.6-11.434667-25.6-25.6s11.434667-25.6 25.6-25.6h159.061334c14.165333 0 25.6 11.434667 25.6 25.6s-11.434667 25.6-25.6 25.6z"  /><path  d="M897.194667 989.866667h-208.213334c-9.898667 0-19.114667-5.290667-24.234666-13.653334l-100.010667-161.28c-18.261333-29.354667-12.288-66.901333 13.994667-89.429333 15.701333-13.312 36.181333-18.944 56.490666-15.530667 9.728 1.706667 18.773333 5.290667 26.794667 10.581334v-140.970667c0-37.376 30.378667-67.584 67.584-67.584s67.584 30.378667 67.584 67.584V665.6l110.421333 3.754667c26.453333 0.853333 47.274667 22.357333 47.274667 48.810666v214.016c0 31.914667-25.941333 57.685333-57.685333 57.685334z m-189.098667-40.789334l0.341333 0.512c-0.170667-0.341333-0.170667-0.512-0.341333-0.512z m-6.314667-10.410666h195.584c3.584 0 6.485333-2.901333 6.485334-6.485334V720.384l-121.685334-4.096c-20.138667-0.682667-36.010667-17.066667-36.010666-37.205333v-99.498667a16.384 16.384 0 0 0-32.768 0v221.354667c0 11.605333-7.68 21.674667-18.944 24.746666a25.6 25.6 0 0 1-28.842667-11.776l-26.282667-44.714666c-3.754667-6.314667-9.386667-8.192-12.629333-8.704-3.072-0.512-9.045333-0.682667-14.677333 4.096-6.826667 5.802667-8.362667 15.701333-3.584 23.381333L701.781333 938.666667z"  /></svg>