<?xml version="1.0" standalone="no"?><!DOCTYPE svg PUBLIC "-//W3C//DTD SVG 1.1//EN" "http://www.w3.org/Graphics/SVG/1.1/DTD/svg11.dtd"><svg class="icon" width="64px" height="64.00px" viewBox="0 0 1024 1024" version="1.1" xmlns="http://www.w3.org/2000/svg"><path  d="M783.018667 989.866667h-587.093334a94.037333 94.037333 0 0 1-93.866666-93.866667v-768c0-51.712 42.154667-93.866667 93.866666-93.866667h429.226667c14.165333 0 25.6 11.434667 25.6 25.6S639.146667 85.333333 625.152 85.333333H195.925333a42.666667 42.666667 0 0 0-42.666666 42.666667v768a42.666667 42.666667 0 0 0 42.666666 42.666667h587.093334a42.666667 42.666667 0 0 0 42.666666-42.666667V421.717333c0-14.165333 11.434667-25.6 25.6-25.6s25.6 11.434667 25.6 25.6V896c0 51.712-42.154667 93.866667-93.866666 93.866667z"  /><path  d="M444.245333 401.92h-180.906666c-14.165333 0-25.6-11.434667-25.6-25.6s11.434667-25.6 25.6-25.6h180.906666c14.165333 0 25.6 11.434667 25.6 25.6s-11.605333 25.6-25.6 25.6zM534.698667 628.053333h-271.36c-14.165333 0-25.6-11.434667-25.6-25.6s11.434667-25.6 25.6-25.6h271.36c14.165333 0 25.6 11.434667 25.6 25.6s-11.605333 25.6-25.6 25.6zM625.152 401.749333c-6.485333 0-13.141333-2.56-18.090667-7.509333a25.429333 25.429333 0 0 1 0-36.181333L878.250667 86.869333c10.069333-10.069333 26.282667-10.069333 36.181333 0s10.069333 26.282667 0 36.181334L643.242667 394.24c-4.949333 5.12-11.434667 7.509333-18.090667 7.509333z"  /></svg>