<?xml version="1.0" standalone="no"?><!DOCTYPE svg PUBLIC "-//W3C//DTD SVG 1.1//EN" "http://www.w3.org/Graphics/SVG/1.1/DTD/svg11.dtd"><svg class="icon" width="64px" height="64.00px" viewBox="0 0 1024 1024" version="1.1" xmlns="http://www.w3.org/2000/svg"><path  d="M512 698.538667c-48.981333 0-94.208-18.773333-128-50.517334v8.874667c0 14.165333-11.434667 25.6-25.6 25.6s-25.6-11.434667-25.6-25.6v-96.597333c0-12.629333 9.216-23.381333 21.674667-25.258667 12.629333-1.877333 24.576 5.632 28.330666 17.578667 17.749333 56.661333 69.632 94.72 129.194667 94.72s111.445333-38.058667 129.194667-94.72a25.565867 25.565867 0 1 1 48.810666 15.36A185.736533 185.736533 0 0 1 512 698.538667zM358.4 489.301333a25.565867 25.565867 0 0 1-24.405333-33.28c24.576-78.165333 96.085333-130.56 178.005333-130.56 48.981333 0 94.208 18.773333 128 50.517334v-8.874667c0-14.165333 11.434667-25.6 25.6-25.6s25.6 11.434667 25.6 25.6v96.597333c0 12.629333-9.216 23.381333-21.674667 25.258667-12.629333 1.877333-24.576-5.632-28.330666-17.578667-17.749333-56.661333-69.632-94.72-129.194667-94.72s-111.445333 38.058667-129.194667 94.72c-3.413333 10.922667-13.482667 17.92-24.405333 17.92z"  /><path  d="M827.733333 989.866667h-631.466666A94.037333 94.037333 0 0 1 102.4 896v-768C102.4 76.288 144.554667 34.133333 196.266667 34.133333h631.466666C879.445333 34.133333 921.6 76.288 921.6 128v768c0 51.712-42.154667 93.866667-93.866667 93.866667z m-631.466666-904.533334A42.666667 42.666667 0 0 0 153.6 128v768a42.666667 42.666667 0 0 0 42.666667 42.666667h631.466666a42.666667 42.666667 0 0 0 42.666667-42.666667v-768A42.666667 42.666667 0 0 0 827.733333 85.333333h-631.466666z"  /></svg>