<?xml version="1.0" standalone="no"?><!DOCTYPE svg PUBLIC "-//W3C//DTD SVG 1.1//EN" "http://www.w3.org/Graphics/SVG/1.1/DTD/svg11.dtd"><svg class="icon" width="64px" height="64.00px" viewBox="0 0 1024 1024" version="1.1" xmlns="http://www.w3.org/2000/svg"><path  d="M765.781333 975.530667c-39.424 0-76.117333-13.994667-104.789333-38.058667-0.682667 13.653333-11.776 24.405333-25.6 24.405333-14.165333 0-25.6-11.434667-25.6-25.6v-81.92c0-12.629333 9.216-23.381333 21.674667-25.258666 12.458667-1.877333 24.576 5.632 28.330666 17.578666 14.506667 46.421333 57.173333 77.653333 105.813334 77.653334s91.306667-31.232 105.813333-77.653334a25.565867 25.565867 0 1 1 48.810667 15.36 160.989867 160.989867 0 0 1-154.453334 113.493334zM635.392 798.037333a25.565867 25.565867 0 0 1-24.405333-33.28 161.365333 161.365333 0 0 1 154.624-113.493333c39.424 0 76.117333 13.994667 104.789333 38.058667 0.682667-13.653333 11.776-24.405333 25.6-24.405334 14.165333 0 25.6 11.434667 25.6 25.6v81.92c0 12.629333-9.216 23.381333-21.674667 25.258667-12.629333 1.877333-24.576-5.632-28.330666-17.578667-14.506667-46.421333-57.173333-77.653333-105.813334-77.653333s-91.306667 31.232-105.813333 77.653333c-3.584 10.922667-13.653333 17.92-24.576 17.92z"  /><path  d="M513.365333 989.866667H196.266667A94.037333 94.037333 0 0 1 102.4 896v-768C102.4 76.288 144.554667 34.133333 196.266667 34.133333h631.466666C879.445333 34.133333 921.6 76.288 921.6 128v453.973333c0 14.165333-11.434667 25.6-25.6 25.6s-25.6-11.434667-25.6-25.6V128A42.666667 42.666667 0 0 0 827.733333 85.333333h-631.466666A42.666667 42.666667 0 0 0 153.6 128v768a42.666667 42.666667 0 0 0 42.666667 42.666667h317.098666c14.165333 0 25.6 11.434667 25.6 25.6s-11.605333 25.6-25.6 25.6z"  /><path  d="M632.149333 337.749333H298.154667c-14.165333 0-25.6-11.434667-25.6-25.6s11.434667-25.6 25.6-25.6h333.994666c14.165333 0 25.6 11.434667 25.6 25.6s-11.434667 25.6-25.6 25.6z"  /><path  d="M512 524.117333H298.154667c-14.165333 0-25.6-11.434667-25.6-25.6s11.434667-25.6 25.6-25.6H512c14.165333 0 25.6 11.434667 25.6 25.6s-11.434667 25.6-25.6 25.6z"  /></svg>