<?xml version="1.0" standalone="no"?><!DOCTYPE svg PUBLIC "-//W3C//DTD SVG 1.1//EN" "http://www.w3.org/Graphics/SVG/1.1/DTD/svg11.dtd"><svg class="icon" width="64px" height="64.00px" viewBox="0 0 1024 1024" version="1.1" xmlns="http://www.w3.org/2000/svg"><path  d="M597.333333 960.682667H351.573333c-29.354667 0-84.48-7.509333-122.197333-57.685334-23.722667-31.573333-35.84-74.410667-35.84-127.146666V556.885333c0-14.165333 11.434667-25.6 25.6-25.6s25.6 11.434667 25.6 25.6v218.965334c0 41.301333 8.533333 73.728 25.6 96.426666 24.405333 32.426667 61.44 37.376 81.237333 37.376H597.333333c14.165333 0 25.6 11.434667 25.6 25.6s-11.434667 25.429333-25.6 25.429334z"  /><path  d="M378.538667 741.717333c-6.485333 0-13.141333-2.56-18.090667-7.509333l-141.312-141.141333-141.312 141.141333c-10.069333 10.069333-26.282667 10.069333-36.181333 0s-10.069333-26.282667 0-36.181333l159.402666-159.232a25.6 25.6 0 0 1 36.181334 0l159.402666 159.232c10.069333 10.069333 10.069333 26.282667 0 36.181333-4.949333 4.949333-11.434667 7.509333-18.090666 7.509333z"  /><path  d="M712.021333 344.234667c-77.482667 0-140.458667-62.976-140.458666-140.458667s62.976-140.458667 140.458666-140.458667 140.458667 62.976 140.458667 140.458667-62.976 140.458667-140.458667 140.458667z m0-229.717334c-49.152 0-89.258667 40.106667-89.258666 89.258667s40.106667 89.258667 89.258666 89.258667 89.258667-40.106667 89.258667-89.258667-39.936-89.258667-89.258667-89.258667zM964.266667 654.506667H459.946667c-14.165333 0-25.6-11.434667-25.6-25.6V609.28c0-76.970667 0-115.541333 14.336-148.650667 12.970667-29.866667 33.450667-53.76 59.392-69.12 30.037333-17.92 63.829333-17.92 131.242666-17.92H785.066667c67.413333 0 101.205333 0 131.242666 17.92 25.770667 15.36 46.421333 39.253333 59.392 69.12 14.165333 32.938667 14.165333 71.68 14.165334 148.48v19.626667a25.6 25.6 0 0 1-25.6 25.770667z m-478.72-51.2H938.666667c0-66.048-0.341333-99.669333-10.069334-122.197334-8.533333-19.626667-22.186667-35.84-38.570666-45.568-17.92-10.752-46.933333-10.752-104.96-10.752h-145.749334c-58.026667 0-87.04 0-104.96 10.752-16.384 9.728-30.037333 25.941333-38.570666 45.568-9.898667 22.528-10.24 56.149333-10.24 122.197334z"  /></svg>