<?xml version="1.0" standalone="no"?><!DOCTYPE svg PUBLIC "-//W3C//DTD SVG 1.1//EN" "http://www.w3.org/Graphics/SVG/1.1/DTD/svg11.dtd"><svg class="icon" width="64px" height="64.00px" viewBox="0 0 1024 1024" version="1.1" xmlns="http://www.w3.org/2000/svg"><path  d="M480.768 989.866667H161.962667a94.037333 94.037333 0 0 1-93.866667-93.866667v-768c0-51.712 42.154667-93.866667 93.866667-93.866667h697.856c51.712 0 93.866667 42.154667 93.866666 93.866667v323.925333c0 14.165333-11.434667 25.6-25.6 25.6s-25.6-11.434667-25.6-25.6V128a42.666667 42.666667 0 0 0-42.666666-42.666667H161.962667a42.666667 42.666667 0 0 0-42.666667 42.666667v768a42.666667 42.666667 0 0 0 42.666667 42.666667h318.634666c14.165333 0 25.6 11.434667 25.6 25.6S494.933333 989.866667 480.768 989.866667z"  /><path  d="M689.493333 278.528H220.672c-14.165333 0-25.6-11.434667-25.6-25.6s11.434667-25.6 25.6-25.6H689.493333c14.165333 0 25.6 11.434667 25.6 25.6s-11.434667 25.6-25.6 25.6zM689.493333 448H220.672c-14.165333 0-25.6-11.434667-25.6-25.6s11.434667-25.6 25.6-25.6H689.493333c14.165333 0 25.6 11.434667 25.6 25.6s-11.434667 25.6-25.6 25.6zM379.562667 617.472h-159.061334c-14.165333 0-25.6-11.434667-25.6-25.6s11.434667-25.6 25.6-25.6h159.061334c14.165333 0 25.6 11.434667 25.6 25.6s-11.434667 25.6-25.6 25.6z"  /><path  d="M601.770667 985.429333c-4.949333 0-9.898667-1.365333-14.165334-4.266666-7.338667-4.949333-11.776-13.312-11.434666-22.186667l4.437333-128c0.170667-4.778667 1.706667-9.216 4.266667-13.312l212.309333-320.512a25.6512 25.6512 0 0 1 35.498667-7.168l111.786666 74.069333c11.776 7.850667 15.018667 23.722667 7.168 35.498667L739.328 919.893333c-2.56 3.925333-6.314667 7.168-10.581333 9.045334l-116.224 54.101333c-3.413333 1.536-7.168 2.389333-10.752 2.389333zM631.466667 839.850667l-2.730667 79.189333 71.850667-33.450667 194.218666-293.034666-68.949333-45.738667L631.466667 839.850667z m86.528 65.877333z"  /></svg>