<?xml version="1.0" standalone="no"?><!DOCTYPE svg PUBLIC "-//W3C//DTD SVG 1.1//EN" "http://www.w3.org/Graphics/SVG/1.1/DTD/svg11.dtd"><svg class="icon" width="64px" height="64.00px" viewBox="0 0 1024 1024" version="1.1" xmlns="http://www.w3.org/2000/svg"><path  d="M534.186667 969.386667c-30.72 0-58.026667-11.946667-80.213334-32.426667L61.44 546.133333c-5.12-5.12-6.826667-11.946667-6.826667-18.773333V90.453333c0-13.653333 11.946667-25.6 25.6-25.6h436.906667c6.826667 0 13.653333 3.413333 18.773333 6.826667l392.533334 392.533333c44.373333 44.373333 44.373333 116.053333 0 158.72L614.4 935.253333c-22.186667 22.186667-49.493333 34.133333-80.213333 34.133334zM105.813333 515.413333l384 384c23.893333 23.893333 63.146667 23.893333 87.04 0l312.32-312.32c23.893333-23.893333 23.893333-63.146667 0-87.04L506.88 116.053333H105.813333v399.36z"  /><path  d="M334.506667 404.48c34.133333 0 61.44-27.306667 61.44-61.44s-27.306667-61.44-61.44-61.44-61.44 27.306667-61.44 61.44 29.013333 61.44 61.44 61.44z"  /></svg>