<?xml version="1.0" standalone="no"?><!DOCTYPE svg PUBLIC "-//W3C//DTD SVG 1.1//EN" "http://www.w3.org/Graphics/SVG/1.1/DTD/svg11.dtd"><svg class="icon" width="64px" height="64.00px" viewBox="0 0 1024 1024" version="1.1" xmlns="http://www.w3.org/2000/svg"><path  d="M780.8 989.866667H116.224c-46.762667 0-84.650667-38.058667-84.650667-84.650667V240.64c0-46.762667 38.058667-84.650667 84.650667-84.650667h664.576c46.762667 0 84.650667 38.058667 84.650667 84.650667v664.576c0 46.592-37.888 84.650667-84.650667 84.650667zM116.224 207.018667c-18.432 0-33.450667 15.018667-33.450667 33.450666v664.576c0 18.432 15.018667 33.450667 33.450667 33.450667h664.576c18.432 0 33.450667-15.018667 33.450667-33.450667V240.64c0-18.432-15.018667-33.450667-33.450667-33.450667H116.224z"  /><path  d="M966.826667 893.952c-14.165333 0-25.6-11.434667-25.6-25.6V117.76a32.426667 32.426667 0 0 0-32.426667-32.426667H158.378667c-14.165333 0-25.6-11.434667-25.6-25.6S144.213333 34.133333 158.378667 34.133333h750.592c46.08 0 83.626667 37.546667 83.626666 83.626667v750.592c-0.170667 13.994667-11.605333 25.6-25.770666 25.6z"  /><path  d="M284.16 822.784c-4.949333 0-9.898667-1.365333-14.165333-4.266667-7.338667-4.949333-11.776-13.312-11.434667-22.186666l4.437333-128c0.170667-4.778667 1.706667-9.216 4.266667-13.312L479.744 334.506667a25.6512 25.6512 0 0 1 35.498667-7.168l111.786666 74.069333a25.6512 25.6512 0 0 1 7.168 35.498667L421.717333 757.248c-2.56 3.925333-6.314667 7.168-10.581333 9.045333l-116.224 54.101334c-3.242667 1.536-6.997333 2.389333-10.752 2.389333z m29.866667-145.578667l-2.730667 79.189334 71.850667-33.450667 194.218666-293.034667-68.949333-45.738666L314.026667 677.205333z m86.357333 65.877334z"  /><path  d="M556.202667 533.504c-4.778667 0-9.557333-1.365333-13.994667-4.096l-112.298667-73.045333a25.770667 25.770667 0 0 1-7.509333-35.498667 25.6 25.6 0 0 1 35.498667-7.509333l112.298666 73.045333c11.776 7.68 15.189333 23.552 7.509334 35.498667-4.949333 7.509333-13.141333 11.605333-21.504 11.605333z"  /></svg>