<?xml version="1.0" standalone="no"?><!DOCTYPE svg PUBLIC "-//W3C//DTD SVG 1.1//EN" "http://www.w3.org/Graphics/SVG/1.1/DTD/svg11.dtd"><svg class="icon" width="64px" height="64.00px" viewBox="0 0 1024 1024" version="1.1" xmlns="http://www.w3.org/2000/svg"><path  d="M279.381333 460.117333c-99.669333 0-180.565333-81.066667-180.565333-180.565333S179.712 98.816 279.381333 98.816s180.736 81.066667 180.736 180.736-81.066667 180.565333-180.736 180.565333z m0-310.101333c-71.338667 0-129.365333 58.026667-129.365333 129.536s58.026667 129.365333 129.365333 129.365333 129.536-58.026667 129.536-129.365333-58.197333-129.536-129.536-129.536zM744.618667 925.184c-99.669333 0-180.565333-81.066667-180.565334-180.736s81.066667-180.736 180.565334-180.736 180.736 81.066667 180.736 180.736-81.237333 180.736-180.736 180.736z m0-310.101333c-71.338667 0-129.365333 58.026667-129.365334 129.536s58.026667 129.536 129.365334 129.536 129.536-58.026667 129.536-129.536-58.197333-129.536-129.536-129.536zM512 989.866667C248.490667 989.866667 34.133333 775.509333 34.133333 512c0-8.874667 4.608-17.066667 12.117334-21.845333 7.509333-4.608 17.066667-5.12 24.917333-1.194667L221.866667 564.394667a25.565867 25.565867 0 0 1-22.869334 45.738666l-111.616-55.808C108.885333 769.877333 290.986667 938.666667 512 938.666667c14.165333 0 25.6 11.434667 25.6 25.6S526.165333 989.866667 512 989.866667zM964.266667 537.6c-3.925333 0-7.850667-0.853333-11.434667-2.730667L802.133333 459.605333a25.565867 25.565867 0 0 1 22.869334-45.738666l111.616 55.808C915.114667 254.122667 733.013333 85.333333 512 85.333333c-14.165333 0-25.6-11.434667-25.6-25.6S497.834667 34.133333 512 34.133333c263.509333 0 477.866667 214.357333 477.866667 477.866667 0 8.874667-4.608 17.066667-12.117334 21.845333-4.096 2.56-8.874667 3.754667-13.482666 3.754667z"  /></svg>