<?xml version="1.0" standalone="no"?><!DOCTYPE svg PUBLIC "-//W3C//DTD SVG 1.1//EN" "http://www.w3.org/Graphics/SVG/1.1/DTD/svg11.dtd"><svg class="icon" width="64px" height="64.00px" viewBox="0 0 1024 1024" version="1.1" xmlns="http://www.w3.org/2000/svg"><path  d="M878.933333 989.866667H372.224c-44.202667 0-80.213333-43.008-80.213333-95.744v-112.298667c0-14.165333 11.434667-25.6 25.6-25.6s25.6 11.434667 25.6 25.6v112.298667c0 23.722667 13.482667 44.544 29.013333 44.544H878.933333c12.970667 0 27.648-17.578667 27.648-42.666667V129.877333c0-23.722667-13.482667-44.544-29.013333-44.544h-505.173333c-15.530667 0-29.013333 20.821333-29.013334 44.544V512c0 14.165333-11.434667 25.6-25.6 25.6s-25.6-11.434667-25.6-25.6V129.877333c0-52.736 36.010667-95.744 80.213334-95.744h505.173333c44.202667 0 80.213333 43.008 80.213333 95.744V896c-0.170667 51.712-35.498667 93.866667-78.848 93.866667z"  /><path  d="M758.784 272.896H491.008c-14.165333 0-25.6-11.434667-25.6-25.6s11.434667-25.6 25.6-25.6h214.528l-15.872-19.968c-8.874667-11.093333-6.997333-27.136 4.096-36.010667 11.093333-8.704 27.136-6.997333 36.010667 4.096l49.152 61.610667c6.144 7.68 7.338667 18.261333 3.072 27.136-4.437333 8.704-13.482667 14.336-23.210667 14.336zM540.16 450.218667c-7.509333 0-15.018667-3.242667-19.968-9.557334l-49.152-61.44a25.668267 25.668267 0 1 1 19.968-41.642666h267.776c14.165333 0 25.6 11.434667 25.6 25.6s-11.434667 25.6-25.6 25.6H544.256l15.872 19.968c8.874667 11.093333 6.997333 27.136-4.096 36.010666-4.608 3.754667-10.24 5.461333-15.872 5.461334z"  /><path  d="M84.309333 989.866667c-14.165333 0-25.6-11.434667-25.6-25.6V611.669333c0-49.664 21.504-97.109333 58.88-129.877333l183.296-160.938667c7.509333-6.656 18.261333-8.192 27.477334-4.096s15.018667 13.312 15.018666 23.381334v178.346666l17.237334-12.458666a109.806933 109.806933 0 0 1 82.944-19.797334c29.354667 4.778667 55.125333 20.821333 72.362666 45.056 34.474667 48.64 23.722667 117.077333-24.064 152.746667l-221.354666 165.034667c-11.264 8.362667-27.306667 6.144-35.84-5.290667-8.533333-11.264-6.144-27.306667 5.290666-35.84l221.354667-165.034667c25.6-19.114667 31.402667-55.978667 12.970667-82.090666a59.016533 59.016533 0 0 0-38.912-24.234667c-15.701333-2.56-31.573333 1.194667-44.544 10.581333l-57.856 42.154667c-7.850667 5.632-18.090667 6.485333-26.624 2.048s-13.994667-13.141333-13.994667-22.869333V396.8l-140.8 123.562667a121.890133 121.890133 0 0 0-41.472 91.477333V964.266667c-0.170667 14.165333-11.605333 25.6-25.770667 25.6z"  /></svg>