<?xml version="1.0" standalone="no"?><!DOCTYPE svg PUBLIC "-//W3C//DTD SVG 1.1//EN" "http://www.w3.org/Graphics/SVG/1.1/DTD/svg11.dtd"><svg class="icon" width="64px" height="64.00px" viewBox="0 0 1024 1024" version="1.1" xmlns="http://www.w3.org/2000/svg"><path  d="M913.237333 368.981333c-14.165333 0-25.6-11.434667-25.6-25.6v-154.624a42.666667 42.666667 0 0 0-42.666666-42.666666h-154.624c-14.165333 0-25.6-11.434667-25.6-25.6s11.434667-25.6 25.6-25.6h154.624c51.712 0 93.866667 42.154667 93.866666 93.866666v154.624c0 14.165333-11.434667 25.6-25.6 25.6zM333.653333 948.565333h-154.624a94.037333 94.037333 0 0 1-93.866666-93.866666v-154.624c0-14.165333 11.434667-25.6 25.6-25.6s25.6 11.434667 25.6 25.6v154.624a42.666667 42.666667 0 0 0 42.666666 42.666666h154.624c14.165333 0 25.6 11.434667 25.6 25.6s-11.434667 25.6-25.6 25.6zM253.610667 253.098667c-60.416 0-109.568-49.152-109.568-109.568S193.194667 34.133333 253.610667 34.133333s109.568 49.152 109.568 109.397334-49.152 109.568-109.568 109.568z m0-167.765334c-32.085333 0-58.368 26.112-58.368 58.197334s26.112 58.368 58.368 58.368 58.368-26.112 58.368-58.368S285.696 85.333333 253.610667 85.333333zM437.76 498.517333H69.461333c-14.165333 0-25.6-11.434667-25.6-25.6v-14.336c0-57.173333 0-85.845333 11.093334-111.274666 10.069333-23.04 25.941333-41.642667 46.08-53.589334 23.552-13.994667 50.517333-13.994667 99.328-13.994666h106.325333c48.810667 0 75.776 0 99.328 13.994666 20.138667 11.946667 36.010667 30.549333 46.08 53.589334 11.093333 25.429333 11.093333 54.101333 11.093333 111.274666v14.336c0.170667 13.994667-11.264 25.6-25.429333 25.6z m-342.698667-51.2h317.098667c0-41.472-0.512-65.194667-6.826667-79.530666-5.632-12.970667-14.677333-23.722667-25.429333-30.208-11.434667-6.826667-33.28-6.826667-73.045333-6.826667h-106.325334c-39.765333 0-61.610667 0-73.216 6.826667-10.752 6.485333-19.797333 17.066667-25.429333 30.208-6.314667 14.165333-6.826667 38.058667-6.826667 79.530666z"  /><path  d="M770.389333 744.448c-60.416 0-109.568-49.152-109.568-109.568s49.152-109.568 109.568-109.568 109.397333 49.152 109.397334 109.568-48.981333 109.568-109.397334 109.568z m0-167.765333c-32.085333 0-58.368 26.112-58.368 58.368s26.112 58.368 58.368 58.368 58.197333-26.112 58.197334-58.368-26.112-58.368-58.197334-58.368zM954.538667 989.866667H586.24c-14.165333 0-25.6-11.434667-25.6-25.6v-14.336c0-57.173333 0-85.845333 11.093333-111.274667 10.069333-23.04 25.941333-41.642667 46.08-53.589333 23.552-13.994667 50.517333-13.994667 99.328-13.994667h106.325334c48.810667 0 75.776 0 99.328 13.994667 20.138667 11.946667 36.010667 30.549333 46.08 53.589333 11.093333 25.429333 11.093333 54.101333 11.093333 111.274667v14.336c0.170667 14.165333-11.264 25.6-25.429333 25.6z m-342.698667-51.2h317.098667c0-41.472-0.512-65.194667-6.826667-79.530667-5.632-12.970667-14.677333-23.722667-25.429333-30.208-11.434667-6.826667-33.450667-6.826667-73.216-6.826667h-106.325334c-39.765333 0-61.610667 0-73.216 6.826667-10.752 6.314667-19.797333 17.066667-25.429333 30.208-6.144 14.336-6.656 38.058667-6.656 79.530667z"  /></svg>