<?xml version="1.0" standalone="no"?><!DOCTYPE svg PUBLIC "-//W3C//DTD SVG 1.1//EN" "http://www.w3.org/Graphics/SVG/1.1/DTD/svg11.dtd"><svg class="icon" width="64px" height="64.00px" viewBox="0 0 1024 1024" version="1.1" xmlns="http://www.w3.org/2000/svg"><path  d="M964.266667 537.6c-14.165333 0-25.6-11.434667-25.6-25.6V109.909333c0-14.165333 11.434667-25.6 25.6-25.6s25.6 11.605333 25.6 25.6V512c0 14.165333-11.434667 25.6-25.6 25.6zM59.733333 939.690667c-14.165333 0-25.6-11.434667-25.6-25.6V512c0-14.165333 11.434667-25.6 25.6-25.6S85.333333 497.834667 85.333333 512v401.92c0 14.165333-11.434667 25.770667-25.6 25.770667z"  /><path  d="M512 989.866667C248.490667 989.866667 34.133333 775.509333 34.133333 512c0-14.165333 11.434667-25.6 25.6-25.6S85.333333 497.834667 85.333333 512c0 235.349333 191.317333 426.666667 426.666667 426.666667 111.104 0 216.405333-42.496 296.277333-119.637334a25.6 25.6 0 0 1 36.181334 0.682667c9.898667 10.24 9.557333 26.453333-0.682667 36.181333A475.477333 475.477333 0 0 1 512 989.866667zM964.266667 537.6c-14.165333 0-25.6-11.434667-25.6-25.6C938.666667 276.821333 747.349333 85.333333 512 85.333333c-116.736 0-225.792 46.250667-307.029333 130.389334a25.6 25.6 0 0 1-36.864-35.498667C259.072 86.016 381.098667 34.133333 512 34.133333c263.509333 0 477.866667 214.357333 477.866667 477.866667 0 14.165333-11.434667 25.6-25.6 25.6z"  /><path  d="M512 524.117333c-73.898667 0-133.973333-60.074667-133.973333-133.973333S438.101333 256 512 256s133.973333 60.074667 133.973333 133.973333-60.074667 134.144-133.973333 134.144zM512 307.2c-45.738667 0-82.773333 37.205333-82.773333 82.773333S466.432 472.746667 512 472.746667s82.773333-37.205333 82.773333-82.773334S557.738667 307.2 512 307.2z"  /><path  d="M713.045333 768H310.784c-19.456 0-37.717333-8.533333-50.005333-23.552a63.419733 63.419733 0 0 1-13.653334-52.394667c24.064-126.976 135.338667-219.136 264.874667-219.136 129.365333 0 240.810667 92.16 264.874667 219.136 3.584 18.602667-1.536 37.717333-13.653334 52.394667-12.458667 15.018667-30.72 23.552-50.176 23.552zM512 524.117333c-104.789333 0-195.072 74.581333-214.528 177.493334-0.853333 4.949333 1.365333 8.533333 2.730667 10.24 2.730667 3.242667 6.485333 4.949333 10.581333 4.949333h402.261333c4.096 0 8.021333-1.877333 10.752-5.12 1.365333-1.706667 3.754667-5.290667 2.730667-10.24-19.456-102.741333-109.738667-177.322667-214.528-177.322667z"  /></svg>