<?xml version="1.0" standalone="no"?><!DOCTYPE svg PUBLIC "-//W3C//DTD SVG 1.1//EN" "http://www.w3.org/Graphics/SVG/1.1/DTD/svg11.dtd"><svg class="icon" width="64px" height="64.00px" viewBox="0 0 1024 1024" version="1.1" xmlns="http://www.w3.org/2000/svg"><path  d="M458.069333 989.866667H164.864c-48.810667 0-88.405333-42.154667-88.405333-93.866667v-768C76.458667 76.288 116.053333 34.133333 164.864 34.133333H807.253333c48.810667 0 88.405333 42.154667 88.405334 93.866667v323.925333c0 14.165333-11.434667 25.6-25.6 25.6s-25.6-11.434667-25.6-25.6V128c0-23.552-16.725333-42.666667-37.205334-42.666667H164.864c-20.48 0-37.205333 19.114667-37.205333 42.666667v768c0 23.552 16.725333 42.666667 37.205333 42.666667h293.376c14.165333 0 25.6 11.434667 25.6 25.6s-11.605333 25.6-25.770667 25.6z"  /><path  d="M500.906667 516.437333a25.531733 25.531733 0 0 1-21.162667-39.936l19.456-28.501333H218.794667c-14.165333 0-25.6-11.434667-25.6-25.6s11.434667-25.6 25.6-25.6H547.84c9.557333 0 18.261333 5.290667 22.698667 13.653333s3.754667 18.602667-1.536 26.453334l-46.933334 68.437333c-4.949333 7.338667-12.970667 11.093333-21.162666 11.093333zM547.84 326.485333H218.794667c-9.557333 0-18.261333-5.290667-22.698667-13.653333s-3.754667-18.602667 1.536-26.453333l46.933333-68.437334c8.021333-11.776 24.064-14.677333 35.498667-6.656 11.605333 8.021333 14.677333 23.893333 6.656 35.498667l-19.456 28.501333H547.84c14.165333 0 25.6 11.434667 25.6 25.6s-11.434667 25.6-25.6 25.6zM726.186667 722.602667c-62.805333 0-114.005333-51.2-114.005334-114.005334 0-62.805333 51.2-114.005333 114.005334-114.005333 62.805333 0 114.005333 51.2 114.005333 114.005333-0.170667 62.805333-51.2 114.005333-114.005333 114.005334z m0-176.810667c-34.645333 0-62.805333 28.16-62.805334 62.805333 0 34.645333 28.16 62.805333 62.805334 62.805334 34.645333 0 62.805333-28.16 62.805333-62.805334-0.170667-34.645333-28.16-62.805333-62.805333-62.805333z"  /><path  d="M890.026667 921.258667h-327.68c-17.237333 0-33.450667-7.68-44.544-20.992-10.752-13.141333-15.189333-30.037333-12.117334-46.592 19.968-105.642667 112.64-182.442667 220.501334-182.442667s200.533333 76.8 220.501333 182.442667c3.072 16.554667-1.365333 33.450667-12.117333 46.592a57.344 57.344 0 0 1-44.544 20.992z m-163.84-198.656c-83.114667 0-154.794667 59.221333-170.154667 140.8-0.341333 2.048 0.512 3.584 1.194667 4.437333 0.682667 0.682667 2.218667 2.389333 5.12 2.389333h327.68c2.730667 0 4.437333-1.706667 5.12-2.389333 0.682667-0.853333 1.536-2.389333 1.194666-4.437333-15.530667-81.578667-87.04-140.8-170.154666-140.8z"  /></svg>