<?xml version="1.0" standalone="no"?><!DOCTYPE svg PUBLIC "-//W3C//DTD SVG 1.1//EN" "http://www.w3.org/Graphics/SVG/1.1/DTD/svg11.dtd"><svg class="icon" width="64px" height="64.00px" viewBox="0 0 1024 1024" version="1.1" xmlns="http://www.w3.org/2000/svg"><path  d="M892.586667 894.293333H129.706667c-39.253333 0-69.973333-30.72-69.973334-69.973333V197.973333c0-39.253333 30.72-71.68 69.973334-71.68h762.88c39.253333 0 69.973333 30.72 69.973333 69.973334v628.053333c0 39.253333-30.72 69.973333-69.973333 69.973333z m-762.88-716.8c-10.24 0-18.773333 8.533333-18.773334 20.48v626.346667c0 8.533333 6.826667 18.773333 18.773334 18.773333h762.88c8.533333 0 18.773333-6.826667 18.773333-18.773333V196.266667c0-8.533333-6.826667-18.773333-18.773333-18.773334H129.706667z"  /><path  d="M264.533333 896c-13.653333 0-25.6-11.946667-25.6-25.6V151.893333c0-13.653333 11.946667-25.6 25.6-25.6s25.6 11.946667 25.6 25.6V870.4c0 13.653333-11.946667 25.6-25.6 25.6zM602.453333 738.986667C477.866667 738.986667 375.466667 636.586667 375.466667 512s102.4-226.986667 226.986666-226.986667c124.586667 0 226.986667 102.4 226.986667 226.986667s-102.4 226.986667-226.986667 226.986667z m0-402.773334C505.173333 336.213333 426.666667 414.72 426.666667 512s78.506667 175.786667 175.786666 175.786667c97.28 0 175.786667-78.506667 175.786667-175.786667S699.733333 336.213333 602.453333 336.213333z"  /><path  d="M602.453333 512m-66.56 0a66.56 66.56 0 1 0 133.12 0 66.56 66.56 0 1 0-133.12 0Z"  /><path  d="M264.533333 358.4H85.333333c-13.653333 0-25.6-11.946667-25.6-25.6S71.68 307.2 85.333333 307.2h179.2c13.653333 0 25.6 11.946667 25.6 25.6s-11.946667 25.6-25.6 25.6zM264.533333 537.6H85.333333c-13.653333 0-25.6-11.946667-25.6-25.6s11.946667-25.6 25.6-25.6h179.2c13.653333 0 25.6 11.946667 25.6 25.6s-11.946667 25.6-25.6 25.6zM264.533333 716.8H85.333333c-13.653333 0-25.6-11.946667-25.6-25.6S71.68 665.6 85.333333 665.6h179.2c13.653333 0 25.6 11.946667 25.6 25.6s-11.946667 25.6-25.6 25.6z"  /></svg>