<?xml version="1.0" standalone="no"?><!DOCTYPE svg PUBLIC "-//W3C//DTD SVG 1.1//EN" "http://www.w3.org/Graphics/SVG/1.1/DTD/svg11.dtd"><svg class="icon" width="64px" height="64.00px" viewBox="0 0 1024 1024" version="1.1" xmlns="http://www.w3.org/2000/svg"><path  d="M215.04 684.373333H133.12c-18.773333 0-37.546667-8.533333-49.493333-22.186666s-18.773333-32.426667-17.066667-51.2L102.4 186.026667c3.413333-35.84 32.426667-63.146667 68.266667-63.146667h46.08c37.546667 0 68.266667 30.72 68.266666 68.266667v424.96c-3.413333 37.546667-32.426667 68.266667-69.973333 68.266666zM168.96 174.08c-8.533333 0-15.36 6.826667-17.066667 15.36L116.053333 614.4c0 6.826667 1.706667 10.24 5.12 13.653333 1.706667 1.706667 6.826667 5.12 11.946667 5.12h81.92c8.533333 0 17.066667-6.826667 17.066667-17.066666V191.146667c0-8.533333-6.826667-17.066667-17.066667-17.066667H168.96zM90.453333 612.693333zM593.92 981.333333c-3.413333 0-6.826667 0-10.24-1.706666-18.773333-3.413333-30.72-17.066667-32.426667-37.546667v-11.946667c-1.706667-20.48-6.826667-121.173333-39.253333-174.08-23.893333-39.253333-80.213333-69.973333-110.933333-85.333333-25.6-10.24-42.666667-35.84-42.666667-63.146667V191.146667c0-37.546667 30.72-68.266667 68.266667-68.266667h360.106666c30.72 0 58.026667 20.48 64.853334 49.493333l114.346666 404.48c5.12 20.48 1.706667 42.666667-11.946666 59.733334-13.653333 17.066667-32.426667 27.306667-54.613334 27.306666H704.853333l8.533334 29.013334c8.533333 30.72 18.773333 61.44 20.48 95.573333 3.413333 44.373333-3.413333 80.213333-20.48 107.52-22.186667 35.84-76.8 85.333333-119.466667 85.333333z m6.826667-44.373333zM426.666667 174.08c-8.533333 0-17.066667 6.826667-17.066667 17.066667v416.426666c0 6.826667 5.12 13.653333 11.946667 18.773334 44.373333 20.48 104.106667 56.32 133.12 104.106666 37.546667 61.44 44.373333 167.253333 46.08 197.973334 17.066667-6.826667 51.2-30.72 69.973333-59.733334 13.653333-22.186667 15.36-54.613333 13.653333-78.506666-1.706667-27.306667-10.24-52.906667-18.773333-81.92l-18.773333-63.146667c-1.706667-8.533333 0-15.36 3.413333-22.186667 5.12-6.826667 11.946667-10.24 20.48-10.24h230.4c6.826667 0 11.946667-3.413333 13.653333-6.826666 1.706667-1.706667 5.12-8.533333 3.413334-15.36l-114.346667-404.48c-1.706667-6.826667-8.533333-11.946667-17.066667-11.946667H426.666667z"  /></svg>