<?xml version="1.0" standalone="no"?><!DOCTYPE svg PUBLIC "-//W3C//DTD SVG 1.1//EN" "http://www.w3.org/Graphics/SVG/1.1/DTD/svg11.dtd"><svg class="icon" width="64px" height="64.00px" viewBox="0 0 1024 1024" version="1.1" xmlns="http://www.w3.org/2000/svg"><path  d="M512 450.56c-3.413333 0-5.12 0-8.533333-1.706667-51.2-17.066667-150.186667-88.746667-150.186667-177.493333 0-54.613333 44.373333-98.986667 98.986667-98.986667 22.186667 0 42.666667 6.826667 59.733333 20.48 17.066667-13.653333 37.546667-20.48 59.733333-20.48 54.613333 0 98.986667 44.373333 98.986667 98.986667 0 90.453333-98.986667 162.133333-150.186667 177.493333-3.413333 1.706667-5.12 1.706667-8.533333 1.706667z m-59.733333-226.986667c-25.6 0-47.786667 20.48-47.786667 47.786667 0 52.906667 64.853333 109.226667 105.813333 126.293333 40.96-17.066667 105.813333-73.386667 105.813334-126.293333 0-25.6-20.48-47.786667-47.786667-47.786667-15.36 0-29.013333 6.826667-39.253333 20.48 0 6.826667-8.533333 11.946667-17.066667 11.946667s-15.36-3.413333-20.48-10.24c-8.533333-13.653333-23.893333-22.186667-39.253333-22.186667zM561.493333 593.92c-13.653333 0-25.6-11.946667-25.6-25.6v-66.56c0-8.533333 3.413333-15.36 10.24-20.48l124.586667-90.453333 11.946667-51.2c3.413333-13.653333 17.066667-22.186667 30.72-18.773334 13.653333 3.413333 22.186667 17.066667 18.773333 30.72l-15.36 59.733334c-1.706667 5.12-5.12 10.24-10.24 15.36l-121.173333 88.746666v54.613334c1.706667 11.946667-8.533333 23.893333-23.893334 23.893333zM457.386667 597.333333c-13.653333 0-25.6-11.946667-25.6-25.6v-54.613333L314.026667 426.666667c-5.12-3.413333-8.533333-8.533333-8.533334-13.653334l-15.36-59.733333c-3.413333-13.653333 5.12-27.306667 18.773334-30.72 13.653333-3.413333 27.306667 5.12 30.72 18.773333l13.653333 51.2 119.466667 92.16c6.826667 5.12 10.24 11.946667 10.24 20.48v66.56c0 13.653333-11.946667 25.6-25.6 25.6z"  /><path  d="M836.266667 989.866667H187.733333c-51.2 0-93.866667-42.666667-93.866666-93.866667v-768C93.866667 76.8 136.533333 34.133333 187.733333 34.133333h648.533334c51.2 0 93.866667 42.666667 93.866666 93.866667v768c0 51.2-42.666667 93.866667-93.866666 93.866667zM187.733333 85.333333C163.84 85.333333 145.066667 104.106667 145.066667 128v768c0 23.893333 18.773333 42.666667 42.666666 42.666667h648.533334c23.893333 0 42.666667-18.773333 42.666666-42.666667v-768C878.933333 104.106667 860.16 85.333333 836.266667 85.333333H187.733333z"  /><path  d="M680.96 827.733333H343.04c-13.653333 0-25.6-11.946667-25.6-25.6s11.946667-25.6 25.6-25.6h337.92c13.653333 0 25.6 11.946667 25.6 25.6s-11.946667 25.6-25.6 25.6zM680.96 720.213333H343.04c-13.653333 0-25.6-11.946667-25.6-25.6s11.946667-25.6 25.6-25.6h337.92c13.653333 0 25.6 11.946667 25.6 25.6s-11.946667 25.6-25.6 25.6z"  /></svg>