<?xml version="1.0" standalone="no"?><!DOCTYPE svg PUBLIC "-//W3C//DTD SVG 1.1//EN" "http://www.w3.org/Graphics/SVG/1.1/DTD/svg11.dtd"><svg class="icon" width="64px" height="64.00px" viewBox="0 0 1024 1024" version="1.1" xmlns="http://www.w3.org/2000/svg"><path  d="M512 520.533333c-133.12 0-240.64-107.52-240.64-240.64S378.88 39.253333 512 39.253333s240.64 107.52 240.64 240.64S645.12 520.533333 512 520.533333z m0-430.08c-104.106667 0-189.44 85.333333-189.44 189.44s85.333333 189.44 189.44 189.44 189.44-85.333333 189.44-189.44S616.106667 90.453333 512 90.453333z"  /><path  d="M512 273.066667c-6.826667 0-13.653333-1.706667-18.773333-6.826667l-52.906667-52.906667c-10.24-10.24-10.24-25.6 0-35.84s25.6-10.24 35.84 0l35.84 35.84 35.84-35.84c10.24-10.24 25.6-10.24 35.84 0s10.24 25.6 0 35.84l-52.906667 52.906667c-5.12 5.12-11.946667 6.826667-18.773333 6.826667z"  /><path  d="M575.146667 283.306667h-128c-13.653333 0-25.6-11.946667-25.6-25.6s11.946667-25.6 25.6-25.6h128c13.653333 0 25.6 11.946667 25.6 25.6s-10.24 25.6-25.6 25.6zM575.146667 348.16h-128c-13.653333 0-25.6-11.946667-25.6-25.6s11.946667-25.6 25.6-25.6h128c13.653333 0 25.6 11.946667 25.6 25.6s-10.24 25.6-25.6 25.6z"  /><path  d="M512 390.826667c-13.653333 0-25.6-11.946667-25.6-25.6v-107.52c0-13.653333 11.946667-25.6 25.6-25.6s25.6 11.946667 25.6 25.6v107.52c0 13.653333-11.946667 25.6-25.6 25.6z"  /><path  d="M964.266667 972.8h-904.533334c-13.653333 0-25.6-11.946667-25.6-25.6 0-262.826667 215.04-477.866667 477.866667-477.866667s477.866667 215.04 477.866667 477.866667c0 13.653333-11.946667 25.6-25.6 25.6zM85.333333 921.6h853.333334c-13.653333-223.573333-199.68-401.066667-426.666667-401.066667S98.986667 698.026667 85.333333 921.6z"  /><path  d="M508.586667 836.266667s-1.706667 0 0 0c-6.826667 0-13.653333-3.413333-18.773334-8.533334L262.826667 593.92c-10.24-10.24-10.24-25.6 0-35.84 10.24-10.24 25.6-10.24 35.84 0l208.213333 215.04 216.746667-216.746667c10.24-10.24 25.6-10.24 35.84 0s10.24 25.6 0 35.84L525.653333 829.44c-5.12 5.12-10.24 6.826667-17.066666 6.826667z"  /></svg>