<?xml version="1.0" standalone="no"?><!DOCTYPE svg PUBLIC "-//W3C//DTD SVG 1.1//EN" "http://www.w3.org/Graphics/SVG/1.1/DTD/svg11.dtd"><svg class="icon" width="64px" height="64.00px" viewBox="0 0 1024 1024" version="1.1" xmlns="http://www.w3.org/2000/svg"><path  d="M929.109333 390.997333H97.450667c-32.938667 0-59.733333-26.794667-59.733334-59.733333v-170.666667c0-32.938667 26.794667-59.733333 59.733334-59.733333h831.829333c32.938667 0 59.733333 26.794667 59.733333 59.733333v170.666667a60.0576 60.0576 0 0 1-59.904 59.733333z m-831.658666-238.933333c-4.778667 0-8.533333 3.754667-8.533334 8.533333v170.666667c0 4.778667 3.754667 8.533333 8.533334 8.533333h831.829333c4.778667 0 8.533333-3.754667 8.533333-8.533333v-170.666667c0-4.778667-3.754667-8.533333-8.533333-8.533333H97.450667z"  /><path  d="M820.394667 981.333333h-614.4a94.037333 94.037333 0 0 1-93.866667-93.866666V365.397333c0-14.165333 11.434667-25.6 25.6-25.6h750.933333c14.165333 0 25.6 11.434667 25.6 25.6V887.466667c0 51.712-41.984 93.866667-93.866666 93.866666zM163.328 390.997333V887.466667a42.666667 42.666667 0 0 0 42.666667 42.666666h614.4a42.666667 42.666667 0 0 0 42.666666-42.666666V390.997333h-699.733333z"  /><path  d="M667.306667 558.250667H359.082667c-14.165333 0-25.6-11.434667-25.6-25.6s11.434667-25.6 25.6-25.6H667.306667c14.165333 0 25.6 11.434667 25.6 25.6s-11.434667 25.6-25.6 25.6z"  /></svg>