<?xml version="1.0" standalone="no"?><!DOCTYPE svg PUBLIC "-//W3C//DTD SVG 1.1//EN" "http://www.w3.org/Graphics/SVG/1.1/DTD/svg11.dtd"><svg class="icon" width="64px" height="64.00px" viewBox="0 0 1024 1024" version="1.1" xmlns="http://www.w3.org/2000/svg"><path d="M0 0h1024v1024H0z" fill="#EAEAEA" opacity=".12" /><path d="M822.613333 989.866667H201.386667c-49.493333 0-90.453333-40.96-90.453334-90.453334V124.586667c0-51.2 40.96-90.453333 90.453334-90.453334h619.52c51.2 0 90.453333 40.96 90.453333 90.453334v773.12c1.706667 51.2-39.253333 92.16-88.746667 92.16zM201.386667 85.333333c-22.186667 0-39.253333 18.773333-39.253334 39.253334v773.12c0 22.186667 18.773333 39.253333 39.253334 39.253333h619.52c22.186667 0 39.253333-18.773333 39.253333-39.253333V124.586667C860.16 102.4 841.386667 85.333333 820.906667 85.333333H201.386667z" fill="#333333" /><path d="M674.133333 232.106667h-409.6c-13.653333 0-25.6-11.946667-25.6-25.6s11.946667-25.6 25.6-25.6h409.6c13.653333 0 25.6 11.946667 25.6 25.6s-11.946667 25.6-25.6 25.6zM399.36 370.346667h-134.826667c-13.653333 0-25.6-11.946667-25.6-25.6s11.946667-25.6 25.6-25.6h134.826667c13.653333 0 25.6 11.946667 25.6 25.6s-11.946667 25.6-25.6 25.6z" fill="#333333" /><path d="M740.693333 844.8H406.186667c-13.653333 0-25.6-5.12-35.84-15.36-8.533333-10.24-11.946667-23.893333-11.946667-37.546667l37.546667-298.666666c3.413333-23.893333 22.186667-40.96 46.08-40.96h261.12c23.893333 0 44.373333 17.066667 46.08 40.96l37.546666 298.666666c1.706667 13.653333-1.706667 27.306667-11.946666 37.546667-6.826667 10.24-20.48 15.36-34.133334 15.36z m-329.386666-51.2h325.973333l-35.84-290.133333H447.146667l-35.84 290.133333z m35.84-293.546667z" fill="#333333" /><path d="M573.44 653.653333c-88.746667 0-117.76-54.613333-119.466667-56.32-6.826667-11.946667-1.706667-27.306667 11.946667-34.133333 11.946667-6.826667 27.306667-1.706667 34.133333 10.24 1.706667 1.706667 18.773333 29.013333 73.386667 29.013333 56.32 0 73.386667-27.306667 73.386667-29.013333 6.826667-11.946667 22.186667-17.066667 34.133333-10.24s17.066667 20.48 10.24 34.133333c0 1.706667-27.306667 56.32-117.76 56.32z" fill="#333333" /></svg>