<?xml version="1.0" standalone="no"?><!DOCTYPE svg PUBLIC "-//W3C//DTD SVG 1.1//EN" "http://www.w3.org/Graphics/SVG/1.1/DTD/svg11.dtd"><svg class="icon" width="64px" height="64.00px" viewBox="0 0 1024 1024" version="1.1" xmlns="http://www.w3.org/2000/svg"><path  d="M822.613333 34.133333H201.386667C151.893333 34.133333 110.933333 75.093333 110.933333 124.586667v773.12c0 49.493333 40.96 90.453333 90.453334 90.453333h186.026666c13.653333 0 25.6-11.946667 25.6-25.6s-10.24-23.893333-23.893333-23.893333h-187.733333c-22.186667 0-39.253333-18.773333-39.253334-39.253334V124.586667C162.133333 102.4 180.906667 85.333333 201.386667 85.333333h619.52c22.186667 0 39.253333 18.773333 39.253333 39.253334v384c0 13.653333 11.946667 25.6 25.6 25.6s25.6-11.946667 25.6-25.6V124.586667c1.706667-49.493333-39.253333-90.453333-88.746667-90.453334z"  /><path  d="M264.533333 266.24h409.6c13.653333 0 25.6-11.946667 25.6-25.6s-11.946667-25.6-25.6-25.6h-409.6c-13.653333 0-25.6 11.946667-25.6 25.6s11.946667 25.6 25.6 25.6zM264.533333 421.546667h221.866667c13.653333 0 25.6-11.946667 25.6-25.6s-11.946667-25.6-25.6-25.6h-221.866667c-13.653333 0-25.6 11.946667-25.6 25.6s11.946667 25.6 25.6 25.6zM887.466667 597.333333H523.946667l-11.946667-44.373333c-3.413333-11.946667-13.653333-18.773333-25.6-18.773333h-37.546667c-13.653333 0-25.6 11.946667-25.6 25.6s11.946667 25.6 25.6 25.6h17.066667l11.946667 44.373333 52.906666 213.333333c3.413333 11.946667 13.653333 18.773333 25.6 18.773334h278.186667c11.946667 0 22.186667-8.533333 25.6-18.773334l52.906667-213.333333c1.706667-6.826667 0-15.36-5.12-22.186667s-11.946667-10.24-20.48-10.24z m-73.386667 213.333334H576.853333L535.893333 648.533333h319.146667l-40.96 162.133334zM556.373333 870.4c-32.426667 0-59.733333 27.306667-59.733333 59.733333s27.306667 59.733333 59.733333 59.733334 59.733333-27.306667 59.733334-59.733334-25.6-59.733333-59.733334-59.733333z m0 68.266667c-5.12 0-8.533333-3.413333-8.533333-8.533334s3.413333-8.533333 8.533333-8.533333 8.533333 3.413333 8.533334 8.533333-3.413333 8.533333-8.533334 8.533334zM834.56 870.4c-32.426667 0-59.733333 27.306667-59.733333 59.733333S802.133333 989.866667 834.56 989.866667s59.733333-27.306667 59.733333-59.733334-27.306667-59.733333-59.733333-59.733333z m0 68.266667c-5.12 0-8.533333-3.413333-8.533333-8.533334s3.413333-8.533333 8.533333-8.533333 8.533333 3.413333 8.533333 8.533333-3.413333 8.533333-8.533333 8.533334z"  /></svg>