<?xml version="1.0" standalone="no"?><!DOCTYPE svg PUBLIC "-//W3C//DTD SVG 1.1//EN" "http://www.w3.org/Graphics/SVG/1.1/DTD/svg11.dtd"><svg class="icon" width="64px" height="64.00px" viewBox="0 0 1024 1024" version="1.1" xmlns="http://www.w3.org/2000/svg"><path  d="M512 520.533333c-133.12 0-240.64-107.52-240.64-240.64S378.88 39.253333 512 39.253333s240.64 107.52 240.64 240.64S645.12 520.533333 512 520.533333z m0-430.08c-104.106667 0-189.44 85.333333-189.44 189.44s85.333333 189.44 189.44 189.44 189.44-85.333333 189.44-189.44S616.106667 90.453333 512 90.453333z"  /><path  d="M518.826667 972.8H59.733333c-13.653333 0-25.6-11.946667-25.6-25.6 0-262.826667 215.04-477.866667 477.866667-477.866667 13.653333 0 25.6 11.946667 25.6 25.6s-11.946667 25.6-25.6 25.6C285.013333 520.533333 98.986667 698.026667 85.333333 921.6h433.493334c13.653333 0 25.6 11.946667 25.6 25.6s-11.946667 25.6-25.6 25.6z"  /><path  d="M776.533333 984.746667c-117.76 0-213.333333-95.573333-213.333333-213.333334s95.573333-213.333333 213.333333-213.333333S989.866667 653.653333 989.866667 771.413333s-95.573333 213.333333-213.333334 213.333334z m0-375.466667c-88.746667 0-162.133333 73.386667-162.133333 162.133333s73.386667 162.133333 162.133333 162.133334 162.133333-73.386667 162.133334-162.133334-73.386667-162.133333-162.133334-162.133333z"  /><path  d="M776.533333 764.586667c-6.826667 0-13.653333-1.706667-18.773333-6.826667l-52.906667-52.906667c-10.24-10.24-10.24-25.6 0-35.84s25.6-10.24 35.84 0l35.84 35.84 35.84-35.84c10.24-10.24 25.6-10.24 35.84 0s10.24 25.6 0 35.84l-52.906666 52.906667c-5.12 5.12-11.946667 6.826667-18.773334 6.826667z"  /><path  d="M839.68 776.533333h-128c-13.653333 0-25.6-11.946667-25.6-25.6s11.946667-25.6 25.6-25.6h128c13.653333 0 25.6 11.946667 25.6 25.6s-10.24 25.6-25.6 25.6zM839.68 839.68h-128c-13.653333 0-25.6-11.946667-25.6-25.6s11.946667-25.6 25.6-25.6h128c13.653333 0 25.6 11.946667 25.6 25.6s-10.24 25.6-25.6 25.6z"  /><path  d="M776.533333 882.346667c-13.653333 0-25.6-11.946667-25.6-25.6V750.933333c0-13.653333 11.946667-25.6 25.6-25.6s25.6 10.24 25.6 25.6v107.52c0 13.653333-11.946667 23.893333-25.6 23.893334z"  /></svg>