<?xml version="1.0" standalone="no"?><!DOCTYPE svg PUBLIC "-//W3C//DTD SVG 1.1//EN" "http://www.w3.org/Graphics/SVG/1.1/DTD/svg11.dtd"><svg class="icon" width="64px" height="64.00px" viewBox="0 0 1024 1024" version="1.1" xmlns="http://www.w3.org/2000/svg"><path  d="M428.373333 513.706667c-105.813333 0-192.853333-87.04-192.853333-192.853334S322.56 128 428.373333 128s192.853333 87.04 192.853334 192.853333-87.04 192.853333-192.853334 192.853334z m0-334.506667c-78.506667 0-141.653333 63.146667-141.653333 141.653333s63.146667 141.653333 141.653333 141.653334 141.653333-63.146667 141.653334-141.653334-63.146667-141.653333-141.653334-141.653333zM797.013333 947.2H59.733333c-15.36 0-25.6-11.946667-25.6-25.6 0-218.453333 177.493333-394.24 394.24-394.24S822.613333 703.146667 822.613333 921.6c0 13.653333-10.24 25.6-25.6 25.6zM85.333333 896h686.08c-13.653333-177.493333-162.133333-317.44-343.04-317.44S98.986667 718.506667 85.333333 896z"  /><path  d="M428.373333 815.786667c-10.24 0-20.48-6.826667-23.893333-17.066667l-54.613333-145.066667c-3.413333-6.826667-1.706667-15.36 1.706666-22.186666l54.613334-93.866667c5.12-8.533333 13.653333-13.653333 22.186666-13.653333s17.066667 5.12 22.186667 13.653333l52.906667 93.866667c3.413333 6.826667 5.12 13.653333 1.706666 22.186666l-52.906666 145.066667c-3.413333 10.24-13.653333 17.066667-23.893334 17.066667z m-25.6-168.96l25.6 68.266666 25.6-68.266666-25.6-44.373334-25.6 44.373334z"  /><path  d="M745.813333 558.08c-49.493333 0-97.28-15.36-138.24-42.666667-11.946667-8.533333-13.653333-23.893333-6.826666-35.84 8.533333-11.946667 23.893333-13.653333 35.84-6.826666 32.426667 22.186667 69.973333 34.133333 109.226666 34.133333 104.106667 0 189.44-85.333333 189.44-189.44s-85.333333-189.44-189.44-189.44c-42.666667 0-81.92 13.653333-116.053333 39.253333-11.946667 8.533333-27.306667 6.826667-35.84-5.12s-6.826667-27.306667 5.12-35.84c42.666667-32.426667 92.16-49.493333 146.773333-49.493333 133.12 0 240.64 107.52 240.64 240.64s-107.52 240.64-240.64 240.64z"  /><path  d="M762.88 310.613333c-6.826667 0-13.653333-1.706667-18.773333-6.826666l-52.906667-52.906667c-10.24-10.24-10.24-25.6 0-35.84s25.6-10.24 35.84 0l35.84 35.84 35.84-35.84c10.24-10.24 25.6-10.24 35.84 0s10.24 25.6 0 35.84l-52.906667 52.906667c-5.12 5.12-11.946667 6.826667-18.773333 6.826666z"  /><path  d="M827.733333 322.56H699.733333c-13.653333 0-25.6-11.946667-25.6-25.6s11.946667-25.6 25.6-25.6h128c13.653333 0 25.6 11.946667 25.6 25.6s-11.946667 25.6-25.6 25.6zM827.733333 385.706667H699.733333c-13.653333 0-25.6-11.946667-25.6-25.6s11.946667-25.6 25.6-25.6h128c13.653333 0 25.6 11.946667 25.6 25.6s-11.946667 25.6-25.6 25.6z"  /><path  d="M762.88 428.373333c-13.653333 0-25.6-11.946667-25.6-25.6v-107.52c0-13.653333 11.946667-25.6 25.6-25.6s25.6 11.946667 25.6 25.6v107.52c0 13.653333-10.24 25.6-25.6 25.6z"  /></svg>