<?xml version="1.0" standalone="no"?><!DOCTYPE svg PUBLIC "-//W3C//DTD SVG 1.1//EN" "http://www.w3.org/Graphics/SVG/1.1/DTD/svg11.dtd"><svg class="icon" width="64px" height="64.00px" viewBox="0 0 1024 1024" version="1.1" xmlns="http://www.w3.org/2000/svg"><path  d="M679.936 603.989333H364.032c-35.498667 0-64.170667-31.914667-64.170667-71.168V263.338667c0-11.434667-6.826667-19.968-12.970666-19.968h-55.637334c-14.165333 0-25.6-11.434667-25.6-25.6s11.434667-25.6 25.6-25.6h55.637334c35.498667 0 64.170667 31.914667 64.170666 71.168v269.482666c0 11.434667 6.826667 19.968 12.970667 19.968h315.904c6.144 0 11.093333-4.949333 11.093333-11.093333V310.954667c0-14.165333 11.434667-25.6 25.6-25.6s25.6 11.434667 25.6 25.6v230.741333c0 34.304-27.989333 62.293333-62.293333 62.293333z"  /><path  d="M337.578667 667.989333m-29.013334 0a29.013333 29.013333 0 1 0 58.026667 0 29.013333 29.013333 0 1 0-58.026667 0Z"  /><path  d="M718.336 667.989333m-29.013333 0a29.013333 29.013333 0 1 0 58.026666 0 29.013333 29.013333 0 1 0-58.026666 0Z"  /><path  d="M615.424 376.32H427.861333c-14.165333 0-25.6-11.434667-25.6-25.6s11.434667-25.6 25.6-25.6h187.562667c14.165333 0 25.6 11.434667 25.6 25.6s-11.605333 25.6-25.6 25.6zM615.424 473.429333H427.861333c-14.165333 0-25.6-11.434667-25.6-25.6s11.434667-25.6 25.6-25.6h187.562667c14.165333 0 25.6 11.434667 25.6 25.6s-11.605333 25.6-25.6 25.6z"  /><path  d="M896.512 797.696H127.658667C76.117333 797.696 34.133333 755.712 34.133333 704.170667V161.450667c0-51.541333 41.984-93.525333 93.525334-93.525334h768.853333c51.541333 0 93.354667 41.984 93.354667 93.525334v542.72c0 51.541333-41.984 93.525333-93.354667 93.525333zM127.658667 119.296C104.277333 119.296 85.333333 138.24 85.333333 161.450667v542.72c0 23.210667 18.944 42.154667 42.325334 42.154666h768.853333c23.210667 0 42.154667-18.944 42.154667-42.154666V161.450667c0-23.210667-18.944-42.325333-42.154667-42.325334H127.658667z"  /><path  d="M512 955.904c-14.165333 0-25.6-11.434667-25.6-25.6v-158.378667c0-14.165333 11.434667-25.6 25.6-25.6s25.6 11.434667 25.6 25.6v158.378667c0 14.165333-11.434667 25.6-25.6 25.6z"  /><path  d="M828.586667 955.904h-633.173334c-14.165333 0-25.6-11.434667-25.6-25.6s11.434667-25.6 25.6-25.6h633.173334c14.165333 0 25.6 11.434667 25.6 25.6s-11.434667 25.6-25.6 25.6z"  /></svg>