<?xml version="1.0" standalone="no"?><!DOCTYPE svg PUBLIC "-//W3C//DTD SVG 1.1//EN" "http://www.w3.org/Graphics/SVG/1.1/DTD/svg11.dtd"><svg class="icon" width="64px" height="64.00px" viewBox="0 0 1024 1024" version="1.1" xmlns="http://www.w3.org/2000/svg"><path  d="M964.266667 852.48H307.370667c-53.76 0-97.621333-49.493333-97.621334-110.421333V171.008c0-32.768-20.821333-59.392-46.421333-59.392H59.733333C45.568 111.786667 34.133333 100.352 34.133333 86.186667s11.434667-25.6 25.6-25.6h103.594667c53.76 0 97.621333 49.493333 97.621333 110.592v570.88c0 32.768 20.821333 59.221333 46.421334 59.221333H964.266667c14.165333 0 25.6 11.434667 25.6 25.6s-11.434667 25.6-25.6 25.6z"  /><path  d="M570.538667 433.834667H360.96c-14.165333 0-25.6-11.434667-25.6-25.6V198.656c0-14.165333 11.434667-25.6 25.6-25.6h209.749333c14.165333 0 25.6 11.434667 25.6 25.6v209.749333c-0.170667 13.994667-11.605333 25.429333-25.770666 25.429334z m-183.978667-51.2h158.549333v-158.549334h-158.549333v158.549334zM881.152 433.834667H671.402667c-14.165333 0-25.6-11.434667-25.6-25.6V198.656c0-14.165333 11.434667-25.6 25.6-25.6h209.749333c14.165333 0 25.6 11.434667 25.6 25.6v209.749333c0 13.994667-11.434667 25.429333-25.6 25.429334z m-184.149333-51.2h158.549333v-158.549334h-158.549333v158.549334z"  /><path  d="M570.538667 733.696H360.96c-14.165333 0-25.6-11.434667-25.6-25.6V498.346667c0-14.165333 11.434667-25.6 25.6-25.6h209.749333c14.165333 0 25.6 11.434667 25.6 25.6v209.749333c-0.170667 14.165333-11.605333 25.6-25.770666 25.6z m-183.978667-51.2h158.549333V523.946667h-158.549333v158.549333zM881.152 733.696H671.402667c-14.165333 0-25.6-11.434667-25.6-25.6V498.346667c0-14.165333 11.434667-25.6 25.6-25.6h209.749333c14.165333 0 25.6 11.434667 25.6 25.6v209.749333c0 14.165333-11.434667 25.6-25.6 25.6z m-184.149333-51.2h158.549333V523.946667h-158.549333v158.549333z"  /><path  d="M377.514667 930.304m-53.930667 0a53.930667 53.930667 0 1 0 107.861333 0 53.930667 53.930667 0 1 0-107.861333 0Z"  /><path  d="M865.109333 930.304m-53.930666 0a53.930667 53.930667 0 1 0 107.861333 0 53.930667 53.930667 0 1 0-107.861333 0Z"  /></svg>