<?xml version="1.0" standalone="no"?><!DOCTYPE svg PUBLIC "-//W3C//DTD SVG 1.1//EN" "http://www.w3.org/Graphics/SVG/1.1/DTD/svg11.dtd"><svg class="icon" width="64px" height="64.00px" viewBox="0 0 1024 1024" version="1.1" xmlns="http://www.w3.org/2000/svg"><path  d="M788.48 976.042667H235.52c-44.714667 0-82.773333-31.914667-90.624-75.946667l-109.226667-614.058667c-4.778667-26.794667 2.56-54.272 19.968-75.264s43.349333-32.938667 70.485334-32.938666h193.194666c14.165333 0 25.6 11.434667 25.6 25.6s-11.434667 25.6-25.6 25.6H126.122667c-12.117333 0-23.552 5.290667-31.232 14.677333s-11.093333 21.504-8.874667 33.450667l109.226667 614.058666c3.413333 19.456 20.309333 33.621333 40.277333 33.621334h552.96c19.797333 0 36.693333-14.165333 40.277333-33.621334l109.226667-614.058666c2.048-11.946667-1.194667-24.064-8.874667-33.450667-7.850667-9.216-19.285333-14.677333-31.232-14.677333h-199.68c-14.165333 0-25.6-11.434667-25.6-25.6s11.434667-25.6 25.6-25.6H897.706667c27.306667 0 53.077333 11.946667 70.485333 32.938666a91.0848 91.0848 0 0 1 19.968 75.264l-109.226667 614.058667a91.477333 91.477333 0 0 1-90.453333 75.946667z"  /><path  d="M606.378667 667.818667H417.621333c-14.165333 0-25.6-11.434667-25.6-25.6s11.434667-25.6 25.6-25.6h188.757334c14.165333 0 25.6 11.434667 25.6 25.6s-11.434667 25.6-25.6 25.6zM606.378667 762.197333H417.621333c-14.165333 0-25.6-11.434667-25.6-25.6s11.434667-25.6 25.6-25.6h188.757334c14.165333 0 25.6 11.434667 25.6 25.6s-11.434667 25.6-25.6 25.6z"  /><path  d="M512.170667 856.576c-14.165333 0-25.6-11.434667-25.6-25.6V642.218667c0-14.165333 11.434667-25.6 25.6-25.6s25.6 11.434667 25.6 25.6V831.146667c0 13.994667-11.434667 25.429333-25.6 25.429333z"  /><path  d="M512 662.698667l-112.469333-112.469334a25.429333 25.429333 0 0 1 0-36.181333 25.429333 25.429333 0 0 1 36.181333 0L512 590.336l76.288-76.288a25.429333 25.429333 0 0 1 36.181333 0c10.069333 10.069333 10.069333 26.282667 0 36.181333L512 662.698667z"  /><path  d="M512 431.274667c-6.826667 0-13.312-2.730667-18.090667-7.509334l-136.362666-136.362666a25.429333 25.429333 0 0 1 0-36.181334 25.429333 25.429333 0 0 1 36.181333 0L512 369.493333l118.272-118.272c10.069333-10.069333 26.282667-10.069333 36.181333 0s10.069333 26.282667 0 36.181334l-136.362666 136.362666c-4.778667 4.949333-11.264 7.509333-18.090667 7.509334z"  /><path  d="M511.829333 431.274667c-14.165333 0-25.6-11.434667-25.6-25.6V73.557333c0-14.165333 11.434667-25.6 25.6-25.6s25.6 11.434667 25.6 25.6v332.288c0 13.994667-11.434667 25.429333-25.6 25.429334z"  /></svg>