<?xml version="1.0" standalone="no"?><!DOCTYPE svg PUBLIC "-//W3C//DTD SVG 1.1//EN" "http://www.w3.org/Graphics/SVG/1.1/DTD/svg11.dtd"><svg class="icon" width="64px" height="64.00px" viewBox="0 0 1024 1024" version="1.1" xmlns="http://www.w3.org/2000/svg"><path  d="M479.061333 470.016c-116.906667 0-211.968-95.061333-211.968-211.968S362.154667 46.08 479.061333 46.08s211.968 95.061333 211.968 211.968-95.061333 211.968-211.968 211.968z m0-372.736c-88.576 0-160.768 72.192-160.768 160.768s72.192 160.768 160.768 160.768 160.768-72.192 160.768-160.768-72.021333-160.768-160.768-160.768zM59.733333 977.92c-14.165333 0-25.6-11.434667-25.6-25.6 0-245.418667 199.68-444.928 444.928-444.928 132.778667 0 257.536 58.538667 342.528 160.768 9.045333 10.922667 7.509333 26.965333-3.413333 36.010667-10.922667 9.045333-26.965333 7.509333-36.010667-3.413334-75.093333-90.453333-185.685333-142.336-303.104-142.336C261.973333 558.592 85.333333 735.232 85.333333 952.32c0 14.165333-11.434667 25.6-25.6 25.6z"  /><path  d="M964.266667 814.421333H585.045333c-14.165333 0-25.6-11.434667-25.6-25.6s11.434667-25.6 25.6-25.6h321.365334l-30.549334-33.450666a25.634133 25.634133 0 0 1 37.888-34.474667l69.461334 76.288c6.826667 7.509333 8.533333 18.261333 4.437333 27.648s-13.312 15.189333-23.381333 15.189333z"  /><path  d="M654.506667 983.381333c-6.997333 0-13.824-2.901333-18.944-8.362666l-69.461334-76.458667c-6.826667-7.509333-8.533333-18.261333-4.437333-27.648 4.096-9.216 13.312-15.189333 23.381333-15.189333H964.266667c14.165333 0 25.6 11.434667 25.6 25.6s-11.434667 25.6-25.6 25.6H642.901333l30.549334 33.621333a25.634133 25.634133 0 0 1-18.944 42.837333z"  /></svg>