<?xml version="1.0" standalone="no"?><!DOCTYPE svg PUBLIC "-//W3C//DTD SVG 1.1//EN" "http://www.w3.org/Graphics/SVG/1.1/DTD/svg11.dtd"><svg class="icon" width="64px" height="64.00px" viewBox="0 0 1024 1024" version="1.1" xmlns="http://www.w3.org/2000/svg"><path  d="M824.32 872.106667c-6.826667 0-11.946667-1.706667-17.066667-6.826667-10.24-10.24-10.24-25.6 0-35.84l64.853334-66.56-64.853334-66.56c-10.24-10.24-10.24-25.6 0-35.84 10.24-10.24 25.6-10.24 35.84 0l81.92 85.333333c10.24 10.24 10.24 25.6 0 35.84l-81.92 85.333334c-5.12 3.413333-11.946667 5.12-18.773333 5.12zM653.653333 872.106667c-6.826667 0-11.946667-1.706667-17.066666-6.826667-10.24-10.24-10.24-25.6 0-35.84l64.853333-66.56-64.853333-66.56c-10.24-10.24-10.24-25.6 0-35.84 10.24-10.24 25.6-10.24 35.84 0l81.92 85.333333c10.24 10.24 10.24 25.6 0 35.84l-81.92 85.333334c-5.12 3.413333-11.946667 5.12-18.773334 5.12z"  /><path  d="M836.266667 989.866667H187.733333c-51.2 0-93.866667-42.666667-93.866666-93.866667v-768C93.866667 76.8 136.533333 34.133333 187.733333 34.133333h648.533334c51.2 0 93.866667 42.666667 93.866666 93.866667v424.96c0 13.653333-11.946667 25.6-25.6 25.6s-25.6-11.946667-25.6-25.6V128C878.933333 104.106667 860.16 85.333333 836.266667 85.333333H187.733333C163.84 85.333333 145.066667 104.106667 145.066667 128v768c0 23.893333 18.773333 42.666667 42.666666 42.666667h648.533334c13.653333 0 25.6 11.946667 25.6 25.6S849.92 989.866667 836.266667 989.866667z"  /><path  d="M745.813333 249.173333H278.186667c-13.653333 0-25.6-11.946667-25.6-25.6s11.946667-25.6 25.6-25.6h469.333333c13.653333 0 25.6 11.946667 25.6 25.6s-11.946667 25.6-27.306667 25.6zM745.813333 407.893333H278.186667c-13.653333 0-25.6-11.946667-25.6-25.6s11.946667-25.6 25.6-25.6h469.333333c13.653333 0 25.6 11.946667 25.6 25.6s-11.946667 25.6-27.306667 25.6zM539.306667 566.613333H278.186667c-13.653333 0-25.6-11.946667-25.6-25.6s11.946667-25.6 25.6-25.6h262.826666c13.653333 0 25.6 11.946667 25.6 25.6-1.706667 13.653333-13.653333 25.6-27.306666 25.6z"  /></svg>