<?xml version="1.0" standalone="no"?><!DOCTYPE svg PUBLIC "-//W3C//DTD SVG 1.1//EN" "http://www.w3.org/Graphics/SVG/1.1/DTD/svg11.dtd"><svg class="icon" width="64px" height="64.00px" viewBox="0 0 1024 1024" version="1.1" xmlns="http://www.w3.org/2000/svg"><path  d="M908.458667 239.957333l-167.253334-196.778666c-4.949333-5.802667-12.117333-9.045333-19.626666-9.045334H190.976C146.090667 34.133333 109.568 75.605333 109.568 126.805333v770.56c0 51.029333 36.522667 92.672 81.408 92.672h642.048c44.885333 0 81.408-41.472 81.408-92.672V256.512c0-5.973333-2.048-11.946667-5.973333-16.554667z m-60.586667 7.850667h-112.128V115.882667l112.128 131.925333zM833.024 938.666667H190.976c-16.384 0-30.208-18.944-30.208-41.472V126.805333c0-22.528 13.824-41.472 30.208-41.472h493.568v171.008a42.666667 42.666667 0 0 0 42.666667 42.666667h136.021333v598.186667c0 22.528-13.824 41.472-30.208 41.472z"  /><path  d="M691.029333 451.584h-48.810666V418.133333c0-32.938667-26.794667-59.733333-59.733334-59.733333h-140.970666c-32.938667 0-59.733333 26.794667-59.733334 59.733333v33.450667h-48.810666c-32.938667 0-59.733333 26.794667-59.733334 59.733333V742.4c0 32.938667 26.794667 59.733333 59.733334 59.733333h358.058666c32.938667 0 59.733333-26.794667 59.733334-59.733333V511.317333c0-32.938667-26.794667-59.733333-59.733334-59.733333zM432.981333 418.133333c0-4.778667 3.754667-8.533333 8.533334-8.533333h140.970666c4.778667 0 8.533333 3.754667 8.533334 8.533333v33.450667h-158.037334V418.133333z m266.581334 324.266667c0 4.778667-3.754667 8.533333-8.533334 8.533333H332.970667c-4.778667 0-8.533333-3.754667-8.533334-8.533333V511.317333c0-4.778667 3.754667-8.533333 8.533334-8.533333h358.058666c4.778667 0 8.533333 3.754667 8.533334 8.533333V742.4z"  /><path  d="M384.512 536.405333c-14.165333 0-25.6 11.434667-25.6 25.6v129.706667c0 14.165333 11.434667 25.6 25.6 25.6s25.6-11.434667 25.6-25.6v-129.706667c0-14.165333-11.605333-25.6-25.6-25.6zM639.488 536.405333c-14.165333 0-25.6 11.434667-25.6 25.6v129.706667c0 14.165333 11.434667 25.6 25.6 25.6s25.6-11.434667 25.6-25.6v-129.706667c0-14.165333-11.434667-25.6-25.6-25.6z"  /></svg>