<?xml version="1.0" standalone="no"?><!DOCTYPE svg PUBLIC "-//W3C//DTD SVG 1.1//EN" "http://www.w3.org/Graphics/SVG/1.1/DTD/svg11.dtd"><svg class="icon" width="64px" height="64.00px" viewBox="0 0 1024 1024" version="1.1" xmlns="http://www.w3.org/2000/svg"><path  d="M896 922.112h-768a94.037333 94.037333 0 0 1-93.866667-93.866667V329.386667c0-51.712 42.154667-93.866667 93.866667-93.866667h768c51.712 0 93.866667 42.154667 93.866667 93.866667v498.858666c0 51.712-42.154667 93.866667-93.866667 93.866667zM128 286.72A42.666667 42.666667 0 0 0 85.333333 329.386667v498.858666a42.666667 42.666667 0 0 0 42.666667 42.666667h768a42.666667 42.666667 0 0 0 42.666667-42.666667V329.386667a42.666667 42.666667 0 0 0-42.666667-42.666667h-768z"  /><path  d="M241.322667 742.058667c-14.165333 0-25.6-11.434667-25.6-25.6V441.173333c0-14.165333 11.434667-25.6 25.6-25.6s25.6 11.434667 25.6 25.6v275.285334c0 14.165333-11.434667 25.6-25.6 25.6zM782.677333 742.058667c-14.165333 0-25.6-11.434667-25.6-25.6V441.173333c0-14.165333 11.434667-25.6 25.6-25.6s25.6 11.434667 25.6 25.6v275.285334c0 14.165333-11.434667 25.6-25.6 25.6z"  /><path  d="M734.037333 286.72H289.962667c-14.165333 0-25.6-11.434667-25.6-25.6V161.621333c0-32.938667 26.794667-59.733333 59.733333-59.733333h375.978667c32.938667 0 59.733333 26.794667 59.733333 59.733333v99.669334c-0.170667 13.994667-11.605333 25.429333-25.770667 25.429333z m-418.474666-51.2h393.045333V161.621333c0-4.778667-3.754667-8.533333-8.533333-8.533333H324.096c-4.778667 0-8.533333 3.754667-8.533333 8.533333v73.898667z"  /></svg>