<?xml version="1.0" standalone="no"?><!DOCTYPE svg PUBLIC "-//W3C//DTD SVG 1.1//EN" "http://www.w3.org/Graphics/SVG/1.1/DTD/svg11.dtd"><svg class="icon" width="64px" height="64.00px" viewBox="0 0 1024 1024" version="1.1" xmlns="http://www.w3.org/2000/svg"><path  d="M515.754667 163.498667c17.066667 0 34.133333 4.096 49.322666 11.605333l367.274667 184.32c4.266667 2.048 6.314667 5.461333 6.314667 10.24 0 4.778667-2.048 8.192-6.314667 10.24L565.077333 566.784c-15.36 7.850667-32.426667 11.946667-49.664 11.946667-17.066667 0-34.133333-4.096-49.493333-11.776L88.405333 376.149333a4.932267 4.932267 0 0 1-3.072-4.949333c0-3.413333 2.048-4.437333 3.072-4.949333l378.026667-191.146667c15.189333-7.509333 32.256-11.605333 49.322667-11.605333m0-51.2c-24.917333 0-49.664 5.802667-72.533334 17.237333L65.365333 320.682667c-41.642667 20.992-41.642667 80.384 0 101.376L442.88 612.693333a161.28 161.28 0 0 0 145.408-0.170666l367.274667-186.88c45.909333-23.381333 45.568-88.917333-0.341334-111.957334L588.117333 129.365333c-22.869333-11.434667-47.616-17.066667-72.362666-17.066666z"  /><path  d="M515.242667 776.021333c-27.648 0-55.296-6.314667-80.554667-19.114666L75.264 575.488a25.6512 25.6512 0 0 1 23.210667-45.738667l359.424 181.589334a127.965867 127.965867 0 0 0 115.2-0.170667l349.696-177.834667a25.6 25.6 0 0 1 34.474666 11.264 25.6 25.6 0 0 1-11.264 34.474667L596.309333 756.736a178.176 178.176 0 0 1-81.066666 19.285333z"  /><path  d="M515.242667 937.301333c-27.648 0-55.296-6.314667-80.554667-19.114666L75.264 736.597333a25.6512 25.6512 0 0 1 23.210667-45.738666l359.424 181.589333a127.965867 127.965867 0 0 0 115.2-0.170667l349.696-177.834666a25.6 25.6 0 0 1 34.474666 11.264 25.6 25.6 0 0 1-11.264 34.474666L596.309333 918.016a180.394667 180.394667 0 0 1-81.066666 19.285333z"  /></svg>