<?xml version="1.0" standalone="no"?><!DOCTYPE svg PUBLIC "-//W3C//DTD SVG 1.1//EN" "http://www.w3.org/Graphics/SVG/1.1/DTD/svg11.dtd"><svg class="icon" width="64px" height="64.00px" viewBox="0 0 1024 1024" version="1.1" xmlns="http://www.w3.org/2000/svg"><path  d="M536.064 676.010667c13.141333 0 23.893333-10.752 23.893333-23.893334 0-13.141333-10.752-23.893333-23.893333-23.893333-13.141333 0-23.893333 10.752-23.893333 23.893333 0 13.141333 10.752 23.893333 23.893333 23.893334zM797.696 676.010667c13.141333 0 23.893333-10.752 23.893333-23.893334 0-13.141333-10.752-23.893333-23.893333-23.893333s-23.893333 10.752-23.893333 23.893333c0 13.141333 10.752 23.893333 23.893333 23.893334z"  /><path  d="M792.917333 797.013333c-33.109333 0-61.098667-20.309333-69.12-47.786666h-113.834666c-8.021333 27.477333-36.010667 47.786667-69.12 47.786666s-61.098667-20.309333-69.12-47.786666c-32.938667-0.170667-59.562667-24.405333-59.562667-54.272v-88.746667c0-30.72 19.456-59.050667 50.176-73.216l23.210667-82.773333c7.850667-28.330667 36.352-48.298667 69.290666-48.298667h225.621334c33.28 0 61.781333 20.138667 69.461333 48.810667l22.016 82.261333c30.378667 14.165333 49.834667 42.496 49.834667 73.216v88.746667c0 29.696-26.624 54.101333-59.562667 54.272-8.192 27.477333-36.181333 47.786667-69.290667 47.786666z m-206.336-98.816h160.426667c14.165333 0 25.6 11.434667 25.6 25.6v9.557334c0 5.973333 8.704 12.629333 20.309333 12.629333s20.309333-6.656 20.309334-12.629333v-9.557334c0-14.165333 11.434667-25.6 25.6-25.6h22.869333c5.12 0 8.362667-2.389333 8.874667-3.413333v-88.234667c0-11.093333-8.704-22.016-22.186667-27.648l-7.850667-3.242666c-7.338667-3.072-12.8-9.386667-14.848-17.066667l-25.258666-94.208c-1.365333-5.290667-9.216-10.922667-19.968-10.922667H554.666667c-10.581333 0-18.432 5.461333-19.968 10.752l-26.453334 94.549334c-2.048 7.509333-7.509333 13.653333-14.848 16.725333l-7.850666 3.242667c-13.653333 5.632-22.186667 16.384-22.186667 27.648v88.746666c0.341333 0.512 3.584 3.072 8.704 3.072H494.933333c14.165333 0 25.6 11.434667 25.6 25.6v9.557334c0 5.973333 8.704 12.629333 20.309334 12.629333 11.605333 0 20.138667-6.656 20.138666-12.629333v-9.557334c0-14.165333 11.605333-25.6 25.6-25.6z"  /><path  d="M781.482667 606.037333H552.277333c-8.021333 0-15.530667-3.754667-20.309333-10.069333-4.778667-6.314667-6.485333-14.506667-4.437333-22.186667l18.944-70.997333c5.290667-19.968 24.746667-33.962667 47.104-33.962667h146.602666c22.357333 0 41.813333 13.994667 47.104 33.962667l18.944 70.997333c2.048 7.68 0.341333 15.872-4.437333 22.186667-4.949333 6.485333-12.458667 10.069333-20.309333 10.069333z m-195.925334-51.2h162.474667l-9.216-34.645333h-144.042667l-9.216 34.645333z"  /><path  d="M827.733333 989.866667h-631.466666A94.037333 94.037333 0 0 1 102.4 896v-768C102.4 76.288 144.554667 34.133333 196.266667 34.133333h502.613333c6.144 0 12.117333 2.218667 16.725333 6.314667l197.12 170.666667c5.632 4.949333 8.874667 11.946667 8.874667 19.285333v187.904c0 14.165333-11.434667 25.6-25.6 25.6s-25.6-11.434667-25.6-25.6V242.176L689.322667 85.333333H196.266667A42.666667 42.666667 0 0 0 153.6 128v768a42.666667 42.666667 0 0 0 42.666667 42.666667h631.466666a42.666667 42.666667 0 0 0 42.666667-42.666667v-86.869333c0-14.165333 11.434667-25.6 25.6-25.6s25.6 11.434667 25.6 25.6v86.869333c0 51.712-42.154667 93.866667-93.866667 93.866667z"  /><path  d="M391.68 350.549333c-6.485333 0-13.141333-2.56-18.090667-7.509333a25.429333 25.429333 0 0 1 0-36.181333l50.517334-50.517334-50.517334-50.517333c-10.069333-10.069333-10.069333-26.282667 0-36.181333s26.282667-10.069333 36.181334 0l68.608 68.608c10.069333 10.069333 10.069333 26.282667 0 36.181333l-68.608 68.608c-5.12 5.12-11.605333 7.509333-18.090667 7.509333z"  /><path  d="M460.288 281.941333H261.802667c-14.165333 0-25.6-11.434667-25.6-25.6s11.434667-25.6 25.6-25.6h198.485333c14.165333 0 25.6 11.434667 25.6 25.6s-11.434667 25.6-25.6 25.6z"  /><path  d="M896 256H698.88c-14.165333 0-25.6-11.434667-25.6-25.6V59.904c0-14.165333 11.434667-25.6 25.6-25.6s25.6 11.434667 25.6 25.6V204.8H896c14.165333 0 25.6 11.434667 25.6 25.6s-11.434667 25.6-25.6 25.6z"  /></svg>