<?xml version="1.0" standalone="no"?><!DOCTYPE svg PUBLIC "-//W3C//DTD SVG 1.1//EN" "http://www.w3.org/Graphics/SVG/1.1/DTD/svg11.dtd"><svg class="icon" width="64px" height="64.00px" viewBox="0 0 1024 1024" version="1.1" xmlns="http://www.w3.org/2000/svg"><path  d="M456.192 989.866667c-4.096 0-8.362667-1.024-12.117333-3.072l-179.882667-96.256-170.837333 96.085333c-8.021333 4.437333-17.578667 4.266667-25.429334-0.341333-7.850667-4.608-12.629333-12.970667-12.629333-22.016v-836.266667C55.125333 76.288 99.669333 34.133333 154.453333 34.133333h603.648c54.784 0 99.157333 42.154667 99.157334 93.866667v490.666667c0 14.165333-11.434667 25.6-25.6 25.6s-25.6-11.434667-25.6-25.6V128c0-23.552-21.504-42.666667-47.957334-42.666667H154.453333C128 85.333333 106.325333 104.448 106.325333 128v792.576l145.066667-81.408c7.68-4.266667 16.896-4.437333 24.576-0.170667l179.370667 96.085334 43.690666-25.941334a25.770667 25.770667 0 0 1 35.157334 8.874667c7.168 12.117333 3.242667 27.818667-8.874667 35.157333l-56.149333 33.450667c-3.754667 2.048-8.362667 3.242667-12.970667 3.242667z"  /><path  d="M667.818667 262.997333h-423.253334c-14.165333 0-25.6-11.434667-25.6-25.6s11.434667-25.6 25.6-25.6h423.253334c14.165333 0 25.6 11.434667 25.6 25.6s-11.434667 25.6-25.6 25.6zM667.818667 410.965333h-423.253334c-14.165333 0-25.6-11.434667-25.6-25.6s11.434667-25.6 25.6-25.6h423.253334c14.165333 0 25.6 11.434667 25.6 25.6s-11.434667 25.6-25.6 25.6z"  /><path  d="M583.168 866.986667c13.141333 0 23.893333-10.752 23.893333-23.893334s-10.752-23.893333-23.893333-23.893333-23.893333 10.752-23.893333 23.893333 10.752 23.893333 23.893333 23.893334zM844.8 866.986667c13.141333 0 23.893333-10.752 23.893333-23.893334s-10.581333-23.893333-23.893333-23.893333c-13.141333 0-23.893333 10.752-23.893333 23.893333s10.752 23.893333 23.893333 23.893334z"  /><path  d="M840.021333 987.989333c-33.109333 0-61.098667-20.309333-69.12-47.786666H657.066667c-8.021333 27.477333-36.010667 47.786667-69.12 47.786666s-61.098667-20.309333-69.12-47.786666c-32.938667-0.170667-59.562667-24.405333-59.562667-54.272v-88.746667c0-30.72 19.456-59.050667 50.176-73.216l23.210667-82.773333c7.850667-28.330667 36.352-48.298667 69.290666-48.298667h225.621334c33.28 0 61.781333 20.138667 69.461333 48.810667l22.016 82.261333c30.378667 14.165333 49.834667 42.496 49.834667 73.216v88.746667c0 29.866667-26.624 54.101333-59.562667 54.272-8.021333 27.477333-36.010667 47.786667-69.290667 47.786666z m-206.165333-98.986666h160.426667c14.165333 0 25.6 11.434667 25.6 25.6v9.557333c0 5.973333 8.704 12.629333 20.309333 12.629333s20.309333-6.656 20.309333-12.629333v-9.557333c0-14.165333 11.434667-25.6 25.6-25.6h22.869334c5.12 0 8.362667-2.389333 8.874666-3.584v-88.234667c0-11.093333-8.704-22.016-22.186666-27.648l-7.850667-3.242667c-7.338667-3.072-12.8-9.386667-14.848-17.066666l-25.258667-94.208c-1.365333-5.290667-9.216-10.922667-19.968-10.922667H601.770667c-10.581333 0-18.432 5.461333-19.968 10.752l-26.453334 94.549333c-2.048 7.509333-7.509333 13.653333-14.848 16.725334l-7.850666 3.242666c-13.482667 5.632-22.186667 16.384-22.186667 27.648v88.746667c0.341333 0.512 3.584 3.072 8.704 3.072h22.869333c14.165333 0 25.6 11.434667 25.6 25.6v9.557333c0 5.973333 8.704 12.629333 20.309334 12.629334 11.605333 0 20.138667-6.656 20.138666-12.629334v-9.557333c0.170667-13.824 11.605333-25.429333 25.770667-25.429333z"  /><path  d="M828.586667 797.013333H599.552c-8.021333 0-15.530667-3.754667-20.309333-10.069333s-6.485333-14.506667-4.437334-22.186667l18.944-70.997333c5.290667-19.968 24.746667-33.962667 47.104-33.962667h146.602667c22.357333 0 41.813333 13.994667 47.104 33.962667l18.773333 71.168c2.048 7.68 0.341333 15.872-4.437333 22.186667s-12.288 9.898667-20.309333 9.898666z m-195.754667-51.2h162.474667l-9.216-34.645333h-144.042667l-9.216 34.645333z"  /></svg>