<?xml version="1.0" standalone="no"?><!DOCTYPE svg PUBLIC "-//W3C//DTD SVG 1.1//EN" "http://www.w3.org/Graphics/SVG/1.1/DTD/svg11.dtd"><svg class="icon" width="64px" height="64.00px" viewBox="0 0 1024 1024" version="1.1" xmlns="http://www.w3.org/2000/svg"><path  d="M896 989.866667h-768a95.573333 95.573333 0 0 1-36.522667-7.338667c-11.264-4.778667-21.333333-11.605333-29.866666-20.138667-8.704-8.533333-15.36-18.602667-20.138667-29.866666A95.573333 95.573333 0 0 1 34.133333 896v-768c0-12.629333 2.56-24.917333 7.338667-36.522667a94.088533 94.088533 0 0 1 50.005333-50.005333A95.573333 95.573333 0 0 1 128 34.133333h768c12.629333 0 24.917333 2.56 36.522667 7.338667 11.264 4.778667 21.333333 11.605333 29.866666 20.138667 8.704 8.533333 15.36 18.602667 20.138667 29.866666 4.778667 11.605333 7.338667 23.893333 7.338667 36.522667v192c0 14.165333-11.434667 25.6-25.6 25.6s-25.6-11.434667-25.6-25.6V128c0-5.802667-1.194667-11.434667-3.413334-16.554667a43.810133 43.810133 0 0 0-22.869333-22.698666c-4.949333-2.218667-10.581333-3.413333-16.384-3.413334h-768c-5.802667 0-11.434667 1.194667-16.554667 3.413334-5.12 2.048-9.728 5.12-13.653333 9.045333-3.925333 3.925333-6.997333 8.533333-9.045333 13.653333-2.218667 5.12-3.413333 10.752-3.413334 16.554667v768c0 5.802667 1.194667 11.434667 3.413334 16.554667a43.810133 43.810133 0 0 0 22.869333 22.698666c4.949333 2.218667 10.581333 3.413333 16.384 3.413334h768c5.802667 0 11.434667-1.194667 16.554667-3.413334 5.12-2.218667 9.728-5.290667 13.482666-9.216 3.925333-3.925333 6.997333-8.533333 9.216-13.482666 2.218667-5.290667 3.413333-10.922667 3.413334-16.554667V704c0-14.165333 11.434667-25.6 25.6-25.6s25.6 11.434667 25.6 25.6V896a95.573333 95.573333 0 0 1-7.338667 36.522667 94.088533 94.088533 0 0 1-50.005333 50.005333 95.573333 95.573333 0 0 1-36.522667 7.338667z"  /><path  d="M350.72 456.362667c-6.485333 0-13.141333-2.56-18.090667-7.509334l-126.634666-126.634666c-10.069333-10.069333-10.069333-26.282667 0-36.181334s26.282667-10.069333 36.181333 0l126.634667 126.634667c10.069333 10.069333 10.069333 26.282667 0 36.181333-4.949333 5.12-11.605333 7.509333-18.090667 7.509334z"  /><path  d="M350.72 456.362667c-6.485333 0-13.141333-2.56-18.090667-7.509334a25.429333 25.429333 0 0 1 0-36.181333l126.634667-126.634667c10.069333-10.069333 26.282667-10.069333 36.181333 0s10.069333 26.282667 0 36.181334l-126.634666 126.634666c-4.949333 5.12-11.605333 7.509333-18.090667 7.509334z"  /><path  d="M350.72 745.472c-14.165333 0-25.6-11.434667-25.6-25.6V430.762667c0-14.165333 11.434667-25.6 25.6-25.6s25.6 11.434667 25.6 25.6v288.938666c0 14.165333-11.434667 25.770667-25.6 25.770667z"  /><path  d="M481.792 480.768H219.648c-14.165333 0-25.6-11.434667-25.6-25.6s11.434667-25.6 25.6-25.6h261.973333c14.165333 0 25.6 11.434667 25.6 25.6s-11.434667 25.6-25.429333 25.6zM481.792 610.986667H219.648c-14.165333 0-25.6-11.434667-25.6-25.6s11.434667-25.6 25.6-25.6h261.973333c14.165333 0 25.6 11.434667 25.6 25.6s-11.434667 25.6-25.429333 25.6zM795.989333 702.293333c-5.290667 0-10.752-1.024-15.872-3.072a42.222933 42.222933 0 0 1-26.794666-39.594666v-55.125334h-142.677334a42.666667 42.666667 0 0 1-42.666666-42.666666v-110.08a42.666667 42.666667 0 0 1 42.666666-42.666667h142.677334v-55.125333c0-17.578667 10.581333-33.109333 26.794666-39.594667a42.666667 42.666667 0 0 1 46.762667 10.24l144.896 152.917333c15.530667 16.384 15.530667 42.154667 0 58.709334l-144.896 152.917333c-8.192 8.533333-19.456 13.141333-30.890667 13.141333z m12.288-30.890666z m-18.432-17.578667z m-170.837333-100.522667h142.677333a42.666667 42.666667 0 0 1 42.666667 42.666667v42.325333l124.586667-131.413333-124.586667-131.413333v42.325333a42.666667 42.666667 0 0 1-42.666667 42.666667h-142.677333v92.842666z"  /></svg>