<?xml version="1.0" standalone="no"?><!DOCTYPE svg PUBLIC "-//W3C//DTD SVG 1.1//EN" "http://www.w3.org/Graphics/SVG/1.1/DTD/svg11.dtd"><svg class="icon" width="64px" height="64.00px" viewBox="0 0 1024 1024" version="1.1" xmlns="http://www.w3.org/2000/svg"><path  d="M512 988.16c-262.826667 0-477.866667-215.04-477.866667-477.866667C34.133333 413.013333 63.146667 319.146667 119.466667 238.933333c8.533333-11.946667 23.893333-13.653333 35.84-6.826666 10.24 6.826667 13.653333 23.893333 5.12 34.133333C110.933333 337.92 85.333333 423.253333 85.333333 510.293333c0 235.52 191.146667 426.666667 426.666667 426.666667s426.666667-191.146667 426.666667-426.666667c0-87.04-25.6-170.666667-75.093334-242.346666-8.533333-11.946667-5.12-27.306667 6.826667-35.84s27.306667-5.12 35.84 6.826666c56.32 80.213333 85.333333 174.08 85.333333 271.36-1.706667 262.826667-216.746667 477.866667-479.573333 477.866667z"  /><path  d="M597.333333 643.413333h-157.013333c-13.653333 0-25.6-11.946667-25.6-25.6V354.986667H233.813333c-10.24 0-20.48-6.826667-23.893333-15.36-3.413333-10.24-1.706667-20.48 6.826667-27.306667L494.933333 42.666667c8.533333-8.533333 25.6-8.533333 34.133334 0l278.186666 266.24c6.826667 6.826667 10.24 18.773333 6.826667 27.306666-3.413333 10.24-13.653333 15.36-23.893333 15.36h-167.253334v264.533334c0 17.066667-11.946667 27.306667-25.6 27.306666z m-131.413333-51.2h105.813333V329.386667c0-13.653333 11.946667-25.6 25.6-25.6h129.706667L512 97.28 296.96 303.786667h141.653333c13.653333 0 25.6 11.946667 25.6 25.6v262.826666z"  /></svg>