<?xml version="1.0" standalone="no"?><!DOCTYPE svg PUBLIC "-//W3C//DTD SVG 1.1//EN" "http://www.w3.org/Graphics/SVG/1.1/DTD/svg11.dtd"><svg class="icon" width="64px" height="64.00px" viewBox="0 0 1024 1024" version="1.1" xmlns="http://www.w3.org/2000/svg"><path  d="M443.733333 989.866667H196.266667c-39.253333 0-71.68-32.426667-71.68-69.973334V105.813333C124.586667 66.56 157.013333 34.133333 196.266667 34.133333h633.173333c39.253333 0 71.68 32.426667 71.68 69.973334V580.266667c0 13.653333-11.946667 25.6-25.6 25.6s-25.6-11.946667-25.6-25.6V105.813333c0-10.24-8.533333-18.773333-20.48-18.773333H196.266667c-10.24 0-20.48 8.533333-20.48 18.773333v814.08c0 10.24 8.533333 18.773333 20.48 18.773334H443.733333c13.653333 0 25.6 11.946667 25.6 25.6S459.093333 989.866667 443.733333 989.866667z"  /><path  d="M670.72 266.24H353.28c-13.653333 0-25.6-11.946667-25.6-25.6s11.946667-25.6 25.6-25.6h315.733333c13.653333 0 25.6 11.946667 25.6 25.6s-10.24 25.6-23.893333 25.6zM670.72 447.146667H353.28c-13.653333 0-25.6-11.946667-25.6-25.6s11.946667-25.6 25.6-25.6h315.733333c13.653333 0 25.6 11.946667 25.6 25.6s-10.24 25.6-23.893333 25.6zM489.813333 628.053333h-134.826666c-13.653333 0-25.6-11.946667-25.6-25.6s11.946667-25.6 25.6-25.6h134.826666c13.653333 0 25.6 11.946667 25.6 25.6s-11.946667 25.6-25.6 25.6z"  /><path  d="M851.626667 989.866667c-6.826667 0-13.653333-1.706667-18.773334-6.826667L771.413333 921.6c-22.186667 15.36-49.493333 23.893333-78.506666 23.893333-76.8 0-138.24-61.44-138.24-138.24s61.44-138.24 138.24-138.24 138.24 61.44 138.24 138.24c0 29.013333-8.533333 54.613333-23.893334 78.506667l61.44 61.44c10.24 10.24 10.24 25.6 0 35.84-5.12 5.12-10.24 6.826667-17.066666 6.826667z m-158.72-271.36c-47.786667 0-87.04 39.253333-87.04 87.04s39.253333 87.04 87.04 87.04c23.893333 0 46.08-8.533333 61.44-25.6 17.066667-17.066667 25.6-39.253333 25.6-61.44 0-47.786667-39.253333-87.04-87.04-87.04z"  /></svg>