<?xml version="1.0" standalone="no"?><!DOCTYPE svg PUBLIC "-//W3C//DTD SVG 1.1//EN" "http://www.w3.org/Graphics/SVG/1.1/DTD/svg11.dtd"><svg class="icon" width="64px" height="64.00px" viewBox="0 0 1024 1024" version="1.1" xmlns="http://www.w3.org/2000/svg"><path  d="M896 989.866667h-768A94.037333 94.037333 0 0 1 34.133333 896v-768C34.133333 76.288 76.288 34.133333 128 34.133333h768C947.712 34.133333 989.866667 76.288 989.866667 128v768c0 51.712-42.154667 93.866667-93.866667 93.866667zM128 85.333333A42.666667 42.666667 0 0 0 85.333333 128v768A42.666667 42.666667 0 0 0 128 938.666667h768a42.666667 42.666667 0 0 0 42.666667-42.666667v-768A42.666667 42.666667 0 0 0 896 85.333333h-768z"  /><path  d="M660.992 431.445333H358.4c-9.898667 0-19.626667-2.389333-28.501333-6.826666l-77.824-39.424c-7.850667-3.925333-13.141333-11.776-13.994667-20.650667s3.072-17.408 10.069333-22.698667l64.512-48.469333a63.829333 63.829333 0 0 1 37.717334-12.629333h409.770666c10.410667 0 19.626667 6.314667 23.722667 15.872 3.925333 9.557333 1.706667 20.650667-5.632 27.818666l-99.328 99.328c-4.608 4.949333-11.093333 7.68-17.92 7.68z m-349.013333-73.386666l41.130666 20.821333c1.706667 0.853333 3.413333 1.194667 5.290667 1.194667h292.010667l48.128-48.128H350.549333c-2.56 0-4.949333 0.853333-6.997333 2.389333l-31.573333 23.722667z"  /><path  d="M673.450667 332.117333H487.082667c-12.117333 0-22.528-8.533333-25.088-20.309333-2.56-11.776 3.584-23.722667 14.677333-28.672l107.349333-47.786667 71.168-71.168c4.778667-4.778667 11.264-7.509333 18.090667-7.509333h37.205333a25.463467 25.463467 0 0 1 24.405334 32.938667l-37.205334 124.245333c-3.072 10.752-12.970667 18.261333-24.234666 18.261333z m-65.706667-51.2h46.592l18.602667-61.952-55.978667 55.978667c-2.218667 2.218667-4.778667 4.096-7.68 5.290667l-1.536 0.682666z m-8.874667-24.064zM622.762667 564.394667c-4.608 0-9.216-1.194667-13.141334-3.584l-208.213333-125.269334a25.5488 25.5488 0 0 1 13.141333-47.445333l131.754667-0.512h0.170667c5.632 0 11.093333 1.877333 15.530666 5.290667l56.32 43.178666 31.573334 14.848c11.093333 5.12 16.896 17.578667 13.994666 29.354667l-16.384 64.853333c-2.048 7.850667-7.509333 14.336-15.018666 17.408-3.072 1.194667-6.485333 1.877333-9.728 1.877334z m-116.565334-125.610667l100.181334 60.245333 2.730666-10.922666-15.018666-6.997334c-1.706667-0.853333-3.242667-1.706667-4.778667-2.901333L537.6 438.613333l-31.402667 0.170667zM699.562667 696.661333H324.437333c-14.165333 0-25.6-11.434667-25.6-25.6s11.434667-25.6 25.6-25.6h375.125334c14.165333 0 25.6 11.434667 25.6 25.6s-11.434667 25.6-25.6 25.6zM576.682667 816.298667H324.437333c-14.165333 0-25.6-11.434667-25.6-25.6s11.434667-25.6 25.6-25.6h252.245334c14.165333 0 25.6 11.434667 25.6 25.6s-11.434667 25.6-25.6 25.6z"  /></svg>