<?xml version="1.0" standalone="no"?><!DOCTYPE svg PUBLIC "-//W3C//DTD SVG 1.1//EN" "http://www.w3.org/Graphics/SVG/1.1/DTD/svg11.dtd"><svg class="icon" width="64px" height="64.00px" viewBox="0 0 1024 1024" version="1.1" xmlns="http://www.w3.org/2000/svg"><path  d="M528.213333 989.866667h-341.333333a95.914667 95.914667 0 0 1-95.744-95.744V129.877333A95.914667 95.914667 0 0 1 186.88 34.133333h648.704a95.914667 95.914667 0 0 1 95.744 95.744v277.674667c0 14.165333-11.434667 25.6-25.6 25.6s-25.6-11.434667-25.6-25.6V129.877333C880.128 105.301333 860.16 85.333333 835.584 85.333333H186.88C162.304 85.333333 142.336 105.301333 142.336 129.877333v764.245334c0 24.576 19.968 44.544 44.544 44.544h341.333333c14.165333 0 25.6 11.434667 25.6 25.6s-11.434667 25.6-25.6 25.6z"  /><path  d="M730.282667 325.290667H292.010667c-14.165333 0-25.6-11.434667-25.6-25.6s11.434667-25.6 25.6-25.6h375.466666l-35.328-34.474667a25.770667 25.770667 0 0 1-0.512-36.181333c9.898667-10.069333 26.112-10.24 36.181334-0.512l80.384 78.506666c7.509333 7.338667 9.728 18.261333 5.802666 27.989334-3.925333 9.557333-13.312 15.872-23.722666 15.872zM372.394667 551.424c-6.485333 0-12.970667-2.389333-17.92-7.338667l-80.384-78.506666c-7.509333-7.338667-9.728-18.261333-5.802667-27.989334 3.925333-9.728 13.312-15.872 23.722667-15.872h438.272c14.165333 0 25.6 11.434667 25.6 25.6s-11.434667 25.6-25.6 25.6h-375.466667l35.328 34.474667c10.069333 9.898667 10.24 26.112 0.512 36.181333-4.949333 5.290667-11.605333 7.850667-18.261333 7.850667z"  /><path  d="M629.589333 979.968c-4.949333 0-9.898667-1.365333-14.165333-4.266667-7.338667-4.949333-11.776-13.312-11.434667-22.186666l4.608-131.584c0.170667-4.778667 1.706667-9.216 4.266667-13.312L830.976 479.573333a25.6 25.6 0 0 1 35.498667-7.168l114.688 75.946667a25.6512 25.6512 0 0 1 7.168 35.498667L770.218667 913.066667c-2.56 3.925333-6.314667 7.168-10.581334 9.045333l-119.296 55.466667c-3.413333 1.706667-7.168 2.389333-10.752 2.389333z m29.866667-148.992l-2.901333 82.602667 74.922666-34.816L931.498667 576.853333 859.477333 529.066667 659.456 830.976z m89.429333 67.925333z"  /></svg>