<?xml version="1.0" standalone="no"?><!DOCTYPE svg PUBLIC "-//W3C//DTD SVG 1.1//EN" "http://www.w3.org/Graphics/SVG/1.1/DTD/svg11.dtd"><svg class="icon" width="64px" height="64.00px" viewBox="0 0 1024 1024" version="1.1" xmlns="http://www.w3.org/2000/svg"><path  d="M896 938.666667h-768A94.037333 94.037333 0 0 1 34.133333 844.8V239.104c0-51.712 42.154667-93.866667 93.866667-93.866667h768c51.712 0 93.866667 42.154667 93.866667 93.866667V844.8c0 51.712-42.154667 93.866667-93.866667 93.866667z m-768-742.229334a42.666667 42.666667 0 0 0-42.666667 42.666667V844.8A42.666667 42.666667 0 0 0 128 887.466667h768a42.666667 42.666667 0 0 0 42.666667-42.666667V239.104a42.666667 42.666667 0 0 0-42.666667-42.666667h-768z"  /><path  d="M397.141333 772.437333c-14.165333 0-28.16-5.973333-37.888-16.384l-116.224-121.344c-10.069333-10.581333-15.36-25.088-14.506666-39.765333a52.906667 52.906667 0 0 1 19.456-37.546667l34.645333-27.989333c10.24-8.362667 23.210667-12.458667 36.181333-11.605333l-22.186666-23.552a52.906667 52.906667 0 0 1-13.994667-41.642667c1.536-15.018667 9.728-28.842667 22.357333-37.546667l37.034667-25.770666c14.506667-10.069333 32.938667-12.288 49.493333-5.632l172.373334 68.266666c26.965333-16.213333 69.802667-41.813333 77.824-46.250666 40.618667-23.552 92.16-16.554667 125.098666 17.066666 19.626667 18.773333 30.208 46.08 28.501334 74.24a90.965333 90.965333 0 0 1-33.109334 65.194667c-15.189333 11.434667-241.493333 145.749333-338.261333 203.093333-8.021333 4.608-17.237333 7.168-26.794667 7.168z m11.605334-63.317333z m-104.618667-109.397333l95.914667 100.181333c123.392-73.045333 301.056-178.858667 319.658666-191.317333 4.437333-4.096 7.168-9.728 7.509334-15.872 0.512-8.192-2.56-16.042667-8.362667-21.674667-11.946667-12.117333-29.354667-14.506667-43.178667-6.485333-9.386667 5.290667-64.853333 38.570667-88.405333 52.736l-2.901333 1.706666c-9.045333 5.461333-20.309333 6.314667-30.037334 2.389334l-180.224-71.338667-15.189333 10.752 77.824 82.944c6.997333 7.509333 10.410667 17.749333 8.874667 27.989333-1.365333 10.24-7.338667 19.285333-16.213334 24.576l-14.848 9.045334c-8.362667 4.949333-18.432 6.314667-27.648 3.413333l-67.925333-20.821333-14.848 11.776z m-11.776-12.288z m18.773333-2.048z m14.506667-2.901334z m18.602667-111.445333c-0.170667 0-0.170667 0 0 0z m22.186666-24.064z m14.848-1.706667c-0.170667 0 0 0 0 0zM275.626667 263.168c-14.165333 0-25.6-11.434667-25.6-25.6V102.570667c0-14.165333 11.434667-25.6 25.6-25.6s25.6 11.434667 25.6 25.6v134.997333c0 14.165333-11.434667 25.6-25.6 25.6zM748.373333 263.168c-14.165333 0-25.6-11.434667-25.6-25.6V102.570667c0-14.165333 11.434667-25.6 25.6-25.6s25.6 11.434667 25.6 25.6v134.997333c0 14.165333-11.434667 25.6-25.6 25.6z"  /></svg>