<?xml version="1.0" standalone="no"?><!DOCTYPE svg PUBLIC "-//W3C//DTD SVG 1.1//EN" "http://www.w3.org/Graphics/SVG/1.1/DTD/svg11.dtd"><svg class="icon" width="64px" height="64.00px" viewBox="0 0 1024 1024" version="1.1" xmlns="http://www.w3.org/2000/svg"><path  d="M964.266667 512c-6.826667 0-13.653333-1.706667-18.773334-6.826667L551.253333 109.226667c-22.186667-22.186667-56.32-22.186667-78.506666 0L78.506667 503.466667c-10.24 10.24-25.6 10.24-35.84 0s-10.24-25.6 0-35.84L436.906667 73.386667c40.96-40.96 109.226667-40.96 150.186666 0l395.946667 395.946666c10.24 10.24 10.24 25.6 0 35.84-5.12 3.413333-11.946667 6.826667-18.773333 6.826667z"  /><path  d="M157.013333 983.04c-13.653333 0-25.6-11.946667-25.6-25.6V389.12c0-13.653333 11.946667-25.6 25.6-25.6s25.6 11.946667 25.6 25.6v568.32c0 13.653333-11.946667 25.6-25.6 25.6zM406.186667 677.546667h-131.413334c-13.653333 0-25.6-11.946667-25.6-25.6v-131.413334c0-13.653333 11.946667-25.6 25.6-25.6h131.413334c13.653333 0 25.6 11.946667 25.6 25.6v131.413334c0 13.653333-11.946667 25.6-25.6 25.6z m-105.813334-51.2h80.213334V546.133333h-80.213334v80.213334zM657.066667 677.546667h-131.413334c-13.653333 0-25.6-11.946667-25.6-25.6v-131.413334c0-13.653333 11.946667-25.6 25.6-25.6h131.413334c13.653333 0 25.6 11.946667 25.6 25.6v131.413334c0 13.653333-11.946667 25.6-25.6 25.6z m-105.813334-51.2H631.466667V546.133333h-80.213334v80.213334zM406.186667 919.893333h-131.413334c-13.653333 0-25.6-11.946667-25.6-25.6v-131.413333c0-13.653333 11.946667-25.6 25.6-25.6h131.413334c13.653333 0 25.6 11.946667 25.6 25.6v131.413333c0 13.653333-11.946667 25.6-25.6 25.6z m-105.813334-51.2h80.213334v-80.213333h-80.213334v80.213333zM657.066667 919.893333h-131.413334c-13.653333 0-25.6-11.946667-25.6-25.6v-131.413333c0-13.653333 11.946667-25.6 25.6-25.6h131.413334c13.653333 0 25.6 11.946667 25.6 25.6v131.413333c0 13.653333-11.946667 25.6-25.6 25.6z m-105.813334-51.2H631.466667v-80.213333h-80.213334v80.213333z"  /><path  d="M814.08 887.466667c-6.826667 0-11.946667-1.706667-17.066667-6.826667-10.24-10.24-10.24-25.6 0-35.84l78.506667-81.92-78.506667-81.92c-10.24-10.24-10.24-25.6 0-35.84 10.24-10.24 25.6-10.24 35.84 0l95.573334 100.693333c10.24 10.24 10.24 25.6 0 35.84l-95.573334 100.693334c-5.12 3.413333-11.946667 5.12-18.773333 5.12z"  /></svg>