<?xml version="1.0" standalone="no"?><!DOCTYPE svg PUBLIC "-//W3C//DTD SVG 1.1//EN" "http://www.w3.org/Graphics/SVG/1.1/DTD/svg11.dtd"><svg class="icon" width="64px" height="64.00px" viewBox="0 0 1024 1024" version="1.1" xmlns="http://www.w3.org/2000/svg"><path  d="M827.733333 996.693333h-631.466666A94.037333 94.037333 0 0 1 102.4 902.826667V121.173333c0-51.712 42.154667-93.866667 93.866667-93.866666h631.466666c51.712 0 93.866667 42.154667 93.866667 93.866666v781.653334c0 51.712-42.154667 93.866667-93.866667 93.866666z m-631.466666-918.186666A42.666667 42.666667 0 0 0 153.6 121.173333v781.653334a42.666667 42.666667 0 0 0 42.666667 42.666666h631.466666a42.666667 42.666667 0 0 0 42.666667-42.666666V121.173333a42.666667 42.666667 0 0 0-42.666667-42.666666h-631.466666z"  /><path  d="M512 369.322667c-58.368 0-105.984-47.445333-105.984-105.984s47.616-105.813333 105.984-105.813334 105.984 47.445333 105.984 105.984-47.616 105.813333-105.984 105.813334z m0-160.597334c-30.208 0-54.784 24.576-54.784 54.784s24.576 54.784 54.784 54.784 54.784-24.576 54.784-54.784-24.576-54.784-54.784-54.784z"  /><path  d="M660.992 550.058667H363.008c-16.384 0-31.744-7.168-42.154667-19.968-10.24-12.458667-14.506667-28.501333-11.434666-44.202667 18.432-97.28 103.594667-167.765333 202.752-167.765333s184.32 70.485333 202.752 167.765333c2.901333 15.701333-1.194667 31.914667-11.434667 44.202667-10.752 12.629333-26.112 19.968-42.496 19.968zM512 369.322667c-74.410667 0-138.581333 53.077333-152.405333 126.122666 0 0.341333-0.170667 1.024 0.682666 2.048 0.341333 0.512 1.365333 1.365333 2.730667 1.365334h297.984c1.536 0 2.389333-0.853333 2.730667-1.365334 0.853333-1.024 0.682667-1.877333 0.682666-2.048-13.824-73.216-77.994667-126.122667-152.405333-126.122666z"  /><path  d="M659.285333 724.821333H364.714667c-14.165333 0-25.6-11.434667-25.6-25.6s11.434667-25.6 25.6-25.6h231.765333l-9.045333-8.874666a25.770667 25.770667 0 0 1-0.512-36.181334c9.898667-10.069333 26.112-10.24 36.181333-0.512l53.930667 52.736c7.509333 7.338667 9.728 18.261333 5.802666 27.989334-3.754667 9.728-13.141333 16.042667-23.552 16.042666zM418.645333 876.885333c-6.485333 0-12.970667-2.389333-17.92-7.338666l-53.930666-52.736c-7.509333-7.338667-9.728-18.261333-5.802667-27.989334 3.925333-9.728 13.312-15.872 23.722667-15.872h294.570666c14.165333 0 25.6 11.434667 25.6 25.6s-11.434667 25.6-25.6 25.6H427.52l9.045333 8.874667c10.069333 9.898667 10.24 26.112 0.512 36.181333-5.12 5.12-11.776 7.68-18.432 7.68z"  /></svg>