<?xml version="1.0" standalone="no"?><!DOCTYPE svg PUBLIC "-//W3C//DTD SVG 1.1//EN" "http://www.w3.org/Graphics/SVG/1.1/DTD/svg11.dtd"><svg class="icon" width="64px" height="64.00px" viewBox="0 0 1024 1024" version="1.1" xmlns="http://www.w3.org/2000/svg"><path  d="M595.797333 898.56c-77.994667 0-140.8-21.162667-196.266666-39.936-43.178667-14.506667-80.384-27.136-116.394667-27.136H59.733333c-14.165333 0-25.6-11.434667-25.6-25.6v-267.946667c0-6.826667 2.730667-13.312 7.509334-18.090666 57.685333-57.685333 151.381333-119.125333 241.493333-119.125334 92.501333 0 315.050667 90.282667 355.498667 144.213334 10.069333 13.482667 13.994667 29.525333 10.922666 46.592-2.218667 13.312-8.533333 26.282667-16.896 38.229333 104.106667-20.138667 265.728-50.517333 298.154667-50.517333 26.453333 0 46.592 11.776 54.954667 32.256 11.776 28.330667-2.048 66.048-36.864 100.864-7.68 7.68-188.245333 186.197333-353.109334 186.197333zM85.333333 780.288h197.802667c44.373333 0 87.210667 14.506667 132.778667 29.866667 54.272 18.261333 110.421333 37.205333 180.053333 37.205333 115.2 0 257.706667-111.957333 316.928-171.178667 23.210667-23.210667 27.136-40.618667 25.941333-44.885333-0.341333 0.341333-2.56-0.853333-7.850666-0.853333-30.890667 0-240.469333 39.594667-374.101334 66.389333a24.285867 24.285867 0 0 1-13.653333-0.682667l-133.973333-44.714666a25.6 25.6 0 0 1-16.213334-32.426667 25.6 25.6 0 0 1 32.426667-16.213333l121.685333 40.618666c22.528-17.066667 49.322667-43.008 52.224-60.757333 0.682667-3.584 0-5.290667-1.536-7.168-26.282667-34.986667-228.864-123.733333-314.538666-123.733333-70.826667 0-148.821333 50.688-197.802667 96.938666v231.594667zM737.109333 275.626667c-6.485333 0-13.141333-2.56-18.090666-7.509334l-98.986667-98.986666c-10.069333-10.069333-10.069333-26.282667 0-36.181334s26.282667-10.069333 36.181333 0l98.986667 98.986667c10.069333 10.069333 10.069333 26.282667 0 36.181333-4.949333 4.949333-11.605333 7.509333-18.090667 7.509334z"  /><path  d="M737.109333 275.626667c-6.485333 0-13.141333-2.56-18.090666-7.509334a25.429333 25.429333 0 0 1 0-36.181333l98.986666-98.986667c10.069333-10.069333 26.282667-10.069333 36.181334 0s10.069333 26.282667 0 36.181334l-98.986667 98.986666c-4.949333 4.949333-11.605333 7.509333-18.090667 7.509334z"  /><path  d="M737.109333 501.589333c-14.165333 0-25.6-11.434667-25.6-25.6V250.026667c0-14.165333 11.434667-25.6 25.6-25.6s25.6 11.434667 25.6 25.6v225.962666c0 14.165333-11.434667 25.6-25.6 25.6z"  /><path  d="M839.509333 294.741333h-204.8c-14.165333 0-25.6-11.434667-25.6-25.6s11.434667-25.6 25.6-25.6h204.8c14.165333 0 25.6 11.434667 25.6 25.6s-11.434667 25.6-25.6 25.6zM839.509333 396.629333h-204.8c-14.165333 0-25.6-11.434667-25.6-25.6s11.434667-25.6 25.6-25.6h204.8c14.165333 0 25.6 11.434667 25.6 25.6s-11.434667 25.6-25.6 25.6zM305.322667 665.429333h-148.48c-14.165333 0-25.6-11.434667-25.6-25.6s11.434667-25.6 25.6-25.6h148.48c14.165333 0 25.6 11.434667 25.6 25.6s-11.434667 25.6-25.6 25.6z"  /><path  d="M305.322667 665.429333c-6.485333 0-13.141333-2.56-18.090667-7.509333l-62.122667-62.122667c-10.069333-10.069333-10.069333-26.282667 0-36.181333s26.282667-10.069333 36.181334 0l62.122666 62.122667c10.069333 10.069333 10.069333 26.282667 0 36.181333-4.949333 4.949333-11.605333 7.509333-18.090666 7.509333z"  /><path  d="M243.2 727.381333c-6.485333 0-13.141333-2.56-18.090667-7.509333a25.429333 25.429333 0 0 1 0-36.181333l62.122667-62.122667c10.069333-10.069333 26.282667-10.069333 36.181333 0s10.069333 26.282667 0 36.181333l-62.122666 62.122667c-4.949333 5.12-11.434667 7.509333-18.090667 7.509333z"  /></svg>