<?xml version="1.0" standalone="no"?><!DOCTYPE svg PUBLIC "-//W3C//DTD SVG 1.1//EN" "http://www.w3.org/Graphics/SVG/1.1/DTD/svg11.dtd"><svg class="icon" width="64px" height="64.00px" viewBox="0 0 1024 1024" version="1.1" xmlns="http://www.w3.org/2000/svg"><path  d="M827.733333 989.866667h-631.466666c-39.253333 0-71.68-32.426667-71.68-71.68V104.106667C124.586667 66.56 157.013333 34.133333 196.266667 34.133333h633.173333c39.253333 0 71.68 32.426667 71.68 69.973334v814.08c-1.706667 39.253333-34.133333 71.68-73.386667 71.68z m-631.466666-904.533334c-10.24 0-20.48 8.533333-20.48 18.773334v814.08c0 10.24 8.533333 20.48 20.48 20.48h633.173333c10.24 0 20.48-8.533333 20.48-20.48V104.106667c0-10.24-8.533333-18.773333-20.48-18.773334H196.266667z"  /><path  d="M648.533333 515.413333c-6.826667 0-13.653333-1.706667-18.773333-6.826666l-61.44-61.44c-22.186667 15.36-49.493333 23.893333-78.506667 23.893333-76.8 0-138.24-61.44-138.24-138.24s61.44-138.24 138.24-138.24 138.24 61.44 138.24 138.24c0 29.013333-8.533333 54.613333-23.893333 78.506667l61.44 61.44c10.24 10.24 10.24 25.6 0 35.84-5.12 3.413333-11.946667 6.826667-17.066667 6.826666z m-158.72-271.36c-47.786667 0-87.04 39.253333-87.04 87.04s39.253333 87.04 87.04 87.04c23.893333 0 46.08-8.533333 61.44-25.6 17.066667-17.066667 25.6-39.253333 25.6-61.44 0-47.786667-39.253333-87.04-87.04-87.04zM670.72 674.133333H353.28c-13.653333 0-25.6-11.946667-25.6-25.6s11.946667-25.6 25.6-25.6h315.733333c13.653333 0 25.6 11.946667 25.6 25.6s-10.24 25.6-23.893333 25.6zM512 808.96h-158.72c-13.653333 0-25.6-11.946667-25.6-25.6s11.946667-25.6 25.6-25.6H512c13.653333 0 25.6 11.946667 25.6 25.6s-11.946667 25.6-25.6 25.6z"  /></svg>