<?xml version="1.0" standalone="no"?><!DOCTYPE svg PUBLIC "-//W3C//DTD SVG 1.1//EN" "http://www.w3.org/Graphics/SVG/1.1/DTD/svg11.dtd"><svg class="icon" width="64px" height="64.00px" viewBox="0 0 1024 1024" version="1.1" xmlns="http://www.w3.org/2000/svg"><path  d="M896 989.866667h-768A94.037333 94.037333 0 0 1 34.133333 896v-768C34.133333 76.288 76.288 34.133333 128 34.133333h768C947.712 34.133333 989.866667 76.288 989.866667 128v768c0 51.712-42.154667 93.866667-93.866667 93.866667zM128 85.333333A42.666667 42.666667 0 0 0 85.333333 128v768A42.666667 42.666667 0 0 0 128 938.666667h768a42.666667 42.666667 0 0 0 42.666667-42.666667v-768A42.666667 42.666667 0 0 0 896 85.333333h-768z"  /><path  d="M390.656 666.794667c-14.506667 0-28.672-6.144-38.741333-16.725334l-122.709334-128.170666c-10.410667-10.752-15.701333-25.6-14.848-40.448 1.024-15.018667 8.192-28.842667 19.968-38.229334l36.522667-29.525333c11.776-9.557333 27.136-13.653333 41.984-11.264l-26.965333-28.672c-10.752-11.434667-15.872-26.965333-14.165334-42.496 1.536-15.36 9.898667-29.354667 22.698667-38.229333l39.082667-27.136c14.848-10.410667 33.621333-12.458667 50.517333-5.802667l182.784 72.362667c28.501333-17.066667 74.410667-44.544 82.944-49.322667a107.076267 107.076267 0 0 1 129.877333 17.578667c20.309333 19.456 31.402667 47.786667 29.696 76.970666a95.163733 95.163733 0 0 1-34.304 67.584c-15.872 11.946667-254.805333 153.770667-356.864 214.186667-8.362667 4.778667-17.749333 7.338667-27.477333 7.338667 0.170667 0 0 0 0 0z m10.752-63.829334s0.170667 0.170667 0 0c0.170667 0.170667 0 0 0 0z m-111.786667-116.736l103.765334 108.373334c130.56-77.312 320.170667-190.293333 339.114666-202.922667 5.12-4.608 8.362667-11.093333 8.704-18.090667 0.512-9.216-2.901333-18.090667-9.386666-24.405333-13.141333-13.312-32.426667-16.042667-47.786667-6.997333-9.728 5.461333-65.877333 39.082667-91.648 54.613333l-4.778667 2.901333c-9.045333 5.461333-20.309333 6.314667-30.037333 2.389334l-191.317333-75.776-18.773334 13.141333 83.626667 89.088c6.997333 7.509333 10.410667 17.749333 8.874667 27.989333s-7.338667 19.285333-16.213334 24.576l-15.701333 9.386667c-8.362667 4.949333-18.432 6.314667-27.648 3.413333l-72.704-22.357333-18.090667 14.677333z m-12.288 9.898667c0 0.170667 0 0 0 0z m23.04-26.794667s0.170667 0 0 0z m13.653334-2.730666c-0.170667 0 0 0 0 0z m19.626666-117.76c-0.170667 0 0 0 0 0z m25.258667-25.6s0.170667 0 0 0z m13.824-1.706667c0 0.170667 0 0 0 0zM774.826667 768H249.173333c-18.773333 0-34.133333-15.36-34.133333-34.133333s15.36-34.133333 34.133333-34.133334h525.653334a34.133333 34.133333 0 1 1 0 68.266667z"  /></svg>