<?xml version="1.0" standalone="no"?><!DOCTYPE svg PUBLIC "-//W3C//DTD SVG 1.1//EN" "http://www.w3.org/Graphics/SVG/1.1/DTD/svg11.dtd"><svg class="icon" width="64px" height="64.00px" viewBox="0 0 1024 1024" version="1.1" xmlns="http://www.w3.org/2000/svg"><path  d="M639.317333 761.856c-34.816 0-64-24.917333-70.485333-57.856h-113.664a71.953067 71.953067 0 0 1-70.485333 57.856c-34.816 0-64-24.917333-70.485334-57.856a60.3648 60.3648 0 0 1-59.221333-60.245333v-84.48c0-35.498667 19.285333-67.413333 50.517333-83.968l23.552-80.896c7.338667-31.402667 36.010667-54.272 69.632-54.272h228.010667c33.962667 0 62.805333 23.210667 70.144 56.149333l22.186667 79.018667c31.061333 16.554667 50.346667 48.469333 50.346666 83.797333v84.48c0 32.938667-26.453333 59.733333-59.221333 60.245333-6.826667 33.109333-35.84 58.026667-70.826667 58.026667z m-208.384-109.056h162.133334c14.165333 0 25.6 11.434667 25.6 25.6v11.605333c0 11.434667 9.386667 20.650667 20.821333 20.650667 11.434667 0 20.650667-9.216 20.650667-20.650667v-11.605333c0-14.165333 11.434667-25.6 25.6-25.6h23.04c4.949333 0 9.045333-4.096 9.045333-9.216v-84.48c0-16.725333-9.216-31.744-24.234667-39.253333l-7.850666-3.925334c-6.485333-3.242667-11.264-9.045333-13.141334-16.042666l-25.6-91.136c-2.389333-10.922667-10.752-17.578667-20.48-17.578667H398.677333c-9.728 0-17.92 6.656-20.138666 16.042667l-27.136 93.013333c-2.048 6.826667-6.826667 12.458667-13.141334 15.701333l-7.850666 3.925334c-15.018667 7.509333-24.234667 22.528-24.234667 39.253333v84.48c0 4.949333 4.096 9.216 9.045333 9.216h23.210667c14.165333 0 25.6 11.434667 25.6 25.6v11.605333c0 11.434667 9.216 20.650667 20.650667 20.650667s20.650667-9.216 20.650666-20.650667v-11.605333c0-14.165333 11.434667-25.6 25.6-25.6z"  /><path  d="M390.485333 645.973333c-30.037333 0-54.613333-24.405333-54.613333-54.613333 0-30.037333 24.405333-54.613333 54.613333-54.613333s54.613333 24.405333 54.613334 54.613333a54.784 54.784 0 0 1-54.613334 54.613333z m0-57.856a3.413333 3.413333 0 0 0-3.413333 3.413334c0 3.584 6.656 3.584 6.656 0 0-1.877333-1.365333-3.413333-3.242667-3.413334zM633.514667 645.973333c-30.037333 0-54.613333-24.405333-54.613334-54.613333 0-30.037333 24.405333-54.613333 54.613334-54.613333s54.613333 24.405333 54.613333 54.613333c0 30.208-24.576 54.613333-54.613333 54.613333z m0-57.856a3.413333 3.413333 0 0 0-3.413334 3.413334c0 3.584 6.656 3.584 6.656 0 0.170667-1.877333-1.365333-3.413333-3.242666-3.413334zM581.461333 391.338667h-138.922666c-7.68 0-15.018667-3.413333-19.797334-9.386667-4.778667-5.973333-6.826667-13.653333-5.290666-21.333333l11.434666-57.344c3.754667-18.944 20.138667-32.768 38.741334-32.768h88.917333c18.602667 0 34.816 13.653333 38.741333 32.597333l11.434667 57.344c1.536 7.509333-0.512 15.36-5.290667 21.333333-4.949333 6.144-12.288 9.557333-19.968 9.557334z m-107.690666-51.2h76.458666l-3.584-18.261334h-69.12l-3.754666 18.261334zM616.106667 530.261333H407.893333c-14.165333 0-25.6-11.434667-25.6-25.6s11.434667-25.6 25.6-25.6h208.213334c14.165333 0 25.6 11.434667 25.6 25.6s-11.434667 25.6-25.6 25.6z"  /><path  d="M896 994.133333h-768a94.037333 94.037333 0 0 1-93.866667-93.866666v-768c0-51.712 42.154667-93.866667 93.866667-93.866667h603.989333v233.472a42.666667 42.666667 0 0 0 42.666667 42.666667H989.866667v585.728c0 51.712-42.154667 93.866667-93.866667 93.866666z m-768-904.533333A42.666667 42.666667 0 0 0 85.333333 132.266667v768a42.666667 42.666667 0 0 0 42.666667 42.666666h768a42.666667 42.666667 0 0 0 42.666667-42.666666V365.738667h-164.010667a94.037333 94.037333 0 0 1-93.866667-93.866667V89.6H128z"  /><path  d="M977.237333 285.354667H757.76V65.877333l219.477333 219.477334z m-168.277333-51.2h44.714667L808.96 189.44v44.714667z"  /></svg>