<?xml version="1.0" standalone="no"?><!DOCTYPE svg PUBLIC "-//W3C//DTD SVG 1.1//EN" "http://www.w3.org/Graphics/SVG/1.1/DTD/svg11.dtd"><svg class="icon" width="64px" height="64.00px" viewBox="0 0 1024 1024" version="1.1" xmlns="http://www.w3.org/2000/svg"><path  d="M409.6 989.866667H160.426667c-39.253333 0-69.973333-32.426667-69.973334-69.973334V105.813333C90.453333 66.56 121.173333 34.133333 160.426667 34.133333h633.173333c39.253333 0 69.973333 32.426667 69.973333 69.973334V580.266667c0 13.653333-11.946667 25.6-25.6 25.6s-25.6-11.946667-25.6-25.6V105.813333c0-10.24-8.533333-18.773333-18.773333-18.773333H160.426667c-10.24-1.706667-18.773333 6.826667-18.773334 18.773333v814.08c0 10.24 8.533333 18.773333 18.773334 18.773334H409.6c13.653333 0 25.6 11.946667 25.6 25.6S423.253333 989.866667 409.6 989.866667z"  /><path  d="M634.88 266.24H319.146667c-13.653333 0-25.6-11.946667-25.6-25.6s11.946667-25.6 25.6-25.6h315.733333c13.653333 0 25.6 11.946667 25.6 25.6s-10.24 25.6-25.6 25.6zM634.88 447.146667H319.146667c-13.653333 0-25.6-11.946667-25.6-25.6s11.946667-25.6 25.6-25.6h315.733333c13.653333 0 25.6 11.946667 25.6 25.6s-10.24 25.6-25.6 25.6zM453.973333 628.053333h-136.533333c-13.653333 0-25.6-11.946667-25.6-25.6s11.946667-25.6 25.6-25.6h136.533333c13.653333 0 25.6 11.946667 25.6 25.6s-10.24 25.6-25.6 25.6zM715.093333 948.906667c-78.506667 0-150.186667-39.253333-213.333333-114.346667-8.533333-10.24-8.533333-23.893333 0-32.426667 63.146667-76.8 134.826667-114.346667 213.333333-114.346666s150.186667 39.253333 213.333334 114.346666c8.533333 10.24 8.533333 23.893333 0 32.426667-63.146667 76.8-134.826667 114.346667-213.333334 114.346667zM554.666667 819.2c49.493333 52.906667 100.693333 80.213333 160.426666 80.213333 58.026667 0 110.933333-25.6 158.72-80.213333-49.493333-52.906667-100.693333-80.213333-158.72-80.213333s-110.933333 25.6-160.426666 80.213333z"  /><path  d="M715.093333 872.106667c29.013333 0 52.906667-23.893333 52.906667-52.906667s-23.893333-52.906667-52.906667-52.906667c-29.013333 0-52.906667 23.893333-52.906666 52.906667s23.893333 52.906667 52.906666 52.906667z"  /></svg>