<?xml version="1.0" standalone="no"?><!DOCTYPE svg PUBLIC "-//W3C//DTD SVG 1.1//EN" "http://www.w3.org/Graphics/SVG/1.1/DTD/svg11.dtd"><svg class="icon" width="64px" height="64.00px" viewBox="0 0 1024 1024" version="1.1" xmlns="http://www.w3.org/2000/svg"><path  d="M833.024 989.866667H190.976c-44.885333 0-81.408-41.472-81.408-92.672V126.805333c0-51.2 36.522667-92.672 81.408-92.672h530.602667c7.509333 0 14.677333 3.242667 19.456 9.045334l167.253333 196.778666c3.925333 4.608 6.144 10.581333 6.144 16.554667v640.682667c0 51.2-36.522667 92.672-81.408 92.672zM190.976 85.333333c-16.384 0-30.208 18.944-30.208 41.472v770.56c0 22.357333 13.824 41.472 30.208 41.472h642.048c16.384 0 30.208-18.944 30.208-41.472v-631.466666L709.802667 85.333333h-518.826667z"  /><path  d="M888.832 299.008h-161.621333a42.666667 42.666667 0 0 1-42.666667-42.666667V59.733333c0-14.165333 11.434667-25.6 25.6-25.6s25.6 11.434667 25.6 25.6v188.074667h153.088c14.165333 0 25.6 11.434667 25.6 25.6s-11.434667 25.6-25.6 25.6z"  /><path  d="M381.269333 643.413333c13.141333 0 23.893333-10.752 23.893334-23.893333 0-13.141333-10.752-23.893333-23.893334-23.893333s-23.893333 10.752-23.893333 23.893333c0 13.141333 10.581333 23.893333 23.893333 23.893333zM642.730667 643.413333c13.141333 0 23.893333-10.752 23.893333-23.893333 0-13.141333-10.752-23.893333-23.893333-23.893333s-23.893333 10.752-23.893334 23.893333c0.170667 13.141333 10.752 23.893333 23.893334 23.893333z"  /><path  d="M638.122667 764.416c-33.109333 0-61.098667-20.309333-69.12-47.786667h-113.834667c-8.021333 27.477333-36.010667 47.786667-69.12 47.786667s-61.098667-20.309333-69.12-47.786667c-32.938667-0.170667-59.562667-24.405333-59.562667-54.272v-88.746666c0-30.72 19.456-59.050667 50.176-73.216l23.210667-82.773334c7.850667-28.330667 36.352-48.298667 69.290667-48.298666h225.621333c33.28 0 61.781333 20.138667 69.461333 48.810666L716.8 500.565333c30.549333 14.336 49.834667 42.666667 49.834667 73.216v88.746667c0 29.696-26.624 54.101333-59.562667 54.272-7.850667 27.306667-35.84 47.616-68.949333 47.616zM431.786667 665.6h160.426666c14.165333 0 25.6 11.434667 25.6 25.6v9.557333c0 5.973333 8.704 12.629333 20.309334 12.629334s20.309333-6.656 20.309333-12.629334v-9.557333c0-14.165333 11.434667-25.6 25.6-25.6h22.869333c5.12 0 8.362667-2.389333 8.874667-3.584v-88.234667c0-11.093333-8.704-22.016-22.186667-27.648l-7.68-3.242666c-7.338667-3.072-12.8-9.386667-15.018666-17.066667l-25.258667-94.208c-1.365333-5.290667-9.216-10.922667-19.968-10.922667H399.701333c-10.581333 0-18.432 5.461333-19.968 10.752l-26.453333 94.549334c-2.048 7.509333-7.509333 13.653333-14.848 16.725333l-7.68 3.413333c-13.824 5.632-22.357333 16.384-22.357333 27.648v88.746667c0.512 0.512 3.584 3.072 8.874666 3.072h22.869334c14.165333 0 25.6 11.434667 25.6 25.6v9.557333c0 5.973333 8.704 12.629333 20.138666 12.629334 11.605333 0 20.309333-6.656 20.309334-12.629334v-9.557333c0-14.165333 11.434667-25.6 25.6-25.6z"  /><path  d="M626.517333 573.44H397.482667c-8.021333 0-15.530667-3.754667-20.309334-10.069333-4.778667-6.314667-6.485333-14.506667-4.437333-22.186667l18.944-70.997333c5.290667-19.968 24.746667-33.962667 47.104-33.962667h146.602667c22.357333 0 41.813333 13.994667 47.104 33.962667l18.944 70.997333c2.048 7.68 0.341333 15.872-4.437334 22.186667-4.949333 6.485333-12.458667 10.069333-20.48 10.069333z m-195.754666-51.2h162.474666l-9.216-34.645333h-144.042666l-9.216 34.645333z"  /></svg>