<?xml version="1.0" standalone="no"?><!DOCTYPE svg PUBLIC "-//W3C//DTD SVG 1.1//EN" "http://www.w3.org/Graphics/SVG/1.1/DTD/svg11.dtd"><svg class="icon" width="64px" height="64.00px" viewBox="0 0 1024 1024" version="1.1" xmlns="http://www.w3.org/2000/svg"><path  d="M768.682667 990.208c-18.261333 0-27.818667-7.338667-56.149334-29.184-22.528-17.578667-35.669333-26.794667-41.984-30.890667l-19.456 0.341334c-326.144 6.997333-329.386667 3.754667-347.477333-14.336-2.901333-2.389333-38.741333-30.378667-54.101333-42.496C49.664 717.653333 47.616 712.704 40.96 695.978667c-10.752-23.552-9.045333-52.053333 5.290667-75.093334 12.117333-17.92 36.693333-38.4 87.893333-38.4 53.76 0 114.176 47.786667 162.645333 86.186667 10.069333 8.021333 28.672 22.698667 37.546667 28.501333h52.394667C369.322667 679.594667 358.4 656.725333 358.4 633.344c0-44.202667 30.890667-91.989333 98.986667-91.989333h176.810666c74.922667 0 147.626667 26.624 204.8 75.093333 149.333333 126.976 149.674667 135.509333 150.698667 158.378667 0.512 13.312-4.437333 26.282667-13.824 35.84-4.608 4.437333-46.933333 46.250667-88.746667 86.528-92.16 89.429333-95.914667 93.013333-118.442666 93.013333z m1.024-51.029333h0.170666-0.170666z m-93.013334-60.416c3.413333 0 6.826667 0.682667 10.069334 2.048 3.754667 1.706667 13.994667 5.973333 57.002666 39.594666 10.581333 8.192 20.138667 15.530667 24.405334 17.92 10.410667-7.509333 41.472-37.376 83.456-77.994666 38.4-37.034667 77.312-75.264 86.357333-84.309334-12.970667-19.456-102.058667-95.232-132.096-120.661333-47.786667-40.618667-108.885333-62.976-171.690667-62.976H457.557333c-43.178667 0-47.786667 28.501333-47.786666 40.789333 0 18.090667 19.626667 38.741333 40.448 42.666667 11.434667 2.218667 34.133333 5.461333 56.149333 8.533333l24.405333 3.413334c10.410667 1.536 18.773333 9.216 21.333334 19.456 2.389333 10.24-1.706667 20.992-10.24 26.965333-6.314667 4.437333-12.970667 8.192-19.626667 11.434667-3.413333 1.706667-7.168 2.56-11.093333 2.56H328.021333c-3.242667 0-6.485333-0.682667-9.557333-1.877334-9.728-3.925333-23.552-14.165333-52.565333-37.205333-40.789333-32.256-95.744-75.776-131.584-75.776-15.872 0-36.693333 2.56-45.056 15.018667-4.778667 7.68-5.461333 18.090667-1.365334 27.136 7.168 11.434667 82.261333 71.168 193.024 157.525333 40.618667 31.744 54.613333 42.837333 57.856 45.738667l0.341334 0.341333c19.968 5.12 138.752 3.754667 310.784 0l26.282666-0.512c0.170667 0.170667 0.341333 0.170667 0.512 0.170667z"  /><path  d="M293.888 395.946667c14.677333 0 26.624-11.946667 26.624-26.624 0-14.677333-11.946667-26.624-26.624-26.624s-26.624 11.946667-26.624 26.624c-0.170667 14.677333 11.776 26.624 26.624 26.624zM586.069333 395.946667c14.677333 0 26.624-11.946667 26.624-26.624 0-14.677333-11.946667-26.624-26.624-26.624s-26.624 11.946667-26.624 26.624c0 14.677333 11.946667 26.624 26.624 26.624z"  /><path  d="M580.778667 528.213333c-36.522667 0-67.242667-22.869333-74.922667-53.418666h-131.754667c-7.68 30.549333-38.4 53.418667-74.922666 53.418666s-67.242667-22.869333-74.922667-53.418666h-1.877333c-35.328 0-64-25.770667-64-57.685334v-99.157333c0-33.450667 21.674667-64.512 55.466666-79.701333l26.282667-93.866667c8.533333-30.378667 39.082667-51.712 74.581333-51.712H566.613333c35.669333 0 66.389333 21.504 74.752 52.394667l24.917334 93.184c33.621333 15.189333 55.296 46.08 55.296 79.530666v99.157334c0 31.744-28.672 57.685333-64 57.685333h-1.877334c-7.68 30.72-38.4 53.589333-74.922666 53.589333z m-230.4-104.618666h179.2c14.165333 0 25.6 11.434667 25.6 25.6v10.752c0 8.021333 10.581333 17.066667 25.6 17.066666s25.6-9.045333 25.6-17.066666v-10.752c0-14.165333 11.434667-25.6 25.6-25.6h25.6c8.021333 0 12.8-4.437333 12.8-6.485334v-99.157333c0-13.824-10.24-26.794667-26.624-33.621333l-8.704-3.584c-7.338667-3.072-12.8-9.386667-14.848-17.066667l-28.16-105.301333c-1.877333-7.168-11.776-14.336-25.258667-14.336H314.538667c-13.824 0-23.210667 7.338667-25.258667 14.336l-29.525333 105.642666c-2.048 7.509333-7.509333 13.653333-14.848 16.725334l-8.704 3.584c-16.384 6.826667-26.624 19.797333-26.624 33.621333v99.157333c0 1.877333 4.778667 6.485333 12.8 6.485334h25.6c14.165333 0 25.6 11.434667 25.6 25.6v10.752c0 8.021333 10.581333 17.066667 25.6 17.066666s25.6-9.045333 25.6-17.066666v-10.752c0-14.165333 11.434667-25.6 25.6-25.6z"  /><path  d="M567.978667 314.88h-256c-8.021333 0-15.530667-3.754667-20.309334-10.069333s-6.485333-14.506667-4.437333-22.186667l21.162667-79.36c5.632-20.992 26.112-35.669333 49.664-35.669333h163.669333c23.722667 0 44.032 14.677333 49.664 35.669333l21.162667 79.36c2.048 7.68 0.341333 15.872-4.437334 22.186667s-12.117333 10.069333-20.138666 10.069333z m-222.72-51.2h189.44l-11.946667-44.714667H357.376l-12.117333 44.714667z"  /></svg>