<?xml version="1.0" standalone="no"?><!DOCTYPE svg PUBLIC "-//W3C//DTD SVG 1.1//EN" "http://www.w3.org/Graphics/SVG/1.1/DTD/svg11.dtd"><svg class="icon" width="64px" height="64.00px" viewBox="0 0 1024 1024" version="1.1" xmlns="http://www.w3.org/2000/svg"><path  d="M785.066667 768H614.4c-13.653333 0-25.6-11.946667-25.6-25.6S600.746667 716.8 614.4 716.8h170.666667c13.653333 0 25.6 11.946667 25.6 25.6S798.72 768 785.066667 768z"  /><path  d="M699.733333 853.333333c-13.653333 0-25.6-11.946667-25.6-25.6v-170.666666c0-13.653333 11.946667-25.6 25.6-25.6s25.6 11.946667 25.6 25.6v170.666666c0 13.653333-11.946667 25.6-25.6 25.6z"  /><path  d="M836.266667 989.866667H187.733333c-51.2 0-93.866667-42.666667-93.866666-93.866667v-768C93.866667 76.8 136.533333 34.133333 187.733333 34.133333h648.533334c51.2 0 93.866667 42.666667 93.866666 93.866667v768c0 51.2-42.666667 93.866667-93.866666 93.866667zM187.733333 85.333333C163.84 85.333333 145.066667 104.106667 145.066667 128v768c0 23.893333 18.773333 42.666667 42.666666 42.666667h648.533334c23.893333 0 42.666667-18.773333 42.666666-42.666667v-768C878.933333 104.106667 860.16 85.333333 836.266667 85.333333H187.733333z"  /><path  d="M616.106667 534.186667H264.533333c-13.653333 0-25.6-11.946667-25.6-25.6s11.946667-25.6 25.6-25.6h351.573334c13.653333 0 25.6 11.946667 25.6 25.6s-11.946667 25.6-25.6 25.6zM469.333333 692.906667h-204.8c-13.653333 0-25.6-11.946667-25.6-25.6s11.946667-25.6 25.6-25.6h204.8c13.653333 0 25.6 11.946667 25.6 25.6s-11.946667 25.6-25.6 25.6zM366.933333 853.333333h-102.4c-13.653333 0-25.6-11.946667-25.6-25.6s11.946667-25.6 25.6-25.6h102.4c13.653333 0 25.6 11.946667 25.6 25.6s-10.24 25.6-25.6 25.6z"  /><path  d="M247.466667 358.4c-1.706667 0-3.413333-1.706667-5.12-3.413333-1.706667-1.706667-1.706667-3.413333-3.413334-5.12v-6.826667l15.36-117.76h143.36l-1.706666 22.186667h-98.986667l-11.946667 88.746666h88.746667l11.946667-8.533333-5.12 32.426667h-128c-1.706667 0-3.413333 0-5.12-1.706667zM575.146667 226.986667l-8.533334 68.266666c0 1.706667 0 5.12-1.706666 6.826667-1.706667 1.706667-1.706667 3.413333-3.413334 5.12-1.706667 1.706667-3.413333 1.706667-5.12 3.413333-1.706667 0-5.12 1.706667-6.826666 1.706667h-29.013334l47.786667 49.493333h-49.493333l-46.08-49.493333-6.826667 49.493333h-46.08l15.36-124.586666-6.826667-8.533334h146.773334zM477.866667 249.173333l-5.12 39.253334h49.493333l5.12-39.253334H477.866667zM663.893333 226.986667l25.6 83.626666 47.786667-83.626666H785.066667l-18.773334 133.12h-40.96l11.946667-69.973334-35.84 61.44H665.6l-18.773333-59.733333-8.533334 68.266667H597.333333l18.773334-124.586667-8.533334-8.533333h56.32z"  /></svg>