<?xml version="1.0" standalone="no"?><!DOCTYPE svg PUBLIC "-//W3C//DTD SVG 1.1//EN" "http://www.w3.org/Graphics/SVG/1.1/DTD/svg11.dtd"><svg class="icon" width="64px" height="64.00px" viewBox="0 0 1024 1024" version="1.1" xmlns="http://www.w3.org/2000/svg"><path  d="M446.805333 989.866667H170.325333a94.037333 94.037333 0 0 1-93.866666-93.866667v-768c0-51.712 42.154667-93.866667 93.866666-93.866667h587.093334c51.712 0 93.866667 42.154667 93.866666 93.866667v310.784c0 14.165333-11.434667 25.6-25.6 25.6s-25.6-11.434667-25.6-25.6V128a42.666667 42.666667 0 0 0-42.666666-42.666667H170.325333a42.666667 42.666667 0 0 0-42.666666 42.666667v768a42.666667 42.666667 0 0 0 42.666666 42.666667h276.48c14.165333 0 25.6 11.434667 25.6 25.6s-11.434667 25.6-25.6 25.6z"  /><path  d="M474.965333 259.754667H248.832c-14.165333 0-25.6-11.434667-25.6-25.6s11.434667-25.6 25.6-25.6h226.133333c14.165333 0 25.6 11.434667 25.6 25.6s-11.434667 25.6-25.6 25.6zM610.645333 395.434667h-361.813333c-14.165333 0-25.6-11.434667-25.6-25.6s11.434667-25.6 25.6-25.6h361.813333c14.165333 0 25.6 11.434667 25.6 25.6s-11.434667 25.6-25.6 25.6zM692.565333 989.866667c-134.485333 0-244.053333-109.397333-244.053333-244.053334s109.397333-244.053333 244.053333-244.053333 244.053333 109.568 244.053334 244.053333S827.221333 989.866667 692.565333 989.866667z m0-436.906667c-106.325333 0-192.853333 86.528-192.853333 192.853333S586.24 938.666667 692.565333 938.666667s192.853333-86.528 192.853334-192.853334-86.528-192.853333-192.853334-192.853333z"  /><path  d="M788.992 788.821333h-96.426667c-14.165333 0-25.6-11.434667-25.6-25.6v-110.933333c0-14.165333 11.434667-25.6 25.6-25.6s25.6 11.434667 25.6 25.6v85.333333h70.826667c14.165333 0 25.6 11.434667 25.6 25.6s-11.434667 25.6-25.6 25.6z"  /></svg>