<?xml version="1.0" standalone="no"?><!DOCTYPE svg PUBLIC "-//W3C//DTD SVG 1.1//EN" "http://www.w3.org/Graphics/SVG/1.1/DTD/svg11.dtd"><svg class="icon" width="64px" height="64.00px" viewBox="0 0 1024 1024" version="1.1" xmlns="http://www.w3.org/2000/svg"><path  d="M515.413333 959.146667c-13.653333 0-25.6-11.946667-25.6-25.6v-49.493334c0-13.653333 11.946667-25.6 25.6-25.6s25.6 11.946667 25.6 25.6v49.493334c0 15.36-11.946667 25.6-25.6 25.6z"  /><path  d="M510.293333 989.866667c-225.28 0-409.6-184.32-409.6-409.6s184.32-409.6 409.6-409.6 409.6 184.32 409.6 409.6-184.32 409.6-409.6 409.6z m0-768c-197.973333 0-358.4 160.426667-358.4 358.4s160.426667 358.4 358.4 358.4 358.4-160.426667 358.4-358.4-160.426667-358.4-358.4-358.4zM622.933333 85.333333H397.653333c-13.653333 0-25.6-11.946667-25.6-25.6S384 34.133333 397.653333 34.133333h225.28c15.36 0 25.6 11.946667 25.6 25.6S638.293333 85.333333 622.933333 85.333333z"  /><path  d="M510.293333 762.88c-8.533333 0-17.066667-5.12-22.186666-13.653333l-90.453334-158.72c-5.12-8.533333-5.12-17.066667 0-25.6l90.453334-158.72c5.12-8.533333 13.653333-13.653333 22.186666-13.653334s17.066667 5.12 22.186667 13.653334l90.453333 158.72c5.12 8.533333 5.12 17.066667 0 25.6L532.48 750.933333c-3.413333 6.826667-11.946667 11.946667-22.186667 11.946667zM450.56 580.266667l61.44 105.813333 61.44-105.813333-61.44-105.813334-61.44 105.813334zM216.746667 605.866667H126.293333c-13.653333 0-25.6-11.946667-25.6-25.6s11.946667-25.6 25.6-25.6h90.453334c13.653333 0 25.6 11.946667 25.6 25.6s-11.946667 25.6-25.6 25.6zM894.293333 605.866667h-90.453333c-13.653333 0-25.6-11.946667-25.6-25.6s11.946667-25.6 25.6-25.6h90.453333c13.653333 0 25.6 11.946667 25.6 25.6s-11.946667 25.6-25.6 25.6zM510.293333 312.32c-13.653333 0-25.6-11.946667-25.6-25.6v-90.453333c0-13.653333 11.946667-25.6 25.6-25.6s25.6 11.946667 25.6 25.6v90.453333c0 13.653333-11.946667 25.6-25.6 25.6z"  /><path  d="M155.306667 752.64c-10.24 0-18.773333-5.12-23.893334-15.36-20.48-49.493333-30.72-102.4-30.72-157.013333 0-54.613333 10.24-107.52 30.72-157.013334 5.12-13.653333 20.48-18.773333 34.133334-13.653333 13.653333 5.12 18.773333 20.48 13.653333 34.133333-18.773333 42.666667-27.306667 88.746667-27.306667 136.533334s8.533333 93.866667 27.306667 136.533333c5.12 13.653333 0 27.306667-13.653333 34.133333-3.413333 0-6.826667 1.706667-10.24 1.706667zM865.28 752.64c-3.413333 0-6.826667 0-10.24-1.706667-13.653333-5.12-18.773333-20.48-13.653333-34.133333 18.773333-42.666667 27.306667-88.746667 27.306666-136.533333s-8.533333-93.866667-27.306666-136.533334c-5.12-13.653333 0-27.306667 13.653333-34.133333 13.653333-5.12 27.306667 0 34.133333 13.653333 20.48 49.493333 30.72 102.4 30.72 157.013334 0 54.613333-10.24 107.52-30.72 157.013333-3.413333 8.533333-13.653333 15.36-23.893333 15.36zM669.013333 256c-3.413333 0-6.826667 0-10.24-1.706667C612.693333 233.813333 563.2 221.866667 512 221.866667s-100.693333 10.24-146.773333 32.426666c-13.653333 5.12-27.306667 0-34.133334-13.653333-5.12-13.653333 0-27.306667 11.946667-34.133333 52.906667-23.893333 109.226667-35.84 168.96-35.84s116.053333 11.946667 168.96 35.84c13.653333 5.12 18.773333 20.48 11.946667 34.133333-5.12 8.533333-15.36 15.36-23.893334 15.36z"  /></svg>