<?xml version="1.0" standalone="no"?><!DOCTYPE svg PUBLIC "-//W3C//DTD SVG 1.1//EN" "http://www.w3.org/Graphics/SVG/1.1/DTD/svg11.dtd"><svg class="icon" width="64px" height="64.00px" viewBox="0 0 1024 1024" version="1.1" xmlns="http://www.w3.org/2000/svg"><path  d="M790.698667 865.792H395.434667c-9.216 0-17.578667-4.949333-22.186667-12.8a25.429333 25.429333 0 0 1 0-25.6l197.632-341.333333c4.608-7.850667 12.970667-12.8 22.186667-12.8s17.578667 4.949333 22.186666 12.8l197.632 341.333333c4.608 7.850667 4.608 17.749333 0 25.6-4.608 7.850667-13.141333 12.8-22.186666 12.8z m-350.890667-51.2h306.346667l-153.258667-264.704-153.088 264.704z"  /><path  d="M593.066667 727.04c-14.165333 0-25.6-11.434667-25.6-25.6v-63.829333c0-14.165333 11.434667-25.6 25.6-25.6s25.6 11.434667 25.6 25.6v63.829333c0 13.994667-11.434667 25.6-25.6 25.6z"  /><path  d="M593.066667 769.706667m-25.6 0a25.6 25.6 0 1 0 51.2 0 25.6 25.6 0 1 0-51.2 0Z"  /><path  d="M821.76 989.866667h-619.52C151.893333 989.866667 110.933333 948.906667 110.933333 898.56V125.44C110.933333 75.093333 151.893333 34.133333 202.24 34.133333h619.52c50.346667 0 91.306667 40.96 91.306667 91.306667v773.12c0 50.346667-40.96 91.306667-91.306667 91.306667zM202.24 85.333333C180.053333 85.333333 162.133333 103.253333 162.133333 125.44v773.12c0 22.016 17.92 40.106667 40.106667 40.106667h619.52c22.016 0 40.106667-17.92 40.106667-40.106667V125.44c0-22.186667-17.92-40.106667-40.106667-40.106667h-619.52z"  /><path  d="M674.304 283.306667H264.362667c-14.165333 0-25.6-11.434667-25.6-25.6s11.434667-25.6 25.6-25.6h409.941333c14.165333 0 25.6 11.434667 25.6 25.6s-11.434667 25.6-25.6 25.6zM486.570667 439.125333H264.362667c-14.165333 0-25.6-11.434667-25.6-25.6s11.434667-25.6 25.6-25.6h222.208c14.165333 0 25.6 11.434667 25.6 25.6s-11.434667 25.6-25.6 25.6z"  /></svg>