<?xml version="1.0" standalone="no"?><!DOCTYPE svg PUBLIC "-//W3C//DTD SVG 1.1//EN" "http://www.w3.org/Graphics/SVG/1.1/DTD/svg11.dtd"><svg class="icon" width="64px" height="64.00px" viewBox="0 0 1024 1024" version="1.1" xmlns="http://www.w3.org/2000/svg"><path  d="M805.546667 989.866667H218.453333a94.037333 94.037333 0 0 1-93.866666-93.866667v-768C124.586667 76.288 166.741333 34.133333 218.453333 34.133333h451.754667c7.168 0 14.165333 3.072 19.114667 8.533334l203.434666 226.133333c4.266667 4.778667 6.485333 10.752 6.485334 17.066667V896c0.170667 51.712-41.984 93.866667-93.696 93.866667zM218.453333 85.333333a42.666667 42.666667 0 0 0-42.666666 42.666667v768a42.666667 42.666667 0 0 0 42.666666 42.666667h587.093334a42.666667 42.666667 0 0 0 42.666666-42.666667V295.765333L658.944 85.333333H218.453333z"  /><path  d="M512 650.581333c-14.165333 0-25.6-11.434667-25.6-25.6V398.848c0-14.165333 11.434667-25.6 25.6-25.6s25.6 11.434667 25.6 25.6v226.133333c0 14.165333-11.434667 25.6-25.6 25.6z"  /><path  d="M512 851.285333c31.232 0 56.490667-25.258667 56.490667-56.490666s-25.258667-56.490667-56.490667-56.490667-56.490667 25.258667-56.490667 56.490667 25.258667 56.490667 56.490667 56.490666z"  /><path  d="M873.813333 311.466667H664.746667a42.666667 42.666667 0 0 1-42.666667-42.666667V59.733333c0-14.165333 11.434667-25.6 25.6-25.6s25.6 11.434667 25.6 25.6v200.533334H873.813333c14.165333 0 25.6 11.434667 25.6 25.6s-11.434667 25.6-25.6 25.6z"  /></svg>