<?xml version="1.0" standalone="no"?><!DOCTYPE svg PUBLIC "-//W3C//DTD SVG 1.1//EN" "http://www.w3.org/Graphics/SVG/1.1/DTD/svg11.dtd"><svg class="icon" width="64px" height="64.00px" viewBox="0 0 1024 1024" version="1.1" xmlns="http://www.w3.org/2000/svg"><path  d="M512 960.853333c-254.293333 0-462.506667-208.213333-462.506667-462.506666S257.706667 34.133333 512 34.133333s462.506667 208.213333 462.506667 462.506667S766.293333 960.853333 512 960.853333zM512 85.333333C285.013333 85.333333 100.693333 271.36 100.693333 496.64S285.013333 909.653333 512 909.653333s411.306667-184.32 411.306667-411.306666S738.986667 85.333333 512 85.333333z"  /><path  d="M861.866667 989.866667c-5.12 0-8.533333-1.706667-13.653334-3.413334L522.24 795.306667l-324.266667 191.146666c-8.533333 5.12-20.48 5.12-29.013333-3.413333-8.533333-6.826667-11.946667-18.773333-6.826667-29.013333L498.346667 80.213333c3.413333-10.24 13.653333-17.066667 23.893333-17.066666s20.48 6.826667 23.893333 17.066666l337.92 873.813334c3.413333 10.24 1.706667 22.186667-6.826666 29.013333-3.413333 3.413333-10.24 6.826667-15.36 6.826667zM522.24 160.426667L235.52 904.533333l274.773333-162.133333c8.533333-5.12 17.066667-5.12 25.6 0L810.666667 904.533333 522.24 160.426667z"  /></svg>