<?xml version="1.0" standalone="no"?><!DOCTYPE svg PUBLIC "-//W3C//DTD SVG 1.1//EN" "http://www.w3.org/Graphics/SVG/1.1/DTD/svg11.dtd"><svg class="icon" width="64px" height="64.00px" viewBox="0 0 1024 1024" version="1.1" xmlns="http://www.w3.org/2000/svg"><path  d="M512 534.186667C322.56 534.186667 170.666667 356.693333 170.666667 136.533333c0-13.653333 11.946667-25.6 25.6-25.6h633.173333c13.653333 0 23.893333 11.946667 23.893333 25.6 0 220.16-151.893333 397.653333-341.333333 397.653334zM221.866667 162.133333c10.24 179.2 136.533333 320.853333 290.133333 320.853334S791.893333 341.333333 802.133333 162.133333H221.866667z"  /><path  d="M964.266667 162.133333h-904.533334C46.08 162.133333 34.133333 151.893333 34.133333 136.533333s11.946667-25.6 25.6-25.6h904.533334c13.653333 0 25.6 11.946667 25.6 25.6s-11.946667 25.6-25.6 25.6zM827.733333 913.066667h-631.466666c-13.653333 0-25.6-11.946667-25.6-25.6 0-218.453333 153.6-397.653333 341.333333-397.653334S853.333333 667.306667 853.333333 887.466667c0 13.653333-10.24 25.6-25.6 25.6z m-605.866666-51.2h580.266666c-10.24-179.2-136.533333-320.853333-290.133333-320.853334S232.106667 682.666667 221.866667 861.866667z"  /><path  d="M964.266667 913.066667h-904.533334c-13.653333 0-25.6-11.946667-25.6-25.6s11.946667-25.6 25.6-25.6h904.533334c13.653333 0 25.6 11.946667 25.6 25.6s-11.946667 25.6-25.6 25.6zM648.533333 773.12H375.466667c-13.653333 0-25.6-11.946667-25.6-25.6s11.946667-25.6 25.6-25.6h273.066666c13.653333 0 25.6 11.946667 25.6 25.6s-11.946667 25.6-25.6 25.6zM605.866667 390.826667h-187.733334c-13.653333 0-25.6-11.946667-25.6-25.6s11.946667-25.6 25.6-25.6h187.733334c13.653333 0 25.6 11.946667 25.6 25.6s-11.946667 25.6-25.6 25.6z"  /></svg>