<?xml version="1.0" standalone="no"?><!DOCTYPE svg PUBLIC "-//W3C//DTD SVG 1.1//EN" "http://www.w3.org/Graphics/SVG/1.1/DTD/svg11.dtd"><svg class="icon" width="64px" height="64.00px" viewBox="0 0 1024 1024" version="1.1" xmlns="http://www.w3.org/2000/svg"><path d="M517.12 252.586667c-13.653333 0-25.6-11.946667-25.6-25.6V59.733333c0-13.653333 11.946667-25.6 25.6-25.6s25.6 11.946667 25.6 25.6v167.253334c0 13.653333-11.946667 25.6-25.6 25.6z" fill="#333333" opacity=".5" /><path d="M314.026667 332.8c-6.826667 0-13.653333-1.706667-18.773334-6.826667l-117.76-117.76c-10.24-10.24-10.24-25.6 0-35.84 10.24-10.24 25.6-10.24 35.84 0l117.76 117.76c10.24 10.24 10.24 25.6 0 35.84-3.413333 3.413333-10.24 6.826667-17.066666 6.826667z" fill="#333333" opacity=".6" /><path d="M226.986667 532.48H59.733333c-13.653333 0-25.6-11.946667-25.6-25.6s11.946667-25.6 25.6-25.6h167.253334c13.653333 0 25.6 11.946667 25.6 25.6s-11.946667 25.6-25.6 25.6z" fill="#333333" opacity=".7" /><path d="M189.44 853.333333c-6.826667 0-13.653333-1.706667-18.773333-6.826666-10.24-10.24-10.24-25.6 0-35.84l117.76-117.76c10.24-10.24 25.6-10.24 35.84 0s10.24 25.6 0 35.84l-117.76 117.76c-5.12 5.12-11.946667 6.826667-17.066667 6.826666z" fill="#333333" opacity=".8" /><path d="M506.88 989.866667c-13.653333 0-25.6-11.946667-25.6-25.6v-167.253334c0-13.653333 11.946667-25.6 25.6-25.6s25.6 11.946667 25.6 25.6v167.253334c0 13.653333-11.946667 25.6-25.6 25.6z" fill="#333333" opacity=".9" /><path d="M827.733333 860.16c-6.826667 0-13.653333-1.706667-18.773333-6.826667l-117.76-117.76c-10.24-10.24-10.24-25.6 0-35.84s25.6-10.24 35.84 0l117.76 117.76c10.24 10.24 10.24 25.6 0 35.84-3.413333 5.12-10.24 6.826667-17.066667 6.826667z" fill="#333333" /><path d="M964.266667 542.72h-167.253334c-13.653333 0-25.6-11.946667-25.6-25.6s11.946667-25.6 25.6-25.6h167.253334c13.653333 0 25.6 11.946667 25.6 25.6s-11.946667 25.6-25.6 25.6z" fill="#333333" opacity=".3" /><path d="M716.8 339.626667c-6.826667 0-13.653333-1.706667-18.773333-6.826667-10.24-10.24-10.24-25.6 0-35.84l117.76-117.76c10.24-10.24 25.6-10.24 35.84 0 10.24 10.24 10.24 25.6 0 35.84L733.866667 332.8c-3.413333 5.12-10.24 6.826667-17.066667 6.826667z" fill="#333333" opacity=".4" /></svg>