<?xml version="1.0" standalone="no"?><!DOCTYPE svg PUBLIC "-//W3C//DTD SVG 1.1//EN" "http://www.w3.org/Graphics/SVG/1.1/DTD/svg11.dtd"><svg class="icon" width="64px" height="64.00px" viewBox="0 0 1024 1024" version="1.1" xmlns="http://www.w3.org/2000/svg"><path  d="M515.413333 344.746667c-13.653333 0-25.6-11.946667-25.6-25.6V204.8c0-13.653333 11.946667-25.6 25.6-25.6s25.6 11.946667 25.6 25.6v114.346667c0 13.653333-11.946667 25.6-25.6 25.6zM377.173333 397.653333c-6.826667 0-13.653333-1.706667-18.773333-6.826666l-80.213333-80.213334c-10.24-10.24-10.24-25.6 0-35.84 10.24-10.24 25.6-10.24 35.84 0l80.213333 80.213334c10.24 10.24 10.24 25.6 0 35.84-3.413333 5.12-10.24 6.826667-17.066667 6.826666zM319.146667 534.186667H204.8c-13.653333 0-25.6-11.946667-25.6-25.6s11.946667-25.6 25.6-25.6h114.346667c13.653333 0 25.6 11.946667 25.6 25.6s-11.946667 25.6-25.6 25.6zM291.84 752.64c-6.826667 0-13.653333-1.706667-18.773333-6.826667-10.24-10.24-10.24-25.6 0-35.84l80.213333-80.213333c10.24-10.24 25.6-10.24 35.84 0s10.24 25.6 0 35.84l-80.213333 80.213333c-3.413333 3.413333-10.24 6.826667-17.066667 6.826667zM508.586667 844.8c-13.653333 0-25.6-11.946667-25.6-25.6v-114.346667c0-13.653333 11.946667-25.6 25.6-25.6s25.6 11.946667 25.6 25.6V819.2c0 13.653333-11.946667 25.6-25.6 25.6zM727.04 757.76c-6.826667 0-13.653333-1.706667-18.773333-6.826667l-80.213334-80.213333c-10.24-10.24-10.24-25.6 0-35.84s25.6-10.24 35.84 0l80.213334 80.213333c10.24 10.24 10.24 25.6 0 35.84-3.413333 3.413333-10.24 6.826667-17.066667 6.826667zM819.2 541.013333h-114.346667c-13.653333 0-25.6-11.946667-25.6-25.6s11.946667-25.6 25.6-25.6H819.2c13.653333 0 25.6 11.946667 25.6 25.6s-11.946667 25.6-25.6 25.6zM651.946667 402.773333c-6.826667 0-13.653333-1.706667-18.773334-6.826666-10.24-10.24-10.24-25.6 0-35.84l80.213334-80.213334c10.24-10.24 25.6-10.24 35.84 0 10.24 10.24 10.24 25.6 0 35.84l-80.213334 80.213334c-5.12 5.12-11.946667 6.826667-17.066666 6.826666z"  /><path  d="M512 989.866667C249.173333 989.866667 34.133333 774.826667 34.133333 512S249.173333 34.133333 512 34.133333s477.866667 215.04 477.866667 477.866667-215.04 477.866667-477.866667 477.866667z m0-904.533334C276.48 85.333333 85.333333 276.48 85.333333 512s191.146667 426.666667 426.666667 426.666667 426.666667-191.146667 426.666667-426.666667S747.52 85.333333 512 85.333333z"  /></svg>