<?xml version="1.0" standalone="no"?><!DOCTYPE svg PUBLIC "-//W3C//DTD SVG 1.1//EN" "http://www.w3.org/Graphics/SVG/1.1/DTD/svg11.dtd"><svg class="icon" width="64px" height="64.00px" viewBox="0 0 1024 1024" version="1.1" xmlns="http://www.w3.org/2000/svg"><path  d="M512 989.866667C249.173333 989.866667 34.133333 774.826667 34.133333 512S249.173333 34.133333 512 34.133333c138.24 0 269.653333 59.733333 360.106667 163.84 8.533333 10.24 8.533333 27.306667-1.706667 35.84s-27.306667 8.533333-35.84-1.706666C752.64 138.24 634.88 85.333333 512 85.333333 276.48 85.333333 85.333333 276.48 85.333333 512s191.146667 426.666667 426.666667 426.666667c165.546667 0 317.44-97.28 387.413333-247.466667 5.12-13.653333 20.48-18.773333 34.133334-11.946667 13.653333 5.12 18.773333 20.48 11.946666 34.133334C866.986667 880.64 698.026667 989.866667 512 989.866667z"  /><path  d="M872.106667 256H716.8c-13.653333 0-25.6-11.946667-25.6-25.6S703.146667 204.8 716.8 204.8h129.706667V75.093333c0-13.653333 11.946667-25.6 25.6-25.6s25.6 11.946667 25.6 25.6v155.306667c0 15.36-11.946667 25.6-25.6 25.6z"  /><path  d="M617.813333 595.626667h-141.653333c-13.653333 0-25.6-11.946667-25.6-25.6V385.706667c0-13.653333 11.946667-25.6 25.6-25.6s25.6 11.946667 25.6 25.6V546.133333h116.053333c13.653333 0 25.6 11.946667 25.6 25.6s-11.946667 23.893333-25.6 23.893334z"  /></svg>