<?xml version="1.0" standalone="no"?><!DOCTYPE svg PUBLIC "-//W3C//DTD SVG 1.1//EN" "http://www.w3.org/Graphics/SVG/1.1/DTD/svg11.dtd"><svg class="icon" width="64px" height="64.00px" viewBox="0 0 1024 1024" version="1.1" xmlns="http://www.w3.org/2000/svg"><path  d="M192.853333 907.946667H146.773333c-35.84 0-64.853333-27.306667-68.266666-63.146667L42.666667 421.546667c-1.706667-18.773333 5.12-37.546667 17.066666-51.2s30.72-22.186667 49.493334-22.186667h81.92c37.546667 0 68.266667 30.72 68.266666 68.266667v424.96c1.706667 35.84-29.013333 66.56-66.56 66.56zM110.933333 399.36c-6.826667 0-10.24 3.413333-11.946666 5.12-1.706667 1.706667-5.12 6.826667-5.12 13.653333l35.84 424.96c0 8.533333 8.533333 15.36 17.066666 15.36h46.08c8.533333 0 17.066667-6.826667 17.066667-17.066666V416.426667c0-8.533333-6.826667-17.066667-17.066667-17.066667H110.933333zM766.293333 907.946667H404.48c-37.546667 0-68.266667-30.72-68.266667-68.266667V423.253333c0-27.306667 17.066667-52.906667 40.96-64.853333 30.72-15.36 87.04-44.373333 110.933334-85.333333 32.426667-52.906667 37.546667-153.6 39.253333-174.08v-1.706667-10.24c3.413333-18.773333 15.36-32.426667 34.133333-35.84 42.666667-8.533333 105.813333 44.373333 131.413334 85.333333 17.066667 27.306667 23.893333 63.146667 20.48 107.52-1.706667 32.426667-11.946667 63.146667-20.48 93.866667l-10.24 30.72h196.266666c22.186667 0 40.96 10.24 54.613334 27.306667 13.653333 17.066667 17.066667 39.253333 11.946666 59.733333l-114.346666 404.48c-8.533333 27.306667-35.84 47.786667-64.853334 47.786667zM578.56 102.4c-1.706667 30.72-8.533333 136.533333-46.08 197.973333-29.013333 47.786667-88.746667 83.626667-133.12 104.106667-6.826667 3.413333-11.946667 10.24-11.946667 18.773333v416.426667c0 8.533333 6.826667 17.066667 17.066667 17.066667h360.106667c6.826667 0 13.653333-5.12 17.066666-11.946667l114.346667-404.48c1.706667-6.826667-1.706667-11.946667-3.413333-15.36-1.706667-1.706667-6.826667-6.826667-13.653334-6.826667H648.533333c-8.533333 0-15.36-3.413333-20.48-10.24-5.12-6.826667-6.826667-15.36-3.413333-22.186666l18.773333-63.146667c8.533333-29.013333 17.066667-56.32 18.773334-83.626667 1.706667-22.186667 0-54.613333-13.653334-78.506666-18.773333-27.306667-52.906667-51.2-69.973333-58.026667z"  /></svg>