<?xml version="1.0" standalone="no"?><!DOCTYPE svg PUBLIC "-//W3C//DTD SVG 1.1//EN" "http://www.w3.org/Graphics/SVG/1.1/DTD/svg11.dtd"><svg class="icon" width="64px" height="64.00px" viewBox="0 0 1024 1024" version="1.1" xmlns="http://www.w3.org/2000/svg"><path  d="M625.322667 204.970667H397.312c-14.165333 0-25.6-11.434667-25.6-25.6s11.434667-25.6 25.6-25.6h228.010667c14.165333 0 25.6 11.434667 25.6 25.6s-11.434667 25.6-25.6 25.6zM625.322667 354.133333H397.312c-14.165333 0-25.6-11.434667-25.6-25.6s11.434667-25.6 25.6-25.6h228.010667c14.165333 0 25.6 11.434667 25.6 25.6s-11.434667 25.6-25.6 25.6zM625.322667 503.296H397.312c-14.165333 0-25.6-11.434667-25.6-25.6s11.434667-25.6 25.6-25.6h228.010667c14.165333 0 25.6 11.434667 25.6 25.6s-11.434667 25.6-25.6 25.6z"  /><path  d="M101.717333 623.957333c12.629333 62.293333 67.925333 109.226667 133.802667 109.226667h551.594667c65.877333 0 121.002667-46.933333 133.802666-109.226667V921.6h-819.2V623.957333m819.2-322.218666h-65.536v294.912c0 37.717333-30.549333 68.266667-68.266666 68.266666H235.52c-37.717333 0-68.266667-30.549333-68.266667-68.266666V301.738667H101.717333c-37.717333 0-68.266667 30.549333-68.266666 68.266666V921.6c0 37.717333 30.549333 68.266667 68.266666 68.266667h819.2c37.717333 0 68.266667-30.549333 68.266667-68.266667V370.005333c0-37.717333-30.549333-68.266667-68.266667-68.266666z"  /><path  d="M737.28 102.570667v451.925333H285.354667V102.570667H737.28m0-68.266667H285.354667c-37.717333 0-68.266667 30.549333-68.266667 68.266667v451.925333c0 37.717333 30.549333 68.266667 68.266667 68.266667H737.28c37.717333 0 68.266667-30.549333 68.266667-68.266667V102.570667c0-37.717333-30.72-68.266667-68.266667-68.266667z"  /></svg>