<?xml version="1.0" standalone="no"?><!DOCTYPE svg PUBLIC "-//W3C//DTD SVG 1.1//EN" "http://www.w3.org/Graphics/SVG/1.1/DTD/svg11.dtd"><svg class="icon" width="64px" height="64.00px" viewBox="0 0 1024 1024" version="1.1" xmlns="http://www.w3.org/2000/svg"><path  d="M836.266667 989.866667H187.733333c-51.2 0-93.866667-42.666667-93.866666-93.866667v-768C93.866667 76.8 136.533333 34.133333 187.733333 34.133333h648.533334c51.2 0 93.866667 42.666667 93.866666 93.866667v768c0 51.2-42.666667 93.866667-93.866666 93.866667zM187.733333 85.333333C163.84 85.333333 145.066667 104.106667 145.066667 128v768c0 23.893333 18.773333 42.666667 42.666666 42.666667h648.533334c23.893333 0 42.666667-18.773333 42.666666-42.666667v-768C878.933333 104.106667 860.16 85.333333 836.266667 85.333333H187.733333z"  /><path  d="M512 651.946667c-5.12 0-10.24-1.706667-13.653333-5.12-6.826667-5.12-170.666667-114.346667-170.666667-250.88 0-49.493333 18.773333-95.573333 54.613333-129.706667s81.92-54.613333 129.706667-54.613333 95.573333 18.773333 129.706667 54.613333c34.133333 34.133333 54.613333 81.92 54.613333 129.706667 0 136.533333-163.84 245.76-170.666667 250.88-3.413333 3.413333-8.533333 5.12-13.653333 5.12z m0-389.12c-35.84 0-68.266667 13.653333-93.866667 39.253333s-39.253333 58.026667-39.253333 93.866667c0 88.746667 95.573333 170.666667 133.12 197.973333 37.546667-27.306667 133.12-109.226667 133.12-197.973333 0-35.84-13.653333-68.266667-39.253333-93.866667-25.6-25.6-58.026667-39.253333-93.866667-39.253333z"  /><path  d="M512 474.453333c-42.666667 0-78.506667-35.84-78.506667-78.506666s35.84-78.506667 78.506667-78.506667c42.666667 0 78.506667 35.84 78.506667 78.506667s-35.84 78.506667-78.506667 78.506666z m0-105.813333c-15.36 0-27.306667 11.946667-27.306667 27.306667s11.946667 27.306667 27.306667 27.306666c15.36 0 27.306667-11.946667 27.306667-27.306666s-11.946667-27.306667-27.306667-27.306667z"  /><path  d="M655.36 791.893333H368.64c-13.653333 0-25.6-11.946667-25.6-25.6s11.946667-25.6 25.6-25.6h286.72c13.653333 0 25.6 11.946667 25.6 25.6s-11.946667 25.6-25.6 25.6z"  /></svg>