<?xml version="1.0" standalone="no"?><!DOCTYPE svg PUBLIC "-//W3C//DTD SVG 1.1//EN" "http://www.w3.org/Graphics/SVG/1.1/DTD/svg11.dtd"><svg class="icon" width="64px" height="64.00px" viewBox="0 0 1024 1024" version="1.1" xmlns="http://www.w3.org/2000/svg"><path  d="M512 977.92c-237.226667 0-477.866667-54.613333-477.866667-160.426667 0-49.493333 51.2-90.453333 150.186667-119.466666 13.653333-3.413333 27.306667 3.413333 32.426667 17.066666 3.413333 13.653333-3.413333 27.306667-17.066667 32.426667-78.506667 22.186667-114.346667 51.2-114.346667 69.973333 0 44.373333 165.546667 109.226667 426.666667 109.226667s426.666667-64.853333 426.666667-109.226667c0-18.773333-35.84-47.786667-114.346667-71.68-13.653333-3.413333-20.48-18.773333-17.066667-32.426666 3.413333-13.653333 18.773333-20.48 32.426667-17.066667 98.986667 29.013333 150.186667 71.68 150.186667 119.466667 0 107.52-240.64 162.133333-477.866667 162.133333z"  /><path  d="M512 797.013333c-5.12 0-10.24-1.706667-13.653333-3.413333-13.653333-8.533333-305.493333-203.093333-305.493334-435.2 0-172.373333 143.36-312.32 319.146667-312.32S831.146667 186.026667 831.146667 358.4c0 232.106667-291.84 426.666667-305.493334 435.2-3.413333 1.706667-8.533333 3.413333-13.653333 3.413333z m0-699.733333c-148.48 0-267.946667 117.76-267.946667 261.12 0 179.2 211.626667 341.333333 267.946667 382.293333 56.32-40.96 267.946667-204.8 267.946667-382.293333 0-143.36-119.466667-261.12-267.946667-261.12z"  /><path  d="M512 503.466667c-76.8 0-138.24-61.44-138.24-138.24s61.44-138.24 138.24-138.24 138.24 61.44 138.24 138.24-61.44 138.24-138.24 138.24z m0-225.28c-47.786667 0-87.04 39.253333-87.04 87.04s39.253333 87.04 87.04 87.04 87.04-39.253333 87.04-87.04-39.253333-87.04-87.04-87.04z"  /></svg>