<?xml version="1.0" standalone="no"?><!DOCTYPE svg PUBLIC "-//W3C//DTD SVG 1.1//EN" "http://www.w3.org/Graphics/SVG/1.1/DTD/svg11.dtd"><svg class="icon" width="64px" height="64.00px" viewBox="0 0 1024 1024" version="1.1" xmlns="http://www.w3.org/2000/svg"><path  d="M812.373333 989.866667H211.626667c-56.32 0-100.693333-46.08-100.693334-100.693334V134.826667C109.226667 80.213333 155.306667 34.133333 211.626667 34.133333h602.453333c56.32 0 100.693333 46.08 100.693333 100.693334V887.466667c0 56.32-46.08 102.4-102.4 102.4zM211.626667 85.333333c-27.306667 0-49.493333 22.186667-49.493334 49.493334V887.466667c0 27.306667 22.186667 49.493333 49.493334 49.493333h602.453333c27.306667 0 49.493333-22.186667 49.493333-49.493333V134.826667c0-27.306667-22.186667-49.493333-49.493333-49.493334H211.626667z"  /><path  d="M759.466667 329.386667H498.346667c-13.653333 0-25.6-11.946667-25.6-25.6s11.946667-25.6 25.6-25.6h261.12c13.653333 0 25.6 11.946667 25.6 25.6s-10.24 25.6-25.6 25.6zM264.533333 419.84c-6.826667 0-13.653333-1.706667-18.773333-6.826667-10.24-10.24-10.24-25.6 0-35.84l104.106667-104.106666c10.24-10.24 25.6-10.24 35.84 0s10.24 25.6 0 35.84l-104.106667 104.106666c-5.12 5.12-10.24 6.826667-17.066667 6.826667z"  /><path  d="M368.64 759.466667c-13.653333 0-25.6-11.946667-25.6-25.6V290.133333c0-13.653333 11.946667-25.6 25.6-25.6s25.6 11.946667 25.6 25.6v443.733334c0 13.653333-11.946667 25.6-25.6 25.6zM708.266667 459.093333H498.346667c-13.653333 0-25.6-11.946667-25.6-25.6s11.946667-25.6 25.6-25.6h208.213333c13.653333 0 25.6 11.946667 25.6 25.6s-10.24 25.6-23.893333 25.6zM655.36 590.506667h-157.013333c-13.653333 0-25.6-11.946667-25.6-25.6s11.946667-25.6 25.6-25.6h157.013333c13.653333 0 25.6 11.946667 25.6 25.6s-11.946667 25.6-25.6 25.6zM604.16 720.213333h-104.106667c-13.653333 0-25.6-11.946667-25.6-25.6s11.946667-25.6 25.6-25.6h104.106667c13.653333 0 25.6 11.946667 25.6 25.6s-11.946667 25.6-25.6 25.6z"  /></svg>