<?xml version="1.0" standalone="no"?><!DOCTYPE svg PUBLIC "-//W3C//DTD SVG 1.1//EN" "http://www.w3.org/Graphics/SVG/1.1/DTD/svg11.dtd"><svg class="icon" width="64px" height="64.00px" viewBox="0 0 1024 1024" version="1.1" xmlns="http://www.w3.org/2000/svg"><path  d="M721.92 967.68H138.24c-39.253333 0-69.973333-32.426667-69.973333-69.973333V452.266667c0-25.6 13.653333-49.493333 37.546666-61.44l150.186667-81.92c44.373333-23.893333 80.213333-59.733333 104.106667-104.106667l59.733333-107.52c11.946667-20.48 34.133333-34.133333 58.026667-34.133333h5.12c30.72 0 61.44 11.946667 83.626666 34.133333 23.893333 23.893333 37.546667 54.613333 39.253334 87.04l1.706666 25.6c3.413333 47.786667 0 97.28-10.24 143.36l-11.946666 47.786667 256-1.706667c22.186667 0 42.666667 10.24 56.32 27.306667 13.653333 17.066667 17.066667 40.96 11.946666 61.44l-121.173333 426.666666c-6.826667 32.426667-35.84 52.906667-66.56 52.906667z m-245.76-853.333333c-5.12 0-10.24 3.413333-13.653333 8.533333l-59.733334 107.52c-29.013333 52.906667-71.68 95.573333-124.586666 124.586667l-150.186667 81.92c-6.826667 3.413333-10.24 10.24-10.24 17.066666v445.44c0 10.24 8.533333 18.773333 18.773333 18.773334h583.68c8.533333 0 17.066667-5.12 18.773334-13.653334l121.173333-426.666666c1.706667-5.12 0-11.946667-3.413333-17.066667-3.413333-5.12-8.533333-6.826667-15.36-6.826667H583.68c-15.36 0-29.013333-6.826667-39.253333-18.773333-10.24-11.946667-13.653333-27.306667-10.24-42.666667l11.946666-51.2c10.24-42.666667 13.653333-85.333333 8.533334-128l-1.706667-25.6c-1.706667-20.48-10.24-39.253333-25.6-54.613333-11.946667-11.946667-29.013333-18.773333-47.786667-18.773333h-3.413333z"  /></svg>