<?xml version="1.0" standalone="no"?><!DOCTYPE svg PUBLIC "-//W3C//DTD SVG 1.1//EN" "http://www.w3.org/Graphics/SVG/1.1/DTD/svg11.dtd"><svg class="icon" width="64px" height="64.00px" viewBox="0 0 1024 1024" version="1.1" xmlns="http://www.w3.org/2000/svg"><path  d="M896 899.413333H489.813333c-11.946667 0-22.186667-8.533333-25.6-20.48 0-3.413333-20.48-92.16-110.933333-92.16s-109.226667 88.746667-110.933333 92.16c-1.706667 11.946667-13.653333 20.48-25.6 20.48H128c-51.2 0-93.866667-42.666667-93.866667-93.866666V218.453333c0-51.2 42.666667-93.866667 93.866667-93.866666h90.453333c11.946667 0 22.186667 8.533333 25.6 20.48 0 3.413333 20.48 92.16 110.933334 92.16s109.226667-88.746667 110.933333-92.16c1.706667-11.946667 13.653333-20.48 25.6-20.48h406.186667c51.2 0 93.866667 42.666667 93.866666 93.866666v587.093334c-1.706667 51.2-44.373333 93.866667-95.573333 93.866666z m-387.413333-51.2h387.413333c23.893333 0 42.666667-18.773333 42.666667-42.666666V218.453333c0-23.893333-18.773333-42.666667-42.666667-42.666666H508.586667c-17.066667 47.786667-63.146667 112.64-155.306667 112.64s-138.24-64.853333-155.306667-112.64H128c-23.893333 0-42.666667 18.773333-42.666667 42.666666v587.093334c0 23.893333 18.773333 42.666667 42.666667 42.666666h69.973333c17.066667-47.786667 63.146667-112.64 155.306667-112.64s138.24 64.853333 155.306667 112.64z"  /><path  d="M353.28 469.333333c-13.653333 0-25.6-11.946667-25.6-25.6v-46.08c0-13.653333 11.946667-25.6 25.6-25.6s25.6 11.946667 25.6 25.6V443.733333c0 15.36-10.24 25.6-25.6 25.6zM353.28 650.24c-13.653333 0-25.6-11.946667-25.6-25.6V580.266667c0-13.653333 11.946667-25.6 25.6-25.6s25.6 11.946667 25.6 25.6v44.373333c0 15.36-10.24 25.6-25.6 25.6zM783.36 469.333333H534.186667c-13.653333 0-25.6-11.946667-25.6-25.6s11.946667-25.6 25.6-25.6h249.173333c13.653333 0 25.6 11.946667 25.6 25.6s-11.946667 25.6-25.6 25.6zM783.36 605.866667H534.186667c-13.653333 0-25.6-11.946667-25.6-25.6s11.946667-25.6 25.6-25.6h249.173333c13.653333 0 25.6 11.946667 25.6 25.6s-11.946667 25.6-25.6 25.6z"  /></svg>