<?xml version="1.0" standalone="no"?><!DOCTYPE svg PUBLIC "-//W3C//DTD SVG 1.1//EN" "http://www.w3.org/Graphics/SVG/1.1/DTD/svg11.dtd"><svg class="icon" width="64px" height="64.00px" viewBox="0 0 1024 1024" version="1.1" xmlns="http://www.w3.org/2000/svg"><path  d="M896 808.96h-768c-51.2 0-93.866667-42.666667-93.866667-93.866667V179.2C34.133333 128 76.8 85.333333 128 85.333333h768c51.2 0 93.866667 42.666667 93.866667 93.866667v535.893333c0 52.906667-42.666667 93.866667-93.866667 93.866667zM128 136.533333C104.106667 136.533333 85.333333 157.013333 85.333333 179.2v535.893333c0 23.893333 18.773333 42.666667 42.666667 42.666667h768c23.893333 0 42.666667-18.773333 42.666667-42.666667V179.2C938.666667 157.013333 919.893333 136.533333 896 136.533333h-768zM781.653333 938.666667H242.346667c-13.653333 0-25.6-11.946667-25.6-25.6s11.946667-25.6 25.6-25.6h539.306666c13.653333 0 25.6 11.946667 25.6 25.6s-11.946667 25.6-25.6 25.6z"  /><path  d="M512 460.8c-51.2 0-93.866667-42.666667-93.866667-93.866667S460.8 273.066667 512 273.066667s93.866667 42.666667 93.866667 93.866666S563.2 460.8 512 460.8z m0-138.24c-23.893333 0-42.666667 18.773333-42.666667 42.666667S488.106667 409.6 512 409.6s42.666667-18.773333 42.666667-42.666667-18.773333-44.373333-42.666667-44.373333z"  /><path  d="M675.84 622.933333c-13.653333 0-25.6-11.946667-25.6-25.6 0-76.8-61.44-138.24-138.24-138.24s-138.24 61.44-138.24 138.24c0 13.653333-11.946667 25.6-25.6 25.6s-25.6-11.946667-25.6-25.6c0-104.106667 85.333333-189.44 189.44-189.44s189.44 85.333333 189.44 189.44c0 15.36-11.946667 25.6-25.6 25.6zM645.12 448.853333c-13.653333 0-25.6-11.946667-25.6-25.6s11.946667-25.6 25.6-25.6c18.773333 0 34.133333-15.36 34.133333-34.133333s-15.36-34.133333-34.133333-34.133333c-13.653333 0-25.6-11.946667-25.6-25.6s11.946667-25.6 25.6-25.6c46.08 0 85.333333 37.546667 85.333333 85.333333s-37.546667 85.333333-85.333333 85.333333z"  /><path  d="M786.773333 588.8c-13.653333 0-25.6-11.946667-25.6-25.6 0-63.146667-51.2-114.346667-114.346666-114.346667-13.653333 0-25.6-11.946667-25.6-25.6s11.946667-25.6 25.6-25.6c92.16 0 165.546667 75.093333 165.546666 165.546667 0 15.36-11.946667 25.6-25.6 25.6z"  /><path  d="M378.88 448.853333c-46.08 0-85.333333-37.546667-85.333333-85.333333s37.546667-85.333333 85.333333-85.333333c13.653333 0 25.6 11.946667 25.6 25.6s-11.946667 25.6-25.6 25.6c-18.773333 0-34.133333 15.36-34.133333 34.133333s15.36 34.133333 34.133333 34.133333c13.653333 0 25.6 11.946667 25.6 25.6s-11.946667 25.6-25.6 25.6z"  /><path  d="M237.226667 588.8c-13.653333 0-25.6-11.946667-25.6-25.6 0-92.16 75.093333-165.546667 165.546666-165.546667 13.653333 0 25.6 11.946667 25.6 25.6s-11.946667 25.6-25.6 25.6c-63.146667 0-114.346667 51.2-114.346666 114.346667 0 15.36-11.946667 25.6-25.6 25.6z"  /></svg>