<?xml version="1.0" standalone="no"?><!DOCTYPE svg PUBLIC "-//W3C//DTD SVG 1.1//EN" "http://www.w3.org/Graphics/SVG/1.1/DTD/svg11.dtd"><svg class="icon" width="64px" height="64.00px" viewBox="0 0 1024 1024" version="1.1" xmlns="http://www.w3.org/2000/svg"><path  d="M896 808.96h-768c-51.2 0-93.866667-42.666667-93.866667-93.866667V179.2C34.133333 128 76.8 85.333333 128 85.333333h768c51.2 0 93.866667 42.666667 93.866667 93.866667v535.893333c0 52.906667-42.666667 93.866667-93.866667 93.866667zM128 136.533333C104.106667 136.533333 85.333333 157.013333 85.333333 179.2v535.893333c0 23.893333 18.773333 42.666667 42.666667 42.666667h768c23.893333 0 42.666667-18.773333 42.666667-42.666667V179.2C938.666667 157.013333 919.893333 136.533333 896 136.533333h-768zM781.653333 938.666667H242.346667c-13.653333 0-25.6-11.946667-25.6-25.6s11.946667-25.6 25.6-25.6h539.306666c13.653333 0 25.6 11.946667 25.6 25.6s-11.946667 25.6-25.6 25.6z"  /><path  d="M512 363.52c-42.666667 0-76.8-34.133333-76.8-76.8s34.133333-76.8 76.8-76.8 76.8 34.133333 76.8 76.8-34.133333 76.8-76.8 76.8z m0-102.4c-13.653333 0-25.6 11.946667-25.6 25.6s11.946667 25.6 25.6 25.6 25.6-11.946667 25.6-25.6-11.946667-25.6-25.6-25.6z"  /><path  d="M633.173333 482.986667c-13.653333 0-25.6-11.946667-25.6-25.6 0-52.906667-42.666667-95.573333-95.573333-95.573334-52.906667 0-95.573333 42.666667-95.573333 95.573334 0 13.653333-11.946667 25.6-25.6 25.6s-25.6-11.946667-25.6-25.6c0-80.213333 66.56-146.773333 146.773333-146.773334 80.213333 0 146.773333 66.56 146.773333 146.773334 0 15.36-11.946667 25.6-25.6 25.6z"  /><path  d="M416.426667 522.24l-13.653334 102.4c0 3.413333-1.706667 6.826667-5.12 10.24-3.413333 3.413333-6.826667 3.413333-10.24 3.413333h-110.933333l13.653333-107.52-5.12-8.533333h131.413334z m-87.04 20.48l-11.946667 76.8h47.786667l11.946666-76.8h-47.786666zM493.226667 522.24l22.186666 73.386667 40.96-73.386667H597.333333l-15.36 116.053333H546.133333l10.24-61.44-30.72 54.613334H494.933333l-17.066666-51.2-8.533334 59.733333h-35.84l15.36-107.52-8.533333-8.533333h52.906667zM696.32 616.106667l3.413333-23.893334h-78.506666l10.24-68.266666h116.053333l-3.413333 34.133333h-39.253334l1.706667-13.653333h-37.546667l-5.12 29.013333h78.506667l-8.533333 51.2c0 1.706667 0 3.413333-1.706667 5.12-1.706667 1.706667-1.706667 3.413333-3.413333 5.12-1.706667 1.706667-3.413333 1.706667-5.12 3.413333-1.706667 0-3.413333 1.706667-5.12 1.706667h-102.4l3.413333-30.72 5.12 8.533333h71.68z"  /></svg>