<?xml version="1.0" standalone="no"?><!DOCTYPE svg PUBLIC "-//W3C//DTD SVG 1.1//EN" "http://www.w3.org/Graphics/SVG/1.1/DTD/svg11.dtd"><svg class="icon" width="64px" height="64.00px" viewBox="0 0 1024 1024" version="1.1" xmlns="http://www.w3.org/2000/svg"><path  d="M59.733333 336.213333c-13.653333 0-25.6-11.946667-25.6-25.6V110.933333C34.133333 68.266667 68.266667 34.133333 110.933333 34.133333h201.386667c13.653333 0 25.6 11.946667 25.6 25.6S325.973333 85.333333 310.613333 85.333333H110.933333C97.28 85.333333 85.333333 97.28 85.333333 110.933333v201.386667c0 13.653333-10.24 23.893333-25.6 23.893333zM310.613333 989.866667H110.933333C68.266667 989.866667 34.133333 955.733333 34.133333 913.066667V713.386667c0-13.653333 11.946667-25.6 25.6-25.6s25.6 10.24 25.6 25.6v201.386666c0 11.946667 11.946667 23.893333 25.6 23.893334h201.386667c13.653333 0 25.6 11.946667 25.6 25.6s-11.946667 25.6-27.306667 25.6zM913.066667 989.866667H713.386667c-13.653333 0-25.6-11.946667-25.6-25.6S699.733333 938.666667 713.386667 938.666667h201.386666c13.653333 0 23.893333-10.24 23.893334-23.893334V713.386667c0-13.653333 11.946667-25.6 25.6-25.6s25.6 11.946667 25.6 25.6v201.386666c0 40.96-34.133333 75.093333-76.8 75.093334zM964.266667 336.213333c-13.653333 0-25.6-11.946667-25.6-25.6V110.933333c0-13.653333-11.946667-25.6-25.6-25.6H713.386667c-13.653333 0-25.6-11.946667-25.6-25.6S698.026667 34.133333 713.386667 34.133333h201.386666C955.733333 34.133333 989.866667 68.266667 989.866667 110.933333v201.386667c0 13.653333-11.946667 23.893333-25.6 23.893333zM512 788.48c-151.893333 0-276.48-124.586667-276.48-276.48S360.106667 235.52 512 235.52 788.48 360.106667 788.48 512 663.893333 788.48 512 788.48z m0-501.76c-124.586667 0-225.28 100.693333-225.28 225.28S387.413333 737.28 512 737.28 737.28 636.586667 737.28 512 636.586667 286.72 512 286.72z"  /><path  d="M512 512m-75.093333 0a75.093333 75.093333 0 1 0 150.186666 0 75.093333 75.093333 0 1 0-150.186666 0Z"  /></svg>