<?xml version="1.0" standalone="no"?><!DOCTYPE svg PUBLIC "-//W3C//DTD SVG 1.1//EN" "http://www.w3.org/Graphics/SVG/1.1/DTD/svg11.dtd"><svg class="icon" width="64px" height="64.00px" viewBox="0 0 1024 1024" version="1.1" xmlns="http://www.w3.org/2000/svg"><path  d="M896 836.266667h-85.333333c-13.653333 0-25.6-11.946667-25.6-25.6V512c0-150.186667-122.88-273.066667-273.066667-273.066667s-273.066667 122.88-273.066667 273.066667v298.666667c0 13.653333-11.946667 25.6-25.6 25.6h-85.333333c-37.546667 0-68.266667-30.72-68.266667-68.266667V597.333333c0-37.546667 30.72-68.266667 68.266667-68.266666H187.733333v-17.066667c0-179.2 145.066667-324.266667 324.266667-324.266667s324.266667 145.066667 324.266667 324.266667v17.066667h59.733333c37.546667 0 68.266667 30.72 68.266667 68.266666v170.666667c0 37.546667-30.72 68.266667-68.266667 68.266667zM836.266667 785.066667h59.733333c10.24 0 17.066667-6.826667 17.066667-17.066667V597.333333c0-10.24-6.826667-17.066667-17.066667-17.066666H836.266667v204.8zM128 580.266667c-10.24 0-17.066667 6.826667-17.066667 17.066666v170.666667c0 10.24 6.826667 17.066667 17.066667 17.066667H187.733333V580.266667H128z"  /><path  d="M554.666667 836.266667c-10.24 0-20.48-6.826667-23.893334-17.066667l-61.44-182.613333-18.773333 54.613333c-3.413333 10.24-13.653333 17.066667-23.893333 17.066667h-85.333334c-13.653333 0-25.6-11.946667-25.6-25.6s11.946667-25.6 25.6-25.6h66.56l37.546667-110.933334c3.413333-10.24 13.653333-17.066667 23.893333-17.066666s20.48 6.826667 23.893334 17.066666l61.44 182.613334 18.773333-54.613334c3.413333-10.24 13.653333-17.066667 23.893333-17.066666h85.333334c13.653333 0 25.6 11.946667 25.6 25.6s-11.946667 25.6-25.6 25.6h-66.56L578.56 819.2c-3.413333 10.24-13.653333 17.066667-23.893333 17.066667z"  /></svg>