<?xml version="1.0" standalone="no"?><!DOCTYPE svg PUBLIC "-//W3C//DTD SVG 1.1//EN" "http://www.w3.org/Graphics/SVG/1.1/DTD/svg11.dtd"><svg class="icon" width="64px" height="64.00px" viewBox="0 0 1024 1024" version="1.1" xmlns="http://www.w3.org/2000/svg"><path  d="M776.533333 708.266667v-51.2c80.213333 0 145.066667-64.853333 145.066667-145.066667s-64.853333-145.066667-145.066667-145.066667v-51.2C884.053333 315.733333 972.8 404.48 972.8 512s-88.746667 196.266667-196.266667 196.266667z"  /><path  d="M264.533333 708.266667C157.013333 708.266667 68.266667 619.52 68.266667 512s88.746667-196.266667 196.266666-196.266667v51.2C184.32 366.933333 119.466667 431.786667 119.466667 512s64.853333 145.066667 145.066666 145.066667v51.2z"  /><path  d="M520.533333 964.266667c-13.653333 0-25.6-11.946667-25.6-25.6s11.946667-25.6 25.6-25.6C646.826667 913.066667 750.933333 808.96 750.933333 682.666667V341.333333c0-126.293333-104.106667-230.4-230.4-230.4S290.133333 215.04 290.133333 341.333333v341.333334c0 13.653333-11.946667 25.6-25.6 25.6S238.933333 696.32 238.933333 682.666667V341.333333c0-155.306667 126.293333-281.6 281.6-281.6S802.133333 186.026667 802.133333 341.333333v341.333334c0 155.306667-126.293333 281.6-281.6 281.6z"  /></svg>