<?xml version="1.0" standalone="no"?><!DOCTYPE svg PUBLIC "-//W3C//DTD SVG 1.1//EN" "http://www.w3.org/Graphics/SVG/1.1/DTD/svg11.dtd"><svg class="icon" width="64px" height="64.00px" viewBox="0 0 1024 1024" version="1.1" xmlns="http://www.w3.org/2000/svg"><path  d="M512 566.613333c-9.386667 0-18.944-2.389333-27.306667-7.168l-216.746666-122.026666a54.920533 54.920533 0 0 1-28.330667-48.469334c0-20.309333 10.581333-38.570667 28.330667-48.469333l216.746666-122.026667c16.896-9.386667 37.717333-9.557333 54.613334 0l216.746666 122.026667a55.125333 55.125333 0 0 1 28.330667 48.469333c0 20.309333-10.581333 38.4-28.330667 48.469334l-216.746666 122.026666c-8.362667 4.778667-17.92 7.168-27.306667 7.168z m0-303.957333c-0.682667 0-1.536 0.170667-2.218667 0.512l-216.746666 122.026667c-1.536 0.853333-2.218667 2.218667-2.218667 3.925333s0.682667 3.072 2.218667 3.925333l216.746666 122.026667c1.365333 0.853333 3.072 0.682667 4.437334 0l216.746666-122.026667c1.536-0.853333 2.218667-2.218667 2.218667-3.925333s-0.682667-3.072-2.218667-3.925333l-216.746666-122.026667a5.256533 5.256533 0 0 0-2.218667-0.512z"  /><path  d="M512 699.904c-9.386667 0-18.944-2.389333-27.306667-7.168l-216.746666-122.026667a55.125333 55.125333 0 0 1-28.330667-48.469333c0-20.309333 10.581333-38.4 28.330667-48.469333l71.850666-40.448c12.288-6.997333 27.989333-2.56 34.816 9.728s2.56 27.989333-9.728 34.816l-71.850666 40.448c-1.536 0.853333-2.218667 2.218667-2.218667 3.925333s0.682667 3.072 2.218667 3.925333l216.746666 122.026667c1.365333 0.682667 2.901333 0.682667 4.266667 0l216.746667-122.026667c1.536-0.853333 2.218667-2.218667 2.218666-3.925333s-0.682667-3.072-2.218666-3.925333L658.944 477.866667c-12.288-6.997333-16.725333-22.528-9.728-34.816s22.528-16.725333 34.816-9.728l71.850667 40.448c17.749333 9.898667 28.330667 28.16 28.330666 48.469333s-10.581333 38.570667-28.330666 48.469333l-216.746667 122.026667c-8.192 4.778667-17.749333 7.168-27.136 7.168z"  /><path  d="M512 812.544c-9.386667 0-18.944-2.389333-27.306667-7.168l-216.746666-122.026667a55.125333 55.125333 0 0 1-28.330667-48.469333c0-20.309333 10.581333-38.570667 28.330667-48.469333l53.589333-30.208c12.288-6.997333 27.989333-2.56 34.816 9.728 6.997333 12.288 2.56 27.989333-9.728 34.816l-53.589333 30.208c-1.536 0.853333-2.218667 2.218667-2.218667 3.925333s0.682667 3.072 2.218667 3.925333l216.746666 122.026667c1.365333 0.682667 3.072 0.682667 4.437334 0l216.746666-122.026667c1.536-0.853333 2.218667-2.218667 2.218667-3.925333s-0.682667-3.072-2.218667-3.925333l-53.589333-30.208c-12.288-6.997333-16.725333-22.528-9.728-34.816 6.997333-12.288 22.528-16.725333 34.816-9.728l53.589333 30.208c17.749333 9.898667 28.330667 28.16 28.330667 48.469333s-10.581333 38.570667-28.330667 48.469333l-216.746666 122.026667c-8.362667 4.778667-17.92 7.168-27.306667 7.168z"  /><path  d="M512 989.866667C248.490667 989.866667 34.133333 775.509333 34.133333 512S248.490667 34.133333 512 34.133333s477.866667 214.357333 477.866667 477.866667-214.357333 477.866667-477.866667 477.866667z m0-904.533334C276.650667 85.333333 85.333333 276.650667 85.333333 512s191.317333 426.666667 426.666667 426.666667 426.666667-191.317333 426.666667-426.666667S747.349333 85.333333 512 85.333333z"  /></svg>