<?xml version="1.0" standalone="no"?><!DOCTYPE svg PUBLIC "-//W3C//DTD SVG 1.1//EN" "http://www.w3.org/Graphics/SVG/1.1/DTD/svg11.dtd"><svg class="icon" width="64px" height="64.00px" viewBox="0 0 1024 1024" version="1.1" xmlns="http://www.w3.org/2000/svg"><path  d="M387.413333 385.706667c-52.906667 0-97.28-42.666667-97.28-97.28s42.666667-97.28 97.28-97.28 97.28 42.666667 97.28 97.28-44.373333 97.28-97.28 97.28z m0-141.653334c-25.6 0-46.08 20.48-46.08 46.08s20.48 46.08 46.08 46.08 46.08-20.48 46.08-46.08-20.48-46.08-46.08-46.08zM708.266667 599.04c-52.906667 0-97.28-42.666667-97.28-97.28s42.666667-97.28 97.28-97.28 97.28 42.666667 97.28 97.28-44.373333 97.28-97.28 97.28z m0-141.653333c-25.6 0-46.08 20.48-46.08 46.08s20.48 46.08 46.08 46.08 46.08-20.48 46.08-46.08-22.186667-46.08-46.08-46.08zM387.413333 812.373333c-52.906667 0-97.28-42.666667-97.28-97.28s42.666667-97.28 97.28-97.28 97.28 42.666667 97.28 97.28-44.373333 97.28-97.28 97.28z m0-141.653333c-25.6 0-46.08 20.48-46.08 46.08s20.48 46.08 46.08 46.08 46.08-20.48 46.08-46.08-20.48-46.08-46.08-46.08z"  /><path  d="M315.733333 742.4H157.013333c-13.653333 0-25.6-11.946667-25.6-25.6s11.946667-25.6 25.6-25.6h160.426667c13.653333 0 25.6 11.946667 25.6 25.6s-11.946667 25.6-27.306667 25.6zM866.986667 742.4h-409.6c-13.653333 0-25.6-11.946667-25.6-25.6s11.946667-25.6 25.6-25.6h409.6c13.653333 0 25.6 11.946667 25.6 25.6s-10.24 25.6-25.6 25.6zM315.733333 315.733333H157.013333c-13.653333 0-25.6-11.946667-25.6-25.6s11.946667-25.6 25.6-25.6h160.426667c13.653333 0 25.6 11.946667 25.6 25.6s-11.946667 25.6-27.306667 25.6zM866.986667 315.733333h-409.6c-13.653333 0-25.6-11.946667-25.6-25.6s11.946667-25.6 25.6-25.6h409.6c13.653333 0 25.6 11.946667 25.6 25.6s-10.24 25.6-25.6 25.6z"  /><path  d="M157.013333 884.053333c-13.653333 0-25.6-11.946667-25.6-25.6V146.773333c0-13.653333 11.946667-25.6 25.6-25.6s25.6 11.946667 25.6 25.6v711.68c0 13.653333-11.946667 25.6-25.6 25.6z"  /><path  d="M636.586667 529.066667H157.013333c-13.653333 0-25.6-11.946667-25.6-25.6S141.653333 477.866667 157.013333 477.866667h479.573334c13.653333 0 25.6 11.946667 25.6 25.6s-11.946667 25.6-25.6 25.6zM866.986667 529.066667h-88.746667c-13.653333 0-25.6-11.946667-25.6-25.6s11.946667-25.6 25.6-25.6h88.746667c13.653333 0 25.6 11.946667 25.6 25.6s-10.24 25.6-25.6 25.6z"  /></svg>