<?xml version="1.0" standalone="no"?><!DOCTYPE svg PUBLIC "-//W3C//DTD SVG 1.1//EN" "http://www.w3.org/Graphics/SVG/1.1/DTD/svg11.dtd"><svg class="icon" width="64px" height="64.00px" viewBox="0 0 1024 1024" version="1.1" xmlns="http://www.w3.org/2000/svg"><path  d="M512 989.866667c-3.413333 0-5.12 0-8.533333-1.706667C256 906.24 88.746667 675.84 88.746667 413.013333V175.786667c0-11.946667 6.826667-22.186667 18.773333-23.893334l397.653333-116.053333c5.12-1.706667 10.24-1.706667 13.653334 0l397.653333 116.053333c10.24 3.413333 18.773333 13.653333 18.773333 23.893334v237.226666c0 261.12-167.253333 493.226667-414.72 575.146667-3.413333 1.706667-5.12 1.706667-8.533333 1.706667zM139.946667 194.56v218.453333C139.946667 650.24 290.133333 860.16 512 936.96c221.866667-78.506667 372.053333-286.72 372.053333-523.946667V194.56L512 87.04 139.946667 194.56z"  /><path  d="M382.293333 474.453333c6.826667-10.24 11.946667-15.36 15.36-13.653333 3.413333 1.706667 3.413333 8.533333 0 18.773333-5.12 13.653333-11.946667 35.84-20.48 66.56-23.893333 66.56-40.96 119.466667-52.906666 158.72-3.413333-5.12-8.533333-11.946667-15.36-20.48-20.48-23.893333-30.72-39.253333-34.133334-51.2-1.706667-6.826667 0-10.24 1.706667-13.653333 3.413333-1.706667 6.826667 0 8.533333 1.706667 5.12 5.12 8.533333 3.413333 13.653334-5.12 30.72-46.08 58.026667-93.866667 83.626666-141.653334z m-88.746666-80.213333c35.84 18.773333 54.613333 30.72 59.733333 39.253333 0 15.36-3.413333 30.72-8.533333 44.373334-5.12 8.533333-10.24 10.24-18.773334 1.706666-17.066667-22.186667-30.72-46.08-44.373333-73.386666-3.413333-6.826667-3.413333-10.24-1.706667-11.946667 1.706667-1.706667 6.826667-1.706667 13.653334 0z m56.32-110.933333c39.253333 13.653333 61.44 23.893333 63.146666 27.306666 5.12 8.533333 3.413333 22.186667-1.706666 40.96-1.706667 8.533333-3.413333 11.946667-5.12 11.946667-3.413333 1.706667-6.826667 0-11.946667-5.12-22.186667-20.48-40.96-40.96-58.026667-64.853333-3.413333-6.826667-3.413333-10.24-1.706666-11.946667 3.413333 0 8.533333 0 15.36 1.706667z m324.266666 64.853333c3.413333 1.706667 8.533333 8.533333 18.773334 18.773333l5.12 5.12c3.413333 6.826667 0 8.533333-6.826667 8.533334-11.946667 3.413333-32.426667 6.826667-63.146667 11.946666-20.48 5.12-34.133333 8.533333-44.373333 8.533334-1.706667 25.6-1.706667 52.906667-1.706667 78.506666 29.013333-6.826667 71.68-13.653333 129.706667-23.893333 17.066667-3.413333 29.013333-5.12 37.546667-6.826667 6.826667-1.706667 13.653333 0 18.773333 5.12 6.826667 8.533333 15.36 17.066667 20.48 30.72 1.706667 5.12 1.706667 8.533333 1.706667 8.533334 0 1.706667-1.706667 1.706667-6.826667 1.706666-44.373333 0-117.76 8.533333-218.453333 23.893334 8.533333 5.12 20.48 8.533333 32.426666 11.946666-8.533333 6.826667-18.773333 17.066667-32.426666 32.426667-5.12 6.826667-8.533333 10.24-11.946667 13.653333-23.893333 29.013333-47.786667 54.613333-71.68 73.386667 20.48-3.413333 71.68-13.653333 157.013333-30.72-3.413333-5.12-8.533333-13.653333-13.653333-25.6-6.826667-10.24-10.24-18.773333-13.653333-25.6-1.706667-5.12-1.706667-6.826667 0-8.533333 3.413333 0 6.826667 0 11.946666 1.706666 32.426667 20.48 61.44 40.96 85.333334 63.146667 6.826667 5.12 8.533333 10.24 8.533333 15.36 0 3.413333 0 8.533333-1.706667 13.653333 0 13.653333-1.706667 23.893333-5.12 30.72-1.706667 6.826667-3.413333 10.24-6.826666 11.946667-3.413333 1.706667-6.826667 0-8.533334-5.12-1.706667-1.706667-5.12-5.12-8.533333-11.946667-15.36-15.36-25.6-29.013333-32.426667-39.253333-100.693333 23.893333-165.546667 46.08-197.973333 66.56-5.12-18.773333-15.36-35.84-32.426667-51.2 22.186667-10.24 39.253333-22.186667 51.2-34.133333 30.72-34.133333 51.2-66.56 63.146667-98.986667-29.013333 5.12-61.44 10.24-97.28 18.773333-6.826667 0-11.946667-1.706667-15.36-5.12-5.12-3.413333-13.653333-11.946667-27.306667-25.6 22.186667 0 71.68-8.533333 151.893334-25.6v-78.506666c-6.826667 1.706667-15.36 3.413333-27.306667 5.12-20.48 3.413333-30.72 5.12-34.133333 5.12h-1.706667c-15.36-6.826667-29.013333-15.36-39.253333-25.6 13.653333-1.706667 42.666667-6.826667 87.04-15.36 6.826667-1.706667 13.653333-3.413333 15.36-5.12v-83.626667c0-23.893333-5.12-46.08-15.36-71.68 27.306667 8.533333 51.2 13.653333 69.973333 13.653333-8.533333 17.066667-11.946667 44.373333-13.653333 83.626667v47.786667c15.36-3.413333 35.84-6.826667 63.146666-13.653334 6.826667-1.706667 13.653333-1.706667 15.36-1.706666-1.706667-1.706667 1.706667-1.706667 5.12 3.413333z"  /></svg>