<?xml version="1.0" standalone="no"?><!DOCTYPE svg PUBLIC "-//W3C//DTD SVG 1.1//EN" "http://www.w3.org/Graphics/SVG/1.1/DTD/svg11.dtd"><svg class="icon" width="64px" height="64.00px" viewBox="0 0 1024 1024" version="1.1" xmlns="http://www.w3.org/2000/svg"><path  d="M363.52 392.533333H80.213333c-13.653333 0-25.6-11.946667-25.6-25.6V83.626667c0-13.653333 11.946667-25.6 25.6-25.6h285.013334c13.653333 0 25.6 11.946667 25.6 25.6v285.013333c-1.706667 13.653333-11.946667 23.893333-27.306667 23.893333zM105.813333 341.333333h233.813334V109.226667H105.813333V341.333333zM363.52 962.56H80.213333c-13.653333 0-25.6-11.946667-25.6-25.6V651.946667c0-13.653333 11.946667-25.6 25.6-25.6h285.013334c13.653333 0 25.6 11.946667 25.6 25.6v285.013333c-1.706667 13.653333-11.946667 25.6-27.306667 25.6z m-257.706667-51.2h233.813334V677.546667H105.813333v233.813333zM933.546667 962.56H648.533333c-13.653333 0-25.6-11.946667-25.6-25.6V651.946667c0-13.653333 11.946667-25.6 25.6-25.6h285.013334c13.653333 0 25.6 11.946667 25.6 25.6v285.013333c0 13.653333-11.946667 25.6-25.6 25.6z m-259.413334-51.2h233.813334V677.546667H674.133333v233.813333zM933.546667 392.533333H648.533333c-13.653333 0-25.6-11.946667-25.6-25.6V83.626667c0-13.653333 11.946667-25.6 25.6-25.6h285.013334c13.653333 0 25.6 11.946667 25.6 25.6v285.013333c0 13.653333-11.946667 23.893333-25.6 23.893333z m-259.413334-51.2h233.813334V109.226667H674.133333V341.333333zM506.88 535.893333c-13.653333 0-25.6-11.946667-25.6-25.6v-426.666666c0-13.653333 11.946667-25.6 25.6-25.6s25.6 11.946667 25.6 25.6v426.666666c0 13.653333-11.946667 25.6-25.6 25.6zM506.88 962.56c-13.653333 0-25.6-11.946667-25.6-25.6V651.946667c0-13.653333 11.946667-25.6 25.6-25.6s25.6 11.946667 25.6 25.6v285.013333c0 13.653333-11.946667 25.6-25.6 25.6z"  /><path  d="M506.88 535.893333h-426.666667c-13.653333 0-25.6-11.946667-25.6-25.6s11.946667-25.6 25.6-25.6h426.666667c13.653333 0 25.6 11.946667 25.6 25.6s-11.946667 25.6-25.6 25.6zM933.546667 535.893333H648.533333c-13.653333 0-25.6-11.946667-25.6-25.6s11.946667-25.6 25.6-25.6h285.013334c13.653333 0 25.6 11.946667 25.6 25.6s-11.946667 25.6-25.6 25.6z"  /></svg>