<?xml version="1.0" standalone="no"?><!DOCTYPE svg PUBLIC "-//W3C//DTD SVG 1.1//EN" "http://www.w3.org/Graphics/SVG/1.1/DTD/svg11.dtd"><svg class="icon" width="64px" height="64.00px" viewBox="0 0 1024 1024" version="1.1" xmlns="http://www.w3.org/2000/svg"><path  d="M424.96 442.026667H93.866667c-13.653333 0-25.6-11.946667-25.6-25.6V85.333333c0-13.653333 11.946667-25.6 25.6-25.6h331.093333c13.653333 0 25.6 11.946667 25.6 25.6v331.093334c0 15.36-10.24 25.6-25.6 25.6zM119.466667 390.826667h279.893333V110.933333H119.466667v279.893334zM424.96 964.266667H93.866667c-13.653333 0-25.6-11.946667-25.6-25.6V605.866667c0-13.653333 11.946667-25.6 25.6-25.6h331.093333c13.653333 0 25.6 11.946667 25.6 25.6V938.666667c0 13.653333-10.24 25.6-25.6 25.6zM119.466667 913.066667h279.893333V631.466667H119.466667v281.6zM947.2 442.026667H616.106667c-13.653333 0-25.6-11.946667-25.6-25.6V85.333333c0-13.653333 11.946667-25.6 25.6-25.6h331.093333c13.653333 0 25.6 10.24 25.6 25.6v331.093334c0 15.36-11.946667 25.6-25.6 25.6z m-305.493333-51.2H921.6V110.933333H641.706667v279.893334zM638.293333 964.266667c-13.653333 0-25.6-11.946667-25.6-25.6V605.866667c0-13.653333 11.946667-25.6 25.6-25.6s25.6 11.946667 25.6 25.6V938.666667c0 13.653333-10.24 25.6-25.6 25.6zM923.306667 964.266667c-13.653333 0-25.6-11.946667-25.6-25.6V605.866667c0-13.653333 11.946667-25.6 25.6-25.6s25.6 11.946667 25.6 25.6V938.666667c0 13.653333-11.946667 25.6-25.6 25.6z"  /></svg>