<?xml version="1.0" standalone="no"?><!DOCTYPE svg PUBLIC "-//W3C//DTD SVG 1.1//EN" "http://www.w3.org/Graphics/SVG/1.1/DTD/svg11.dtd"><svg class="icon" width="64px" height="64.00px" viewBox="0 0 1024 1024" version="1.1" xmlns="http://www.w3.org/2000/svg"><path  d="M512 486.4c-6.826667 0-15.36-3.413333-20.48-8.533333l-124.586667-150.186667c-8.533333-10.24-6.826667-27.306667 3.413334-35.84 10.24-8.533333 27.306667-6.826667 35.84 3.413333l105.813333 126.293334 105.813333-126.293334c8.533333-10.24 25.6-11.946667 35.84-3.413333 10.24 8.533333 11.946667 25.6 3.413334 35.84L532.48 477.866667c-5.12 5.12-13.653333 8.533333-20.48 8.533333z"  /><path  d="M960.853333 547.84c-15.36 0-25.6-11.946667-25.6-27.306667 0-11.946667 6.826667-307.2-295.253333-411.306666C337.92 5.12 160.426667 271.36 158.72 274.773333c-8.533333 11.946667-23.893333 15.36-35.84 6.826667-11.946667-8.533333-15.36-23.893333-6.826667-35.84 1.706667-1.706667 201.386667-302.08 541.013334-184.32 337.92 117.76 329.386667 459.093333 329.386666 462.506667 0 13.653333-11.946667 23.893333-25.6 23.893333zM527.36 989.866667c-40.96 0-85.333333-5.12-133.12-17.066667C40.96 880.64 37.546667 513.706667 37.546667 510.293333c0-13.653333 11.946667-25.6 25.6-25.6s25.6 11.946667 25.6 25.6 5.12 331.093333 317.44 411.306667c312.32 81.92 452.266667-163.84 457.386666-174.08 6.826667-11.946667 22.186667-17.066667 34.133334-10.24s17.066667 22.186667 10.24 34.133333c0 3.413333-121.173333 218.453333-380.586667 218.453334z"  /><path  d="M960.853333 535.893333c-13.653333 0-25.6-11.946667-25.6-25.6V110.933333c0-13.653333 11.946667-25.6 25.6-25.6s25.6 11.946667 25.6 25.6v399.36c0 13.653333-10.24 25.6-25.6 25.6zM63.146667 935.253333c-13.653333 0-25.6-11.946667-25.6-25.6V510.293333c0-13.653333 11.946667-25.6 25.6-25.6s25.6 11.946667 25.6 25.6v399.36c0 13.653333-11.946667 25.6-25.6 25.6zM662.186667 634.88H361.813333c-13.653333 0-25.6-11.946667-25.6-25.6s11.946667-25.6 25.6-25.6h300.373334c13.653333 0 25.6 11.946667 25.6 25.6s-11.946667 25.6-25.6 25.6zM662.186667 486.4H361.813333c-13.653333 0-25.6-11.946667-25.6-25.6s11.946667-25.6 25.6-25.6h300.373334c13.653333 0 25.6 11.946667 25.6 25.6s-11.946667 25.6-25.6 25.6z"  /><path  d="M512 785.066667c-13.653333 0-25.6-11.946667-25.6-25.6V460.8c0-13.653333 11.946667-25.6 25.6-25.6s25.6 11.946667 25.6 25.6v300.373333c0 13.653333-11.946667 23.893333-25.6 23.893334z"  /></svg>