<?xml version="1.0" standalone="no"?><!DOCTYPE svg PUBLIC "-//W3C//DTD SVG 1.1//EN" "http://www.w3.org/Graphics/SVG/1.1/DTD/svg11.dtd"><svg class="icon" width="64px" height="64.00px" viewBox="0 0 1024 1024" version="1.1" xmlns="http://www.w3.org/2000/svg"><path  d="M918.186667 945.493333H104.106667c-39.253333 0-69.973333-32.426667-69.973334-71.68V285.013333c0-39.253333 32.426667-69.973333 69.973334-69.973333h814.08c39.253333 0 71.68 32.426667 71.68 69.973333v588.8c0 39.253333-32.426667 71.68-71.68 71.68zM104.106667 266.24c-10.24 0-18.773333 8.533333-18.773334 18.773333v588.8c0 10.24 8.533333 20.48 18.773334 20.48h814.08c10.24 0 20.48-8.533333 20.48-20.48V285.013333c0-10.24-8.533333-18.773333-20.48-18.773333H104.106667z"  /><path  d="M512 537.6c-6.826667 0-13.653333-1.706667-18.773333-6.826667l-112.64-112.64c-10.24-10.24-10.24-25.6 0-35.84s25.6-10.24 35.84 0L512 477.866667l95.573333-95.573334c10.24-10.24 25.6-10.24 35.84 0s10.24 25.6 0 35.84l-112.64 112.64c-5.12 5.12-11.946667 6.826667-18.773333 6.826667z"  /><path  d="M648.533333 559.786667H375.466667c-13.653333 0-25.6-11.946667-25.6-25.6s11.946667-25.6 25.6-25.6h273.066666c13.653333 0 25.6 11.946667 25.6 25.6s-11.946667 25.6-25.6 25.6zM648.533333 696.32H375.466667c-13.653333 0-25.6-11.946667-25.6-25.6s11.946667-25.6 25.6-25.6h273.066666c13.653333 0 25.6 11.946667 25.6 25.6s-11.946667 25.6-25.6 25.6z"  /><path  d="M512 786.773333c-13.653333 0-25.6-11.946667-25.6-25.6V534.186667c0-13.653333 11.946667-25.6 25.6-25.6s25.6 11.946667 25.6 25.6v226.986666c0 13.653333-11.946667 25.6-25.6 25.6zM873.813333 131.413333H150.186667C136.533333 131.413333 124.586667 119.466667 124.586667 105.813333S136.533333 80.213333 150.186667 80.213333h723.626666c13.653333 0 25.6 11.946667 25.6 25.6s-11.946667 25.6-25.6 25.6z"  /></svg>