<?xml version="1.0" standalone="no"?><!DOCTYPE svg PUBLIC "-//W3C//DTD SVG 1.1//EN" "http://www.w3.org/Graphics/SVG/1.1/DTD/svg11.dtd"><svg class="icon" width="64px" height="64.00px" viewBox="0 0 1024 1024" version="1.1" xmlns="http://www.w3.org/2000/svg"><path  d="M703.146667 977.92H34.133333V728.746667h122.88c20.48-20.48 80.213333-75.093333 143.36-88.746667H614.4c39.253333 0 69.973333 32.426667 69.973333 69.973333 0 39.253333-32.426667 69.973333-69.973333 69.973334h-131.413333c-1.706667 0-3.413333 1.706667-3.413334 3.413333s0 1.706667 1.706667 3.413333c0 0 1.706667 1.706667 3.413333 1.706667h221.866667l167.253333-136.533333c30.72-25.6 75.093333-20.48 100.693334 10.24 11.946667 15.36 17.066667 34.133333 15.36 52.906666-1.706667 18.773333-10.24 35.84-25.6 47.786667L703.146667 977.92zM85.333333 926.72h599.04l245.76-203.093333c3.413333-3.413333 6.826667-8.533333 6.826667-13.653334 0-5.12-1.706667-10.24-5.12-15.36-6.826667-8.533333-20.48-10.24-29.013333-1.706666l-182.613334 148.48h-238.933333c-15.36 0-29.013333-5.12-39.253333-15.36-10.24-10.24-17.066667-23.893333-17.066667-39.253334 0-30.72 25.6-54.613333 54.613333-54.613333H614.4c10.24 0 18.773333-8.533333 18.773333-18.773333s-8.533333-18.773333-18.773333-18.773334H310.613333c-51.2 13.653333-105.813333 63.146667-122.88 81.92l-6.826666 8.533334H85.333333v141.653333zM512 314.026667c-6.826667 0-15.36-3.413333-20.48-8.533334L426.666667 226.986667c-8.533333-10.24-6.826667-27.306667 3.413333-35.84s27.306667-6.826667 35.84 3.413333l46.08 54.613333 46.08-54.613333c8.533333-10.24 25.6-11.946667 35.84-3.413333 10.24 8.533333 11.946667 25.6 3.413333 35.84l-66.56 78.506666c-3.413333 6.826667-11.946667 8.533333-18.773333 8.533334zM590.506667 394.24h-158.72c-13.653333 0-25.6-11.946667-25.6-25.6s11.946667-25.6 25.6-25.6h158.72c13.653333 0 25.6 11.946667 25.6 25.6s-10.24 25.6-25.6 25.6z"  /><path  d="M590.506667 314.026667h-158.72c-13.653333 0-25.6-11.946667-25.6-25.6s11.946667-25.6 25.6-25.6h158.72c13.653333 0 25.6 11.946667 25.6 25.6s-10.24 25.6-25.6 25.6z"  /><path  d="M512 472.746667c-13.653333 0-25.6-11.946667-25.6-25.6v-158.72c0-13.653333 11.946667-25.6 25.6-25.6s25.6 11.946667 25.6 25.6v158.72c0 13.653333-11.946667 25.6-25.6 25.6z"  /><path  d="M512 576.853333c-136.533333 0-247.466667-110.933333-247.466667-247.466666S375.466667 81.92 512 81.92s247.466667 110.933333 247.466667 247.466667S648.533333 576.853333 512 576.853333z m0-443.733333c-107.52 0-196.266667 88.746667-196.266667 196.266667S404.48 525.653333 512 525.653333s196.266667-88.746667 196.266667-196.266666S619.52 133.12 512 133.12z"  /></svg>