<?xml version="1.0" standalone="no"?><!DOCTYPE svg PUBLIC "-//W3C//DTD SVG 1.1//EN" "http://www.w3.org/Graphics/SVG/1.1/DTD/svg11.dtd"><svg class="icon" width="64px" height="64.00px" viewBox="0 0 1024 1024" version="1.1" xmlns="http://www.w3.org/2000/svg"><path  d="M918.186667 899.413333H104.106667c-39.253333 0-69.973333-32.426667-69.973334-69.973333V194.56c0-39.253333 32.426667-69.973333 69.973334-69.973333h814.08c39.253333 0 71.68 32.426667 71.68 69.973333v633.173333c0 39.253333-32.426667 71.68-71.68 71.68zM104.106667 175.786667c-10.24 0-18.773333 8.533333-18.773334 18.773333v633.173333c0 10.24 8.533333 18.773333 18.773334 18.773334h814.08c10.24 0 20.48-8.533333 20.48-18.773334V194.56c0-10.24-8.533333-18.773333-20.48-18.773333H104.106667z"  /><path  d="M964.266667 356.693333h-904.533334c-13.653333 0-25.6-11.946667-25.6-25.6s11.946667-25.6 25.6-25.6h904.533334c13.653333 0 25.6 11.946667 25.6 25.6s-11.946667 25.6-25.6 25.6zM783.36 718.506667H580.266667c-13.653333 0-25.6-11.946667-25.6-25.6s11.946667-25.6 25.6-25.6h203.093333c13.653333 0 25.6 11.946667 25.6 25.6s-11.946667 25.6-25.6 25.6z"  /><path  d="M964.266667 583.68c-13.653333 0-25.6-11.946667-25.6-25.6V194.56c0-13.653333 11.946667-25.6 25.6-25.6s25.6 11.946667 25.6 25.6v361.813333c0 15.36-11.946667 27.306667-25.6 27.306667zM59.733333 583.68c-13.653333 0-25.6-11.946667-25.6-25.6V194.56c0-13.653333 11.946667-25.6 25.6-25.6s25.6 11.946667 25.6 25.6v361.813333c0 15.36-11.946667 27.306667-25.6 27.306667z"  /></svg>