<?xml version="1.0" standalone="no"?><!DOCTYPE svg PUBLIC "-//W3C//DTD SVG 1.1//EN" "http://www.w3.org/Graphics/SVG/1.1/DTD/svg11.dtd"><svg class="icon" width="64px" height="64.00px" viewBox="0 0 1024 1024" version="1.1" xmlns="http://www.w3.org/2000/svg"><path  d="M836.266667 989.866667H187.733333a94.037333 94.037333 0 0 1-93.866666-93.866667v-768C93.866667 76.288 136.021333 34.133333 187.733333 34.133333h648.533334c51.712 0 93.866667 42.154667 93.866666 93.866667v768c0 51.712-42.154667 93.866667-93.866666 93.866667zM187.733333 85.333333a42.666667 42.666667 0 0 0-42.666666 42.666667v768A42.666667 42.666667 0 0 0 187.733333 938.666667h648.533334a42.666667 42.666667 0 0 0 42.666666-42.666667v-768A42.666667 42.666667 0 0 0 836.266667 85.333333H187.733333z"  /><path  d="M512 307.2c-41.301333 0-74.752-33.450667-74.752-74.752S470.698667 157.696 512 157.696h0.853333l48.298667 0.512c13.994667 0.170667 25.258667 11.434667 25.429333 25.6l0.170667 47.786667c0 41.984-33.450667 75.605333-74.752 75.605333z m0.512-98.304c-13.653333 0.170667-24.234667 10.581333-24.234667 23.552 0 12.970667 10.581333 23.552 23.552 23.552s23.552-10.581333 23.552-23.552v-23.381333l-22.869333-0.170667zM638.464 481.962667H385.536c-14.165333 0-25.6-11.434667-25.6-25.6v-8.362667c0-34.474667 0-53.418667 8.874667-70.826667 7.850667-15.530667 20.309333-27.818667 35.669333-35.669333 17.578667-8.874667 36.522667-8.874667 70.826667-8.874667h73.045333c34.474667 0 53.418667 0 70.826667 8.874667 15.530667 7.850667 27.818667 20.309333 35.669333 35.669333 8.874667 17.578667 8.874667 36.522667 8.874667 70.826667v8.362667c0.341333 13.994667-11.093333 25.6-25.258667 25.6z m-227.157333-51.2h201.386666c-0.170667-15.530667-0.682667-25.6-3.242666-30.378667-2.901333-5.802667-7.509333-10.410667-13.312-13.312-6.485333-3.242667-22.016-3.242667-47.616-3.242667h-73.045334c-25.6 0-41.130667 0-47.616 3.413334-5.802667 2.901333-10.410667 7.509333-13.312 13.312-2.56 4.608-3.242667 14.677333-3.242666 30.208zM673.450667 649.386667l11.605333 35.669333c1.194667 3.413333 4.266667 5.802667 7.850667 5.802667h37.546666c8.021333 0 11.434667 10.410667 4.949334 15.018666l-30.378667 22.016c-2.901333 2.048-4.096 5.802667-3.072 9.386667l11.605333 35.669333c2.56 7.68-6.314667 13.994667-12.8 9.386667l-30.378666-22.016a8.465067 8.465067 0 0 0-9.728 0l-30.378667 22.016c-6.485333 4.778667-15.36-1.706667-12.8-9.386667l11.605333-35.669333c1.194667-3.413333-0.170667-7.168-3.072-9.386667l-30.378666-22.016a8.2944 8.2944 0 0 1 4.949333-15.018666h37.546667c3.584 0 6.826667-2.389333 7.850666-5.802667l11.605334-35.669333c2.56-7.68 13.482667-7.68 15.872 0z"  /><path  d="M665.6 879.104c-84.650667 0-153.6-68.949333-153.6-153.6s68.949333-153.6 153.6-153.6 153.6 68.949333 153.6 153.6-68.949333 153.6-153.6 153.6z m0-256c-56.490667 0-102.4 45.909333-102.4 102.4s45.909333 102.4 102.4 102.4 102.4-45.909333 102.4-102.4-45.909333-102.4-102.4-102.4z"  /><path  d="M391.68 674.986667h-133.12c-14.165333 0-25.6-11.434667-25.6-25.6s11.434667-25.6 25.6-25.6h133.12c14.165333 0 25.6 11.434667 25.6 25.6s-11.434667 25.6-25.6 25.6zM435.370667 827.221333H258.56c-14.165333 0-25.6-11.434667-25.6-25.6s11.434667-25.6 25.6-25.6h176.810667c14.165333 0 25.6 11.434667 25.6 25.6s-11.434667 25.6-25.6 25.6z"  /></svg>