<?xml version="1.0" standalone="no"?><!DOCTYPE svg PUBLIC "-//W3C//DTD SVG 1.1//EN" "http://www.w3.org/Graphics/SVG/1.1/DTD/svg11.dtd"><svg class="icon" width="64px" height="64.00px" viewBox="0 0 1024 1024" version="1.1" xmlns="http://www.w3.org/2000/svg"><path  d="M512 989.866667C249.173333 989.866667 34.133333 774.826667 34.133333 512S249.173333 34.133333 512 34.133333s477.866667 215.04 477.866667 477.866667-215.04 477.866667-477.866667 477.866667z m0-904.533334C276.48 85.333333 85.333333 276.48 85.333333 512s191.146667 426.666667 426.666667 426.666667 426.666667-191.146667 426.666667-426.666667S747.52 85.333333 512 85.333333z"  /><path  d="M631.466667 737.28c-8.533333 0-17.066667-1.706667-23.893334-6.826667L512 658.773333l-97.28 69.973334c-13.653333 10.24-32.426667 10.24-46.08 0-13.653333-10.24-18.773333-27.306667-13.653333-44.373334l37.546666-114.346666-97.28-69.973334c-13.653333-10.24-20.48-27.306667-13.653333-44.373333 5.12-17.066667 20.48-27.306667 37.546667-27.306667h119.466666l37.546667-114.346666c5.12-17.066667 20.48-27.306667 37.546667-27.306667 17.066667 0 32.426667 10.24 37.546666 27.306667l37.546667 114.346666h119.466667c17.066667 0 32.426667 10.24 37.546666 27.306667 5.12 17.066667 0 34.133333-13.653333 44.373333l-97.28 69.973334 37.546667 114.346666c5.12 17.066667 0 34.133333-13.653334 44.373334-10.24 5.12-18.773333 8.533333-27.306666 8.533333zM353.28 479.573333l75.093333 54.613334c13.653333 10.24 20.48 27.306667 13.653334 44.373333L414.72 665.6l75.093333-54.613333c13.653333-10.24 32.426667-10.24 46.08 0l75.093334 54.613333-29.013334-87.04c-5.12-17.066667 0-34.133333 13.653334-44.373333l75.093333-54.613334h-92.16c-17.066667 0-32.426667-10.24-37.546667-27.306666L512 365.226667l-29.013333 87.04c-5.12 17.066667-20.48 27.306667-37.546667 27.306666h-92.16z"  /></svg>