<?xml version="1.0" standalone="no"?><!DOCTYPE svg PUBLIC "-//W3C//DTD SVG 1.1//EN" "http://www.w3.org/Graphics/SVG/1.1/DTD/svg11.dtd"><svg class="icon" width="64px" height="64.00px" viewBox="0 0 1024 1024" version="1.1" xmlns="http://www.w3.org/2000/svg"><path  d="M896.341333 779.434667H600.405333c-14.165333 0-25.6-11.434667-25.6-25.6s11.434667-25.6 25.6-25.6h295.765334a42.325333 42.325333 0 0 0 42.325333-42.325334V222.890667a42.325333 42.325333 0 0 0-42.325333-42.325334h-455.68a42.325333 42.325333 0 0 0-42.325334 42.325334v123.733333c0 14.165333-11.434667 25.6-25.6 25.6s-25.6-11.434667-25.6-25.6v-123.733333c0-51.541333 41.984-93.525333 93.525334-93.525334h455.850666c51.541333 0 93.525333 41.984 93.525334 93.525334v463.018666c0 51.541333-41.984 93.525333-93.525334 93.525334z"  /><path  d="M338.602667 615.936c-82.432 0-149.504-67.072-149.504-149.504s67.072-149.504 149.504-149.504 149.504 67.072 149.504 149.504-67.072 149.504-149.504 149.504z m0-247.978667c-54.272 0-98.304 44.032-98.304 98.304s44.032 98.304 98.304 98.304c54.272 0 98.304-44.032 98.304-98.304s-44.032-98.304-98.304-98.304z"  /><path  d="M617.472 894.634667H59.733333c-14.165333 0-25.6-11.434667-25.6-25.6 0-167.936 136.533333-304.469333 304.469334-304.469334s304.469333 136.533333 304.469333 304.469334c0 14.165333-11.434667 25.6-25.6 25.6z m-530.944-51.2H590.506667c-12.8-127.658667-121.002667-227.669333-251.904-227.669334S99.498667 715.776 86.528 843.434667zM842.24 539.136H561.664a25.582933 25.582933 0 0 1-25.6-25.6v-54.101333c0-27.648 22.528-50.005333 50.005333-50.005334h49.322667c-14.165333-15.189333-37.888-40.789333-37.888-89.941333 0-76.117333 57.685333-103.253333 107.178667-103.253333 49.664 0 102.912 27.136 102.912 103.253333 0 47.445333-22.528 71.68-36.010667 86.016-1.194667 1.194667-2.389333 2.56-3.584 3.925333h49.834667c27.648 0 50.005333 22.528 50.005333 50.005334v54.101333c0 14.165333-11.434667 25.6-25.6 25.6z m-254.976-25.6z m-0.512-25.6h229.888v-28.501333l-70.485333 1.194666c-32.426667 0-32.426667-30.037333-32.426667-49.834666 0-18.432 11.434667-30.549333 20.48-40.277334 11.434667-12.288 22.186667-23.722667 22.186667-51.029333 0-12.8 0-52.053333-51.712-52.053333-25.6 0-55.978667 9.045333-55.978667 52.053333 0 29.013333 12.288 42.325333 24.234667 55.125333 8.874667 9.557333 18.773333 20.309333 18.773333 36.352 0 10.410667 0 17.92-1.877333 24.917334-3.925333 15.36-16.213333 24.917333-31.914667 24.917333h-72.021333l0.853333 27.136zM842.24 613.546667H561.664c-14.165333 0-25.6-11.434667-25.6-25.6s11.434667-25.6 25.6-25.6h280.576c14.165333 0 25.6 11.434667 25.6 25.6s-11.434667 25.6-25.6 25.6z"  /></svg>