<?xml version="1.0" standalone="no"?><!DOCTYPE svg PUBLIC "-//W3C//DTD SVG 1.1//EN" "http://www.w3.org/Graphics/SVG/1.1/DTD/svg11.dtd"><svg class="icon" width="64px" height="64.00px" viewBox="0 0 1024 1024" version="1.1" xmlns="http://www.w3.org/2000/svg"><path  d="M916.48 918.186667H105.813333c-40.96 0-73.386667-32.426667-73.386666-73.386667v-665.6c0-40.96 32.426667-73.386667 73.386666-73.386667h808.96c40.96 0 75.093333 32.426667 75.093334 73.386667v667.306667c0 39.253333-34.133333 71.68-73.386667 71.68zM105.813333 157.013333c-11.946667 0-20.48 10.24-20.48 22.186667v667.306667c0 11.946667 10.24 22.186667 22.186667 22.186666h808.96c11.946667 0 22.186667-10.24 22.186667-22.186666V179.2c0-11.946667-10.24-22.186667-22.186667-22.186667H105.813333z"  /><path  d="M285.013333 394.24c-34.133333 0-61.44-27.306667-61.44-61.44s27.306667-61.44 61.44-61.44 61.44 27.306667 61.44 61.44-27.306667 61.44-61.44 61.44z m0-71.68c-5.12 0-10.24 5.12-10.24 10.24s5.12 10.24 10.24 10.24 10.24-5.12 10.24-10.24-5.12-10.24-10.24-10.24zM916.48 918.186667H105.813333c-40.96 0-73.386667-32.426667-73.386666-73.386667v-95.573333c0-6.826667 3.413333-13.653333 6.826666-18.773334l237.226667-237.226666c8.533333-8.533333 23.893333-10.24 34.133333-1.706667l98.986667 80.213333 126.293333-148.48c8.533333-10.24 23.893333-11.946667 34.133334-3.413333l404.48 308.906667c6.826667 5.12 10.24 11.946667 10.24 20.48v95.573333c5.12 40.96-29.013333 73.386667-68.266667 73.386667zM85.333333 761.173333v85.333334c0 11.946667 10.24 22.186667 22.186667 22.186666h808.96c11.946667 0 22.186667-10.24 22.186667-22.186666v-81.92L563.2 476.16l-126.293333 148.48c-8.533333 10.24-23.893333 11.946667-35.84 3.413333l-102.4-81.92L85.333333 761.173333z"  /></svg>