<?xml version="1.0" standalone="no"?><!DOCTYPE svg PUBLIC "-//W3C//DTD SVG 1.1//EN" "http://www.w3.org/Graphics/SVG/1.1/DTD/svg11.dtd"><svg class="icon" width="64px" height="64.00px" viewBox="0 0 1024 1024" version="1.1" xmlns="http://www.w3.org/2000/svg"><path  d="M819.2 994.986667H186.026667c-39.253333 0-71.68-32.426667-71.68-69.973334V110.933333c0-39.253333 32.426667-71.68 71.68-71.68h452.266666c13.653333 0 25.6 11.946667 25.6 25.6v201.386667h201.386667c13.653333 0 25.6 11.946667 25.6 25.6v633.173333c0 37.546667-32.426667 69.973333-71.68 69.973334z m-633.173333-904.533334c-10.24 0-20.48 8.533333-20.48 20.48v814.08c0 10.24 8.533333 18.773333 20.48 18.773334H819.2c10.24 0 20.48-8.533333 20.48-18.773334V317.44H638.293333c-13.653333 0-25.6-11.946667-25.6-25.6V90.453333h-426.666666z"  /><path  d="M865.28 317.44c-6.826667 0-13.653333-1.706667-18.773333-6.826667L619.52 83.626667c-10.24-10.24-10.24-25.6 0-35.84s25.6-10.24 35.84 0L882.346667 273.066667c10.24 10.24 10.24 25.6 0 35.84-5.12 5.12-11.946667 8.533333-17.066667 8.533333zM581.973333 769.706667H276.48c-13.653333 0-25.6-11.946667-25.6-25.6V448.853333c0-13.653333 11.946667-25.6 25.6-25.6h305.493333c13.653333 0 25.6 11.946667 25.6 25.6v42.666667l112.64-42.666667c8.533333-3.413333 17.066667-1.706667 23.893334 3.413334 6.826667 5.12 11.946667 11.946667 11.946666 20.48v249.173333c0 8.533333-3.413333 17.066667-11.946666 20.48-6.826667 5.12-15.36 5.12-23.893334 3.413333l-112.64-42.666666v42.666666c0 11.946667-11.946667 23.893333-25.6 23.893334z m-279.893333-51.2h254.293333V665.6c0-8.533333 3.413333-17.066667 11.946667-20.48 6.826667-5.12 15.36-5.12 23.893333-3.413333l112.64 42.666666V508.586667l-112.64 42.666666c-8.533333 3.413333-17.066667 1.706667-23.893333-3.413333-6.826667-5.12-11.946667-11.946667-11.946667-20.48v-52.906667H302.08v244.053334z"  /></svg>