<?xml version="1.0" standalone="no"?><!DOCTYPE svg PUBLIC "-//W3C//DTD SVG 1.1//EN" "http://www.w3.org/Graphics/SVG/1.1/DTD/svg11.dtd"><svg class="icon" width="64px" height="64.00px" viewBox="0 0 1024 1024" version="1.1" xmlns="http://www.w3.org/2000/svg"><path  d="M829.44 989.866667H196.266667c-13.653333 0-25.6-11.946667-25.6-25.6v-136.533334c0-13.653333 11.946667-25.6 25.6-25.6s25.6 11.946667 25.6 25.6V938.666667h581.973333v-110.933334c0-13.653333 11.946667-25.6 25.6-25.6s25.6 11.946667 25.6 25.6v136.533334c0 13.653333-11.946667 25.6-25.6 25.6zM829.44 447.146667c-13.653333 0-25.6-11.946667-25.6-25.6v-126.293334L636.586667 85.333333H221.866667v336.213334c0 13.653333-11.946667 25.6-25.6 25.6s-25.6-11.946667-25.6-25.6V59.733333c0-13.653333 11.946667-25.6 25.6-25.6H648.533333c8.533333 0 15.36 3.413333 20.48 10.24l180.906667 226.986667c3.413333 5.12 5.12 10.24 5.12 15.36v136.533333c0 11.946667-11.946667 23.893333-25.6 23.893334z"  /><path  d="M829.44 312.32H602.453333c-13.653333 0-25.6-11.946667-25.6-25.6V59.733333c0-13.653333 11.946667-25.6 25.6-25.6s25.6 11.946667 25.6 25.6v201.386667h201.386667c13.653333 0 25.6 11.946667 25.6 25.6s-11.946667 25.6-25.6 25.6zM919.893333 853.333333H105.813333C66.56 853.333333 34.133333 822.613333 34.133333 783.36V467.626667c0-39.253333 32.426667-69.973333 69.973334-69.973334h814.08c39.253333 0 71.68 32.426667 71.68 69.973334V785.066667c0 37.546667-30.72 68.266667-69.973334 68.266666zM105.813333 447.146667c-10.24 0-18.773333 8.533333-18.773333 18.773333v317.44c-1.706667 10.24 6.826667 18.773333 18.773333 18.773333h814.08c10.24 0 20.48-8.533333 20.48-18.773333V467.626667c0-10.24-8.533333-18.773333-20.48-18.773334H105.813333z"  /><path  d="M240.64 513.706667h44.373333V750.933333h-44.373333V513.706667z m20.48 102.4h76.8c5.12 0 10.24-1.706667 13.653333-3.413334 3.413333-1.706667 6.826667-5.12 10.24-10.24 1.706667-5.12 3.413333-10.24 3.413334-15.36 0-5.12-1.706667-11.946667-3.413334-15.36-1.706667-5.12-5.12-8.533333-10.24-10.24s-8.533333-3.413333-13.653333-3.413333h-76.8v-42.666667h75.093333c15.36 0 27.306667 3.413333 39.253334 8.533334 11.946667 6.826667 20.48 15.36 25.6 25.6a86.869333 86.869333 0 0 1 0 75.093333c-6.826667 10.24-15.36 18.773333-25.6 25.6-11.946667 6.826667-23.893333 8.533333-39.253334 8.533333h-75.093333v-42.666666zM447.146667 513.706667h44.373333V750.933333h-44.373333V513.706667z m20.48 102.4h76.8c5.12 0 10.24-1.706667 13.653333-3.413334 3.413333-1.706667 6.826667-5.12 10.24-10.24 1.706667-5.12 3.413333-10.24 3.413333-15.36 0-5.12-1.706667-11.946667-3.413333-15.36-1.706667-5.12-5.12-8.533333-10.24-10.24s-8.533333-3.413333-13.653333-3.413333h-76.8v-42.666667h75.093333c15.36 0 27.306667 3.413333 39.253333 8.533334 11.946667 6.826667 20.48 15.36 25.6 25.6s8.533333 23.893333 8.533334 37.546666-1.706667 27.306667-8.533334 37.546667c-6.826667 10.24-15.36 18.773333-25.6 25.6-11.946667 6.826667-23.893333 8.533333-39.253333 8.533333h-75.093333v-42.666666zM641.706667 513.706667h174.08v42.666666H641.706667v-42.666666z m64.853333 20.48H750.933333v218.453333h-44.373333V534.186667z"  /></svg>