<?xml version="1.0" standalone="no"?><!DOCTYPE svg PUBLIC "-//W3C//DTD SVG 1.1//EN" "http://www.w3.org/Graphics/SVG/1.1/DTD/svg11.dtd"><svg class="icon" width="64px" height="64.00px" viewBox="0 0 1024 1024" version="1.1" xmlns="http://www.w3.org/2000/svg"><path  d="M889.173333 994.986667H134.826667c-56.32 0-100.693333-46.08-100.693334-100.693334V139.946667C34.133333 85.333333 80.213333 39.253333 134.826667 39.253333h754.346666C945.493333 39.253333 989.866667 85.333333 989.866667 139.946667v754.346666c0 56.32-44.373333 100.693333-100.693334 100.693334zM134.826667 90.453333C107.52 90.453333 85.333333 112.64 85.333333 139.946667v754.346666c0 27.306667 22.186667 49.493333 49.493334 49.493334h754.346666c27.306667 0 49.493333-22.186667 49.493334-49.493334V139.946667c0-27.306667-22.186667-49.493333-49.493334-49.493334H134.826667z"  /><path  d="M424.96 795.306667c-5.12 0-8.533333-1.706667-13.653333-3.413334-8.533333-5.12-13.653333-13.653333-13.653334-22.186666V465.92c0-8.533333 5.12-17.066667 13.653334-22.186667 8.533333-5.12 17.066667-5.12 25.6 0l264.533333 151.893334c8.533333 5.12 13.653333 13.653333 13.653333 22.186666s-5.12 17.066667-13.653333 22.186667l-264.533333 151.893333c-3.413333 3.413333-8.533333 3.413333-11.946667 3.413334z m25.6-285.013334v216.746667l187.733333-107.52-187.733333-109.226667zM964.266667 317.44h-904.533334c-13.653333 0-25.6-11.946667-25.6-25.6s11.946667-25.6 25.6-25.6h904.533334c13.653333 0 25.6 11.946667 25.6 25.6s-10.24 25.6-25.6 25.6z"  /><path  d="M587.093333 317.44c-5.12 0-10.24-1.706667-13.653333-5.12-11.946667-8.533333-15.36-23.893333-6.826667-35.84L716.8 51.2c8.533333-11.946667 23.893333-15.36 35.84-6.826667 11.946667 6.826667 15.36 23.893333 6.826667 35.84L609.28 307.2c-5.12 5.12-13.653333 10.24-22.186667 10.24zM286.72 317.44c-5.12 0-10.24-1.706667-13.653333-5.12-11.946667-8.533333-15.36-23.893333-6.826667-35.84L416.426667 51.2c8.533333-11.946667 23.893333-15.36 35.84-6.826667s15.36 23.893333 6.826666 35.84L307.2 305.493333c-5.12 6.826667-11.946667 11.946667-20.48 11.946667z"  /></svg>