<?xml version="1.0" standalone="no"?><!DOCTYPE svg PUBLIC "-//W3C//DTD SVG 1.1//EN" "http://www.w3.org/Graphics/SVG/1.1/DTD/svg11.dtd"><svg class="icon" width="64px" height="64.00px" viewBox="0 0 1024 1024" version="1.1" xmlns="http://www.w3.org/2000/svg"><path  d="M827.733333 989.866667h-631.466666c-13.653333 0-25.6-11.946667-25.6-25.6v-136.533334c0-13.653333 11.946667-25.6 25.6-25.6s25.6 11.946667 25.6 25.6V938.666667h580.266666v-110.933334c0-13.653333 11.946667-25.6 25.6-25.6s25.6 11.946667 25.6 25.6v136.533334c0 13.653333-10.24 25.6-25.6 25.6zM827.733333 447.146667c-13.653333 0-25.6-11.946667-25.6-25.6v-126.293334L634.88 85.333333H221.866667v336.213334c0 13.653333-11.946667 25.6-25.6 25.6s-25.6-11.946667-25.6-25.6V59.733333c0-13.653333 10.24-25.6 25.6-25.6H648.533333c8.533333 0 15.36 3.413333 20.48 10.24l180.906667 226.986667c3.413333 5.12 5.12 10.24 5.12 15.36v136.533333c-1.706667 11.946667-11.946667 23.893333-27.306667 23.893334z"  /><path  d="M827.733333 312.32H602.453333c-13.653333 0-25.6-11.946667-25.6-25.6V59.733333c0-13.653333 11.946667-25.6 25.6-25.6s25.6 11.946667 25.6 25.6v201.386667h201.386667c13.653333 0 25.6 11.946667 25.6 25.6s-11.946667 25.6-27.306667 25.6zM919.893333 853.333333H104.106667C66.56 853.333333 34.133333 822.613333 34.133333 783.36V467.626667c0-39.253333 32.426667-69.973333 69.973334-69.973334h814.08c39.253333 0 69.973333 32.426667 69.973333 69.973334V785.066667c1.706667 37.546667-30.72 68.266667-68.266667 68.266666zM104.106667 447.146667c-10.24 0-18.773333 8.533333-18.773334 18.773333v317.44c0 10.24 8.533333 18.773333 18.773334 18.773333h814.08c10.24 0 18.773333-8.533333 18.773333-18.773333V467.626667c0-10.24-8.533333-18.773333-18.773333-18.773334H104.106667z"  /><path  d="M237.226667 513.706667h174.08v42.666666H237.226667v-42.666666z m64.853333 20.48h44.373333v218.453333h-44.373333V534.186667zM501.76 605.866667l52.906667-92.16h47.786666L523.946667 648.533333l-59.733334 104.106667h-47.786666l85.333333-146.773333z m-1.706667 49.493333l-5.12-8.533333-78.506666-133.12h47.786666l52.906667 90.453333 6.826667 10.24 81.92 136.533333h-47.786667l-58.026667-95.573333zM612.693333 513.706667h174.08v42.666666H612.693333v-42.666666z m64.853334 20.48h44.373333v218.453333h-44.373333V534.186667z"  /></svg>