<?xml version="1.0" standalone="no"?><!DOCTYPE svg PUBLIC "-//W3C//DTD SVG 1.1//EN" "http://www.w3.org/Graphics/SVG/1.1/DTD/svg11.dtd"><svg class="icon" width="64px" height="64.00px" viewBox="0 0 1024 1024" version="1.1" xmlns="http://www.w3.org/2000/svg"><path  d="M810.666667 989.866667h-699.733334c-40.96 0-75.093333-34.133333-75.093333-75.093334v-699.733333c0-40.96 34.133333-75.093333 75.093333-75.093333h459.093334c13.653333 0 25.6 11.946667 25.6 25.6s-11.946667 25.6-25.6 25.6H110.933333c-13.653333 0-23.893333 10.24-23.893333 23.893333v699.733333c0 13.653333 10.24 23.893333 23.893333 23.893334h699.733334c13.653333 0 23.893333-10.24 23.893333-23.893334V440.32c0-13.653333 11.946667-25.6 25.6-25.6s25.6 11.946667 25.6 25.6v474.453333C887.466667 955.733333 853.333333 989.866667 810.666667 989.866667z"  /><path  d="M711.68 715.093333H211.626667c-10.24 0-18.773333-5.12-22.186667-13.653333-5.12-8.533333-3.413333-18.773333 1.706667-27.306667L341.333333 474.453333c5.12-5.12 11.946667-10.24 18.773334-10.24 6.826667 0 15.36 1.706667 20.48 6.826667l52.906666 52.906667 69.973334-110.933334c5.12-6.826667 11.946667-11.946667 20.48-11.946666s17.066667 3.413333 22.186666 10.24l187.733334 262.826666c5.12 8.533333 6.826667 18.773333 1.706666 27.306667-6.826667 8.533333-15.36 13.653333-23.893333 13.653333z m-448.853333-51.2h399.36l-136.533334-191.146666-66.56 105.813333c-3.413333 6.826667-10.24 10.24-18.773333 11.946667-8.533333 0-15.36-1.706667-20.48-6.826667L363.52 529.066667l-100.693333 134.826666zM960.853333 191.146667H761.173333c-13.653333 0-25.6-11.946667-25.6-25.6s11.946667-25.6 25.6-25.6h199.68c13.653333 0 25.6 11.946667 25.6 25.6s-11.946667 25.6-25.6 25.6z"  /><path  d="M860.16 285.013333c-13.653333 0-25.6-11.946667-25.6-25.6V59.733333c0-13.653333 11.946667-25.6 25.6-25.6s25.6 11.946667 25.6 25.6v199.68c0 13.653333-10.24 25.6-25.6 25.6z"  /></svg>