<?xml version="1.0" standalone="no"?><!DOCTYPE svg PUBLIC "-//W3C//DTD SVG 1.1//EN" "http://www.w3.org/Graphics/SVG/1.1/DTD/svg11.dtd"><svg class="icon" width="64px" height="64.00px" viewBox="0 0 1024 1024" version="1.1" xmlns="http://www.w3.org/2000/svg"><path  d="M827.733333 989.866667h-631.466666c-13.653333 0-25.6-11.946667-25.6-25.6v-136.533334c0-13.653333 11.946667-25.6 25.6-25.6s25.6 11.946667 25.6 25.6V938.666667h580.266666v-110.933334c0-13.653333 11.946667-25.6 25.6-25.6s25.6 11.946667 25.6 25.6v136.533334c0 13.653333-10.24 25.6-25.6 25.6zM827.733333 447.146667c-13.653333 0-25.6-11.946667-25.6-25.6v-126.293334L634.88 85.333333H221.866667v336.213334c0 13.653333-11.946667 25.6-25.6 25.6s-25.6-11.946667-25.6-25.6V59.733333c0-13.653333 10.24-25.6 25.6-25.6H648.533333c8.533333 0 15.36 3.413333 20.48 10.24l180.906667 226.986667c3.413333 5.12 5.12 10.24 5.12 15.36v136.533333c-1.706667 11.946667-11.946667 23.893333-27.306667 23.893334z"  /><path  d="M827.733333 312.32H602.453333c-13.653333 0-25.6-11.946667-25.6-25.6V59.733333c0-13.653333 11.946667-25.6 25.6-25.6s25.6 11.946667 25.6 25.6v201.386667h201.386667c13.653333 0 25.6 11.946667 25.6 25.6s-11.946667 25.6-27.306667 25.6zM919.893333 853.333333H104.106667C66.56 853.333333 34.133333 822.613333 34.133333 783.36V467.626667c0-39.253333 32.426667-69.973333 69.973334-69.973334h814.08c39.253333 0 69.973333 32.426667 69.973333 69.973334V785.066667c1.706667 37.546667-30.72 68.266667-68.266667 68.266666zM104.106667 447.146667c-10.24 0-18.773333 8.533333-18.773334 18.773333v317.44c0 10.24 8.533333 18.773333 18.773334 18.773333h814.08c10.24 0 18.773333-8.533333 18.773333-18.773333V467.626667c0-10.24-8.533333-18.773333-18.773333-18.773334H104.106667z"  /><path  d="M223.573333 513.706667h44.373334V750.933333h-44.373334V513.706667z m22.186667 194.56h56.32c15.36 0 25.6-3.413333 34.133333-10.24 8.533333-6.826667 11.946667-17.066667 11.946667-30.72V597.333333c0-13.653333-3.413333-22.186667-11.946667-30.72-8.533333-6.826667-18.773333-10.24-34.133333-10.24h-56.32v-42.666666h56.32c20.48 0 37.546667 3.413333 51.2 10.24 13.653333 6.826667 23.893333 17.066667 32.426667 29.013333s10.24 27.306667 10.24 46.08V665.6c0 17.066667-3.413333 32.426667-10.24 44.373333-6.826667 11.946667-17.066667 22.186667-32.426667 29.013334s-30.72 10.24-51.2 10.24h-56.32v-40.96zM472.746667 744.106667c-13.653333-6.826667-23.893333-17.066667-30.72-30.72-6.826667-13.653333-10.24-29.013333-10.24-46.08v-66.56c0-17.066667 3.413333-32.426667 10.24-46.08 6.826667-13.653333 17.066667-23.893333 30.72-30.72 13.653333-6.826667 29.013333-10.24 46.08-10.24s32.426667 3.413333 46.08 10.24c13.653333 6.826667 23.893333 17.066667 30.72 30.72s10.24 29.013333 10.24 46.08v66.56c0 17.066667-3.413333 32.426667-10.24 46.08s-17.066667 23.893333-30.72 30.72c-13.653333 6.826667-29.013333 10.24-46.08 10.24s-32.426667-3.413333-46.08-10.24z m66.56-39.253334c6.826667-3.413333 10.24-8.533333 13.653333-15.36 3.413333-6.826667 5.12-13.653333 5.12-22.186666V597.333333c0-8.533333-1.706667-15.36-5.12-22.186666-3.413333-6.826667-8.533333-11.946667-13.653333-15.36-6.826667-3.413333-13.653333-5.12-20.48-5.12s-15.36 1.706667-20.48 5.12c-6.826667 3.413333-10.24 8.533333-13.653334 15.36-3.413333 6.826667-5.12 13.653333-5.12 22.186666v69.973334c0 8.533333 1.706667 15.36 5.12 22.186666 3.413333 6.826667 8.533333 11.946667 13.653334 15.36s13.653333 5.12 20.48 5.12 15.36-1.706667 20.48-5.12zM699.733333 754.346667s-6.826667-3.413333-18.773333-10.24c-13.653333-6.826667-22.186667-17.066667-29.013333-30.72-6.826667-13.653333-10.24-29.013333-10.24-47.786667v-64.853333c0-18.773333 3.413333-34.133333 10.24-47.786667 6.826667-13.653333 17.066667-23.893333 29.013333-30.72 13.653333-6.826667 29.013333-10.24 46.08-10.24 15.36 0 29.013333 3.413333 39.253333 10.24 11.946667 6.826667 22.186667 15.36 29.013334 27.306667 8.533333 11.946667 13.653333 27.306667 15.36 44.373333h-46.08c-1.706667-8.533333-5.12-15.36-8.533334-20.48-3.413333-5.12-8.533333-10.24-13.653333-11.946667-5.12-3.413333-10.24-5.12-17.066667-5.12-8.533333 0-15.36 1.706667-22.186666 5.12-5.12 3.413333-10.24 8.533333-13.653334 15.36-3.413333 6.826667-5.12 15.36-5.12 23.893334V665.6c0 8.533333 1.706667 17.066667 5.12 23.893333 3.413333 6.826667 6.826667 11.946667 13.653334 15.36 5.12 3.413333 13.653333 5.12 22.186666 5.12 6.826667 0 11.946667-1.706667 17.066667-5.12s10.24-6.826667 13.653333-11.946666c3.413333-5.12 6.826667-11.946667 8.533334-20.48h46.08c-3.413333 17.066667-8.533333 32.426667-15.36 44.373333-8.533333 11.946667-17.066667 22.186667-29.013334 27.306667-11.946667 6.826667-25.6 10.24-39.253333 10.24H699.733333z"  /></svg>