<?xml version="1.0" standalone="no"?><!DOCTYPE svg PUBLIC "-//W3C//DTD SVG 1.1//EN" "http://www.w3.org/Graphics/SVG/1.1/DTD/svg11.dtd"><svg class="icon" width="64px" height="64.00px" viewBox="0 0 1024 1024" version="1.1" xmlns="http://www.w3.org/2000/svg"><path  d="M916.114286 1024H107.885714C49.371429 1024 0 974.628571 0 916.114286V107.885714C0 49.371429 49.371429 0 107.885714 0h808.228572C974.628571 0 1024 49.371429 1024 107.885714v808.228572c0 58.514286-49.371429 107.885714-107.885714 107.885714zM107.885714 54.857143C78.628571 54.857143 54.857143 78.628571 54.857143 107.885714v808.228572C54.857143 945.371429 78.628571 969.142857 107.885714 969.142857h808.228572c29.257143 0 53.028571-23.771429 53.028571-53.028571V107.885714C969.142857 78.628571 945.371429 54.857143 916.114286 54.857143H107.885714z"  /><path  d="M351.085714 512c-89.6 0-162.742857-73.142857-162.742857-162.742857s73.142857-162.742857 162.742857-162.742857 162.742857 73.142857 162.742857 162.742857-73.142857 162.742857-162.742857 162.742857z m0-268.8c-58.514286 0-107.885714 47.542857-107.885714 107.885714 0 58.514286 47.542857 107.885714 107.885714 107.885715 58.514286 0 107.885714-47.542857 107.885715-107.885715-1.828571-60.342857-49.371429-107.885714-107.885715-107.885714zM894.171429 1024H296.228571c-10.971429 0-20.114286-5.485714-23.771428-14.628571-5.485714-9.142857-3.657143-20.114286 1.828571-29.257143l318.171429-424.228572c16.457143-21.942857 40.228571-32.914286 65.828571-32.914285s49.371429 12.8 65.828572 34.742857L960 896c18.285714 25.6 20.114286 56.685714 5.485714 84.114286-14.628571 27.428571-42.057143 43.885714-71.314285 43.885714z m-543.085715-54.857143h541.257143c14.628571 0 21.942857-9.142857 23.771429-14.628571 1.828571-3.657143 7.314286-14.628571-1.828572-27.428572L678.4 588.8c-5.485714-7.314286-12.8-10.971429-21.942857-10.971429s-16.457143 3.657143-21.942857 10.971429l-21.942857-16.457143 21.942857 16.457143L351.085714 969.142857z"  /></svg>