<?xml version="1.0" standalone="no"?><!DOCTYPE svg PUBLIC "-//W3C//DTD SVG 1.1//EN" "http://www.w3.org/Graphics/SVG/1.1/DTD/svg11.dtd"><svg class="icon" width="64px" height="64.00px" viewBox="0 0 1024 1024" version="1.1" xmlns="http://www.w3.org/2000/svg"><path  d="M877.226667 788.48c-8.533333 0-15.36-3.413333-20.48-10.24-8.533333-11.946667-5.12-27.306667 6.826666-35.84 64.853333-44.373333 92.16-126.293333 68.266667-201.386667-22.186667-69.973333-90.453333-114.346667-174.08-114.346666h-51.2c-11.946667 0-22.186667-8.533333-25.6-18.773334-30.72-119.466667-134.826667-209.92-257.706667-225.28-124.586667-11.946667-245.76 51.2-303.786666 162.133334-58.026667 110.933333-40.96 245.76 40.96 339.626666 8.533333 10.24 8.533333 27.306667-1.706667 35.84-10.24 10.24-27.306667 8.533333-35.84-1.706666C27.306667 609.28 6.826667 450.56 73.386667 320.853333c66.56-128 209.92-204.8 353.28-187.733333 138.24 15.36 254.293333 112.64 295.253333 244.053333h32.426667c107.52 0 194.56 58.026667 223.573333 150.186667 30.72 95.573333-5.12 199.68-87.04 257.706667-3.413333 1.706667-8.533333 3.413333-13.653333 3.413333z"  /><path  d="M732.16 892.586667h-443.733333c-13.653333 0-25.6-11.946667-25.6-25.6V733.866667c0-13.653333 11.946667-25.6 25.6-25.6h443.733333c13.653333 0 25.6 11.946667 25.6 25.6v133.12c0 15.36-11.946667 25.6-25.6 25.6z m-418.133333-51.2h392.533333v-81.92h-392.533333v81.92zM389.12 679.253333c-6.826667 0-11.946667-1.706667-17.066667-6.826666-10.24-8.533333-11.946667-25.6-1.706666-35.84l138.24-158.72c8.533333-10.24 25.6-11.946667 35.84-1.706667 10.24 8.533333 11.946667 25.6 1.706666 35.84l-138.24 158.72c-5.12 5.12-11.946667 8.533333-18.773333 8.533333z"  /></svg>