<?xml version="1.0" standalone="no"?><!DOCTYPE svg PUBLIC "-//W3C//DTD SVG 1.1//EN" "http://www.w3.org/Graphics/SVG/1.1/DTD/svg11.dtd"><svg class="icon" width="64px" height="64.00px" viewBox="0 0 1024 1024" version="1.1" xmlns="http://www.w3.org/2000/svg"><path  d="M783.36 989.866667H240.64c-54.613333 0-98.986667-44.373333-98.986667-98.986667V392.533333h51.2v500.053334c0 25.6 20.48 47.786667 47.786667 47.786666H785.066667c25.6 0 47.786667-20.48 47.786666-47.786666V392.533333h51.2v500.053334c-1.706667 52.906667-46.08 97.28-100.693333 97.28z"  /><path  d="M947.2 501.76c-6.826667 0-11.946667-1.706667-17.066667-6.826667L512 95.573333 93.866667 494.933333c-10.24 10.24-25.6 10.24-35.84 0-10.24-10.24-10.24-25.6 0-35.84L494.933333 40.96c10.24-10.24 25.6-10.24 35.84 0l435.2 416.426667c10.24 10.24 10.24 25.6 0 35.84-5.12 6.826667-11.946667 8.533333-18.773333 8.533333z"  /><path  d="M512 600.746667a114.346667 114.346667 0 1 1 0-228.693334 114.346667 114.346667 0 0 1 0 228.693334z m0-177.493334c-34.133333 0-63.146667 29.013333-63.146667 63.146667s29.013333 63.146667 63.146667 63.146667 63.146667-29.013333 63.146667-63.146667-29.013333-63.146667-63.146667-63.146667z"  /><path  d="M694.613333 786.773333c-13.653333 0-25.6-11.946667-25.6-25.6 0-87.04-69.973333-157.013333-157.013333-157.013333s-157.013333 69.973333-157.013333 157.013333c0 13.653333-11.946667 25.6-25.6 25.6s-25.6-11.946667-25.6-25.6c0-114.346667 93.866667-208.213333 208.213333-208.213333s208.213333 93.866667 208.213333 208.213333c0 13.653333-11.946667 25.6-25.6 25.6z"  /></svg>