<?xml version="1.0" standalone="no"?><!DOCTYPE svg PUBLIC "-//W3C//DTD SVG 1.1//EN" "http://www.w3.org/Graphics/SVG/1.1/DTD/svg11.dtd"><svg class="icon" width="64px" height="64.00px" viewBox="0 0 1024 1024" version="1.1" xmlns="http://www.w3.org/2000/svg"><path  d="M896 808.96h-768c-51.2 0-93.866667-42.666667-93.866667-93.866667V179.2C34.133333 128 76.8 85.333333 128 85.333333h768c51.2 0 93.866667 42.666667 93.866667 93.866667v535.893333c0 52.906667-42.666667 93.866667-93.866667 93.866667zM128 136.533333C104.106667 136.533333 85.333333 157.013333 85.333333 179.2v535.893333c0 23.893333 18.773333 42.666667 42.666667 42.666667h768c23.893333 0 42.666667-18.773333 42.666667-42.666667V179.2C938.666667 157.013333 919.893333 136.533333 896 136.533333h-768zM781.653333 938.666667H242.346667c-13.653333 0-25.6-11.946667-25.6-25.6s11.946667-25.6 25.6-25.6h539.306666c13.653333 0 25.6 11.946667 25.6 25.6s-11.946667 25.6-25.6 25.6z"  /><path  d="M699.733333 556.373333c-8.533333 0-15.36-3.413333-20.48-10.24-8.533333-11.946667-5.12-27.306667 6.826667-35.84 25.6-18.773333 37.546667-51.2 27.306667-81.92-8.533333-27.306667-35.84-46.08-71.68-46.08h-25.6c-11.946667 0-22.186667-8.533333-25.6-18.773333-13.653333-52.906667-58.026667-92.16-112.64-97.28-54.613333-6.826667-107.52 22.186667-131.413334 69.973333-25.6 47.786667-17.066667 107.52 18.773334 148.48 8.533333 10.24 8.533333 27.306667-1.706667 35.84-10.24 10.24-27.306667 8.533333-35.84-1.706666-49.493333-56.32-59.733333-138.24-25.6-204.8 34.133333-66.56 107.52-105.813333 182.613333-97.28 68.266667 8.533333 126.293333 54.613333 150.186667 117.76h6.826667c56.32 0 104.106667 32.426667 119.466666 81.92 17.066667 51.2-1.706667 107.52-46.08 138.24-5.12 0-10.24 1.706667-15.36 1.706666z"  /><path  d="M443.733333 680.96c-5.12 0-10.24-1.706667-13.653333-3.413333-6.826667-5.12-11.946667-13.653333-11.946667-22.186667l1.706667-63.146667c0-5.12 1.706667-8.533333 3.413333-13.653333l105.813334-158.72c3.413333-5.12 10.24-10.24 17.066666-10.24 6.826667-1.706667 13.653333 0 18.773334 3.413333l54.613333 37.546667c11.946667 8.533333 15.36 23.893333 6.826667 35.84l-105.813334 158.72c-3.413333 3.413333-6.826667 6.826667-10.24 8.533333l-58.026666 27.306667H443.733333z m56.32-51.2z m-29.013333-29.013333v15.36l13.653333-6.826667 87.04-131.413333-11.946666-8.533334-88.746667 131.413334z"  /></svg>