<?xml version="1.0" standalone="no"?><!DOCTYPE svg PUBLIC "-//W3C//DTD SVG 1.1//EN" "http://www.w3.org/Graphics/SVG/1.1/DTD/svg11.dtd"><svg class="icon" width="64px" height="64.00px" viewBox="0 0 1024 1024" version="1.1" xmlns="http://www.w3.org/2000/svg"><path  d="M913.066667 878.933333h-802.133334C68.608 878.933333 34.133333 844.458667 34.133333 802.133333V221.866667c0-42.325333 34.474667-76.8 76.8-76.8h802.133334c42.325333 0 76.8 34.474667 76.8 76.8v85.845333c0 14.165333-11.434667 25.6-25.6 25.6s-25.6-11.434667-25.6-25.6V221.866667c0-14.165333-11.434667-25.6-25.6-25.6h-802.133334c-14.165333 0-25.6 11.434667-25.6 25.6v580.266666c0 14.165333 11.434667 25.6 25.6 25.6h802.133334c14.165333 0 25.6-11.434667 25.6-25.6V554.666667c0-14.165333 11.434667-25.6 25.6-25.6s25.6 11.434667 25.6 25.6V802.133333c0 42.325333-34.474667 76.8-76.8 76.8z"  /><path  d="M718.506667 655.189333c-9.728 0-19.456-3.584-27.136-10.581333l-82.261334-74.752a25.634133 25.634133 0 0 1 34.474667-37.888l74.922667 68.096 215.04-199.509333a25.6 25.6 0 0 1 34.816 37.546666L745.984 644.266667c-7.850667 7.168-17.578667 10.922667-27.477333 10.922666zM493.397333 636.245333H212.821333a25.582933 25.582933 0 0 1-25.6-25.6v-54.101333c0-27.648 22.528-50.005333 50.005334-50.005333h49.322666c-14.165333-15.189333-37.888-40.789333-37.888-89.941334 0-76.117333 57.685333-103.253333 107.178667-103.253333 49.664 0 102.912 27.136 102.912 103.253333 0 47.445333-22.528 71.68-36.010667 86.016-1.194667 1.194667-2.389333 2.56-3.584 3.925334h49.834667c27.648 0 50.005333 22.528 50.005333 50.005333v54.101333c0 14.165333-11.434667 25.6-25.6 25.6z m-254.976-25.6z m-0.512-25.6h229.888v-28.501333l-70.485333 1.194667c-32.426667 0-32.426667-30.037333-32.426667-49.834667 0-18.261333 11.434667-30.549333 20.48-40.277333 11.434667-12.288 22.186667-23.893333 22.186667-51.2 0-12.8 0-52.053333-51.712-52.053334-25.6 0-55.978667 9.045333-55.978667 52.053334 0 29.013333 12.288 42.325333 24.234667 55.125333 8.874667 9.557333 18.773333 20.309333 18.773333 36.352 0 10.410667 0 17.92-1.877333 24.917333-3.925333 15.36-16.213333 24.917333-31.914667 24.917334h-72.021333l0.853333 27.306666zM493.397333 710.656H212.821333c-14.165333 0-25.6-11.434667-25.6-25.6s11.434667-25.6 25.6-25.6h280.576c14.165333 0 25.6 11.434667 25.6 25.6s-11.434667 25.6-25.6 25.6z"  /></svg>