<?xml version="1.0" standalone="no"?><!DOCTYPE svg PUBLIC "-//W3C//DTD SVG 1.1//EN" "http://www.w3.org/Graphics/SVG/1.1/DTD/svg11.dtd"><svg class="icon" width="64px" height="64.00px" viewBox="0 0 1024 1024" version="1.1" xmlns="http://www.w3.org/2000/svg"><path  d="M368.64 686.08h-15.36c-52.906667-5.12-98.986667-35.84-124.586667-80.213333-13.653333-23.893333-20.48-51.2-20.48-80.213334 0-42.666667 17.066667-83.626667 47.786667-114.346666 27.306667-27.306667 64.853333-44.373333 104.106667-46.08 37.546667-61.44 104.106667-98.986667 177.493333-98.986667 90.453333 0 170.666667 58.026667 197.973333 143.36 52.906667 23.893333 87.04 75.093333 87.04 134.826667 0 22.186667-5.12 40.96-13.653333 61.44-18.773333 42.666667-58.026667 73.386667-104.106667 81.92H382.293333c-3.413333-1.706667-8.533333-1.706667-13.653333-1.706667z m0-269.653333c-29.013333 0-56.32 11.946667-78.506667 32.426666a109.568 109.568 0 0 0-32.426666 78.506667c0 20.48 5.12 37.546667 13.653333 54.613333 17.066667 30.72 49.493333 51.2 85.333333 54.613334h339.626667c29.013333-6.826667 52.906667-25.6 66.56-52.906667 5.12-11.946667 8.533333-25.6 8.533333-39.253333 0-40.96-25.6-76.8-64.853333-90.453334-8.533333-3.413333-15.36-10.24-17.066667-18.773333-17.066667-69.973333-80.213333-117.76-151.893333-117.76-59.733333 0-112.64 32.426667-139.946667 85.333333-5.12 8.533333-13.653333 13.653333-22.186666 13.653334h-6.826667z"  /><path  d="M947.2 332.8c-8.533333 0-18.773333-5.12-22.186667-13.653333C846.506667 168.96 687.786667 76.8 510.293333 76.8c-174.08 0-331.093333 92.16-411.306666 242.346667-6.826667 11.946667-22.186667 17.066667-34.133334 10.24s-17.066667-22.186667-10.24-34.133334C141.653333 129.706667 315.733333 25.6 510.293333 25.6c196.266667 0 372.053333 104.106667 459.093334 269.653333 6.826667 11.946667 1.706667 27.306667-10.24 34.133334-3.413333 1.706667-8.533333 3.413333-11.946667 3.413333z"  /><path  d="M76.8 332.8c-13.653333 0-25.6-11.946667-25.6-25.6V102.4c0-13.653333 11.946667-25.6 25.6-25.6S102.4 88.746667 102.4 102.4v204.8c0 13.653333-11.946667 25.6-25.6 25.6z"  /><path  d="M261.12 332.8H76.8c-13.653333 0-25.6-11.946667-25.6-25.6s11.946667-25.6 25.6-25.6h184.32c13.653333 0 25.6 11.946667 25.6 25.6s-11.946667 25.6-25.6 25.6zM513.706667 998.4c-196.266667 0-372.053333-104.106667-459.093334-269.653333-6.826667-11.946667-1.706667-27.306667 10.24-34.133334 11.946667-6.826667 27.306667-1.706667 34.133334 10.24 78.506667 150.186667 237.226667 242.346667 414.72 242.346667 174.08 0 331.093333-92.16 411.306666-242.346667 6.826667-11.946667 22.186667-17.066667 34.133334-10.24s17.066667 22.186667 10.24 34.133334c-87.04 165.546667-261.12 269.653333-455.68 269.653333z"  /><path  d="M947.2 947.2c-13.653333 0-25.6-11.946667-25.6-25.6V716.8c0-13.653333 11.946667-25.6 25.6-25.6s25.6 11.946667 25.6 25.6v204.8c0 13.653333-11.946667 25.6-25.6 25.6z"  /><path  d="M947.2 742.4H762.88c-13.653333 0-25.6-11.946667-25.6-25.6s11.946667-25.6 25.6-25.6h184.32c13.653333 0 25.6 11.946667 25.6 25.6s-11.946667 25.6-25.6 25.6z"  /></svg>