<?xml version="1.0" standalone="no"?><!DOCTYPE svg PUBLIC "-//W3C//DTD SVG 1.1//EN" "http://www.w3.org/Graphics/SVG/1.1/DTD/svg11.dtd"><svg class="icon" width="64px" height="64.00px" viewBox="0 0 1024 1024" version="1.1" xmlns="http://www.w3.org/2000/svg"><path  d="M896 757.76h-768c-51.2 0-93.866667-42.666667-93.866667-93.866667V213.333333C34.133333 160.426667 76.8 119.466667 128 119.466667h768c51.2 0 93.866667 42.666667 93.866667 93.866666V665.6c0 51.2-42.666667 92.16-93.866667 92.16zM128 170.666667C104.106667 170.666667 85.333333 189.44 85.333333 213.333333V665.6c0 23.893333 18.773333 42.666667 42.666667 42.666667h768c23.893333 0 42.666667-18.773333 42.666667-42.666667V213.333333c0-23.893333-18.773333-42.666667-42.666667-42.666666h-768z"  /><path  d="M331.093333 600.746667c-13.653333 0-25.6-11.946667-25.6-25.6v-90.453334c0-13.653333 11.946667-25.6 25.6-25.6s25.6 11.946667 25.6 25.6v90.453334c0 13.653333-11.946667 25.6-25.6 25.6zM512 894.293333c-13.653333 0-25.6-11.946667-25.6-25.6v-136.533333c0-13.653333 11.946667-25.6 25.6-25.6s25.6 11.946667 25.6 25.6v136.533333c0 13.653333-11.946667 25.6-25.6 25.6zM512 600.746667c-13.653333 0-25.6-11.946667-25.6-25.6V392.533333c0-13.653333 11.946667-25.6 25.6-25.6s25.6 11.946667 25.6 25.6v180.906667c0 15.36-11.946667 27.306667-25.6 27.306667zM692.906667 600.746667c-13.653333 0-25.6-11.946667-25.6-25.6V303.786667c0-13.653333 11.946667-25.6 25.6-25.6s25.6 11.946667 25.6 25.6v271.36c0 13.653333-11.946667 25.6-25.6 25.6z"  /><path  d="M783.36 904.533333H240.64c-13.653333 0-25.6-11.946667-25.6-25.6s11.946667-25.6 25.6-25.6h542.72c13.653333 0 25.6 11.946667 25.6 25.6s-11.946667 25.6-25.6 25.6z"  /></svg>