<?xml version="1.0" standalone="no"?><!DOCTYPE svg PUBLIC "-//W3C//DTD SVG 1.1//EN" "http://www.w3.org/Graphics/SVG/1.1/DTD/svg11.dtd"><svg class="icon" width="64px" height="64.00px" viewBox="0 0 1024 1024" version="1.1" xmlns="http://www.w3.org/2000/svg"><path  d="M401.066667 719.189333c-44.714667 0-81.066667-36.352-81.066667-81.066666s36.352-81.066667 81.066667-81.066667 81.066667 36.352 81.066666 81.066667-36.352 81.066667-81.066666 81.066666z m0-110.933333c-16.384 0-29.866667 13.482667-29.866667 29.866667s13.482667 29.866667 29.866667 29.866666 29.866667-13.482667 29.866666-29.866666-13.482667-29.866667-29.866666-29.866667zM622.933333 719.189333c-44.714667 0-81.066667-36.352-81.066666-81.066666s36.352-81.066667 81.066666-81.066667 81.066667 36.352 81.066667 81.066667-36.352 81.066667-81.066667 81.066666z m0-110.933333c-16.384 0-29.866667 13.482667-29.866666 29.866667s13.482667 29.866667 29.866666 29.866666 29.866667-13.482667 29.866667-29.866666-13.482667-29.866667-29.866667-29.866667zM512 497.322667c-44.714667 0-81.066667-36.352-81.066667-81.066667s36.352-81.066667 81.066667-81.066667 81.066667 36.352 81.066667 81.066667-36.352 81.066667-81.066667 81.066667z m0-110.933334c-16.384 0-29.866667 13.482667-29.866667 29.866667s13.482667 29.866667 29.866667 29.866667 29.866667-13.482667 29.866667-29.866667-13.482667-29.866667-29.866667-29.866667z"  /><path  d="M512 830.122667c-14.165333 0-25.6-11.434667-25.6-25.6 0-47.104-38.229333-85.333333-85.333333-85.333334s-85.333333 38.229333-85.333334 85.333334c0 14.165333-11.434667 25.6-25.6 25.6s-25.6-11.434667-25.6-25.6c0-75.264 61.269333-136.533333 136.533334-136.533334s136.533333 61.269333 136.533333 136.533334c0 14.165333-11.434667 25.6-25.6 25.6z"  /><path  d="M733.866667 830.122667c-14.165333 0-25.6-11.434667-25.6-25.6 0-47.104-38.229333-85.333333-85.333334-85.333334s-85.333333 38.229333-85.333333 85.333334c0 14.165333-11.434667 25.6-25.6 25.6s-25.6-11.434667-25.6-25.6c0-75.264 61.269333-136.533333 136.533333-136.533334s136.533333 61.269333 136.533334 136.533334c0 14.165333-11.434667 25.6-25.6 25.6zM622.933333 608.256c-14.165333 0-25.6-11.434667-25.6-25.6 0-47.104-38.229333-85.333333-85.333333-85.333333s-85.333333 38.229333-85.333333 85.333333c0 14.165333-11.434667 25.6-25.6 25.6s-25.6-11.434667-25.6-25.6c0-75.264 61.269333-136.533333 136.533333-136.533333s136.533333 61.269333 136.533333 136.533333c0 14.165333-11.434667 25.6-25.6 25.6z"  /><path  d="M805.546667 989.866667H218.453333a94.037333 94.037333 0 0 1-93.866666-93.866667v-768C124.586667 76.288 166.741333 34.133333 218.453333 34.133333h587.093334c51.712 0 93.866667 42.154667 93.866666 93.866667v768c0 51.712-42.154667 93.866667-93.866666 93.866667zM218.453333 85.333333a42.666667 42.666667 0 0 0-42.666666 42.666667v768a42.666667 42.666667 0 0 0 42.666666 42.666667h587.093334a42.666667 42.666667 0 0 0 42.666666-42.666667v-768A42.666667 42.666667 0 0 0 805.546667 85.333333H218.453333z"  /><path  d="M283.477333 279.893333c-7.168 0-14.165333-1.877333-19.968-5.461333-8.874667-5.461333-14.165333-14.848-14.165333-24.917333V34.133333h254.634667v215.552c0 10.069333-5.290667 19.285333-14.165334 24.917334-10.581333 6.656-25.429333 7.168-36.864 1.536l-76.288-37.546667-76.288 37.546667c-5.12 2.56-11.093333 3.754667-16.896 3.754666z m-5.632-49.664c-0.170667 0-0.170667 0 0 0z m197.632 0z m-98.816-48.64l76.117334 37.546667V85.333333h-152.234667v133.632l76.117333-37.376z"  /></svg>