<?xml version="1.0" standalone="no"?><!DOCTYPE svg PUBLIC "-//W3C//DTD SVG 1.1//EN" "http://www.w3.org/Graphics/SVG/1.1/DTD/svg11.dtd"><svg class="icon" width="64px" height="64.00px" viewBox="0 0 1024 1024" version="1.1" xmlns="http://www.w3.org/2000/svg"><path  d="M885.76 894.293333c-58.026667 0-104.106667-46.08-104.106667-104.106666V337.92H445.44v462.506667c0 51.2-42.666667 93.866667-93.866667 93.866666H128c-51.2 0-93.866667-42.666667-93.866667-93.866666V223.573333c0-51.2 42.666667-93.866667 93.866667-93.866666h768c51.2 0 93.866667 42.666667 93.866667 93.866666v566.613334c0 58.026667-46.08 104.106667-104.106667 104.106666zM394.24 286.72h440.32v503.466667c0 29.013333 23.893333 52.906667 52.906667 52.906666s51.2-23.893333 51.2-52.906666V223.573333c0-23.893333-18.773333-42.666667-42.666667-42.666666h-768c-23.893333 0-42.666667 18.773333-42.666667 42.666666v576.853334c0 23.893333 18.773333 42.666667 42.666667 42.666666h223.573333c23.893333 0 42.666667-18.773333 42.666667-42.666666V286.72z"  /><path  d="M781.653333 337.92h-716.8c-13.653333 0-25.6-11.946667-25.6-25.6s11.946667-25.6 25.6-25.6h716.8c13.653333 0 25.6 11.946667 25.6 25.6s-11.946667 25.6-25.6 25.6zM418.133333 489.813333H64.853333c-13.653333 0-25.6-11.946667-25.6-25.6s11.946667-25.6 25.6-25.6h353.28c13.653333 0 25.6 11.946667 25.6 25.6s-11.946667 25.6-25.6 25.6zM418.133333 633.173333H64.853333c-13.653333 0-25.6-11.946667-25.6-25.6s11.946667-25.6 25.6-25.6h353.28c13.653333 0 25.6 11.946667 25.6 25.6s-11.946667 25.6-25.6 25.6z"  /><path  d="M319.146667 721.92m-34.133334 0a34.133333 34.133333 0 1 0 68.266667 0 34.133333 34.133333 0 1 0-68.266667 0Z"  /></svg>