<?xml version="1.0" standalone="no"?><!DOCTYPE svg PUBLIC "-//W3C//DTD SVG 1.1//EN" "http://www.w3.org/Graphics/SVG/1.1/DTD/svg11.dtd"><svg class="icon" width="64px" height="64.00px" viewBox="0 0 1024 1024" version="1.1" xmlns="http://www.w3.org/2000/svg"><path  d="M873.813333 989.866667H150.186667c-13.653333 0-25.6-11.946667-25.6-25.6v-904.533334C124.586667 46.08 136.533333 34.133333 150.186667 34.133333h520.533333c6.826667 0 15.36 3.413333 18.773333 8.533334l203.093334 237.226666c3.413333 5.12 6.826667 10.24 6.826666 17.066667v667.306667c0 13.653333-11.946667 25.6-25.6 25.6z m-698.026666-51.2h672.426666V307.2L658.773333 85.333333H175.786667v853.333334z"  /><path  d="M443.733333 872.106667h-136.533333c-13.653333 0-25.6-11.946667-25.6-25.6v-158.72c0-13.653333 11.946667-25.6 25.6-25.6h136.533333c13.653333 0 25.6 11.946667 25.6 25.6v158.72c0 13.653333-10.24 25.6-25.6 25.6z m-109.226666-51.2h85.333333v-107.52h-85.333333v107.52z"  /><path  d="M737.28 872.106667H285.013333c-13.653333 0-25.6-11.946667-25.6-25.6s11.946667-25.6 25.6-25.6h452.266667c13.653333 0 25.6 11.946667 25.6 25.6s-10.24 25.6-25.6 25.6z"  /><path  d="M580.266667 872.106667h-136.533334c-13.653333 0-25.6-11.946667-25.6-25.6V575.146667c0-13.653333 11.946667-25.6 25.6-25.6h136.533334c13.653333 0 25.6 11.946667 25.6 25.6v271.36c0 13.653333-11.946667 25.6-25.6 25.6z m-110.933334-51.2h85.333334V600.746667h-85.333334v220.16z"  /><path  d="M715.093333 872.106667H580.266667c-13.653333 0-25.6-11.946667-25.6-25.6V462.506667c0-13.653333 11.946667-25.6 25.6-25.6h134.826666c13.653333 0 25.6 11.946667 25.6 25.6v384c0 13.653333-10.24 25.6-25.6 25.6z m-109.226666-51.2h83.626666V488.106667h-83.626666v332.8z"  /><path  d="M522.24 261.12H271.36c-13.653333 0-25.6-11.946667-25.6-25.6s11.946667-25.6 25.6-25.6h250.88c13.653333 0 25.6 11.946667 25.6 25.6s-11.946667 25.6-25.6 25.6z"  /><path  d="M443.733333 424.96H271.36c-13.653333 0-25.6-11.946667-25.6-25.6s11.946667-25.6 25.6-25.6H443.733333c13.653333 0 25.6 11.946667 25.6 25.6s-10.24 25.6-25.6 25.6z"  /></svg>