<?xml version="1.0" standalone="no"?><!DOCTYPE svg PUBLIC "-//W3C//DTD SVG 1.1//EN" "http://www.w3.org/Graphics/SVG/1.1/DTD/svg11.dtd"><svg class="icon" width="64px" height="64.00px" viewBox="0 0 1024 1024" version="1.1" xmlns="http://www.w3.org/2000/svg"><path  d="M455.338667 990.037333H132.096a94.037333 94.037333 0 0 1-93.866667-93.866666v-768c0-51.712 42.154667-93.866667 93.866667-93.866667h703.829333c51.712 0 93.866667 42.154667 93.866667 93.866667v291.84c0 14.165333-11.434667 25.6-25.6 25.6s-25.6-11.434667-25.6-25.6V128.170667a42.666667 42.666667 0 0 0-42.666667-42.666667H132.096a42.666667 42.666667 0 0 0-42.666667 42.666667v768a42.666667 42.666667 0 0 0 42.666667 42.666666h323.242667c14.165333 0 25.6 11.434667 25.6 25.6s-11.434667 25.6-25.6 25.6z"  /><path  d="M485.034667 475.989333h-278.186667c-23.893333 0-41.984-15.189333-41.984-35.328v-53.418666c0-20.138667 18.090667-35.328 41.984-35.328h278.186667c23.893333 0 41.984 15.189333 41.984 35.328v53.418666c0 20.138667-18.090667 35.328-41.984 35.328z m-268.970667-51.2h259.584v-21.674666H216.064v21.674666z"  /><path  d="M464.042667 402.944H227.84l51.2-143.36c4.778667-13.312 17.578667-22.357333 31.744-22.357333h70.314667c14.165333 0 26.965333 9.045333 31.744 22.357333l51.2 143.36z m-163.498667-51.2h90.965333l-22.698666-63.317333h-45.738667l-22.528 63.317333z m26.624-74.752z"  /><path  d="M375.466667 286.890667h-58.88c-38.4 0-69.802667-31.232-69.802667-69.802667s31.232-69.802667 69.802667-69.802667H375.466667c38.4 0 69.802667 31.232 69.802666 69.802667s-31.402667 69.802667-69.802666 69.802667z m-58.88-88.405334c-10.24 0-18.602667 8.362667-18.602667 18.602667s8.362667 18.602667 18.602667 18.602667H375.466667c10.24 0 18.602667-8.362667 18.602666-18.602667s-8.362667-18.602667-18.602666-18.602667h-58.88z"  /><path  d="M690.858667 771.413333c-6.144 0-12.458667-2.218667-17.408-6.826666-10.410667-9.557333-11.093333-25.770667-1.365334-36.181334L793.088 597.333333a25.6 25.6 0 0 1 36.181333-1.365333c10.410667 9.557333 11.093333 25.770667 1.365334 36.181333l-121.002667 131.072c-4.949333 5.461333-11.776 8.192-18.773333 8.192z"  /><path  d="M781.653333 761.344c-6.485333 0-13.141333-2.56-18.090666-7.509333l-40.277334-40.277334c-10.069333-9.898667-10.069333-26.282667 0-36.181333s26.282667-10.069333 36.181334 0l40.277333 40.277333c10.069333 9.898667 10.069333 26.282667 0 36.181334-4.949333 4.949333-11.434667 7.509333-18.090667 7.509333zM832.170667 710.997333c-6.485333 0-13.141333-2.56-18.090667-7.509333l-40.277333-40.277333a25.429333 25.429333 0 0 1 0-36.181334 25.429333 25.429333 0 0 1 36.181333 0l40.277333 40.277334c10.069333 10.069333 10.069333 26.282667 0 36.181333-5.12 4.949333-11.605333 7.509333-18.090666 7.509333zM660.650667 862.208c-41.984 0-76.117333-34.133333-76.117334-76.117333a76.049067 76.049067 0 0 1 152.064 0c0 41.813333-33.962667 76.117333-75.946666 76.117333z m0-100.864c-13.653333 0-24.917333 11.093333-24.917334 24.746667 0 13.653333 11.093333 24.917333 24.917334 24.917333 13.653333 0 24.746667-11.093333 24.746666-24.917333 0.170667-13.653333-11.093333-24.746667-24.746666-24.746667z"  /><path  d="M721.237333 990.037333c-145.92 0-264.533333-118.613333-264.533333-264.533333s118.613333-264.533333 264.533333-264.533333 264.533333 118.613333 264.533334 264.533333-118.784 264.533333-264.533334 264.533333z m0-477.866666c-117.589333 0-213.333333 95.744-213.333333 213.333333s95.744 213.333333 213.333333 213.333333 213.333333-95.744 213.333334-213.333333-95.744-213.333333-213.333334-213.333333z"  /></svg>