<?xml version="1.0" standalone="no"?><!DOCTYPE svg PUBLIC "-//W3C//DTD SVG 1.1//EN" "http://www.w3.org/Graphics/SVG/1.1/DTD/svg11.dtd"><svg class="icon" width="64px" height="64.00px" viewBox="0 0 1024 1024" version="1.1" xmlns="http://www.w3.org/2000/svg"><path  d="M828.245333 989.866667h-587.093333a94.037333 94.037333 0 0 1-93.866667-93.866667v-112.64c0-14.165333 11.434667-25.6 25.6-25.6s25.6 11.434667 25.6 25.6v112.64a42.666667 42.666667 0 0 0 42.666667 42.666667h587.093333a42.666667 42.666667 0 0 0 42.666667-42.666667v-768a42.666667 42.666667 0 0 0-42.666667-42.666667h-587.093333a42.666667 42.666667 0 0 0-42.666667 42.666667v112.64c0 14.165333-11.434667 25.6-25.6 25.6s-25.6-11.434667-25.6-25.6V128c0-51.712 42.154667-93.866667 93.866667-93.866667h587.093333c51.712 0 93.866667 42.154667 93.866667 93.866667v768c0 51.712-42.154667 93.866667-93.866667 93.866667z"  /><path  d="M218.112 673.28h-90.453333c-14.165333 0-25.6-11.434667-25.6-25.6s11.434667-25.6 25.6-25.6h90.453333c14.165333 0 25.6 11.434667 25.6 25.6s-11.605333 25.6-25.6 25.6zM218.112 537.6h-90.453333c-14.165333 0-25.6-11.434667-25.6-25.6s11.434667-25.6 25.6-25.6h90.453333c14.165333 0 25.6 11.434667 25.6 25.6s-11.605333 25.6-25.6 25.6zM218.112 401.92h-90.453333c-14.165333 0-25.6-11.434667-25.6-25.6s11.434667-25.6 25.6-25.6h90.453333c14.165333 0 25.6 11.434667 25.6 25.6s-11.605333 25.6-25.6 25.6zM534.528 486.741333c-64 0-116.053333-52.053333-116.053333-116.053333s52.053333-116.053333 116.053333-116.053333 116.053333 52.053333 116.053333 116.053333-52.053333 116.053333-116.053333 116.053333z m0-180.736c-35.84 0-64.853333 29.013333-64.853333 64.853334s29.013333 64.853333 64.853333 64.853333 64.853333-29.013333 64.853333-64.853333-29.013333-64.853333-64.853333-64.853334zM715.605333 769.194667c-14.165333 0-25.6-11.434667-25.6-25.6 0-85.674667-69.632-155.306667-155.306666-155.306667s-155.306667 69.632-155.306667 155.306667c0 14.165333-11.434667 25.6-25.6 25.6s-25.6-11.434667-25.6-25.6c0-113.834667 92.672-206.506667 206.506667-206.506667s206.506667 92.672 206.506666 206.506667c0 14.165333-11.605333 25.6-25.6 25.6z"  /></svg>