<?xml version="1.0" standalone="no"?><!DOCTYPE svg PUBLIC "-//W3C//DTD SVG 1.1//EN" "http://www.w3.org/Graphics/SVG/1.1/DTD/svg11.dtd"><svg class="icon" width="64px" height="64.00px" viewBox="0 0 1024 1024" version="1.1" xmlns="http://www.w3.org/2000/svg"><path  d="M443.733333 542.72h-29.013333c-81.92 0-133.12-40.96-133.12-104.106667 0-58.026667 52.906667-104.106667 116.053333-104.106666 13.653333 0 25.6 11.946667 25.6 25.6s-11.946667 25.6-25.6 25.6c-35.84 0-64.853333 23.893333-64.853333 52.906666 0 44.373333 44.373333 52.906667 81.92 52.906667H443.733333c13.653333 0 25.6 11.946667 25.6 25.6s-11.946667 25.6-25.6 25.6zM609.28 542.72H580.266667c-13.653333 0-25.6-11.946667-25.6-25.6s11.946667-25.6 25.6-25.6h29.013333c37.546667 0 81.92-8.533333 81.92-52.906667s-35.84-52.906667-64.853333-52.906666c-13.653333 0-25.6-11.946667-25.6-25.6s11.946667-25.6 25.6-25.6c69.973333 0 116.053333 40.96 116.053333 104.106666 0 64.853333-51.2 104.106667-133.12 104.106667z"  /><path  d="M626.346667 384c-13.653333 0-25.6-11.946667-25.6-25.6 0-54.613333-34.133333-88.746667-88.746667-88.746667s-88.746667 34.133333-88.746667 88.746667c0 13.653333-11.946667 25.6-25.6 25.6s-25.6-11.946667-25.6-25.6c0-83.626667 56.32-139.946667 139.946667-139.946667 81.92 0 139.946667 58.026667 139.946667 139.946667 0 15.36-11.946667 25.6-25.6 25.6zM421.546667 491.52h182.613333v51.2H421.546667z"  /><path  d="M512 989.866667C249.173333 989.866667 34.133333 774.826667 34.133333 512S249.173333 34.133333 512 34.133333s477.866667 215.04 477.866667 477.866667-215.04 477.866667-477.866667 477.866667z m0-904.533334C276.48 85.333333 85.333333 276.48 85.333333 512s191.146667 426.666667 426.666667 426.666667 426.666667-191.146667 426.666667-426.666667S747.52 85.333333 512 85.333333z"  /><path  d="M619.52 738.986667H387.413333c-13.653333 0-25.6-11.946667-25.6-25.6s11.946667-25.6 25.6-25.6h232.106667c13.653333 0 25.6 11.946667 25.6 25.6s-11.946667 25.6-25.6 25.6z"  /><path  d="M568.32 807.253333c-6.826667 0-13.653333-1.706667-18.773333-6.826666-10.24-10.24-10.24-25.6 0-35.84l49.493333-49.493334-49.493333-49.493333c-10.24-10.24-10.24-25.6 0-35.84 10.24-10.24 25.6-10.24 35.84 0l68.266666 68.266667c10.24 10.24 10.24 25.6 0 35.84l-68.266666 68.266666c-3.413333 1.706667-10.24 5.12-17.066667 5.12z"  /></svg>