<?xml version="1.0" standalone="no"?><!DOCTYPE svg PUBLIC "-//W3C//DTD SVG 1.1//EN" "http://www.w3.org/Graphics/SVG/1.1/DTD/svg11.dtd"><svg class="icon" width="64px" height="64.00px" viewBox="0 0 1024 1024" version="1.1" xmlns="http://www.w3.org/2000/svg"><path  d="M798.72 619.52c-8.533333 0-15.36-3.413333-20.48-10.24-8.533333-11.946667-5.12-27.306667 6.826667-35.84 22.186667-15.36 30.72-42.666667 22.186666-68.266667-6.826667-22.186667-30.72-37.546667-59.733333-37.546666h-22.186667c-11.946667 0-22.186667-8.533333-25.6-18.773334-11.946667-44.373333-49.493333-78.506667-95.573333-83.626666-46.08-5.12-90.453333 18.773333-112.64 59.733333-22.186667 40.96-15.36 92.16 15.36 126.293333 8.533333 10.24 8.533333 27.306667-1.706667 35.84-10.24 10.24-27.306667 8.533333-35.84-1.706666-44.373333-51.2-52.906667-124.586667-22.186666-184.32s97.28-93.866667 163.84-87.04c59.733333 6.826667 110.933333 47.786667 133.12 102.4h3.413333c51.2 0 93.866667 29.013333 107.52 73.386666 15.36 46.08-1.706667 97.28-42.666667 124.586667-3.413333 3.413333-8.533333 5.12-13.653333 5.12z"  /><path  d="M897.706667 832.853333H358.4c-13.653333 0-25.6-11.946667-25.6-25.6s11.946667-25.6 25.6-25.6h539.306667c22.186667 0 40.96-18.773333 40.96-40.96V278.186667c0-22.186667-18.773333-40.96-40.96-40.96H358.4c-13.653333 0-25.6-11.946667-25.6-25.6s11.946667-25.6 25.6-25.6h539.306667c51.2 0 92.16 40.96 92.16 92.16v462.506666c0 51.2-40.96 92.16-92.16 92.16z"  /><path  d="M592.213333 967.68c-13.653333 0-25.6-11.946667-25.6-25.6v-134.826667c0-13.653333 11.946667-25.6 25.6-25.6s25.6 11.946667 25.6 25.6v134.826667c0 15.36-11.946667 25.6-25.6 25.6z"  /><path  d="M730.453333 967.68H453.973333c-13.653333 0-25.6-11.946667-25.6-25.6s11.946667-25.6 25.6-25.6h278.186667c13.653333 0 25.6 11.946667 25.6 25.6s-11.946667 25.6-27.306667 25.6zM964.266667 711.68H358.4c-13.653333 0-25.6-11.946667-25.6-25.6s11.946667-25.6 25.6-25.6h605.866667c13.653333 0 25.6 11.946667 25.6 25.6s-11.946667 25.6-25.6 25.6z"  /><path  d="M324.266667 967.68H93.866667c-32.426667 0-59.733333-27.306667-59.733334-59.733333V116.053333c0-32.426667 27.306667-59.733333 59.733334-59.733333H324.266667c32.426667 0 59.733333 27.306667 59.733333 59.733333v791.893334c0 32.426667-27.306667 59.733333-59.733333 59.733333zM93.866667 107.52c-5.12 0-8.533333 3.413333-8.533334 8.533333v791.893334c0 5.12 3.413333 8.533333 8.533334 8.533333H324.266667c5.12 0 8.533333-3.413333 8.533333-8.533333V116.053333c0-5.12-3.413333-8.533333-8.533333-8.533333H93.866667z"  /><path  d="M358.4 766.293333H59.733333c-13.653333 0-25.6-11.946667-25.6-25.6s11.946667-25.6 25.6-25.6H358.4c13.653333 0 25.6 11.946667 25.6 25.6s-11.946667 25.6-25.6 25.6z"  /><path  d="M209.92 839.68m-40.96 0a40.96 40.96 0 1 0 81.92 0 40.96 40.96 0 1 0-81.92 0Z"  /></svg>