<?xml version="1.0" standalone="no"?><!DOCTYPE svg PUBLIC "-//W3C//DTD SVG 1.1//EN" "http://www.w3.org/Graphics/SVG/1.1/DTD/svg11.dtd"><svg class="icon" width="64px" height="64.00px" viewBox="0 0 1024 1024" version="1.1" xmlns="http://www.w3.org/2000/svg"><path  d="M836.266667 989.866667H187.733333c-51.2 0-93.866667-42.666667-93.866666-93.866667v-768C93.866667 76.8 136.533333 34.133333 187.733333 34.133333h648.533334c51.2 0 93.866667 42.666667 93.866666 93.866667v768c0 51.2-42.666667 93.866667-93.866666 93.866667zM187.733333 85.333333C163.84 85.333333 145.066667 104.106667 145.066667 128v768c0 23.893333 18.773333 42.666667 42.666666 42.666667h648.533334c23.893333 0 42.666667-18.773333 42.666666-42.666667v-768C878.933333 104.106667 860.16 85.333333 836.266667 85.333333H187.733333z"  /><path  d="M421.546667 786.773333c-6.826667 0-13.653333-1.706667-18.773334-6.826666-10.24-10.24-10.24-25.6 0-35.84l49.493334-49.493334-49.493334-49.493333c-10.24-10.24-10.24-25.6 0-35.84s25.6-10.24 35.84 0l68.266667 68.266667c10.24 10.24 10.24 25.6 0 35.84l-68.266667 68.266666c-5.12 3.413333-10.24 5.12-17.066666 5.12z"  /><path  d="M534.186667 786.773333c-6.826667 0-13.653333-1.706667-18.773334-6.826666-10.24-10.24-10.24-25.6 0-35.84l49.493334-49.493334-49.493334-49.493333c-10.24-10.24-10.24-25.6 0-35.84s25.6-10.24 35.84 0l68.266667 68.266667c10.24 10.24 10.24 25.6 0 35.84l-68.266667 68.266666c-3.413333 3.413333-10.24 5.12-17.066666 5.12z"  /><path  d="M737.28 663.893333c-8.533333 0-15.36-3.413333-20.48-10.24-8.533333-11.946667-5.12-27.306667 6.826667-35.84 35.84-25.6 51.2-71.68 37.546666-112.64-11.946667-39.253333-51.2-63.146667-98.986666-63.146666H631.466667c-11.946667 0-22.186667-8.533333-25.6-18.773334-18.773333-69.973333-78.506667-122.88-151.893334-131.413333-71.68-8.533333-143.36 29.013333-177.493333 93.866667s-23.893333 145.066667 23.893333 199.68c8.533333 10.24 8.533333 27.306667-1.706666 35.84-10.24 10.24-27.306667 8.533333-35.84-1.706667-61.44-69.973333-75.093333-174.08-30.72-256 42.666667-83.626667 134.826667-131.413333 228.693333-121.173333 87.04 10.24 160.426667 69.973333 189.44 150.186666h13.653333c69.973333 0 128 39.253333 146.773334 98.986667 20.48 63.146667-3.413333 131.413333-58.026667 170.666667-5.12 0-10.24 1.706667-15.36 1.706666z"  /></svg>