<?xml version="1.0" standalone="no"?><!DOCTYPE svg PUBLIC "-//W3C//DTD SVG 1.1//EN" "http://www.w3.org/Graphics/SVG/1.1/DTD/svg11.dtd"><svg class="icon" width="64px" height="64.00px" viewBox="0 0 1024 1024" version="1.1" xmlns="http://www.w3.org/2000/svg"><path  d="M428.202667 898.56c-165.034667 0-345.429333-178.517333-353.109334-186.197333-34.816-34.816-48.64-72.533333-36.864-100.864 8.533333-20.48 28.501333-32.256 54.954667-32.256 32.426667 0 194.048 30.208 298.154667 50.517333-8.362667-11.946667-14.677333-24.917333-16.896-38.229333-2.901333-17.066667 0.853333-33.109333 10.922666-46.592 40.448-53.930667 262.997333-144.213333 355.498667-144.213334 90.112 0 183.808 61.610667 241.493333 119.125334 4.778667 4.778667 7.509333 11.264 7.509334 18.090666v267.946667c0 14.165333-11.434667 25.6-25.6 25.6H740.864c-36.010667 0-73.216 12.629333-116.394667 27.136-55.296 18.773333-118.272 39.936-196.266666 39.936zM93.184 630.613333c-6.144 0-8.362667 1.365333-8.362667 1.365334-0.853333 2.901333 2.730667 20.650667 26.453334 44.202666 59.221333 59.221333 201.557333 171.178667 316.928 171.178667 69.632 0 125.781333-18.944 180.053333-37.205333 45.397333-15.36 88.405333-29.866667 132.778667-29.866667H938.666667V548.693333c-48.810667-46.250667-126.805333-96.938667-197.802667-96.938666-85.674667 0-288.256 88.746667-314.538667 123.733333-1.365333 1.877333-2.048 3.584-1.536 7.168 3.072 17.578667 30.037333 43.861333 52.224 60.586667l121.685334-40.618667a25.6 25.6 0 0 1 32.426666 16.213333 25.6 25.6 0 0 1-16.213333 32.426667l-133.802667 44.544a12.8 12.8 0 0 1-2.730666 0.682667c-0.341333 0-0.682667 0.170667-0.853334 0.170666h-0.170666c-3.413333 0.682667-6.826667 0.512-10.069334-0.170666-133.632-26.282667-343.210667-65.877333-374.101333-65.877334zM286.890667 275.626667c-6.485333 0-13.141333-2.56-18.090667-7.509334a25.429333 25.429333 0 0 1 0-36.181333l98.986667-98.986667c10.069333-10.069333 26.282667-10.069333 36.181333 0s10.069333 26.282667 0 36.181334l-98.986667 98.986666c-4.949333 4.949333-11.605333 7.509333-18.090666 7.509334z"  /><path  d="M286.890667 275.626667c-6.485333 0-13.141333-2.56-18.090667-7.509334l-98.986667-98.986666c-10.069333-10.069333-10.069333-26.282667 0-36.181334s26.282667-10.069333 36.181334 0l98.986666 98.986667c10.069333 10.069333 10.069333 26.282667 0 36.181333-4.949333 4.949333-11.605333 7.509333-18.090666 7.509334z"  /><path  d="M286.890667 501.589333c-14.165333 0-25.6-11.434667-25.6-25.6V250.026667c0-14.165333 11.434667-25.6 25.6-25.6s25.6 11.434667 25.6 25.6v225.962666c0 14.165333-11.434667 25.6-25.6 25.6z"  /><path  d="M389.290667 294.741333h-204.8c-14.165333 0-25.6-11.434667-25.6-25.6s11.434667-25.6 25.6-25.6h204.8c14.165333 0 25.6 11.434667 25.6 25.6s-11.434667 25.6-25.6 25.6zM389.290667 396.629333h-204.8c-14.165333 0-25.6-11.434667-25.6-25.6s11.434667-25.6 25.6-25.6h204.8c14.165333 0 25.6 11.434667 25.6 25.6s-11.434667 25.6-25.6 25.6zM867.157333 665.429333h-148.48c-14.165333 0-25.6-11.434667-25.6-25.6s11.434667-25.6 25.6-25.6h148.48c14.165333 0 25.6 11.434667 25.6 25.6s-11.434667 25.6-25.6 25.6z"  /><path  d="M718.677333 665.429333c-6.485333 0-13.141333-2.56-18.090666-7.509333a25.429333 25.429333 0 0 1 0-36.181333l62.122666-62.122667c10.069333-10.069333 26.282667-10.069333 36.181334 0s10.069333 26.282667 0 36.181333l-62.122667 62.122667c-4.949333 4.949333-11.605333 7.509333-18.090667 7.509333z"  /><path  d="M780.8 727.381333c-6.485333 0-13.141333-2.56-18.090667-7.509333l-62.122666-62.122667c-10.069333-10.069333-10.069333-26.282667 0-36.181333s26.282667-10.069333 36.181333 0l62.122667 62.122667c10.069333 10.069333 10.069333 26.282667 0 36.181333-4.949333 5.12-11.605333 7.509333-18.090667 7.509333z"  /></svg>