<?xml version="1.0" standalone="no"?><!DOCTYPE svg PUBLIC "-//W3C//DTD SVG 1.1//EN" "http://www.w3.org/Graphics/SVG/1.1/DTD/svg11.dtd"><svg class="icon" width="64px" height="64.00px" viewBox="0 0 1024 1024" version="1.1" xmlns="http://www.w3.org/2000/svg"><path  d="M455.68 989.866667H206.506667c-51.2 0-93.866667-42.666667-93.866667-93.866667v-768c0-51.2 42.666667-93.866667 93.866667-93.866667h452.266666c6.826667 0 13.653333 3.413333 18.773334 8.533334l203.093333 225.28c3.413333 5.12 6.826667 10.24 6.826667 17.066666v203.093334c0 13.653333-11.946667 25.6-25.6 25.6s-25.6-10.24-25.6-23.893334V295.253333L646.826667 85.333333H206.506667c-23.893333 0-42.666667 18.773333-42.666667 42.666667v768c0 23.893333 18.773333 42.666667 42.666667 42.666667h247.466666c13.653333 0 25.6 11.946667 25.6 25.6s-10.24 25.6-23.893333 25.6z"  /><path  d="M885.76 943.786667c-6.826667 0-13.653333-1.706667-18.773333-6.826667L595.626667 665.6c-10.24-10.24-10.24-25.6 0-35.84s25.6-10.24 35.84 0l271.36 271.36c10.24 10.24 10.24 25.6 0 35.84-5.12 5.12-11.946667 6.826667-17.066667 6.826667z"  /><path  d="M614.4 943.786667c-6.826667 0-13.653333-1.706667-18.773333-6.826667-10.24-10.24-10.24-25.6 0-35.84l271.36-271.36c10.24-10.24 25.6-10.24 35.84 0s10.24 25.6 0 35.84L631.466667 936.96c-5.12 5.12-11.946667 6.826667-17.066667 6.826667z"  /><path  d="M861.866667 312.32H636.586667c-13.653333 0-25.6-11.946667-25.6-25.6V59.733333c0-13.653333 11.946667-25.6 25.6-25.6s25.6 11.946667 25.6 25.6v201.386667h201.386666c13.653333 0 25.6 11.946667 25.6 25.6s-11.946667 25.6-27.306666 25.6z"  /></svg>