<?xml version="1.0" standalone="no"?><!DOCTYPE svg PUBLIC "-//W3C//DTD SVG 1.1//EN" "http://www.w3.org/Graphics/SVG/1.1/DTD/svg11.dtd"><svg class="icon" width="64px" height="64.00px" viewBox="0 0 1024 1024" version="1.1" xmlns="http://www.w3.org/2000/svg"><path  d="M512 989.866667C248.490667 989.866667 34.133333 775.509333 34.133333 512S248.490667 34.133333 512 34.133333s477.866667 214.357333 477.866667 477.866667-214.357333 477.866667-477.866667 477.866667z m0-904.533334C276.821333 85.333333 85.333333 276.650667 85.333333 512s191.317333 426.666667 426.666667 426.666667 426.666667-191.317333 426.666667-426.666667S747.349333 85.333333 512 85.333333z"  /><path  d="M512 627.882667c-122.368 0-221.866667-99.498667-221.866667-221.866667s99.498667-221.866667 221.866667-221.866667 221.866667 99.498667 221.866667 221.866667-99.498667 221.866667-221.866667 221.866667z m0-392.533334c-94.208 0-170.666667 76.629333-170.666667 170.666667 0 94.208 76.629333 170.666667 170.666667 170.666667 94.208 0 170.666667-76.629333 170.666667-170.666667s-76.458667-170.666667-170.666667-170.666667z"  /><path  d="M829.952 821.418667A356.9664 356.9664 0 0 0 512 627.882667c-134.314667 0-256.170667 74.069333-317.952 193.365333l-45.397333-23.552c70.656-136.362667 209.92-221.013333 363.349333-221.013333s292.693333 84.650667 363.349333 221.013333l-45.397333 23.722667z"  /></svg>