<?xml version="1.0" standalone="no"?><!DOCTYPE svg PUBLIC "-//W3C//DTD SVG 1.1//EN" "http://www.w3.org/Graphics/SVG/1.1/DTD/svg11.dtd"><svg class="icon" width="64px" height="64.00px" viewBox="0 0 1024 1024" version="1.1" xmlns="http://www.w3.org/2000/svg"><path  d="M489.130667 549.034667a25.6 25.6 0 1 1 25.429333-25.6c0 14.165333-11.264 25.6-25.429333 25.6z"  /><path  d="M418.986667 542.037333c-115.541333 0-209.578667-94.037333-209.578667-209.578666s93.866667-209.749333 209.578667-209.749334 209.578667 94.037333 209.578666 209.578667-94.037333 209.749333-209.578666 209.749333z m0-368.128c-87.381333 0-158.378667 70.997333-158.378667 158.378667s71.168 158.378667 158.378667 158.378667 158.378667-70.997333 158.378666-158.378667-70.997333-158.378667-158.378666-158.378667z"  /><path  d="M778.069333 901.290667c-14.165333 0-25.6-11.434667-25.6-25.6 0-183.978667-149.674667-333.653333-333.653333-333.653334S85.333333 691.712 85.333333 875.690667c0 14.165333-11.434667 25.6-25.6 25.6S34.133333 889.856 34.133333 875.690667c0-212.138667 172.714667-384.853333 384.853334-384.853334S803.84 663.552 803.84 875.690667c-0.170667 14.165333-11.605333 25.6-25.770667 25.6zM639.829333 517.290667c-14.165333 0-25.6-11.434667-25.6-25.6s11.434667-25.6 25.6-25.6c87.381333 0 158.549333-70.997333 158.549334-158.378667 0-56.32-30.378667-109.056-79.189334-137.216-12.288-6.997333-16.384-22.698667-9.386666-34.986667a25.258667 25.258667 0 0 1 34.816-9.216c64.682667 37.376 104.789333 107.008 104.789333 181.589334 0.170667 115.370667-93.866667 209.408-209.578667 209.408z"  /><path  d="M964.266667 722.090667c-9.557333 0-18.773333-5.290667-23.04-14.506667-55.125333-115.541333-173.397333-190.293333-301.397334-190.293333-14.165333 0-25.6-11.434667-25.6-25.6s11.434667-25.6 25.6-25.6c147.626667 0 283.989333 86.186667 347.477334 219.477333 6.144 12.8 0.682667 27.989333-12.117334 34.133333-3.413333 1.706667-7.168 2.389333-10.922666 2.389334z"  /></svg>