<?xml version="1.0" standalone="no"?><!DOCTYPE svg PUBLIC "-//W3C//DTD SVG 1.1//EN" "http://www.w3.org/Graphics/SVG/1.1/DTD/svg11.dtd"><svg class="icon" width="64px" height="64.00px" viewBox="0 0 1024 1024" version="1.1" xmlns="http://www.w3.org/2000/svg"><path  d="M797.013333 989.866667H163.84c-39.253333 0-69.973333-32.426667-69.973333-69.973334V105.813333C93.866667 66.56 126.293333 34.133333 163.84 34.133333h249.173333c13.653333 0 25.6 11.946667 25.6 25.6S428.373333 85.333333 413.013333 85.333333H163.84c-10.24 0-18.773333 8.533333-18.773333 20.48v814.08c0 10.24 8.533333 18.773333 18.773333 18.773334h633.173333c10.24 0 18.773333-8.533333 18.773334-18.773334V665.6c0-13.653333 11.946667-25.6 25.6-25.6s25.6 11.946667 25.6 25.6v252.586667c1.706667 39.253333-30.72 71.68-69.973334 71.68z"  /><path  d="M657.066667 808.96H271.36c-13.653333 0-25.6-11.946667-25.6-25.6s11.946667-25.6 25.6-25.6h384c13.653333 0 25.6 11.946667 25.6 25.6s-10.24 25.6-23.893333 25.6zM657.066667 628.053333H271.36c-13.653333 0-25.6-11.946667-25.6-25.6s11.946667-25.6 25.6-25.6h384c13.653333 0 25.6 11.946667 25.6 25.6s-10.24 25.6-23.893333 25.6zM493.226667 447.146667h-221.866667c-13.653333 0-25.6-11.946667-25.6-25.6s11.946667-25.6 25.6-25.6h220.16c13.653333 0 25.6 11.946667 25.6 25.6s-10.24 25.6-23.893333 25.6zM732.16 310.613333c-44.373333 0-81.92-35.84-81.92-81.92s35.84-81.92 81.92-81.92 81.92 35.84 81.92 81.92-37.546667 81.92-81.92 81.92z m0-110.933333c-17.066667 0-30.72 13.653333-30.72 30.72s13.653333 30.72 30.72 30.72 30.72-13.653333 30.72-30.72-13.653333-30.72-30.72-30.72z"  /><path  d="M785.066667 424.96c-8.533333 0-17.066667-3.413333-23.893334-10.24-18.773333-18.773333-46.08-17.066667-58.026666-1.706667l-1.706667 1.706667c-6.826667 6.826667-15.36 10.24-23.893333 10.24h-6.826667l-3.413333-1.706667c-25.6-8.533333-47.786667-22.186667-64.853334-39.253333-10.24-10.24-13.653333-23.893333-8.533333-35.84 3.413333-10.24 1.706667-22.186667-3.413333-30.72-6.826667-11.946667-15.36-17.066667-25.6-18.773333h-3.413334c-13.653333-5.12-22.186667-15.36-23.893333-27.306667-1.706667-11.946667-3.413333-25.6-3.413333-37.546667s1.706667-23.893333 3.413333-39.253333v-3.413333c3.413333-10.24 10.24-17.066667 18.773333-22.186667l5.12-1.706667c11.946667-3.413333 22.186667-10.24 25.6-18.773333 6.826667-10.24 6.826667-22.186667 3.413334-34.133333s0-27.306667 11.946666-35.84c17.066667-15.36 37.546667-27.306667 61.44-35.84h1.706667c11.946667-3.413333 25.6-1.706667 34.133333 8.533333 18.773333 18.773333 46.08 17.066667 58.026667 1.706667l1.706667-1.706667c10.24-10.24 23.893333-13.653333 35.84-8.533333 23.893333 8.533333 46.08 22.186667 64.853333 39.253333 10.24 10.24 13.653333 23.893333 8.533333 35.84-3.413333 10.24-1.706667 22.186667 3.413334 30.72 6.826667 11.946667 15.36 17.066667 25.6 18.773333h3.413333c13.653333 5.12 22.186667 15.36 23.893333 27.306667 1.706667 11.946667 3.413333 25.6 3.413334 37.546667s-1.706667 23.893333-3.413334 39.253333v3.413333c-3.413333 10.24-10.24 17.066667-18.773333 22.186667l-5.12 1.706667c-11.946667 3.413333-22.186667 10.24-25.6 18.773333-6.826667 10.24-6.826667 22.186667-3.413333 34.133333 5.12 11.946667 0 27.306667-11.946667 35.84-17.066667 15.36-37.546667 27.306667-61.44 35.84h-1.706667c-5.12 0-8.533333 1.706667-11.946666 1.706667z m-141.653334-73.386667c8.533333 6.826667 18.773333 11.946667 29.013334 17.066667 15.36-13.653333 35.84-20.48 58.026666-20.48 20.48 0 40.96 6.826667 58.026667 20.48 11.946667-5.12 22.186667-11.946667 30.72-18.773333-3.413333-22.186667 0-42.666667 10.24-61.44 10.24-17.066667 25.6-32.426667 46.08-39.253334 1.706667-6.826667 1.706667-13.653333 1.706667-18.773333 0-6.826667 0-13.653333-1.706667-18.773333-20.48-6.826667-35.84-20.48-46.08-40.96-10.24-17.066667-13.653333-39.253333-10.24-59.733334-8.533333-6.826667-18.773333-11.946667-29.013333-17.066666-15.36 13.653333-35.84 20.48-58.026667 20.48-20.48 0-40.96-6.826667-58.026667-20.48-11.946667 5.12-22.186667 11.946667-30.72 18.773333 3.413333 22.186667 0 42.666667-10.24 61.44-10.24 17.066667-25.6 32.426667-46.08 39.253333-1.706667 6.826667-1.706667 13.653333-1.706666 18.773334 0 6.826667 0 13.653333 1.706666 18.773333 20.48 6.826667 35.84 20.48 46.08 40.96 10.24 17.066667 15.36 39.253333 10.24 59.733333z m179.2 10.24v0zM641.706667 98.986667v0z"  /></svg>