<?xml version="1.0" standalone="no"?><!DOCTYPE svg PUBLIC "-//W3C//DTD SVG 1.1//EN" "http://www.w3.org/Graphics/SVG/1.1/DTD/svg11.dtd"><svg class="icon" width="64px" height="64.00px" viewBox="0 0 1024 1024" version="1.1" xmlns="http://www.w3.org/2000/svg"><path  d="M663.893333 933.546667c-10.24 0-18.773333-3.413333-27.306666-8.533334-13.653333-10.24-20.48-27.306667-18.773334-44.373333l11.946667-68.266667-49.493333-49.493333c-11.946667-11.946667-17.066667-29.013333-10.24-46.08 5.12-17.066667 18.773333-27.306667 35.84-30.72l69.973333-10.24 30.72-63.146667c6.826667-15.36 22.186667-25.6 40.96-25.6 17.066667 0 32.426667 10.24 40.96 25.6l30.72 63.146667 69.973333 10.24c17.066667 1.706667 30.72 13.653333 35.84 30.72 5.12 17.066667 1.706667 34.133333-11.946666 46.08l-49.493334 49.493333 11.946667 68.266667c3.413333 17.066667-3.413333 34.133333-18.773333 44.373333-13.653333 10.24-32.426667 11.946667-47.786667 3.413334l-61.44-32.426667-61.44 32.426667c-8.533333 3.413333-15.36 5.12-22.186667 5.12z m-39.253333-197.973334l61.44 59.733334-13.653333 83.626666 75.093333-39.253333 75.093333 39.253333-13.653333-83.626666 61.44-59.733334-83.626667-11.946666-37.546666-76.8-37.546667 76.8-87.04 11.946666z m256 1.706667z m-128-100.693333z"  /><path  d="M418.133333 989.866667H168.96c-39.253333 0-71.68-32.426667-71.68-69.973334V105.813333C97.28 66.56 129.706667 34.133333 168.96 34.133333H802.133333c39.253333 0 71.68 32.426667 71.68 71.68V358.4c0 13.653333-11.946667 25.6-25.6 25.6s-25.6-11.946667-25.6-25.6V105.813333C820.906667 93.866667 812.373333 85.333333 802.133333 85.333333H168.96c-11.946667 0-20.48 8.533333-20.48 20.48v814.08c0 10.24 8.533333 18.773333 20.48 18.773334h249.173333c13.653333 0 25.6 11.946667 25.6 25.6s-11.946667 25.6-25.6 25.6z"  /><path  d="M660.48 266.24H276.48c-13.653333 0-25.6-11.946667-25.6-25.6s11.946667-25.6 25.6-25.6h384c13.653333 0 25.6 11.946667 25.6 25.6s-11.946667 25.6-25.6 25.6zM660.48 447.146667H276.48c-13.653333 0-25.6-11.946667-25.6-25.6s11.946667-25.6 25.6-25.6h384c13.653333 0 25.6 11.946667 25.6 25.6s-11.946667 25.6-25.6 25.6zM411.306667 628.053333h-134.826667c-13.653333 0-25.6-11.946667-25.6-25.6s11.946667-25.6 25.6-25.6h134.826667c13.653333 0 25.6 11.946667 25.6 25.6s-11.946667 25.6-25.6 25.6z"  /></svg>