<?xml version="1.0" standalone="no"?><!DOCTYPE svg PUBLIC "-//W3C//DTD SVG 1.1//EN" "http://www.w3.org/Graphics/SVG/1.1/DTD/svg11.dtd"><svg class="icon" width="64px" height="64.00px" viewBox="0 0 1024 1024" version="1.1" xmlns="http://www.w3.org/2000/svg"><path  d="M390.826667 960.853333H110.933333c-42.666667 0-76.8-30.72-76.8-68.266666V121.173333c0-37.546667 34.133333-68.266667 76.8-68.266666h711.68c42.666667 0 76.8 30.72 76.8 68.266666v175.786667c0 13.653333-11.946667 25.6-25.6 25.6s-25.6-11.946667-25.6-25.6V121.173333c0-8.533333-10.24-17.066667-25.6-17.066666H110.933333c-15.36 0-25.6 8.533333-25.6 17.066666v771.413334c0 8.533333 10.24 17.066667 25.6 17.066666h279.893334c13.653333 0 25.6 11.946667 25.6 25.6s-11.946667 25.6-25.6 25.6z"  /><path  d="M708.266667 274.773333H211.626667c-13.653333 0-25.6-11.946667-25.6-25.6s11.946667-25.6 25.6-25.6h496.64c13.653333 0 25.6 11.946667 25.6 25.6s-11.946667 25.6-25.6 25.6zM573.44 481.28H211.626667c-13.653333 0-25.6-11.946667-25.6-25.6s11.946667-25.6 25.6-25.6h361.813333c13.653333 0 25.6 11.946667 25.6 25.6s-10.24 25.6-25.6 25.6zM440.32 687.786667H211.626667c-13.653333 0-25.6-11.946667-25.6-25.6s11.946667-25.6 25.6-25.6h228.693333c13.653333 0 25.6 11.946667 25.6 25.6s-10.24 25.6-25.6 25.6zM786.773333 692.906667c-58.026667 0-105.813333-47.786667-105.813333-105.813334s47.786667-105.813333 105.813333-105.813333 105.813333 47.786667 105.813334 105.813333-47.786667 105.813333-105.813334 105.813334z m0-160.426667c-30.72 0-54.613333 23.893333-54.613333 54.613333s23.893333 54.613333 54.613333 54.613334 54.613333-23.893333 54.613334-54.613334-23.893333-54.613333-54.613334-54.613333zM943.786667 971.093333H626.346667c-25.6 0-46.08-20.48-46.08-46.08v-121.173333c0-25.6 20.48-46.08 46.08-46.08h317.44c25.6 0 46.08 20.48 46.08 46.08v121.173333c0 25.6-20.48 46.08-46.08 46.08z m-312.32-51.2h307.2v-109.226666H631.466667v109.226666z"  /><path  d="M684.373333 805.546667c-5.12 0-10.24-1.706667-15.36-5.12-11.946667-8.533333-13.653333-23.893333-6.826666-35.84l80.213333-112.64c8.533333-11.946667 23.893333-13.653333 35.84-6.826667s13.653333 23.893333 6.826667 35.84l-80.213334 112.64c-3.413333 6.826667-11.946667 11.946667-20.48 11.946667z"  /><path  d="M897.706667 805.546667c-6.826667 0-13.653333-3.413333-18.773334-8.533334l-102.4-112.64c-10.24-10.24-8.533333-27.306667 1.706667-35.84 10.24-10.24 27.306667-8.533333 35.84 1.706667l102.4 112.64c10.24 10.24 8.533333 27.306667-1.706667 35.84-5.12 3.413333-10.24 6.826667-17.066666 6.826667z"  /></svg>