<?xml version="1.0" standalone="no"?><!DOCTYPE svg PUBLIC "-//W3C//DTD SVG 1.1//EN" "http://www.w3.org/Graphics/SVG/1.1/DTD/svg11.dtd"><svg class="icon" width="64px" height="64.00px" viewBox="0 0 1024 1024" version="1.1" xmlns="http://www.w3.org/2000/svg"><path  d="M669.013333 983.04c-112.64 0-216.746667-64.853333-305.493333-192.853333-6.826667-8.533333-6.826667-20.48 0-29.013334 90.453333-128 192.853333-192.853333 305.493333-192.853333 112.64 0 216.746667 64.853333 305.493334 192.853333 6.826667 8.533333 6.826667 20.48 0 29.013334-90.453333 128-192.853333 192.853333-305.493334 192.853333zM414.72 776.533333c76.8 104.106667 162.133333 155.306667 252.586667 155.306667 92.16 0 175.786667-52.906667 252.586666-155.306667-76.8-104.106667-162.133333-155.306667-252.586666-155.306666-90.453333 0-175.786667 51.2-252.586667 155.306666z"  /><path  d="M669.013333 892.586667c-64.853333 0-116.053333-52.906667-116.053333-116.053334 0-64.853333 52.906667-116.053333 116.053333-116.053333s116.053333 52.906667 116.053334 116.053333c0 63.146667-52.906667 116.053333-116.053334 116.053334z m0-180.906667c-35.84 0-64.853333 29.013333-64.853333 64.853333s29.013333 64.853333 64.853333 64.853334 64.853333-29.013333 64.853334-64.853334-29.013333-64.853333-64.853334-64.853333z"  /><path  d="M378.88 989.866667H187.733333c-78.506667 0-141.653333-63.146667-141.653333-141.653334V226.986667c0-6.826667 3.413333-13.653333 6.826667-18.773334l167.253333-167.253333c5.12-3.413333 11.946667-6.826667 18.773333-6.826667h481.28c78.506667 0 141.653333 63.146667 141.653334 141.653334v329.386666c0 13.653333-11.946667 25.6-25.6 25.6s-25.6-11.946667-25.6-25.6V175.786667c0-49.493333-40.96-90.453333-90.453334-90.453334H249.173333l-153.6 153.6v609.28C95.573333 897.706667 136.533333 938.666667 187.733333 938.666667h191.146667c13.653333 0 25.6 11.946667 25.6 25.6S392.533333 989.866667 378.88 989.866667z"  /><path  d="M440.32 546.133333H211.626667c-13.653333 0-25.6-11.946667-25.6-25.6s11.946667-25.6 25.6-25.6h228.693333c13.653333 0 25.6 11.946667 25.6 25.6s-11.946667 25.6-25.6 25.6zM529.066667 339.626667H286.72c-13.653333 0-25.6-11.946667-25.6-25.6s11.946667-25.6 25.6-25.6H529.066667c13.653333 0 25.6 11.946667 25.6 25.6s-11.946667 25.6-25.6 25.6zM237.226667 250.88H69.973333c-10.24 0-20.48-6.826667-23.893333-15.36s-1.706667-20.48 5.12-27.306667l165.546667-165.546666c6.826667-6.826667 18.773333-10.24 27.306666-5.12 10.24 3.413333 15.36 13.653333 15.36 23.893333v165.546667c3.413333 11.946667-8.533333 23.893333-22.186666 23.893333z m-104.106667-51.2h78.506667V121.173333l-78.506667 78.506667z"  /></svg>