<?xml version="1.0" standalone="no"?><!DOCTYPE svg PUBLIC "-//W3C//DTD SVG 1.1//EN" "http://www.w3.org/Graphics/SVG/1.1/DTD/svg11.dtd"><svg class="icon" width="64px" height="64.00px" viewBox="0 0 1024 1024" version="1.1" xmlns="http://www.w3.org/2000/svg"><path  d="M718.506667 989.866667c-146.773333 0-266.24-119.466667-266.24-266.24s119.466667-266.24 266.24-266.24 266.24 119.466667 266.24 266.24c0 71.68-27.306667 138.24-78.506667 187.733333-49.493333 51.2-116.053333 78.506667-187.733333 78.506667z m0-479.573334c-117.76 0-215.04 95.573333-215.04 215.04 0 117.76 95.573333 215.04 215.04 215.04 58.026667 0 110.933333-22.186667 151.893333-63.146666 40.96-40.96 63.146667-93.866667 63.146667-151.893334 0-119.466667-97.28-215.04-215.04-215.04z"  /><path  d="M358.4 984.746667H110.933333c-39.253333 0-69.973333-32.426667-69.973333-69.973334V104.106667C39.253333 66.56 71.68 34.133333 110.933333 34.133333h629.76c39.253333 0 69.973333 32.426667 69.973334 69.973334v184.32c0 13.653333-11.946667 25.6-25.6 25.6s-25.6-11.946667-25.6-25.6V104.106667c0-10.24-8.533333-18.773333-18.773334-18.773334H110.933333c-11.946667 0-20.48 8.533333-20.48 18.773334v810.666666c0 10.24 8.533333 18.773333 18.773334 18.773334H358.4c13.653333 0 25.6 11.946667 25.6 25.6s-11.946667 25.6-25.6 25.6z"  /><path  d="M640 264.533333H199.68c-13.653333 0-25.6-11.946667-25.6-25.6s11.946667-25.6 25.6-25.6h440.32c13.653333 0 25.6 11.946667 25.6 25.6s-11.946667 25.6-25.6 25.6zM503.466667 433.493333H199.68c-13.653333 0-25.6-11.946667-25.6-25.6s11.946667-25.6 25.6-25.6h303.786667c13.653333 0 25.6 11.946667 25.6 25.6s-11.946667 25.6-25.6 25.6zM360.106667 600.746667h-160.426667c-13.653333 0-25.6-11.946667-25.6-25.6s11.946667-25.6 25.6-25.6h160.426667c13.653333 0 25.6 11.946667 25.6 25.6s-11.946667 25.6-25.6 25.6zM360.106667 749.226667h-160.426667c-13.653333 0-25.6-11.946667-25.6-25.6s11.946667-25.6 25.6-25.6h160.426667c13.653333 0 25.6 11.946667 25.6 25.6s-11.946667 25.6-25.6 25.6zM805.546667 873.813333H629.76c-6.826667 0-13.653333-3.413333-18.773333-8.533333-5.12-5.12-6.826667-11.946667-6.826667-18.773333 5.12-66.56 29.013333-102.4 52.906667-122.88-30.72-23.893333-56.32-63.146667-51.2-126.293334 1.706667-13.653333 11.946667-23.893333 25.6-23.893333h175.786666c13.653333 0 25.6 10.24 25.6 23.893333 1.706667 34.133333-8.533333 90.453333-49.493333 124.586667 35.84 32.426667 47.786667 88.746667 47.786667 124.586667 0 6.826667-1.706667 13.653333-6.826667 18.773333-5.12 6.826667-11.946667 8.533333-18.773333 8.533333z m-146.773334-51.2h117.76c-5.12-29.013333-20.48-73.386667-58.026666-73.386666H716.8c-3.413333 1.706667-42.666667 3.413333-58.026667 73.386666z m-1.706666-197.973333c5.12 54.613333 49.493333 69.973333 63.146666 73.386667 42.666667-8.533333 54.613333-47.786667 59.733334-73.386667h-122.88z"  /></svg>