<?xml version="1.0" standalone="no"?><!DOCTYPE svg PUBLIC "-//W3C//DTD SVG 1.1//EN" "http://www.w3.org/Graphics/SVG/1.1/DTD/svg11.dtd"><svg class="icon" width="64px" height="64.00px" viewBox="0 0 1024 1024" version="1.1" xmlns="http://www.w3.org/2000/svg"><path  d="M691.2 897.706667H237.226667c-78.506667 0-141.653333-63.146667-141.653334-141.653334v-580.266666C93.866667 97.28 158.72 34.133333 237.226667 34.133333h455.68c78.506667 0 141.653333 63.146667 141.653333 141.653334v578.56c0 80.213333-64.853333 143.36-143.36 143.36zM237.226667 85.333333C187.733333 85.333333 146.773333 126.293333 146.773333 175.786667v578.56c0 49.493333 40.96 90.453333 90.453334 90.453333h455.68c49.493333 0 90.453333-40.96 90.453333-90.453333V175.786667c0-49.493333-40.96-90.453333-90.453333-90.453334H237.226667z"  /><path  d="M798.72 989.866667H165.546667c-13.653333 0-25.6-11.946667-25.6-25.6S150.186667 938.666667 165.546667 938.666667h634.88c44.373333 0 80.213333-35.84 80.213333-80.213334v-785.066666c0-13.653333 11.946667-25.6 25.6-25.6s25.6 11.946667 25.6 25.6v786.773333c-1.706667 71.68-61.44 129.706667-133.12 129.706667zM646.826667 262.826667H281.6c-13.653333 0-25.6-11.946667-25.6-25.6s11.946667-25.6 25.6-25.6H648.533333c13.653333 0 25.6 11.946667 25.6 25.6s-11.946667 25.6-27.306666 25.6z"  /><path  d="M646.826667 438.613333H281.6c-13.653333 0-25.6-11.946667-25.6-25.6s11.946667-25.6 25.6-25.6H648.533333c13.653333 0 25.6 11.946667 25.6 25.6s-11.946667 25.6-27.306666 25.6zM523.946667 616.106667H281.6c-13.653333 0-25.6-11.946667-25.6-25.6s11.946667-25.6 25.6-25.6h244.053333c13.653333 0 25.6 11.946667 25.6 25.6s-11.946667 25.6-27.306666 25.6z"  /></svg>