<?xml version="1.0" standalone="no"?><!DOCTYPE svg PUBLIC "-//W3C//DTD SVG 1.1//EN" "http://www.w3.org/Graphics/SVG/1.1/DTD/svg11.dtd"><svg class="icon" width="64px" height="64.00px" viewBox="0 0 1024 1024" version="1.1" xmlns="http://www.w3.org/2000/svg"><path  d="M778.24 989.866667H245.76C167.253333 989.866667 102.4 926.72 102.4 848.213333V175.786667C102.4 97.28 167.253333 34.133333 245.76 34.133333h532.48c78.506667 0 141.653333 63.146667 141.653333 141.653334v670.72c1.706667 80.213333-63.146667 143.36-141.653333 143.36zM245.76 85.333333C194.56 85.333333 153.6 126.293333 153.6 175.786667v670.72c0 49.493333 40.96 90.453333 90.453333 90.453333h532.48c49.493333 0 90.453333-40.96 90.453334-90.453333V175.786667C870.4 126.293333 829.44 85.333333 778.24 85.333333H245.76z"  /><path  d="M764.586667 283.306667H259.413333c-13.653333 0-25.6-11.946667-25.6-25.6s11.946667-25.6 25.6-25.6h503.466667c13.653333 0 25.6 11.946667 25.6 25.6s-10.24 25.6-23.893333 25.6zM764.586667 445.44H259.413333c-13.653333 0-25.6-11.946667-25.6-25.6s11.946667-25.6 25.6-25.6h503.466667c13.653333 0 25.6 11.946667 25.6 25.6s-10.24 25.6-23.893333 25.6zM510.293333 607.573333H259.413333c-13.653333 0-25.6-11.946667-25.6-25.6s11.946667-25.6 25.6-25.6h250.88c13.653333 0 25.6 11.946667 25.6 25.6s-10.24 25.6-25.6 25.6zM658.773333 856.746667c-3.413333 0-6.826667 0-10.24-1.706667-15.36-3.413333-27.306667-15.36-30.72-30.72l-11.946666-52.906667-47.786667-20.48c-15.36-6.826667-23.893333-20.48-25.6-35.84-1.706667-15.36 6.826667-30.72 20.48-37.546666l46.08-27.306667 5.12-52.906667c1.706667-15.36 10.24-29.013333 25.6-35.84 15.36-6.826667 30.72-3.413333 42.666667 6.826667l39.253333 35.84 52.906667-11.946667c15.36-3.413333 30.72 1.706667 40.96 13.653334 10.24 11.946667 11.946667 29.013333 6.826666 42.666666l-22.186666 49.493334 27.306666 46.08c8.533333 13.653333 8.533333 30.72 0 44.373333s-23.893333 20.48-39.253333 18.773333l-52.906667-5.12-34.133333 40.96c-8.533333 8.533333-20.48 13.653333-32.426667 13.653334z m-63.146666-146.773334l56.32 23.893334 11.946666 59.733333 39.253334-46.08 59.733333 6.826667-32.426667-51.2 23.893334-54.613334-59.733334 13.653334-44.373333-40.96-1.706667 59.733333-52.906666 29.013333z m180.906666-68.266666z m-121.173333-40.96z"  /></svg>