<?xml version="1.0" standalone="no"?><!DOCTYPE svg PUBLIC "-//W3C//DTD SVG 1.1//EN" "http://www.w3.org/Graphics/SVG/1.1/DTD/svg11.dtd"><svg class="icon" width="64px" height="64.00px" viewBox="0 0 1024 1024" version="1.1" xmlns="http://www.w3.org/2000/svg"><path  d="M261.12 464.213333c-8.533333 0-17.066667-3.413333-23.893333-8.533333-11.946667-8.533333-18.773333-25.6-17.066667-40.96l8.533333-51.2-37.546666-35.84c-11.946667-11.946667-15.36-27.306667-10.24-42.666667 5.12-15.36 17.066667-25.6 32.426666-27.306666l51.2-6.826667 23.893334-46.08c6.826667-13.653333 20.48-22.186667 35.84-23.893333 15.36 0 29.013333 8.533333 37.546666 22.186666l23.893334 47.786667 51.2 8.533333c15.36 1.706667 29.013333 13.653333 32.426666 27.306667 5.12 15.36 1.706667 30.72-10.24 42.666667l-37.546666 35.84 8.533333 51.2c3.413333 15.36-3.413333 30.72-17.066667 40.96-11.946667 8.533333-29.013333 10.24-42.666666 3.413333L324.266667 436.906667 278.186667 460.8c-3.413333 1.706667-10.24 3.413333-17.066667 3.413333z m121.173333-39.253333z m-110.933333 0z m-29.013333-119.466667l42.666666 40.96-10.24 58.026667 52.906667-27.306667 52.906667 27.306667-10.24-58.026667 42.666666-40.96-58.026666-8.533333-25.6-52.906667-25.6 52.906667-61.44 8.533333z m189.44 1.706667z m-95.573334-81.92z"  /><path  d="M399.36 974.506667H155.306667C116.053333 974.506667 85.333333 942.08 85.333333 904.533333V104.106667C85.333333 64.853333 116.053333 34.133333 155.306667 34.133333h621.226666c39.253333 0 69.973333 30.72 69.973334 69.973334v349.866666c0 13.653333-11.946667 25.6-25.6 25.6s-25.6-11.946667-25.6-25.6V104.106667c0-10.24-8.533333-18.773333-18.773334-18.773334H155.306667C145.066667 85.333333 136.533333 93.866667 136.533333 104.106667V904.533333c0 10.24 8.533333 18.773333 18.773334 18.773334h244.053333c13.653333 0 25.6 11.946667 25.6 25.6s-11.946667 25.6-25.6 25.6z"  /><path  d="M672.426667 262.826667H529.066667c-13.653333 0-25.6-11.946667-25.6-25.6s11.946667-25.6 25.6-25.6h143.36c13.653333 0 25.6 11.946667 25.6 25.6s-11.946667 25.6-25.6 25.6zM672.426667 440.32H529.066667c-13.653333 0-25.6-11.946667-25.6-25.6s11.946667-25.6 25.6-25.6h143.36c13.653333 0 25.6 11.946667 25.6 25.6s-11.946667 25.6-25.6 25.6zM377.173333 779.946667h-133.12c-13.653333 0-25.6-11.946667-25.6-25.6s11.946667-25.6 25.6-25.6h133.12c13.653333 0 25.6 11.946667 25.6 25.6s-11.946667 25.6-25.6 25.6zM527.36 609.28H244.053333c-13.653333 0-25.6-11.946667-25.6-25.6s11.946667-25.6 25.6-25.6H529.066667c13.653333 0 25.6 11.946667 25.6 25.6s-13.653333 25.6-27.306667 25.6zM689.493333 933.546667c-100.693333 0-182.613333-81.92-182.613333-182.613334s81.92-182.613333 182.613333-182.613333S872.106667 650.24 872.106667 750.933333c0 49.493333-18.773333 93.866667-52.906667 129.706667s-80.213333 52.906667-129.706667 52.906667z m0-314.026667c-71.68 0-131.413333 59.733333-131.413333 131.413333s59.733333 131.413333 131.413333 131.413334c35.84 0 68.266667-13.653333 92.16-39.253334 25.6-25.6 39.253333-58.026667 39.253334-92.16 0-73.386667-58.026667-131.413333-131.413334-131.413333z"  /><path  d="M913.066667 989.866667c-5.12 0-11.946667-1.706667-17.066667-5.12l-104.106667-87.04c-10.24-8.533333-11.946667-25.6-3.413333-35.84 8.533333-10.24 25.6-11.946667 35.84-3.413334l104.106667 87.04c10.24 8.533333 11.946667 25.6 3.413333 35.84-3.413333 5.12-10.24 8.533333-18.773333 8.533334z"  /></svg>