<?xml version="1.0" standalone="no"?><!DOCTYPE svg PUBLIC "-//W3C//DTD SVG 1.1//EN" "http://www.w3.org/Graphics/SVG/1.1/DTD/svg11.dtd"><svg class="icon" width="64px" height="64.00px" viewBox="0 0 1024 1024" version="1.1" xmlns="http://www.w3.org/2000/svg"><path  d="M778.24 989.866667H245.76C167.253333 989.866667 102.4 926.72 102.4 848.213333V175.786667C102.4 97.28 167.253333 34.133333 245.76 34.133333h491.52L921.6 216.746667v629.76c0 80.213333-64.853333 143.36-143.36 143.36zM245.76 85.333333C194.56 85.333333 153.6 126.293333 153.6 175.786667v670.72c0 49.493333 40.96 90.453333 90.453333 90.453333h532.48c49.493333 0 90.453333-40.96 90.453334-90.453333V238.933333l-153.6-153.6H245.76z"  /><path  d="M392.533333 424.96h-102.4c-32.426667 0-59.733333-27.306667-59.733333-59.733333v-102.4c0-32.426667 27.306667-59.733333 59.733333-59.733334h102.4c32.426667 0 59.733333 27.306667 59.733334 59.733334v102.4c0 32.426667-27.306667 59.733333-59.733334 59.733333z m-102.4-170.666667c-5.12 0-8.533333 3.413333-8.533333 8.533334v102.4c0 5.12 3.413333 8.533333 8.533333 8.533333h102.4c5.12 0 8.533333-3.413333 8.533334-8.533333v-102.4c0-5.12-3.413333-8.533333-8.533334-8.533334h-102.4zM754.346667 546.133333H269.653333c-13.653333 0-25.6-11.946667-25.6-25.6S256 494.933333 269.653333 494.933333h484.693334c13.653333 0 25.6 11.946667 25.6 25.6S768 546.133333 754.346667 546.133333zM754.346667 703.146667H269.653333c-13.653333 0-25.6-11.946667-25.6-25.6s11.946667-25.6 25.6-25.6h484.693334c13.653333 0 25.6 11.946667 25.6 25.6s-11.946667 25.6-25.6 25.6zM510.293333 860.16H269.653333c-13.653333 0-25.6-11.946667-25.6-25.6s11.946667-25.6 25.6-25.6H512c13.653333 0 25.6 11.946667 25.6 25.6s-11.946667 25.6-27.306667 25.6zM754.346667 339.626667H513.706667c-13.653333 0-25.6-11.946667-25.6-25.6s11.946667-25.6 25.6-25.6h242.346666c13.653333 0 25.6 11.946667 25.6 25.6s-13.653333 25.6-27.306666 25.6zM896 254.293333h-165.546667c-13.653333 0-25.6-11.946667-25.6-25.6V63.146667c0-10.24 6.826667-20.48 15.36-23.893334s20.48-1.706667 27.306667 5.12l165.546667 165.546667c6.826667 6.826667 10.24 18.773333 5.12 27.306667s-11.946667 17.066667-22.186667 17.066666z m-141.653333-51.2h78.506666l-78.506666-78.506666v78.506666z"  /></svg>