<?xml version="1.0" standalone="no"?><!DOCTYPE svg PUBLIC "-//W3C//DTD SVG 1.1//EN" "http://www.w3.org/Graphics/SVG/1.1/DTD/svg11.dtd"><svg class="icon" width="64px" height="64.00px" viewBox="0 0 1024 1024" version="1.1" xmlns="http://www.w3.org/2000/svg"><path  d="M397.653333 989.866667H148.48c-39.253333 0-71.68-32.426667-71.68-71.68V104.106667C76.8 66.56 109.226667 34.133333 148.48 34.133333h633.173333C820.906667 34.133333 853.333333 66.56 853.333333 104.106667V358.4c0 13.653333-11.946667 25.6-25.6 25.6S802.133333 372.053333 802.133333 358.4V104.106667c0-10.24-8.533333-18.773333-20.48-18.773334H148.48c-10.24 0-20.48 8.533333-20.48 18.773334v814.08c0 10.24 8.533333 20.48 20.48 20.48h249.173333c13.653333 0 25.6 11.946667 25.6 25.6s-11.946667 25.6-25.6 25.6z"  /><path  d="M640 447.146667h-256c-13.653333 0-25.6-11.946667-25.6-25.6s11.946667-25.6 25.6-25.6h256c13.653333 0 25.6 11.946667 25.6 25.6s-10.24 25.6-25.6 25.6zM288.426667 447.146667H256c-13.653333 0-25.6-11.946667-25.6-25.6s11.946667-25.6 25.6-25.6h32.426667c13.653333 0 25.6 11.946667 25.6 25.6s-10.24 25.6-25.6 25.6zM640 266.24h-256c-13.653333 0-25.6-11.946667-25.6-25.6s11.946667-25.6 25.6-25.6h256c13.653333 0 25.6 11.946667 25.6 25.6s-10.24 25.6-25.6 25.6zM288.426667 266.24H256c-13.653333 0-25.6-11.946667-25.6-25.6s11.946667-25.6 25.6-25.6h32.426667c13.653333 0 25.6 11.946667 25.6 25.6s-10.24 25.6-25.6 25.6z"  /><path  d="M288.426667 628.053333H256c-13.653333 0-25.6-11.946667-25.6-25.6s11.946667-25.6 25.6-25.6h32.426667c13.653333 0 25.6 11.946667 25.6 25.6s-10.24 25.6-25.6 25.6z"  /><path  d="M665.6 865.28c-6.826667 0-15.36-1.706667-20.48-6.826667-11.946667-8.533333-17.066667-22.186667-13.653333-35.84l5.12-30.72-22.186667-22.186666c-10.24-10.24-13.653333-23.893333-8.533333-37.546667 3.413333-13.653333 15.36-22.186667 29.013333-23.893333l30.72-5.12 13.653333-27.306667c5.12-11.946667 18.773333-20.48 32.426667-20.48 13.653333 0 25.6 8.533333 32.426667 20.48l13.653333 29.013333 30.72 5.12c13.653333 1.706667 25.6 11.946667 29.013333 23.893334 5.12 13.653333 0 27.306667-8.533333 37.546666L785.066667 791.893333l5.12 30.72c1.706667 13.653333-3.413333 27.306667-13.653334 35.84-11.946667 8.533333-25.6 8.533333-37.546666 3.413334l-27.306667-15.36-29.013333 13.653333c-5.12 3.413333-11.946667 5.12-17.066667 5.12z m5.12-110.933333l20.48 18.773333-5.12 27.306667 23.893333-13.653334 23.893334 13.653334-5.12-27.306667 20.48-18.773333-27.306667-3.413334-11.946667-23.893333-11.946666 23.893333-27.306667 3.413334z m109.226667 5.12z m-56.32-61.44z"  /><path  d="M826.026667 974.506667H592.213333c-10.24 0-18.773333-5.12-22.186666-13.653334l-93.866667-189.44c-3.413333-6.826667-3.413333-15.36 0-23.893333l100.693333-189.44c5.12-8.533333 13.653333-13.653333 22.186667-13.653333h226.986667c10.24 0 18.773333 5.12 22.186666 13.653333l93.866667 186.026667c3.413333 6.826667 3.413333 15.36 0 22.186666l-95.573333 192.853334c-1.706667 10.24-11.946667 15.36-20.48 15.36z m-218.453334-51.2h201.386667l81.92-167.253334-78.506667-158.72H614.4l-87.04 163.84 80.213333 162.133334z"  /></svg>