<?xml version="1.0" standalone="no"?><!DOCTYPE svg PUBLIC "-//W3C//DTD SVG 1.1//EN" "http://www.w3.org/Graphics/SVG/1.1/DTD/svg11.dtd"><svg class="icon" width="64px" height="64.00px" viewBox="0 0 1024 1024" version="1.1" xmlns="http://www.w3.org/2000/svg"><path  d="M561.493333 836.266667c-6.826667 0-15.36-1.706667-20.48-6.826667-10.24-8.533333-17.066667-22.186667-13.653333-34.133333l5.12-27.306667-20.48-20.48c-10.24-10.24-13.653333-23.893333-8.533333-35.84 3.413333-13.653333 15.36-22.186667 29.013333-23.893333l29.013333-3.413334 11.946667-25.6c5.12-11.946667 18.773333-20.48 30.72-20.48 13.653333 0 25.6 6.826667 32.426667 18.773334L648.533333 682.666667l29.013334 3.413333c13.653333 1.706667 23.893333 11.946667 29.013333 23.893333 3.413333 11.946667 0 27.306667-8.533333 35.84L675.84 768l5.12 27.306667c1.706667 13.653333-3.413333 27.306667-13.653333 34.133333-10.24 8.533333-25.6 8.533333-37.546667 3.413333l-27.306667-13.653333-25.6 13.653333c-3.413333 3.413333-10.24 3.413333-15.36 3.413334z m15.36-32.426667z m-6.826666-71.68l17.066666 17.066667-3.413333 23.893333 20.48-10.24 20.48 10.24-3.413333-23.893333 17.066666-17.066667-23.893333-3.413333-10.24-20.48-10.24 20.48-23.893333 3.413333z m47.786666-52.906667z"  /><path  d="M727.04 989.866667H201.386667c-78.506667 0-141.653333-63.146667-141.653334-141.653334v-580.266666c0-78.506667 63.146667-141.653333 141.653334-141.653334h525.653333c78.506667 0 141.653333 63.146667 141.653333 141.653334v578.56c1.706667 80.213333-63.146667 143.36-141.653333 143.36zM201.386667 177.493333c-49.493333 0-90.453333 40.96-90.453334 90.453334v578.56c0 49.493333 40.96 90.453333 90.453334 90.453333h525.653333c49.493333 0 90.453333-40.96 90.453333-90.453333V267.946667c0-49.493333-40.96-90.453333-90.453333-90.453334H201.386667z"  /><path  d="M940.373333 976.213333c-13.653333 0-25.6-11.946667-25.6-25.6v-785.066666c0-44.373333-35.84-80.213333-80.213333-80.213334H201.386667c-13.653333 0-25.6-11.946667-25.6-25.6S186.026667 34.133333 201.386667 34.133333H836.266667c71.68 0 131.413333 58.026667 131.413333 131.413334v786.773333c-1.706667 13.653333-13.653333 23.893333-27.306667 23.893333z"  /><path  d="M701.44 380.586667H361.813333c-13.653333 0-25.6-11.946667-25.6-25.6s11.946667-25.6 25.6-25.6h339.626667c13.653333 0 25.6 11.946667 25.6 25.6s-11.946667 25.6-25.6 25.6zM249.173333 380.586667h-29.013333c-13.653333 0-25.6-11.946667-25.6-25.6s11.946667-25.6 25.6-25.6h29.013333c13.653333 0 25.6 11.946667 25.6 25.6s-11.946667 25.6-25.6 25.6zM477.866667 546.133333h-116.053334c-13.653333 0-25.6-11.946667-25.6-25.6s11.946667-25.6 25.6-25.6H477.866667c13.653333 0 25.6 11.946667 25.6 25.6S491.52 546.133333 477.866667 546.133333zM249.173333 546.133333h-29.013333c-13.653333 0-25.6-11.946667-25.6-25.6s11.946667-25.6 25.6-25.6h29.013333c13.653333 0 25.6 11.946667 25.6 25.6s-11.946667 25.6-25.6 25.6z"  /><path  d="M602.453333 919.893333c-100.693333 0-182.613333-81.92-182.613333-182.613333s81.92-182.613333 182.613333-182.613333S785.066667 636.586667 785.066667 737.28c0 49.493333-18.773333 93.866667-52.906667 128-34.133333 35.84-80.213333 54.613333-129.706667 54.613333z m0-314.026666c-71.68 0-131.413333 58.026667-131.413333 131.413333s58.026667 131.413333 131.413333 131.413333c35.84 0 68.266667-13.653333 92.16-37.546666 25.6-25.6 37.546667-58.026667 37.546667-92.16 1.706667-73.386667-56.32-133.12-129.706667-133.12z"  /></svg>