<?xml version="1.0" standalone="no"?><!DOCTYPE svg PUBLIC "-//W3C//DTD SVG 1.1//EN" "http://www.w3.org/Graphics/SVG/1.1/DTD/svg11.dtd"><svg class="icon" width="64px" height="64.00px" viewBox="0 0 1024 1024" version="1.1" xmlns="http://www.w3.org/2000/svg"><path  d="M778.24 989.866667H245.76C167.253333 989.866667 102.4 926.72 102.4 848.213333V175.786667C102.4 97.28 167.253333 34.133333 245.76 34.133333h532.48c78.506667 0 141.653333 63.146667 141.653333 141.653334v670.72c1.706667 80.213333-63.146667 143.36-141.653333 143.36zM245.76 85.333333C194.56 85.333333 153.6 126.293333 153.6 175.786667v670.72c0 49.493333 40.96 90.453333 90.453333 90.453333h532.48c49.493333 0 90.453333-40.96 90.453334-90.453333V175.786667C870.4 126.293333 829.44 85.333333 778.24 85.333333H245.76z"  /><path  d="M762.88 283.306667H394.24c-13.653333 0-25.6-11.946667-25.6-25.6s11.946667-25.6 25.6-25.6h368.64c13.653333 0 25.6 11.946667 25.6 25.6s-11.946667 25.6-25.6 25.6zM762.88 418.133333H394.24c-13.653333 0-25.6-11.946667-25.6-25.6s11.946667-25.6 25.6-25.6h368.64c13.653333 0 25.6 11.946667 25.6 25.6s-11.946667 25.6-25.6 25.6zM291.84 283.306667h-30.72c-13.653333 0-25.6-11.946667-25.6-25.6s11.946667-25.6 25.6-25.6h30.72c13.653333 0 25.6 11.946667 25.6 25.6s-10.24 25.6-25.6 25.6zM291.84 418.133333h-30.72c-13.653333 0-25.6-11.946667-25.6-25.6s11.946667-25.6 25.6-25.6h30.72c13.653333 0 25.6 11.946667 25.6 25.6s-10.24 25.6-25.6 25.6zM762.88 624.64H394.24c-13.653333 0-25.6-11.946667-25.6-25.6s11.946667-25.6 25.6-25.6h368.64c13.653333 0 25.6 11.946667 25.6 25.6s-11.946667 25.6-25.6 25.6zM762.88 761.173333H394.24c-13.653333 0-25.6-11.946667-25.6-25.6s11.946667-25.6 25.6-25.6h368.64c13.653333 0 25.6 11.946667 25.6 25.6s-11.946667 25.6-25.6 25.6zM291.84 624.64h-30.72c-13.653333 0-25.6-11.946667-25.6-25.6s11.946667-25.6 25.6-25.6h30.72c13.653333 0 25.6 11.946667 25.6 25.6s-10.24 25.6-25.6 25.6zM291.84 761.173333h-30.72c-13.653333 0-25.6-11.946667-25.6-25.6s11.946667-25.6 25.6-25.6h30.72c13.653333 0 25.6 11.946667 25.6 25.6s-10.24 25.6-25.6 25.6z"  /></svg>