<?xml version="1.0" standalone="no"?><!DOCTYPE svg PUBLIC "-//W3C//DTD SVG 1.1//EN" "http://www.w3.org/Graphics/SVG/1.1/DTD/svg11.dtd"><svg class="icon" width="64px" height="64.00px" viewBox="0 0 1024 1024" version="1.1" xmlns="http://www.w3.org/2000/svg"><path  d="M477.866667 989.866667H201.386667c-78.506667 0-141.653333-63.146667-141.653334-141.653334V175.786667C59.733333 97.28 122.88 34.133333 201.386667 34.133333H682.666667c6.826667 0 13.653333 3.413333 18.773333 6.826667l167.253333 167.253333c5.12 5.12 6.826667 11.946667 6.826667 18.773334v346.453333c0 13.653333-11.946667 25.6-25.6 25.6s-25.6-11.946667-25.6-25.6V238.933333l-153.6-153.6H201.386667c-49.493333 0-90.453333 40.96-90.453334 90.453334v670.72c0 49.493333 40.96 90.453333 90.453334 90.453333H477.866667c13.653333 0 25.6 11.946667 25.6 25.6S493.226667 989.866667 477.866667 989.866667z"  /><path  d="M650.24 407.893333H225.28c-13.653333 0-25.6-11.946667-25.6-25.6s11.946667-25.6 25.6-25.6H648.533333c13.653333 0 25.6 11.946667 25.6 25.6s-10.24 25.6-23.893333 25.6zM650.24 546.133333H225.28c-13.653333 0-25.6-11.946667-25.6-25.6s11.946667-25.6 25.6-25.6H648.533333c13.653333 0 25.6 11.946667 25.6 25.6s-10.24 25.6-23.893333 25.6zM467.626667 682.666667H225.28c-13.653333 0-25.6-11.946667-25.6-25.6s11.946667-25.6 25.6-25.6h242.346667c13.653333 0 25.6 11.946667 25.6 25.6s-11.946667 25.6-25.6 25.6zM436.906667 271.36H225.28c-13.653333 0-25.6-11.946667-25.6-25.6s11.946667-25.6 25.6-25.6h211.626667c13.653333 0 25.6 11.946667 25.6 25.6s-11.946667 25.6-25.6 25.6zM851.626667 291.84H657.066667c-13.653333 0-25.6-11.946667-25.6-25.6V59.733333c0-13.653333 11.946667-25.6 25.6-25.6s25.6 11.946667 25.6 25.6v180.906667h168.96c13.653333 0 25.6 11.946667 25.6 25.6s-11.946667 25.6-25.6 25.6zM672.426667 957.44c-5.12 0-10.24-1.706667-15.36-5.12L493.226667 836.266667c-11.946667-8.533333-13.653333-23.893333-6.826667-35.84 8.533333-11.946667 23.893333-13.653333 35.84-6.826667l145.066667 102.4 252.586666-288.426667c8.533333-10.24 25.6-11.946667 35.84-1.706666 10.24 8.533333 11.946667 25.6 1.706667 35.84l-266.24 307.2c-5.12 5.12-11.946667 8.533333-18.773333 8.533333z"  /></svg>