<?xml version="1.0" standalone="no"?><!DOCTYPE svg PUBLIC "-//W3C//DTD SVG 1.1//EN" "http://www.w3.org/Graphics/SVG/1.1/DTD/svg11.dtd"><svg class="icon" width="64px" height="64.00px" viewBox="0 0 1024 1024" version="1.1" xmlns="http://www.w3.org/2000/svg"><path  d="M209.92 332.8c-81.92 0-148.48-66.56-148.48-148.48C59.733333 100.693333 128 34.133333 209.92 34.133333c81.92 0 148.48 66.56 148.48 148.48 0 81.92-66.56 150.186667-148.48 150.186667z m0-247.466667c-54.613333 0-97.28 44.373333-97.28 97.28 0 54.613333 44.373333 97.28 97.28 97.28 54.613333 0 97.28-44.373333 97.28-97.28S262.826667 85.333333 209.92 85.333333zM317.44 989.866667H102.4c-32.426667 0-58.026667-25.6-58.026667-58.026667V534.186667c0-87.04 71.68-158.72 158.72-158.72h15.36c87.04 0 158.72 71.68 158.72 158.72v397.653333c-1.706667 32.426667-27.306667 58.026667-59.733333 58.026667z m-116.053333-563.2c-59.733333 0-107.52 47.786667-107.52 107.52v397.653333c0 3.413333 3.413333 6.826667 8.533333 6.826667h215.04c3.413333 0 6.826667-3.413333 6.826667-6.826667V534.186667c0-59.733333-47.786667-107.52-107.52-107.52h-15.36zM814.08 332.8c-81.92 0-148.48-66.56-148.48-148.48C665.6 100.693333 732.16 34.133333 814.08 34.133333c81.92 0 148.48 66.56 148.48 148.48 1.706667 81.92-66.56 150.186667-148.48 150.186667z m0-247.466667C761.173333 85.333333 716.8 129.706667 716.8 182.613333c0 54.613333 44.373333 97.28 97.28 97.28 54.613333 0 97.28-44.373333 97.28-97.28 1.706667-52.906667-42.666667-97.28-97.28-97.28zM921.6 989.866667H706.56c-32.426667 0-58.026667-25.6-58.026667-58.026667V534.186667c0-87.04 71.68-158.72 158.72-158.72h15.36c87.04 0 158.72 71.68 158.72 158.72v397.653333c0 32.426667-27.306667 58.026667-59.733333 58.026667z m-114.346667-563.2c-59.733333 0-107.52 47.786667-107.52 107.52v397.653333c0 3.413333 3.413333 6.826667 6.826667 6.826667H921.6c3.413333 0 6.826667-3.413333 6.826667-6.826667V534.186667c0-59.733333-47.786667-107.52-107.52-107.52h-13.653334z"  /><path  d="M501.76 764.586667c-6.826667 0-11.946667-1.706667-17.066667-6.826667l-151.893333-138.24c-10.24-10.24-11.946667-25.6-1.706667-35.84 10.24-10.24 25.6-11.946667 35.84-1.706667l134.826667 122.88 151.893333-124.586666c10.24-8.533333 27.306667-6.826667 35.84 3.413333 8.533333 10.24 6.826667 27.306667-3.413333 35.84l-168.96 138.24c-3.413333 3.413333-8.533333 6.826667-15.36 6.826667z"  /></svg>