<?xml version="1.0" standalone="no"?><!DOCTYPE svg PUBLIC "-//W3C//DTD SVG 1.1//EN" "http://www.w3.org/Graphics/SVG/1.1/DTD/svg11.dtd"><svg class="icon" width="64px" height="64.00px" viewBox="0 0 1024 1024" version="1.1" xmlns="http://www.w3.org/2000/svg"><path  d="M512 249.173333c-59.733333 0-107.52-47.786667-107.52-107.52S452.266667 34.133333 512 34.133333s107.52 47.786667 107.52 107.52-47.786667 107.52-107.52 107.52zM512 85.333333c-30.72 0-56.32 25.6-56.32 56.32s25.6 56.32 56.32 56.32 56.32-25.6 56.32-56.32S542.72 85.333333 512 85.333333zM512 989.866667c-59.733333 0-107.52-47.786667-107.52-107.52s47.786667-107.52 107.52-107.52 107.52 47.786667 107.52 107.52S571.733333 989.866667 512 989.866667z m0-163.84c-30.72 0-56.32 25.6-56.32 56.32 0 30.72 25.6 56.32 56.32 56.32s56.32-25.6 56.32-56.32c0-30.72-25.6-56.32-56.32-56.32zM141.653333 619.52C81.92 619.52 34.133333 571.733333 34.133333 512s47.786667-107.52 107.52-107.52 107.52 47.786667 107.52 107.52-47.786667 107.52-107.52 107.52z m0-163.84C110.933333 455.68 85.333333 481.28 85.333333 512s25.6 56.32 56.32 56.32c30.72 0 56.32-25.6 56.32-56.32s-25.6-56.32-56.32-56.32zM882.346667 619.52c-59.733333 0-107.52-47.786667-107.52-107.52s47.786667-107.52 107.52-107.52S989.866667 452.266667 989.866667 512s-47.786667 107.52-107.52 107.52z m0-163.84c-30.72 0-56.32 25.6-56.32 56.32s25.6 56.32 56.32 56.32S938.666667 542.72 938.666667 512s-25.6-56.32-56.32-56.32zM824.32 339.626667c-8.533333 0-17.066667-3.413333-22.186667-11.946667-27.306667-42.666667-64.853333-80.213333-107.52-107.52-11.946667-6.826667-15.36-23.893333-8.533333-35.84s23.893333-15.36 35.84-8.533333c49.493333 30.72 92.16 73.386667 122.88 122.88 6.826667 11.946667 3.413333 27.306667-8.533333 35.84-1.706667 5.12-6.826667 5.12-11.946667 5.12zM709.973333 849.92c-8.533333 0-17.066667-3.413333-22.186666-11.946667-6.826667-11.946667-3.413333-27.306667 8.533333-35.84 42.666667-27.306667 80.213333-64.853333 107.52-107.52 6.826667-11.946667 23.893333-15.36 35.84-8.533333s15.36 23.893333 8.533333 35.84c-30.72 49.493333-73.386667 92.16-122.88 122.88-6.826667 5.12-11.946667 5.12-15.36 5.12zM314.026667 849.92c-5.12 0-10.24-1.706667-13.653334-3.413333-49.493333-30.72-92.16-73.386667-122.88-122.88-6.826667-11.946667-3.413333-27.306667 8.533334-35.84 11.946667-6.826667 27.306667-3.413333 35.84 8.533333 27.306667 42.666667 64.853333 80.213333 107.52 107.52 11.946667 6.826667 15.36 23.893333 8.533333 35.84-6.826667 6.826667-15.36 10.24-23.893333 10.24zM199.68 339.626667c-5.12 0-10.24-1.706667-13.653333-3.413334-11.946667-6.826667-15.36-23.893333-8.533334-35.84 30.72-49.493333 73.386667-92.16 122.88-122.88 11.946667-6.826667 27.306667-3.413333 35.84 8.533334 6.826667 11.946667 3.413333 27.306667-8.533333 35.84-42.666667 27.306667-80.213333 64.853333-107.52 107.52-5.12 6.826667-11.946667 10.24-20.48 10.24z"  /></svg>