<?xml version="1.0" standalone="no"?><!DOCTYPE svg PUBLIC "-//W3C//DTD SVG 1.1//EN" "http://www.w3.org/Graphics/SVG/1.1/DTD/svg11.dtd"><svg class="icon" width="64px" height="64.00px" viewBox="0 0 1024 1024" version="1.1" xmlns="http://www.w3.org/2000/svg"><path  d="M904.533333 969.386667H622.933333c-47.786667 0-87.04-37.546667-87.04-85.333334V706.56c0-44.373333 32.426667-78.506667 75.093334-83.626667v-22.186666c0-76.8 68.266667-139.946667 151.893333-139.946667s151.893333 63.146667 151.893333 139.946667v18.773333c42.666667 5.12 75.093333 40.96 75.093334 83.626667v177.493333c1.706667 23.893333-6.826667 46.08-23.893334 63.146667-15.36 15.36-37.546667 25.6-61.44 25.6zM622.933333 672.426667c-20.48 0-35.84 13.653333-35.84 34.133333v177.493333c0 18.773333 15.36 34.133333 35.84 34.133334H904.533333c10.24 0 18.773333-3.413333 25.6-10.24 6.826667-6.826667 10.24-15.36 8.533334-27.306667V701.44c0-18.773333-15.36-34.133333-35.84-34.133333h-56.32l15.36-35.84v-34.133334c0-49.493333-44.373333-88.746667-100.693334-88.746666s-100.693333 39.253333-100.693333 88.746666v25.6c0 1.706667 0 3.413333 1.706667 6.826667 0 5.12 1.706667 10.24 1.706666 15.36v25.6h-40.96z"  /><path  d="M762.88 899.413333c-27.306667 0-49.493333-20.48-49.493333-47.786666v-37.546667c-17.066667-11.946667-27.306667-30.72-29.013334-51.2v-1.706667c0-39.253333 35.84-71.68 76.8-71.68 22.186667 0 44.373333 10.24 58.026667 25.6 11.946667 13.653333 17.066667 29.013333 15.36 44.373334 0 15.36-5.12 34.133333-23.893333 51.2v40.96c1.706667 27.306667-18.773333 47.786667-47.786667 47.786666z m-27.306667-139.946666c1.706667 6.826667 5.12 11.946667 11.946667 15.36l17.066667 6.826666v1.706667l8.533333-5.12c10.24-6.826667 11.946667-11.946667 11.946667-18.773333v-3.413334c0-1.706667 0-3.413333-3.413334-6.826666-3.413333-5.12-10.24-8.533333-20.48-8.533334-11.946667 0-23.893333 8.533333-25.6 18.773334zM424.96 969.386667H110.933333C68.266667 969.386667 34.133333 938.666667 34.133333 899.413333V124.586667c0-37.546667 34.133333-68.266667 76.8-68.266667h716.8c42.666667 0 76.8 30.72 76.8 68.266667v308.906666c0 13.653333-11.946667 25.6-25.6 25.6s-25.6-11.946667-25.6-25.6V124.586667c0-8.533333-10.24-17.066667-25.6-17.066667h-716.8c-15.36-1.706667-25.6 8.533333-25.6 17.066667v776.533333c0 8.533333 10.24 17.066667 25.6 17.066667h314.026667c13.653333 0 25.6 11.946667 25.6 25.6s-10.24 25.6-25.6 25.6z"  /><path  d="M711.68 273.066667H213.333333c-13.653333 0-25.6-11.946667-25.6-25.6s11.946667-25.6 25.6-25.6h500.053334c13.653333 0 25.6 11.946667 25.6 25.6s-11.946667 25.6-27.306667 25.6zM576.853333 479.573333H213.333333c-13.653333 0-25.6-11.946667-25.6-25.6s11.946667-25.6 25.6-25.6h365.226667c13.653333 0 25.6 11.946667 25.6 25.6s-11.946667 25.6-27.306667 25.6z"  /><path  d="M443.733333 686.08H213.333333c-13.653333 0-25.6-11.946667-25.6-25.6s11.946667-25.6 25.6-25.6H443.733333c13.653333 0 25.6 11.946667 25.6 25.6s-11.946667 25.6-25.6 25.6z"  /></svg>