<?xml version="1.0" standalone="no"?><!DOCTYPE svg PUBLIC "-//W3C//DTD SVG 1.1//EN" "http://www.w3.org/Graphics/SVG/1.1/DTD/svg11.dtd"><svg class="icon" width="64px" height="64.00px" viewBox="0 0 1024 1024" version="1.1" xmlns="http://www.w3.org/2000/svg"><path  d="M424.96 989.866667H141.653333c-39.253333 0-69.973333-32.426667-69.973333-71.68V104.106667C69.973333 66.56 102.4 34.133333 141.653333 34.133333h633.173334c39.253333 0 69.973333 32.426667 69.973333 69.973334V341.333333c0 13.653333-11.946667 25.6-25.6 25.6s-25.6-11.946667-25.6-25.6V104.106667c0-10.24-8.533333-18.773333-18.773333-18.773334H141.653333c-10.24 0-20.48 8.533333-20.48 18.773334v814.08c0 10.24 8.533333 20.48 18.773334 20.48h283.306666c13.653333 0 25.6 11.946667 25.6 25.6s-10.24 25.6-23.893333 25.6z"  /><path  d="M633.173333 262.826667H249.173333c-13.653333 0-25.6-11.946667-25.6-25.6s11.946667-25.6 25.6-25.6h384c13.653333 0 25.6 11.946667 25.6 25.6s-11.946667 25.6-25.6 25.6zM633.173333 443.733333H249.173333c-13.653333 0-25.6-11.946667-25.6-25.6s11.946667-25.6 25.6-25.6h384c13.653333 0 25.6 11.946667 25.6 25.6s-11.946667 25.6-25.6 25.6zM384 624.64h-136.533333c-13.653333 0-25.6-11.946667-25.6-25.6s11.946667-25.6 25.6-25.6h136.533333c13.653333 0 25.6 11.946667 25.6 25.6s-11.946667 25.6-25.6 25.6zM747.52 814.08c-98.986667 0-180.906667-80.213333-180.906667-180.906667S648.533333 452.266667 747.52 452.266667s180.906667 80.213333 180.906667 180.906666-81.92 180.906667-180.906667 180.906667z m0-310.613333c-71.68 0-129.706667 58.026667-129.706667 129.706666s58.026667 129.706667 129.706667 129.706667 129.706667-58.026667 129.706667-129.706667-58.026667-129.706667-129.706667-129.706666z"  /><path  d="M747.52 904.533333c-13.653333 0-25.6-11.946667-25.6-25.6v-78.506666c0-13.653333 11.946667-25.6 25.6-25.6s25.6 11.946667 25.6 25.6v78.506666c0 13.653333-11.946667 25.6-25.6 25.6z"  /><path  d="M877.226667 923.306667H617.813333c-13.653333 0-25.6-11.946667-25.6-25.6s11.946667-25.6 25.6-25.6h259.413334c13.653333 0 25.6 11.946667 25.6 25.6s-11.946667 25.6-25.6 25.6zM928.426667 989.866667H566.613333c-13.653333 0-25.6-11.946667-25.6-25.6s11.946667-25.6 25.6-25.6h360.106667c13.653333 0 25.6 11.946667 25.6 25.6s-10.24 25.6-23.893333 25.6z"  /></svg>