<?xml version="1.0" standalone="no"?><!DOCTYPE svg PUBLIC "-//W3C//DTD SVG 1.1//EN" "http://www.w3.org/Graphics/SVG/1.1/DTD/svg11.dtd"><svg class="icon" width="64px" height="64.00px" viewBox="0 0 1024 1024" version="1.1" xmlns="http://www.w3.org/2000/svg"><path  d="M617.813333 926.72H160.426667C90.453333 926.72 34.133333 870.4 34.133333 800.426667V223.573333C34.133333 153.6 90.453333 97.28 160.426667 97.28h457.386666c69.973333 0 126.293333 56.32 126.293334 126.293333v68.266667c0 13.653333-11.946667 25.6-25.6 25.6s-25.6-11.946667-25.6-25.6v-68.266667c0-40.96-34.133333-75.093333-75.093334-75.093333H160.426667C119.466667 148.48 85.333333 182.613333 85.333333 223.573333v576.853334c0 40.96 34.133333 75.093333 75.093334 75.093333h457.386666c40.96 0 75.093333-34.133333 75.093334-75.093333V750.933333c0-13.653333 11.946667-25.6 25.6-25.6s25.6 11.946667 25.6 25.6v49.493334c0 69.973333-56.32 126.293333-126.293334 126.293333z"  /><path  d="M339.626667 368.64c-49.493333 0-88.746667-39.253333-88.746667-88.746667s39.253333-88.746667 88.746667-88.746666 88.746667 39.253333 88.746666 88.746666-39.253333 88.746667-88.746666 88.746667z m0-126.293333c-20.48 0-37.546667 17.066667-37.546667 37.546666s17.066667 37.546667 37.546667 37.546667 37.546667-17.066667 37.546666-37.546667-17.066667-37.546667-37.546666-37.546666zM460.8 590.506667H215.04c-25.6 0-46.08-20.48-46.08-46.08v-87.04c0-25.6 20.48-46.08 46.08-46.08H460.8c25.6 0 46.08 20.48 46.08 46.08v87.04c0 25.6-22.186667 46.08-46.08 46.08z m-238.933333-51.2h233.813333v-76.8H221.866667v76.8z"  /><path  d="M257.706667 459.093333c-5.12 0-10.24-1.706667-15.36-5.12-11.946667-8.533333-13.653333-23.893333-6.826667-35.84l63.146667-90.453333c8.533333-11.946667 23.893333-13.653333 35.84-6.826667 11.946667 8.533333 13.653333 23.893333 6.826666 35.84l-63.146666 90.453334c-5.12 8.533333-11.946667 11.946667-20.48 11.946666z"  /><path  d="M428.373333 459.093333c-6.826667 0-13.653333-3.413333-18.773333-8.533333l-81.92-90.453333c-10.24-10.24-8.533333-27.306667 1.706667-35.84 10.24-10.24 27.306667-8.533333 35.84 1.706666l81.92 90.453334c10.24 10.24 8.533333 27.306667-1.706667 35.84-5.12 5.12-11.946667 6.826667-17.066667 6.826666z"  /><path  d="M404.48 832.853333c-6.826667 0-11.946667 0-18.773333-1.706666-61.44-11.946667-93.866667-83.626667-93.866667-87.04-20.48-42.666667-44.373333-68.266667-68.266667-71.68-27.306667-5.12-51.2 20.48-51.2 20.48-10.24 10.24-25.6 10.24-35.84 1.706666-10.24-10.24-10.24-25.6-1.706666-35.84 1.706667-1.706667 42.666667-44.373333 97.28-35.84 42.666667 6.826667 78.506667 40.96 105.813333 100.693334 6.826667 15.36 29.013333 51.2 58.026667 58.026666 18.773333 3.413333 39.253333-5.12 61.44-25.6l22.186666-105.813333c1.706667-5.12 3.413333-10.24 6.826667-13.653333L856.746667 290.133333c5.12-5.12 11.946667-6.826667 18.773333-6.826666 6.826667 0 13.653333 3.413333 18.773333 8.533333l90.453334 98.986667c10.24 10.24 8.533333 27.306667-1.706667 35.84L602.453333 774.826667c-3.413333 3.413333-8.533333 5.12-13.653333 6.826666l-95.573333 11.946667c-30.72 25.6-59.733333 39.253333-88.746667 39.253333z m122.88-165.546666l-15.36 69.973333 61.44-6.826667 354.986667-325.973333-56.32-61.44-344.746667 324.266667z"  /><path  d="M873.813333 512c-6.826667 0-13.653333-3.413333-18.773333-8.533333L766.293333 409.6c-10.24-10.24-8.533333-27.306667 1.706667-35.84 10.24-10.24 27.306667-8.533333 35.84 1.706667l88.746667 95.573333c10.24 10.24 8.533333 27.306667-1.706667 35.84-5.12 3.413333-11.946667 5.12-17.066667 5.12z"  /></svg>