<?xml version="1.0" standalone="no"?><!DOCTYPE svg PUBLIC "-//W3C//DTD SVG 1.1//EN" "http://www.w3.org/Graphics/SVG/1.1/DTD/svg11.dtd"><svg class="icon" width="64px" height="64.00px" viewBox="0 0 1024 1024" version="1.1" xmlns="http://www.w3.org/2000/svg"><path  d="M482.986667 989.866667H114.346667c-39.253333 0-69.973333-32.426667-69.973334-69.973334V105.813333C44.373333 66.56 76.8 34.133333 114.346667 34.133333h633.173333C786.773333 34.133333 819.2 66.56 819.2 105.813333V358.4c0 13.653333-11.946667 25.6-25.6 25.6S768 372.053333 768 358.4V105.813333c0-11.946667-8.533333-20.48-20.48-20.48H114.346667c-10.24 0-18.773333 8.533333-18.773334 20.48v814.08c0 10.24 8.533333 18.773333 18.773334 18.773334h368.64c13.653333 0 25.6 11.946667 25.6 25.6s-11.946667 25.6-25.6 25.6z"  /><path  d="M641.706667 266.24H221.866667c-13.653333 0-25.6-11.946667-25.6-25.6s11.946667-25.6 25.6-25.6h418.133333c13.653333 0 25.6 11.946667 25.6 25.6s-10.24 25.6-23.893333 25.6zM409.6 713.386667H221.866667c-13.653333 0-25.6-11.946667-25.6-25.6s11.946667-25.6 25.6-25.6h187.733333c13.653333 0 25.6 11.946667 25.6 25.6s-11.946667 25.6-25.6 25.6zM409.6 489.813333H221.866667c-13.653333 0-25.6-11.946667-25.6-25.6s11.946667-25.6 25.6-25.6h187.733333c13.653333 0 25.6 11.946667 25.6 25.6s-11.946667 25.6-25.6 25.6zM721.92 971.093333c-141.653333 0-257.706667-116.053333-257.706667-257.706666S580.266667 455.68 721.92 455.68s257.706667 116.053333 257.706667 257.706667c0 68.266667-27.306667 133.12-75.093334 182.613333-49.493333 47.786667-114.346667 75.093333-182.613333 75.093333z m0-464.213333c-114.346667 0-206.506667 92.16-206.506667 206.506667s92.16 206.506667 206.506667 206.506666c54.613333 0 107.52-22.186667 146.773333-59.733333 39.253333-39.253333 59.733333-90.453333 59.733334-146.773333 0-114.346667-92.16-206.506667-206.506667-206.506667z"  /><path  d="M571.733333 866.986667c-6.826667 0-15.36-3.413333-20.48-8.533334-8.533333-10.24-6.826667-27.306667 3.413334-35.84l305.493333-250.88c10.24-8.533333 27.306667-6.826667 35.84 3.413334 8.533333 10.24 6.826667 27.306667-3.413333 35.84L588.8 860.16c-5.12 3.413333-11.946667 6.826667-17.066667 6.826667z"  /></svg>