<?xml version="1.0" standalone="no"?><!DOCTYPE svg PUBLIC "-//W3C//DTD SVG 1.1//EN" "http://www.w3.org/Graphics/SVG/1.1/DTD/svg11.dtd"><svg class="icon" width="64px" height="64.00px" viewBox="0 0 1024 1024" version="1.1" xmlns="http://www.w3.org/2000/svg"><path  d="M395.946667 984.746667H146.773333c-39.253333 0-69.973333-32.426667-69.973333-71.68V98.986667c0-39.253333 32.426667-69.973333 69.973333-69.973334h633.173334c39.253333 0 69.973333 32.426667 69.973333 69.973334v184.32c0 13.653333-11.946667 25.6-25.6 25.6s-25.6-11.946667-25.6-25.6V98.986667c0-10.24-8.533333-18.773333-18.773333-18.773334H146.773333c-10.24 0-18.773333 8.533333-18.773333 18.773334v814.08c0 10.24 8.533333 20.48 18.773333 20.48h249.173334c13.653333 0 25.6 11.946667 25.6 25.6s-11.946667 25.6-25.6 25.6z"  /><path  d="M679.253333 261.12H237.226667c-13.653333 0-25.6-11.946667-25.6-25.6s11.946667-25.6 25.6-25.6h442.026666c13.653333 0 25.6 11.946667 25.6 25.6s-11.946667 25.6-25.6 25.6zM559.786667 477.866667H237.226667c-13.653333 0-25.6-11.946667-25.6-25.6s11.946667-25.6 25.6-25.6h322.56c13.653333 0 25.6 11.946667 25.6 25.6s-11.946667 25.6-25.6 25.6zM440.32 696.32h-204.8c-13.653333 0-25.6-11.946667-25.6-25.6s11.946667-25.6 25.6-25.6h204.8c13.653333 0 25.6 11.946667 25.6 25.6s-10.24 25.6-25.6 25.6zM735.573333 597.333333c-61.44 0-110.933333-49.493333-110.933333-110.933333s49.493333-110.933333 110.933333-110.933333 110.933333 49.493333 110.933334 110.933333c-1.706667 63.146667-51.2 110.933333-110.933334 110.933333z m0-168.96c-32.426667 0-59.733333 25.6-59.733333 59.733334 0 32.426667 25.6 59.733333 59.733333 59.733333 32.426667 0 59.733333-25.6 59.733334-59.733333-1.706667-32.426667-27.306667-59.733333-59.733334-59.733334z"  /><path  d="M549.546667 829.44c-8.533333 0-18.773333-5.12-22.186667-13.653333-6.826667-11.946667-1.706667-27.306667 10.24-34.133334 129.706667-68.266667 131.413333-191.146667 131.413333-196.266666 0-13.653333 11.946667-25.6 25.6-25.6s25.6 11.946667 25.6 25.6c0 6.826667-1.706667 157.013333-158.72 242.346666-3.413333 0-6.826667 1.706667-11.946666 1.706667zM919.893333 831.146667c-3.413333 0-8.533333-1.706667-11.946666-3.413334-157.013333-83.626667-158.72-235.52-158.72-242.346666 0-13.653333 11.946667-25.6 25.6-25.6s25.6 11.946667 25.6 25.6c0 5.12 3.413333 128 131.413333 196.266666 11.946667 6.826667 17.066667 22.186667 10.24 34.133334-5.12 10.24-13.653333 15.36-22.186667 15.36z m-119.466666-245.76z"  /><path  d="M901.12 994.986667H564.906667c-25.6 0-46.08-20.48-46.08-46.08V819.2c0-25.6 20.48-46.08 46.08-46.08h336.213333c25.6 0 46.08 20.48 46.08 46.08v129.706667c0 25.6-20.48 46.08-46.08 46.08z m-331.093333-51.2h325.973333v-119.466667H570.026667v119.466667z"  /></svg>