<?xml version="1.0" standalone="no"?><!DOCTYPE svg PUBLIC "-//W3C//DTD SVG 1.1//EN" "http://www.w3.org/Graphics/SVG/1.1/DTD/svg11.dtd"><svg class="icon" width="64px" height="64.00px" viewBox="0 0 1024 1024" version="1.1" xmlns="http://www.w3.org/2000/svg"><path  d="M812.373333 989.866667H211.626667c-78.506667 0-141.653333-63.146667-141.653334-141.653334V175.786667C69.973333 97.28 133.12 34.133333 211.626667 34.133333h600.746666c78.506667 0 141.653333 63.146667 141.653334 141.653334v670.72c0 13.653333-11.946667 25.6-25.6 25.6s-25.6-11.946667-25.6-25.6V175.786667c0-49.493333-40.96-90.453333-90.453334-90.453334H211.626667c-49.493333 0-90.453333 40.96-90.453334 90.453334v670.72c0 49.493333 40.96 90.453333 90.453334 90.453333h600.746666c13.653333 0 25.6 11.946667 25.6 25.6s-11.946667 27.306667-25.6 27.306667z"  /><path  d="M795.306667 266.24H256c-13.653333 0-25.6-11.946667-25.6-25.6s11.946667-25.6 25.6-25.6h539.306667c13.653333 0 25.6 11.946667 25.6 25.6s-11.946667 25.6-25.6 25.6zM424.96 631.466667H256c-13.653333 0-25.6-11.946667-25.6-25.6S240.64 580.266667 256 580.266667h168.96c13.653333 0 25.6 11.946667 25.6 25.6s-11.946667 25.6-25.6 25.6zM795.306667 791.893333H256c-13.653333 0-25.6-11.946667-25.6-25.6s11.946667-25.6 25.6-25.6h539.306667c13.653333 0 25.6 11.946667 25.6 25.6s-11.946667 25.6-25.6 25.6zM373.76 423.253333l-42.666667 8.533334 29.013334 30.72-35.84 27.306666-22.186667-37.546666-20.48 37.546666-35.84-25.6 29.013333-30.72-42.666666-8.533333 13.653333-42.666667 39.253333 18.773334-5.12-42.666667H324.266667l-5.12 42.666667 39.253333-18.773334 15.36 40.96zM588.8 423.253333l-42.666667 8.533334 29.013334 30.72-35.84 27.306666-22.186667-37.546666-20.48 37.546666-35.84-25.6 29.013333-30.72-42.666666-8.533333 13.653333-42.666667 39.253333 18.773334L494.933333 358.4h44.373334l-5.12 42.666667 39.253333-18.773334 15.36 40.96zM803.84 423.253333l-42.666667 8.533334 29.013334 30.72-35.84 27.306666-20.48-37.546666-20.48 37.546666-35.84-25.6 29.013333-30.72-42.666667-8.533333 13.653334-42.666667 39.253333 18.773334-5.12-42.666667h44.373333l-5.12 42.666667 39.253334-18.773334 13.653333 40.96z"  /></svg>