<?xml version="1.0" standalone="no"?><!DOCTYPE svg PUBLIC "-//W3C//DTD SVG 1.1//EN" "http://www.w3.org/Graphics/SVG/1.1/DTD/svg11.dtd"><svg class="icon" width="64px" height="64.00px" viewBox="0 0 1024 1024" version="1.1" xmlns="http://www.w3.org/2000/svg"><path  d="M884.053333 989.866667h-750.933333c-44.373333 0-78.506667-32.426667-78.506667-71.68V104.106667C54.613333 66.56 90.453333 34.133333 133.12 34.133333h295.253333c13.653333 0 25.6 11.946667 25.6 25.6S442.026667 85.333333 428.373333 85.333333H133.12c-15.36 0-27.306667 8.533333-27.306667 18.773334v814.08c0 10.24 13.653333 20.48 27.306667 20.48h750.933333c15.36 0 27.306667-8.533333 27.306667-20.48V733.866667c0-13.653333 11.946667-25.6 25.6-25.6s25.6 11.946667 25.6 25.6v184.32c1.706667 39.253333-34.133333 71.68-78.506667 71.68z"  /><path  d="M764.586667 650.24H240.64c-13.653333 0-25.6-11.946667-25.6-25.6s11.946667-25.6 25.6-25.6h523.946667c13.653333 0 25.6 11.946667 25.6 25.6s-11.946667 25.6-25.6 25.6zM482.986667 373.76H240.64c-13.653333 0-25.6-11.946667-25.6-25.6s11.946667-25.6 25.6-25.6h242.346667c13.653333 0 25.6 11.946667 25.6 25.6s-11.946667 25.6-25.6 25.6zM585.386667 486.4c-6.826667 0-13.653333-1.706667-17.066667-6.826667-10.24-10.24-10.24-25.6 0-35.84l358.4-372.053333c10.24-10.24 25.6-10.24 35.84 0 10.24 10.24 10.24 25.6 0 35.84L602.453333 477.866667c-5.12 5.12-10.24 8.533333-17.066666 8.533333z"  /></svg>