<?xml version="1.0" standalone="no"?><!DOCTYPE svg PUBLIC "-//W3C//DTD SVG 1.1//EN" "http://www.w3.org/Graphics/SVG/1.1/DTD/svg11.dtd"><svg class="icon" width="64px" height="64.00px" viewBox="0 0 1024 1024" version="1.1" xmlns="http://www.w3.org/2000/svg"><path  d="M660.48 300.373333c-68.266667 0-122.88-54.613333-122.88-122.88s54.613333-122.88 122.88-122.88S785.066667 109.226667 785.066667 177.493333s-56.32 122.88-124.586667 122.88z m0-194.56c-39.253333 0-71.68 32.426667-71.68 71.68s32.426667 71.68 71.68 71.68 71.68-32.426667 71.68-71.68-30.72-71.68-71.68-71.68z"  /><path  d="M865.28 505.173333h-409.6c-13.653333 0-25.6-11.946667-25.6-25.6 0-126.293333 104.106667-230.4 230.4-230.4s230.4 104.106667 230.4 230.4c0 13.653333-10.24 25.6-25.6 25.6z m-380.586667-51.2h354.986667c-11.946667-87.04-87.04-153.6-177.493333-153.6s-165.546667 66.56-177.493334 153.6z"  /><path  d="M563.2 969.386667c-30.72 0-76.8-11.946667-160.426667-40.96l-25.6-8.533334c-18.773333-6.826667-35.84-13.653333-54.613333-20.48l-44.373333-17.066666c-18.773333-6.826667-68.266667-15.36-187.733334 3.413333-13.653333 1.706667-27.306667-6.826667-29.013333-20.48-1.706667-13.653333 6.826667-27.306667 20.48-29.013333 98.986667-17.066667 170.666667-17.066667 213.333333 0l44.373334 17.066666c18.773333 6.826667 35.84 13.653333 54.613333 20.48l25.6 8.533334c58.026667 20.48 121.173333 40.96 148.48 39.253333 44.373333-3.413333 286.72-117.76 336.213333-162.133333 30.72-27.306667 35.84-64.853333 32.426667-92.16-3.413333-25.6-17.066667-47.786667-35.84-56.32-32.426667-15.36-141.653333 17.066667-233.813333 47.786666-1.706667 0-3.413333 0-5.12 1.706667-8.533333 1.706667-17.066667 3.413333-23.893334 5.12-47.786667 10.24-78.506667 11.946667-174.08-52.906667-83.626667-58.026667-145.066667-76.8-192.853333-58.026666-3.413333 1.706667-10.24 3.413333-17.066667 5.12-27.306667 6.826667-85.333333 22.186667-182.613333 90.453333-10.24 8.533333-25.6 6.826667-34.133333-3.413333-6.826667-15.36-5.12-32.426667 5.12-40.96l1.706666-1.706667h1.706667c104.106667-73.386667 167.253333-88.746667 197.973333-97.28 5.12-1.706667 8.533333-1.706667 11.946667-3.413333 64.853333-23.893333 139.946667-3.413333 240.64 64.853333 80.213333 56.32 100.693333 51.2 134.826667 44.373333 6.826667-1.706667 15.36-3.413333 23.893333-5.12 179.2-58.026667 235.52-59.733333 269.653333-44.373333 34.133333 15.36 58.026667 51.2 64.853334 93.866667 6.826667 51.2-11.946667 104.106667-49.493334 138.24-54.613333 47.786667-307.2 168.96-365.226666 175.786666-5.12-1.706667-8.533333-1.706667-11.946667-1.706666z"  /><path  d="M561.493333 791.893333c-121.173333 0-184.32-80.213333-187.733333-83.626666-8.533333-11.946667-6.826667-27.306667 5.12-35.84s27.306667-6.826667 35.84 5.12c1.706667 1.706667 51.2 63.146667 146.773333 63.146666h3.413334c15.36 0 68.266667-3.413333 69.973333-27.306666 1.706667-20.48-23.893333-46.08-32.426667-46.08-47.786667 1.706667-81.92-22.186667-85.333333-25.6-11.946667-8.533333-13.653333-23.893333-5.12-35.84 8.533333-11.946667 23.893333-13.653333 35.84-5.12 0 0 23.893333 15.36 54.613333 15.36 29.013333 0 54.613333 23.893333 69.973334 47.786666 17.066667 29.013333 18.773333 58.026667 6.826666 81.92-17.066667 30.72-54.613333 46.08-112.64 46.08h-5.12z"  /></svg>