<?xml version="1.0" standalone="no"?><!DOCTYPE svg PUBLIC "-//W3C//DTD SVG 1.1//EN" "http://www.w3.org/Graphics/SVG/1.1/DTD/svg11.dtd"><svg class="icon" width="64px" height="64.00px" viewBox="0 0 1024 1024" version="1.1" xmlns="http://www.w3.org/2000/svg"><path  d="M172.373333 957.44c-11.946667 0-23.893333-5.12-32.426666-13.653333s-13.653333-22.186667-11.946667-34.133334v-3.413333c0-1.706667 0-3.413333 1.706667-6.826667l37.546666-102.4-102.4-114.346666A129.706667 129.706667 0 0 1 34.133333 580.266667l35.84-262.826667c5.12-39.253333 37.546667-66.56 76.8-69.973333 20.48-1.706667 39.253333 5.12 52.906667 15.36 15.36 11.946667 25.6 30.72 27.306667 51.2v1.706666l6.826666 155.306667c0 10.24 5.12 20.48 13.653334 29.013333l98.986666 95.573334c13.653333 11.946667 23.893333 25.6 32.426667 40.96 22.186667 39.253333 27.306667 88.746667 13.653333 136.533333-30.72 114.346667-35.84 138.24-37.546666 143.36 5.12 22.186667-13.653333 39.253333-37.546667 40.96h-143.36-1.706667z m138.24-46.08z m-128-5.12h129.706667c1.706667-10.24 8.533333-37.546667 37.546667-145.066667 10.24-35.84 6.826667-69.973333-10.24-98.986666-6.826667-10.24-13.653333-20.48-22.186667-27.306667l-1.706667-1.706667-100.693333-95.573333c-17.066667-17.066667-27.306667-39.253333-29.013333-63.146667l-6.826667-155.306666c0-6.826667-3.413333-11.946667-8.533333-15.36-5.12-3.413333-11.946667-5.12-18.773334-5.12-15.36 1.706667-27.306667 11.946667-29.013333 25.6L85.333333 587.093333c-1.706667 22.186667 3.413333 44.373333 18.773334 61.44l102.4 114.346667c10.24 11.946667 15.36 29.013333 11.946666 44.373333 0 1.706667 0 3.413333-1.706666 5.12l-34.133334 93.866667zM851.626667 959.146667h-145.066667c-23.893333 0-42.666667-18.773333-44.373333-40.96 0-3.413333-5.12-23.893333-37.546667-143.36-13.653333-47.786667-8.533333-97.28 13.653333-136.533334 8.533333-17.066667 20.48-30.72 34.133334-42.666666l98.986666-95.573334c8.533333-6.826667 11.946667-17.066667 13.653334-29.013333l6.826666-155.306667v-1.706666c1.706667-20.48 11.946667-37.546667 27.306667-49.493334 15.36-11.946667 34.133333-17.066667 52.906667-15.36 39.253333 1.706667 71.68 30.72 76.8 69.973334v1.706666l35.84 262.826667c5.12 37.546667-5.12 73.386667-30.72 100.693333l-102.4 114.346667 39.253333 104.106667c0 1.706667 1.706667 3.413333 1.706667 6.826666v1.706667c1.706667 13.653333-3.413333 25.6-11.946667 35.84-5.12 6.826667-17.066667 11.946667-29.013333 11.946667z m-138.24-46.08z m155.306666-610.986667c-6.826667 0-11.946667 1.706667-17.066666 5.12-5.12 3.413333-8.533333 8.533333-8.533334 15.36l-6.826666 153.6c-1.706667 23.893333-11.946667 46.08-29.013334 63.146667l-100.693333 95.573333c-10.24 8.533333-17.066667 17.066667-23.893333 29.013333-15.36 29.013333-18.773333 63.146667-10.24 98.986667 29.013333 107.52 35.84 136.533333 37.546666 145.066667h129.706667l-35.84-95.573334c0-1.706667-1.706667-3.413333-1.706667-5.12-3.413333-17.066667 1.706667-32.426667 11.946667-44.373333l102.4-114.346667c15.36-15.36 20.48-37.546667 18.773333-59.733333l-35.84-262.826667c-1.706667-13.653333-13.653333-23.893333-29.013333-25.6 0 1.706667 0 1.706667-1.706667 1.706667z"  /><path  d="M512 307.2c-66.56 0-121.173333-54.613333-121.173333-121.173333s54.613333-121.173333 121.173333-121.173334 121.173333 54.613333 121.173333 121.173334S578.56 307.2 512 307.2z m0-191.146667c-39.253333 0-69.973333 32.426667-69.973333 69.973334S472.746667 256 512 256s69.973333-32.426667 69.973333-69.973333-30.72-69.973333-69.973333-69.973334z"  /><path  d="M715.093333 510.293333H308.906667c-13.653333 0-25.6-11.946667-25.6-25.6C283.306667 358.4 385.706667 256 512 256s228.693333 102.4 228.693333 228.693333c0 13.653333-11.946667 25.6-25.6 25.6z m-378.88-51.2h349.866667c-11.946667-85.333333-87.04-151.893333-175.786667-151.893333s-160.426667 66.56-174.08 151.893333z"  /></svg>