<?xml version="1.0" standalone="no"?><!DOCTYPE svg PUBLIC "-//W3C//DTD SVG 1.1//EN" "http://www.w3.org/Graphics/SVG/1.1/DTD/svg11.dtd"><svg class="icon" width="64px" height="64.00px" viewBox="0 0 1024 1024" version="1.1" xmlns="http://www.w3.org/2000/svg"><path  d="M827.733333 989.866667h-631.466666c-51.2 0-93.866667-42.666667-93.866667-93.866667V421.546667c0-13.653333 11.946667-25.6 25.6-25.6h768c13.653333 0 25.6 11.946667 25.6 25.6v474.453333c0 51.2-40.96 93.866667-93.866667 93.866667zM153.6 447.146667v448.853333c0 23.893333 18.773333 42.666667 42.666667 42.666667h631.466666c23.893333 0 42.666667-18.773333 42.666667-42.666667V447.146667H153.6z"  /><path  d="M512 989.866667c-13.653333 0-25.6-11.946667-25.6-25.6V421.546667c0-13.653333 11.946667-25.6 25.6-25.6s25.6 11.946667 25.6 25.6v542.72c0 13.653333-11.946667 25.6-25.6 25.6z"  /><path  d="M930.133333 447.146667h-836.266666c-32.426667 0-59.733333-27.306667-59.733334-59.733334v-112.64c0-32.426667 27.306667-59.733333 59.733334-59.733333h836.266666c32.426667 0 59.733333 27.306667 59.733334 59.733333v112.64c0 32.426667-27.306667 59.733333-59.733334 59.733334z m-836.266666-180.906667c-5.12 0-8.533333 3.413333-8.533334 8.533333v112.64c0 5.12 3.413333 8.533333 8.533334 8.533334h836.266666c5.12 0 8.533333-3.413333 8.533334-8.533334v-112.64c0-5.12-3.413333-8.533333-8.533334-8.533333h-836.266666z"  /><path  d="M512 266.24c-6.826667 0-13.653333-3.413333-18.773333-6.826667L312.32 78.506667c-10.24-10.24-10.24-25.6 0-35.84s25.6-10.24 35.84 0L512 204.8l162.133333-162.133333c10.24-10.24 25.6-10.24 35.84 0s10.24 25.6 0 35.84L530.773333 259.413333c-5.12 3.413333-11.946667 6.826667-18.773333 6.826667z"  /></svg>