<?xml version="1.0" standalone="no"?><!DOCTYPE svg PUBLIC "-//W3C//DTD SVG 1.1//EN" "http://www.w3.org/Graphics/SVG/1.1/DTD/svg11.dtd"><svg class="icon" width="64px" height="64.00px" viewBox="0 0 1024 1024" version="1.1" xmlns="http://www.w3.org/2000/svg"><path  d="M598.698667 436.906667c-8.704 0-17.237333-4.437333-22.016-12.629334L512 315.392l-64.512 108.885333a25.6 25.6 0 0 1-34.986667 9.045334 25.6 25.6 0 0 1-9.045333-34.986667l86.528-146.090667a25.4976 25.4976 0 0 1 44.032 0l86.528 146.090667c7.168 12.117333 3.242667 27.818667-9.045333 34.986667-3.925333 2.389333-8.362667 3.584-12.8 3.584zM750.08 696.661333H577.024c-14.165333 0-25.6-11.434667-25.6-25.6s11.434667-25.6 25.6-25.6h128.341333l-63.658666-107.52c-7.168-12.117333-3.242667-27.818667 9.045333-34.986666s27.818667-3.242667 34.986667 9.045333l86.528 146.090667c4.778667 7.850667 4.778667 17.749333 0.170666 25.770666-4.608 7.850667-13.141333 12.8-22.357333 12.8zM273.92 695.125333c-9.045333 0-17.578667-4.778667-22.016-12.629333-4.608-8.021333-4.608-17.749333 0-25.770667l86.528-150.016a25.617067 25.617067 0 0 1 44.373333 25.6l-64.170666 111.104 124.928-1.365333h0.341333a25.6 25.6 0 0 1 0.341333 51.2l-169.813333 1.877333h-0.512zM585.898667 555.861333h-149.674667c-14.165333 0-25.6-11.434667-25.6-25.6s11.434667-25.6 25.6-25.6h149.674667c14.165333 0 25.6 11.434667 25.6 25.6s-11.434667 25.6-25.6 25.6z"  /><path  d="M512 85.333333c235.349333 0 426.666667 191.317333 426.666667 426.666667S747.349333 938.666667 512 938.666667 85.333333 747.349333 85.333333 512 276.650667 85.333333 512 85.333333m0-51.2C248.149333 34.133333 34.133333 248.149333 34.133333 512s214.016 477.866667 477.866667 477.866667 477.866667-214.016 477.866667-477.866667S775.850667 34.133333 512 34.133333z"  /></svg>