<?xml version="1.0" standalone="no"?><!DOCTYPE svg PUBLIC "-//W3C//DTD SVG 1.1//EN" "http://www.w3.org/Graphics/SVG/1.1/DTD/svg11.dtd"><svg class="icon" width="64px" height="64.00px" viewBox="0 0 1024 1024" version="1.1" xmlns="http://www.w3.org/2000/svg"><path  d="M599.04 750.933333h-46.08c-18.773333 0-34.133333-15.36-34.133333-34.133333v-46.08c0-8.533333 3.413333-17.066667 10.24-23.893333l153.6-153.6c6.826667-6.826667 15.36-10.24 23.893333-10.24 8.533333 0 17.066667 3.413333 23.893333 10.24l46.08 46.08c13.653333 13.653333 13.653333 34.133333 0 47.786666l-153.6 153.6c-6.826667 5.12-15.36 10.24-23.893333 10.24z m-29.013333-51.2h20.48l136.533333-136.533333-20.48-20.48-136.533333 136.533333V699.733333z m148.48-170.666666zM790.186667 841.386667H530.773333c-13.653333 0-25.6-11.946667-25.6-25.6s11.946667-25.6 25.6-25.6h259.413334c13.653333 0 25.6 11.946667 25.6 25.6s-10.24 25.6-25.6 25.6z"  /><path  d="M814.08 989.866667H225.28c-52.906667 0-97.28-44.373333-97.28-100.693334V134.826667C128 78.506667 170.666667 34.133333 225.28 34.133333h607.573333c52.906667 0 97.28 44.373333 97.28 100.693334V870.4c0 66.56-52.906667 119.466667-116.053333 119.466667zM225.28 85.333333c-25.6 0-46.08 22.186667-46.08 49.493334v756.053333c0 27.306667 20.48 49.493333 46.08 49.493333h590.506667c35.84 0 63.146667-30.72 63.146666-68.266666V134.826667c0-27.306667-20.48-49.493333-46.08-49.493334H225.28z"  /><path  d="M761.173333 233.813333H295.253333c-13.653333 0-25.6-11.946667-25.6-25.6s11.946667-25.6 25.6-25.6h465.92c13.653333 0 25.6 11.946667 25.6 25.6s-11.946667 25.6-25.6 25.6zM761.173333 407.893333H295.253333c-13.653333 0-25.6-11.946667-25.6-25.6s11.946667-25.6 25.6-25.6h465.92c13.653333 0 25.6 11.946667 25.6 25.6s-11.946667 25.6-25.6 25.6zM453.973333 583.68h-158.72c-13.653333 0-25.6-11.946667-25.6-25.6s11.946667-25.6 25.6-25.6h158.72c13.653333 0 25.6 11.946667 25.6 25.6s-10.24 25.6-25.6 25.6z"  /></svg>