<?xml version="1.0" standalone="no"?><!DOCTYPE svg PUBLIC "-//W3C//DTD SVG 1.1//EN" "http://www.w3.org/Graphics/SVG/1.1/DTD/svg11.dtd"><svg class="icon" width="64px" height="64.00px" viewBox="0 0 1024 1024" version="1.1" xmlns="http://www.w3.org/2000/svg"><path  d="M512 512c-124.586667 0-226.986667-102.4-226.986667-226.986667S387.413333 59.733333 512 59.733333s226.986667 102.4 226.986667 226.986667S636.586667 512 512 512z m0-401.066667c-97.28 0-175.786667 78.506667-175.786667 175.786667C336.213333 382.293333 414.72 460.8 512 460.8s175.786667-78.506667 175.786667-175.786667c0-95.573333-78.506667-174.08-175.786667-174.08z"  /><path  d="M964.266667 964.266667h-904.533334c-13.653333 0-25.6-11.946667-25.6-25.6 0-262.826667 215.04-477.866667 477.866667-477.866667s477.866667 215.04 477.866667 477.866667c0 13.653333-11.946667 25.6-25.6 25.6zM85.333333 913.066667h853.333334C925.013333 689.493333 738.986667 512 512 512S98.986667 689.493333 85.333333 913.066667z"  /><path  d="M459.093333 858.453333h-46.08c-18.773333 0-34.133333-15.36-34.133333-34.133333v-46.08c0-8.533333 3.413333-17.066667 10.24-23.893333l151.893333-151.893334c13.653333-13.653333 34.133333-13.653333 47.786667 0l46.08 46.08c6.826667 6.826667 10.24 15.36 10.24 23.893334 0 8.533333-3.413333 17.066667-10.24 23.893333l-151.893333 151.893333c-6.826667 6.826667-15.36 10.24-23.893334 10.24z m-29.013333-51.2h20.48l134.826667-134.826666-20.48-20.48-134.826667 134.826666v20.48z m168.96-121.173333z"  /></svg>