<?xml version="1.0" standalone="no"?><!DOCTYPE svg PUBLIC "-//W3C//DTD SVG 1.1//EN" "http://www.w3.org/Graphics/SVG/1.1/DTD/svg11.dtd"><svg class="icon" width="64px" height="64.00px" viewBox="0 0 1024 1024" version="1.1" xmlns="http://www.w3.org/2000/svg"><path  d="M896 757.76h-768c-51.2 0-93.866667-42.666667-93.866667-93.866667V213.333333C34.133333 160.426667 76.8 119.466667 128 119.466667h768c51.2 0 93.866667 42.666667 93.866667 93.866666v450.56c0 52.906667-42.666667 93.866667-93.866667 93.866667zM128 170.666667C104.106667 170.666667 85.333333 189.44 85.333333 213.333333v450.56c0 23.893333 18.773333 42.666667 42.666667 42.666667h768c23.893333 0 42.666667-18.773333 42.666667-42.666667V213.333333c0-23.893333-18.773333-42.666667-42.666667-42.666666h-768z"  /><path  d="M486.4 744.106667h51.2v136.533333h-51.2z"  /><path  d="M783.36 904.533333H240.64c-13.653333 0-25.6-11.946667-25.6-25.6s11.946667-25.6 25.6-25.6h542.72c13.653333 0 25.6 11.946667 25.6 25.6s-11.946667 25.6-25.6 25.6zM279.893333 358.4l-29.013333 186.026667h-59.733333l22.186666-174.08-8.533333-11.946667h75.093333zM360.106667 544.426667l22.186666-155.306667h-69.973333l3.413333-32.426667h203.093334l-6.826667 32.426667h-66.56l-22.186667 155.306667h-63.146666z"  /><path  d="M658.773333 520.533333h-40.96c-18.773333 0-32.426667-15.36-32.426666-32.426666v-40.96c0-8.533333 3.413333-17.066667 10.24-23.893334l138.24-138.24c11.946667-11.946667 34.133333-11.946667 46.08 0l40.96 40.96c11.946667 11.946667 11.946667 34.133333 0 46.08L682.666667 512c-6.826667 5.12-15.36 8.533333-23.893334 8.533333z m-22.186666-51.2h15.36l119.466666-119.466666-15.36-15.36-119.466666 119.466666v15.36zM785.066667 600.746667H610.986667c-13.653333 0-25.6-11.946667-25.6-25.6s11.946667-25.6 25.6-25.6H785.066667c13.653333 0 25.6 11.946667 25.6 25.6s-11.946667 25.6-25.6 25.6z"  /></svg>