<?xml version="1.0" standalone="no"?><!DOCTYPE svg PUBLIC "-//W3C//DTD SVG 1.1//EN" "http://www.w3.org/Graphics/SVG/1.1/DTD/svg11.dtd"><svg class="icon" width="64px" height="64.00px" viewBox="0 0 1024 1024" version="1.1" xmlns="http://www.w3.org/2000/svg"><path  d="M836.266667 989.866667H187.733333c-51.2 0-93.866667-42.666667-93.866666-93.866667v-768C93.866667 76.8 136.533333 34.133333 187.733333 34.133333h648.533334c51.2 0 93.866667 42.666667 93.866666 93.866667v768c0 51.2-42.666667 93.866667-93.866666 93.866667zM187.733333 85.333333C163.84 85.333333 145.066667 104.106667 145.066667 128v768c0 23.893333 18.773333 42.666667 42.666666 42.666667h648.533334c23.893333 0 42.666667-18.773333 42.666666-42.666667v-768C878.933333 104.106667 860.16 85.333333 836.266667 85.333333H187.733333z"  /><path  d="M414.72 209.92l-37.546667 245.76h-78.506666l29.013333-230.4-11.946667-17.066667h98.986667zM518.826667 455.68l29.013333-204.8h-92.16l5.12-40.96h266.24l-8.533333 40.96H631.466667l-29.013334 204.8h-83.626666z"  /><path  d="M416.426667 692.906667h-158.72c-13.653333 0-25.6-11.946667-25.6-25.6s11.946667-25.6 25.6-25.6h158.72c13.653333 0 25.6 11.946667 25.6 25.6s-10.24 25.6-25.6 25.6zM416.426667 812.373333h-158.72c-13.653333 0-25.6-11.946667-25.6-25.6s11.946667-25.6 25.6-25.6h158.72c13.653333 0 25.6 11.946667 25.6 25.6s-10.24 25.6-25.6 25.6zM624.64 805.546667c-6.826667 0-13.653333-3.413333-18.773333-8.533334l-69.973334-75.093333c-10.24-10.24-8.533333-27.306667 1.706667-35.84 10.24-10.24 27.306667-8.533333 35.84 1.706667l52.906667 54.613333 122.88-129.706667c10.24-10.24 25.6-10.24 35.84-1.706666 10.24 10.24 10.24 25.6 1.706666 35.84l-141.653333 148.48c-6.826667 6.826667-13.653333 10.24-20.48 10.24z"  /></svg>