<?xml version="1.0" standalone="no"?><!DOCTYPE svg PUBLIC "-//W3C//DTD SVG 1.1//EN" "http://www.w3.org/Graphics/SVG/1.1/DTD/svg11.dtd"><svg class="icon" width="64px" height="64.00px" viewBox="0 0 1024 1024" version="1.1" xmlns="http://www.w3.org/2000/svg"><path  d="M655.36 989.866667H187.733333c-51.2 0-93.866667-42.666667-93.866666-93.866667v-768C93.866667 76.8 136.533333 34.133333 187.733333 34.133333h648.533334c51.2 0 93.866667 42.666667 93.866666 93.866667v515.413333c0 13.653333-11.946667 25.6-25.6 25.6s-25.6-11.946667-25.6-25.6V128C878.933333 104.106667 860.16 85.333333 836.266667 85.333333H187.733333C163.84 85.333333 145.066667 104.106667 145.066667 128v768c0 23.893333 18.773333 42.666667 42.666666 42.666667h467.626667c13.653333 0 25.6 11.946667 25.6 25.6s-11.946667 25.6-25.6 25.6z"  /><path  d="M711.68 281.6H312.32c-13.653333 0-25.6-11.946667-25.6-25.6s11.946667-25.6 25.6-25.6h401.066667c13.653333 0 25.6 11.946667 25.6 25.6s-11.946667 25.6-27.306667 25.6zM711.68 447.146667H312.32c-13.653333 0-25.6-11.946667-25.6-25.6s11.946667-25.6 25.6-25.6h401.066667c13.653333 0 25.6 11.946667 25.6 25.6s-11.946667 25.6-27.306667 25.6zM711.68 614.4H312.32c-13.653333 0-25.6-11.946667-25.6-25.6s11.946667-25.6 25.6-25.6h401.066667c13.653333 0 25.6 11.946667 25.6 25.6s-11.946667 25.6-27.306667 25.6zM904.533333 827.733333H703.146667c-13.653333 0-25.6-11.946667-25.6-25.6s11.946667-25.6 25.6-25.6H904.533333c13.653333 0 25.6 11.946667 25.6 25.6s-11.946667 25.6-25.6 25.6z"  /><path  d="M757.76 904.533333c-6.826667 0-13.653333-1.706667-18.773333-6.826666l-76.8-76.8c-10.24-10.24-10.24-25.6 0-35.84l76.8-76.8c10.24-10.24 25.6-10.24 35.84 0s10.24 25.6 0 35.84L716.8 802.133333l58.026667 58.026667c10.24 10.24 10.24 25.6 0 35.84-5.12 6.826667-11.946667 8.533333-17.066667 8.533333z"  /></svg>