<?xml version="1.0" standalone="no"?><!DOCTYPE svg PUBLIC "-//W3C//DTD SVG 1.1//EN" "http://www.w3.org/Graphics/SVG/1.1/DTD/svg11.dtd"><svg class="icon" width="64px" height="64.00px" viewBox="0 0 1024 1024" version="1.1" xmlns="http://www.w3.org/2000/svg"><path  d="M836.266667 989.866667H187.733333c-51.2 0-93.866667-42.666667-93.866666-93.866667v-768C93.866667 76.8 136.533333 34.133333 187.733333 34.133333h648.533334c51.2 0 93.866667 42.666667 93.866666 93.866667v768c0 51.2-42.666667 93.866667-93.866666 93.866667zM187.733333 85.333333C163.84 85.333333 145.066667 104.106667 145.066667 128v768c0 23.893333 18.773333 42.666667 42.666666 42.666667h648.533334c23.893333 0 42.666667-18.773333 42.666666-42.666667v-768C878.933333 104.106667 860.16 85.333333 836.266667 85.333333H187.733333z"  /><path  d="M706.56 897.706667c-6.826667 0-11.946667-1.706667-17.066667-6.826667-10.24-10.24-10.24-25.6 0-35.84l64.853334-68.266667-64.853334-68.266666c-10.24-10.24-10.24-25.6 0-35.84 10.24-10.24 25.6-10.24 35.84 0l81.92 85.333333c10.24 10.24 10.24 25.6 0 35.84l-81.92 85.333333c-6.826667 6.826667-11.946667 8.533333-18.773333 8.533334z"  /><path  d="M788.48 812.373333H588.8c-13.653333 0-25.6-11.946667-25.6-25.6s11.946667-25.6 25.6-25.6h199.68c13.653333 0 25.6 11.946667 25.6 25.6s-11.946667 25.6-25.6 25.6z"  /><path  d="M757.76 445.44H576.853333c-13.653333 0-25.6-11.946667-25.6-25.6V242.346667c0-13.653333 11.946667-25.6 25.6-25.6h87.04c6.826667 0 11.946667 1.706667 17.066667 6.826666l93.866667 80.213334c5.12 5.12 8.533333 11.946667 8.533333 18.773333v97.28c0 13.653333-11.946667 25.6-25.6 25.6z m-155.306667-51.2h129.706667v-59.733333l-76.8-66.56h-52.906667v126.293333z"  /><path  d="M576.853333 445.44H266.24c-13.653333 0-25.6-11.946667-25.6-25.6V213.333333c0-34.133333 29.013333-61.44 66.56-61.44h228.693333c35.84 0 66.56 27.306667 66.56 61.44v206.506667c0 13.653333-11.946667 25.6-25.6 25.6z m-285.013333-51.2h257.706667V213.333333c0-5.12-6.826667-10.24-15.36-10.24H307.2c-8.533333 0-15.36 5.12-15.36 10.24v180.906667z"  /><path  d="M757.76 561.493333h-83.626667c-13.653333 0-25.6-11.946667-25.6-25.6s11.946667-25.6 25.6-25.6h58.026667v-64.853333H291.84v64.853333h56.32c13.653333 0 25.6 11.946667 25.6 25.6s-11.946667 25.6-25.6 25.6h-81.92c-13.653333 0-25.6-11.946667-25.6-25.6v-116.053333c0-13.653333 11.946667-25.6 25.6-25.6h489.813333c13.653333 0 25.6 11.946667 25.6 25.6v116.053333c1.706667 15.36-10.24 25.6-23.893333 25.6z"  /><path  d="M580.266667 561.493333h-138.24c-13.653333 0-25.6-11.946667-25.6-25.6s11.946667-25.6 25.6-25.6H580.266667c13.653333 0 25.6 11.946667 25.6 25.6 0 15.36-11.946667 25.6-25.6 25.6z"  /><path  d="M392.533333 612.693333c-39.253333 0-69.973333-30.72-69.973333-69.973333s30.72-69.973333 69.973333-69.973333 69.973333 30.72 69.973334 69.973333-30.72 69.973333-69.973334 69.973333z m0-88.746666c-10.24 0-18.773333 8.533333-18.773333 18.773333 0 10.24 8.533333 18.773333 18.773333 18.773333 10.24 0 18.773333-8.533333 18.773334-18.773333 0-10.24-6.826667-18.773333-18.773334-18.773333zM628.053333 612.693333c-39.253333 0-69.973333-30.72-69.973333-69.973333s30.72-69.973333 69.973333-69.973333 69.973333 30.72 69.973334 69.973333-30.72 69.973333-69.973334 69.973333z m0-88.746666c-10.24 0-18.773333 8.533333-18.773333 18.773333 0 10.24 8.533333 18.773333 18.773333 18.773333 10.24 0 18.773333-8.533333 18.773334-18.773333 0-10.24-8.533333-18.773333-18.773334-18.773333z"  /></svg>