<?xml version="1.0" standalone="no"?><!DOCTYPE svg PUBLIC "-//W3C//DTD SVG 1.1//EN" "http://www.w3.org/Graphics/SVG/1.1/DTD/svg11.dtd"><svg class="icon" width="64px" height="64.00px" viewBox="0 0 1024 1024" version="1.1" xmlns="http://www.w3.org/2000/svg"><path  d="M935.253333 551.253333c-13.653333 0-25.6-11.946667-25.6-25.6V124.586667h-802.133333v401.066666c0 13.653333-11.946667 25.6-25.6 25.6s-25.6-11.946667-25.6-25.6v-426.666666c0-13.653333 11.946667-25.6 25.6-25.6h853.333333c13.653333 0 25.6 11.946667 25.6 25.6v426.666666c0 15.36-10.24 25.6-25.6 25.6zM209.92 977.92c-85.333333 0-153.6-68.266667-153.6-153.6s68.266667-153.6 153.6-153.6 153.6 68.266667 153.6 153.6-68.266667 153.6-153.6 153.6z m0-256c-56.32 0-102.4 46.08-102.4 102.4s46.08 102.4 102.4 102.4 102.4-46.08 102.4-102.4-44.373333-102.4-102.4-102.4z"  /><path  d="M211.626667 977.92c-40.96 0-80.213333-15.36-109.226667-44.373333-10.24-10.24-10.24-25.6 0-35.84 10.24-10.24 25.6-10.24 35.84 0 18.773333 18.773333 44.373333 30.72 71.68 30.72s52.906667-10.24 71.68-30.72c13.653333-13.653333 40.96-54.613333 93.866667-128 68.266667-97.28 182.613333-259.413333 368.64-513.706667 8.533333-11.946667 23.893333-13.653333 35.84-5.12 11.946667 8.533333 13.653333 23.893333 5.12 35.84-186.026667 252.586667-298.666667 414.72-366.933334 512-56.32 81.92-83.626667 119.466667-98.986666 134.826667-29.013333 29.013333-66.56 44.373333-107.52 44.373333zM807.253333 977.92c-85.333333 0-153.6-68.266667-153.6-153.6s68.266667-153.6 153.6-153.6 153.6 68.266667 153.6 153.6-68.266667 153.6-153.6 153.6z m0-256c-56.32 0-102.4 46.08-102.4 102.4s46.08 102.4 102.4 102.4 102.4-46.08 102.4-102.4-44.373333-102.4-102.4-102.4z"  /><path  d="M807.253333 977.92c-40.96 0-80.213333-15.36-109.226666-44.373333-17.066667-17.066667-42.666667-52.906667-98.986667-134.826667-68.266667-97.28-180.906667-259.413333-366.933333-512-8.533333-11.946667-5.12-27.306667 5.12-35.84 11.946667-8.533333 27.306667-5.12 35.84 5.12 187.733333 252.586667 300.373333 414.72 368.64 512 52.906667 75.093333 80.213333 116.053333 93.866666 128 18.773333 18.773333 44.373333 30.72 71.68 30.72s52.906667-10.24 71.68-30.72c10.24-10.24 25.6-10.24 35.84 0 10.24 10.24 10.24 25.6 0 35.84-27.306667 30.72-64.853333 46.08-107.52 46.08z"  /></svg>