<?xml version="1.0" standalone="no"?><!DOCTYPE svg PUBLIC "-//W3C//DTD SVG 1.1//EN" "http://www.w3.org/Graphics/SVG/1.1/DTD/svg11.dtd"><svg class="icon" width="64px" height="64.00px" viewBox="0 0 1024 1024" version="1.1" xmlns="http://www.w3.org/2000/svg"><path  d="M772.266667 809.984c-119.978667 0-217.6-97.621333-217.6-217.6s97.621333-217.6 217.6-217.6S989.866667 472.405333 989.866667 592.384s-97.621333 217.6-217.6 217.6z m0-384c-91.818667 0-166.4 74.581333-166.4 166.4s74.581333 166.4 166.4 166.4S938.666667 684.202667 938.666667 592.384s-74.581333-166.4-166.4-166.4z"  /><path  d="M772.266667 694.784c-56.490667 0-102.4-45.909333-102.4-102.4s45.909333-102.4 102.4-102.4 102.4 45.909333 102.4 102.4-45.909333 102.4-102.4 102.4z m0-153.6c-28.16 0-51.2 23.04-51.2 51.2s23.04 51.2 51.2 51.2 51.2-23.04 51.2-51.2-23.04-51.2-51.2-51.2zM910.336 937.984H634.197333l60.416-179.2h154.965334l60.757333 179.2z m-204.8-51.2h133.461333l-26.112-76.8h-81.408l-25.941333 76.8z"  /><path  d="M925.866667 937.984h-307.2c-14.165333 0-25.6-11.434667-25.6-25.6s11.434667-25.6 25.6-25.6h307.2c14.165333 0 25.6 11.434667 25.6 25.6s-11.434667 25.6-25.6 25.6z"  /><path  d="M512 809.472H128a94.037333 94.037333 0 0 1-93.866667-93.866667V179.882667c0-51.712 42.154667-93.866667 93.866667-93.866667h768c51.712 0 93.866667 42.154667 93.866667 93.866667v156.672c0 14.165333-11.434667 25.6-25.6 25.6s-25.6-11.434667-25.6-25.6v-156.672a42.666667 42.666667 0 0 0-42.666667-42.666667h-768a42.666667 42.666667 0 0 0-42.666667 42.666667v535.722666a42.666667 42.666667 0 0 0 42.666667 42.666667H512c14.165333 0 25.6 11.434667 25.6 25.6s-11.434667 25.6-25.6 25.6zM512 937.984H242.688c-14.165333 0-25.6-11.434667-25.6-25.6s11.434667-25.6 25.6-25.6H512c14.165333 0 25.6 11.434667 25.6 25.6s-11.434667 25.6-25.6 25.6z"  /></svg>