<?xml version="1.0" standalone="no"?><!DOCTYPE svg PUBLIC "-//W3C//DTD SVG 1.1//EN" "http://www.w3.org/Graphics/SVG/1.1/DTD/svg11.dtd"><svg class="icon" width="64px" height="64.00px" viewBox="0 0 1024 1024" version="1.1" xmlns="http://www.w3.org/2000/svg"><path  d="M850.602667 989.866667H173.397333a94.037333 94.037333 0 0 1-93.866666-93.866667V490.496c0-14.165333 11.434667-25.6 25.6-25.6h239.274666c8.021333 0 15.701333 3.754667 20.48 10.24l96.426667 128.512h120.490667l80.725333-126.976c4.778667-7.338667 12.8-11.946667 21.674667-11.946667h234.496c14.165333 0 25.6 11.434667 25.6 25.6V896c0.170667 51.712-41.984 93.866667-93.696 93.866667zM130.730667 516.096V896a42.666667 42.666667 0 0 0 42.666666 42.666667h677.034667a42.666667 42.666667 0 0 0 42.666667-42.666667V516.096H698.368l-80.725333 126.976c-4.778667 7.338667-12.8 11.946667-21.674667 11.946667h-147.456c-8.021333 0-15.701333-3.754667-20.48-10.24l-96.426667-128.512H130.730667z"  /><path  d="M796.672 491.52c-14.165333 0-25.6-11.434667-25.6-25.6V128a42.666667 42.666667 0 0 0-42.666667-42.666667H295.424a42.666667 42.666667 0 0 0-42.666667 42.666667v337.92c0 14.165333-11.434667 25.6-25.6 25.6s-25.6-11.434667-25.6-25.6V128c0-51.712 42.154667-93.866667 93.866667-93.866667h432.981333c51.712 0 93.866667 42.154667 93.866667 93.866667v337.92c0 14.165333-11.434667 25.6-25.6 25.6z"  /><path  d="M598.186667 320.682667h-172.373334c-14.165333 0-25.6-11.434667-25.6-25.6s11.434667-25.6 25.6-25.6h172.544c14.165333 0 25.6 11.434667 25.6 25.6s-11.605333 25.6-25.770666 25.6zM598.186667 407.04h-172.373334c-14.165333 0-25.6-11.434667-25.6-25.6s11.434667-25.6 25.6-25.6h172.544c14.165333 0 25.6 11.434667 25.6 25.6s-11.605333 25.6-25.770666 25.6z"  /><path  d="M512.170667 493.226667c-14.165333 0-25.6-11.434667-25.6-25.6V295.082667c0-14.165333 11.434667-25.6 25.6-25.6s25.6 11.434667 25.6 25.6V467.626667c0 14.165333-11.434667 25.6-25.6 25.6z"  /><path  d="M512 316.928l-104.277333-104.277333c-10.069333-10.069333-10.069333-26.282667 0-36.181334s26.282667-10.069333 36.181333 0L512 244.565333l68.096-68.096c10.069333-10.069333 26.282667-10.069333 36.181333 0s10.069333 26.282667 0 36.181334L512 316.928z"  /><path  d="M697.685333 813.397333H326.314667c-14.165333 0-25.6-11.434667-25.6-25.6s11.434667-25.6 25.6-25.6h371.370666c14.165333 0 25.6 11.434667 25.6 25.6s-11.434667 25.6-25.6 25.6z"  /></svg>