<?xml version="1.0" standalone="no"?><!DOCTYPE svg PUBLIC "-//W3C//DTD SVG 1.1//EN" "http://www.w3.org/Graphics/SVG/1.1/DTD/svg11.dtd"><svg class="icon" width="64px" height="64.00px" viewBox="0 0 1024 1024" version="1.1" xmlns="http://www.w3.org/2000/svg"><path  d="M896 904.533333h-768c-51.2 0-93.866667-42.666667-93.866667-93.866666v-597.333334C34.133333 162.133333 76.8 119.466667 128 119.466667h768c51.2 0 93.866667 42.666667 93.866667 93.866666v597.333334c0 51.2-42.666667 93.866667-93.866667 93.866666z m-768-733.866666C104.106667 170.666667 85.333333 189.44 85.333333 213.333333v597.333334C85.333333 834.56 104.106667 853.333333 128 853.333333h768c23.893333 0 42.666667-18.773333 42.666667-42.666666v-597.333334c0-23.893333-18.773333-42.666667-42.666667-42.666666h-768z"  /><path  d="M317.44 472.746667c-8.533333 0-15.36-3.413333-20.48-10.24l-102.4-129.706667c-8.533333-10.24-6.826667-27.306667 3.413333-35.84 10.24-8.533333 27.306667-6.826667 35.84 3.413333l83.626667 104.106667 83.626667-104.106667c8.533333-10.24 25.6-13.653333 35.84-3.413333 10.24 8.533333 13.653333 25.6 3.413333 35.84l-102.4 129.706667c-5.12 6.826667-11.946667 10.24-20.48 10.24zM442.026667 602.453333H194.56c-13.653333 0-25.6-11.946667-25.6-25.6s11.946667-25.6 25.6-25.6h247.466667c13.653333 0 25.6 11.946667 25.6 25.6s-11.946667 25.6-25.6 25.6z"  /><path  d="M442.026667 472.746667H194.56c-13.653333 0-25.6-11.946667-25.6-25.6s11.946667-25.6 25.6-25.6h247.466667c13.653333 0 25.6 11.946667 25.6 25.6s-11.946667 25.6-25.6 25.6z"  /><path  d="M317.44 732.16c-13.653333 0-25.6-11.946667-25.6-25.6V447.146667c0-13.653333 11.946667-25.6 25.6-25.6s25.6 11.946667 25.6 25.6v261.12c0 13.653333-11.946667 23.893333-25.6 23.893333z"  /><path  d="M829.44 472.746667H580.266667c-13.653333 0-25.6-11.946667-25.6-25.6s11.946667-25.6 25.6-25.6h249.173333c13.653333 0 25.6 11.946667 25.6 25.6s-10.24 25.6-25.6 25.6zM829.44 602.453333H580.266667c-13.653333 0-25.6-11.946667-25.6-25.6s11.946667-25.6 25.6-25.6h249.173333c13.653333 0 25.6 11.946667 25.6 25.6s-10.24 25.6-25.6 25.6z"  /></svg>