<?xml version="1.0" standalone="no"?><!DOCTYPE svg PUBLIC "-//W3C//DTD SVG 1.1//EN" "http://www.w3.org/Graphics/SVG/1.1/DTD/svg11.dtd"><svg class="icon" width="64px" height="64.00px" viewBox="0 0 1024 1024" version="1.1" xmlns="http://www.w3.org/2000/svg"><path  d="M76.288 989.866667a25.514667 25.514667 0 0 1-25.6-25.6V140.8C50.688 81.92 96.938667 34.133333 153.770667 34.133333H870.4c56.832 0 103.082667 47.786667 103.082667 106.666667V964.266667c0 10.24-5.973333 19.456-15.36 23.552-9.216 4.096-20.138667 2.218667-27.648-4.778667L802.133333 864.085333l-130.56 118.954667c-9.898667 9.045333-25.088 8.874667-34.816-0.341333l-125.781333-119.125334-143.530667 120.149334c-9.728 8.192-24.064 7.850667-33.450666-0.512l-132.778667-118.101334-106.154667 116.224c-4.778667 5.632-11.776 8.533333-18.773333 8.533334z m123.050667-186.026667c6.144 0 12.117333 2.218667 17.066666 6.485333l135.168 120.149334 144.042667-120.661334a25.770667 25.770667 0 0 1 34.133333 1.024l125.098667 118.442667L785.066667 810.496c9.898667-8.874667 24.917333-8.874667 34.645333 0.170667l102.4 95.061333V140.8c0-30.549333-23.210667-55.466667-51.882667-55.466667H153.770667C125.098667 85.333333 101.888 110.250667 101.888 140.8v757.418667l78.677333-86.186667c4.949333-5.461333 11.946667-8.192 18.773334-8.192z"  /><path  d="M619.178667 284.842667H192.170667c-14.165333 0-25.6-11.434667-25.6-25.6s11.434667-25.6 25.6-25.6h427.008c14.165333 0 25.6 11.434667 25.6 25.6s-11.605333 25.6-25.6 25.6zM367.616 516.266667H192.170667c-14.165333 0-25.6-11.434667-25.6-25.6s11.434667-25.6 25.6-25.6h175.616c14.165333 0 25.6 11.434667 25.6 25.6s-11.605333 25.6-25.770667 25.6zM693.76 546.645333c-7.68 0-14.848-3.413333-19.626667-9.216l-90.112-108.032c-9.045333-10.922667-7.509333-26.965333 3.242667-36.010666 10.922667-9.045333 26.965333-7.509333 36.010667 3.242666l70.485333 84.48 70.485333-84.48c9.045333-10.922667 25.258667-12.288 36.010667-3.242666 10.922667 9.045333 12.288 25.258667 3.242667 36.010666l-90.112 108.032c-4.778667 5.973333-11.946667 9.216-19.626667 9.216zM801.792 654.848H585.728c-14.165333 0-25.6-11.434667-25.6-25.6s11.434667-25.6 25.6-25.6h216.234667c14.165333 0 25.6 11.434667 25.6 25.6s-11.605333 25.6-25.770667 25.6z"  /><path  d="M801.792 546.645333H585.728c-14.165333 0-25.6-11.434667-25.6-25.6s11.434667-25.6 25.6-25.6h216.234667c14.165333 0 25.6 11.434667 25.6 25.6s-11.605333 25.6-25.770667 25.6z"  /><path  d="M693.76 762.88c-14.165333 0-25.6-11.434667-25.6-25.6V521.045333c0-14.165333 11.434667-25.6 25.6-25.6s25.6 11.434667 25.6 25.6V737.28c0 14.165333-11.434667 25.6-25.6 25.6z"  /></svg>