<?xml version="1.0" standalone="no"?><!DOCTYPE svg PUBLIC "-//W3C//DTD SVG 1.1//EN" "http://www.w3.org/Graphics/SVG/1.1/DTD/svg11.dtd"><svg class="icon" width="64px" height="64.00px" viewBox="0 0 1024 1024" version="1.1" xmlns="http://www.w3.org/2000/svg"><path  d="M828.074667 989.866667H195.754667a94.037333 94.037333 0 0 1-93.866667-93.866667V421.546667c0-14.165333 11.434667-25.6 25.6-25.6h768.853333c14.165333 0 25.6 11.434667 25.6 25.6v474.453333c0 51.712-41.984 93.866667-93.866666 93.866667zM153.088 447.146667v448.853333a42.666667 42.666667 0 0 0 42.666667 42.666667h632.32a42.666667 42.666667 0 0 0 42.666666-42.666667V447.146667H153.088z"  /><path  d="M512 989.866667c-14.165333 0-25.6-11.434667-25.6-25.6V421.546667c0-14.165333 11.434667-25.6 25.6-25.6s25.6 11.434667 25.6 25.6v542.72c0 14.165333-11.434667 25.6-25.6 25.6z"  /><path  d="M964.266667 447.146667h-904.533334c-14.165333 0-25.6-11.434667-25.6-25.6V240.64c0-14.165333 11.434667-25.6 25.6-25.6h904.533334c14.165333 0 25.6 11.434667 25.6 25.6v180.906667c0 14.165333-11.434667 25.6-25.6 25.6zM85.333333 395.946667h853.333334v-129.706667H85.333333v129.706667z"  /><path  d="M512 266.24c-6.485333 0-13.141333-2.56-18.090667-7.509333l-180.906666-180.906667c-10.069333-10.069333-10.069333-26.282667 0-36.181333s26.282667-10.069333 36.181333 0L512 204.458667l162.816-162.816c10.069333-10.069333 26.282667-10.069333 36.181333 0s10.069333 26.282667 0 36.181333l-180.906666 180.906667c-4.949333 4.949333-11.605333 7.509333-18.090667 7.509333z"  /></svg>