<?xml version="1.0" standalone="no"?><!DOCTYPE svg PUBLIC "-//W3C//DTD SVG 1.1//EN" "http://www.w3.org/Graphics/SVG/1.1/DTD/svg11.dtd"><svg class="icon" width="64px" height="64.00px" viewBox="0 0 1024 1024" version="1.1" xmlns="http://www.w3.org/2000/svg"><path  d="M406.186667 426.666667c-93.866667 0-170.666667-76.8-170.666667-170.666667s76.8-170.666667 170.666667-170.666667 170.666667 76.8 170.666666 170.666667-76.8 170.666667-170.666666 170.666667z m0-290.133334c-66.56 0-119.466667 52.906667-119.466667 119.466667s52.906667 119.466667 119.466667 119.466667 119.466667-52.906667 119.466666-119.466667-54.613333-119.466667-119.466666-119.466667z"  /><path  d="M539.306667 773.12H59.733333c-13.653333 0-25.6-11.946667-25.6-25.6C34.133333 541.013333 201.386667 375.466667 406.186667 375.466667c102.4 0 201.386667 42.666667 271.36 117.76 10.24 10.24 8.533333 27.306667-1.706667 35.84-10.24 10.24-27.306667 8.533333-35.84-1.706667C578.56 462.506667 494.933333 426.666667 406.186667 426.666667c-168.96 0-307.2 129.706667-319.146667 295.253333h453.973333c13.653333 0 25.6 11.946667 25.6 25.6s-11.946667 25.6-27.306666 25.6z"  /><path  d="M752.64 938.666667c-131.413333 0-237.226667-107.52-237.226667-237.226667 0-131.413333 107.52-237.226667 237.226667-237.226667S989.866667 570.026667 989.866667 701.44 882.346667 938.666667 752.64 938.666667z m0-424.96c-102.4 0-186.026667 83.626667-186.026667 186.026666s83.626667 186.026667 186.026667 186.026667S938.666667 803.84 938.666667 701.44c0-104.106667-83.626667-187.733333-186.026667-187.733333z"  /><path  d="M696.32 776.533333L667.306667 631.466667l-5.12-6.826667H716.8l20.48 105.813333 51.2-105.813333h51.2l-71.68 153.6h-71.68z"  /></svg>