<?xml version="1.0" standalone="no"?><!DOCTYPE svg PUBLIC "-//W3C//DTD SVG 1.1//EN" "http://www.w3.org/Graphics/SVG/1.1/DTD/svg11.dtd"><svg class="icon" width="64px" height="64.00px" viewBox="0 0 1024 1024" version="1.1" xmlns="http://www.w3.org/2000/svg"><path  d="M512 989.866667C248.490667 989.866667 34.133333 775.509333 34.133333 512S248.490667 34.133333 512 34.133333s477.866667 214.357333 477.866667 477.866667c0 34.133333-3.584 67.925333-10.752 100.522667a25.565867 25.565867 0 0 1-40.96 14.506666A244.599467 244.599467 0 0 0 785.066667 573.952c-136.704 0-247.808 111.104-247.808 247.808 0 45.056 12.117333 89.088 35.328 127.488 4.608 7.509333 4.949333 16.896 0.853333 24.746667-3.925333 7.850667-11.776 13.141333-20.48 13.994666-12.629333 1.194667-26.624 1.877333-40.96 1.877334z m0-904.533334C276.821333 85.333333 85.333333 276.650667 85.333333 512c0 234.496 190.293333 425.472 424.618667 426.666667a299.861333 299.861333 0 0 1-23.722667-116.736c0-164.864 134.144-299.008 299.008-299.008 53.76 0 104.96 13.824 150.357334 40.448 2.048-16.896 3.072-34.133333 3.072-51.370667C938.666667 276.650667 747.349333 85.333333 512 85.333333z"  /><path  d="M550.741333 988.16c-8.704 0-17.066667-4.437333-22.016-12.458667-27.818667-46.250667-42.666667-99.498667-42.666666-153.770666 0-164.864 134.144-299.008 299.008-299.008 67.925333 0 131.754667 22.186667 184.832 64 11.093333 8.704 12.970667 24.917333 4.266666 36.010666-8.704 11.093333-24.917333 12.970667-36.010666 4.266667A244.599467 244.599467 0 0 0 785.066667 574.122667c-136.704 0-247.808 111.104-247.808 247.808 0 45.056 12.117333 89.088 35.328 127.488 7.338667 12.117333 3.413333 27.818667-8.704 35.157333-4.096 2.389333-8.533333 3.584-13.141334 3.584zM448.170667 635.392c-1.365333 0-2.56-0.170667-3.925334-0.341333-4.949333-0.682667-9.728-2.901333-13.653333-6.656L214.869333 412.842667a61.354667 61.354667 0 0 1 0-87.04l93.525334-93.525334a61.4912 61.4912 0 0 1 87.04 0l70.826666 70.826667c10.069333 10.069333 10.069333 26.282667 0 36.181333s-26.282667 10.069333-36.181333 0l-70.826667-70.826666a10.308267 10.308267 0 0 0-14.677333 0l-93.525333 93.525333a10.24 10.24 0 0 0-3.072 7.338667c0 1.536 0.341333 4.778667 3.072 7.338666l197.12 197.12 126.293333-126.293333a25.429333 25.429333 0 0 1 36.181333 0c4.949333 4.949333 7.509333 11.605333 7.509334 18.090667s-2.56 13.141333-7.509334 18.090666l-144.384 144.384c-4.949333 4.949333-11.605333 7.338667-18.090666 7.338667z"  /><path  d="M592.554667 491.008c-6.826667 0-13.312-2.730667-18.090667-7.509333l-78.165333-78.165334-54.101334 54.101334a25.6 25.6 0 0 1-31.232 3.925333l-59.733333-35.84c-1.706667-1.024-3.413333-2.218667-4.949333-3.584l-1.024-1.024c-4.437333-4.608-6.826667-10.581333-6.997334-16.554667v-2.56c0.341333-5.973333 2.901333-11.776 7.338667-16.384l154.965333-154.965333a61.4912 61.4912 0 0 1 87.04 0l93.525334 93.525333a61.4912 61.4912 0 0 1 0 87.04l-70.826667 70.826667c-4.437333 4.608-10.922667 7.168-17.749333 7.168z m-96.256-147.456c6.826667 0 13.312 2.730667 18.090666 7.509333l78.165334 78.165334 52.736-52.736c4.096-4.096 4.096-10.581333 0-14.677334l-93.525334-93.525333a10.308267 10.308267 0 0 0-14.677333 0l-70.314667 70.314667-0.341333 0.341333-61.098667 61.098667 14.848 8.874666 58.026667-58.026666c4.778667-4.608 11.264-7.338667 18.090667-7.338667z"  /><path  d="M496.298667 587.264c-6.485333 0-13.141333-2.56-18.090667-7.509333l-36.181333-36.181334c-10.069333-10.069333-10.069333-26.282667 0-36.181333s26.282667-10.069333 36.181333 0l17.92 17.92 11.946667-11.946667-17.92-17.92c-10.069333-9.898667-10.069333-26.282667 0-36.181333s26.282667-10.069333 36.181333 0l36.181333 36.010667a25.582933 25.582933 0 0 1 0 36.181333l-48.128 48.128c-4.949333 5.290667-11.605333 7.68-18.090666 7.68z"  /><path  d="M736.426667 879.957333c-14.165333 0-25.6-11.434667-25.6-25.6v-113.322666c0-14.165333 11.434667-25.6 25.6-25.6s25.6 11.434667 25.6 25.6v113.322666c0 14.165333-11.605333 25.6-25.6 25.6z"  /><path  d="M849.749333 879.957333h-113.322666c-14.165333 0-25.6-11.434667-25.6-25.6s11.434667-25.6 25.6-25.6h113.322666c14.165333 0 25.6 11.434667 25.6 25.6s-11.605333 25.6-25.6 25.6z"  /><path  d="M783.872 989.866667c-102.912 0-186.709333-83.797333-186.709333-186.709334s83.797333-186.709333 186.709333-186.709333 186.709333 83.797333 186.709333 186.709333S886.954667 989.866667 783.872 989.866667z m0-322.218667c-74.752 0-135.509333 60.757333-135.509333 135.509333 0 74.752 60.757333 135.509333 135.509333 135.509334 74.752 0 135.509333-60.757333 135.509333-135.509334 0-74.752-60.757333-135.509333-135.509333-135.509333z"  /></svg>