<?xml version="1.0" standalone="no"?><!DOCTYPE svg PUBLIC "-//W3C//DTD SVG 1.1//EN" "http://www.w3.org/Graphics/SVG/1.1/DTD/svg11.dtd"><svg class="icon" width="64px" height="64.00px" viewBox="0 0 1024 1024" version="1.1" xmlns="http://www.w3.org/2000/svg"><path  d="M56.661333 988.501333c-14.165333 0-25.6-11.434667-25.6-25.6V579.584c0-14.165333 11.434667-25.6 25.6-25.6s25.6 11.434667 25.6 25.6v383.488c0 13.994667-11.434667 25.429333-25.6 25.429333z"  /><path  d="M238.08 772.949333H56.661333c-14.165333 0-25.6-11.434667-25.6-25.6s11.434667-25.6 25.6-25.6h154.112l88.234667-132.437333a25.6 25.6 0 1 1 42.666667 28.330667l-103.594667 155.306666z"  /><path  d="M728.746667 886.442667c-11.605333 0-23.210667-3.413333-33.109334-9.898667L66.389333 457.045333a25.6 25.6 0 1 1 28.330667-42.666666l629.077333 419.328c2.730667 1.877333 6.314667 1.877333 9.216 0.170666l221.184-132.608c12.117333-7.338667 27.818667-3.413333 35.157334 8.704 7.338667 12.117333 3.413333 27.818667-8.704 35.157334L759.466667 877.909333c-9.557333 5.632-20.138667 8.533333-30.72 8.533334z"  /><path  d="M704.170667 694.442667c-11.605333 0-23.04-3.413333-33.109334-10.069334L79.189333 289.792a59.613867 59.613867 0 0 1-26.453333-45.568c-1.365333-18.602667 5.973333-36.352 19.968-48.810667l163.157333-145.066666a59.562667 59.562667 0 0 1 72.362667-5.290667l628.906667 411.989333c17.066667 11.093333 27.136 30.037333 26.965333 50.346667s-10.410667 39.082667-27.648 50.005333l-200.192 127.488c-9.898667 6.314667-20.992 9.557333-32.085333 9.557334zM275.456 86.698667a7.850667 7.850667 0 0 0-5.632 2.218666L106.666667 233.813333a8.874667 8.874667 0 0 0-2.901334 6.997334c0.170667 1.536 0.682667 4.437333 3.754667 6.485333L699.392 641.706667c2.901333 1.877333 6.485333 1.877333 9.386667 0.170666l200.192-127.488c3.413333-2.218667 3.925333-5.461333 3.925333-7.168 0-1.706667-0.512-4.949333-3.925333-7.168L280.234667 88.064a8.174933 8.174933 0 0 0-4.778667-1.365333z"  /></svg>