<?xml version="1.0" standalone="no"?><!DOCTYPE svg PUBLIC "-//W3C//DTD SVG 1.1//EN" "http://www.w3.org/Graphics/SVG/1.1/DTD/svg11.dtd"><svg class="icon" width="64px" height="64.00px" viewBox="0 0 1024 1024" version="1.1" xmlns="http://www.w3.org/2000/svg"><path  d="M896 809.472h-768a94.037333 94.037333 0 0 1-93.866667-93.866667V179.882667c0-51.712 42.154667-93.866667 93.866667-93.866667h768c51.712 0 93.866667 42.154667 93.866667 93.866667v535.722666c0 51.712-42.154667 93.866667-93.866667 93.866667zM128 137.216a42.666667 42.666667 0 0 0-42.666667 42.666667v535.722666a42.666667 42.666667 0 0 0 42.666667 42.666667h768a42.666667 42.666667 0 0 0 42.666667-42.666667V179.882667a42.666667 42.666667 0 0 0-42.666667-42.666667h-768zM781.312 937.984H242.688c-14.165333 0-25.6-11.434667-25.6-25.6s11.434667-25.6 25.6-25.6h538.453333c14.165333 0 25.6 11.434667 25.6 25.6s-11.434667 25.6-25.429333 25.6z"  /><path  d="M218.794667 620.202667a25.6 25.6 0 0 1-18.773334-43.008l157.696-169.642667c5.12-5.461333 12.288-8.533333 19.968-8.192 7.509333 0.341333 14.506667 4.096 19.114667 10.069333l111.957333 146.602667 278.528-273.578667a25.6 25.6 0 0 1 35.84 36.522667L523.946667 612.864a25.582933 25.582933 0 0 1-38.4-2.730667l-111.104-145.578666-137.045334 147.456c-4.949333 5.461333-11.776 8.192-18.602666 8.192z"  /></svg>