<?xml version="1.0" standalone="no"?><!DOCTYPE svg PUBLIC "-//W3C//DTD SVG 1.1//EN" "http://www.w3.org/Graphics/SVG/1.1/DTD/svg11.dtd"><svg class="icon" width="64px" height="64.00px" viewBox="0 0 1024 1024" version="1.1" xmlns="http://www.w3.org/2000/svg"><path  d="M499.541333 987.818667H187.733333a94.037333 94.037333 0 0 1-93.866666-93.866667v-768c0-51.712 42.154667-93.866667 93.866666-93.866667h648.533334c51.712 0 93.866667 42.154667 93.866666 93.866667v349.866667c0 14.165333-11.434667 25.6-25.6 25.6s-25.6-11.434667-25.6-25.6V125.952a42.666667 42.666667 0 0 0-42.666666-42.666667H187.733333a42.666667 42.666667 0 0 0-42.666666 42.666667v768a42.666667 42.666667 0 0 0 42.666666 42.666667h311.808c14.165333 0 25.6 11.434667 25.6 25.6s-11.434667 25.6-25.6 25.6z"  /><path  d="M573.098667 388.778667H314.368c-14.165333 0-25.6-11.434667-25.6-25.6s11.434667-25.6 25.6-25.6h258.730667c14.165333 0 25.6 11.434667 25.6 25.6s-11.434667 25.6-25.6 25.6zM573.098667 518.144H314.368c-14.165333 0-25.6-11.434667-25.6-25.6s11.434667-25.6 25.6-25.6h258.730667c14.165333 0 25.6 11.434667 25.6 25.6s-11.434667 25.6-25.6 25.6z"  /><path  d="M443.904 647.509333c-14.165333 0-25.6-11.434667-25.6-25.6V363.178667c0-14.165333 11.434667-25.6 25.6-25.6s25.6 11.434667 25.6 25.6v258.730666c0 14.165333-11.434667 25.6-25.6 25.6z"  /><path  d="M443.733333 377.856l-147.456-147.456c-10.069333-10.069333-10.069333-26.282667 0-36.181333s26.282667-10.069333 36.181334 0L443.733333 305.493333l111.274667-111.274666c10.069333-10.069333 26.282667-10.069333 36.181333 0s10.069333 26.282667 0 36.181333L443.733333 377.856z"  /><path  d="M949.077333 895.317333h-354.986666v-84.138666c0-28.672 23.381333-52.053333 52.053333-52.053334h58.197333c-1.194667-1.194667-2.218667-2.56-3.413333-3.584-15.189333-16.384-40.448-43.52-40.448-95.914666 0-80.896 61.269333-109.568 113.834667-109.568 52.906667 0 109.226667 28.842667 109.226666 109.568 0 50.517333-24.064 76.288-38.4 91.648-2.389333 2.56-5.290667 5.632-6.997333 7.850666h58.538667c28.672 0 52.053333 23.381333 52.053333 52.053334v84.138666z m-303.274666-51.2h252.074666v-32.938666l-78.336-0.853334c-32.938667 0-32.938667-30.037333-32.938666-51.882666 0-18.944 11.946667-31.914667 21.674666-42.154667 12.629333-13.482667 24.576-26.453333 24.576-56.832 0-14.506667 0-58.368-58.026666-58.368-28.501333 0-62.634667 10.069333-62.634667 58.368 0 32.256 14.165333 47.616 26.794667 61.098667 9.216 10.069333 19.797333 21.333333 19.797333 37.888 0 11.264 0 19.114667-1.877333 26.453333-4.096 15.530667-16.384 25.258667-32.426667 25.258667h-77.994667l-0.682666 33.962666zM923.477333 971.264h-303.786666c-14.165333 0-25.6-11.434667-25.6-25.6s11.434667-25.6 25.6-25.6h303.786666c14.165333 0 25.6 11.434667 25.6 25.6s-11.434667 25.6-25.6 25.6z"  /></svg>