<?xml version="1.0" standalone="no"?><!DOCTYPE svg PUBLIC "-//W3C//DTD SVG 1.1//EN" "http://www.w3.org/Graphics/SVG/1.1/DTD/svg11.dtd"><svg class="icon" width="64px" height="64.00px" viewBox="0 0 1024 1024" version="1.1" xmlns="http://www.w3.org/2000/svg"><path  d="M849.92 989.866667H174.08c-51.2 0-93.866667-42.666667-93.866667-93.866667V489.813333c0-13.653333 11.946667-25.6 25.6-25.6h238.933334c8.533333 0 15.36 3.413333 20.48 10.24l97.28 128h121.173333l80.213333-126.293333c5.12-6.826667 13.653333-11.946667 22.186667-11.946667h233.813333c13.653333 0 25.6 11.946667 25.6 25.6v406.186667c-1.706667 51.2-42.666667 93.866667-95.573333 93.866667zM131.413333 515.413333v380.586667c0 23.893333 18.773333 42.666667 42.666667 42.666667h677.546667c23.893333 0 42.666667-18.773333 42.666666-42.666667V515.413333H698.026667l-80.213334 126.293334c-5.12 6.826667-13.653333 11.946667-22.186666 11.946666h-146.773334c-8.533333 0-15.36-3.413333-20.48-10.24l-97.28-128H131.413333z"  /><path  d="M797.013333 491.52c-13.653333 0-25.6-11.946667-25.6-25.6V128c0-23.893333-18.773333-42.666667-42.666666-42.666667H295.253333c-23.893333 0-42.666667 18.773333-42.666666 42.666667v337.92c0 13.653333-11.946667 25.6-25.6 25.6s-25.6-11.946667-25.6-25.6V128c0-51.2 42.666667-93.866667 93.866666-93.866667h433.493334c51.2 0 93.866667 42.666667 93.866666 93.866667v337.92c0 13.653333-11.946667 25.6-25.6 25.6z"  /><path  d="M599.04 320.853333H424.96c-13.653333 0-25.6-11.946667-25.6-25.6s11.946667-25.6 25.6-25.6H597.333333c13.653333 0 25.6 11.946667 25.6 25.6s-10.24 25.6-23.893333 25.6zM599.04 406.186667H424.96c-13.653333 0-25.6-11.946667-25.6-25.6s11.946667-25.6 25.6-25.6H597.333333c13.653333 0 25.6 11.946667 25.6 25.6s-10.24 25.6-23.893333 25.6z"  /><path  d="M512 493.226667c-13.653333 0-25.6-11.946667-25.6-25.6V295.253333c0-13.653333 11.946667-25.6 25.6-25.6s25.6 11.946667 25.6 25.6v172.373334c0 13.653333-11.946667 25.6-25.6 25.6z"  /><path  d="M512 317.44l-104.106667-104.106667c-10.24-10.24-10.24-25.6 0-35.84s25.6-10.24 35.84 0l68.266667 68.266667 68.266667-68.266667c10.24-10.24 25.6-10.24 35.84 0s10.24 25.6 0 35.84L512 317.44z"  /><path  d="M698.026667 814.08H325.973333c-13.653333 0-25.6-11.946667-25.6-25.6s11.946667-25.6 25.6-25.6h372.053334c13.653333 0 25.6 11.946667 25.6 25.6s-11.946667 25.6-25.6 25.6z"  /></svg>