<?xml version="1.0" standalone="no"?><!DOCTYPE svg PUBLIC "-//W3C//DTD SVG 1.1//EN" "http://www.w3.org/Graphics/SVG/1.1/DTD/svg11.dtd"><svg class="icon" width="64px" height="64.00px" viewBox="0 0 1024 1024" version="1.1" xmlns="http://www.w3.org/2000/svg"><path  d="M654.848 823.296c-6.485333 0-13.141333-2.56-18.090667-7.509333a25.429333 25.429333 0 0 1 0-36.181334l100.864-100.864-100.864-100.864c-10.069333-10.069333-10.069333-26.282667 0-36.181333s26.282667-10.069333 36.181334 0l118.954666 118.954667c10.069333 10.069333 10.069333 26.282667 0 36.181333l-118.954666 118.954667c-4.949333 4.949333-11.605333 7.509333-18.090667 7.509333zM845.312 823.296c-6.485333 0-13.141333-2.56-18.090667-7.509333a25.429333 25.429333 0 0 1 0-36.181334l100.864-100.864-100.864-100.864c-10.069333-10.069333-10.069333-26.282667 0-36.181333s26.282667-10.069333 36.181334 0l118.954666 118.954667c10.069333 10.069333 10.069333 26.282667 0 36.181333l-118.954666 118.954667c-5.12 4.949333-11.605333 7.509333-18.090667 7.509333z"  /><path  d="M618.496 942.250667H128a94.037333 94.037333 0 0 1-93.866667-93.866667V175.616c0-51.712 42.154667-93.866667 93.866667-93.866667h768c51.712 0 93.866667 42.154667 93.866667 93.866667v288.768c0 14.165333-11.434667 25.6-25.6 25.6s-25.6-11.434667-25.6-25.6V175.616a42.666667 42.666667 0 0 0-42.666667-42.666667h-768a42.666667 42.666667 0 0 0-42.666667 42.666667v672.768a42.666667 42.666667 0 0 0 42.666667 42.666667h490.496c14.165333 0 25.6 11.434667 25.6 25.6s-11.605333 25.6-25.6 25.6z"  /><path  d="M369.152 466.261333c-7.68 0-14.848-3.413333-19.626667-9.216l-118.954666-142.848c-9.045333-10.922667-7.509333-26.965333 3.242666-36.010666 10.922667-9.045333 26.965333-7.509333 36.010667 3.242666l99.328 119.296 99.328-119.296c9.045333-10.922667 25.258667-12.288 36.010667-3.242666 10.922667 9.045333 12.288 25.258667 3.242666 36.010666l-118.954666 142.848c-4.778667 5.802667-11.946667 9.216-19.626667 9.216zM512 608.938667H226.304c-14.165333 0-25.6-11.434667-25.6-25.6s11.434667-25.6 25.6-25.6H512c14.165333 0 25.6 11.434667 25.6 25.6s-11.434667 25.6-25.6 25.6z"  /><path  d="M512 466.261333H226.304c-14.165333 0-25.6-11.434667-25.6-25.6s11.434667-25.6 25.6-25.6H512c14.165333 0 25.6 11.434667 25.6 25.6s-11.434667 25.6-25.6 25.6z"  /><path  d="M369.152 751.786667c-14.165333 0-25.6-11.434667-25.6-25.6V440.661333c0-14.165333 11.434667-25.6 25.6-25.6s25.6 11.434667 25.6 25.6v285.696c0 13.994667-11.434667 25.429333-25.6 25.429334z"  /></svg>