<?xml version="1.0" standalone="no"?><!DOCTYPE svg PUBLIC "-//W3C//DTD SVG 1.1//EN" "http://www.w3.org/Graphics/SVG/1.1/DTD/svg11.dtd"><svg class="icon" width="64px" height="64.00px" viewBox="0 0 1024 1024" version="1.1" xmlns="http://www.w3.org/2000/svg"><path  d="M566.272 265.045333h-293.546667c-14.165333 0-25.6-11.434667-25.6-25.6s11.434667-25.6 25.6-25.6h293.546667c14.165333 0 25.6 11.434667 25.6 25.6s-11.434667 25.6-25.6 25.6zM566.272 393.557333h-293.546667c-14.165333 0-25.6-11.434667-25.6-25.6s11.434667-25.6 25.6-25.6h293.546667c14.165333 0 25.6 11.434667 25.6 25.6s-11.434667 25.6-25.6 25.6zM566.272 809.642667h-293.546667c-14.165333 0-25.6-11.434667-25.6-25.6s11.434667-25.6 25.6-25.6h293.546667c14.165333 0 25.6 11.434667 25.6 25.6s-11.434667 25.6-25.6 25.6z"  /><path  d="M827.733333 989.866667h-631.466666A94.037333 94.037333 0 0 1 102.4 896v-768C102.4 76.288 144.554667 34.133333 196.266667 34.133333h631.466666C879.445333 34.133333 921.6 76.288 921.6 128v242.688c0 14.165333-11.434667 25.6-25.6 25.6s-25.6-11.434667-25.6-25.6V128A42.666667 42.666667 0 0 0 827.733333 85.333333h-631.466666A42.666667 42.666667 0 0 0 153.6 128v768a42.666667 42.666667 0 0 0 42.666667 42.666667h631.466666a42.666667 42.666667 0 0 0 42.666667-42.666667V606.72H566.101333c-14.165333 0-25.6-11.434667-25.6-25.6s11.434667-25.6 25.6-25.6H896c14.165333 0 25.6 11.434667 25.6 25.6V896c0 51.712-42.154667 93.866667-93.866667 93.866667z"  /><path  d="M660.650667 701.269333c-6.485333 0-13.141333-2.56-18.090667-7.509333l-94.549333-94.549333a25.429333 25.429333 0 0 1 0-36.181334l94.549333-94.549333c10.069333-10.069333 26.282667-10.069333 36.181333 0s10.069333 26.282667 0 36.181333l-76.458666 76.458667 76.458666 76.458667c10.069333 10.069333 10.069333 26.282667 0 36.181333-4.949333 5.12-11.605333 7.509333-18.090666 7.509333z"  /></svg>