<?xml version="1.0" standalone="no"?><!DOCTYPE svg PUBLIC "-//W3C//DTD SVG 1.1//EN" "http://www.w3.org/Graphics/SVG/1.1/DTD/svg11.dtd"><svg class="icon" width="64px" height="64.00px" viewBox="0 0 1024 1024" version="1.1" xmlns="http://www.w3.org/2000/svg"><path  d="M465.066667 923.648C227.498667 923.648 34.133333 730.282667 34.133333 492.714667S227.498667 61.781333 465.066667 61.781333 896 255.146667 896 492.714667c0 42.154667-6.144 83.968-18.090667 124.245333l-48.981333-14.677333c10.581333-35.328 16.042667-72.192 16.042667-109.397334 0-209.408-170.325333-379.733333-379.733334-379.733333S85.333333 283.306667 85.333333 492.714667s170.325333 379.733333 379.733334 379.733333c42.837333 0 84.821333-7.168 124.928-20.992l16.896 48.298667c-45.568 15.872-93.354667 23.893333-141.824 23.893333z"  /><path  d="M598.357333 462.848H331.605333c-14.165333 0-25.6-11.434667-25.6-25.6s11.434667-25.6 25.6-25.6h266.752c14.165333 0 25.6 11.434667 25.6 25.6s-11.434667 25.6-25.6 25.6zM598.357333 596.138667H331.605333c-14.165333 0-25.6-11.434667-25.6-25.6s11.434667-25.6 25.6-25.6h266.752c14.165333 0 25.6 11.434667 25.6 25.6s-11.434667 25.6-25.6 25.6z"  /><path  d="M465.237333 729.429333c-14.165333 0-25.6-11.434667-25.6-25.6V437.248c0-14.165333 11.434667-25.6 25.6-25.6s25.6 11.434667 25.6 25.6v266.752c0 13.994667-11.434667 25.429333-25.6 25.429333z"  /><path  d="M465.066667 451.072l-151.381334-151.381333a25.429333 25.429333 0 0 1 0-36.181334 25.429333 25.429333 0 0 1 36.181334 0l115.2 115.2L580.266667 263.509333a25.429333 25.429333 0 0 1 36.181333 0c10.069333 10.069333 10.069333 26.282667 0 36.181334l-151.381333 151.381333z"  /><path  d="M989.866667 962.218667H581.973333v-94.378667c0-31.232 25.429333-56.661333 56.661334-56.661333h76.117333v-2.218667c-1.706667-2.389333-5.461333-6.485333-8.362667-9.557333-17.237333-18.602667-46.250667-49.834667-46.250666-109.568 0-91.648 69.632-124.245333 129.194666-124.245334 59.904 0 123.904 32.597333 123.904 124.245334 0 57.685333-26.453333 85.845333-43.861333 104.618666-4.096 4.437333-9.728 10.410667-10.581333 12.8v3.925334h74.24c31.232 0 56.661333 25.429333 56.661333 56.661333v94.378667z m-356.693334-51.2H938.666667v-43.178667c0-3.072-2.389333-5.461333-5.461334-5.461333h-90.965333c-34.304 0-34.304-30.037333-34.304-56.32 0-20.650667 12.8-34.304 24.234667-46.421334 14.848-15.872 30.208-32.256 30.208-69.632 0-48.469333-24.405333-73.045333-72.704-73.045333-29.184 0-77.994667 9.557333-77.994667 73.045333 0 39.765333 17.237333 58.368 32.597333 74.752 10.752 11.605333 22.016 23.722667 22.016 41.301334 0 12.970667 0 22.016-2.048 30.037333-4.266667 16.213333-17.066667 26.282667-33.792 26.282667h-91.477333c-3.072 0-5.461333 2.389333-5.461333 5.461333l-0.341334 43.178667z"  /></svg>