<?xml version="1.0" standalone="no"?><!DOCTYPE svg PUBLIC "-//W3C//DTD SVG 1.1//EN" "http://www.w3.org/Graphics/SVG/1.1/DTD/svg11.dtd"><svg class="icon" width="64px" height="64.00px" viewBox="0 0 1024 1024" version="1.1" xmlns="http://www.w3.org/2000/svg"><path  d="M78.506667 332.8c-13.653333 0-25.6-11.946667-25.6-25.6V117.76c0-40.96 32.426667-73.386667 73.386666-73.386667h189.44c13.653333 0 25.6 11.946667 25.6 25.6s-11.946667 25.6-25.6 25.6H126.293333c-11.946667 0-22.186667 10.24-22.186666 22.186667V307.2c0 15.36-11.946667 25.6-25.6 25.6zM315.733333 950.613333H126.293333c-40.96 0-73.386667-32.426667-73.386666-73.386666V687.786667c0-13.653333 11.946667-25.6 25.6-25.6s25.6 11.946667 25.6 25.6v189.44c0 11.946667 10.24 22.186667 22.186666 22.186666h189.44c13.653333 0 25.6 11.946667 25.6 25.6s-11.946667 25.6-25.6 25.6zM884.053333 950.613333H694.613333c-13.653333 0-25.6-11.946667-25.6-25.6s11.946667-25.6 25.6-25.6h189.44c11.946667 0 22.186667-10.24 22.186667-22.186666V687.786667c0-13.653333 11.946667-25.6 25.6-25.6s25.6 11.946667 25.6 25.6v189.44c0 39.253333-32.426667 73.386667-73.386667 73.386666zM931.84 332.8c-13.653333 0-25.6-11.946667-25.6-25.6V117.76c0-11.946667-10.24-22.186667-22.186667-22.186667H694.613333c-13.653333 0-25.6-11.946667-25.6-25.6s11.946667-25.6 25.6-25.6h189.44c40.96 0 73.386667 32.426667 73.386667 73.386667V307.2c0 15.36-11.946667 25.6-25.6 25.6zM694.613333 759.466667H315.733333c-40.96 0-73.386667-32.426667-73.386666-73.386667V307.2c0-40.96 32.426667-73.386667 73.386666-73.386667h378.88c40.96 0 73.386667 32.426667 73.386667 73.386667v378.88c0 40.96-32.426667 73.386667-73.386667 73.386667zM315.733333 286.72c-11.946667 0-22.186667 10.24-22.186666 22.186667v378.88c0 11.946667 10.24 22.186667 22.186666 22.186666h378.88c11.946667 0 22.186667-10.24 22.186667-22.186666V307.2c0-11.946667-10.24-22.186667-22.186667-22.186667H315.733333z"  /></svg>