<?xml version="1.0" standalone="no"?><!DOCTYPE svg PUBLIC "-//W3C//DTD SVG 1.1//EN" "http://www.w3.org/Graphics/SVG/1.1/DTD/svg11.dtd"><svg class="icon" width="64px" height="64.00px" viewBox="0 0 1024 1024" version="1.1" xmlns="http://www.w3.org/2000/svg"><path  d="M512 763.733333c-201.216 0-364.885333-163.669333-364.885333-364.885333S310.784 34.133333 512 34.133333s364.885333 163.669333 364.885333 364.885334S713.216 763.733333 512 763.733333zM512 85.333333c-172.885333 0-313.685333 140.629333-313.685333 313.685334S339.114667 712.533333 512 712.533333s313.685333-140.629333 313.685333-313.685333S684.885333 85.333333 512 85.333333z"  /><path  d="M512 560.298667c-88.917333 0-161.28-72.362667-161.28-161.28s72.362667-161.28 161.28-161.28 161.28 72.362667 161.28 161.28-72.362667 161.28-161.28 161.28z m0-271.530667c-60.757333 0-110.08 49.322667-110.08 110.08s49.322667 110.08 110.08 110.08 110.08-49.322667 110.08-110.08-49.322667-110.08-110.08-110.08zM728.576 989.866667H295.424l93.354667-277.333334h245.589333L728.576 989.866667z m-361.813333-51.2h290.474666l-59.392-174.933334H425.642667L366.762667 938.666667z"  /><path  d="M783.36 989.866667H240.64c-14.165333 0-25.6-11.434667-25.6-25.6s11.434667-25.6 25.6-25.6h542.72c14.165333 0 25.6 11.434667 25.6 25.6s-11.434667 25.6-25.6 25.6z"  /></svg>