<?xml version="1.0" standalone="no"?><!DOCTYPE svg PUBLIC "-//W3C//DTD SVG 1.1//EN" "http://www.w3.org/Graphics/SVG/1.1/DTD/svg11.dtd"><svg class="icon" width="64px" height="64.00px" viewBox="0 0 1024 1024" version="1.1" xmlns="http://www.w3.org/2000/svg"><path  d="M512 876.714667c-213.674667 0-387.413333-173.738667-387.413333-387.413334V172.714667h51.2v316.586666c0 185.344 150.869333 336.213333 336.213333 336.213334s336.213333-150.869333 336.213333-336.213334V172.714667h51.2v316.586666c0 213.674667-173.738667 387.413333-387.413333 387.413334z"  /><path  d="M964.266667 198.314667h-904.533334c-14.165333 0-25.6-11.434667-25.6-25.6s11.434667-25.6 25.6-25.6h904.533334c14.165333 0 25.6 11.434667 25.6 25.6s-11.434667 25.6-25.6 25.6zM512 650.581333c-88.917333 0-161.28-72.362667-161.28-161.28s72.362667-161.28 161.28-161.28 161.28 72.362667 161.28 161.28-72.362667 161.28-161.28 161.28z m0-271.36c-60.757333 0-110.08 49.322667-110.08 110.08s49.322667 110.08 110.08 110.08 110.08-49.322667 110.08-110.08-49.322667-110.08-110.08-110.08z"  /></svg>