<?xml version="1.0" standalone="no"?><!DOCTYPE svg PUBLIC "-//W3C//DTD SVG 1.1//EN" "http://www.w3.org/Graphics/SVG/1.1/DTD/svg11.dtd"><svg class="icon" width="64px" height="64.00px" viewBox="0 0 1024 1024" version="1.1" xmlns="http://www.w3.org/2000/svg"><path  d="M544.426667 723.626667H264.533333c-11.946667 0-22.186667-8.533333-25.6-20.48l-46.08-215.04c-1.706667-10.24 1.706667-18.773333 8.533334-25.6 8.533333-6.826667 18.773333-6.826667 27.306666-3.413334l73.386667 37.546667 80.213333-112.64c5.12-6.826667 11.946667-10.24 20.48-10.24s15.36 3.413333 20.48 10.24l80.213334 112.64 73.386666-37.546667c8.533333-5.12 18.773333-3.413333 27.306667 3.413334s11.946667 15.36 8.533333 25.6l-46.08 215.04c0 11.946667-10.24 20.48-22.186666 20.48z m-259.413334-51.2h238.933334l30.72-141.653334-46.08 22.186667c-11.946667 5.12-25.6 1.706667-32.426667-8.533333L404.48 443.733333l-71.68 100.693334c-6.826667 10.24-20.48 13.653333-32.426667 8.533333L254.293333 529.066667l30.72 143.36z"  /><path  d="M201.386667 508.586667c-32.426667 0-59.733333-27.306667-59.733334-59.733334s27.306667-59.733333 59.733334-59.733333 59.733333 27.306667 59.733333 59.733333-27.306667 59.733333-59.733333 59.733334z m0-66.56c-5.12 0-8.533333 3.413333-8.533334 8.533333s3.413333 8.533333 8.533334 8.533333 8.533333-3.413333 8.533333-8.533333-3.413333-8.533333-8.533333-8.533333zM404.48 419.84c-32.426667 0-59.733333-27.306667-59.733333-59.733333s27.306667-59.733333 59.733333-59.733334 59.733333 27.306667 59.733333 59.733334-25.6 59.733333-59.733333 59.733333z m0-68.266667c-5.12 0-8.533333 3.413333-8.533333 8.533334s3.413333 8.533333 8.533333 8.533333 8.533333-3.413333 8.533333-8.533333-3.413333-8.533333-8.533333-8.533334zM607.573333 508.586667c-32.426667 0-59.733333-27.306667-59.733333-59.733334s27.306667-59.733333 59.733333-59.733333 59.733333 27.306667 59.733334 59.733333-27.306667 59.733333-59.733334 59.733334z m0-66.56c-5.12 0-8.533333 3.413333-8.533333 8.533333s3.413333 8.533333 8.533333 8.533333 8.533333-3.413333 8.533334-8.533333-3.413333-8.533333-8.533334-8.533333z"  /><path  d="M896 913.066667h-768C76.8 913.066667 34.133333 870.4 34.133333 819.2V204.8c0-51.2 42.666667-93.866667 93.866667-93.866667h768c51.2 0 93.866667 42.666667 93.866667 93.866667v614.4c0 51.2-42.666667 93.866667-93.866667 93.866667z m-768-750.933334C104.106667 162.133333 85.333333 180.906667 85.333333 204.8v614.4c0 23.893333 18.773333 42.666667 42.666667 42.666667h768c23.893333 0 42.666667-18.773333 42.666667-42.666667V204.8c0-23.893333-18.773333-42.666667-42.666667-42.666667h-768z"  /><path  d="M849.92 599.04h-153.6c-13.653333 0-25.6-11.946667-25.6-25.6s11.946667-25.6 25.6-25.6h153.6c13.653333 0 25.6 11.946667 25.6 25.6s-11.946667 25.6-25.6 25.6z"  /><path  d="M773.12 346.453333h-76.8c-13.653333 0-25.6-11.946667-25.6-25.6s11.946667-25.6 25.6-25.6h76.8c13.653333 0 25.6 11.946667 25.6 25.6s-11.946667 25.6-25.6 25.6z"  /><path  d="M849.92 701.44h-153.6c-13.653333 0-25.6-11.946667-25.6-25.6s11.946667-25.6 25.6-25.6h153.6c13.653333 0 25.6 11.946667 25.6 25.6s-11.946667 25.6-25.6 25.6z"  /></svg>