<?xml version="1.0" standalone="no"?><!DOCTYPE svg PUBLIC "-//W3C//DTD SVG 1.1//EN" "http://www.w3.org/Graphics/SVG/1.1/DTD/svg11.dtd"><svg class="icon" width="64px" height="64.00px" viewBox="0 0 1024 1024" version="1.1" xmlns="http://www.w3.org/2000/svg"><path  d="M818.176 969.216H205.824c-50.688 0-91.818667-41.130667-91.818667-91.818667V414.549333c0-14.165333 11.434667-25.6 25.6-25.6s25.6 11.434667 25.6 25.6v462.848c0 22.357333 18.261333 40.618667 40.618667 40.618667h612.352c22.357333 0 40.618667-18.261333 40.618667-40.618667v-102.741333c0-14.165333 11.434667-25.6 25.6-25.6s25.6 11.434667 25.6 25.6v102.741333c0 50.688-41.301333 91.818667-91.818667 91.818667zM884.394667 577.194667c-14.165333 0-25.6-11.434667-25.6-25.6v-137.045334c0-14.165333 11.434667-25.6 25.6-25.6s25.6 11.434667 25.6 25.6v137.045334c0 14.165333-11.605333 25.6-25.6 25.6z"  /><path  d="M888.661333 688.298667H604.842667c-14.165333 0-25.6-11.434667-25.6-25.6s11.434667-25.6 25.6-25.6h283.818666c14.165333 0 25.6 11.434667 25.6 25.6s-11.434667 25.6-25.6 25.6z"  /><path  d="M699.562667 783.018667c-6.485333 0-13.141333-2.56-18.090667-7.509334l-94.549333-94.549333a25.429333 25.429333 0 0 1 0-36.181333l94.549333-94.549334a25.429333 25.429333 0 0 1 36.181333 0c10.069333 10.069333 10.069333 26.282667 0 36.181334l-76.458666 76.458666 76.458666 76.458667c10.069333 10.069333 10.069333 26.282667 0 36.181333-5.12 4.949333-11.605333 7.509333-18.090666 7.509334zM964.266667 508.928c-6.485333 0-13.141333-2.56-18.090667-7.509333L590.165333 145.408a110.830933 110.830933 0 0 0-156.330666 0L77.824 501.418667c-10.069333 10.069333-26.282667 10.069333-36.181333 0s-10.069333-26.282667 0-36.181334L397.653333 109.226667c30.549333-30.549333 71.168-47.274667 114.346667-47.274667s83.797333 16.896 114.346667 47.274667l356.010666 356.010666c10.069333 10.069333 10.069333 26.282667 0 36.181334-4.949333 5.12-11.605333 7.509333-18.090666 7.509333z"  /><path  d="M414.037333 601.258667h-93.354666c-32.938667 0-59.733333-26.794667-59.733334-59.733334v-93.184c0-32.938667 26.794667-59.733333 59.733334-59.733333h93.354666c32.938667 0 59.733333 26.794667 59.733334 59.733333v93.184c0 32.938667-26.965333 59.733333-59.733334 59.733334z m-93.354666-161.450667c-4.778667 0-8.533333 3.754667-8.533334 8.533333v93.184c0 4.778667 3.754667 8.533333 8.533334 8.533334h93.354666c4.778667 0 8.533333-3.754667 8.533334-8.533334v-93.184c0-4.778667-3.754667-8.533333-8.533334-8.533333h-93.354666z"  /><path  d="M414.037333 863.744h-93.354666c-32.938667 0-59.733333-26.794667-59.733334-59.733333v-93.354667c0-32.938667 26.794667-59.733333 59.733334-59.733333h93.354666c32.938667 0 59.733333 26.794667 59.733334 59.733333v93.354667c0 32.938667-26.965333 59.733333-59.733334 59.733333z m-93.354666-161.621333c-4.778667 0-8.533333 3.754667-8.533334 8.533333v93.354667c0 4.778667 3.754667 8.533333 8.533334 8.533333h93.354666c4.778667 0 8.533333-3.754667 8.533334-8.533333v-93.354667c0-4.778667-3.754667-8.533333-8.533334-8.533333h-93.354666z"  /></svg>