<?xml version="1.0" standalone="no"?><!DOCTYPE svg PUBLIC "-//W3C//DTD SVG 1.1//EN" "http://www.w3.org/Graphics/SVG/1.1/DTD/svg11.dtd"><svg class="icon" width="64px" height="64.00px" viewBox="0 0 1024 1024" version="1.1" xmlns="http://www.w3.org/2000/svg"><path  d="M484.181333 989.866667H190.805333C141.994667 989.866667 102.4 947.712 102.4 896v-768C102.4 76.288 141.994667 34.133333 190.805333 34.133333h642.389334C882.005333 34.133333 921.6 76.288 921.6 128v323.925333c0 14.165333-11.434667 25.6-25.6 25.6s-25.6-11.434667-25.6-25.6V128c0-23.552-16.725333-42.666667-37.205333-42.666667H190.805333C170.325333 85.333333 153.6 104.448 153.6 128v768c0 23.552 16.725333 42.666667 37.205333 42.666667h293.376c14.165333 0 25.6 11.434667 25.6 25.6s-11.434667 25.6-25.6 25.6z"  /><path  d="M676.352 278.528H244.736c-14.165333 0-25.6-11.434667-25.6-25.6s11.434667-25.6 25.6-25.6h431.616c14.165333 0 25.6 11.434667 25.6 25.6s-11.605333 25.6-25.6 25.6zM676.352 448H244.736c-14.165333 0-25.6-11.434667-25.6-25.6s11.434667-25.6 25.6-25.6h431.616c14.165333 0 25.6 11.434667 25.6 25.6s-11.605333 25.6-25.6 25.6zM390.997333 617.472h-146.261333c-14.165333 0-25.6-11.434667-25.6-25.6s11.434667-25.6 25.6-25.6h146.261333c14.165333 0 25.6 11.434667 25.6 25.6s-11.434667 25.6-25.6 25.6z"  /><path  d="M747.008 735.061333c-7.68 0-14.848-3.413333-19.626667-9.216l-104.277333-125.098666c-9.045333-10.922667-7.509333-26.965333 3.242667-36.010667s26.965333-7.509333 36.010666 3.242667l84.650667 101.546666 84.650667-101.546666c9.045333-10.922667 25.258667-12.288 36.010666-3.242667 10.922667 9.045333 12.288 25.258667 3.242667 36.010667l-104.277333 125.098666c-4.778667 5.802667-11.946667 9.216-19.626667 9.216zM872.106667 860.16H621.909333c-14.165333 0-25.6-11.434667-25.6-25.6s11.434667-25.6 25.6-25.6H872.106667c14.165333 0 25.6 11.434667 25.6 25.6s-11.434667 25.6-25.6 25.6z"  /><path  d="M872.106667 735.061333H621.909333c-14.165333 0-25.6-11.434667-25.6-25.6s11.434667-25.6 25.6-25.6H872.106667c14.165333 0 25.6 11.434667 25.6 25.6s-11.434667 25.6-25.6 25.6z"  /><path  d="M747.008 985.429333c-14.165333 0-25.6-11.434667-25.6-25.6V709.461333c0-14.165333 11.434667-25.6 25.6-25.6s25.6 11.434667 25.6 25.6v250.368c0 14.165333-11.434667 25.6-25.6 25.6z"  /></svg>