<?xml version="1.0" standalone="no"?><!DOCTYPE svg PUBLIC "-//W3C//DTD SVG 1.1//EN" "http://www.w3.org/Graphics/SVG/1.1/DTD/svg11.dtd"><svg class="icon" width="64px" height="64.00px" viewBox="0 0 1024 1024" version="1.1" xmlns="http://www.w3.org/2000/svg"><path  d="M601.941333 989.866667H187.733333a94.037333 94.037333 0 0 1-93.866666-93.866667v-768C93.866667 76.288 136.021333 34.133333 187.733333 34.133333h648.533334c51.712 0 93.866667 42.154667 93.866666 93.866667V494.933333c0 14.165333-11.434667 25.6-25.6 25.6s-25.6-11.434667-25.6-25.6V128A42.666667 42.666667 0 0 0 836.266667 85.333333H187.733333a42.666667 42.666667 0 0 0-42.666666 42.666667v768A42.666667 42.666667 0 0 0 187.733333 938.666667h414.208c14.165333 0 25.6 11.434667 25.6 25.6s-11.434667 25.6-25.6 25.6z"  /><path  d="M895.146667 774.656H679.594667c-14.165333 0-25.6-11.434667-25.6-25.6s11.434667-25.6 25.6-25.6h215.552c14.165333 0 25.6 11.434667 25.6 25.6s-11.434667 25.6-25.6 25.6zM895.146667 882.517333H679.594667c-14.165333 0-25.6-11.434667-25.6-25.6s11.434667-25.6 25.6-25.6h215.552c14.165333 0 25.6 11.434667 25.6 25.6s-11.434667 25.6-25.6 25.6z"  /><path  d="M787.456 990.208c-14.165333 0-25.6-11.434667-25.6-25.6V749.056c0-14.165333 11.434667-25.6 25.6-25.6s25.6 11.434667 25.6 25.6v215.552c0 14.165333-11.434667 25.6-25.6 25.6z"  /><path  d="M787.285333 767.317333l-125.952-125.952c-10.069333-10.069333-10.069333-26.282667 0-36.181333s26.282667-10.069333 36.181334 0l89.6 89.6 89.770666-89.6c10.069333-10.069333 26.282667-10.069333 36.181334 0s10.069333 26.282667 0 36.181333l-125.781334 125.952z"  /><path  d="M417.792 586.069333c-10.922667 0-22.016-3.925333-30.549333-11.776l-110.762667-100.693333a25.634133 25.634133 0 0 1 34.474667-37.888l106.837333 97.109333 295.253333-273.92a25.6 25.6 0 0 1 34.816 37.546667L448.682667 573.952c-8.704 8.021333-19.797333 12.117333-30.890667 12.117333z"  /></svg>