<?xml version="1.0" standalone="no"?><!DOCTYPE svg PUBLIC "-//W3C//DTD SVG 1.1//EN" "http://www.w3.org/Graphics/SVG/1.1/DTD/svg11.dtd"><svg class="icon" width="64px" height="64.00px" viewBox="0 0 1024 1024" version="1.1" xmlns="http://www.w3.org/2000/svg"><path  d="M432.128 989.866667H128A94.037333 94.037333 0 0 1 34.133333 896v-768C34.133333 76.288 76.288 34.133333 128 34.133333h768C947.712 34.133333 989.866667 76.288 989.866667 128v544.938667c0 14.165333-11.434667 25.6-25.6 25.6s-25.6-11.434667-25.6-25.6V128A42.666667 42.666667 0 0 0 896 85.333333h-768A42.666667 42.666667 0 0 0 85.333333 128v768A42.666667 42.666667 0 0 0 128 938.666667h304.128c14.165333 0 25.6 11.434667 25.6 25.6s-11.434667 25.6-25.6 25.6z"  /><path  d="M703.146667 840.533333m-42.666667 0a42.666667 42.666667 0 1 0 85.333333 0 42.666667 42.666667 0 1 0-85.333333 0Z"  /><path  d="M703.146667 968.533333c-139.946667 0-250.538667-105.130667-255.317334-109.568-4.949333-4.778667-7.850667-11.434667-7.850666-18.432s2.901333-13.653333 7.850666-18.432c4.608-4.437333 115.370667-109.568 255.317334-109.568s250.538667 105.130667 255.317333 109.568c4.949333 4.778667 7.850667 11.434667 7.850667 18.432s-2.901333 13.653333-7.850667 18.432c-4.778667 4.437333-115.541333 109.568-255.317333 109.568z m-197.802667-128c36.010667 27.648 111.786667 76.8 197.632 76.8s161.621333-49.152 197.632-76.8c-36.010667-27.648-111.786667-76.8-197.632-76.8s-161.621333 49.152-197.632 76.8z"  /><path  d="M506.026667 560.298667h-1.877334c-7.338667-0.512-13.994667-4.096-18.602666-10.069334l-111.104-145.578666-137.045334 147.456a25.6 25.6 0 0 1-37.546666-34.816l157.696-169.642667c5.12-5.461333 12.629333-8.533333 19.968-8.192 7.509333 0.341333 14.506667 4.096 19.114666 10.069333l111.957334 146.602667 278.528-273.578667a25.6 25.6 0 0 1 35.84 36.522667L523.946667 552.96c-4.778667 4.608-11.264 7.338667-17.92 7.338667z"  /></svg>