<?xml version="1.0" standalone="no"?><!DOCTYPE svg PUBLIC "-//W3C//DTD SVG 1.1//EN" "http://www.w3.org/Graphics/SVG/1.1/DTD/svg11.dtd"><svg class="icon" width="64px" height="64.00px" viewBox="0 0 1024 1024" version="1.1" xmlns="http://www.w3.org/2000/svg"><path  d="M896.341333 797.696H127.488C76.117333 797.696 34.133333 755.712 34.133333 704.170667V161.450667c0-51.541333 41.984-93.354667 93.354667-93.354667h768.853333c51.541333 0 93.525333 41.984 93.525334 93.354667v542.72c0 51.541333-41.984 93.525333-93.525334 93.525333zM127.488 119.296C104.277333 119.296 85.333333 138.24 85.333333 161.450667v542.72c0 23.381333 18.944 42.325333 42.154667 42.325333h768.853333A42.325333 42.325333 0 0 0 938.666667 704.170667V161.450667c0-23.210667-18.944-42.154667-42.325334-42.154667H127.488z"  /><path  d="M512 955.904c-14.165333 0-25.6-11.434667-25.6-25.6v-158.208c0-14.165333 11.434667-25.6 25.6-25.6s25.6 11.434667 25.6 25.6v158.208c0 14.165333-11.434667 25.6-25.6 25.6z"  /><path  d="M828.586667 955.904h-633.173334c-14.165333 0-25.6-11.434667-25.6-25.6s11.434667-25.6 25.6-25.6h633.173334c14.165333 0 25.6 11.434667 25.6 25.6s-11.434667 25.6-25.6 25.6z"  /><path  d="M512 401.408c-7.68 0-14.848-3.413333-19.626667-9.216l-104.277333-125.098667c-9.045333-10.922667-7.509333-26.965333 3.242667-36.010666s26.965333-7.509333 36.010666 3.242666L512 335.872l84.650667-101.546667c9.045333-10.922667 25.088-12.288 36.010666-3.242666 10.922667 9.045333 12.288 25.258667 3.242667 36.010666l-104.277333 125.098667c-4.778667 5.802667-11.946667 9.216-19.626667 9.216zM637.098667 526.506667H386.901333c-14.165333 0-25.6-11.434667-25.6-25.6s11.434667-25.6 25.6-25.6h250.368c14.165333 0 25.6 11.434667 25.6 25.6s-11.605333 25.6-25.770666 25.6z"  /><path  d="M637.098667 401.408H386.901333c-14.165333 0-25.6-11.434667-25.6-25.6s11.434667-25.6 25.6-25.6h250.368c14.165333 0 25.6 11.434667 25.6 25.6s-11.605333 25.6-25.770666 25.6z"  /><path  d="M512 651.776c-14.165333 0-25.6-11.434667-25.6-25.6V375.808c0-14.165333 11.434667-25.6 25.6-25.6s25.6 11.434667 25.6 25.6v250.368c0 14.165333-11.434667 25.6-25.6 25.6z"  /></svg>