<?xml version="1.0" standalone="no"?><!DOCTYPE svg PUBLIC "-//W3C//DTD SVG 1.1//EN" "http://www.w3.org/Graphics/SVG/1.1/DTD/svg11.dtd"><svg class="icon" width="64px" height="64.00px" viewBox="0 0 1024 1024" version="1.1" xmlns="http://www.w3.org/2000/svg"><path  d="M972.8 940.373333H645.12v-78.506666c0-27.306667 22.186667-49.493333 49.493333-49.493334h47.786667c-13.653333-15.36-37.546667-40.96-37.546667-88.746666 0-75.093333 56.32-102.4 105.813334-102.4 49.493333 0 102.4 27.306667 102.4 102.4 0 47.786667-22.186667 71.68-35.84 85.333333l-3.413334 3.413333H921.6c27.306667 0 49.493333 22.186667 49.493333 49.493334v78.506666z m-276.48-51.2H921.6v-25.6h-69.973333c-32.426667 0-32.426667-29.013333-32.426667-49.493333 0-18.773333 11.946667-30.72 20.48-39.253333 11.946667-11.946667 22.186667-23.893333 22.186667-49.493334 0-11.946667 0-51.2-51.2-51.2-25.6 0-54.613333 8.533333-54.613334 51.2 0 29.013333 11.946667 40.96 23.893334 54.613334 8.533333 10.24 18.773333 20.48 18.773333 35.84 0 10.24 0 17.066667-1.706667 25.6-3.413333 15.36-15.36 25.6-32.426666 25.6h-69.973334l1.706667 22.186666z"  /><path  d="M462.506667 940.373333C225.28 940.373333 34.133333 747.52 34.133333 512S225.28 83.626667 462.506667 83.626667s426.666667 192.853333 426.666666 428.373333c0 49.493333-8.533333 97.28-23.893333 143.36-5.12 13.653333-18.773333 20.48-32.426667 15.36-13.653333-5.12-20.48-18.773333-15.36-32.426667 13.653333-40.96 22.186667-81.92 22.186667-126.293333 0-208.213333-168.96-377.173333-377.173333-377.173333S85.333333 303.786667 85.333333 512s168.96 377.173333 377.173334 377.173333c69.973333 0 136.533333-18.773333 196.266666-54.613333 11.946667-6.826667 27.306667-3.413333 35.84 8.533333 6.826667 11.946667 3.413333 27.306667-8.533333 35.84-68.266667 39.253333-145.066667 61.44-223.573333 61.44z"  /><path  d="M462.506667 489.813333l-128-128c-10.24-10.24-10.24-25.6 0-35.84s25.6-10.24 35.84 0l90.453333 90.453334 90.453333-90.453334c10.24-10.24 25.6-10.24 35.84 0s10.24 25.6 0 35.84l-124.586666 128z"  /><path  d="M588.8 505.173333H334.506667c-13.653333 0-25.6-11.946667-25.6-25.6s11.946667-25.6 25.6-25.6h254.293333c13.653333 0 25.6 11.946667 25.6 25.6s-10.24 25.6-25.6 25.6zM588.8 614.4H334.506667c-13.653333 0-25.6-11.946667-25.6-25.6s11.946667-25.6 25.6-25.6h254.293333c13.653333 0 25.6 11.946667 25.6 25.6s-10.24 25.6-25.6 25.6z"  /><path  d="M462.506667 704.853333c-13.653333 0-25.6-11.946667-25.6-25.6V479.573333c0-13.653333 11.946667-25.6 25.6-25.6s25.6 11.946667 25.6 25.6v199.68c0 13.653333-11.946667 25.6-25.6 25.6z"  /></svg>