<?xml version="1.0" standalone="no"?><!DOCTYPE svg PUBLIC "-//W3C//DTD SVG 1.1//EN" "http://www.w3.org/Graphics/SVG/1.1/DTD/svg11.dtd"><svg class="icon" width="64px" height="64.00px" viewBox="0 0 1024 1024" version="1.1" xmlns="http://www.w3.org/2000/svg"><path  d="M512 643.413333c-6.826667 0-15.36-3.413333-20.48-8.533333l-213.333333-256c-8.533333-8.533333-8.533333-22.186667 0-32.426667l85.333333-105.813333c5.12-6.826667 11.946667-10.24 20.48-10.24h256c8.533333 0 15.36 3.413333 20.48 10.24l85.333333 105.813333c6.826667 10.24 6.826667 22.186667 0 32.426667l-213.333333 256c-5.12 5.12-13.653333 8.533333-20.48 8.533333zM332.8 363.52L512 578.56l179.2-215.04-64.853333-80.213333H395.946667l-63.146667 80.213333z"  /><path  d="M725.333333 389.12h-426.666666c-13.653333 0-25.6-11.946667-25.6-25.6s11.946667-25.6 25.6-25.6h424.96c13.653333 0 25.6 11.946667 25.6 25.6s-10.24 25.6-23.893334 25.6z"  /><path  d="M512 643.413333c-10.24 0-20.48-6.826667-23.893333-17.066666l-85.333334-256c-5.12-13.653333 3.413333-27.306667 15.36-32.426667 13.653333-5.12 27.306667 3.413333 32.426667 15.36l85.333333 256c5.12 13.653333-3.413333 27.306667-15.36 32.426667-3.413333 1.706667-5.12 1.706667-8.533333 1.706666z"  /><path  d="M512 643.413333c-3.413333 0-5.12 0-8.533333-1.706666-13.653333-5.12-20.48-18.773333-15.36-32.426667l85.333333-256c5.12-13.653333 18.773333-20.48 32.426667-15.36 13.653333 5.12 20.48 18.773333 15.36 32.426667l-85.333334 256c-3.413333 10.24-13.653333 17.066667-23.893333 17.066666z"  /><path  d="M512 643.413333c-6.826667 0-15.36-3.413333-20.48-8.533333l-213.333333-256c-8.533333-8.533333-8.533333-22.186667 0-32.426667l42.666666-52.906666c8.533333-10.24 25.6-13.653333 35.84-3.413334 10.24 8.533333 13.653333 25.6 3.413334 35.84l-29.013334 37.546667L512 578.56l179.2-215.04-29.013333-37.546667c-8.533333-10.24-6.826667-27.306667 3.413333-35.84 10.24-8.533333 27.306667-6.826667 35.84 3.413334l42.666667 52.906666c6.826667 10.24 6.826667 23.893333 0 32.426667l-213.333334 256c-3.413333 5.12-11.946667 8.533333-18.773333 8.533333z"  /><path  d="M836.266667 989.866667H187.733333c-51.2 0-93.866667-42.666667-93.866666-93.866667v-768C93.866667 76.8 136.533333 34.133333 187.733333 34.133333h648.533334c51.2 0 93.866667 42.666667 93.866666 93.866667v768c0 51.2-42.666667 93.866667-93.866666 93.866667zM187.733333 85.333333C163.84 85.333333 145.066667 104.106667 145.066667 128v768c0 23.893333 18.773333 42.666667 42.666666 42.666667h648.533334c23.893333 0 42.666667-18.773333 42.666666-42.666667v-768C878.933333 104.106667 860.16 85.333333 836.266667 85.333333H187.733333z"  /><path  d="M706.56 773.12H317.44c-13.653333 0-25.6-11.946667-25.6-25.6s11.946667-25.6 25.6-25.6h389.12c13.653333 0 25.6 11.946667 25.6 25.6s-11.946667 25.6-25.6 25.6z"  /></svg>