<?xml version="1.0" standalone="no"?><!DOCTYPE svg PUBLIC "-//W3C//DTD SVG 1.1//EN" "http://www.w3.org/Graphics/SVG/1.1/DTD/svg11.dtd"><svg class="icon" width="64px" height="64.00px" viewBox="0 0 1024 1024" version="1.1" xmlns="http://www.w3.org/2000/svg"><path  d="M888.832 989.866667H135.168A101.034667 101.034667 0 0 1 34.133333 888.832V135.168A101.034667 101.034667 0 0 1 135.168 34.133333h753.834667C944.64 34.133333 989.866667 79.36 989.866667 135.168v122.538667c0 14.165333-11.434667 25.6-25.6 25.6s-25.6-11.434667-25.6-25.6V135.168C938.666667 107.690667 916.309333 85.333333 888.832 85.333333H135.168C107.690667 85.333333 85.333333 107.690667 85.333333 135.168v753.834667C85.333333 916.309333 107.690667 938.666667 135.168 938.666667h753.834667c27.477333 0 49.834667-22.357333 49.834666-49.834667v-108.373333c0-14.165333 11.434667-25.6 25.6-25.6s25.6 11.434667 25.6 25.6v108.373333A101.2736 101.2736 0 0 1 888.832 989.866667z"  /><path  d="M964.266667 537.6H512c-14.165333 0-25.6-11.434667-25.6-25.6s11.434667-25.6 25.6-25.6h452.266667c14.165333 0 25.6 11.434667 25.6 25.6s-11.434667 25.6-25.6 25.6z"  /><path  d="M662.698667 688.298667c-6.485333 0-13.141333-2.56-18.090667-7.509334l-150.698667-150.698666a25.429333 25.429333 0 0 1 0-36.181334l150.698667-150.698666c10.069333-10.069333 26.282667-10.069333 36.181333 0s10.069333 26.282667 0 36.181333L548.181333 512l132.608 132.608c10.069333 10.069333 10.069333 26.282667 0 36.181333-4.949333 5.12-11.434667 7.509333-18.090666 7.509334z"  /></svg>