<?xml version="1.0" standalone="no"?><!DOCTYPE svg PUBLIC "-//W3C//DTD SVG 1.1//EN" "http://www.w3.org/Graphics/SVG/1.1/DTD/svg11.dtd"><svg class="icon" width="64px" height="64.00px" viewBox="0 0 1024 1024" version="1.1" xmlns="http://www.w3.org/2000/svg"><path  d="M213.333333 960.853333c-13.653333 0-25.6-11.946667-25.6-25.6v-512c0-8.533333 3.413333-15.36 10.24-20.48l213.333334-150.186666c11.946667-8.533333 27.306667-5.12 35.84 6.826666s5.12 27.306667-6.826667 35.84L238.933333 435.2v498.346667c0 15.36-11.946667 27.306667-25.6 27.306666z"  /><path  d="M788.48 960.853333H426.666667c-13.653333 0-25.6-11.946667-25.6-25.6v-853.333333c0-10.24 5.12-18.773333 13.653333-22.186667 8.533333-5.12 18.773333-3.413333 27.306667 1.706667l213.333333 150.186667c6.826667 5.12 10.24 11.946667 10.24 20.48V494.933333l138.24 98.986667c6.826667 5.12 10.24 11.946667 10.24 20.48v320.853333c0 13.653333-10.24 25.6-25.6 25.6z m-336.213333-51.2h312.32V628.053333L624.64 529.066667c-6.826667-5.12-10.24-11.946667-10.24-20.48V244.053333l-162.133333-114.346666v779.946666z"  /><path  d="M916.48 960.853333h-853.333333c-13.653333 0-25.6-11.946667-25.6-25.6s11.946667-25.6 25.6-25.6h853.333333c13.653333 0 25.6 11.946667 25.6 25.6s-10.24 25.6-25.6 25.6z"  /></svg>