<?xml version="1.0" standalone="no"?><!DOCTYPE svg PUBLIC "-//W3C//DTD SVG 1.1//EN" "http://www.w3.org/Graphics/SVG/1.1/DTD/svg11.dtd"><svg class="icon" width="64px" height="64.00px" viewBox="0 0 1024 1024" version="1.1" xmlns="http://www.w3.org/2000/svg"><path d="M0 0h1024v1024H0z" fill="#EAEAEA" opacity=".12" /><path d="M738.986667 964.266667H266.24c-13.653333 0-25.6-11.946667-25.6-25.6V559.786667c0-145.066667 117.76-262.826667 262.826667-262.826667s262.826667 117.76 262.826666 262.826667V938.666667c-1.706667 13.653333-11.946667 25.6-27.306666 25.6z m-447.146667-51.2h423.253333V559.786667c0-116.053333-95.573333-211.626667-211.626666-211.626667-116.053333 0-211.626667 95.573333-211.626667 211.626667v353.28zM503.466667 182.613333c-13.653333 0-25.6-11.946667-25.6-25.6V85.333333c0-13.653333 11.946667-25.6 25.6-25.6S529.066667 71.68 529.066667 85.333333v71.68c0 13.653333-11.946667 25.6-25.6 25.6zM738.986667 267.946667c-5.12 0-11.946667-1.706667-17.066667-6.826667-10.24-8.533333-11.946667-25.6-3.413333-35.84l46.08-54.613333c8.533333-10.24 25.6-11.946667 35.84-3.413334 10.24 8.533333 11.946667 25.6 3.413333 35.84l-46.08 54.613334c-5.12 6.826667-11.946667 10.24-18.773333 10.24zM865.28 486.4c-11.946667 0-22.186667-8.533333-25.6-20.48-1.706667-13.653333 6.826667-27.306667 20.48-29.013333l69.973333-11.946667c13.653333-1.706667 27.306667 6.826667 29.013334 20.48 1.706667 13.653333-6.826667 27.306667-20.48 29.013333l-69.973334 11.946667c-1.706667-1.706667-3.413333 0-3.413333 0zM141.653333 486.4H136.533333l-69.973333-11.946667c-13.653333-1.706667-23.893333-15.36-20.48-29.013333 1.706667-13.653333 15.36-23.893333 29.013333-20.48l69.973334 11.946667c13.653333 1.706667 23.893333 15.36 20.48 29.013333-1.706667 10.24-11.946667 20.48-23.893334 20.48zM266.24 267.946667c-6.826667 0-15.36-3.413333-18.773333-8.533334L201.386667 204.8c-8.533333-10.24-6.826667-27.306667 3.413333-35.84 10.24-8.533333 27.306667-6.826667 35.84 3.413333l46.08 54.613334c8.533333 10.24 6.826667 27.306667-3.413333 35.84-5.12 3.413333-10.24 5.12-17.066667 5.12z" fill="#333333" /><path d="M952.32 964.266667H76.8c-15.36 0-25.6-11.946667-25.6-25.6s11.946667-25.6 25.6-25.6h877.226667c13.653333 0 25.6 11.946667 25.6 25.6s-11.946667 25.6-27.306667 25.6z" fill="#333333" /></svg>