<?xml version="1.0" standalone="no"?><!DOCTYPE svg PUBLIC "-//W3C//DTD SVG 1.1//EN" "http://www.w3.org/Graphics/SVG/1.1/DTD/svg11.dtd"><svg class="icon" width="64px" height="64.00px" viewBox="0 0 1024 1024" version="1.1" xmlns="http://www.w3.org/2000/svg"><path  d="M759.466667 989.866667h-494.933334c-78.506667 0-141.653333-63.146667-141.653333-141.653334V175.786667c0-78.506667 63.146667-141.653333 141.653333-141.653334h494.933334c78.506667 0 141.653333 63.146667 141.653333 141.653334v670.72c0 80.213333-63.146667 143.36-141.653333 143.36z m-494.933334-904.533334c-49.493333 0-90.453333 40.96-90.453333 90.453334v670.72c0 49.493333 40.96 90.453333 90.453333 90.453333h494.933334c49.493333 0 90.453333-40.96 90.453333-90.453333V175.786667c0-49.493333-40.96-90.453333-90.453333-90.453334h-494.933334z"  /><path  d="M747.52 756.053333H295.253333c-13.653333 0-25.6-11.946667-25.6-25.6s11.946667-25.6 25.6-25.6h450.56c13.653333 0 25.6 11.946667 25.6 25.6s-10.24 25.6-23.893333 25.6zM501.76 576.853333H295.253333c-13.653333 0-25.6-11.946667-25.6-25.6s11.946667-25.6 25.6-25.6h206.506667c13.653333 0 25.6 11.946667 25.6 25.6s-11.946667 25.6-25.6 25.6zM331.093333 486.4c-20.48-5.12-27.306667-15.36-20.48-32.426667l117.76-274.773333c6.826667-15.36 20.48-22.186667 40.96-22.186667h15.36c20.48 0 34.133333 6.826667 40.96 22.186667l117.76 273.066667c6.826667 17.066667 0 29.013333-22.186666 34.133333-22.186667 5.12-35.84 0-42.666667-18.773333l-27.306667-71.68c1.706667-1.706667-1.706667-3.413333-5.12-3.413334h-136.533333c-3.413333 0-6.826667 1.706667-6.826667 3.413334L375.466667 467.626667c-8.533333 18.773333-22.186667 23.893333-44.373334 18.773333z m88.746667-136.533333c0 1.706667 0 1.706667 1.706667 1.706666h110.933333c1.706667 0 3.413333 0 1.706667-1.706666l-54.613334-148.48c-1.706667-3.413333-1.706667-3.413333-3.413333-3.413334s-1.706667 1.706667-3.413333 3.413334c-10.24 30.72-22.186667 64.853333-39.253334 105.813333l-13.653333 42.666667zM669.013333 286.72c-11.946667 0-18.773333-8.533333-18.773333-23.893333v-35.84c0-1.706667 0-1.706667-1.706667-1.706667h-32.426666c-17.066667 0-23.893333-6.826667-23.893334-18.773333 0-11.946667 8.533333-18.773333 23.893334-18.773334H648.533333c1.706667 0 1.706667 0 1.706667-1.706666v-34.133334c0-17.066667 6.826667-23.893333 18.773333-23.893333 11.946667 0 18.773333 8.533333 18.773334 23.893333V187.733333c0 1.706667 0 1.706667 1.706666 1.706667h32.426667c17.066667 0 23.893333 6.826667 23.893333 18.773333 0 11.946667-8.533333 18.773333-23.893333 18.773334h-32.426667c-1.706667 0-1.706667 0-1.706666 1.706666v35.84c0 13.653333-5.12 22.186667-18.773334 22.186667z"  /></svg>