<?xml version="1.0" standalone="no"?><!DOCTYPE svg PUBLIC "-//W3C//DTD SVG 1.1//EN" "http://www.w3.org/Graphics/SVG/1.1/DTD/svg11.dtd"><svg class="icon" width="64px" height="64.00px" viewBox="0 0 1024 1024" version="1.1" xmlns="http://www.w3.org/2000/svg"><path  d="M360.106667 981.333333H114.346667c-39.253333 0-69.973333-32.426667-69.973334-69.973333V104.106667C42.666667 66.56 75.093333 34.133333 114.346667 34.133333h626.346666c39.253333 0 69.973333 32.426667 69.973334 69.973334v250.88c0 13.653333-11.946667 25.6-25.6 25.6s-25.6-11.946667-25.6-25.6V104.106667c0-10.24-8.533333-18.773333-18.773334-18.773334H114.346667c-11.946667 0-20.48 8.533333-20.48 18.773334v805.546666c0 10.24 8.533333 18.773333 18.773333 18.773334H358.4c13.653333 0 25.6 11.946667 25.6 25.6s-10.24 27.306667-23.893333 27.306666z"  /><path  d="M559.786667 561.493333H298.666667c-13.653333 0-25.6-11.946667-25.6-25.6s11.946667-25.6 25.6-25.6h261.12c13.653333 0 25.6 11.946667 25.6 25.6s-10.24 25.6-25.6 25.6zM476.16 701.44H298.666667c-13.653333 0-25.6-11.946667-25.6-25.6s11.946667-25.6 25.6-25.6h177.493333c13.653333 0 25.6 11.946667 25.6 25.6s-11.946667 25.6-25.6 25.6zM438.613333 841.386667h-139.946666c-13.653333 0-25.6-11.946667-25.6-25.6s11.946667-25.6 25.6-25.6h139.946666c13.653333 0 25.6 11.946667 25.6 25.6s-10.24 25.6-25.6 25.6zM211.626667 561.493333h-10.24c-13.653333 0-25.6-11.946667-25.6-25.6s11.946667-25.6 25.6-25.6h10.24c13.653333 0 25.6 11.946667 25.6 25.6s-10.24 25.6-25.6 25.6zM211.626667 701.44h-10.24c-13.653333 0-25.6-11.946667-25.6-25.6s11.946667-25.6 25.6-25.6h10.24c13.653333 0 25.6 11.946667 25.6 25.6s-10.24 25.6-25.6 25.6zM211.626667 841.386667h-10.24c-13.653333 0-25.6-11.946667-25.6-25.6s11.946667-25.6 25.6-25.6h10.24c13.653333 0 25.6 11.946667 25.6 25.6s-10.24 25.6-25.6 25.6z"  /><path  d="M716.8 989.866667c-145.066667 0-264.533333-119.466667-264.533333-264.533334S570.026667 460.8 716.8 460.8c145.066667 0 264.533333 117.76 264.533333 264.533333 0 69.973333-27.306667 136.533333-76.8 187.733334-51.2 49.493333-117.76 76.8-187.733333 76.8z m0-477.866667c-117.76 0-213.333333 95.573333-213.333333 213.333333S599.04 938.666667 716.8 938.666667c56.32 0 110.933333-22.186667 150.186667-63.146667s63.146667-93.866667 63.146666-150.186667C930.133333 607.573333 834.56 512 716.8 512z"  /><path  d="M831.146667 793.6h-138.24c-13.653333 0-25.6-11.946667-25.6-25.6v-128c0-13.653333 11.946667-25.6 25.6-25.6s25.6 11.946667 25.6 25.6v102.4h112.64c13.653333 0 25.6 11.946667 25.6 25.6s-11.946667 25.6-25.6 25.6z"  /><path  d="M262.826667 424.96H221.866667V232.106667l-30.72 13.653333v-44.373333l29.013333-17.066667h40.96v240.64zM305.493333 413.013333c-10.24-10.24-15.36-23.893333-15.36-42.666666v-129.706667c0-18.773333 5.12-32.426667 15.36-42.666667 10.24-10.24 23.893333-15.36 40.96-15.36s30.72 5.12 40.96 15.36c10.24 10.24 15.36 23.893333 15.36 42.666667v129.706667c0 18.773333-5.12 32.426667-15.36 42.666666-10.24 10.24-23.893333 15.36-40.96 15.36s-30.72-5.12-40.96-15.36z m52.906667-30.72c3.413333-3.413333 3.413333-6.826667 3.413333-13.653333V238.933333c0-5.12-1.706667-10.24-3.413333-13.653333s-6.826667-5.12-10.24-5.12-8.533333 1.706667-10.24 5.12c-3.413333 3.413333-3.413333 6.826667-3.413333 13.653333v129.706667c0 5.12 1.706667 10.24 3.413333 13.653333 3.413333 3.413333 6.826667 5.12 10.24 5.12s6.826667-1.706667 10.24-5.12zM440.32 413.013333c-10.24-10.24-15.36-23.893333-15.36-42.666666v-129.706667c0-18.773333 5.12-32.426667 15.36-42.666667 10.24-10.24 23.893333-15.36 40.96-15.36s30.72 5.12 40.96 15.36c10.24 10.24 15.36 23.893333 15.36 42.666667v129.706667c0 18.773333-5.12 32.426667-15.36 42.666666-10.24 10.24-23.893333 15.36-40.96 15.36-18.773333 0-32.426667-5.12-40.96-15.36z m51.2-30.72c3.413333-3.413333 3.413333-6.826667 3.413333-13.653333V238.933333c0-5.12-1.706667-10.24-3.413333-13.653333s-6.826667-5.12-10.24-5.12-8.533333 1.706667-10.24 5.12c-3.413333 3.413333-3.413333 6.826667-3.413333 13.653333v129.706667c0 5.12 1.706667 10.24 3.413333 13.653333 3.413333 3.413333 6.826667 5.12 10.24 5.12s6.826667-1.706667 10.24-5.12zM571.733333 431.786667c-5.12 1.706667-8.533333 0-10.24-3.413334-1.706667-5.12 0-8.533333 5.12-10.24 3.413333-1.706667 6.826667-5.12 11.946667-10.24 3.413333-5.12 5.12-10.24 6.826667-17.066666H580.266667c-5.12 0-8.533333-1.706667-8.533334-5.12-3.413333 3.413333-6.826667 3.413333-10.24-1.706667-3.413333-5.12-3.413333-8.533333 1.706667-11.946667 0 0 3.413333-3.413333 6.826667-10.24 5.12-6.826667 8.533333-11.946667 8.533333-13.653333 1.706667-5.12 5.12-6.826667 10.24-5.12 5.12 1.706667 6.826667 5.12 5.12 10.24s-6.826667 11.946667-13.653333 22.186667h46.08c-6.826667-8.533333-11.946667-17.066667-15.36-22.186667-1.706667-5.12-1.706667-8.533333 3.413333-10.24 5.12-1.706667 8.533333 0 10.24 5.12 0 1.706667 3.413333 5.12 8.533333 11.946667 5.12 6.826667 8.533333 10.24 8.533334 10.24 5.12 3.413333 5.12 6.826667 0 11.946666-3.413333 3.413333-6.826667 5.12-8.533334 3.413334 0 13.653333-1.706667 23.893333-1.706666 29.013333 0 6.826667-1.706667 10.24-3.413334 11.946667-1.706667 3.413333-5.12 5.12-10.24 5.12h-8.533333c-5.12 0-8.533333-3.413333-8.533333-6.826667 0-5.12 3.413333-6.826667 8.533333-6.826667h3.413333l1.706667-1.706666c0-1.706667 1.706667-10.24 1.706667-25.6h-15.36-1.706667c-1.706667 10.24-3.413333 18.773333-8.533333 23.893333-5.12 10.24-11.946667 15.36-18.773334 17.066667z"  /></svg>