<?xml version="1.0" standalone="no"?><!DOCTYPE svg PUBLIC "-//W3C//DTD SVG 1.1//EN" "http://www.w3.org/Graphics/SVG/1.1/DTD/svg11.dtd"><svg class="icon" width="64px" height="64.00px" viewBox="0 0 1024 1024" version="1.1" xmlns="http://www.w3.org/2000/svg"><path  d="M737.28 989.866667H245.76C167.253333 989.866667 102.4 926.72 102.4 848.213333V175.786667C102.4 97.28 167.253333 34.133333 245.76 34.133333h532.48c78.506667 0 141.653333 63.146667 141.653333 141.653334v629.76L737.28 989.866667zM245.76 85.333333C194.56 85.333333 153.6 126.293333 153.6 175.786667v670.72c0 49.493333 40.96 90.453333 90.453333 90.453333H716.8l153.6-153.6V175.786667C870.4 126.293333 829.44 85.333333 778.24 85.333333H245.76z"  /><path  d="M728.746667 986.453333c-3.413333 0-6.826667 0-10.24-1.706666-10.24-3.413333-15.36-13.653333-15.36-23.893334v-165.546666c0-13.653333 11.946667-25.6 25.6-25.6h165.546666c10.24 0 20.48 6.826667 23.893334 15.36s1.706667 20.48-5.12 27.306666l-165.546667 165.546667c-5.12 6.826667-11.946667 8.533333-18.773333 8.533333z m25.6-165.546666v78.506666l78.506666-78.506666h-78.506666zM568.32 279.893333H252.586667c-13.653333 0-25.6-11.946667-25.6-25.6s11.946667-25.6 25.6-25.6h315.733333c13.653333 0 25.6 11.946667 25.6 25.6s-11.946667 25.6-25.6 25.6zM723.626667 331.093333c-5.12 0-10.24-1.706667-15.36-5.12l-52.906667-37.546666c-11.946667-8.533333-13.653333-23.893333-6.826667-35.84 8.533333-11.946667 23.893333-13.653333 35.84-6.826667l34.133334 23.893333 71.68-81.92c8.533333-10.24 25.6-11.946667 35.84-1.706666s11.946667 25.6 1.706666 35.84l-87.04 100.693333c-3.413333 5.12-10.24 8.533333-17.066666 8.533333z"  /><path  d="M568.32 515.413333H252.586667c-13.653333 0-25.6-11.946667-25.6-25.6s11.946667-25.6 25.6-25.6h315.733333c13.653333 0 25.6 11.946667 25.6 25.6s-11.946667 25.6-25.6 25.6zM781.653333 559.786667c-5.12 0-11.946667-1.706667-17.066666-6.826667l-102.4-88.746667c-10.24-8.533333-11.946667-25.6-3.413334-35.84s25.6-11.946667 35.84-3.413333l102.4 88.746667c10.24 8.533333 11.946667 25.6 3.413334 35.84-5.12 6.826667-11.946667 10.24-18.773334 10.24z"  /><path  d="M686.08 568.32c-5.12 0-11.946667-1.706667-15.36-5.12-10.24-8.533333-11.946667-25.6-3.413333-35.84l85.333333-105.813333c8.533333-10.24 25.6-11.946667 35.84-3.413334 10.24 8.533333 11.946667 25.6 3.413333 35.84l-85.333333 105.813334c-5.12 5.12-11.946667 8.533333-20.48 8.533333z"  /></svg>