<?xml version="1.0" standalone="no"?><!DOCTYPE svg PUBLIC "-//W3C//DTD SVG 1.1//EN" "http://www.w3.org/Graphics/SVG/1.1/DTD/svg11.dtd"><svg class="icon" width="64px" height="64.00px" viewBox="0 0 1024 1024" version="1.1" xmlns="http://www.w3.org/2000/svg"><path  d="M310.613333 619.52c-6.826667 0-13.653333-1.706667-18.773333-6.826667l-126.293333-126.293333c-10.24-10.24-10.24-25.6 0-35.84l126.293333-126.293333c10.24-10.24 25.6-10.24 35.84 0s10.24 25.6 0 35.84l-109.226667 109.226666 109.226667 109.226667c10.24 10.24 10.24 25.6 0 35.84-3.413333 3.413333-10.24 5.12-17.066667 5.12zM713.386667 619.52c-6.826667 0-13.653333-1.706667-18.773334-6.826667-10.24-10.24-10.24-25.6 0-35.84l109.226667-109.226666-109.226667-109.226667c-10.24-10.24-10.24-25.6 0-35.84s25.6-10.24 35.84 0l126.293334 126.293333c10.24 10.24 10.24 25.6 0 35.84l-126.293334 126.293334c-5.12 6.826667-10.24 8.533333-17.066666 8.533333z"  /><path  d="M471.04 619.52c-1.706667 0-5.12 0-6.826667-1.706667-13.653333-3.413333-20.48-18.773333-17.066666-32.426666l80.213333-273.066667c3.413333-13.653333 18.773333-22.186667 32.426667-17.066667 13.653333 3.413333 20.48 18.773333 17.066666 32.426667l-80.213333 273.066667c-3.413333 11.946667-13.653333 18.773333-25.6 18.773333z"  /><path  d="M896 808.96h-768c-51.2 0-93.866667-42.666667-93.866667-93.866667V179.2C34.133333 128 76.8 85.333333 128 85.333333h768c51.2 0 93.866667 42.666667 93.866667 93.866667v535.893333c0 52.906667-42.666667 93.866667-93.866667 93.866667zM128 136.533333C104.106667 136.533333 85.333333 157.013333 85.333333 179.2v535.893333c0 23.893333 18.773333 42.666667 42.666667 42.666667h768c23.893333 0 42.666667-18.773333 42.666667-42.666667V179.2C938.666667 157.013333 919.893333 136.533333 896 136.533333h-768zM781.653333 938.666667H242.346667c-13.653333 0-25.6-11.946667-25.6-25.6s11.946667-25.6 25.6-25.6h539.306666c13.653333 0 25.6 11.946667 25.6 25.6s-11.946667 25.6-25.6 25.6z"  /></svg>