<?xml version="1.0" standalone="no"?><!DOCTYPE svg PUBLIC "-//W3C//DTD SVG 1.1//EN" "http://www.w3.org/Graphics/SVG/1.1/DTD/svg11.dtd"><svg class="icon" width="64px" height="64.00px" viewBox="0 0 1024 1024" version="1.1" xmlns="http://www.w3.org/2000/svg"><path  d="M366.933333 436.906667H204.8c-13.653333 0-25.6-11.946667-25.6-25.6s11.946667-25.6 25.6-25.6h162.133333c13.653333 0 25.6 11.946667 25.6 25.6s-11.946667 25.6-25.6 25.6zM814.08 436.906667H638.293333c-13.653333 0-25.6-11.946667-25.6-25.6s11.946667-25.6 25.6-25.6h174.08c13.653333 0 25.6 11.946667 25.6 25.6s-10.24 25.6-23.893333 25.6zM366.933333 616.106667H204.8c-13.653333 0-25.6-11.946667-25.6-25.6s11.946667-25.6 25.6-25.6h162.133333c13.653333 0 25.6 11.946667 25.6 25.6s-11.946667 25.6-25.6 25.6zM814.08 616.106667H638.293333c-13.653333 0-25.6-11.946667-25.6-25.6s11.946667-25.6 25.6-25.6h174.08c13.653333 0 25.6 11.946667 25.6 25.6s-10.24 25.6-23.893333 25.6z"  /><path  d="M512 936.96c-3.413333 0-5.12 0-6.826667-1.706667L105.813333 810.666667c-39.253333-1.706667-71.68-34.133333-71.68-75.093334V167.253333c0-42.666667 34.133333-76.8 76.8-76.8 3.413333 0 5.12 0 8.533334 1.706667l247.466666 88.746667c13.653333 5.12 20.48 18.773333 15.36 32.426666-5.12 13.653333-18.773333 20.48-32.426666 15.36l-244.053334-85.333333c-11.946667 1.706667-20.48 11.946667-20.48 23.893333v568.32c0 13.653333 11.946667 25.6 25.6 25.6 3.413333 0 5.12 0 6.826667 1.706667l368.64 116.053333v-78.506666c0-13.653333 11.946667-25.6 25.6-25.6s25.6 11.946667 25.6 25.6v114.346666c0 8.533333-3.413333 15.36-10.24 20.48-5.12 0-10.24 1.706667-15.36 1.706667z"  /><path  d="M512 890.88c-13.653333 0-25.6-11.946667-25.6-25.6V288.426667c0-40.96 30.72-73.386667 71.68-75.093334L904.533333 87.04c3.413333-1.706667 5.12-1.706667 8.533334-1.706667C955.733333 85.333333 989.866667 119.466667 989.866667 162.133333v568.32c0 40.96-32.426667 73.386667-71.68 75.093334l-226.986667 71.68c-13.653333 5.12-27.306667-3.413333-32.426667-17.066667-3.413333-13.653333 3.413333-27.306667 17.066667-32.426667l230.4-71.68c1.706667 0 5.12-1.706667 6.826667-1.706666 13.653333 0 25.6-11.946667 25.6-25.6V160.426667c0-11.946667-8.533333-22.186667-20.48-23.893334l-346.453334 124.586667c-3.413333 1.706667-5.12 1.706667-8.533333 1.706667-13.653333 0-25.6 11.946667-25.6 25.6v576.853333c0 13.653333-11.946667 25.6-25.6 25.6z"  /></svg>