<?xml version="1.0" standalone="no"?><!DOCTYPE svg PUBLIC "-//W3C//DTD SVG 1.1//EN" "http://www.w3.org/Graphics/SVG/1.1/DTD/svg11.dtd"><svg class="icon" width="64px" height="64.00px" viewBox="0 0 1024 1024" version="1.1" xmlns="http://www.w3.org/2000/svg"><path  d="M839.68 849.92H158.72c-37.546667 0-69.973333-30.72-69.973333-69.973333V244.053333c0-37.546667 30.72-69.973333 69.973333-69.973333h680.96c37.546667 0 69.973333 30.72 69.973333 69.973333v535.893334c0 37.546667-30.72 69.973333-69.973333 69.973333zM158.72 225.28c-10.24 0-18.773333 8.533333-18.773333 18.773333v535.893334c0 10.24 8.533333 18.773333 18.773333 18.773333h680.96c10.24 0 18.773333-8.533333 18.773333-18.773333V244.053333c0-10.24-8.533333-18.773333-18.773333-18.773333H158.72z"  /><path  d="M964.266667 848.213333h-904.533334c-13.653333 0-25.6-11.946667-25.6-25.6s11.946667-25.6 25.6-25.6h904.533334c13.653333 0 25.6 11.946667 25.6 25.6s-11.946667 25.6-25.6 25.6zM286.72 629.76c-6.826667 0-13.653333-3.413333-18.773333-8.533333-10.24-10.24-10.24-25.6 0-35.84l168.96-162.133334c10.24-10.24 25.6-10.24 35.84 0l116.053333 109.226667 133.12-122.88c10.24-10.24 27.306667-8.533333 35.84 1.706667 10.24 10.24 8.533333 27.306667-1.706667 35.84l-150.186666 138.24c-10.24 8.533333-25.6 8.533333-34.133334 0L455.68 477.866667l-151.893333 145.066666c-5.12 5.12-11.946667 6.826667-17.066667 6.826667z"  /></svg>