<?xml version="1.0" standalone="no"?><!DOCTYPE svg PUBLIC "-//W3C//DTD SVG 1.1//EN" "http://www.w3.org/Graphics/SVG/1.1/DTD/svg11.dtd"><svg class="icon" width="64px" height="64.00px" viewBox="0 0 1024 1024" version="1.1" xmlns="http://www.w3.org/2000/svg"><path  d="M948.906667 976.213333h-785.066667c-71.68 0-129.706667-58.026667-129.706667-129.706666S92.16 716.8 163.84 716.8h785.066667c15.36 0 22.186667 8.533333 25.6 13.653333 8.533333 13.653333 1.706667 25.6 0 30.72v-1.706666h-42.666667c5.12 6.826667 11.946667 10.24 17.066667 10.24h-785.066667c-42.666667 0-78.506667 34.133333-78.506667 78.506666s34.133333 78.506667 78.506667 78.506667h785.066667v49.493333z"  /><path  d="M34.133333 839.68V177.493333c0-71.68 58.026667-129.706667 129.706667-129.706666h783.36C971.093333 47.786667 989.866667 68.266667 989.866667 90.453333v636.586667c0 23.893333-18.773333 42.666667-42.666667 42.666667l-802.133333 1.706666C129.706667 783.36 102.4 802.133333 71.68 819.2L34.133333 839.68zM163.84 98.986667C121.173333 98.986667 85.333333 134.826667 85.333333 177.493333V750.933333c13.653333-8.533333 25.6-17.066667 32.426667-22.186666 5.12-3.413333 20.48-15.36 34.133333-6.826667l786.773334-3.413333V98.986667H163.84z"  /><path  d="M464.213333 593.92c-8.533333 0-15.36-1.706667-22.186666-5.12-17.066667-8.533333-27.306667-29.013333-27.306667-52.906667V336.213333c0-23.893333 10.24-42.666667 27.306667-52.906666 17.066667-8.533333 37.546667-6.826667 58.026666 6.826666l145.066667 95.573334c18.773333 11.946667 30.72 30.72 30.72 51.2s-10.24 39.253333-30.72 51.2l-145.066667 93.866666c-11.946667 6.826667-25.6 11.946667-35.84 11.946667z m1.706667-264.533333v209.92c1.706667 0 3.413333-1.706667 5.12-3.413334l145.066667-93.866666c5.12-3.413333 6.826667-6.826667 6.826666-8.533334 0-1.706667-1.706667-5.12-6.826666-8.533333l-145.066667-95.573333c-1.706667 1.706667-3.413333 0-5.12 0zM923.306667 872.106667H165.546667c-13.653333 0-25.6-11.946667-25.6-25.6s11.946667-25.6 25.6-25.6h757.76c13.653333 0 25.6 11.946667 25.6 25.6s-11.946667 25.6-25.6 25.6z"  /></svg>