<?xml version="1.0" standalone="no"?><!DOCTYPE svg PUBLIC "-//W3C//DTD SVG 1.1//EN" "http://www.w3.org/Graphics/SVG/1.1/DTD/svg11.dtd"><svg class="icon" width="64px" height="64.00px" viewBox="0 0 1024 1024" version="1.1" xmlns="http://www.w3.org/2000/svg"><path  d="M537.6 914.773333h-51.2c-11.946667 0-22.186667-8.533333-25.6-18.773333l-5.12-10.24c-11.946667-11.946667-49.493333-17.066667-114.346667-15.36H59.733333c-13.653333 0-25.6-11.946667-25.6-25.6V134.826667c0-13.653333 11.946667-25.6 25.6-25.6h310.613334c52.906667 0 105.813333 18.773333 141.653333 51.2 35.84-32.426667 90.453333-51.2 141.653333-51.2h310.613334c13.653333 0 25.6 11.946667 25.6 25.6v709.973333c0 13.653333-11.946667 25.6-25.6 25.6h-256c-112.64-1.706667-131.413333 8.533333-139.946667 13.653333-3.413333 3.413333-5.12 6.826667-6.826667 11.946667-1.706667 10.24-11.946667 18.773333-23.893333 18.773333z m-34.133333-51.2h17.066666c5.12-8.533333 10.24-15.36 17.066667-20.48l1.706667-1.706666c18.773333-13.653333 46.08-23.893333 170.666666-22.186667H938.666667V160.426667H653.653333c-47.786667 0-97.28 20.48-122.88 52.906666-3.413333 5.12-11.946667 8.533333-18.773333 8.533334-6.826667 0-15.36-3.413333-20.48-8.533334-25.6-30.72-75.093333-52.906667-122.88-52.906666H85.333333V819.2h256c105.813333-1.706667 133.12 13.653333 148.48 29.013333 5.12 5.12 10.24 10.24 13.653334 15.36z"  /><path  d="M404.48 360.106667H163.84c-13.653333 0-25.6-11.946667-25.6-25.6s11.946667-25.6 25.6-25.6h240.64c13.653333 0 25.6 11.946667 25.6 25.6s-11.946667 25.6-25.6 25.6zM404.48 500.053333H163.84c-13.653333 0-25.6-11.946667-25.6-25.6s11.946667-25.6 25.6-25.6h240.64c13.653333 0 25.6 11.946667 25.6 25.6s-11.946667 25.6-25.6 25.6zM404.48 640H163.84c-13.653333 0-25.6-11.946667-25.6-25.6s11.946667-25.6 25.6-25.6h240.64c13.653333 0 25.6 11.946667 25.6 25.6s-11.946667 25.6-25.6 25.6zM848.213333 500.053333H607.573333c-13.653333 0-25.6-11.946667-25.6-25.6s11.946667-25.6 25.6-25.6h240.64c13.653333 0 25.6 11.946667 25.6 25.6s-11.946667 25.6-25.6 25.6zM848.213333 640H607.573333c-13.653333 0-25.6-11.946667-25.6-25.6s11.946667-25.6 25.6-25.6h240.64c13.653333 0 25.6 11.946667 25.6 25.6s-11.946667 25.6-25.6 25.6zM512 907.946667c-13.653333 0-25.6-11.946667-25.6-25.6V189.44c0-13.653333 11.946667-25.6 25.6-25.6s25.6 11.946667 25.6 25.6v692.906667c0 13.653333-11.946667 25.6-25.6 25.6zM708.266667 384c-5.12 0-8.533333-1.706667-11.946667-3.413333-8.533333-3.413333-13.653333-11.946667-13.653333-22.186667V134.826667c0-13.653333 11.946667-25.6 25.6-25.6h155.306666c13.653333 0 25.6 11.946667 25.6 25.6V358.4c0 8.533333-5.12 17.066667-13.653333 22.186667-8.533333 5.12-17.066667 5.12-25.6 0L785.066667 343.04l-64.853334 37.546667c-3.413333 1.706667-8.533333 3.413333-11.946666 3.413333zM733.866667 160.426667v153.6l39.253333-22.186667c8.533333-5.12 17.066667-5.12 25.6 0l39.253333 22.186667v-153.6H733.866667z"  /></svg>