<?xml version="1.0" standalone="no"?><!DOCTYPE svg PUBLIC "-//W3C//DTD SVG 1.1//EN" "http://www.w3.org/Graphics/SVG/1.1/DTD/svg11.dtd"><svg class="icon" width="64px" height="64.00px" viewBox="0 0 1024 1024" version="1.1" xmlns="http://www.w3.org/2000/svg"><path  d="M59.733333 458.581333c-7.850667 0-15.701333-3.754667-20.821333-10.581333a25.6 25.6 0 0 1 5.802667-35.669333L457.045333 114.688a93.764267 93.764267 0 0 1 109.909334 0l412.330666 297.642667c11.434667 8.362667 13.994667 24.234667 5.802667 35.669333-8.362667 11.434667-24.234667 13.994667-35.669333 5.802667L536.917333 156.16c-15.018667-10.752-34.986667-10.752-50.005333 0L74.752 453.802667c-4.608 3.242667-9.728 4.778667-15.018667 4.778666z"  /><path  d="M854.869333 942.933333H169.130667a94.037333 94.037333 0 0 1-93.866667-93.866666V409.770667c0-14.165333 11.434667-25.6 25.6-25.6h822.272c14.165333 0 25.6 11.434667 25.6 25.6v439.296c0 51.712-42.154667 93.866667-93.866667 93.866666zM126.464 435.370667v413.696a42.666667 42.666667 0 0 0 42.666667 42.666666h685.738666a42.666667 42.666667 0 0 0 42.666667-42.666666V435.370667H126.464z"  /><path  d="M667.136 581.973333H356.864c-14.165333 0-25.6-11.434667-25.6-25.6s11.434667-25.6 25.6-25.6h310.272c14.165333 0 25.6 11.434667 25.6 25.6s-11.434667 25.6-25.6 25.6zM667.136 689.152H356.864c-14.165333 0-25.6-11.434667-25.6-25.6s11.434667-25.6 25.6-25.6h310.272c14.165333 0 25.6 11.434667 25.6 25.6s-11.434667 25.6-25.6 25.6zM667.136 796.330667H356.864c-14.165333 0-25.6-11.434667-25.6-25.6s11.434667-25.6 25.6-25.6h310.272c14.165333 0 25.6 11.434667 25.6 25.6s-11.434667 25.6-25.6 25.6z"  /></svg>