<?xml version="1.0" standalone="no"?><!DOCTYPE svg PUBLIC "-//W3C//DTD SVG 1.1//EN" "http://www.w3.org/Graphics/SVG/1.1/DTD/svg11.dtd"><svg class="icon" width="64px" height="64.00px" viewBox="0 0 1024 1024" version="1.1" xmlns="http://www.w3.org/2000/svg"><path  d="M512 406.186667c-102.4 0-186.026667-83.626667-186.026667-186.026667S409.6 34.133333 512 34.133333s186.026667 83.626667 186.026667 186.026667S614.4 406.186667 512 406.186667zM512 85.333333c-73.386667 0-134.826667 59.733333-134.826667 134.826667s59.733333 134.826667 134.826667 134.826667 134.826667-59.733333 134.826667-134.826667S585.386667 85.333333 512 85.333333zM592.213333 846.506667c-6.826667 0-13.653333-1.706667-18.773333-6.826667l-160.426667-160.426667c-10.24-10.24-10.24-25.6 0-35.84s25.6-10.24 35.84 0l160.426667 160.426667c10.24 10.24 10.24 25.6 0 35.84-3.413333 3.413333-10.24 6.826667-17.066667 6.826667z"  /><path  d="M431.786667 846.506667c-6.826667 0-13.653333-1.706667-18.773334-6.826667-10.24-10.24-10.24-25.6 0-35.84l160.426667-160.426667c10.24-10.24 25.6-10.24 35.84 0s10.24 25.6 0 35.84l-160.426667 160.426667c-3.413333 3.413333-10.24 6.826667-17.066666 6.826667z"  /><path  d="M720.213333 989.866667H303.786667C165.546667 989.866667 52.906667 877.226667 52.906667 740.693333c0-138.24 112.64-249.173333 249.173333-249.173333h418.133333c138.24 0 249.173333 112.64 249.173334 249.173333 1.706667 136.533333-110.933333 249.173333-249.173334 249.173334zM303.786667 541.013333c-109.226667 0-197.973333 88.746667-197.973334 197.973334 0 109.226667 88.746667 197.973333 197.973334 197.973333h418.133333c109.226667 0 197.973333-88.746667 197.973333-197.973333 0-109.226667-88.746667-197.973333-197.973333-197.973334H303.786667z"  /></svg>