<?xml version="1.0" standalone="no"?><!DOCTYPE svg PUBLIC "-//W3C//DTD SVG 1.1//EN" "http://www.w3.org/Graphics/SVG/1.1/DTD/svg11.dtd"><svg class="icon" width="64px" height="64.00px" viewBox="0 0 1024 1024" version="1.1" xmlns="http://www.w3.org/2000/svg"><path  d="M913.066667 977.92h-802.133334c-42.666667 0-76.8-34.133333-76.8-76.8V380.586667c0-42.666667 34.133333-76.8 76.8-76.8h802.133334c42.666667 0 76.8 34.133333 76.8 76.8v520.533333c0 42.666667-34.133333 76.8-76.8 76.8z m-802.133334-622.933333c-13.653333 0-25.6 11.946667-25.6 25.6v520.533333c0 13.653333 11.946667 25.6 25.6 25.6h802.133334c13.653333 0 25.6-11.946667 25.6-25.6V380.586667c0-13.653333-11.946667-25.6-25.6-25.6h-802.133334z"  /><path  d="M600.746667 593.92H423.253333c-47.786667 0-87.04-39.253333-87.04-87.04s39.253333-87.04 87.04-87.04h177.493334c47.786667 0 87.04 39.253333 87.04 87.04s-39.253333 87.04-87.04 87.04z m-177.493334-122.88c-20.48 0-35.84 15.36-35.84 35.84s15.36 35.84 35.84 35.84h177.493334c20.48 0 35.84-15.36 35.84-35.84s-15.36-35.84-35.84-35.84H423.253333z"  /><path  d="M564.906667 354.986667h-133.12c-13.653333 0-25.6-11.946667-25.6-25.6v-170.666667c0-13.653333 11.946667-25.6 25.6-25.6h133.12c13.653333 0 25.6 11.946667 25.6 25.6v170.666667c0 13.653333-11.946667 25.6-25.6 25.6z m-107.52-51.2h81.92v-119.466667h-81.92v119.466667z"  /><path  d="M696.32 354.986667H563.2c-13.653333 0-25.6-11.946667-25.6-25.6V59.733333c0-13.653333 11.946667-25.6 25.6-25.6h133.12c13.653333 0 25.6 11.946667 25.6 25.6v267.946667c0 15.36-10.24 27.306667-25.6 27.306667z m-105.813333-51.2h81.92V85.333333h-81.92v218.453334z"  /><path  d="M829.44 354.986667h-133.12c-13.653333 0-25.6-11.946667-25.6-25.6V59.733333c0-13.653333 11.946667-25.6 25.6-25.6h133.12c13.653333 0 25.6 11.946667 25.6 25.6v267.946667c0 15.36-11.946667 27.306667-25.6 27.306667z m-107.52-51.2h81.92V85.333333h-81.92v218.453334z"  /><path  d="M314.026667 354.986667c-80.213333 0-145.066667-64.853333-145.066667-145.066667s64.853333-145.066667 145.066667-145.066667 145.066667 64.853333 145.066666 145.066667-64.853333 145.066667-145.066666 145.066667z m0-238.933334c-51.2 0-93.866667 42.666667-93.866667 93.866667s42.666667 93.866667 93.866667 93.866667 93.866667-42.666667 93.866666-93.866667-42.666667-93.866667-93.866666-93.866667z"  /><path  d="M358.4 237.226667h-51.2c-13.653333 0-25.6-11.946667-25.6-25.6v-51.2c0-13.653333 11.946667-25.6 25.6-25.6s25.6 11.946667 25.6 25.6v25.6H358.4c13.653333 0 25.6 11.946667 25.6 25.6s-11.946667 25.6-25.6 25.6z"  /></svg>