<?xml version="1.0" standalone="no"?><!DOCTYPE svg PUBLIC "-//W3C//DTD SVG 1.1//EN" "http://www.w3.org/Graphics/SVG/1.1/DTD/svg11.dtd"><svg class="icon" width="64px" height="64.00px" viewBox="0 0 1024 1024" version="1.1" xmlns="http://www.w3.org/2000/svg"><path  d="M896 757.76h-768c-51.2 0-93.866667-42.666667-93.866667-93.866667V213.333333C34.133333 160.426667 76.8 119.466667 128 119.466667h768c51.2 0 93.866667 42.666667 93.866667 93.866666V665.6c0 51.2-42.666667 92.16-93.866667 92.16zM128 170.666667C104.106667 170.666667 85.333333 189.44 85.333333 213.333333V665.6c0 23.893333 18.773333 42.666667 42.666667 42.666667h768c23.893333 0 42.666667-18.773333 42.666667-42.666667V213.333333c0-23.893333-18.773333-42.666667-42.666667-42.666666h-768z"  /><path  d="M486.4 732.16h51.2v134.826667h-51.2z"  /><path  d="M783.36 904.533333H240.64c-13.653333 0-25.6-11.946667-25.6-25.6s11.946667-25.6 25.6-25.6h542.72c13.653333 0 25.6 11.946667 25.6 25.6s-11.946667 25.6-25.6 25.6z"  /><path  d="M469.333333 626.346667c-10.24 0-20.48-3.413333-27.306666-11.946667l-107.52-107.52c-15.36-15.36-15.36-39.253333 0-54.613333L512 276.48c6.826667-6.826667 13.653333-10.24 22.186667-10.24l122.88-15.36c11.946667-1.706667 23.893333 1.706667 32.426666 10.24s11.946667 20.48 10.24 32.426667l-15.36 122.88c-1.706667 8.533333-5.12 17.066667-10.24 22.186666L496.64 616.106667c-6.826667 6.826667-17.066667 10.24-27.306667 10.24z m-88.746666-145.066667l88.746666 88.746667 165.546667-165.546667 11.946667-102.4-102.4 11.946667-163.84 167.253333z m283.306666-179.2z"  /><path  d="M578.56 365.226667m-27.306667 0a27.306667 27.306667 0 1 0 54.613334 0 27.306667 27.306667 0 1 0-54.613334 0Z"  /></svg>