<?xml version="1.0" standalone="no"?><!DOCTYPE svg PUBLIC "-//W3C//DTD SVG 1.1//EN" "http://www.w3.org/Graphics/SVG/1.1/DTD/svg11.dtd"><svg class="icon" width="64px" height="64.00px" viewBox="0 0 1024 1024" version="1.1" xmlns="http://www.w3.org/2000/svg"><path  d="M805.546667 989.866667H218.453333c-51.2 0-93.866667-42.666667-93.866666-93.866667v-768c0-51.2 42.666667-93.866667 93.866666-93.866667h587.093334c51.2 0 93.866667 42.666667 93.866666 93.866667v768c0 51.2-42.666667 93.866667-93.866666 93.866667zM218.453333 85.333333c-23.893333 0-42.666667 18.773333-42.666666 42.666667v768c0 23.893333 18.773333 42.666667 42.666666 42.666667h587.093334c23.893333 0 42.666667-18.773333 42.666666-42.666667v-768c0-23.893333-18.773333-42.666667-42.666666-42.666667H218.453333z"  /><path  d="M534.186667 447.146667c-3.413333 0-8.533333-1.706667-11.946667-3.413334l-90.453333-47.786666-88.746667 47.786666c-8.533333 3.413333-17.066667 3.413333-25.6 0-8.533333-5.12-11.946667-13.653333-11.946667-22.186666V206.506667c0-13.653333 11.946667-25.6 25.6-25.6h203.093334c13.653333 0 25.6 11.946667 25.6 25.6v215.04c0 8.533333-5.12 17.066667-11.946667 22.186666-3.413333 1.706667-8.533333 3.413333-13.653333 3.413334zM356.693333 232.106667v146.773333l64.853334-34.133333c6.826667-3.413333 17.066667-3.413333 23.893333 0l64.853333 34.133333v-146.773333h-153.6zM556.373333 628.053333H331.093333c-13.653333 0-25.6-11.946667-25.6-25.6s11.946667-25.6 25.6-25.6h225.28c13.653333 0 25.6 11.946667 25.6 25.6s-10.24 25.6-25.6 25.6zM692.906667 762.88H331.093333c-13.653333 0-25.6-11.946667-25.6-25.6s11.946667-25.6 25.6-25.6h361.813334c13.653333 0 25.6 11.946667 25.6 25.6s-11.946667 25.6-25.6 25.6z"  /></svg>