<?xml version="1.0" standalone="no"?><!DOCTYPE svg PUBLIC "-//W3C//DTD SVG 1.1//EN" "http://www.w3.org/Graphics/SVG/1.1/DTD/svg11.dtd"><svg class="icon" width="64px" height="64.00px" viewBox="0 0 1024 1024" version="1.1" xmlns="http://www.w3.org/2000/svg"><path  d="M424.96 471.04c-92.16 0-167.253333-75.093333-167.253333-167.253333S332.8 136.533333 424.96 136.533333s167.253333 75.093333 167.253333 167.253334-75.093333 167.253333-167.253333 167.253333z m0-283.306667c-64.853333 0-116.053333 52.906667-116.053333 116.053334 0 64.853333 52.906667 116.053333 116.053333 116.053333 64.853333 0 116.053333-52.906667 116.053333-116.053333 0-64.853333-52.906667-116.053333-116.053333-116.053334zM788.48 887.466667H59.733333c-13.653333 0-25.6-10.24-25.6-25.6v-23.893334c0-95.573333 0-141.653333 20.48-182.613333 18.773333-35.84 46.08-63.146667 81.92-81.92 40.96-20.48 87.04-20.48 182.613334-20.48H529.066667c95.573333 0 141.653333 0 182.613333 20.48 35.84 18.773333 63.146667 46.08 81.92 81.92 20.48 40.96 20.48 87.04 20.48 182.613333v23.893334c0 15.36-10.24 25.6-25.6 25.6zM85.333333 836.266667h677.546667c0-85.333333 0-129.706667-15.36-158.72-13.653333-25.6-34.133333-46.08-59.733333-59.733334-29.013333-15.36-73.386667-15.36-158.72-15.36H319.146667c-87.04 0-129.706667 0-158.72 15.36-25.6 13.653333-46.08 34.133333-59.733334 59.733334C85.333333 708.266667 85.333333 750.933333 85.333333 836.266667z"  /><path  d="M964.266667 477.866667c-6.826667 0-13.653333-1.706667-18.773334-6.826667L773.12 298.666667c-10.24-10.24-10.24-25.6 0-35.84s25.6-10.24 35.84 0l172.373333 172.373333c10.24 10.24 10.24 25.6 0 35.84-3.413333 5.12-10.24 6.826667-17.066666 6.826667z"  /><path  d="M791.893333 477.866667c-6.826667 0-13.653333-1.706667-18.773333-6.826667-10.24-10.24-10.24-25.6 0-35.84l172.373333-172.373333c10.24-10.24 25.6-10.24 35.84 0s10.24 25.6 0 35.84L808.96 471.04c-5.12 5.12-10.24 6.826667-17.066667 6.826667z"  /></svg>