<?xml version="1.0" standalone="no"?><!DOCTYPE svg PUBLIC "-//W3C//DTD SVG 1.1//EN" "http://www.w3.org/Graphics/SVG/1.1/DTD/svg11.dtd"><svg class="icon" width="64px" height="64.00px" viewBox="0 0 1024 1024" version="1.1" xmlns="http://www.w3.org/2000/svg"><path  d="M896 962.56h-768c-51.2 0-93.866667-42.666667-93.866667-93.866667v-614.4c0-51.2 42.666667-93.866667 93.866667-93.866666h310.613333c13.653333 0 25.6 11.946667 25.6 25.6s-11.946667 25.6-25.6 25.6H128c-23.893333 0-42.666667 18.773333-42.666667 42.666666v614.4c0 23.893333 18.773333 42.666667 42.666667 42.666667h768c23.893333 0 42.666667-18.773333 42.666667-42.666667v-614.4c0-23.893333-18.773333-42.666667-42.666667-42.666666H585.386667c-13.653333 0-25.6-11.946667-25.6-25.6s11.946667-25.6 25.6-25.6h310.613333c51.2 0 93.866667 42.666667 93.866667 93.866666v614.4c0 52.906667-42.666667 93.866667-93.866667 93.866667z"  /><path  d="M348.16 535.893333c-54.613333 0-97.28-44.373333-97.28-98.986666 0-54.613333 44.373333-97.28 97.28-97.28s97.28 44.373333 97.28 97.28c1.706667 56.32-42.666667 98.986667-97.28 98.986666z m0-145.066666c-25.6 0-46.08 20.48-46.08 46.08 0 25.6 20.48 47.786667 46.08 47.786666s46.08-20.48 46.08-47.786666c1.706667-23.893333-18.773333-46.08-46.08-46.08zM512 783.36H186.026667c-13.653333 0-25.6-11.946667-25.6-25.6 0-104.106667 85.333333-189.44 189.44-189.44s189.44 85.333333 189.44 189.44c-1.706667 15.36-13.653333 25.6-27.306667 25.6z m-298.666667-51.2h269.653334c-11.946667-63.146667-68.266667-112.64-134.826667-112.64s-122.88 49.493333-134.826667 112.64zM788.48 663.893333c-6.826667 0-13.653333-1.706667-18.773333-6.826666l-151.893334-151.893334c-10.24-10.24-10.24-25.6 0-35.84s25.6-10.24 35.84 0l151.893334 151.893334c10.24 10.24 10.24 25.6 0 35.84-5.12 3.413333-10.24 6.826667-17.066667 6.826666z"  /><path  d="M636.586667 663.893333c-6.826667 0-13.653333-1.706667-18.773334-6.826666-10.24-10.24-10.24-25.6 0-35.84l151.893334-151.893334c10.24-10.24 25.6-10.24 35.84 0s10.24 25.6 0 35.84l-151.893334 151.893334c-3.413333 3.413333-10.24 6.826667-17.066666 6.826666z"  /><path  d="M512 317.44c-54.613333 0-98.986667-44.373333-98.986667-98.986667V160.426667c0-54.613333 44.373333-98.986667 98.986667-98.986667s98.986667 44.373333 98.986667 98.986667v58.026666c0 54.613333-44.373333 98.986667-98.986667 98.986667z m0-204.8c-25.6 0-47.786667 22.186667-47.786667 47.786667v58.026666c0 25.6 22.186667 47.786667 47.786667 47.786667s47.786667-22.186667 47.786667-47.786667V160.426667c0-27.306667-22.186667-47.786667-47.786667-47.786667z"  /></svg>