<?xml version="1.0" standalone="no"?><!DOCTYPE svg PUBLIC "-//W3C//DTD SVG 1.1//EN" "http://www.w3.org/Graphics/SVG/1.1/DTD/svg11.dtd"><svg class="icon" width="64px" height="64.00px" viewBox="0 0 1024 1024" version="1.1" xmlns="http://www.w3.org/2000/svg"><path  d="M747.52 989.866667H162.133333c-51.2 0-93.866667-42.666667-93.866666-93.866667v-768C68.266667 76.8 109.226667 34.133333 162.133333 34.133333h648.533334c51.2 0 93.866667 42.666667 93.866666 93.866667v546.133333c0 13.653333-11.946667 25.6-25.6 25.6s-25.6-11.946667-25.6-25.6v-546.133333C853.333333 105.813333 832.853333 85.333333 810.666667 85.333333h-648.533334C138.24 85.333333 119.466667 105.813333 119.466667 128v766.293333C119.466667 918.186667 138.24 938.666667 162.133333 938.666667h587.093334c13.653333 0 25.6 11.946667 25.6 25.6s-13.653333 25.6-27.306667 25.6z"  /><path  d="M486.4 728.746667h-238.933333c-13.653333 0-25.6-11.946667-25.6-25.6s11.946667-25.6 25.6-25.6h238.933333c13.653333 0 25.6 11.946667 25.6 25.6s-10.24 25.6-25.6 25.6zM460.8 837.973333H247.466667c-13.653333 0-25.6-11.946667-25.6-25.6s11.946667-25.6 25.6-25.6H460.8c13.653333 0 25.6 11.946667 25.6 25.6s-10.24 25.6-25.6 25.6z"  /><path  d="M764.586667 989.866667c-105.813333 0-192.853333-85.333333-192.853334-192.853334s85.333333-192.853333 192.853334-192.853333S955.733333 691.2 955.733333 797.013333 870.4 989.866667 764.586667 989.866667z m0-332.8c-78.506667 0-141.653333 63.146667-141.653334 141.653333s63.146667 141.653333 141.653334 141.653333 141.653333-63.146667 141.653333-141.653333-64.853333-141.653333-141.653333-141.653333z"  /><path  d="M738.986667 865.28c-8.533333 0-17.066667-3.413333-22.186667-10.24l-37.546667-39.253333c-10.24-10.24-8.533333-25.6 0-35.84 10.24-10.24 25.6-8.533333 35.84 0l23.893334 25.6 75.093333-69.973334c10.24-10.24 27.306667-8.533333 35.84 1.706667 10.24 10.24 8.533333 27.306667-1.706667 35.84l-88.746666 83.626667c-5.12 5.12-11.946667 8.533333-20.48 8.533333z m13.653333-44.373333z"  /><path  d="M535.893333 559.786667c-10.24 0-20.48-6.826667-23.893333-17.066667-3.413333-10.24-13.653333-17.066667-23.893333-17.066667s-20.48 6.826667-23.893334 17.066667c-3.413333 13.653333-18.773333 20.48-32.426666 17.066667-32.426667-10.24-61.44-27.306667-85.333334-51.2-8.533333-10.24-10.24-23.893333-1.706666-34.133334 3.413333-3.413333 6.826667-8.533333 6.826666-17.066666 0-15.36-13.653333-27.306667-27.306666-25.6-13.653333 1.706667-25.6-6.826667-27.306667-20.48-3.413333-13.653333-3.413333-25.6-3.413333-39.253334 0-20.48 3.413333-39.253333 8.533333-58.026666 3.413333-10.24 13.653333-17.066667 23.893333-17.066667 15.36 0 25.6-11.946667 25.6-25.6 0-3.413333-1.706667-8.533333-3.413333-11.946667-5.12-10.24-3.413333-22.186667 5.12-30.72 22.186667-20.48 51.2-37.546667 80.213333-46.08 11.946667-3.413333 23.893333 1.706667 29.013334 13.653334 5.12 8.533333 13.653333 13.653333 22.186666 13.653333s18.773333-5.12 22.186667-13.653333c5.12-10.24 18.773333-17.066667 29.013333-13.653334 30.72 8.533333 58.026667 23.893333 80.213334 46.08 8.533333 8.533333 10.24 20.48 5.12 30.72-1.706667 3.413333-3.413333 6.826667-3.413334 11.946667 0 13.653333 11.946667 25.6 25.6 25.6 11.946667 0 22.186667 6.826667 25.6 17.066667 5.12 18.773333 8.533333 39.253333 8.533334 58.026666 0 13.653333-1.706667 27.306667-3.413334 39.253334-3.413333 13.653333-13.653333 22.186667-27.306666 20.48-15.36-1.706667-27.306667 10.24-27.306667 25.6 0 8.533333 3.413333 13.653333 6.826667 17.066666 8.533333 10.24 8.533333 25.6-1.706667 34.133334-23.893333 23.893333-52.906667 42.666667-85.333333 51.2 1.706667-1.706667-1.706667 0-3.413334 0z m-138.24-76.8c8.533333 6.826667 18.773333 13.653333 30.72 18.773333 13.653333-18.773333 35.84-29.013333 59.733334-29.013333s46.08 11.946667 59.733333 29.013333c10.24-5.12 20.48-11.946667 30.72-18.773333-3.413333-8.533333-5.12-18.773333-5.12-27.306667 0-35.84 25.6-66.56 59.733333-75.093333v-10.24c0-10.24-1.706667-18.773333-3.413333-29.013334-32.426667-8.533333-56.32-39.253333-56.32-73.386666 0-5.12 0-8.533333 1.706667-13.653334-10.24-6.826667-20.48-13.653333-30.72-17.066666-13.653333 15.36-34.133333 23.893333-54.613334 23.893333s-40.96-8.533333-54.613333-23.893333c-11.946667 5.12-22.186667 10.24-30.72 17.066666 0 5.12 1.706667 8.533333 1.706667 13.653334 0 35.84-23.893333 64.853333-56.32 73.386666-1.706667 8.533333-3.413333 18.773333-3.413334 27.306667v10.24c34.133333 8.533333 59.733333 37.546667 59.733334 75.093333-3.413333 10.24-5.12 20.48-8.533334 29.013334z"  /><path  d="M486.4 455.68c-47.786667 0-85.333333-37.546667-85.333333-85.333333s37.546667-85.333333 85.333333-85.333334 85.333333 37.546667 85.333333 85.333334-37.546667 85.333333-85.333333 85.333333z m0-119.466667c-18.773333 0-34.133333 15.36-34.133333 34.133334s15.36 34.133333 34.133333 34.133333 34.133333-15.36 34.133333-34.133333-15.36-34.133333-34.133333-34.133334z"  /></svg>