<?xml version="1.0" standalone="no"?><!DOCTYPE svg PUBLIC "-//W3C//DTD SVG 1.1//EN" "http://www.w3.org/Graphics/SVG/1.1/DTD/svg11.dtd"><svg class="icon" width="64px" height="64.00px" viewBox="0 0 1024 1024" version="1.1" xmlns="http://www.w3.org/2000/svg"><path  d="M690.858667 768c-8.362667 0-16.725333-1.365333-24.917334-4.096-79.36-26.794667-188.928-73.728-260.437333-145.237333-71.68-71.509333-118.613333-181.077333-145.237333-260.437334-8.021333-23.722667-4.266667-48.981333 10.24-69.12 14.848-20.650667 39.082667-32.938667 65.194666-32.938666h71.509334c19.456 0 37.546667 10.581333 46.933333 27.648l34.474667 62.122666c8.533333 15.530667 9.045333 34.304 1.024 50.176L460.8 453.973333c4.266667 13.824 15.701333 43.690667 40.789333 68.778667 25.088 25.088 54.784 36.522667 68.608 40.618667l57.856-28.842667c15.872-7.850667 34.645333-7.509333 50.176 1.024l62.293334 34.645333c17.066667 9.557333 27.648 27.477333 27.648 46.933334v71.509333c0 25.941333-12.288 50.346667-32.938667 65.194667-13.312 9.386667-28.672 14.165333-44.373333 14.165333zM335.530667 307.2c-9.728 0-18.261333 4.266667-23.552 11.605333-2.730667 3.925333-6.997333 12.117333-3.242667 22.869334 20.48 60.757333 65.024 172.714667 132.949333 240.64 68.096 68.096 179.882667 112.469333 240.64 132.949333 10.922667 3.584 18.944-0.512 22.869334-3.242667 7.338667-5.290667 11.605333-13.824 11.605333-23.552v-71.509333c0-0.853333-0.512-1.877333-1.365333-2.218667l-62.293334-34.645333c-0.853333-0.341333-1.706667-0.512-2.389333 0l-66.389333 33.28c-4.949333 2.56-10.752 3.413333-16.213334 2.218667-2.389333-0.512-57.514667-11.434667-102.912-56.832-45.226667-45.226667-56.490667-100.693333-57.002666-102.912-1.024-5.461333-0.341333-11.264 2.218666-16.384L443.733333 373.077333a2.901333 2.901333 0 0 0 0-2.389333l-34.474666-62.122667a2.730667 2.730667 0 0 0-2.389334-1.365333h-71.338666z"  /><path  d="M512 85.333333c235.349333 0 426.666667 191.317333 426.666667 426.666667S747.349333 938.666667 512 938.666667 85.333333 747.349333 85.333333 512 276.650667 85.333333 512 85.333333m0-51.2C248.149333 34.133333 34.133333 248.149333 34.133333 512s214.016 477.866667 477.866667 477.866667 477.866667-214.016 477.866667-477.866667S775.850667 34.133333 512 34.133333z"  /></svg>