<?xml version="1.0" standalone="no"?><!DOCTYPE svg PUBLIC "-//W3C//DTD SVG 1.1//EN" "http://www.w3.org/Graphics/SVG/1.1/DTD/svg11.dtd"><svg class="icon" width="64px" height="64.00px" viewBox="0 0 1024 1024" version="1.1" xmlns="http://www.w3.org/2000/svg"><path  d="M481.28 474.453333c-117.76 0-213.333333-95.573333-213.333333-213.333333S363.52 47.786667 481.28 47.786667s213.333333 95.573333 213.333333 213.333333-95.573333 213.333333-213.333333 213.333333z m0-375.466666c-88.746667 0-162.133333 71.68-162.133333 162.133333s71.68 162.133333 162.133333 162.133333 162.133333-71.68 162.133333-162.133333-73.386667-162.133333-162.133333-162.133333z"  /><path  d="M597.333333 896H59.733333c-13.653333 0-25.6-11.946667-25.6-25.6 0-245.76 199.68-447.146667 447.146667-447.146667 102.4 0 201.386667 35.84 281.6 98.986667 10.24 8.533333 11.946667 25.6 3.413333 35.84-8.533333 10.24-25.6 11.946667-35.84 3.413333-69.973333-56.32-158.72-87.04-249.173333-87.04-209.92 0-382.293333 163.84-395.946667 370.346667h512c13.653333 0 25.6 11.946667 25.6 25.6s-11.946667 25.6-25.6 25.6z"  /><path  d="M759.466667 976.213333c-126.293333 0-230.4-102.4-230.4-230.4s102.4-230.4 230.4-230.4c126.293333 0 230.4 102.4 230.4 230.4s-102.4 230.4-230.4 230.4z m0-409.6c-98.986667 0-179.2 80.213333-179.2 179.2s80.213333 179.2 179.2 179.2S938.666667 844.8 938.666667 745.813333s-80.213333-179.2-179.2-179.2z"  /><path  d="M848.213333 771.413333H670.72c-13.653333 0-25.6-11.946667-25.6-25.6s11.946667-25.6 25.6-25.6h177.493333c13.653333 0 25.6 11.946667 25.6 25.6s-11.946667 25.6-25.6 25.6z"  /></svg>