<?xml version="1.0" standalone="no"?><!DOCTYPE svg PUBLIC "-//W3C//DTD SVG 1.1//EN" "http://www.w3.org/Graphics/SVG/1.1/DTD/svg11.dtd"><svg class="icon" width="64px" height="64.00px" viewBox="0 0 1024 1024" version="1.1" xmlns="http://www.w3.org/2000/svg"><path  d="M845.312 472.746667v440.32H178.858667V472.746667h666.453333m51.2-51.2H127.658667v542.72h768.853333V421.546667z"  /><path  d="M512 989.866667c-14.165333 0-25.6-11.434667-25.6-25.6V421.546667c0-14.165333 11.434667-25.6 25.6-25.6s25.6 11.434667 25.6 25.6v542.72c0 14.165333-11.434667 25.6-25.6 25.6z"  /><path  d="M896.341333 989.866667H127.658667c-14.165333 0-25.6-11.434667-25.6-25.6s11.434667-25.6 25.6-25.6h768.853333c14.165333 0 25.6 11.434667 25.6 25.6s-11.605333 25.6-25.770667 25.6zM913.066667 291.84v78.506667h-802.133334v-78.506667h802.133334m51.2-51.2h-904.533334v180.906667h904.533334V240.64z"  /><path  d="M512 266.24c-6.826667 0-13.312-2.730667-18.090667-7.509333l-180.906666-180.906667c-10.069333-10.069333-10.069333-26.282667 0-36.181333s26.282667-10.069333 36.181333 0L512 204.458667l162.816-162.816c10.069333-10.069333 26.282667-10.069333 36.181333 0s10.069333 26.282667 0 36.181333l-180.906666 180.906667c-4.778667 4.778667-11.264 7.509333-18.090667 7.509333z"  /></svg>