<?xml version="1.0" standalone="no"?><!DOCTYPE svg PUBLIC "-//W3C//DTD SVG 1.1//EN" "http://www.w3.org/Graphics/SVG/1.1/DTD/svg11.dtd"><svg class="icon" width="64px" height="64.00px" viewBox="0 0 1024 1024" version="1.1" xmlns="http://www.w3.org/2000/svg"><path  d="M523.946667 447.146667c-114.346667 0-206.506667-92.16-206.506667-206.506667S409.6 34.133333 523.946667 34.133333s206.506667 92.16 206.506666 206.506667-93.866667 206.506667-206.506666 206.506667z m0-361.813334c-85.333333 0-155.306667 69.973333-155.306667 155.306667s69.973333 155.306667 155.306667 155.306667 155.306667-69.973333 155.306666-155.306667S609.28 85.333333 523.946667 85.333333zM566.613333 989.866667H116.053333c-13.653333 0-25.6-11.946667-25.6-25.6 0-238.933333 194.56-431.786667 431.786667-431.786667 92.16 0 179.2 29.013333 252.586667 81.92 11.946667 8.533333 13.653333 23.893333 5.12 35.84-8.533333 11.946667-23.893333 13.653333-35.84 5.12-64.853333-47.786667-141.653333-71.68-223.573334-71.68-199.68 0-365.226667 157.013333-377.173333 354.986667h423.253333c13.653333 0 25.6 11.946667 25.6 25.6S580.266667 989.866667 566.613333 989.866667z"  /><path  d="M907.946667 971.093333c-6.826667 0-13.653333-1.706667-18.773334-6.826666L682.666667 756.053333c-5.12-5.12-6.826667-11.946667-6.826667-18.773333s1.706667-13.653333 6.826667-18.773333c10.24-10.24 25.6-10.24 35.84 0l206.506666 206.506666c5.12 5.12 6.826667 11.946667 6.826667 18.773334s-1.706667 13.653333-6.826667 18.773333-10.24 8.533333-17.066666 8.533333z"  /><path  d="M699.733333 971.093333c-6.826667 0-13.653333-1.706667-18.773333-6.826666s-6.826667-11.946667-6.826667-18.773334 1.706667-13.653333 6.826667-18.773333L887.466667 720.213333c10.24-10.24 25.6-10.24 35.84 0 5.12 5.12 6.826667 11.946667 6.826666 18.773334s-1.706667 13.653333-6.826666 18.773333l-204.8 204.8c-5.12 5.12-11.946667 8.533333-18.773334 8.533333z"  /></svg>