<?xml version="1.0" standalone="no"?><!DOCTYPE svg PUBLIC "-//W3C//DTD SVG 1.1//EN" "http://www.w3.org/Graphics/SVG/1.1/DTD/svg11.dtd"><svg class="icon" width="64px" height="64.00px" viewBox="0 0 1024 1024" version="1.1" xmlns="http://www.w3.org/2000/svg"><path  d="M512 986.453333c-225.28 0-407.893333-182.613333-407.893333-407.893333S286.72 172.373333 512 172.373333c223.573333 0 406.186667 182.613333 406.186667 406.186667S735.573333 986.453333 512 986.453333z m0-762.88c-196.266667 0-354.986667 160.426667-354.986667 354.986667S315.733333 935.253333 512 935.253333 866.986667 774.826667 866.986667 580.266667 706.56 223.573333 512 223.573333zM645.12 88.746667H377.173333c-13.653333 0-25.6-11.946667-25.6-25.6s11.946667-25.6 25.6-25.6h269.653334c13.653333 0 25.6 11.946667 25.6 25.6s-11.946667 25.6-27.306667 25.6z"  /><path  d="M512 604.16c-13.653333 0-25.6-11.946667-25.6-25.6V399.36c0-13.653333 11.946667-25.6 25.6-25.6s25.6 11.946667 25.6 25.6v179.2c0 15.36-11.946667 25.6-25.6 25.6z"  /><path  d="M691.2 604.16H512c-13.653333 0-25.6-11.946667-25.6-25.6s11.946667-25.6 25.6-25.6h179.2c13.653333 0 25.6 11.946667 25.6 25.6s-11.946667 25.6-25.6 25.6zM512 179.2c-13.653333 0-25.6-11.946667-25.6-25.6V63.146667c0-13.653333 11.946667-25.6 25.6-25.6s25.6 11.946667 25.6 25.6V153.6c0 13.653333-11.946667 25.6-25.6 25.6z"  /></svg>