<?xml version="1.0" standalone="no"?><!DOCTYPE svg PUBLIC "-//W3C//DTD SVG 1.1//EN" "http://www.w3.org/Graphics/SVG/1.1/DTD/svg11.dtd"><svg class="icon" width="64px" height="64.00px" viewBox="0 0 1024 1024" version="1.1" xmlns="http://www.w3.org/2000/svg"><path  d="M513.706667 984.746667C288.426667 984.746667 105.813333 802.133333 105.813333 576.853333 105.813333 353.28 288.426667 170.666667 513.706667 170.666667c223.573333 0 406.186667 182.613333 406.186666 406.186666 0 225.28-182.613333 407.893333-406.186666 407.893334z m0-762.88C317.44 221.866667 157.013333 380.586667 157.013333 576.853333S317.44 931.84 512 931.84c196.266667 0 354.986667-160.426667 354.986667-354.986667 1.706667-196.266667-157.013333-354.986667-353.28-354.986666zM670.72 87.04H356.693333c-13.653333 0-25.6-11.946667-25.6-25.6s11.946667-25.6 25.6-25.6h314.026667c13.653333 0 25.6 11.946667 25.6 25.6s-11.946667 25.6-25.6 25.6z"  /><path  d="M759.466667 288.426667c-6.826667 0-13.653333-1.706667-18.773334-6.826667-10.24-10.24-10.24-25.6 0-35.84l66.56-66.56c10.24-10.24 25.6-10.24 35.84 0s10.24 25.6 0 35.84l-66.56 66.56c-3.413333 5.12-10.24 6.826667-17.066666 6.826667zM513.706667 602.453333c-13.653333 0-25.6-11.946667-25.6-25.6V375.466667c0-13.653333 11.946667-25.6 25.6-25.6s25.6 11.946667 25.6 25.6v201.386666c0 13.653333-11.946667 25.6-25.6 25.6z"  /></svg>