<?xml version="1.0" standalone="no"?><!DOCTYPE svg PUBLIC "-//W3C//DTD SVG 1.1//EN" "http://www.w3.org/Graphics/SVG/1.1/DTD/svg11.dtd"><svg class="icon" width="64px" height="64.00px" viewBox="0 0 1024 1024" version="1.1" xmlns="http://www.w3.org/2000/svg"><path  d="M513.706667 986.453333c-238.933333 0-433.493333-194.56-433.493334-433.493333S274.773333 119.466667 513.706667 119.466667s433.493333 194.56 433.493333 433.493333-194.56 433.493333-433.493333 433.493333z m0-815.786666C302.08 170.666667 131.413333 341.333333 131.413333 552.96s170.666667 382.293333 382.293334 382.293333 382.293333-170.666667 382.293333-382.293333S723.626667 170.666667 513.706667 170.666667z"  /><path  d="M680.96 759.466667c-6.826667 0-13.653333-1.706667-18.773333-6.826667L489.813333 578.56c-5.12-5.12-6.826667-11.946667-6.826666-18.773333V314.026667c0-13.653333 11.946667-25.6 25.6-25.6s25.6 11.946667 25.6 25.6v233.813333l165.546666 165.546667c10.24 10.24 10.24 25.6 0 35.84-5.12 6.826667-11.946667 10.24-18.773333 10.24zM68.266667 199.68c-8.533333 0-15.36-3.413333-20.48-10.24-8.533333-11.946667-5.12-27.306667 5.12-35.84l155.306666-110.933333c11.946667-8.533333 27.306667-5.12 35.84 5.12 8.533333 11.946667 5.12 27.306667-5.12 35.84l-155.306666 110.933333c-5.12 3.413333-10.24 5.12-15.36 5.12zM959.146667 199.68c-5.12 0-10.24-1.706667-15.36-5.12l-155.306667-110.933333c-11.946667-8.533333-13.653333-23.893333-5.12-35.84 8.533333-11.946667 23.893333-13.653333 35.84-5.12L972.8 153.6c11.946667 8.533333 13.653333 23.893333 5.12 35.84-3.413333 6.826667-11.946667 10.24-18.773333 10.24z"  /></svg>