<?xml version="1.0" standalone="no"?><!DOCTYPE svg PUBLIC "-//W3C//DTD SVG 1.1//EN" "http://www.w3.org/Graphics/SVG/1.1/DTD/svg11.dtd"><svg class="icon" width="64px" height="64.00px" viewBox="0 0 1024 1024" version="1.1" xmlns="http://www.w3.org/2000/svg"><path  d="M930.133333 964.266667H158.72c-23.893333 0-44.373333-18.773333-44.373333-42.666667 0-37.546667 10.24-69.973333 30.72-95.573333 17.066667-20.48 42.666667-37.546667 75.093333-51.2 27.306667-11.946667 58.026667-18.773333 83.626667-23.893334l17.066666-3.413333c22.186667-5.12 42.666667-10.24 63.146667-15.36 13.653333-3.413333 20.48-11.946667 25.6-27.306667 1.706667-6.826667 3.413333-15.36 6.826667-25.6-76.8-20.48-133.12-58.026667-168.96-87.04-6.826667-5.12-10.24-11.946667-8.533334-20.48 0-8.533333 3.413333-15.36 10.24-20.48 51.2-37.546667 44.373333-78.506667 37.546667-114.346666 0-5.12-1.706667-8.533333-1.706667-11.946667-18.773333-119.466667-5.12-208.213333 40.96-259.413333 27.306667-32.426667 66.56-49.493333 112.64-51.2 93.866667-66.56 163.84-56.32 206.506667-34.133334 75.093333 37.546667 122.88 139.946667 122.88 259.413334 3.413333 117.76 52.906667 165.546667 83.626667 194.56 5.12 5.12 8.533333 11.946667 8.533333 20.48 0 6.826667-3.413333 13.653333-10.24 18.773333-56.32 44.373333-114.346667 76.8-172.373333 97.28 3.413333 13.653333 5.12 27.306667 8.533333 37.546667 5.12 15.36 11.946667 23.893333 25.6 27.306666 18.773333 5.12 39.253333 10.24 61.44 15.36l17.066667 3.413334c25.6 6.826667 56.32 13.653333 83.626666 23.893333 32.426667 13.653333 58.026667 30.72 75.093334 51.2 22.186667 25.6 32.426667 58.026667 30.72 95.573333-5.12 20.48-25.6 39.253333-49.493334 39.253334z m-766.293333-51.2h759.466667c0-22.186667-6.826667-39.253333-18.773334-54.613334-11.946667-13.653333-29.013333-25.6-54.613333-35.84-23.893333-10.24-52.906667-17.066667-76.8-22.186666l-17.066667-3.413334c-23.893333-5.12-44.373333-10.24-64.853333-17.066666-20.48-6.826667-47.786667-22.186667-59.733333-63.146667-5.12-15.36-10.24-42.666667-13.653334-64.853333-1.706667-11.946667 5.12-23.893333 18.773334-27.306667 51.2-15.36 102.4-40.96 153.6-78.506667-32.426667-35.84-75.093333-97.28-78.506667-208.213333 0-100.693333-37.546667-186.026667-93.866667-215.04-54.613333-27.306667-117.76 3.413333-158.72 34.133333-5.12 3.413333-10.24 5.12-15.36 5.12-34.133333 0-63.146667 11.946667-81.92 34.133334-34.133333 39.253333-44.373333 114.346667-29.013333 218.453333 0 3.413333 1.706667 6.826667 1.706667 10.24 6.826667 34.133333 17.066667 92.16-32.426667 143.36 35.84 25.6 85.333333 51.2 148.48 64.853333 13.653333 3.413333 22.186667 15.36 20.48 29.013334-3.413333 20.48-8.533333 42.666667-11.946667 54.613333-11.946667 40.96-39.253333 58.026667-59.733333 63.146667-20.48 6.826667-42.666667 11.946667-64.853333 17.066666l-17.066667 3.413334c-23.893333 5.12-52.906667 11.946667-76.8 22.186666-23.893333 10.24-42.666667 22.186667-54.613333 35.84-13.653333 15.36-20.48 32.426667-22.186667 54.613334z"  /></svg>