<?xml version="1.0" standalone="no"?><!DOCTYPE svg PUBLIC "-//W3C//DTD SVG 1.1//EN" "http://www.w3.org/Graphics/SVG/1.1/DTD/svg11.dtd"><svg class="icon" width="64px" height="64.00px" viewBox="0 0 1024 1024" version="1.1" xmlns="http://www.w3.org/2000/svg"><path  d="M59.733333 971.093333c-13.653333 0-25.6-11.946667-25.6-25.6v-121.173333c0-17.066667 6.826667-34.133333 20.48-44.373333 35.84-34.133333 76.8-59.733333 122.88-76.8 42.666667-15.36 87.04-23.893333 133.12-29.013334 13.653333-1.706667 27.306667 8.533333 27.306667 23.893334 1.706667 13.653333-8.533333 27.306667-23.893333 27.306666-40.96 3.413333-81.92 11.946667-119.466667 25.6-39.253333 13.653333-75.093333 35.84-104.106667 64.853334l-1.706666 1.706666c-1.706667 1.706667-3.413333 3.413333-3.413334 5.12v121.173334c0 15.36-11.946667 27.306667-25.6 27.306666z"  /><path  d="M561.493333 971.093333c-13.653333 0-25.6-11.946667-25.6-25.6v-121.173333c0-1.706667-1.706667-5.12-3.413333-6.826667l-1.706667-1.706666c-30.72-29.013333-64.853333-51.2-105.813333-64.853334-39.253333-13.653333-78.506667-22.186667-119.466667-25.6-13.653333-1.706667-23.893333-13.653333-23.893333-27.306666s13.653333-23.893333 27.306667-23.893334c44.373333 5.12 88.746667 13.653333 131.413333 29.013334 46.08 17.066667 88.746667 42.666667 122.88 76.8 13.653333 11.946667 20.48 27.306667 20.48 44.373333v121.173333c3.413333 13.653333-8.533333 25.6-22.186667 25.6zM858.453333 923.306667h-153.6c-13.653333 0-25.6-11.946667-25.6-25.6s11.946667-25.6 25.6-25.6h153.6c44.373333 0 80.213333-35.84 80.213334-80.213334V184.32c0-44.373333-35.84-80.213333-80.213334-80.213333H377.173333c-44.373333 0-80.213333 35.84-80.213333 80.213333v117.76c0 13.653333-11.946667 25.6-25.6 25.6s-25.6-11.946667-25.6-25.6v-117.76c0-71.68 59.733333-131.413333 131.413333-131.413333h481.28c71.68 0 131.413333 59.733333 131.413334 131.413333v607.573333c0 71.68-59.733333 131.413333-131.413334 131.413334z"  /><path  d="M817.493333 312.32H392.533333c-13.653333 0-25.6-11.946667-25.6-25.6s11.946667-25.6 25.6-25.6h424.96c13.653333 0 25.6 11.946667 25.6 25.6s-11.946667 25.6-25.6 25.6zM817.493333 496.64h-273.066666c-13.653333 0-25.6-11.946667-25.6-25.6s11.946667-25.6 25.6-25.6h273.066666c13.653333 0 25.6 11.946667 25.6 25.6s-11.946667 25.6-25.6 25.6zM308.906667 723.626667c-88.746667 0-162.133333-73.386667-162.133334-162.133334s73.386667-162.133333 162.133334-162.133333 162.133333 73.386667 162.133333 162.133333-73.386667 162.133333-162.133333 162.133334z m0-273.066667c-61.44 0-110.933333 49.493333-110.933334 110.933333s49.493333 110.933333 110.933334 110.933334 110.933333-49.493333 110.933333-110.933334-49.493333-110.933333-110.933333-110.933333zM554.666667 969.386667c-3.413333 0-8.533333-1.706667-11.946667-3.413334-11.946667-6.826667-17.066667-22.186667-10.24-34.133333l155.306667-295.253333c6.826667-11.946667 22.186667-17.066667 34.133333-10.24s17.066667 22.186667 10.24 34.133333L576.853333 955.733333c-3.413333 8.533333-13.653333 13.653333-22.186666 13.653334z"  /></svg>