<?xml version="1.0" standalone="no"?><!DOCTYPE svg PUBLIC "-//W3C//DTD SVG 1.1//EN" "http://www.w3.org/Graphics/SVG/1.1/DTD/svg11.dtd"><svg class="icon" width="64px" height="64.00px" viewBox="0 0 1024 1024" version="1.1" xmlns="http://www.w3.org/2000/svg"><path  d="M899.413333 738.986667c-13.653333 0-25.6-11.946667-25.6-25.6V648.533333c0-63.146667 1.706667-128-3.413333-191.146666v-10.24c-46.08 20.48-100.693333 42.666667-150.186667 64.853333-34.133333 15.36-66.56 29.013333-93.866666 40.96-6.826667 3.413333-11.946667 5.12-18.773334 6.826667-11.946667 5.12-23.893333 10.24-34.133333 15.36-40.96 23.893333-80.213333 23.893333-124.586667 1.706666-81.92-37.546667-165.546667-73.386667-247.466666-107.52-40.96-17.066667-83.626667-35.84-124.586667-52.906666-15.36-5.12-44.373333-17.066667-44.373333-54.613334s29.013333-49.493333 44.373333-54.613333c30.72-13.653333 61.44-25.6 92.16-39.253333 102.4-42.666667 206.506667-87.04 308.906667-133.12 20.48-8.533333 42.666667-8.533333 63.146666 0 68.266667 30.72 136.533333 58.026667 203.093334 87.04 68.266667 29.013333 136.533333 58.026667 204.8 88.746666 11.946667 5.12 40.96 17.066667 40.96 51.2 0 27.306667-17.066667 47.786667-46.08 52.906667-17.066667 3.413333-22.186667 8.533333-22.186667 39.253333 3.413333 63.146667 3.413333 129.706667 3.413333 192.853334v63.146666c0 17.066667-11.946667 29.013333-25.6 29.013334zM85.333333 361.813333v3.413334c1.706667 1.706667 8.533333 3.413333 11.946667 5.12 42.666667 18.773333 83.626667 35.84 126.293333 52.906666 81.92 34.133333 165.546667 69.973333 249.173334 107.52 30.72 15.36 51.2 15.36 75.093333 1.706667 13.653333-8.533333 27.306667-15.36 42.666667-20.48 5.12-1.706667 10.24-5.12 17.066666-6.826667 27.306667-11.946667 59.733333-25.6 93.866667-40.96 68.266667-29.013333 145.066667-63.146667 199.68-85.333333h1.706667c8.533333-5.12 18.773333-10.24 30.72-13.653333 3.413333 0 5.12-1.706667 5.12-1.706667v-1.706667c-1.706667-1.706667-5.12-1.706667-8.533334-5.12-68.266667-30.72-136.533333-59.733333-204.8-88.746666-68.266667-29.013333-134.826667-58.026667-203.093333-87.04-6.826667-3.413333-15.36-3.413333-22.186667 0-102.4 46.08-206.506667 90.453333-308.906666 133.12-30.72 13.653333-61.44 25.6-92.16 39.253333-5.12 3.413333-11.946667 6.826667-13.653334 8.533333z"  /><path  d="M510.293333 894.293333c-66.56 0-133.12-15.36-197.973333-44.373333-80.213333-34.133333-119.466667-98.986667-110.933333-180.906667v-110.933333c0-6.826667 0-23.893333 15.36-34.133333 15.36-10.24 30.72-3.413333 37.546666 0 39.253333 17.066667 76.8 34.133333 114.346667 49.493333 37.546667 17.066667 76.8 32.426667 114.346667 49.493333 20.48 8.533333 37.546667 8.533333 59.733333 0 42.666667-18.773333 87.04-39.253333 131.413333-58.026666 30.72-13.653333 63.146667-27.306667 93.866667-40.96 8.533333-3.413333 25.6-10.24 40.96 0 15.36 10.24 15.36 29.013333 15.36 37.546666v37.546667c0 23.893333-1.706667 47.786667 0 71.68 6.826667 78.506667-27.306667 134.826667-100.693333 174.08-71.68 32.426667-143.36 49.493333-213.333334 49.493333zM252.586667 578.56v95.573333c-6.826667 59.733333 20.48 102.4 80.213333 129.706667 122.88 56.32 245.76 54.613333 365.226667-5.12 54.613333-29.013333 78.506667-66.56 73.386666-124.586667-1.706667-25.6-1.706667-51.2 0-76.8v-18.773333c-25.6 11.946667-51.2 22.186667-78.506666 34.133333-44.373333 18.773333-88.746667 37.546667-131.413334 58.026667-35.84 13.653333-64.853333 13.653333-98.986666 0-39.253333-17.066667-76.8-34.133333-116.053334-49.493333-30.72-15.36-63.146667-29.013333-93.866666-42.666667z"  /></svg>