<?xml version="1.0" standalone="no"?><!DOCTYPE svg PUBLIC "-//W3C//DTD SVG 1.1//EN" "http://www.w3.org/Graphics/SVG/1.1/DTD/svg11.dtd"><svg class="icon" width="64px" height="64.00px" viewBox="0 0 1024 1024" version="1.1" xmlns="http://www.w3.org/2000/svg"><path  d="M880.64 947.2H117.76c-39.253333 0-69.973333-32.426667-69.973333-69.973333v-494.933334c0-39.253333 32.426667-69.973333 69.973333-69.973333h762.88c39.253333 0 69.973333 32.426667 69.973333 69.973333v493.226667c0 40.96-30.72 71.68-69.973333 71.68zM117.76 363.52c-10.24 0-18.773333 8.533333-18.773333 18.773333v493.226667c0 10.24 8.533333 18.773333 18.773333 18.773333h762.88c10.24 0 18.773333-8.533333 18.773333-18.773333V382.293333c0-10.24-8.533333-18.773333-18.773333-18.773333H117.76z"  /><path  d="M790.186667 363.52c-10.24 0-18.773333-5.12-23.893334-15.36L665.6 126.293333 172.373333 361.813333c-13.653333 6.826667-27.306667 0-34.133333-11.946666-6.826667-11.946667 0-27.306667 11.946667-34.133334L667.306667 68.266667c6.826667-3.413333 13.653333-3.413333 20.48-1.706667 6.826667 1.706667 11.946667 6.826667 15.36 13.653333l112.64 247.466667c5.12 13.653333 0 27.306667-11.946667 34.133333-5.12 1.706667-10.24 1.706667-13.653333 1.706667z"  /><path  d="M252.586667 494.933333m-44.373334 0a44.373333 44.373333 0 1 0 88.746667 0 44.373333 44.373333 0 1 0-88.746667 0Z"  /><path  d="M252.586667 629.76m-44.373334 0a44.373333 44.373333 0 1 0 88.746667 0 44.373333 44.373333 0 1 0-88.746667 0Z"  /><path  d="M252.586667 764.586667m-44.373334 0a44.373333 44.373333 0 1 0 88.746667 0 44.373333 44.373333 0 1 0-88.746667 0Z"  /><path  d="M520.533333 790.186667h-90.453333c-13.653333 0-25.6-11.946667-25.6-25.6s11.946667-25.6 25.6-25.6h78.506667l238.933333-261.12c10.24-10.24 25.6-11.946667 35.84-1.706667 10.24 10.24 11.946667 25.6 1.706667 35.84L541.013333 781.653333c-5.12 5.12-11.946667 8.533333-20.48 8.533334z"  /><path  d="M633.173333 655.36h-134.826666c-13.653333 0-25.6-11.946667-25.6-25.6s11.946667-25.6 25.6-25.6h134.826666c13.653333 0 25.6 11.946667 25.6 25.6s-10.24 25.6-25.6 25.6z"  /></svg>