<?xml version="1.0" standalone="no"?><!DOCTYPE svg PUBLIC "-//W3C//DTD SVG 1.1//EN" "http://www.w3.org/Graphics/SVG/1.1/DTD/svg11.dtd"><svg class="icon" width="64px" height="64.00px" viewBox="0 0 1024 1024" version="1.1" xmlns="http://www.w3.org/2000/svg"><path  d="M416.426667 307.2l-10.24 83.626667c-1.706667 5.12-5.12 10.24-8.533334 13.653333-5.12 3.413333-8.533333 5.12-11.946666 5.12h-92.16l-8.533334 51.2h-49.493333l18.773333-146.773333-8.533333-6.826667h170.666667z m-112.64 25.6l-5.12 49.493333h54.613333l8.533333-49.493333h-58.026666zM465.92 460.8l18.773333-128H426.666667l3.413333-25.6H597.333333l-5.12 25.6h-54.613333L517.12 460.8h-51.2zM788.48 307.2l-10.24 78.506667c0 3.413333 0 5.12-1.706667 6.826666l-5.12 5.12c-1.706667 1.706667-3.413333 3.413333-6.826666 3.413334-1.706667 1.706667-5.12 1.706667-8.533334 1.706666h-34.133333l54.613333 58.026667h-58.026666L665.6 402.773333l-5.12 58.026667h-52.906667l18.773334-143.36-8.533334-10.24h170.666667z m-112.64 25.6l-5.12 44.373333h58.026667l5.12-44.373333h-58.026667z"  /><path  d="M745.813333 626.346667H278.186667c-13.653333 0-25.6-11.946667-25.6-25.6s11.946667-25.6 25.6-25.6h467.626666c13.653333 0 25.6 11.946667 25.6 25.6s-11.946667 25.6-25.6 25.6zM745.813333 752.64H278.186667c-13.653333 0-25.6-11.946667-25.6-25.6s11.946667-25.6 25.6-25.6h467.626666c13.653333 0 25.6 11.946667 25.6 25.6s-11.946667 25.6-25.6 25.6z"  /><path  d="M896 921.6h-768c-51.2 0-93.866667-42.666667-93.866667-93.866667v-631.466666C34.133333 145.066667 76.8 102.4 128 102.4h768c51.2 0 93.866667 42.666667 93.866667 93.866667v631.466666c0 51.2-42.666667 93.866667-93.866667 93.866667zM128 153.6C104.106667 153.6 85.333333 172.373333 85.333333 196.266667v631.466666C85.333333 851.626667 104.106667 870.4 128 870.4h768c23.893333 0 42.666667-18.773333 42.666667-42.666667v-631.466666c0-23.893333-18.773333-42.666667-42.666667-42.666667h-768z"  /></svg>