<?xml version="1.0" standalone="no"?><!DOCTYPE svg PUBLIC "-//W3C//DTD SVG 1.1//EN" "http://www.w3.org/Graphics/SVG/1.1/DTD/svg11.dtd"><svg class="icon" width="64px" height="64.00px" viewBox="0 0 1024 1024" version="1.1" xmlns="http://www.w3.org/2000/svg"><path  d="M897.194667 137.898667h-123.221334V104.448c0-14.165333-11.434667-25.6-25.6-25.6s-25.6 11.434667-25.6 25.6v33.450667h-421.546666V104.448c0-14.165333-11.434667-25.6-25.6-25.6s-25.6 11.434667-25.6 25.6v33.450667H126.805333c-51.2 0-92.672 41.472-92.672 92.672v619.690666c0 51.029333 41.472 92.672 92.672 92.672h446.805334c14.165333 0 25.6-11.434667 25.6-25.6s-11.434667-25.6-25.6-25.6H126.805333C103.936 891.733333 85.333333 873.130667 85.333333 850.261333v-469.333333h853.333334v144.384c0 14.165333 11.434667 25.6 25.6 25.6s25.6-11.434667 25.6-25.6V230.570667c0-51.2-41.472-92.672-92.672-92.672zM85.333333 329.898667v-99.328c0-22.869333 18.602667-41.472 41.472-41.472h123.221334v50.346666c0 14.165333 11.434667 25.6 25.6 25.6s25.6-11.434667 25.6-25.6v-50.346666h421.717333v50.346666c0 14.165333 11.434667 25.6 25.6 25.6s25.6-11.434667 25.6-25.6v-50.346666h123.221333c22.869333 0 41.472 18.602667 41.472 41.472v99.328H85.333333z"  /><path  d="M373.930667 488.106667H197.802667c-14.165333 0-25.6 11.434667-25.6 25.6s11.434667 25.6 25.6 25.6h176.128c14.165333 0 25.6-11.434667 25.6-25.6s-11.434667-25.6-25.6-25.6zM802.816 513.706667c0-14.165333-11.434667-25.6-25.6-25.6H601.088c-14.165333 0-25.6 11.434667-25.6 25.6s11.434667 25.6 25.6 25.6h176.128c14.165333 0 25.6-11.434667 25.6-25.6zM373.930667 704.512H197.802667c-14.165333 0-25.6 11.434667-25.6 25.6s11.434667 25.6 25.6 25.6h176.128c14.165333 0 25.6-11.434667 25.6-25.6s-11.434667-25.6-25.6-25.6zM796.672 593.066667c-106.496 0-193.024 86.698667-193.024 193.194666s86.698667 193.024 193.024 193.024S989.866667 892.757333 989.866667 786.261333s-86.698667-193.194667-193.194667-193.194666z m0 335.018666c-78.165333 0-141.824-63.658667-141.824-141.824s63.658667-141.994667 141.824-141.994666S938.666667 707.925333 938.666667 786.261333s-63.658667 141.824-141.994667 141.824z"  /><path  d="M870.741333 773.973333h-48.298666v-59.392c0-14.165333-11.434667-25.6-25.6-25.6s-25.6 11.434667-25.6 25.6v84.992c0 14.165333 11.434667 25.6 25.6 25.6h73.898666c14.165333 0 25.6-11.434667 25.6-25.6s-11.434667-25.6-25.6-25.6z"  /></svg>