<?xml version="1.0" standalone="no"?><!DOCTYPE svg PUBLIC "-//W3C//DTD SVG 1.1//EN" "http://www.w3.org/Graphics/SVG/1.1/DTD/svg11.dtd"><svg class="icon" width="64px" height="64.00px" viewBox="0 0 1024 1024" version="1.1" xmlns="http://www.w3.org/2000/svg"><path  d="M897.194667 139.093333h-123.221334V105.472c0-14.165333-11.434667-25.6-25.6-25.6s-25.6 11.434667-25.6 25.6v33.450667h-421.546666V105.472c0-14.165333-11.434667-25.6-25.6-25.6s-25.6 11.434667-25.6 25.6v33.450667H126.805333C75.605333 139.093333 34.133333 180.565333 34.133333 231.594667v619.861333c0 51.029333 41.472 92.672 92.672 92.672h770.56c51.029333 0 92.672-41.472 92.672-92.672V231.594667a92.859733 92.859733 0 0 0-92.842666-92.501334zM938.666667 851.456c0 22.869333-18.602667 41.472-41.472 41.472H126.805333C103.936 892.928 85.333333 874.325333 85.333333 851.456V231.594667c0-22.869333 18.602667-41.472 41.472-41.472h123.221334v50.346666c0 14.165333 11.434667 25.6 25.6 25.6s25.6-11.434667 25.6-25.6v-50.346666h421.717333v50.346666c0 14.165333 11.434667 25.6 25.6 25.6s25.6-11.434667 25.6-25.6v-50.346666h123.221333c22.869333 0 41.472 18.602667 41.472 41.472v619.861333z"  /><path  d="M702.122667 639.658667c8.533333-12.629333 13.653333-27.989333 13.653333-44.373334 0-43.861333-35.669333-79.36-79.36-79.36s-79.36 35.669333-79.36 79.36c0 16.384 4.949333 31.744 13.653333 44.373334-47.786667 24.234667-80.896 73.728-80.896 130.901333 0 14.165333 11.434667 25.6 25.6 25.6s25.6-11.434667 25.6-25.6a95.573333 95.573333 0 0 1 95.402667-95.402667 95.573333 95.573333 0 0 1 95.402667 95.402667c0 14.165333 11.434667 25.6 25.6 25.6s25.6-11.434667 25.6-25.6c0-57.344-32.938667-106.837333-80.896-130.901333z m-65.706667-72.704c15.530667 0 28.16 12.629333 28.16 28.16s-12.629333 28.16-28.16 28.16-28.16-12.629333-28.16-28.16 12.629333-28.16 28.16-28.16zM515.584 624.810667c-5.632-12.970667-20.821333-18.773333-33.792-13.141334-17.066667 7.509333-35.328 11.264-54.272 11.264-74.581333 0-135.338667-60.757333-135.338667-135.338666s60.757333-135.338667 135.338667-135.338667c66.218667 0 122.368 47.274667 133.461333 112.469333 2.389333 13.994667 15.701333 23.381333 29.525334 20.992 13.994667-2.389333 23.381333-15.530667 20.992-29.525333-15.189333-89.941333-92.672-155.136-183.978667-155.136-102.912 0-186.538667 83.626667-186.538667 186.538667s83.626667 186.538667 186.538667 186.538666c26.112 0 51.2-5.290667 74.752-15.701333 12.970667-5.461333 18.944-20.650667 13.312-33.621333z"  /><path  d="M406.528 422.741333v49.834667l-51.712 12.970667c-13.653333 3.413333-22.016 17.408-18.602667 31.061333 2.901333 11.605333 13.312 19.285333 24.746667 19.285333 2.048 0 4.096-0.170667 6.314667-0.682666l70.997333-17.92c11.434667-2.901333 19.285333-13.141333 19.285333-24.917334v-69.802666c0-14.165333-11.434667-25.6-25.6-25.6s-25.429333 11.605333-25.429333 25.770666z"  /></svg>