<?xml version="1.0" standalone="no"?><!DOCTYPE svg PUBLIC "-//W3C//DTD SVG 1.1//EN" "http://www.w3.org/Graphics/SVG/1.1/DTD/svg11.dtd"><svg class="icon" width="64px" height="64.00px" viewBox="0 0 1024 1024" version="1.1" xmlns="http://www.w3.org/2000/svg"><path  d="M464.213333 922.794667C226.986667 922.794667 34.133333 729.941333 34.133333 492.714667s192.853333-430.08 430.08-430.08c170.154667 0 324.778667 100.693333 393.557334 256.341333 14.336 32.256 24.576 66.389333 30.378666 101.205333 2.389333 13.994667-6.997333 27.136-20.992 29.525334-13.824 2.389333-27.136-6.997333-29.525333-20.992-5.290667-30.72-14.165333-60.586667-26.794667-89.088A379.272533 379.272533 0 0 0 464.213333 113.834667C255.317333 113.834667 85.333333 283.818667 85.333333 492.714667s169.984 378.88 378.88 378.88c14.165333 0 25.6 11.434667 25.6 25.6s-11.434667 25.6-25.6 25.6z"  /><path  d="M297.301333 575.488c-11.434667 0-21.845333-7.68-24.746666-19.285333-3.413333-13.653333 4.949333-27.648 18.602666-31.061334l159.232-40.106666V329.386667c0-14.165333 11.434667-25.6 25.6-25.6s25.6 11.434667 25.6 25.6v175.445333c0 11.776-8.021333 22.016-19.285333 24.917333l-178.688 44.885334c-2.218667 0.682667-4.266667 0.853333-6.314667 0.853333z"  /><path  d="M757.76 961.365333c-128 0-232.106667-104.106667-232.106667-232.106666s104.106667-232.106667 232.106667-232.106667S989.866667 601.258667 989.866667 729.258667s-104.106667 232.106667-232.106667 232.106666z m0-413.013333c-99.669333 0-180.906667 81.066667-180.906667 180.906667s81.066667 180.906667 180.906667 180.906666c99.669333 0 180.906667-81.066667 180.906667-180.906666s-81.066667-180.906667-180.906667-180.906667z"  /><path  d="M803.328 754.858667h-91.136c-14.165333 0-25.6-11.434667-25.6-25.6s11.434667-25.6 25.6-25.6h91.136c14.165333 0 25.6 11.434667 25.6 25.6s-11.434667 25.6-25.6 25.6z"  /></svg>