<?xml version="1.0" standalone="no"?><!DOCTYPE svg PUBLIC "-//W3C//DTD SVG 1.1//EN" "http://www.w3.org/Graphics/SVG/1.1/DTD/svg11.dtd"><svg class="icon" width="64px" height="64.00px" viewBox="0 0 1024 1024" version="1.1" xmlns="http://www.w3.org/2000/svg"><path  d="M512 989.866667C249.173333 989.866667 34.133333 774.826667 34.133333 512S249.173333 34.133333 512 34.133333s477.866667 215.04 477.866667 477.866667-215.04 477.866667-477.866667 477.866667z m0-904.533334C276.48 85.333333 85.333333 276.48 85.333333 512s191.146667 426.666667 426.666667 426.666667 426.666667-191.146667 426.666667-426.666667S747.52 85.333333 512 85.333333z"  /><path  d="M648.533333 493.226667H375.466667c-13.653333 0-25.6-11.946667-25.6-25.6s11.946667-25.6 25.6-25.6h273.066666c13.653333 0 25.6 11.946667 25.6 25.6s-11.946667 25.6-25.6 25.6zM648.533333 628.053333H375.466667c-13.653333 0-25.6-11.946667-25.6-25.6s11.946667-25.6 25.6-25.6h273.066666c13.653333 0 25.6 11.946667 25.6 25.6s-11.946667 25.6-25.6 25.6z"  /><path  d="M512 762.88c-13.653333 0-25.6-11.946667-25.6-25.6V467.626667c0-13.653333 11.946667-25.6 25.6-25.6s25.6 11.946667 25.6 25.6v271.36c0 13.653333-11.946667 23.893333-25.6 23.893333z"  /><path  d="M512 469.333333c-6.826667 0-13.653333-1.706667-18.773333-6.826666l-136.533334-136.533334c-10.24-10.24-10.24-25.6 0-35.84s25.6-10.24 35.84 0l117.76 117.76 117.76-117.76c10.24-10.24 25.6-10.24 35.84 0s10.24 25.6 0 35.84l-136.533333 136.533334c-1.706667 5.12-8.533333 6.826667-15.36 6.826666z"  /></svg>