<?xml version="1.0" standalone="no"?><!DOCTYPE svg PUBLIC "-//W3C//DTD SVG 1.1//EN" "http://www.w3.org/Graphics/SVG/1.1/DTD/svg11.dtd"><svg class="icon" width="64px" height="64.00px" viewBox="0 0 1024 1024" version="1.1" xmlns="http://www.w3.org/2000/svg"><path  d="M839.168 989.866667H184.832c-50.176 0-90.965333-45.226667-90.965333-101.034667V135.168C93.866667 79.36 134.656 34.133333 184.832 34.133333h654.165333c50.176 0 90.965333 45.226667 90.965334 101.034667v753.834667c0.170667 55.637333-40.618667 100.864-90.794667 100.864zM184.832 85.333333C162.986667 85.333333 145.066667 107.690667 145.066667 135.168v753.834667c0 27.477333 17.92 49.834667 39.765333 49.834666h654.165333c22.016 0 39.765333-22.357333 39.765334-49.834666V135.168C878.933333 107.690667 861.013333 85.333333 839.168 85.333333H184.832z"  /><path  d="M671.914667 751.274667H351.914667c-25.941333 0-46.933333-20.992-46.933334-46.933334V512.341333c0-25.941333 20.992-46.933333 46.933334-46.933333h320c25.941333 0 46.933333 20.992 46.933333 46.933333v192c0 25.770667-20.992 46.933333-46.933333 46.933334z m-315.733334-51.2h311.466667V516.608H356.181333v183.466667z"  /><path  d="M405.333333 515.925333c-14.165333 0-25.6-11.434667-25.6-25.6v-85.333333c0-68.266667 51.541333-124.757333 119.978667-131.584 68.266667-6.997333 130.389333 38.4 144.042667 105.130667 2.901333 13.824-6.144 27.306667-19.968 30.208-13.824 2.730667-27.306667-6.144-30.208-19.968-8.362667-40.96-46.762667-68.778667-88.746667-64.512-42.154667 4.266667-73.898667 38.912-73.898667 80.725333v85.333333c0 14.165333-11.434667 25.6-25.6 25.6zM512 665.258667c-14.165333 0-25.6-11.434667-25.6-25.6v-64c0-14.165333 11.434667-25.6 25.6-25.6s25.6 11.434667 25.6 25.6v64c0 14.165333-11.434667 25.6-25.6 25.6z"  /></svg>