<?xml version="1.0" standalone="no"?><!DOCTYPE svg PUBLIC "-//W3C//DTD SVG 1.1//EN" "http://www.w3.org/Graphics/SVG/1.1/DTD/svg11.dtd"><svg class="icon" width="64px" height="64.00px" viewBox="0 0 1024 1024" version="1.1" xmlns="http://www.w3.org/2000/svg"><path  d="M421.376 938.666667H202.24c-22.016 0-40.106667-17.92-40.106667-40.106667V125.44C162.133333 103.253333 180.053333 85.333333 202.24 85.333333h619.52c22.016 0 40.106667 17.92 40.106667 40.106667v222.208c0 14.165333 11.434667 25.6 25.6 25.6s25.6-11.434667 25.6-25.6V125.44C913.066667 75.093333 872.106667 34.133333 821.76 34.133333h-619.52C151.893333 34.133333 110.933333 75.093333 110.933333 125.44v773.12C110.933333 948.906667 151.893333 989.866667 202.24 989.866667h219.136c14.165333 0 25.6-11.434667 25.6-25.6s-11.434667-25.6-25.6-25.6z"  /><path  d="M699.904 206.506667c0-14.165333-11.434667-25.6-25.6-25.6H264.362667c-14.165333 0-25.6 11.434667-25.6 25.6s11.434667 25.6 25.6 25.6h409.941333c14.165333 0 25.6-11.434667 25.6-25.6zM264.362667 319.658667c-14.165333 0-25.6 11.434667-25.6 25.6s11.434667 25.6 25.6 25.6h135.168c14.165333 0 25.6-11.434667 25.6-25.6s-11.434667-25.6-25.6-25.6h-135.168zM849.237333 590.506667h-94.549333v-38.4c0-14.165333-11.434667-25.6-25.6-25.6h-64.170667c-14.165333 0-25.6 11.434667-25.6 25.6v38.4h-94.549333c-14.165333 0-25.6 11.434667-25.6 25.6v64.170666c0 13.653333 10.581333 24.576 24.064 25.429334v119.466666c0 14.165333 11.434667 25.6 25.6 25.6H825.344c14.165333 0 25.6-11.434667 25.6-25.6v-119.466666a25.6 25.6 0 0 0 24.064-25.429334V616.106667c-0.170667-14.165333-11.605333-25.6-25.770667-25.6z m-278.698666 51.2h94.549333c14.165333 0 25.6-11.434667 25.6-25.6v-38.4h12.970667v38.4c0 14.165333 11.434667 25.6 25.6 25.6h94.549333v12.970666H570.538667v-12.970666z m216.234666 157.866666v-23.210666c0-14.165333-11.434667-25.6-25.6-25.6s-25.6 11.434667-25.6 25.6v23.210666h-12.8v-23.210666c0-14.165333-11.434667-25.6-25.6-25.6s-25.6 11.434667-25.6 25.6v23.210666h-12.8v-23.210666c0-14.165333-11.434667-25.6-25.6-25.6s-25.6 11.434667-25.6 25.6v23.210666h-12.970666V706.56h205.141333v93.013333h-12.970667z"  /><path  d="M697.173333 387.242667c-166.058667 0-301.226667 135.168-301.226666 301.226666S530.944 989.866667 697.173333 989.866667 998.4 854.698667 998.4 688.64s-135.168-301.397333-301.226667-301.397333z m0 551.424c-137.898667 0-250.026667-112.128-250.026666-250.026667S559.274667 438.613333 697.173333 438.613333 947.2 550.741333 947.2 688.64 835.072 938.666667 697.173333 938.666667z"  /></svg>