<?xml version="1.0" standalone="no"?><!DOCTYPE svg PUBLIC "-//W3C//DTD SVG 1.1//EN" "http://www.w3.org/Graphics/SVG/1.1/DTD/svg11.dtd"><svg class="icon" width="64px" height="64.00px" viewBox="0 0 1024 1024" version="1.1" xmlns="http://www.w3.org/2000/svg"><path  d="M918.528 64.341333H451.413333c-39.253333 0-71.338667 32.938667-71.338666 73.386667v171.52c-1.024 0-2.048-0.170667-3.072-0.170667-91.818667 0-166.570667 74.752-166.570667 166.570667 0 53.248 25.088 100.522667 64.170667 131.072C135.338667 650.410667 34.133333 780.629333 34.133333 934.058667c0 14.165333 11.434667 25.6 25.6 25.6h634.538667c14.165333 0 25.6-11.434667 25.6-25.6 0-68.437333-20.309333-132.096-54.954667-185.685334h253.610667c39.253333 0 71.338667-32.938667 71.338667-73.386666V137.728c0-40.448-31.914667-73.386667-71.338667-73.386667z m-656.896 411.306667c0-63.658667 51.712-115.370667 115.370667-115.370667s115.370667 51.712 115.370666 115.370667-51.712 115.370667-115.370666 115.370667c-63.658667 0.170667-115.370667-51.712-115.370667-115.370667zM86.528 908.458667c12.970667-148.821333 138.410667-266.069333 290.645333-266.069334s277.504 117.248 290.645334 266.069334H86.528zM938.666667 674.986667c0 12.288-9.045333 22.186667-20.138667 22.186666H624.469333a344.132267 344.132267 0 0 0-144.896-90.453333c38.912-30.549333 64.170667-77.824 64.170667-131.072 0-72.874667-47.104-134.826667-112.298667-157.354667V137.728c0-12.288 9.045333-22.186667 20.138667-22.186667h467.285333c11.093333 0 20.138667 9.898667 20.138667 22.186667v537.258667z"  /><path  d="M868.864 216.746667H607.402667c-14.165333 0-25.6 11.434667-25.6 25.6s11.434667 25.6 25.6 25.6h261.461333c14.165333 0 25.6-11.434667 25.6-25.6s-11.434667-25.6-25.6-25.6zM868.864 335.36H607.402667c-14.165333 0-25.6 11.434667-25.6 25.6s11.434667 25.6 25.6 25.6h261.461333c14.165333 0 25.6-11.434667 25.6-25.6s-11.434667-25.6-25.6-25.6zM868.864 453.973333h-93.354667c-14.165333 0-25.6 11.434667-25.6 25.6s11.434667 25.6 25.6 25.6h93.354667c14.165333 0 25.6-11.434667 25.6-25.6s-11.434667-25.6-25.6-25.6z"  /></svg>