<?xml version="1.0" standalone="no"?><!DOCTYPE svg PUBLIC "-//W3C//DTD SVG 1.1//EN" "http://www.w3.org/Graphics/SVG/1.1/DTD/svg11.dtd"><svg class="icon" width="64px" height="64.00px" viewBox="0 0 1024 1024" version="1.1" xmlns="http://www.w3.org/2000/svg"><path  d="M839.168 989.866667H184.832c-50.176 0-90.965333-45.226667-90.965333-101.034667V135.168C93.866667 79.36 134.656 34.133333 184.832 34.133333h654.165333c50.176 0 90.965333 45.226667 90.965334 101.034667v753.834667c0.170667 55.637333-40.618667 100.864-90.794667 100.864zM184.832 85.333333C162.986667 85.333333 145.066667 107.690667 145.066667 135.168v753.834667c0 27.477333 17.92 49.834667 39.765333 49.834666h654.165333c22.016 0 39.765333-22.357333 39.765334-49.834666V135.168C878.933333 107.690667 861.013333 85.333333 839.168 85.333333H184.832z"  /><path  d="M533.674667 713.386667c-6.144 0-12.458667-2.218667-17.408-6.826667-10.410667-9.557333-11.093333-25.770667-1.365334-36.181333l186.197334-201.728a25.6 25.6 0 0 1 36.181333-1.365334c10.410667 9.557333 11.093333 25.770667 1.365333 36.181334L552.448 705.194667c-4.949333 5.461333-11.776 8.192-18.773333 8.192z"  /><path  d="M673.28 697.856c-6.485333 0-13.141333-2.56-18.090667-7.509333l-62.122666-62.122667c-10.069333-10.069333-10.069333-26.282667 0-36.181333s26.282667-10.069333 36.181333 0l62.122667 62.122666c10.069333 10.069333 10.069333 26.282667 0 36.181334-4.949333 5.12-11.434667 7.509333-18.090667 7.509333zM750.933333 620.373333c-6.485333 0-13.141333-2.56-18.090666-7.509333l-62.122667-62.122667c-10.069333-10.069333-10.069333-26.282667 0-36.181333s26.282667-10.069333 36.181333 0l62.122667 62.122667c10.069333 10.069333 10.069333 26.282667 0 36.181333-4.949333 4.949333-11.605333 7.509333-18.090667 7.509333zM487.253333 852.992c-56.832 0-103.253333-46.250667-103.253333-103.082667s46.250667-103.253333 103.253333-103.253333c56.832 0 103.082667 46.250667 103.082667 103.253333 0 56.832-46.250667 103.082667-103.082667 103.082667z m0-155.136c-28.672 0-52.053333 23.381333-52.053333 52.053333a51.968 51.968 0 0 0 103.936 0c0-28.672-23.381333-52.053333-51.882667-52.053333z"  /><path  d="M576.341333 281.429333H286.72c-14.165333 0-25.6-11.434667-25.6-25.6s11.434667-25.6 25.6-25.6h289.621333c14.165333 0 25.6 11.434667 25.6 25.6s-11.434667 25.6-25.6 25.6z"  /><path  d="M477.866667 420.010667H286.72c-14.165333 0-25.6-11.434667-25.6-25.6s11.434667-25.6 25.6-25.6H477.866667c14.165333 0 25.6 11.434667 25.6 25.6s-11.434667 25.6-25.6 25.6z"  /></svg>