<?xml version="1.0" standalone="no"?><!DOCTYPE svg PUBLIC "-//W3C//DTD SVG 1.1//EN" "http://www.w3.org/Graphics/SVG/1.1/DTD/svg11.dtd"><svg class="icon" width="64px" height="64.00px" viewBox="0 0 1024 1024" version="1.1" xmlns="http://www.w3.org/2000/svg"><path  d="M889.173333 989.866667H134.826667C80.213333 989.866667 34.133333 943.786667 34.133333 889.173333V134.826667C34.133333 80.213333 80.213333 34.133333 134.826667 34.133333h754.346666C943.786667 34.133333 989.866667 80.213333 989.866667 134.826667v754.346666c0 54.613333-46.08 100.693333-100.693334 100.693334zM134.826667 85.333333C107.52 85.333333 85.333333 107.52 85.333333 134.826667v754.346666C85.333333 916.48 107.52 938.666667 134.826667 938.666667h754.346666c27.306667 0 49.493333-22.186667 49.493334-49.493334V134.826667C938.666667 107.52 916.48 85.333333 889.173333 85.333333H134.826667z"  /><path  d="M247.466667 684.373333c-6.826667 0-13.653333-1.706667-18.773334-6.826666-10.24-10.24-10.24-25.6 0-35.84l141.653334-141.653334c10.24-10.24 25.6-10.24 35.84 0l92.16 92.16 247.466666-249.173333c10.24-10.24 25.6-10.24 35.84 0 10.24 10.24 10.24 25.6 0 35.84L517.12 645.12c-5.12 5.12-11.946667 6.826667-18.773333 6.826667-6.826667 0-13.653333-3.413333-18.773334-6.826667l-92.16-92.16-124.586666 124.586667c-3.413333 3.413333-10.24 6.826667-15.36 6.826666z"  /><path  d="M762.88 587.093333c-13.653333 0-25.6-11.946667-25.6-25.6V387.413333H561.493333c-13.653333 0-25.6-11.946667-25.6-25.6s11.946667-25.6 25.6-25.6h201.386667c13.653333 0 25.6 11.946667 25.6 25.6V563.2c0 13.653333-10.24 23.893333-25.6 23.893333z"  /><path  d="M889.173333 989.866667H134.826667C80.213333 989.866667 34.133333 943.786667 34.133333 889.173333V134.826667C34.133333 80.213333 80.213333 34.133333 134.826667 34.133333h754.346666C943.786667 34.133333 989.866667 80.213333 989.866667 134.826667v754.346666c0 54.613333-46.08 100.693333-100.693334 100.693334zM134.826667 85.333333C107.52 85.333333 85.333333 107.52 85.333333 134.826667v754.346666C85.333333 916.48 107.52 938.666667 134.826667 938.666667h754.346666c27.306667 0 49.493333-22.186667 49.493334-49.493334V134.826667C938.666667 107.52 916.48 85.333333 889.173333 85.333333H134.826667z"  /><path  d="M247.466667 684.373333c-6.826667 0-13.653333-1.706667-18.773334-6.826666-10.24-10.24-10.24-25.6 0-35.84l141.653334-141.653334c10.24-10.24 25.6-10.24 35.84 0l92.16 92.16 245.76-247.466666c10.24-10.24 25.6-10.24 35.84 0 10.24 10.24 10.24 25.6 0 35.84L517.12 645.12c-5.12 5.12-11.946667 6.826667-18.773333 6.826667-6.826667 0-13.653333-3.413333-18.773334-6.826667l-92.16-92.16-124.586666 124.586667c-3.413333 3.413333-10.24 6.826667-15.36 6.826666z"  /><path  d="M762.88 587.093333c-13.653333 0-25.6-11.946667-25.6-25.6V387.413333H561.493333c-13.653333 0-25.6-11.946667-25.6-25.6s11.946667-25.6 25.6-25.6h201.386667c13.653333 0 25.6 11.946667 25.6 25.6V563.2c0 13.653333-10.24 23.893333-25.6 23.893333z"  /></svg>