<?xml version="1.0" standalone="no"?><!DOCTYPE svg PUBLIC "-//W3C//DTD SVG 1.1//EN" "http://www.w3.org/Graphics/SVG/1.1/DTD/svg11.dtd"><svg class="icon" width="64px" height="64.00px" viewBox="0 0 1024 1024" version="1.1" xmlns="http://www.w3.org/2000/svg"><path  d="M964.266667 989.866667h-904.533334c-13.653333 0-25.6-11.946667-25.6-25.6S46.08 938.666667 59.733333 938.666667h904.533334c13.653333 0 25.6 11.946667 25.6 25.6s-11.946667 25.6-25.6 25.6zM240.64 853.333333H59.733333c-13.653333 0-25.6-10.24-25.6-25.6V558.08c0-8.533333 3.413333-15.36 10.24-20.48 6.826667-5.12 13.653333-6.826667 22.186667-5.12l180.906667 44.373333c11.946667 3.413333 18.773333 13.653333 18.773333 25.6v226.986667c0 13.653333-11.946667 23.893333-25.6 23.893333zM85.333333 802.133333h129.706667V622.933333L85.333333 590.506667V802.133333zM602.453333 853.333333H421.546667c-13.653333 0-25.6-11.946667-25.6-25.6V512c0-10.24 5.12-18.773333 13.653333-22.186667l180.906667-90.453333c8.533333-3.413333 17.066667-3.413333 25.6 1.706667s11.946667 13.653333 11.946666 22.186666v406.186667c0 13.653333-11.946667 23.893333-25.6 23.893333z m-155.306666-51.2h129.706666V462.506667l-129.706666 64.853333V802.133333zM964.266667 853.333333H783.36c-13.653333 0-25.6-11.946667-25.6-25.6V331.093333c0-10.24 5.12-18.773333 13.653333-22.186666l180.906667-90.453334c8.533333-3.413333 17.066667-3.413333 25.6 1.706667 6.826667 5.12 11.946667 13.653333 11.946667 22.186667v587.093333c0 13.653333-11.946667 23.893333-25.6 23.893333z m-155.306667-51.2H938.666667V281.6l-129.706667 64.853333V802.133333zM240.64 447.146667h-6.826667L52.906667 401.066667c-13.653333-3.413333-22.186667-17.066667-18.773334-30.72 3.413333-13.653333 17.066667-22.186667 30.72-18.773334l172.373334 42.666667L855.04 85.333333h-117.76c-13.653333 0-25.6-11.946667-25.6-25.6S723.626667 34.133333 738.986667 34.133333h226.986666c11.946667 0 22.186667 8.533333 25.6 20.48 3.413333 11.946667-3.413333 23.893333-13.653333 29.013334L252.586667 443.733333c-3.413333 1.706667-8.533333 3.413333-11.946667 3.413334z"  /></svg>