<?xml version="1.0" standalone="no"?><!DOCTYPE svg PUBLIC "-//W3C//DTD SVG 1.1//EN" "http://www.w3.org/Graphics/SVG/1.1/DTD/svg11.dtd"><svg class="icon" width="64px" height="64.00px" viewBox="0 0 1024 1024" version="1.1" xmlns="http://www.w3.org/2000/svg"><path  d="M102.4 211.626667m-59.733333 0a59.733333 59.733333 0 1 0 119.466666 0 59.733333 59.733333 0 1 0-119.466666 0Z"  /><path  d="M947.2 237.226667H288.426667c-13.653333 0-25.6-11.946667-25.6-25.6s11.946667-25.6 25.6-25.6h658.773333c13.653333 0 25.6 11.946667 25.6 25.6s-11.946667 25.6-25.6 25.6z"  /><path  d="M102.4 512m-59.733333 0a59.733333 59.733333 0 1 0 119.466666 0 59.733333 59.733333 0 1 0-119.466666 0Z"  /><path  d="M947.2 537.6H288.426667c-13.653333 0-25.6-11.946667-25.6-25.6s11.946667-25.6 25.6-25.6h658.773333c13.653333 0 25.6 11.946667 25.6 25.6s-11.946667 25.6-25.6 25.6z"  /><path  d="M102.4 812.373333m-59.733333 0a59.733333 59.733333 0 1 0 119.466666 0 59.733333 59.733333 0 1 0-119.466666 0Z"  /><path  d="M947.2 837.973333H288.426667c-13.653333 0-25.6-11.946667-25.6-25.6s11.946667-25.6 25.6-25.6h658.773333c13.653333 0 25.6 11.946667 25.6 25.6s-11.946667 25.6-25.6 25.6z"  /></svg>