<?xml version="1.0" standalone="no"?><!DOCTYPE svg PUBLIC "-//W3C//DTD SVG 1.1//EN" "http://www.w3.org/Graphics/SVG/1.1/DTD/svg11.dtd"><svg class="icon" width="64px" height="64.00px" viewBox="0 0 1024 1024" version="1.1" xmlns="http://www.w3.org/2000/svg"><path  d="M512 510.293333c-3.413333 0-6.826667 0-10.24-1.706666L49.493333 295.253333c-10.24-5.12-15.36-13.653333-15.36-23.893333s5.12-18.773333 15.36-23.893333L501.76 35.84c6.826667-3.413333 15.36-3.413333 22.186667 0l452.266666 213.333333c8.533333 3.413333 15.36 13.653333 15.36 23.893334s-5.12 18.773333-15.36 23.893333L522.24 506.88c-3.413333 1.706667-6.826667 3.413333-10.24 3.413333z m-392.533333-238.933333l392.533333 184.32 392.533333-184.32L512 87.04 119.466667 271.36z"  /><path  d="M512 757.76c-3.413333 0-6.826667 0-10.24-1.706667L49.493333 541.013333c-13.653333-6.826667-18.773333-20.48-11.946666-34.133333 6.826667-11.946667 20.48-18.773333 34.133333-11.946667L512 703.146667 954.026667 494.933333c11.946667-6.826667 27.306667 0 34.133333 11.946667 6.826667 11.946667 0 27.306667-11.946667 34.133333L522.24 754.346667c-3.413333 1.706667-6.826667 3.413333-10.24 3.413333z"  /><path  d="M512 991.573333c-3.413333 0-6.826667 0-10.24-1.706666L49.493333 776.533333c-13.653333-6.826667-18.773333-20.48-11.946666-34.133333 6.826667-11.946667 20.48-18.773333 34.133333-11.946667L512 936.96l442.026667-208.213333c11.946667-6.826667 27.306667 0 34.133333 11.946666 6.826667 11.946667 0 27.306667-11.946667 34.133334L522.24 988.16c-3.413333 1.706667-6.826667 3.413333-10.24 3.413333z"  /></svg>