<?xml version="1.0" standalone="no"?><!DOCTYPE svg PUBLIC "-//W3C//DTD SVG 1.1//EN" "http://www.w3.org/Graphics/SVG/1.1/DTD/svg11.dtd"><svg class="icon" width="64px" height="64.00px" viewBox="0 0 1024 1024" version="1.1" xmlns="http://www.w3.org/2000/svg"><path  d="M382.293333 479.573333H128c-51.2 0-93.866667-42.666667-93.866667-93.866666v-256c0-51.2 42.666667-93.866667 93.866667-93.866667h254.293333c51.2 0 93.866667 42.666667 93.866667 93.866667v254.293333c0 52.906667-40.96 95.573333-93.866667 95.573333zM128 87.04C104.106667 87.04 85.333333 105.813333 85.333333 129.706667v254.293333C85.333333 407.893333 104.106667 426.666667 128 426.666667h254.293333c23.893333 0 42.666667-18.773333 42.666667-42.666667V129.706667c0-23.893333-18.773333-42.666667-42.666667-42.666667H128zM382.293333 988.16H128c-51.2 0-93.866667-42.666667-93.866667-93.866667v-256c0-51.2 42.666667-93.866667 93.866667-93.866666h254.293333c51.2 0 93.866667 42.666667 93.866667 93.866666v254.293334c0 52.906667-40.96 95.573333-93.866667 95.573333z m-254.293333-392.533333C104.106667 595.626667 85.333333 614.4 85.333333 638.293333v254.293334c0 23.893333 18.773333 42.666667 42.666667 42.666666h254.293333c23.893333 0 42.666667-18.773333 42.666667-42.666666V638.293333c0-23.893333-18.773333-42.666667-42.666667-42.666666H128zM896 988.16H641.706667c-51.2 0-93.866667-42.666667-93.866667-93.866667v-256c0-51.2 42.666667-93.866667 93.866667-93.866666h254.293333c51.2 0 93.866667 42.666667 93.866667 93.866666v254.293334c0 52.906667-42.666667 95.573333-93.866667 95.573333z m-254.293333-392.533333c-23.893333 0-42.666667 18.773333-42.666667 42.666666v254.293334c0 23.893333 18.773333 42.666667 42.666667 42.666666h254.293333c23.893333 0 42.666667-18.773333 42.666667-42.666666V638.293333c0-23.893333-18.773333-42.666667-42.666667-42.666666H641.706667zM768 479.573333c-122.88 0-221.866667-98.986667-221.866667-221.866666s98.986667-221.866667 221.866667-221.866667c121.173333 0 221.866667 98.986667 221.866667 221.866667s-98.986667 221.866667-221.866667 221.866666z m0-392.533333c-93.866667 0-170.666667 76.8-170.666667 170.666667s76.8 170.666667 170.666667 170.666666 170.666667-76.8 170.666667-170.666666-76.8-170.666667-170.666667-170.666667z"  /></svg>