<?xml version="1.0" standalone="no"?><!DOCTYPE svg PUBLIC "-//W3C//DTD SVG 1.1//EN" "http://www.w3.org/Graphics/SVG/1.1/DTD/svg11.dtd"><svg class="icon" width="64px" height="64.00px" viewBox="0 0 1024 1024" version="1.1" xmlns="http://www.w3.org/2000/svg"><path  d="M450.56 919.893333h-131.413333c-13.653333 0-25.6-11.946667-25.6-25.6V349.866667c0-13.653333 11.946667-25.6 25.6-25.6h131.413333c13.653333 0 25.6 11.946667 25.6 25.6v544.426666c0 15.36-11.946667 25.6-25.6 25.6z m-107.52-51.2h80.213333V375.466667h-80.213333v493.226666zM706.56 919.893333h-131.413333c-13.653333 0-25.6-11.946667-25.6-25.6V602.453333c0-13.653333 11.946667-25.6 25.6-25.6h131.413333c13.653333 0 25.6 11.946667 25.6 25.6v291.84c0 15.36-10.24 25.6-25.6 25.6z m-105.813333-51.2h80.213333V628.053333h-80.213333v240.64zM964.266667 919.893333h-131.413334c-13.653333 0-25.6-11.946667-25.6-25.6V428.373333c0-13.653333 11.946667-25.6 25.6-25.6h131.413334c13.653333 0 25.6 11.946667 25.6 25.6v465.92c0 15.36-11.946667 25.6-25.6 25.6z m-105.813334-51.2H938.666667V453.973333h-80.213334v414.72zM191.146667 919.893333H59.733333c-13.653333 0-25.6-11.946667-25.6-25.6v-375.466666c0-13.653333 11.946667-25.6 25.6-25.6h131.413334c13.653333 0 25.6 11.946667 25.6 25.6v375.466666c0 15.36-11.946667 25.6-25.6 25.6z m-105.813334-51.2h80.213334v-324.266666H85.333333v324.266666z"  /><path  d="M646.826667 435.2c-6.826667 0-13.653333-3.413333-18.773334-8.533333L375.466667 165.546667 73.386667 394.24c-11.946667 8.533333-27.306667 6.826667-35.84-5.12s-6.826667-27.306667 5.12-35.84L363.52 110.933333c10.24-8.533333 25.6-6.826667 34.133333 3.413334L648.533333 375.466667l230.4-179.2c11.946667-8.533333 27.306667-6.826667 35.84 5.12s6.826667 27.306667-5.12 35.84L662.186667 430.08c-3.413333 3.413333-10.24 5.12-15.36 5.12z"  /><path  d="M911.36 363.52c-13.653333 0-25.6-11.946667-25.6-25.6v-124.586667h-124.586667c-13.653333 0-25.6-11.946667-25.6-25.6s11.946667-25.6 25.6-25.6h150.186667c13.653333 0 25.6 11.946667 25.6 25.6v150.186667c0 13.653333-11.946667 25.6-25.6 25.6z"  /></svg>