<?xml version="1.0" standalone="no"?><!DOCTYPE svg PUBLIC "-//W3C//DTD SVG 1.1//EN" "http://www.w3.org/Graphics/SVG/1.1/DTD/svg11.dtd"><svg class="icon" width="64px" height="64.00px" viewBox="0 0 1024 1024" version="1.1" xmlns="http://www.w3.org/2000/svg"><path  d="M964.266667 989.866667h-904.533334c-13.653333 0-25.6-11.946667-25.6-25.6v-904.533334C34.133333 46.08 46.08 34.133333 59.733333 34.133333S85.333333 46.08 85.333333 59.733333V938.666667h878.933334c13.653333 0 25.6 11.946667 25.6 25.6s-11.946667 25.6-25.6 25.6z"  /><path  d="M339.626667 989.866667h-136.533334c-13.653333 0-25.6-11.946667-25.6-25.6V399.36c0-13.653333 11.946667-25.6 25.6-25.6h136.533334c13.653333 0 25.6 11.946667 25.6 25.6v564.906667c0 13.653333-10.24 25.6-25.6 25.6z m-110.933334-51.2h85.333334V424.96h-85.333334V938.666667zM607.573333 989.866667h-136.533333c-13.653333 0-25.6-11.946667-25.6-25.6V556.373333c0-13.653333 11.946667-25.6 25.6-25.6h136.533333c13.653333 0 25.6 11.946667 25.6 25.6v407.893334c0 13.653333-11.946667 25.6-25.6 25.6z m-110.933333-51.2h85.333333V581.973333h-85.333333V938.666667zM873.813333 989.866667h-136.533333c-13.653333 0-25.6-11.946667-25.6-25.6V698.026667c0-13.653333 11.946667-25.6 25.6-25.6h136.533333c13.653333 0 25.6 11.946667 25.6 25.6v266.24c0 13.653333-11.946667 25.6-25.6 25.6z m-110.933333-51.2h85.333333V723.626667h-85.333333V938.666667z"  /><path  d="M892.586667 474.453333c-5.12 0-10.24-1.706667-15.36-5.12l-121.173334-90.453333-92.16 87.04c-8.533333 8.533333-22.186667 8.533333-32.426666 3.413333L177.493333 165.546667c-11.946667-6.826667-15.36-23.893333-6.826666-35.84 8.533333-11.946667 23.893333-15.36 35.84-6.826667l436.906666 290.133333 93.866667-87.04c8.533333-8.533333 22.186667-8.533333 32.426667-1.706666l138.24 104.106666c11.946667 8.533333 13.653333 23.893333 5.12 35.84-5.12 6.826667-13.653333 10.24-20.48 10.24z"  /><path  d="M909.653333 491.52h-150.186666c-13.653333 0-25.6-11.946667-25.6-25.6s11.946667-25.6 25.6-25.6h124.586666v-124.586667c0-13.653333 11.946667-25.6 25.6-25.6s25.6 11.946667 25.6 25.6v150.186667c0 13.653333-11.946667 25.6-25.6 25.6z"  /></svg>