<?xml version="1.0" standalone="no"?><!DOCTYPE svg PUBLIC "-//W3C//DTD SVG 1.1//EN" "http://www.w3.org/Graphics/SVG/1.1/DTD/svg11.dtd"><svg class="icon" width="64px" height="64.00px" viewBox="0 0 1024 1024" version="1.1" xmlns="http://www.w3.org/2000/svg"><path  d="M805.546667 989.866667H218.453333a94.037333 94.037333 0 0 1-93.866666-93.866667v-768C124.586667 76.288 166.741333 34.133333 218.453333 34.133333h451.754667c7.168 0 14.165333 3.072 19.114667 8.533334l203.605333 226.133333c4.266667 4.778667 6.485333 10.752 6.485333 17.066667V896c0 51.712-42.154667 93.866667-93.866666 93.866667zM218.453333 85.333333a42.666667 42.666667 0 0 0-42.666666 42.666667v768a42.666667 42.666667 0 0 0 42.666666 42.666667h587.093334a42.666667 42.666667 0 0 0 42.666666-42.666667V295.765333L658.944 85.333333H218.453333z"  /><path  d="M670.208 786.261333H353.621333c-14.165333 0-25.6-11.434667-25.6-25.6v-180.906666c0-14.165333 11.434667-25.6 25.6-25.6h316.586667c14.165333 0 25.6 11.434667 25.6 25.6v180.906666c0 14.165333-11.434667 25.6-25.6 25.6z m-290.986667-51.2h265.386667v-129.706666H379.221333v129.706666z"  /><path  d="M602.453333 605.354667c-14.165333 0-25.6-11.434667-25.6-25.6v-90.453334c0-6.656-1.877333-64.853333-64.853333-64.853333s-64.853333 58.197333-64.853333 64.853333v90.453334c0 14.165333-11.434667 25.6-25.6 25.6s-25.6-11.434667-25.6-25.6v-90.453334c0-55.978667 36.352-116.053333 116.053333-116.053333s116.053333 60.074667 116.053333 116.053333v90.453334c0 14.165333-11.434667 25.6-25.6 25.6zM873.813333 311.466667H664.746667a42.666667 42.666667 0 0 1-42.666667-42.666667V59.733333c0-14.165333 11.434667-25.6 25.6-25.6s25.6 11.434667 25.6 25.6v200.533334H873.813333c14.165333 0 25.6 11.434667 25.6 25.6s-11.434667 25.6-25.6 25.6z"  /></svg>