<?xml version="1.0" standalone="no"?><!DOCTYPE svg PUBLIC "-//W3C//DTD SVG 1.1//EN" "http://www.w3.org/Graphics/SVG/1.1/DTD/svg11.dtd"><svg class="icon" width="64px" height="64.00px" viewBox="0 0 1024 1024" version="1.1" xmlns="http://www.w3.org/2000/svg"><path  d="M754.346667 989.866667H128c-51.2 0-93.866667-42.666667-93.866667-93.866667V269.653333c0-51.2 42.666667-93.866667 93.866667-93.866666h626.346667c51.2 0 93.866667 42.666667 93.866666 93.866666v626.346667c0 51.2-42.666667 93.866667-93.866666 93.866667zM128 226.986667c-23.893333 0-42.666667 18.773333-42.666667 42.666666v626.346667C85.333333 919.893333 104.106667 938.666667 128 938.666667h626.346667c23.893333 0 42.666667-18.773333 42.666666-42.666667V269.653333c0-23.893333-18.773333-42.666667-42.666666-42.666666H128z"  /><path  d="M892.586667 848.213333h-71.68v-51.2h71.68c25.6 0 46.08-20.48 46.08-46.08V131.413333C938.666667 105.813333 918.186667 85.333333 892.586667 85.333333H273.066667c-25.6 0-46.08 20.48-46.08 46.08v71.68h-51.2V131.413333C175.786667 76.8 218.453333 34.133333 273.066667 34.133333h621.226666C947.2 34.133333 989.866667 76.8 989.866667 131.413333V750.933333c0 54.613333-42.666667 97.28-97.28 97.28z"  /><path  d="M348.16 720.213333h-1.706667c-6.826667 0-13.653333-5.12-17.066666-10.24l-100.693334-133.12c-8.533333-11.946667-6.826667-27.306667 5.12-35.84s27.306667-6.826667 35.84 5.12l83.626667 110.933334 266.24-237.226667c10.24-10.24 27.306667-8.533333 35.84 1.706667 10.24 10.24 8.533333 27.306667-1.706667 35.84l-288.426666 256c-5.12 3.413333-11.946667 6.826667-17.066667 6.826666z"  /></svg>