<?xml version="1.0" standalone="no"?><!DOCTYPE svg PUBLIC "-//W3C//DTD SVG 1.1//EN" "http://www.w3.org/Graphics/SVG/1.1/DTD/svg11.dtd"><svg class="icon" width="64px" height="64.00px" viewBox="0 0 1024 1024" version="1.1" xmlns="http://www.w3.org/2000/svg"><path  d="M479.232 989.866667H196.266667A94.037333 94.037333 0 0 1 102.4 896v-768C102.4 76.288 144.554667 34.133333 196.266667 34.133333h631.466666C879.445333 34.133333 921.6 76.288 921.6 128v453.973333c0 14.165333-11.434667 25.6-25.6 25.6s-25.6-11.434667-25.6-25.6V128A42.666667 42.666667 0 0 0 827.733333 85.333333h-631.466666A42.666667 42.666667 0 0 0 153.6 128v768a42.666667 42.666667 0 0 0 42.666667 42.666667h282.965333c14.165333 0 25.6 11.434667 25.6 25.6s-11.605333 25.6-25.6 25.6z"  /><path  d="M632.149333 337.749333H298.154667c-14.165333 0-25.6-11.434667-25.6-25.6s11.434667-25.6 25.6-25.6h333.994666c14.165333 0 25.6 11.434667 25.6 25.6s-11.434667 25.6-25.6 25.6zM512 524.117333H298.154667c-14.165333 0-25.6-11.434667-25.6-25.6s11.434667-25.6 25.6-25.6H512c14.165333 0 25.6 11.434667 25.6 25.6s-11.434667 25.6-25.6 25.6z"  /><path  d="M878.933333 989.866667h-273.066666a42.666667 42.666667 0 0 1-42.666667-42.666667v-153.6a42.666667 42.666667 0 0 1 42.666667-42.666667h273.066666a42.666667 42.666667 0 0 1 42.666667 42.666667v153.6a42.666667 42.666667 0 0 1-42.666667 42.666667zM614.4 938.666667h256v-136.533334H614.4v136.533334z m264.533333-136.533334z"  /><path  d="M827.733333 802.133333c-14.165333 0-25.6-11.434667-25.6-25.6v-68.266666c0-32.938667-26.794667-59.733333-59.733333-59.733334S682.666667 675.328 682.666667 708.266667v68.266666c0 14.165333-11.434667 25.6-25.6 25.6s-25.6-11.434667-25.6-25.6v-68.266666c0-61.098667 49.834667-110.933333 110.933333-110.933334s110.933333 49.834667 110.933333 110.933334v68.266666c0 14.165333-11.434667 25.6-25.6 25.6z"  /></svg>