<?xml version="1.0" standalone="no"?><!DOCTYPE svg PUBLIC "-//W3C//DTD SVG 1.1//EN" "http://www.w3.org/Graphics/SVG/1.1/DTD/svg11.dtd"><svg class="icon" width="64px" height="64.00px" viewBox="0 0 1024 1024" version="1.1" xmlns="http://www.w3.org/2000/svg"><path  d="M836.266667 989.866667H187.733333c-51.2 0-93.866667-42.666667-93.866666-93.866667v-768C93.866667 76.8 136.533333 34.133333 187.733333 34.133333h648.533334c51.2 0 93.866667 42.666667 93.866666 93.866667v768c0 51.2-42.666667 93.866667-93.866666 93.866667zM187.733333 85.333333C163.84 85.333333 145.066667 104.106667 145.066667 128v768c0 23.893333 18.773333 42.666667 42.666666 42.666667h648.533334c23.893333 0 42.666667-18.773333 42.666666-42.666667v-768C878.933333 104.106667 860.16 85.333333 836.266667 85.333333H187.733333z"  /><path  d="M512 523.946667c-71.68 0-129.706667-58.026667-129.706667-129.706667s58.026667-129.706667 129.706667-129.706667 129.706667 58.026667 129.706667 129.706667-58.026667 129.706667-129.706667 129.706667z m0-208.213334c-42.666667 0-78.506667 35.84-78.506667 78.506667s35.84 78.506667 78.506667 78.506667 78.506667-35.84 78.506667-78.506667-35.84-78.506667-78.506667-78.506667z"  /><path  d="M747.52 759.466667H276.48c-13.653333 0-25.6-11.946667-25.6-25.6 0-143.36 117.76-261.12 261.12-261.12S773.12 590.506667 773.12 733.866667c0 13.653333-11.946667 25.6-25.6 25.6z m-443.733333-51.2h416.426666c-11.946667-104.106667-100.693333-184.32-208.213333-184.32s-194.56 80.213333-208.213333 184.32z"  /></svg>