<?xml version="1.0" standalone="no"?><!DOCTYPE svg PUBLIC "-//W3C//DTD SVG 1.1//EN" "http://www.w3.org/Graphics/SVG/1.1/DTD/svg11.dtd"><svg class="icon" width="64px" height="64.00px" viewBox="0 0 1024 1024" version="1.1" xmlns="http://www.w3.org/2000/svg"><path  d="M916.48 986.453333H107.52c-39.253333 0-69.973333-32.426667-69.973333-69.973333V197.973333c0-39.253333 32.426667-69.973333 69.973333-69.973333h807.253333c39.253333 0 69.973333 32.426667 69.973334 69.973333v718.506667c1.706667 37.546667-30.72 69.973333-68.266667 69.973333zM107.52 179.2c-10.24 0-18.773333 8.533333-18.773333 18.773333v718.506667c0 10.24 8.533333 18.773333 18.773333 18.773333h807.253333c10.24 0 18.773333-8.533333 18.773334-18.773333V197.973333c0-10.24-8.533333-18.773333-18.773334-18.773333H107.52z"  /><path  d="M960.853333 447.146667H63.146667c-13.653333 0-25.6-11.946667-25.6-25.6s11.946667-25.6 25.6-25.6h897.706666c13.653333 0 25.6 11.946667 25.6 25.6s-11.946667 25.6-25.6 25.6zM960.853333 716.8H63.146667c-13.653333 0-25.6-11.946667-25.6-25.6S49.493333 665.6 63.146667 665.6h897.706666c13.653333 0 25.6 11.946667 25.6 25.6s-11.946667 25.6-25.6 25.6zM354.986667 267.946667c-13.653333 0-25.6-11.946667-25.6-25.6V63.146667c0-13.653333 11.946667-25.6 25.6-25.6s25.6 11.946667 25.6 25.6v179.2c0 15.36-11.946667 25.6-25.6 25.6zM669.013333 267.946667c-13.653333 0-25.6-11.946667-25.6-25.6V63.146667c0-13.653333 11.946667-25.6 25.6-25.6s25.6 11.946667 25.6 25.6v179.2c0 15.36-11.946667 25.6-25.6 25.6z"  /><path  d="M354.986667 986.453333c-13.653333 0-25.6-11.946667-25.6-25.6V421.546667c0-13.653333 11.946667-25.6 25.6-25.6s25.6 11.946667 25.6 25.6v539.306666c0 13.653333-11.946667 25.6-25.6 25.6zM669.013333 986.453333c-13.653333 0-25.6-11.946667-25.6-25.6V421.546667c0-13.653333 11.946667-25.6 25.6-25.6s25.6 11.946667 25.6 25.6v539.306666c0 13.653333-11.946667 25.6-25.6 25.6zM960.853333 873.813333c-13.653333 0-25.6-11.946667-25.6-25.6V264.533333c0-13.653333 11.946667-25.6 25.6-25.6s25.6 11.946667 25.6 25.6v583.68c0 13.653333-11.946667 25.6-25.6 25.6zM63.146667 873.813333c-13.653333 0-25.6-11.946667-25.6-25.6V264.533333c0-13.653333 11.946667-25.6 25.6-25.6s25.6 11.946667 25.6 25.6v583.68c0 13.653333-11.946667 25.6-25.6 25.6z"  /><path  d="M735.573333 986.453333H288.426667c-13.653333 0-25.6-11.946667-25.6-25.6s11.946667-25.6 25.6-25.6h448.853333c13.653333 0 25.6 11.946667 25.6 25.6s-11.946667 25.6-27.306667 25.6z"  /></svg>