<?xml version="1.0" standalone="no"?><!DOCTYPE svg PUBLIC "-//W3C//DTD SVG 1.1//EN" "http://www.w3.org/Graphics/SVG/1.1/DTD/svg11.dtd"><svg class="icon" width="64px" height="64.00px" viewBox="0 0 1024 1024" version="1.1" xmlns="http://www.w3.org/2000/svg"><path  d="M916.48 986.453333H107.52c-39.253333 0-69.973333-32.426667-69.973333-69.973333V107.52c0-39.253333 32.426667-69.973333 69.973333-69.973333h807.253333c39.253333 0 69.973333 32.426667 69.973334 69.973333v807.253333c1.706667 39.253333-30.72 71.68-68.266667 71.68zM107.52 88.746667c-10.24 0-18.773333 8.533333-18.773333 18.773333v807.253333c0 10.24 8.533333 18.773333 18.773333 18.773334h807.253333c10.24 0 18.773333-8.533333 18.773334-18.773334V107.52c0-10.24-8.533333-18.773333-18.773334-18.773333H107.52z"  /><path  d="M960.853333 314.026667H63.146667c-13.653333 0-25.6-11.946667-25.6-25.6s11.946667-25.6 25.6-25.6h897.706666c13.653333 0 25.6 11.946667 25.6 25.6s-11.946667 25.6-25.6 25.6z"  /><path  d="M63.146667 515.413333c-13.653333 0-25.6-11.946667-25.6-25.6V220.16c0-13.653333 11.946667-25.6 25.6-25.6s25.6 11.946667 25.6 25.6v269.653333c0 13.653333-11.946667 25.6-25.6 25.6zM960.853333 515.413333c-13.653333 0-25.6-11.946667-25.6-25.6V220.16c0-13.653333 11.946667-25.6 25.6-25.6s25.6 11.946667 25.6 25.6v269.653333c0 13.653333-11.946667 25.6-25.6 25.6zM781.653333 807.253333H602.453333c-13.653333 0-25.6-11.946667-25.6-25.6V467.626667c0-13.653333 11.946667-25.6 25.6-25.6h179.2c13.653333 0 25.6 11.946667 25.6 25.6v314.026666c0 13.653333-11.946667 25.6-25.6 25.6z m-153.6-51.2h128V493.226667h-128v262.826666zM421.546667 807.253333H242.346667c-13.653333 0-25.6-11.946667-25.6-25.6s11.946667-25.6 25.6-25.6h153.6V493.226667h-153.6c-13.653333 0-25.6-11.946667-25.6-25.6s11.946667-25.6 25.6-25.6h179.2c13.653333 0 25.6 11.946667 25.6 25.6v314.026666c0 13.653333-10.24 25.6-25.6 25.6z"  /><path  d="M421.546667 650.24h-134.826667c-13.653333 0-25.6-11.946667-25.6-25.6s11.946667-25.6 25.6-25.6h134.826667c13.653333 0 25.6 11.946667 25.6 25.6s-10.24 25.6-25.6 25.6z"  /></svg>