<?xml version="1.0" standalone="no"?><!DOCTYPE svg PUBLIC "-//W3C//DTD SVG 1.1//EN" "http://www.w3.org/Graphics/SVG/1.1/DTD/svg11.dtd"><svg class="icon" width="64px" height="64.00px" viewBox="0 0 1024 1024" version="1.1" xmlns="http://www.w3.org/2000/svg"><path  d="M913.066667 986.453333h-802.133334c-40.96 0-73.386667-32.426667-73.386666-73.386666v-494.933334c0-13.653333 11.946667-25.6 25.6-25.6h897.706666c13.653333 0 25.6 11.946667 25.6 25.6v496.64c0 39.253333-32.426667 71.68-73.386666 71.68zM88.746667 443.733333v471.04c0 11.946667 10.24 22.186667 22.186666 22.186667h802.133334c11.946667 0 22.186667-10.24 22.186666-22.186667V443.733333H88.746667z"  /><path  d="M960.853333 443.733333H63.146667c-13.653333 0-25.6-11.946667-25.6-25.6V180.906667c0-40.96 32.426667-73.386667 73.386666-73.386667h802.133334c40.96 0 73.386667 32.426667 73.386666 73.386667v235.52c0 15.36-11.946667 27.306667-25.6 27.306666zM88.746667 392.533333h846.506666V180.906667c0-11.946667-10.24-22.186667-22.186666-22.186667h-802.133334c-11.946667 0-22.186667 10.24-22.186666 22.186667V392.533333z"  /><path  d="M322.56 278.186667c-13.653333 0-25.6-11.946667-25.6-25.6V63.146667c0-13.653333 11.946667-25.6 25.6-25.6s25.6 11.946667 25.6 25.6v189.44c0 13.653333-10.24 25.6-25.6 25.6zM701.44 278.186667c-13.653333 0-25.6-11.946667-25.6-25.6V63.146667c0-13.653333 11.946667-25.6 25.6-25.6s25.6 11.946667 25.6 25.6v189.44c0 13.653333-11.946667 25.6-25.6 25.6zM747.52 797.013333h-141.653333c-13.653333 0-25.6-11.946667-25.6-25.6s11.946667-25.6 25.6-25.6h141.653333c13.653333 0 25.6 11.946667 25.6 25.6s-10.24 25.6-25.6 25.6zM418.133333 797.013333h-141.653333c-13.653333 0-25.6-11.946667-25.6-25.6s11.946667-25.6 25.6-25.6h141.653333c13.653333 0 25.6 11.946667 25.6 25.6s-11.946667 25.6-25.6 25.6zM747.52 609.28h-141.653333c-13.653333 0-25.6-11.946667-25.6-25.6s11.946667-25.6 25.6-25.6h141.653333c13.653333 0 25.6 11.946667 25.6 25.6s-10.24 25.6-25.6 25.6zM418.133333 609.28h-141.653333c-13.653333 0-25.6-11.946667-25.6-25.6s11.946667-25.6 25.6-25.6h141.653333c13.653333 0 25.6 11.946667 25.6 25.6s-11.946667 25.6-25.6 25.6z"  /></svg>