<?xml version="1.0" standalone="no"?><!DOCTYPE svg PUBLIC "-//W3C//DTD SVG 1.1//EN" "http://www.w3.org/Graphics/SVG/1.1/DTD/svg11.dtd"><svg class="icon" width="64px" height="64.00px" viewBox="0 0 1024 1024" version="1.1" xmlns="http://www.w3.org/2000/svg"><path  d="M916.48 989.866667H107.52C66.56 989.866667 34.133333 957.44 34.133333 916.48V416.426667c0-13.653333 11.946667-25.6 25.6-25.6h904.533334c13.653333 0 25.6 11.946667 25.6 25.6v500.053333c0 40.96-32.426667 73.386667-73.386667 73.386667zM85.333333 442.026667v474.453333c0 11.946667 10.24 22.186667 22.186667 22.186667h808.96c11.946667 0 22.186667-10.24 22.186667-22.186667V442.026667H85.333333zM651.946667 157.013333H375.466667c-13.653333 0-25.6-11.946667-25.6-25.6s11.946667-25.6 25.6-25.6h278.186666c13.653333 0 25.6 11.946667 25.6 25.6s-11.946667 25.6-27.306666 25.6z"  /><path  d="M964.266667 442.026667h-904.533334c-13.653333 0-25.6-11.946667-25.6-25.6V179.2c0-40.96 32.426667-73.386667 73.386667-73.386667h157.013333c13.653333 0 25.6 11.946667 25.6 25.6s-11.946667 25.6-25.6 25.6H107.52c-11.946667 0-22.186667 10.24-22.186667 22.186667v211.626667h853.333334V179.2c0-11.946667-10.24-22.186667-22.186667-22.186667h-155.306667c-13.653333 0-25.6-11.946667-25.6-25.6s11.946667-25.6 25.6-25.6h155.306667c40.96 0 73.386667 32.426667 73.386667 73.386667v237.226667c0 13.653333-11.946667 25.6-25.6 25.6z"  /><path  d="M320.853333 276.48c-13.653333 0-25.6-11.946667-25.6-25.6V59.733333c0-13.653333 11.946667-25.6 25.6-25.6s25.6 11.946667 25.6 25.6v191.146667c0 13.653333-10.24 25.6-25.6 25.6zM703.146667 276.48c-13.653333 0-25.6-11.946667-25.6-25.6V59.733333c0-13.653333 11.946667-25.6 25.6-25.6s25.6 11.946667 25.6 25.6v191.146667c0 13.653333-11.946667 25.6-25.6 25.6z"  /><path  d="M460.8 814.08c-6.826667 0-11.946667-1.706667-17.066667-6.826667l-146.773333-134.826666c-10.24-10.24-10.24-25.6-1.706667-35.84 10.24-10.24 25.6-10.24 35.84-1.706667l128 119.466667 233.813334-233.813334c10.24-10.24 25.6-10.24 35.84 0s10.24 25.6 0 35.84L477.866667 807.253333c-5.12 5.12-11.946667 6.826667-17.066667 6.826667z"  /></svg>