<?xml version="1.0" standalone="no"?><!DOCTYPE svg PUBLIC "-//W3C//DTD SVG 1.1//EN" "http://www.w3.org/Graphics/SVG/1.1/DTD/svg11.dtd"><svg class="icon" width="64px" height="64.00px" viewBox="0 0 1024 1024" version="1.1" xmlns="http://www.w3.org/2000/svg"><path  d="M585.386667 914.773333H104.106667c-37.546667 0-68.266667-30.72-68.266667-68.266666V392.533333c0-13.653333 11.946667-25.6 25.6-25.6h819.2c13.653333 0 25.6 11.946667 25.6 25.6v134.826667c0 13.653333-11.946667 25.6-25.6 25.6s-25.6-11.946667-25.6-25.6v-109.226667h-768v426.666667c0 10.24 8.533333 17.066667 17.066667 17.066667h481.28c13.653333 0 25.6 11.946667 25.6 25.6s-11.946667 27.306667-25.6 27.306666z"  /><path  d="M880.64 418.133333h-819.2c-13.653333 0-25.6-11.946667-25.6-25.6V175.786667c0-37.546667 30.72-68.266667 68.266667-68.266667h733.866666c37.546667 0 68.266667 30.72 68.266667 68.266667V392.533333c0 13.653333-10.24 25.6-25.6 25.6z m-793.6-51.2h768V175.786667c0-10.24-8.533333-17.066667-17.066667-17.066667h-733.866666c-10.24 0-17.066667 8.533333-17.066667 17.066667v191.146666z"  /><path  d="M298.666667 266.24c-13.653333 0-25.6-11.946667-25.6-25.6V68.266667c0-13.653333 11.946667-25.6 25.6-25.6S324.266667 54.613333 324.266667 68.266667v172.373333c0 15.36-11.946667 25.6-25.6 25.6zM643.413333 266.24c-13.653333 0-25.6-11.946667-25.6-25.6V68.266667c0-13.653333 11.946667-25.6 25.6-25.6s25.6 11.946667 25.6 25.6v172.373333c0 15.36-10.24 25.6-25.6 25.6zM737.28 967.68c-139.946667 0-254.293333-114.346667-254.293333-254.293333S597.333333 459.093333 737.28 459.093333s254.293333 114.346667 254.293333 254.293334-114.346667 254.293333-254.293333 254.293333z m0-457.386667c-112.64 0-203.093333 90.453333-203.093333 203.093334s90.453333 203.093333 203.093333 203.093333 203.093333-90.453333 203.093333-203.093333-90.453333-203.093333-203.093333-203.093334z"  /><path  d="M853.333333 756.053333h-116.053333c-13.653333 0-25.6-11.946667-25.6-25.6v-138.24c0-13.653333 11.946667-25.6 25.6-25.6s25.6 11.946667 25.6 25.6v112.64H853.333333c13.653333 0 25.6 11.946667 25.6 25.6s-10.24 25.6-25.6 25.6z"  /></svg>