<?xml version="1.0" standalone="no"?><!DOCTYPE svg PUBLIC "-//W3C//DTD SVG 1.1//EN" "http://www.w3.org/Graphics/SVG/1.1/DTD/svg11.dtd"><svg class="icon" width="64px" height="64.00px" viewBox="0 0 1024 1024" version="1.1" xmlns="http://www.w3.org/2000/svg"><path  d="M938.666667 952.32H85.333333c-13.653333 0-25.6-11.946667-25.6-25.6V870.4c0-6.826667 3.413333-13.653333 6.826667-17.066667l129.706667-133.12c5.12-5.12 11.946667-8.533333 18.773333-8.533333h592.213333c6.826667 0 13.653333 3.413333 18.773334 8.533333l131.413333 134.826667c5.12 5.12 6.826667 11.946667 6.826667 17.066667v58.026666c0 11.946667-11.946667 22.186667-25.6 22.186667z m-827.733334-51.2h802.133334v-20.48l-116.053334-119.466667H226.986667l-116.053334 117.76v22.186667z"  /><path  d="M215.04 762.88c-6.826667 0-13.653333-1.706667-17.066667-6.826667-10.24-10.24-10.24-25.6 0-35.84l160.426667-165.546666V116.053333c0-13.653333 11.946667-25.6 25.6-25.6h256c13.653333 0 25.6 11.946667 25.6 25.6v436.906667l160.426667 163.84c10.24 10.24 10.24 25.6 0 35.84s-25.6 10.24-35.84 0L622.933333 580.266667c-5.12-5.12-6.826667-11.946667-6.826666-17.066667V141.653333H409.6V563.2c0 6.826667-3.413333 13.653333-6.826667 17.066667l-168.96 172.373333c-5.12 6.826667-11.946667 10.24-18.773333 10.24z"  /><path  d="M790.186667 761.173333H235.52c-13.653333 0-25.6-11.946667-25.6-25.6s11.946667-25.6 25.6-25.6h554.666667c13.653333 0 25.6 11.946667 25.6 25.6s-11.946667 25.6-25.6 25.6zM640 312.32H512c-13.653333 0-25.6-11.946667-25.6-25.6s11.946667-25.6 25.6-25.6h128c13.653333 0 25.6 11.946667 25.6 25.6s-11.946667 25.6-25.6 25.6zM640 440.32H512c-13.653333 0-25.6-11.946667-25.6-25.6s11.946667-25.6 25.6-25.6h128c13.653333 0 25.6 11.946667 25.6 25.6s-11.946667 25.6-25.6 25.6z"  /></svg>