<?xml version="1.0" standalone="no"?><!DOCTYPE svg PUBLIC "-//W3C//DTD SVG 1.1//EN" "http://www.w3.org/Graphics/SVG/1.1/DTD/svg11.dtd"><svg class="icon" width="64px" height="64.00px" viewBox="0 0 1024 1024" version="1.1" xmlns="http://www.w3.org/2000/svg"><path  d="M273.066667 418.133333c-13.653333 0-25.6-11.946667-25.6-25.6v-83.626666c0-34.133333 27.306667-61.44 61.44-61.44H392.533333c13.653333 0 25.6 11.946667 25.6 25.6s-11.946667 25.6-25.6 25.6h-83.626666c-5.12 0-10.24 5.12-10.24 10.24V392.533333c0 13.653333-11.946667 25.6-25.6 25.6zM392.533333 776.533333h-83.626666c-34.133333 0-61.44-27.306667-61.44-61.44V631.466667c0-13.653333 11.946667-25.6 25.6-25.6s25.6 11.946667 25.6 25.6v83.626666c0 5.12 5.12 10.24 10.24 10.24H392.533333c13.653333 0 25.6 11.946667 25.6 25.6s-11.946667 25.6-25.6 25.6zM715.093333 776.533333H631.466667c-13.653333 0-25.6-11.946667-25.6-25.6s11.946667-25.6 25.6-25.6h83.626666c5.12 0 10.24-5.12 10.24-10.24V631.466667c0-13.653333 11.946667-25.6 25.6-25.6s25.6 11.946667 25.6 25.6v83.626666c0 34.133333-27.306667 61.44-61.44 61.44zM750.933333 418.133333c-13.653333 0-25.6-11.946667-25.6-25.6v-83.626666c0-5.12-5.12-10.24-10.24-10.24H631.466667c-13.653333 0-25.6-11.946667-25.6-25.6s11.946667-25.6 25.6-25.6h83.626666c34.133333 0 61.44 27.306667 61.44 61.44V392.533333c0 13.653333-11.946667 25.6-25.6 25.6zM698.026667 537.6H325.973333c-13.653333 0-25.6-11.946667-25.6-25.6s11.946667-25.6 25.6-25.6h372.053334c13.653333 0 25.6 11.946667 25.6 25.6s-11.946667 25.6-25.6 25.6z"  /><path  d="M512 989.866667C249.173333 989.866667 34.133333 774.826667 34.133333 512S249.173333 34.133333 512 34.133333s477.866667 215.04 477.866667 477.866667-215.04 477.866667-477.866667 477.866667z m0-904.533334C276.48 85.333333 85.333333 276.48 85.333333 512s191.146667 426.666667 426.666667 426.666667 426.666667-191.146667 426.666667-426.666667S747.52 85.333333 512 85.333333z"  /></svg>