<?xml version="1.0" standalone="no"?><!DOCTYPE svg PUBLIC "-//W3C//DTD SVG 1.1//EN" "http://www.w3.org/Graphics/SVG/1.1/DTD/svg11.dtd"><svg class="icon" width="64px" height="64.00px" viewBox="0 0 1024 1024" version="1.1" xmlns="http://www.w3.org/2000/svg"><path  d="M885.76 969.386667H704.853333c-13.653333 0-25.6-11.946667-25.6-25.6s11.946667-25.6 25.6-25.6h179.2c10.24 0 18.773333-8.533333 18.773334-18.773334V718.506667c0-13.653333 11.946667-25.6 25.6-25.6s25.6 11.946667 25.6 25.6v179.2c1.706667 39.253333-30.72 71.68-68.266667 71.68z m-583.68 0H121.173333c-39.253333 0-69.973333-32.426667-69.973333-69.973334V718.506667c0-13.653333 11.946667-25.6 25.6-25.6s25.6 11.946667 25.6 25.6v179.2c0 10.24 8.533333 18.773333 18.773333 18.773333h179.2c13.653333 0 25.6 11.946667 25.6 25.6s-10.24 27.306667-23.893333 27.306667z m628.053333-629.76c-13.653333 0-25.6-11.946667-25.6-25.6V134.826667c0-10.24-8.533333-18.773333-18.773333-18.773334H704.853333c-13.653333 0-25.6-11.946667-25.6-25.6s11.946667-25.6 25.6-25.6h179.2c39.253333 0 69.973333 32.426667 69.973334 69.973334v179.2c1.706667 13.653333-10.24 25.6-23.893334 25.6z m-853.333333 0c-13.653333 0-25.6-11.946667-25.6-25.6V134.826667c0-39.253333 32.426667-69.973333 69.973333-69.973334h179.2c13.653333 0 25.6 11.946667 25.6 25.6s-11.946667 25.6-25.6 25.6H121.173333c-10.24 0-18.773333 8.533333-18.773333 18.773334v179.2c0 13.653333-11.946667 25.6-25.6 25.6zM503.466667 856.746667c-162.133333 0-295.253333-151.893333-295.253334-339.626667s133.12-341.333333 295.253334-341.333333 295.253333 151.893333 295.253333 339.626666-133.12 341.333333-295.253333 341.333334z m0-629.76c-134.826667 0-244.053333 129.706667-244.053334 288.426666s109.226667 288.426667 244.053334 288.426667 244.053333-129.706667 244.053333-288.426667-109.226667-288.426667-244.053333-288.426666z"  /><path  d="M907.946667 542.72H98.986667c-13.653333 0-25.6-11.946667-25.6-25.6s11.946667-25.6 25.6-25.6h808.96c13.653333 0 25.6 11.946667 25.6 25.6s-11.946667 25.6-25.6 25.6zM503.466667 709.973333c-35.84 0-69.973333-11.946667-104.106667-35.84-11.946667-8.533333-13.653333-23.893333-5.12-35.84 8.533333-11.946667 23.893333-13.653333 35.84-5.12 49.493333 35.84 97.28 35.84 148.48 0 11.946667-8.533333 27.306667-5.12 35.84 6.826667s5.12 27.306667-6.826667 35.84c-32.426667 22.186667-68.266667 34.133333-104.106666 34.133333z"  /></svg>