<?xml version="1.0" standalone="no"?><!DOCTYPE svg PUBLIC "-//W3C//DTD SVG 1.1//EN" "http://www.w3.org/Graphics/SVG/1.1/DTD/svg11.dtd"><svg class="icon" width="64px" height="64.00px" viewBox="0 0 1024 1024" version="1.1" xmlns="http://www.w3.org/2000/svg"><path  d="M827.733333 989.866667h-138.24c-49.493333 0-93.866667-32.426667-110.933333-78.506667l-40.96-124.586667H286.72c-10.24 0-20.48-6.826667-23.893333-15.36l-46.08-112.64c-3.413333-8.533333-1.706667-17.066667 3.413333-23.893333s11.946667-11.946667 20.48-11.946667H785.066667l13.653333-83.626666c5.12-29.013333 27.306667-52.906667 56.32-58.026667l81.92-17.066667c8.533333-1.706667 17.066667 0 22.186667 6.826667 6.826667 5.12 8.533333 13.653333 8.533333 22.186667l-22.186667 157.013333v223.573333c-1.706667 63.146667-52.906667 116.053333-117.76 116.053334zM303.786667 735.573333h254.293333c10.24 0 20.48 6.826667 23.893333 17.066667l47.786667 141.653333c8.533333 27.306667 34.133333 44.373333 61.44 44.373334h138.24c35.84 0 64.853333-29.013333 64.853333-64.853334V646.826667v-3.413334l17.066667-122.88-47.786667 10.24c-8.533333 1.706667-13.653333 8.533333-15.36 15.36l-17.066666 104.106667c-1.706667 11.946667-11.946667 22.186667-25.6 22.186667H278.186667l25.6 63.146666zM81.92 559.786667c-6.826667 0-13.653333-1.706667-17.066667-6.826667-6.826667-5.12-8.533333-13.653333-8.533333-22.186667l22.186667-157.013333V150.186667C78.506667 87.04 131.413333 34.133333 196.266667 34.133333h138.24c49.493333 0 93.866667 32.426667 110.933333 78.506667l40.96 124.586667h252.586667c10.24 0 20.48 6.826667 23.893333 15.36l44.373333 112.64c3.413333 8.533333 1.706667 17.066667-3.413333 23.893333s-11.946667 11.946667-20.48 11.946667H238.933333l-13.653333 83.626666c-5.12 29.013333-27.306667 52.906667-56.32 58.026667l-81.92 17.066667h-5.12zM196.266667 85.333333C160.426667 85.333333 129.706667 114.346667 129.706667 150.186667V378.88l-17.066667 122.88 47.786667-8.533333c8.533333-1.706667 13.653333-8.533333 15.36-15.36l17.066666-104.106667c1.706667-11.946667 11.946667-22.186667 25.6-22.186667h527.36L721.92 290.133333h-256c-10.24 0-20.48-6.826667-23.893333-17.066666l-47.786667-141.653334C385.706667 102.4 361.813333 85.333333 334.506667 85.333333h-138.24z"  /></svg>