<?xml version="1.0" standalone="no"?><!DOCTYPE svg PUBLIC "-//W3C//DTD SVG 1.1//EN" "http://www.w3.org/Graphics/SVG/1.1/DTD/svg11.dtd"><svg class="icon" width="64px" height="64.00px" viewBox="0 0 1024 1024" version="1.1" xmlns="http://www.w3.org/2000/svg"><path  d="M916.48 537.6H107.52c-13.653333 0-25.6-11.946667-25.6-25.6s11.946667-25.6 25.6-25.6h808.96c13.653333 0 25.6 11.946667 25.6 25.6s-11.946667 25.6-25.6 25.6z"  /><path  d="M512 942.08c-13.653333 0-25.6-11.946667-25.6-25.6V107.52c0-13.653333 11.946667-25.6 25.6-25.6s25.6 11.946667 25.6 25.6v808.96c0 13.653333-11.946667 25.6-25.6 25.6zM59.733333 59.733333h95.573334v95.573334H59.733333zM274.773333 59.733333h95.573334v95.573334h-95.573334zM655.36 59.733333H750.933333v95.573334h-95.573333zM868.693333 59.733333h95.573334v95.573334h-95.573334zM868.693333 274.773333h95.573334v95.573334h-95.573334zM59.733333 274.773333h95.573334v95.573334H59.733333zM59.733333 868.693333h95.573334v95.573334H59.733333zM274.773333 868.693333h95.573334v95.573334h-95.573334zM655.36 868.693333H750.933333v95.573334h-95.573333zM868.693333 868.693333h95.573334v95.573334h-95.573334zM868.693333 655.36h95.573334V750.933333h-95.573334zM59.733333 655.36h95.573334V750.933333H59.733333z"  /></svg>