<?xml version="1.0" standalone="no"?><!DOCTYPE svg PUBLIC "-//W3C//DTD SVG 1.1//EN" "http://www.w3.org/Graphics/SVG/1.1/DTD/svg11.dtd"><svg class="icon" width="64px" height="64.00px" viewBox="0 0 1024 1024" version="1.1" xmlns="http://www.w3.org/2000/svg"><path  d="M805.546667 989.866667H218.453333c-51.2 0-93.866667-42.666667-93.866666-93.866667v-768c0-51.2 42.666667-93.866667 93.866666-93.866667h440.32l240.64 240.64v621.226667c0 51.2-42.666667 93.866667-93.866666 93.866667zM218.453333 85.333333c-23.893333 0-42.666667 18.773333-42.666666 42.666667v768c0 23.893333 18.773333 42.666667 42.666666 42.666667h587.093334c23.893333 0 42.666667-18.773333 42.666666-42.666667V296.96L636.586667 85.333333H218.453333z"  /><path  d="M692.906667 718.506667H331.093333c-13.653333 0-25.6-11.946667-25.6-25.6s11.946667-25.6 25.6-25.6h361.813334c13.653333 0 25.6 11.946667 25.6 25.6s-11.946667 25.6-25.6 25.6zM692.906667 839.68H331.093333c-13.653333 0-25.6-11.946667-25.6-25.6s11.946667-25.6 25.6-25.6h361.813334c13.653333 0 25.6 11.946667 25.6 25.6s-11.946667 25.6-25.6 25.6zM607.573333 365.226667c-6.826667 0-13.653333-1.706667-18.773333-6.826667L512 279.893333 433.493333 358.4c-10.24 10.24-25.6 10.24-35.84 0s-10.24-25.6 0-35.84l95.573334-95.573333c10.24-10.24 25.6-10.24 35.84 0l95.573333 95.573333c10.24 10.24 10.24 25.6 0 35.84-3.413333 3.413333-10.24 6.826667-17.066667 6.826667z"  /><path  d="M512 546.133333c-13.653333 0-25.6-11.946667-25.6-25.6V242.346667c0-13.653333 11.946667-25.6 25.6-25.6s25.6 11.946667 25.6 25.6v276.48c0 15.36-11.946667 27.306667-25.6 27.306666z"  /></svg>