<?xml version="1.0" standalone="no"?><!DOCTYPE svg PUBLIC "-//W3C//DTD SVG 1.1//EN" "http://www.w3.org/Graphics/SVG/1.1/DTD/svg11.dtd"><svg class="icon" width="64px" height="64.00px" viewBox="0 0 1024 1024" version="1.1" xmlns="http://www.w3.org/2000/svg"><path  d="M829.44 989.866667H194.56c-51.2 0-92.16-40.96-92.16-92.16V126.293333C102.4 75.093333 143.36 34.133333 194.56 34.133333h636.586667c51.2 0 92.16 40.96 92.16 92.16v769.706667c0 52.906667-42.666667 93.866667-93.866667 93.866667zM194.56 85.333333C170.666667 85.333333 151.893333 104.106667 151.893333 126.293333v769.706667c0 22.186667 18.773333 40.96 40.96 40.96h636.586667c22.186667 0 40.96-18.773333 40.96-40.96V126.293333c1.706667-22.186667-17.066667-40.96-40.96-40.96H194.56z"  /><path  d="M680.96 657.066667H343.04c-13.653333 0-25.6-11.946667-25.6-25.6s11.946667-25.6 25.6-25.6h337.92c13.653333 0 25.6 11.946667 25.6 25.6s-11.946667 25.6-25.6 25.6zM680.96 791.893333H343.04c-13.653333 0-25.6-11.946667-25.6-25.6s11.946667-25.6 25.6-25.6h337.92c13.653333 0 25.6 11.946667 25.6 25.6s-11.946667 25.6-25.6 25.6zM670.72 486.4H353.28V409.6c0-27.306667 22.186667-49.493333 49.493333-49.493333h44.373334c-13.653333-15.36-34.133333-39.253333-34.133334-83.626667 0-73.386667 56.32-98.986667 102.4-98.986667 47.786667 0 98.986667 25.6 98.986667 98.986667 0 46.08-22.186667 68.266667-34.133333 81.92l-1.706667 1.706667h44.373333c27.306667 0 49.493333 22.186667 49.493334 49.493333v76.8z m-266.24-51.2h215.04v-23.893333h-64.853333c-32.426667 0-32.426667-29.013333-32.426667-47.786667 0-18.773333 10.24-29.013333 20.48-39.253333 10.24-11.946667 20.48-22.186667 20.48-47.786667 0-20.48-5.12-47.786667-47.786667-47.786667-34.133333 0-51.2 15.36-51.2 47.786667 0 27.306667 11.946667 39.253333 22.186667 51.2 8.533333 8.533333 18.773333 20.48 18.773333 35.84 0 10.24 0 17.066667-1.706666 23.893333-3.413333 15.36-15.36 23.893333-30.72 23.893334h-66.56l-1.706667 23.893333z"  /></svg>