<?xml version="1.0" standalone="no"?><!DOCTYPE svg PUBLIC "-//W3C//DTD SVG 1.1//EN" "http://www.w3.org/Graphics/SVG/1.1/DTD/svg11.dtd"><svg class="icon" width="64px" height="64.00px" viewBox="0 0 1024 1024" version="1.1" xmlns="http://www.w3.org/2000/svg"><path  d="M573.44 930.133333H100.693333c-37.546667 0-66.56-30.72-66.56-66.56V633.173333c0-37.546667 30.72-66.56 66.56-66.56h380.586667v51.2H100.693333c-8.533333 0-15.36 6.826667-15.36 15.36v228.693334c0 8.533333 6.826667 15.36 15.36 15.36h471.04v52.906666z"  /><path  d="M491.52 617.813333H211.626667l110.933333-312.32c6.826667-18.773333 23.893333-30.72 44.373333-30.72H546.133333c18.773333 0 37.546667 11.946667 44.373334 30.72l56.32 158.72c5.12 13.653333-1.706667 27.306667-15.36 32.426667-13.653333 5.12-27.306667-1.706667-32.426667-15.36l-56.32-155.306667H370.346667l-85.333334 240.64h208.213334c13.653333 0 25.6 11.946667 25.6 25.6s-13.653333 25.6-27.306667 25.6z"  /><path  d="M530.773333 320.853333h-150.186666c-76.8 0-138.24-61.44-138.24-138.24s61.44-138.24 138.24-138.24h150.186666c76.8 0 138.24 61.44 138.24 138.24s-61.44 138.24-138.24 138.24zM380.586667 95.573333c-47.786667 0-87.04 39.253333-87.04 87.04s39.253333 87.04 87.04 87.04h150.186666c47.786667 0 87.04-39.253333 87.04-87.04s-39.253333-87.04-87.04-87.04h-150.186666z"  /><path  d="M715.093333 979.626667c-151.893333 0-274.773333-122.88-274.773333-274.773334S563.2 428.373333 715.093333 428.373333 989.866667 552.96 989.866667 704.853333s-122.88 274.773333-274.773334 274.773334z m0-500.053334c-122.88 0-223.573333 100.693333-223.573333 223.573334s100.693333 223.573333 223.573333 223.573333S938.666667 827.733333 938.666667 704.853333s-100.693333-225.28-223.573334-225.28z"  /><path  d="M781.653333 839.68c-6.826667 0-13.653333-1.706667-18.773333-6.826667l-46.08-34.133333-46.08 34.133333c-11.946667 8.533333-27.306667 8.533333-39.253333 0-11.946667-8.533333-17.066667-23.893333-11.946667-37.546666l17.066667-54.613334-46.08-34.133333c-11.946667-8.533333-17.066667-23.893333-11.946667-37.546667 5.12-13.653333 17.066667-22.186667 32.426667-22.186666H665.6l17.066667-54.613334c5.12-13.653333 17.066667-22.186667 32.426666-22.186666s27.306667 8.533333 32.426667 22.186666l17.066667 54.613334h58.026666c13.653333 0 27.306667 8.533333 32.426667 22.186666 5.12 13.653333 0 29.013333-11.946667 37.546667l-46.08 34.133333 17.066667 54.613334c5.12 13.653333 0 29.013333-11.946667 37.546666-6.826667 5.12-13.653333 6.826667-20.48 6.826667z m-17.066666-27.306667z m-98.986667 0z m-3.413333-114.346666l11.946666 8.533333c11.946667 8.533333 17.066667 23.893333 11.946667 37.546667l-3.413333 15.36 11.946666-8.533334c11.946667-8.533333 27.306667-8.533333 39.253334 0l11.946666 8.533334-5.12-15.36c-5.12-13.653333 0-29.013333 11.946667-37.546667l11.946667-8.533333H750.933333c-13.653333 0-27.306667-8.533333-32.426666-22.186667l-5.12-15.36-5.12 15.36c-5.12 13.653333-17.066667 22.186667-32.426667 22.186667h-13.653333z m-23.893334 30.72z m151.893334 0z"  /></svg>