<?xml version="1.0" standalone="no"?><!DOCTYPE svg PUBLIC "-//W3C//DTD SVG 1.1//EN" "http://www.w3.org/Graphics/SVG/1.1/DTD/svg11.dtd"><svg class="icon" width="64px" height="64.00px" viewBox="0 0 1024 1024" version="1.1" xmlns="http://www.w3.org/2000/svg"><path  d="M510.293333 986.453333C247.466667 986.453333 35.84 773.12 35.84 512S249.173333 37.546667 510.293333 37.546667 984.746667 250.88 984.746667 512 771.413333 986.453333 510.293333 986.453333z m0-897.706666C276.48 88.746667 87.04 278.186667 87.04 512c0 233.813333 189.44 423.253333 423.253333 423.253333 233.813333 0 423.253333-189.44 423.253334-423.253333 0-233.813333-191.146667-423.253333-423.253334-423.253333z"  /><path  d="M699.733333 728.746667c-6.826667 0-13.653333-1.706667-18.773333-6.826667L491.52 530.773333c-5.12-5.12-6.826667-11.946667-6.826667-18.773333V242.346667c0-13.653333 11.946667-25.6 25.6-25.6s25.6 11.946667 25.6 25.6v259.413333l182.613334 182.613333c10.24 10.24 10.24 25.6 0 35.84-5.12 5.12-11.946667 8.533333-18.773334 8.533334z"  /></svg>