<?xml version="1.0" standalone="no"?><!DOCTYPE svg PUBLIC "-//W3C//DTD SVG 1.1//EN" "http://www.w3.org/Graphics/SVG/1.1/DTD/svg11.dtd"><svg class="icon" width="64px" height="64.00px" viewBox="0 0 1024 1024" version="1.1" xmlns="http://www.w3.org/2000/svg"><path  d="M896 797.013333h-768c-51.2 0-93.866667-42.666667-93.866667-93.866666V162.133333C34.133333 110.933333 76.8 68.266667 128 68.266667h768c51.2 0 93.866667 42.666667 93.866667 93.866666v542.72c0 51.2-42.666667 92.16-93.866667 92.16zM128 119.466667C104.106667 119.466667 85.333333 138.24 85.333333 162.133333v542.72c0 23.893333 18.773333 42.666667 42.666667 42.666667h768c23.893333 0 42.666667-18.773333 42.666667-42.666667V162.133333C938.666667 138.24 919.893333 119.466667 896 119.466667h-768z"  /><path  d="M512 955.733333c-13.653333 0-25.6-11.946667-25.6-25.6v-158.72c0-13.653333 11.946667-25.6 25.6-25.6s25.6 11.946667 25.6 25.6v158.72c0 13.653333-11.946667 25.6-25.6 25.6zM331.093333 616.106667c-6.826667 0-13.653333-3.413333-18.773333-8.533334-8.533333-10.24-8.533333-27.306667 1.706667-35.84L675.84 256c10.24-8.533333 27.306667-8.533333 35.84 1.706667s8.533333 27.306667-1.706667 35.84L348.16 610.986667c-5.12 3.413333-10.24 5.12-17.066667 5.12z"  /><path  d="M827.733333 955.733333H194.56c-13.653333 0-25.6-11.946667-25.6-25.6s11.946667-25.6 25.6-25.6h633.173333c13.653333 0 25.6 11.946667 25.6 25.6s-10.24 25.6-25.6 25.6zM308.906667 435.2c-51.2 0-93.866667-42.666667-93.866667-93.866667s42.666667-93.866667 93.866667-93.866666 93.866667 42.666667 93.866666 93.866666c-1.706667 52.906667-42.666667 93.866667-93.866666 93.866667z m0-134.826667c-23.893333 0-42.666667 18.773333-42.666667 42.666667s18.773333 42.666667 42.666667 42.666667 42.666667-18.773333 42.666666-42.666667c-1.706667-23.893333-20.48-42.666667-42.666666-42.666667zM715.093333 616.106667c-51.2 0-93.866667-42.666667-93.866666-93.866667s42.666667-93.866667 93.866666-93.866667 93.866667 42.666667 93.866667 93.866667c0 52.906667-42.666667 93.866667-93.866667 93.866667z m0-134.826667c-23.893333 0-42.666667 18.773333-42.666666 42.666667s18.773333 42.666667 42.666666 42.666666 42.666667-18.773333 42.666667-42.666666-18.773333-42.666667-42.666667-42.666667z"  /></svg>