<?xml version="1.0" standalone="no"?><!DOCTYPE svg PUBLIC "-//W3C//DTD SVG 1.1//EN" "http://www.w3.org/Graphics/SVG/1.1/DTD/svg11.dtd"><svg class="icon" width="64px" height="64.00px" viewBox="0 0 1024 1024" version="1.1" xmlns="http://www.w3.org/2000/svg"><path  d="M262.826667 537.6C133.12 537.6 34.133333 488.106667 34.133333 421.546667V150.186667c0-13.653333 11.946667-25.6 25.6-25.6S85.333333 136.533333 85.333333 150.186667v271.36c0 25.6 69.973333 64.853333 177.493334 64.853333 109.226667 0 177.493333-39.253333 177.493333-64.853333V150.186667c0-13.653333 11.946667-25.6 25.6-25.6s25.6 11.946667 25.6 25.6v271.36c1.706667 66.56-97.28 116.053333-228.693333 116.053333z"  /><path  d="M262.826667 402.773333c-129.706667 0-228.693333-51.2-228.693334-117.76 0-13.653333 11.946667-25.6 25.6-25.6s25.6 11.946667 25.6 25.6c0 25.6 69.973333 64.853333 177.493334 64.853334 109.226667 0 177.493333-39.253333 177.493333-64.853334 0-13.653333 11.946667-25.6 25.6-25.6s25.6 11.946667 25.6 25.6c1.706667 66.56-97.28 117.76-228.693333 117.76z"  /><path  d="M262.826667 266.24C133.12 266.24 34.133333 216.746667 34.133333 150.186667S133.12 34.133333 262.826667 34.133333c131.413333 0 228.693333 49.493333 228.693333 116.053334s-97.28 116.053333-228.693333 116.053333z m0-180.906667C155.306667 85.333333 85.333333 124.586667 85.333333 150.186667s69.973333 64.853333 177.493334 64.853333c109.226667 0 177.493333-39.253333 177.493333-64.853333 1.706667-25.6-68.266667-64.853333-177.493333-64.853334zM919.893333 356.693333c-13.653333 0-25.6-11.946667-25.6-25.6v-157.013333c0-23.893333-18.773333-42.666667-42.666666-42.666667h-157.013334c-13.653333 0-25.6-11.946667-25.6-25.6s11.946667-25.6 25.6-25.6h157.013334c51.2 0 93.866667 42.666667 93.866666 93.866667v157.013333c0 13.653333-11.946667 25.6-25.6 25.6zM331.093333 945.493333h-157.013333c-51.2 0-93.866667-42.666667-93.866667-93.866666v-157.013334c0-13.653333 11.946667-25.6 25.6-25.6s25.6 11.946667 25.6 25.6v157.013334c0 23.893333 18.773333 42.666667 42.666667 42.666666h157.013333c13.653333 0 25.6 11.946667 25.6 25.6s-11.946667 25.6-25.6 25.6zM761.173333 989.866667c-13.653333 0-25.6-11.946667-25.6-25.6v-134.826667c0-13.653333 11.946667-25.6 25.6-25.6s25.6 11.946667 25.6 25.6v134.826667c0 13.653333-11.946667 25.6-25.6 25.6z"  /><path  d="M896 989.866667H624.64c-13.653333 0-25.6-11.946667-25.6-25.6s11.946667-25.6 25.6-25.6h271.36c13.653333 0 25.6 11.946667 25.6 25.6s-10.24 25.6-25.6 25.6zM930.133333 855.04H592.213333c-32.426667 0-59.733333-27.306667-59.733333-59.733333v-204.8c0-32.426667 27.306667-59.733333 59.733333-59.733334h337.92c32.426667 0 59.733333 27.306667 59.733334 59.733334v203.093333c0 34.133333-27.306667 61.44-59.733334 61.44z m-337.92-273.066667c-5.12 0-8.533333 3.413333-8.533333 8.533334v203.093333c0 5.12 3.413333 8.533333 8.533333 8.533333h337.92c5.12 0 8.533333-3.413333 8.533334-8.533333V590.506667c0-5.12-3.413333-8.533333-8.533334-8.533334H592.213333z"  /></svg>