<?xml version="1.0" standalone="no"?><!DOCTYPE svg PUBLIC "-//W3C//DTD SVG 1.1//EN" "http://www.w3.org/Graphics/SVG/1.1/DTD/svg11.dtd"><svg class="icon" width="64px" height="64.00px" viewBox="0 0 1024 1024" version="1.1" xmlns="http://www.w3.org/2000/svg"><path  d="M650.24 989.866667c-10.24 0-20.48-3.413333-29.013333-11.946667L512 885.76l-102.4 93.866667c-8.533333 8.533333-18.773333 11.946667-30.72 11.946666-10.24 0-20.48-5.12-29.013333-11.946666L240.64 887.466667l-81.92 87.04c-11.946667 13.653333-30.72 17.066667-47.786667 10.24-17.066667-6.826667-27.306667-22.186667-27.306666-39.253334V129.706667C83.626667 76.8 126.293333 34.133333 179.2 34.133333h665.6c52.906667 0 95.573333 42.666667 95.573333 95.573334v814.08c0 18.773333-10.24 34.133333-27.306666 40.96-17.066667 6.826667-35.84 1.706667-47.786667-11.946667l-76.8-85.333333-107.52 90.453333c-8.533333 8.533333-18.773333 11.946667-30.72 11.946667z m252.586667-51.2zM512 831.146667c10.24 0 20.48 3.413333 27.306667 10.24l110.933333 93.866666 110.933333-93.866666c17.066667-15.36 44.373333-13.653333 59.733334 3.413333l68.266666 75.093333V129.706667C889.173333 105.813333 870.4 85.333333 844.8 85.333333h-665.6C153.6 85.333333 134.826667 105.813333 134.826667 129.706667v795.306666l73.386666-78.506666c8.533333-8.533333 18.773333-13.653333 30.72-13.653334 10.24 0 22.186667 3.413333 30.72 11.946667l110.933334 90.453333 105.813333-95.573333c6.826667-5.12 15.36-8.533333 25.6-8.533333z"  /><path  d="M447.146667 305.493333H240.64c-13.653333 0-25.6-11.946667-25.6-25.6s11.946667-25.6 25.6-25.6h206.506667c13.653333 0 25.6 11.946667 25.6 25.6s-10.24 25.6-25.6 25.6zM366.933333 494.933333h-126.293333c-13.653333 0-25.6-11.946667-25.6-25.6s11.946667-25.6 25.6-25.6h126.293333c13.653333 0 25.6 11.946667 25.6 25.6s-11.946667 25.6-25.6 25.6zM752.64 733.866667h-512c-13.653333 0-25.6-11.946667-25.6-25.6s11.946667-25.6 25.6-25.6h512c13.653333 0 25.6 11.946667 25.6 25.6S768 733.866667 752.64 733.866667z"  /><path  d="M447.146667 650.24c-6.826667 0-13.653333-3.413333-18.773334-6.826667-6.826667-6.826667-8.533333-15.36-6.826666-23.893333l22.186666-109.226667c1.706667-5.12 3.413333-10.24 6.826667-13.653333L682.666667 266.24c10.24-10.24 25.6-10.24 35.84 0l88.746666 88.746667c10.24 10.24 10.24 25.6 0 35.84L575.146667 621.226667c-3.413333 3.413333-8.533333 6.826667-13.653334 6.826666l-109.226666 22.186667h-5.12z m110.933333-47.786667z m-64.853333-75.093333l-13.653334 64.853333 64.853334-13.653333 208.213333-208.213333-51.2-51.2-208.213333 208.213333z"  /></svg>