<?xml version="1.0" standalone="no"?><!DOCTYPE svg PUBLIC "-//W3C//DTD SVG 1.1//EN" "http://www.w3.org/Graphics/SVG/1.1/DTD/svg11.dtd"><svg class="icon" width="64px" height="64.00px" viewBox="0 0 1024 1024" version="1.1" xmlns="http://www.w3.org/2000/svg"><path  d="M805.546667 989.866667H218.453333a94.037333 94.037333 0 0 1-93.866666-93.866667v-768C124.586667 76.288 166.741333 34.133333 218.453333 34.133333h429.226667c6.826667 0 13.312 2.730667 18.090667 7.509334l226.133333 226.133333c4.778667 4.778667 7.509333 11.264 7.509333 18.090667V896c0 51.712-42.154667 93.866667-93.866666 93.866667zM218.453333 85.333333a42.666667 42.666667 0 0 0-42.666666 42.666667v768a42.666667 42.666667 0 0 0 42.666666 42.666667h587.093334a42.666667 42.666667 0 0 0 42.666666-42.666667V296.448L637.098667 85.333333H218.453333z"  /><path  d="M426.666667 448c-37.717333 0-68.266667-30.549333-68.266667-68.266667s30.549333-68.266667 68.266667-68.266666 68.266667 30.549333 68.266666 68.266666-30.549333 68.266667-68.266666 68.266667z m0-85.333333c-9.386667 0-17.066667 7.68-17.066667 17.066666s7.68 17.066667 17.066667 17.066667 17.066667-7.68 17.066666-17.066667-7.68-17.066667-17.066666-17.066666zM554.666667 704h-160.085334c-57.173333 0-100.352-43.178667-100.352-100.352s43.178667-100.352 100.352-100.352h74.752c14.165333 0 25.6 11.434667 25.6 25.6s-11.434667 25.6-25.6 25.6h-74.752c-28.842667 0-49.152 20.138667-49.152 49.152s20.138667 49.152 49.152 49.152h160.085334c14.165333 0 25.6 11.434667 25.6 25.6s-11.434667 25.6-25.6 25.6z"  /><path  d="M629.418667 554.666667H469.333333c-14.165333 0-25.6-11.434667-25.6-25.6s11.434667-25.6 25.6-25.6h160.085334c28.842667 0 49.152-20.138667 49.152-49.152s-20.138667-49.152-49.152-49.152H469.333333c-14.165333 0-25.6-11.434667-25.6-25.6s11.434667-25.6 25.6-25.6h160.085334c57.173333 0 100.352 43.178667 100.352 100.352s-43.349333 100.352-100.352 100.352zM384 405.333333h-64c-14.165333 0-25.6-11.434667-25.6-25.6s11.434667-25.6 25.6-25.6h64c14.165333 0 25.6 11.434667 25.6 25.6s-11.434667 25.6-25.6 25.6zM704 704H640c-14.165333 0-25.6-11.434667-25.6-25.6s11.434667-25.6 25.6-25.6h64c14.165333 0 25.6 11.434667 25.6 25.6s-11.434667 25.6-25.6 25.6z"  /><path  d="M597.333333 746.666667c-37.717333 0-68.266667-30.549333-68.266666-68.266667s30.549333-68.266667 68.266666-68.266667 68.266667 30.549333 68.266667 68.266667-30.549333 68.266667-68.266667 68.266667z m0-85.333334c-9.386667 0-17.066667 7.68-17.066666 17.066667s7.68 17.066667 17.066666 17.066667 17.066667-7.68 17.066667-17.066667-7.68-17.066667-17.066667-17.066667z"  /></svg>