<?xml version="1.0" standalone="no"?><!DOCTYPE svg PUBLIC "-//W3C//DTD SVG 1.1//EN" "http://www.w3.org/Graphics/SVG/1.1/DTD/svg11.dtd"><svg class="icon" width="64px" height="64.00px" viewBox="0 0 1024 1024" version="1.1" xmlns="http://www.w3.org/2000/svg"><path  d="M779.946667 989.866667H116.053333c-46.08 0-85.333333-37.546667-85.333333-85.333334V240.64c0-46.08 37.546667-85.333333 85.333333-85.333333h663.893334c46.08 0 85.333333 37.546667 85.333333 85.333333V904.533333c0 47.786667-37.546667 85.333333-85.333333 85.333334zM116.053333 206.506667c-18.773333 0-34.133333 15.36-34.133333 34.133333V904.533333c0 18.773333 15.36 34.133333 34.133333 34.133334h663.893334c18.773333 0 34.133333-15.36 34.133333-34.133334V240.64c0-18.773333-15.36-34.133333-34.133333-34.133333H116.053333z"  /><path  d="M967.68 894.293333c-13.653333 0-25.6-11.946667-25.6-25.6v-750.933333c0-17.066667-15.36-32.426667-32.426667-32.426667h-750.933333c-13.653333 0-25.6-11.946667-25.6-25.6S145.066667 34.133333 158.72 34.133333h750.933333c46.08 0 83.626667 37.546667 83.626667 83.626667v750.933333c0 13.653333-11.946667 25.6-25.6 25.6z"  /><path  d="M636.586667 756.053333h-375.466667v-88.746666c0-29.013333 23.893333-54.613333 54.613333-54.613334h66.56c-1.706667-1.706667-3.413333-5.12-6.826666-6.826666-15.36-17.066667-42.666667-46.08-42.666667-100.693334 0-85.333333 64.853333-116.053333 119.466667-116.053333 56.32 0 114.346667 30.72 114.346666 116.053333 0 52.906667-25.6 80.213333-40.96 97.28-3.413333 3.413333-6.826667 8.533333-8.533333 10.24v1.706667h64.853333c29.013333 0 54.613333 23.893333 54.613334 54.613333v87.04z m-324.266667-51.2h273.066667v-37.546666c0-1.706667-1.706667-3.413333-3.413334-3.413334h-83.626666c-34.133333 0-34.133333-29.013333-34.133334-52.906666 0-20.48 11.946667-32.426667 22.186667-44.373334 13.653333-13.653333 27.306667-29.013333 27.306667-61.44 0-42.666667-22.186667-64.853333-63.146667-64.853333-30.72 0-68.266667 11.946667-68.266667 64.853333 0 35.84 15.36 51.2 29.013334 66.56 10.24 10.24 20.48 22.186667 20.48 39.253334 0 11.946667 0 20.48-1.706667 27.306666-3.413333 15.36-17.066667 25.6-32.426667 25.6h-83.626666c-1.706667 0-3.413333 1.706667-3.413334 3.413334l1.706667 37.546666z"  /></svg>