<?xml version="1.0" standalone="no"?><!DOCTYPE svg PUBLIC "-//W3C//DTD SVG 1.1//EN" "http://www.w3.org/Graphics/SVG/1.1/DTD/svg11.dtd"><svg class="icon" width="64px" height="64.00px" viewBox="0 0 1024 1024" version="1.1" xmlns="http://www.w3.org/2000/svg"><path  d="M660.48 447.146667c-6.826667 0-11.946667-1.706667-17.066667-6.826667L512 314.026667l-131.413333 126.293333c-10.24 10.24-25.6 10.24-35.84 0-10.24-10.24-10.24-25.6 0-35.84l148.48-143.36c10.24-10.24 25.6-10.24 35.84 0l148.48 143.36c10.24 10.24 10.24 25.6 0 35.84-3.413333 3.413333-10.24 6.826667-17.066667 6.826667zM363.52 228.693333c-6.826667 0-13.653333-3.413333-18.773333-8.533333-10.24-10.24-10.24-25.6 0-35.84L494.933333 40.96c10.24-10.24 25.6-10.24 35.84 0l148.48 143.36c10.24 10.24 10.24 25.6 0 35.84-10.24 10.24-25.6 10.24-35.84 0L512 95.573333 380.586667 221.866667c-5.12 3.413333-10.24 6.826667-17.066667 6.826666z"  /><path  d="M512 989.866667C259.413333 989.866667 54.613333 785.066667 54.613333 532.48 54.613333 409.6 102.4 295.253333 187.733333 209.92c10.24-10.24 25.6-10.24 35.84 0s10.24 25.6 0 35.84c-76.8 76.8-119.466667 179.2-119.466666 286.72C105.813333 756.053333 288.426667 938.666667 512 938.666667s406.186667-182.613333 406.186667-406.186667c0-105.813333-39.253333-204.8-112.64-279.893333-10.24-10.24-10.24-25.6 0-35.84 10.24-10.24 25.6-10.24 35.84 0 81.92 85.333333 126.293333 197.973333 126.293333 315.733333C969.386667 785.066667 764.586667 989.866667 512 989.866667z"  /></svg>