<?xml version="1.0" standalone="no"?><!DOCTYPE svg PUBLIC "-//W3C//DTD SVG 1.1//EN" "http://www.w3.org/Graphics/SVG/1.1/DTD/svg11.dtd"><svg class="icon" width="64px" height="64.00px" viewBox="0 0 1024 1024" version="1.1" xmlns="http://www.w3.org/2000/svg"><path  d="M651.946667 679.253333H324.266667c-13.653333 0-25.6-11.946667-25.6-25.6s11.946667-25.6 25.6-25.6h329.386666c13.653333 0 25.6 11.946667 25.6 25.6s-11.946667 25.6-27.306666 25.6zM488.106667 819.2H324.266667c-13.653333 0-25.6-11.946667-25.6-25.6S310.613333 768 324.266667 768h163.84c13.653333 0 25.6 11.946667 25.6 25.6s-10.24 25.6-25.6 25.6zM641.706667 520.533333H382.293333c-22.186667 0-40.96-18.773333-40.96-40.96v-83.626666c0-22.186667 18.773333-40.96 40.96-40.96h259.413334c22.186667 0 40.96 18.773333 40.96 40.96v83.626666c0 22.186667-18.773333 40.96-40.96 40.96z m-249.173334-51.2h238.933334v-63.146666H392.533333v63.146666z"  /><path  d="M624.64 406.186667H399.36l47.786667-136.533334c5.12-13.653333 17.066667-22.186667 30.72-22.186666h64.853333c13.653333 0 27.306667 8.533333 30.72 22.186666l51.2 136.533334z m-151.893333-51.2h80.213333l-20.48-56.32h-40.96l-18.773333 56.32z m23.893333-68.266667z"  /><path  d="M539.306667 296.96h-54.613334c-37.546667 0-66.56-30.72-66.56-66.56s30.72-66.56 66.56-66.56h54.613334c37.546667 0 66.56 30.72 66.56 66.56s-29.013333 66.56-66.56 66.56z m-54.613334-81.92c-8.533333 0-15.36 6.826667-15.36 15.36s6.826667 15.36 15.36 15.36h54.613334c8.533333 0 15.36-6.826667 15.36-15.36s-6.826667-15.36-15.36-15.36h-54.613334z"  /><path  d="M824.32 989.866667H199.68c-47.786667 0-88.746667-46.08-88.746667-100.693334V134.826667C110.933333 80.213333 150.186667 34.133333 199.68 34.133333h626.346667c47.786667 0 88.746667 46.08 88.746666 100.693334v754.346666c-1.706667 54.613333-40.96 100.693333-90.453333 100.693334zM199.68 85.333333c-20.48 0-37.546667 22.186667-37.546667 49.493334v754.346666c0 27.306667 17.066667 49.493333 37.546667 49.493334h626.346667c20.48 0 37.546667-22.186667 37.546666-49.493334V134.826667c0-27.306667-17.066667-49.493333-37.546666-49.493334H199.68z"  /></svg>