<?xml version="1.0" standalone="no"?><!DOCTYPE svg PUBLIC "-//W3C//DTD SVG 1.1//EN" "http://www.w3.org/Graphics/SVG/1.1/DTD/svg11.dtd"><svg class="icon" width="64px" height="64.00px" viewBox="0 0 1024 1024" version="1.1" xmlns="http://www.w3.org/2000/svg"><path  d="M370.346667 389.12c-6.826667 0-13.653333-3.413333-18.773334-8.533333-10.24-10.24-10.24-25.6 0-35.84l141.653334-136.533334c10.24-10.24 25.6-10.24 35.84 0l141.653333 136.533334c10.24 10.24 10.24 25.6 0 35.84-10.24 10.24-25.6 10.24-35.84 0l-124.586667-119.466667-124.586666 119.466667c-3.413333 6.826667-8.533333 8.533333-15.36 8.533333z"  /><path  d="M512 585.386667c-13.653333 0-25.6-11.946667-25.6-25.6V226.986667c0-13.653333 11.946667-25.6 25.6-25.6s25.6 11.946667 25.6 25.6v332.8c0 13.653333-11.946667 25.6-25.6 25.6z"  /><path  d="M836.266667 989.866667H187.733333c-51.2 0-93.866667-42.666667-93.866666-93.866667v-768C93.866667 76.8 136.533333 34.133333 187.733333 34.133333h648.533334c51.2 0 93.866667 42.666667 93.866666 93.866667v768c0 51.2-42.666667 93.866667-93.866666 93.866667zM187.733333 85.333333C163.84 85.333333 145.066667 104.106667 145.066667 128v768c0 23.893333 18.773333 42.666667 42.666666 42.666667h648.533334c23.893333 0 42.666667-18.773333 42.666666-42.666667v-768C878.933333 104.106667 860.16 85.333333 836.266667 85.333333H187.733333z"  /><path  d="M706.56 703.146667H317.44c-13.653333 0-25.6-11.946667-25.6-25.6s11.946667-25.6 25.6-25.6h390.826667c13.653333 0 25.6 11.946667 25.6 25.6s-11.946667 25.6-27.306667 25.6z"  /><path  d="M609.28 812.373333H414.72c-13.653333 0-25.6-11.946667-25.6-25.6s11.946667-25.6 25.6-25.6h194.56c13.653333 0 25.6 11.946667 25.6 25.6s-11.946667 25.6-25.6 25.6z"  /></svg>