<?xml version="1.0" standalone="no"?><!DOCTYPE svg PUBLIC "-//W3C//DTD SVG 1.1//EN" "http://www.w3.org/Graphics/SVG/1.1/DTD/svg11.dtd"><svg class="icon" width="64px" height="64.00px" viewBox="0 0 1024 1024" version="1.1" xmlns="http://www.w3.org/2000/svg"><path  d="M896 989.866667h-768c-51.2 0-93.866667-42.666667-93.866667-93.866667v-768C34.133333 76.8 76.8 34.133333 128 34.133333h334.506667c13.653333 0 25.6 11.946667 25.6 25.6S476.16 85.333333 462.506667 85.333333H128C104.106667 85.333333 85.333333 104.106667 85.333333 128v768C85.333333 919.893333 104.106667 938.666667 128 938.666667h768c23.893333 0 42.666667-18.773333 42.666667-42.666667V561.493333c0-13.653333 11.946667-25.6 25.6-25.6s25.6 11.946667 25.6 25.6v334.506667c0 51.2-42.666667 93.866667-93.866667 93.866667z"  /><path  d="M445.44 788.48H261.12c-13.653333 0-25.6-11.946667-25.6-25.6V580.266667c0-6.826667 3.413333-13.653333 6.826667-18.773334L762.88 40.96c10.24-10.24 27.306667-10.24 35.84 0l184.32 184.32c10.24 10.24 10.24 25.6 0 35.84L462.506667 781.653333c-5.12 5.12-11.946667 6.826667-17.066667 6.826667z m-158.72-51.2h148.48l493.226667-494.933333-146.773334-146.773334-494.933333 494.933334v146.773333z"  /></svg>