<?xml version="1.0" standalone="no"?><!DOCTYPE svg PUBLIC "-//W3C//DTD SVG 1.1//EN" "http://www.w3.org/Graphics/SVG/1.1/DTD/svg11.dtd"><svg class="icon" width="64px" height="64.00px" viewBox="0 0 1024 1024" version="1.1" xmlns="http://www.w3.org/2000/svg"><path  d="M722.602667 885.76H189.610667a94.037333 94.037333 0 0 1-93.866667-93.866667V128c0-51.712 42.154667-93.866667 93.866667-93.866667h532.992c51.712 0 93.866667 42.154667 93.866666 93.866667v663.893333c0 51.712-42.154667 93.866667-93.866666 93.866667zM189.610667 85.333333a42.666667 42.666667 0 0 0-42.666667 42.666667v663.893333a42.666667 42.666667 0 0 0 42.666667 42.666667h532.992a42.666667 42.666667 0 0 0 42.666666-42.666667V128a42.666667 42.666667 0 0 0-42.666666-42.666667H189.610667z"  /><path  d="M843.093333 989.866667H292.522667c-46.933333 0-85.162667-38.229333-85.162667-85.162667V860.16c0-14.165333 11.434667-25.6 25.6-25.6s25.6 11.434667 25.6 25.6v44.714667c0 18.773333 15.189333 33.962667 33.962667 33.962666H843.093333c18.773333 0 33.962667-15.189333 33.962667-33.962666V223.402667c0-18.773333-15.189333-33.962667-33.962667-33.962667h-52.224c-14.165333 0-25.6-11.434667-25.6-25.6s11.434667-25.6 25.6-25.6h52.224c46.933333 0 85.162667 38.229333 85.162667 85.162667v681.301333c0 46.933333-38.229333 85.162667-85.162667 85.162667z"  /><path  d="M668.16 485.546667H244.224c-14.165333 0-25.6-11.434667-25.6-25.6s11.434667-25.6 25.6-25.6h423.936c14.165333 0 25.6 11.434667 25.6 25.6s-11.434667 25.6-25.6 25.6zM505.173333 396.288h-98.133333c-23.893333 0-43.52-19.456-43.52-43.52v-98.133333c0-23.893333 19.456-43.52 43.52-43.52h98.133333c23.893333 0 43.52 19.456 43.52 43.52v98.133333c0 24.064-19.456 43.52-43.52 43.52z m-90.282666-51.2h82.773333v-82.773333h-82.773333v82.773333zM371.370667 708.778667h-98.133334c-23.893333 0-43.52-19.456-43.52-43.52v-98.133334c0-23.893333 19.456-43.52 43.52-43.52h98.133334c23.893333 0 43.52 19.456 43.52 43.52v98.133334c0 23.893333-19.626667 43.52-43.52 43.52z m-90.453334-51.2h82.773334v-82.773334h-82.773334v82.773334zM639.146667 708.778667H541.013333c-23.893333 0-43.52-19.456-43.52-43.52v-98.133334c0-23.893333 19.456-43.52 43.52-43.52h98.133334c23.893333 0 43.52 19.456 43.52 43.52v98.133334c0 23.893333-19.626667 43.52-43.52 43.52z m-90.453334-51.2H631.466667v-82.773334h-82.602667v82.773334z"  /><path  d="M456.192 485.546667c-14.165333 0-25.6-11.434667-25.6-25.6v-89.258667c0-14.165333 11.434667-25.6 25.6-25.6s25.6 11.434667 25.6 25.6v89.258667c0 14.165333-11.434667 25.6-25.6 25.6zM589.994667 574.805333c-14.165333 0-25.6-11.434667-25.6-25.6v-89.258666c0-14.165333 11.434667-25.6 25.6-25.6s25.6 11.434667 25.6 25.6v89.258666c0 14.165333-11.434667 25.6-25.6 25.6zM322.218667 574.805333c-14.165333 0-25.6-11.434667-25.6-25.6v-89.258666c0-14.165333 11.434667-25.6 25.6-25.6s25.6 11.434667 25.6 25.6v89.258666c0 14.165333-11.434667 25.6-25.6 25.6z"  /></svg>