<?xml version="1.0" standalone="no"?><!DOCTYPE svg PUBLIC "-//W3C//DTD SVG 1.1//EN" "http://www.w3.org/Graphics/SVG/1.1/DTD/svg11.dtd"><svg class="icon" width="64px" height="64.00px" viewBox="0 0 1024 1024" version="1.1" xmlns="http://www.w3.org/2000/svg"><path  d="M882.346667 989.866667H375.466667c-44.373333 0-80.213333-42.666667-80.213334-95.573334v-112.64c0-13.653333 11.946667-25.6 25.6-25.6s25.6 11.946667 25.6 25.6v112.64c0 23.893333 13.653333 44.373333 29.013334 44.373334h506.88c13.653333 0 27.306667-17.066667 27.306666-42.666667V129.706667c0-23.893333-13.653333-44.373333-29.013333-44.373334H375.466667c-15.36 0-29.013333 20.48-29.013334 44.373334V512c0 13.653333-11.946667 25.6-25.6 25.6s-25.6-11.946667-25.6-25.6V129.706667C295.253333 76.8 331.093333 34.133333 375.466667 34.133333h505.173333c44.373333 0 80.213333 42.666667 80.213333 95.573334v766.293333c0 51.2-34.133333 93.866667-78.506666 93.866667z"  /><path  d="M88.746667 989.866667c-13.653333 0-25.6-11.946667-25.6-25.6V610.986667c0-49.493333 22.186667-97.28 58.026666-129.706667l182.613334-160.426667c6.826667-6.826667 18.773333-8.533333 27.306666-3.413333 8.533333 3.413333 15.36 13.653333 15.36 23.893333v179.2l17.066667-11.946666c23.893333-17.066667 52.906667-23.893333 83.626667-20.48 29.013333 5.12 54.613333 20.48 71.68 44.373333 34.133333 47.786667 23.893333 117.76-23.893334 153.6l-221.866666 165.546667c-11.946667 8.533333-27.306667 6.826667-35.84-5.12s-6.826667-27.306667 5.12-35.84l221.866666-165.546667c25.6-18.773333 30.72-56.32 13.653334-81.92-8.533333-13.653333-23.893333-22.186667-39.253334-23.893333-15.36-3.413333-32.426667 1.706667-44.373333 10.24l-58.026667 42.666666c-8.533333 5.12-18.773333 6.826667-27.306666 1.706667-8.533333-5.12-13.653333-13.653333-13.653334-22.186667V395.946667L153.6 518.826667c-25.6 23.893333-40.96 56.32-40.96 92.16v353.28c1.706667 13.653333-10.24 25.6-23.893333 25.6zM628.053333 465.92c-13.653333 0-25.6-11.946667-25.6-25.6V259.413333c0-13.653333 11.946667-25.6 25.6-25.6s25.6 11.946667 25.6 25.6v180.906667c0 13.653333-10.24 25.6-25.6 25.6z"  /><path  d="M716.8 348.16c-6.826667 0-13.653333-1.706667-18.773333-6.826667l-69.973334-69.973333-69.973333 69.973333c-10.24 10.24-25.6 10.24-35.84 0s-10.24-25.6 0-35.84l88.746667-88.746666c10.24-10.24 27.306667-10.24 35.84 0l88.746666 88.746666c10.24 10.24 10.24 25.6 0 35.84-5.12 5.12-11.946667 6.826667-18.773333 6.826667zM808.96 752.64H583.68c-13.653333 0-25.6-11.946667-25.6-25.6s11.946667-25.6 25.6-25.6h225.28c13.653333 0 25.6 11.946667 25.6 25.6s-11.946667 25.6-25.6 25.6z"  /><path  d="M808.96 858.453333H583.68c-13.653333 0-25.6-11.946667-25.6-25.6s11.946667-25.6 25.6-25.6h225.28c13.653333 0 25.6 11.946667 25.6 25.6s-11.946667 25.6-25.6 25.6z"  /></svg>