<?xml version="1.0" standalone="no"?><!DOCTYPE svg PUBLIC "-//W3C//DTD SVG 1.1//EN" "http://www.w3.org/Graphics/SVG/1.1/DTD/svg11.dtd"><svg class="icon" width="64px" height="64.00px" viewBox="0 0 1024 1024" version="1.1" xmlns="http://www.w3.org/2000/svg"><path  d="M896 797.013333h-768c-51.2 0-93.866667-42.666667-93.866667-93.866666V162.133333C34.133333 109.226667 76.8 68.266667 128 68.266667h768c51.2 0 93.866667 42.666667 93.866667 93.866666v542.72c0 51.2-42.666667 92.16-93.866667 92.16zM128 119.466667C104.106667 119.466667 85.333333 138.24 85.333333 162.133333v542.72c0 23.893333 18.773333 42.666667 42.666667 42.666667h768c23.893333 0 42.666667-18.773333 42.666667-42.666667V162.133333C938.666667 138.24 919.893333 119.466667 896 119.466667h-768z"  /><path  d="M512 955.733333c-13.653333 0-25.6-11.946667-25.6-25.6v-158.72c0-13.653333 11.946667-25.6 25.6-25.6s25.6 11.946667 25.6 25.6v158.72c0 13.653333-11.946667 25.6-25.6 25.6z"  /><path  d="M829.44 955.733333H194.56c-13.653333 0-25.6-11.946667-25.6-25.6s11.946667-25.6 25.6-25.6h633.173333c13.653333 0 25.6 11.946667 25.6 25.6s-10.24 25.6-23.893333 25.6z"  /><path  d="M512 551.253333c-13.653333 0-25.6-11.946667-25.6-25.6V375.466667c0-13.653333 11.946667-25.6 25.6-25.6s25.6 11.946667 25.6 25.6v150.186666c0 13.653333-11.946667 25.6-25.6 25.6z"  /><path  d="M438.613333 453.973333c-6.826667 0-13.653333-1.706667-18.773333-6.826666-10.24-10.24-10.24-25.6 0-35.84l73.386667-73.386667c10.24-10.24 25.6-10.24 35.84 0l73.386666 73.386667c10.24 10.24 10.24 25.6 0 35.84s-25.6 10.24-35.84 0L512 390.826667l-54.613333 54.613333c-5.12 6.826667-11.946667 8.533333-18.773334 8.533333z"  /><path  d="M512 670.72c-126.293333 0-230.4-104.106667-230.4-230.4S385.706667 209.92 512 209.92s230.4 104.106667 230.4 230.4S638.293333 670.72 512 670.72z m0-409.6c-98.986667 0-179.2 80.213333-179.2 179.2S413.013333 619.52 512 619.52s179.2-80.213333 179.2-179.2S610.986667 261.12 512 261.12z"  /></svg>