<?xml version="1.0" standalone="no"?><!DOCTYPE svg PUBLIC "-//W3C//DTD SVG 1.1//EN" "http://www.w3.org/Graphics/SVG/1.1/DTD/svg11.dtd"><svg class="icon" width="64px" height="64.00px" viewBox="0 0 1024 1024" version="1.1" xmlns="http://www.w3.org/2000/svg"><path  d="M836.266667 989.866667H187.733333c-51.2 0-93.866667-42.666667-93.866666-93.866667v-768C93.866667 76.8 136.533333 34.133333 187.733333 34.133333h648.533334c51.2 0 93.866667 42.666667 93.866666 93.866667v768c0 51.2-42.666667 93.866667-93.866666 93.866667zM187.733333 85.333333C163.84 85.333333 145.066667 104.106667 145.066667 128v768c0 23.893333 18.773333 42.666667 42.666666 42.666667h648.533334c23.893333 0 42.666667-18.773333 42.666666-42.666667v-768C878.933333 104.106667 860.16 85.333333 836.266667 85.333333H187.733333z"  /><path  d="M315.733333 592.213333c-6.826667 0-13.653333-1.706667-18.773333-6.826666-8.533333-8.533333-10.24-23.893333-1.706667-34.133334l114.346667-157.013333-66.56-66.56c-5.12-5.12-6.826667-11.946667-6.826667-18.773333 0-6.826667 3.413333-13.653333 6.826667-18.773334 22.186667-22.186667 59.733333-42.666667 116.053333-18.773333l109.226667-59.733333-5.12-35.84c-1.706667-10.24 3.413333-22.186667 13.653333-27.306667 10.24-5.12 22.186667-3.413333 29.013334 5.12l121.173333 121.173333c8.533333 8.533333 10.24 20.48 5.12 29.013334-5.12 10.24-15.36 15.36-27.306667 13.653333l-35.84-5.12-59.733333 109.226667c10.24 25.6 23.893333 73.386667-18.773333 114.346666-5.12 5.12-11.946667 6.826667-18.773334 6.826667-6.826667 0-13.653333-3.413333-18.773333-6.826667l-66.56-66.56-155.306667 116.053334c-5.12 5.12-10.24 6.826667-15.36 6.826666z m174.08-179.2c6.826667 0 13.653333 1.706667 18.773334 6.826667l59.733333 59.733333c1.706667-11.946667 0-25.6-10.24-46.08-3.413333-6.826667-3.413333-17.066667 0-23.893333l75.093333-136.533333c1.706667-3.413333 5.12-6.826667 8.533334-10.24l-25.6-25.6c-1.706667 3.413333-5.12 6.826667-10.24 8.533333l-136.533334 75.093333c-6.826667 5.12-17.066667 5.12-23.893333 0-18.773333-10.24-34.133333-13.653333-44.373333-10.24l59.733333 59.733334c8.533333 8.533333 10.24 23.893333 1.706667 32.426666l-27.306667 37.546667 37.546667-27.306667c6.826667 1.706667 11.946667 0 17.066666 0zM723.626667 699.733333H300.373333c-13.653333 0-25.6-11.946667-25.6-25.6s11.946667-25.6 25.6-25.6h421.546667c13.653333 0 25.6 11.946667 25.6 25.6s-10.24 25.6-23.893333 25.6zM723.626667 820.906667H300.373333c-13.653333 0-25.6-11.946667-25.6-25.6s11.946667-25.6 25.6-25.6h421.546667c13.653333 0 25.6 11.946667 25.6 25.6s-10.24 25.6-23.893333 25.6z"  /></svg>