<?xml version="1.0" standalone="no"?><!DOCTYPE svg PUBLIC "-//W3C//DTD SVG 1.1//EN" "http://www.w3.org/Graphics/SVG/1.1/DTD/svg11.dtd"><svg class="icon" width="64px" height="64.00px" viewBox="0 0 1024 1024" version="1.1" xmlns="http://www.w3.org/2000/svg"><path  d="M861.013333 34.133333H162.986667a94.037333 94.037333 0 0 0-93.866667 93.866667v768c0 51.712 42.154667 93.866667 93.866667 93.866667h267.434666c14.165333 0 25.6-11.434667 25.6-25.6s-11.434667-25.6-25.6-25.6H162.986667a42.666667 42.666667 0 0 1-42.666667-42.666667v-768A42.666667 42.666667 0 0 1 162.986667 85.333333h697.856a42.666667 42.666667 0 0 1 42.666666 42.666667v340.992c0 14.165333 11.434667 25.6 25.6 25.6s25.6-11.434667 25.6-25.6V128c0.170667-51.712-41.984-93.866667-93.696-93.866667z"  /><path  d="M255.658667 278.528H703.146667c14.165333 0 25.6-11.434667 25.6-25.6s-11.434667-25.6-25.6-25.6H255.658667c-14.165333 0-25.6 11.434667-25.6 25.6s11.605333 25.6 25.6 25.6zM728.917333 422.4c0-14.165333-11.434667-25.6-25.6-25.6H255.658667c-14.165333 0-25.6 11.434667-25.6 25.6s11.434667 25.6 25.6 25.6H703.146667a25.6 25.6 0 0 0 25.770666-25.6zM255.658667 566.272c-14.165333 0-25.6 11.434667-25.6 25.6s11.434667 25.6 25.6 25.6h133.461333c14.165333 0 25.6-11.434667 25.6-25.6s-11.434667-25.6-25.6-25.6h-133.461333zM909.653333 791.552h-50.688l-36.522666-102.058667c20.650667-14.165333 34.133333-37.888 34.133333-64.682666 0-43.349333-35.328-78.506667-78.677333-78.506667h-70.656c-43.349333 0-78.506667 35.328-78.506667 78.506667 0 26.794667 13.653333 50.517333 34.133333 64.682666l-36.352 102.058667h-50.688c-24.917333 0-45.226667 20.309333-45.226666 45.226667v107.861333c0 24.917333 20.309333 45.226667 45.226666 45.226667H909.653333c24.917333 0 45.226667-20.309333 45.226667-45.226667v-107.861333c0-25.088-20.309333-45.226667-45.226667-45.226667zM707.413333 597.333333h70.656c15.189333 0 27.477333 12.288 27.477334 27.306667 0 15.189333-12.288 27.477333-27.477334 27.477333h-70.656a27.392 27.392 0 1 1 0-54.784z m4.266667 108.032h62.122667l30.72 86.186667H680.96l30.72-86.186667zM903.68 938.666667H581.973333v-22.357334h321.706667V938.666667zM581.973333 865.109333v-22.357333h321.706667v22.357333H581.973333z"  /></svg>