<?xml version="1.0" standalone="no"?><!DOCTYPE svg PUBLIC "-//W3C//DTD SVG 1.1//EN" "http://www.w3.org/Graphics/SVG/1.1/DTD/svg11.dtd"><svg class="icon" width="64px" height="64.00px" viewBox="0 0 1024 1024" version="1.1" xmlns="http://www.w3.org/2000/svg"><path  d="M823.466667 989.866667h-622.933334C146.432 989.866667 102.4 947.712 102.4 896v-768C102.4 76.288 146.432 34.133333 200.533333 34.133333h623.104C877.568 34.133333 921.6 76.288 921.6 128v768c0 51.712-44.032 93.866667-98.133333 93.866667zM200.533333 85.333333C174.592 85.333333 153.6 104.448 153.6 128v768c0 23.552 20.992 42.666667 46.933333 42.666667h623.104c25.770667 0 46.933333-19.114667 46.933334-42.666667v-768C870.4 104.448 849.408 85.333333 823.466667 85.333333h-622.933334z"  /><path  d="M716.8 632.661333H307.2c-14.165333 0-25.6-11.434667-25.6-25.6s11.434667-25.6 25.6-25.6h409.6c14.165333 0 25.6 11.434667 25.6 25.6s-11.434667 25.6-25.6 25.6zM716.8 795.648H307.2c-14.165333 0-25.6-11.434667-25.6-25.6s11.434667-25.6 25.6-25.6h409.6c14.165333 0 25.6 11.434667 25.6 25.6s-11.434667 25.6-25.6 25.6zM449.706667 438.613333c-11.264 0-22.357333-4.437333-30.549334-12.970666l-92.16-96.426667a25.6 25.6 0 0 1 37.034667-35.328l86.016 90.112 210.944-197.290667c10.24-9.728 26.453333-9.216 36.181333 1.194667a25.6 25.6 0 0 1-1.194666 36.181333l-217.429334 203.093334c-8.021333 7.509333-18.432 11.434667-28.842666 11.434666z"  /></svg>