<?xml version="1.0" standalone="no"?><!DOCTYPE svg PUBLIC "-//W3C//DTD SVG 1.1//EN" "http://www.w3.org/Graphics/SVG/1.1/DTD/svg11.dtd"><svg class="icon" width="64px" height="64.00px" viewBox="0 0 1024 1024" version="1.1" xmlns="http://www.w3.org/2000/svg"><path  d="M512 783.36c-150.186667 0-273.066667-122.88-273.066667-271.36 0-150.186667 122.88-271.36 273.066667-271.36S783.36 363.52 783.36 512c0 13.653333-11.946667 25.6-25.6 25.6H537.6v220.16c0 15.36-11.946667 25.6-25.6 25.6z m0-491.52c-121.173333 0-221.866667 98.986667-221.866667 220.16 0 112.64 85.333333 206.506667 196.266667 220.16V537.6c0-29.013333 23.893333-51.2 51.2-51.2h192.853333c-11.946667-109.226667-105.813333-194.56-218.453333-194.56z"  /><path  d="M745.813333 771.413333h-155.306666c-13.653333 0-25.6-11.946667-25.6-25.6v-155.306666c0-13.653333 11.946667-25.6 25.6-25.6h155.306666c13.653333 0 25.6 11.946667 25.6 25.6v155.306666c0 13.653333-11.946667 25.6-25.6 25.6z m-129.706666-51.2h104.106666v-104.106666h-104.106666v104.106666z"  /><path  d="M896 913.066667h-768C76.8 913.066667 34.133333 870.4 34.133333 819.2V204.8c0-51.2 42.666667-93.866667 93.866667-93.866667h768c51.2 0 93.866667 42.666667 93.866667 93.866667v614.4c0 51.2-42.666667 93.866667-93.866667 93.866667z m-768-750.933334C104.106667 162.133333 85.333333 180.906667 85.333333 204.8v614.4c0 23.893333 18.773333 42.666667 42.666667 42.666667h768c23.893333 0 42.666667-18.773333 42.666667-42.666667V204.8c0-23.893333-18.773333-42.666667-42.666667-42.666667h-768z"  /></svg>