<?xml version="1.0" standalone="no"?><!DOCTYPE svg PUBLIC "-//W3C//DTD SVG 1.1//EN" "http://www.w3.org/Graphics/SVG/1.1/DTD/svg11.dtd"><svg class="icon" width="64px" height="64.00px" viewBox="0 0 1024 1024" version="1.1" xmlns="http://www.w3.org/2000/svg"><path  d="M829.269333 989.866667s-0.170667 0 0 0l-644.437333-0.853334C139.434667 989.013333 102.4 947.541333 102.4 896.512v-699.733333c0-51.029333 37.034667-92.330667 82.432-92.330667h120.149333c14.165333 0 25.6 11.434667 25.6 25.6s-11.434667 25.6-25.6 25.6h-120.149333c-17.066667 0-31.232 18.944-31.232 41.130667v699.733333c0 22.357333 14.336 41.301333 31.232 41.301333l644.266667 0.853334c11.093333 0 21.333333-4.266667 29.184-12.117334 7.850667-7.850667 12.117333-18.261333 12.117333-29.184V196.949333c0-22.357333-14.336-41.130667-31.232-41.130666h-124.757333c-14.165333 0-25.6-11.434667-25.6-25.6s11.434667-25.6 25.6-25.6h124.757333c45.568 0 82.432 41.472 82.432 92.330666v700.416c0 24.746667-9.728 47.957333-27.136 65.536A91.374933 91.374933 0 0 1 829.269333 989.866667z"  /><path  d="M676.352 218.965333H347.648c-32.938667 0-59.733333-26.794667-59.733333-59.733333V93.866667c0-32.938667 26.794667-59.733333 59.733333-59.733334h328.874667c32.938667 0 59.733333 26.794667 59.733333 59.733334v65.365333a60.0576 60.0576 0 0 1-59.904 59.733333zM347.648 85.333333c-4.778667 0-8.533333 3.754667-8.533333 8.533334v65.365333c0 4.778667 3.754667 8.533333 8.533333 8.533333h328.874667c4.778667 0 8.533333-3.754667 8.533333-8.533333V93.866667c0-4.778667-3.754667-8.533333-8.533333-8.533334H347.648zM443.221333 687.616c-11.605333 0-23.210667-4.608-31.914666-13.482667l-101.888-106.666666a25.6 25.6 0 0 1 37.034666-35.328l96.938667 101.546666 235.178667-219.818666a25.6 25.6 0 0 1 34.986666 37.376L473.258667 675.84c-8.533333 7.850667-19.285333 11.776-30.037334 11.776z"  /></svg>