<?xml version="1.0" standalone="no"?><!DOCTYPE svg PUBLIC "-//W3C//DTD SVG 1.1//EN" "http://www.w3.org/Graphics/SVG/1.1/DTD/svg11.dtd"><svg class="icon" width="64px" height="64.00px" viewBox="0 0 1024 1024" version="1.1" xmlns="http://www.w3.org/2000/svg"><path  d="M847.018667 900.949333H268.117333c-41.813333 0-75.946667-38.570667-75.946666-86.016V120.149333c0-47.445333 34.133333-86.016 75.946666-86.016h478.549334c7.509333 0 14.677333 3.242667 19.456 9.045334l150.869333 177.493333c3.925333 4.608 6.144 10.581333 6.144 16.554667v577.706666c-0.170667 47.445333-34.133333 86.016-76.117333 86.016zM268.117333 85.333333c-13.482667 0-24.746667 15.872-24.746666 34.816v694.784c0 18.944 11.264 34.816 24.746666 34.816h579.072c13.482667 0 24.746667-15.872 24.746667-34.816v-568.32L734.72 85.333333H268.117333z"  /><path  d="M897.365333 278.016h-145.749333c-22.528 0-40.96-18.432-40.96-40.96V59.733333c0-14.165333 11.434667-25.6 25.6-25.6s25.6 11.434667 25.6 25.6v167.082667h135.509333c14.165333 0 25.6 11.434667 25.6 25.6s-11.434667 25.6-25.6 25.6z"  /><path  d="M755.882667 989.866667H176.981333c-41.813333 0-75.946667-38.570667-75.946666-86.016V209.066667c0-47.445333 34.133333-86.016 75.946666-86.016h40.789334c14.165333 0 25.6 11.434667 25.6 25.6s-11.434667 25.6-25.6 25.6h-40.789334c-13.482667 0-24.746667 15.872-24.746666 34.816v694.784c0 18.944 11.434667 34.816 24.746666 34.816H756.053333c13.482667 0 24.746667-15.872 24.746667-34.816 0-14.165333 11.434667-25.6 25.6-25.6s25.6 11.434667 25.6 25.6c-0.170667 47.445333-34.133333 86.016-76.117333 86.016z"  /><path  d="M575.829333 340.48H372.053333c-14.165333 0-25.6-11.434667-25.6-25.6s11.434667-25.6 25.6-25.6h203.776c14.165333 0 25.6 11.434667 25.6 25.6s-11.605333 25.6-25.6 25.6zM705.194667 500.736H372.053333c-14.165333 0-25.6-11.434667-25.6-25.6s11.434667-25.6 25.6-25.6h333.141334c14.165333 0 25.6 11.434667 25.6 25.6s-11.605333 25.6-25.6 25.6zM705.194667 660.821333H372.053333c-14.165333 0-25.6-11.434667-25.6-25.6s11.434667-25.6 25.6-25.6h333.141334c14.165333 0 25.6 11.434667 25.6 25.6s-11.605333 25.6-25.6 25.6z"  /></svg>