<?xml version="1.0" standalone="no"?><!DOCTYPE svg PUBLIC "-//W3C//DTD SVG 1.1//EN" "http://www.w3.org/Graphics/SVG/1.1/DTD/svg11.dtd"><svg class="icon" width="64px" height="64.00px" viewBox="0 0 1024 1024" version="1.1" xmlns="http://www.w3.org/2000/svg"><path  d="M634.88 305.493333H341.333333c-13.653333 0-25.6-11.946667-25.6-25.6s11.946667-25.6 25.6-25.6h293.546667c13.653333 0 25.6 11.946667 25.6 25.6s-11.946667 25.6-25.6 25.6z"  /><path  d="M488.106667 646.826667c-13.653333 0-25.6-11.946667-25.6-25.6V303.786667c0-13.653333 11.946667-25.6 25.6-25.6s25.6 11.946667 25.6 25.6v317.44c0 15.36-11.946667 25.6-25.6 25.6z"  /><path  d="M418.133333 989.866667H139.946667c-51.2 0-93.866667-42.666667-93.866667-93.866667v-768c0-51.2 42.666667-93.866667 93.866667-93.866667h744.106666c51.2 0 93.866667 42.666667 93.866667 93.866667v218.453333c0 13.653333-11.946667 25.6-25.6 25.6s-25.6-11.946667-25.6-25.6V128c0-23.893333-18.773333-42.666667-42.666667-42.666667H139.946667C116.053333 85.333333 97.28 104.106667 97.28 128v768c0 23.893333 18.773333 42.666667 42.666667 42.666667h278.186666c13.653333 0 25.6 11.946667 25.6 25.6s-11.946667 25.6-25.6 25.6z"  /><path  d="M682.666667 989.866667h-97.28c-13.653333 0-25.6-11.946667-25.6-25.6v-97.28c0-5.12 1.706667-10.24 5.12-15.36l256-354.986667c3.413333-5.12 10.24-8.533333 17.066666-10.24 6.826667-1.706667 13.653333 1.706667 18.773334 5.12l109.226666 85.333333c10.24 8.533333 13.653333 23.893333 5.12 35.84L703.146667 979.626667c-3.413333 6.826667-11.946667 10.24-20.48 10.24z m-71.68-51.2h59.733333l245.76-336.213334-69.973333-54.613333-235.52 327.68V938.666667z"  /></svg>