<?xml version="1.0" standalone="no"?><!DOCTYPE svg PUBLIC "-//W3C//DTD SVG 1.1//EN" "http://www.w3.org/Graphics/SVG/1.1/DTD/svg11.dtd"><svg class="icon" width="64px" height="64.00px" viewBox="0 0 1024 1024" version="1.1" xmlns="http://www.w3.org/2000/svg"><path  d="M896 808.96h-768c-51.2 0-93.866667-42.666667-93.866667-93.866667V179.2C34.133333 128 76.8 85.333333 128 85.333333h768c51.2 0 93.866667 42.666667 93.866667 93.866667v535.893333c0 52.906667-42.666667 93.866667-93.866667 93.866667zM128 136.533333C104.106667 136.533333 85.333333 157.013333 85.333333 179.2v535.893333c0 23.893333 18.773333 42.666667 42.666667 42.666667h768c23.893333 0 42.666667-18.773333 42.666667-42.666667V179.2C938.666667 157.013333 919.893333 136.533333 896 136.533333h-768zM781.653333 938.666667H242.346667c-13.653333 0-25.6-11.946667-25.6-25.6s11.946667-25.6 25.6-25.6h539.306666c13.653333 0 25.6 11.946667 25.6 25.6s-11.946667 25.6-25.6 25.6z"  /><path  d="M372.053333 694.613333c-92.16 0-167.253333-75.093333-167.253333-167.253333 0-78.506667 52.906667-145.066667 129.706667-163.84 13.653333-3.413333 27.306667 5.12 30.72 18.773333 3.413333 13.653333-5.12 27.306667-18.773334 30.72-52.906667 11.946667-88.746667 59.733333-88.746666 114.346667 0 64.853333 52.906667 116.053333 116.053333 116.053333 10.24 0 22.186667-1.706667 32.426667-5.12 13.653333-3.413333 27.306667 3.413333 32.426666 17.066667 3.413333 13.653333-3.413333 27.306667-17.066666 32.426667-18.773333 5.12-34.133333 6.826667-49.493334 6.826666zM651.946667 694.613333c-15.36 0-30.72-1.706667-46.08-6.826666-13.653333-3.413333-22.186667-18.773333-17.066667-32.426667 3.413333-13.653333 18.773333-22.186667 32.426667-17.066667 10.24 3.413333 20.48 5.12 32.426666 5.12 64.853333 0 116.053333-52.906667 116.053334-116.053333 0-54.613333-37.546667-100.693333-88.746667-114.346667-13.653333-3.413333-22.186667-17.066667-18.773333-30.72 3.413333-13.653333 17.066667-22.186667 30.72-18.773333 75.093333 18.773333 129.706667 85.333333 129.706666 163.84-1.706667 92.16-78.506667 167.253333-170.666666 167.253333z"  /><path  d="M684.373333 411.306667c-13.653333 0-25.6-11.946667-25.6-25.6 0-80.213333-64.853333-145.066667-145.066666-145.066667s-145.066667 64.853333-145.066667 145.066667c0 13.653333-11.946667 25.6-25.6 25.6s-25.6-11.946667-25.6-25.6c0-107.52 88.746667-196.266667 196.266667-196.266667s196.266667 88.746667 196.266666 196.266667c0 13.653333-11.946667 25.6-25.6 25.6z"  /><path  d="M610.986667 510.293333H413.013333c-13.653333 0-25.6-11.946667-25.6-25.6s11.946667-25.6 25.6-25.6h199.68c13.653333 0 25.6 11.946667 25.6 25.6s-11.946667 25.6-27.306666 25.6z"  /><path  d="M512 609.28c-13.653333 0-25.6-11.946667-25.6-25.6V385.706667c0-13.653333 11.946667-25.6 25.6-25.6s25.6 11.946667 25.6 25.6v199.68c0 13.653333-11.946667 23.893333-25.6 23.893333z"  /></svg>