<?xml version="1.0" standalone="no"?><!DOCTYPE svg PUBLIC "-//W3C//DTD SVG 1.1//EN" "http://www.w3.org/Graphics/SVG/1.1/DTD/svg11.dtd"><svg class="icon" width="64px" height="64.00px" viewBox="0 0 1024 1024" version="1.1" xmlns="http://www.w3.org/2000/svg"><path  d="M467.456 900.949333C228.522667 900.949333 34.133333 706.56 34.133333 467.456S228.522667 34.133333 467.456 34.133333s433.493333 194.389333 433.493333 433.322667-194.389333 433.493333-433.493333 433.493333z m0-815.616C256.853333 85.333333 85.333333 256.853333 85.333333 467.456s171.52 382.122667 382.122667 382.122667 382.293333-171.52 382.293333-382.122667S678.229333 85.333333 467.456 85.333333z"  /><path  d="M331.776 333.482667c-6.485333 0-13.141333-2.56-18.090667-7.509334a25.429333 25.429333 0 0 1 0-36.181333c41.130667-41.130667 95.744-63.658667 153.770667-63.658667 58.197333 0 112.810667 22.698667 153.770667 63.658667 10.069333 10.069333 10.069333 26.282667 0 36.181333-10.069333 10.069333-26.282667 10.069333-36.181334 0a165.239467 165.239467 0 0 0-117.589333-48.64c-44.373333 0-86.186667 17.237333-117.589333 48.64-4.949333 4.949333-11.434667 7.509333-18.090667 7.509334zM964.266667 989.866667c-6.485333 0-13.141333-2.56-18.090667-7.509334L742.570667 778.752c-10.069333-10.069333-10.069333-26.282667 0-36.181333s26.282667-10.069333 36.181333 0l203.605333 203.605333c10.069333 10.069333 10.069333 26.282667 0 36.181333-4.949333 4.949333-11.605333 7.509333-18.090666 7.509334z"  /></svg>