<?xml version="1.0" standalone="no"?><!DOCTYPE svg PUBLIC "-//W3C//DTD SVG 1.1//EN" "http://www.w3.org/Graphics/SVG/1.1/DTD/svg11.dtd"><svg class="icon" width="64px" height="64.00px" viewBox="0 0 1024 1024" version="1.1" xmlns="http://www.w3.org/2000/svg"><path  d="M579.242667 819.2c-188.416 0-341.674667-153.258667-341.674667-341.674667S390.826667 135.850667 579.242667 135.850667s341.674667 153.258667 341.674666 341.674666S767.658667 819.2 579.242667 819.2z m0-632.149333c-160.256 0-290.474667 130.389333-290.474667 290.474666S419.157333 768 579.242667 768c160.085333 0 290.474667-130.389333 290.474666-290.474667s-130.218667-290.474667-290.474666-290.474666z"  /><path  d="M417.450667 621.056c-5.973333 0-11.946667-2.048-16.725334-6.314667a173.141333 173.141333 0 0 1-59.733333-119.296c-3.413333-46.421333 11.605333-91.477333 41.984-126.634666 9.216-10.752 25.429333-11.946667 36.181333-2.56 10.752 9.216 11.946667 25.429333 2.56 36.181333-21.504 24.917333-32.085333 56.661333-29.696 89.429333s17.408 62.805333 42.154667 84.309334a25.4976 25.4976 0 0 1-16.725333 44.885333zM964.266667 888.149333c-6.485333 0-13.141333-2.56-18.090667-7.509333l-157.866667-157.696c-10.069333-10.069333-10.069333-26.282667 0-36.181333s26.282667-10.069333 36.181334 0l157.866666 157.696c10.069333 10.069333 10.069333 26.282667 0 36.181333-4.949333 4.949333-11.605333 7.509333-18.090666 7.509333zM445.610667 360.789333c-3.413333 0-6.656-0.682667-9.728-1.877333-3.072-1.365333-5.973333-3.242667-8.362667-5.632a25.582933 25.582933 0 0 1 0-36.181333c1.194667-1.194667 2.56-2.218667 3.925333-3.072 1.365333-1.024 2.901333-1.706667 4.437334-2.389334s3.072-1.194667 4.778666-1.536c3.242667-0.512 6.656-0.512 10.069334 0a28.2112 28.2112 0 0 1 9.216 3.925334c1.365333 0.853333 2.56 1.877333 3.754666 3.072 1.194667 1.194667 2.218667 2.56 3.242667 3.925333 0.853333 1.365333 1.706667 2.901333 2.389333 4.437333 0.512 1.536 1.024 3.072 1.365334 4.778667a24.8832 24.8832 0 0 1-6.997334 23.04c-4.778667 4.949333-11.264 7.509333-18.090666 7.509333zM263.168 235.52H59.733333c-14.165333 0-25.6-11.434667-25.6-25.6s11.434667-25.6 25.6-25.6h203.434667c14.165333 0 25.6 11.434667 25.6 25.6s-11.434667 25.6-25.6 25.6zM263.168 770.901333H59.733333c-14.165333 0-25.6-11.434667-25.6-25.6s11.434667-25.6 25.6-25.6h203.434667c14.165333 0 25.6 11.434667 25.6 25.6s-11.434667 25.6-25.6 25.6zM195.754667 503.125333H59.733333c-14.165333 0-25.6-11.434667-25.6-25.6s11.434667-25.6 25.6-25.6h135.850667c14.165333 0 25.6 11.434667 25.6 25.6s-11.434667 25.6-25.429333 25.6z"  /></svg>