<?xml version="1.0" standalone="no"?><!DOCTYPE svg PUBLIC "-//W3C//DTD SVG 1.1//EN" "http://www.w3.org/Graphics/SVG/1.1/DTD/svg11.dtd"><svg class="icon" width="64px" height="64.00px" viewBox="0 0 1024 1024" version="1.1" xmlns="http://www.w3.org/2000/svg"><path  d="M430.933333 324.437333h-146.944c-14.165333 0-25.6-11.434667-25.6-25.6s11.434667-25.6 25.6-25.6h146.944c14.165333 0 25.6 11.434667 25.6 25.6s-11.434667 25.6-25.6 25.6zM430.933333 466.602667h-146.944c-14.165333 0-25.6-11.434667-25.6-25.6s11.434667-25.6 25.6-25.6h146.944c14.165333 0 25.6 11.434667 25.6 25.6s-11.434667 25.6-25.6 25.6zM430.933333 608.597333h-146.944c-14.165333 0-25.6-11.434667-25.6-25.6s11.434667-25.6 25.6-25.6h146.944c14.165333 0 25.6 11.434667 25.6 25.6s-11.434667 25.6-25.6 25.6zM614.058667 750.762667H283.989333c-14.165333 0-25.6-11.434667-25.6-25.6s11.434667-25.6 25.6-25.6h330.069334c14.165333 0 25.6 11.434667 25.6 25.6s-11.434667 25.6-25.6 25.6zM614.058667 586.581333c-83.626667 0-151.552-67.925333-151.552-151.552s67.925333-151.552 151.552-151.552 151.552 67.925333 151.552 151.552-68.096 151.552-151.552 151.552z m0-251.733333c-55.296 0-100.352 45.056-100.352 100.352s45.056 100.352 100.352 100.352 100.352-45.056 100.352-100.352-45.056-100.352-100.352-100.352zM740.010667 750.762667c-9.386667 0-18.432-5.12-22.869334-14.165334l-56.661333-113.834666c-6.314667-12.629333-1.194667-27.989333 11.605333-34.304 12.629333-6.314667 27.989333-1.194667 34.304 11.605333l56.661334 113.834667c6.314667 12.629333 1.194667 27.989333-11.605334 34.304-3.754667 1.706667-7.68 2.56-11.434666 2.56z"  /><path  d="M512 989.866667C248.490667 989.866667 34.133333 775.509333 34.133333 512S248.490667 34.133333 512 34.133333s477.866667 214.357333 477.866667 477.866667-214.357333 477.866667-477.866667 477.866667z m0-904.533334C276.821333 85.333333 85.333333 276.650667 85.333333 512s191.317333 426.666667 426.666667 426.666667 426.666667-191.317333 426.666667-426.666667S747.349333 85.333333 512 85.333333z"  /></svg>