<?xml version="1.0" standalone="no"?><!DOCTYPE svg PUBLIC "-//W3C//DTD SVG 1.1//EN" "http://www.w3.org/Graphics/SVG/1.1/DTD/svg11.dtd"><svg class="icon" width="64px" height="64.00px" viewBox="0 0 1024 1024" version="1.1" xmlns="http://www.w3.org/2000/svg"><path  d="M735.744 353.28h-79.018667c-14.165333 0-25.6-11.434667-25.6-25.6s11.434667-25.6 25.6-25.6h79.018667c14.165333 0 25.6 11.434667 25.6 25.6s-11.434667 25.6-25.6 25.6zM551.424 406.016c-14.165333 0-25.6-11.434667-25.6-25.6v-105.301333c0-14.165333 11.434667-25.6 25.6-25.6s25.6 11.434667 25.6 25.6v105.301333c0 13.994667-11.434667 25.6-25.6 25.6z"  /><path  d="M551.424 353.28H261.802667c-14.165333 0-25.6-11.434667-25.6-25.6s11.434667-25.6 25.6-25.6h289.621333c14.165333 0 25.6 11.434667 25.6 25.6s-11.434667 25.6-25.6 25.6zM367.274667 537.6h-105.301334c-14.165333 0-25.6-11.434667-25.6-25.6s11.434667-25.6 25.6-25.6h105.301334c14.165333 0 25.6 11.434667 25.6 25.6s-11.605333 25.6-25.6 25.6zM472.576 590.336c-14.165333 0-25.6-11.434667-25.6-25.6v-105.301333c0-14.165333 11.434667-25.6 25.6-25.6s25.6 11.434667 25.6 25.6v105.301333c0 13.994667-11.605333 25.6-25.6 25.6z"  /><path  d="M762.197333 537.6H472.576c-14.165333 0-25.6-11.434667-25.6-25.6s11.434667-25.6 25.6-25.6h289.621333c14.165333 0 25.6 11.434667 25.6 25.6s-11.605333 25.6-25.6 25.6zM735.744 721.92h-79.018667c-14.165333 0-25.6-11.434667-25.6-25.6s11.434667-25.6 25.6-25.6h79.018667c14.165333 0 25.6 11.434667 25.6 25.6s-11.434667 25.6-25.6 25.6zM551.424 774.485333c-14.165333 0-25.6-11.434667-25.6-25.6v-105.301333c0-14.165333 11.434667-25.6 25.6-25.6s25.6 11.434667 25.6 25.6v105.301333c0 14.165333-11.434667 25.6-25.6 25.6z"  /><path  d="M551.424 721.92H261.802667c-14.165333 0-25.6-11.434667-25.6-25.6s11.434667-25.6 25.6-25.6h289.621333c14.165333 0 25.6 11.434667 25.6 25.6s-11.434667 25.6-25.6 25.6z"  /><path  d="M896 989.866667h-768A94.037333 94.037333 0 0 1 34.133333 896v-768C34.133333 76.288 76.288 34.133333 128 34.133333h768C947.712 34.133333 989.866667 76.288 989.866667 128v768c0 51.712-42.154667 93.866667-93.866667 93.866667zM128 85.333333A42.666667 42.666667 0 0 0 85.333333 128v768A42.666667 42.666667 0 0 0 128 938.666667h768a42.666667 42.666667 0 0 0 42.666667-42.666667v-768A42.666667 42.666667 0 0 0 896 85.333333h-768z"  /></svg>