<?xml version="1.0" standalone="no"?><!DOCTYPE svg PUBLIC "-//W3C//DTD SVG 1.1//EN" "http://www.w3.org/Graphics/SVG/1.1/DTD/svg11.dtd"><svg class="icon" width="64px" height="64.00px" viewBox="0 0 1024 1024" version="1.1" xmlns="http://www.w3.org/2000/svg"><path  d="M952.32 614.4c-6.826667 0-11.946667-1.706667-17.066667-6.826667-75.093333-64.853333-109.226667-73.386667-122.88-73.386666s-47.786667 10.24-122.88 73.386666c-10.24 8.533333-25.6 8.533333-34.133333-1.706666-47.786667-47.786667-95.573333-73.386667-141.653333-73.386667s-93.866667 23.893333-141.653334 73.386667c-10.24 10.24-23.893333 10.24-34.133333 1.706666-75.093333-64.853333-109.226667-73.386667-122.88-73.386666s-47.786667 10.24-122.88 73.386666c-6.826667 6.826667-18.773333 8.533333-27.306667 3.413334-8.533333-3.413333-15.36-13.653333-15.36-23.893334-3.413333-256 204.8-464.213333 462.506667-464.213333s465.92 209.92 465.92 465.92c0 10.24-5.12 18.773333-15.36 23.893333-1.706667 1.706667-5.12 1.706667-10.24 1.706667zM512 482.986667c54.613333 0 109.226667 23.893333 162.133333 71.68 59.733333-49.493333 104.106667-71.68 139.946667-71.68 29.013333 0 64.853333 15.36 110.933333 49.493333-27.306667-203.093333-201.386667-358.4-411.306666-358.4S129.706667 331.093333 102.4 532.48c46.08-34.133333 81.92-49.493333 110.933333-49.493333 35.84 0 80.213333 22.186667 139.946667 71.68 49.493333-47.786667 104.106667-71.68 158.72-71.68z"  /><path  d="M633.173333 989.866667c-80.213333 0-146.773333-64.853333-146.773333-146.773334V522.24c0-13.653333 11.946667-25.6 25.6-25.6s25.6 11.946667 25.6 25.6v320.853333c0 52.906667 42.666667 95.573333 95.573333 95.573334 52.906667 0 95.573333-42.666667 95.573334-95.573334 0-13.653333 11.946667-25.6 25.6-25.6s25.6 11.946667 25.6 25.6c0 81.92-64.853333 146.773333-146.773334 146.773334zM512 174.08c-13.653333 0-25.6-11.946667-25.6-25.6V59.733333c0-13.653333 11.946667-25.6 25.6-25.6s25.6 11.946667 25.6 25.6v88.746667c0 13.653333-11.946667 25.6-25.6 25.6z"  /></svg>