<?xml version="1.0" standalone="no"?><!DOCTYPE svg PUBLIC "-//W3C//DTD SVG 1.1//EN" "http://www.w3.org/Graphics/SVG/1.1/DTD/svg11.dtd"><svg class="icon" width="64px" height="64.00px" viewBox="0 0 1024 1024" version="1.1" xmlns="http://www.w3.org/2000/svg"><path  d="M919.893333 967.68H105.813333c-39.253333 0-71.68-34.133333-71.68-75.093333V512c0-8.533333 5.12-18.773333 13.653334-22.186667 8.533333-5.12 18.773333-3.413333 25.6 1.706667L512 774.826667l438.613333-285.013334c8.533333-5.12 17.066667-5.12 25.6-1.706666 8.533333 5.12 13.653333 13.653333 13.653334 22.186666v380.586667c0 42.666667-32.426667 76.8-69.973334 76.8zM85.333333 559.786667v332.8c0 13.653333 8.533333 23.893333 20.48 23.893333h814.08c10.24 0 18.773333-10.24 18.773334-23.893333V559.786667L525.653333 827.733333c-8.533333 5.12-18.773333 5.12-27.306666 0L85.333333 559.786667z"  /><path  d="M964.266667 532.48c-5.12 0-10.24-1.706667-15.36-5.12l-225.28-155.306667c-11.946667-8.533333-15.36-23.893333-6.826667-35.84 8.533333-11.946667 23.893333-15.36 35.84-6.826666l225.28 155.306666c11.946667 8.533333 15.36 23.893333 6.826667 35.84-5.12 8.533333-11.946667 11.946667-20.48 11.946667z m-904.533334 0c-8.533333 0-15.36-3.413333-20.48-10.24-8.533333-11.946667-5.12-27.306667 6.826667-35.84l225.28-155.306667c11.946667-8.533333 27.306667-5.12 35.84 6.826667s5.12 27.306667-6.826667 35.84l-225.28 153.6c-5.12 3.413333-10.24 5.12-15.36 5.12z"  /><path  d="M512 822.613333c-13.653333 0-27.306667-3.413333-39.253333-11.946666l-180.906667-117.76c-20.48-13.653333-32.426667-35.84-32.426667-59.733334V150.186667c0-51.2 42.666667-93.866667 93.866667-93.866667h315.733333c51.2 0 93.866667 42.666667 93.866667 93.866667v482.986666c0 23.893333-11.946667 46.08-32.426667 59.733334l-180.906666 117.76c-10.24 8.533333-23.893333 11.946667-37.546667 11.946666zM353.28 107.52c-23.893333 0-42.666667 18.773333-42.666667 42.666667v482.986666c0 6.826667 3.413333 13.653333 8.533334 17.066667L501.76 768c6.826667 3.413333 15.36 3.413333 22.186667 0l180.906666-117.76c5.12-3.413333 8.533333-10.24 8.533334-17.066667V150.186667c0-23.893333-18.773333-42.666667-42.666667-42.666667H353.28z"  /><path  d="M512 288.426667h-90.453333c-13.653333 0-25.6-11.946667-25.6-25.6s11.946667-25.6 25.6-25.6H512c13.653333 0 25.6 11.946667 25.6 25.6s-11.946667 25.6-25.6 25.6zM602.453333 424.96H421.546667c-13.653333 0-25.6-11.946667-25.6-25.6s11.946667-25.6 25.6-25.6h180.906666c13.653333 0 25.6 11.946667 25.6 25.6s-11.946667 25.6-25.6 25.6z"  /></svg>