<?xml version="1.0" standalone="no"?><!DOCTYPE svg PUBLIC "-//W3C//DTD SVG 1.1//EN" "http://www.w3.org/Graphics/SVG/1.1/DTD/svg11.dtd"><svg class="icon" width="64px" height="64.00px" viewBox="0 0 1024 1024" version="1.1" xmlns="http://www.w3.org/2000/svg"><path  d="M401.066667 334.506667c-78.506667 0-136.533333-34.133333-136.533334-81.92s58.026667-81.92 136.533334-81.92 136.533333 34.133333 136.533333 81.92-58.026667 81.92-136.533333 81.92z m0-110.933334c-56.32 0-85.333333 22.186667-85.333334 30.72s29.013333 30.72 85.333334 30.72 85.333333-22.186667 85.333333-30.72-29.013333-30.72-85.333333-30.72z"  /><path  d="M401.066667 423.253333c-78.506667 0-136.533333-34.133333-136.533334-81.92v-78.506666c0-13.653333 11.946667-25.6 25.6-25.6s25.6 11.946667 25.6 25.6V341.333333c0 8.533333 29.013333 30.72 85.333334 30.72s85.333333-22.186667 85.333333-30.72v-78.506666c0-13.653333 11.946667-25.6 25.6-25.6s25.6 11.946667 25.6 25.6V341.333333c0 46.08-58.026667 81.92-136.533333 81.92z"  /><path  d="M401.066667 500.053333c-78.506667 0-136.533333-34.133333-136.533334-81.92V341.333333c0-13.653333 11.946667-25.6 25.6-25.6s25.6 11.946667 25.6 25.6v78.506667c0 8.533333 29.013333 30.72 85.333334 30.72s85.333333-22.186667 85.333333-30.72V341.333333c0-13.653333 11.946667-25.6 25.6-25.6s25.6 11.946667 25.6 25.6v78.506667c0 46.08-58.026667 80.213333-136.533333 80.213333z"  /><path  d="M401.066667 578.56c-78.506667 0-136.533333-34.133333-136.533334-81.92v-78.506667c0-13.653333 11.946667-25.6 25.6-25.6s25.6 11.946667 25.6 25.6v78.506667c0 8.533333 29.013333 30.72 85.333334 30.72s85.333333-22.186667 85.333333-30.72v-78.506667c0-13.653333 11.946667-25.6 25.6-25.6s25.6 11.946667 25.6 25.6v78.506667c0 46.08-58.026667 81.92-136.533333 81.92z"  /><path  d="M622.933333 423.253333c-78.506667 0-136.533333-34.133333-136.533333-81.92s58.026667-81.92 136.533333-81.92 136.533333 34.133333 136.533334 81.92-58.026667 81.92-136.533334 81.92z m0-112.64c-56.32 0-85.333333 22.186667-85.333333 30.72s29.013333 30.72 85.333333 30.72 85.333333-22.186667 85.333334-30.72-29.013333-30.72-85.333334-30.72z"  /><path  d="M622.933333 500.053333c-78.506667 0-136.533333-34.133333-136.533333-81.92V341.333333c0-13.653333 11.946667-25.6 25.6-25.6s25.6 11.946667 25.6 25.6v78.506667c0 8.533333 29.013333 30.72 85.333333 30.72s85.333333-22.186667 85.333334-30.72V341.333333c0-13.653333 11.946667-25.6 25.6-25.6s25.6 11.946667 25.6 25.6v78.506667c0 46.08-58.026667 80.213333-136.533334 80.213333z"  /><path  d="M622.933333 578.56c-78.506667 0-136.533333-34.133333-136.533333-81.92v-78.506667c0-13.653333 11.946667-25.6 25.6-25.6s25.6 11.946667 25.6 25.6v78.506667c0 8.533333 29.013333 30.72 85.333333 30.72s85.333333-22.186667 85.333334-30.72v-78.506667c0-13.653333 11.946667-25.6 25.6-25.6s25.6 11.946667 25.6 25.6v78.506667c0 46.08-58.026667 81.92-136.533334 81.92z"  /><path  d="M836.266667 989.866667H187.733333c-51.2 0-93.866667-42.666667-93.866666-93.866667v-768C93.866667 76.8 136.533333 34.133333 187.733333 34.133333h648.533334c51.2 0 93.866667 42.666667 93.866666 93.866667v768c0 51.2-42.666667 93.866667-93.866666 93.866667zM187.733333 85.333333C163.84 85.333333 145.066667 104.106667 145.066667 128v768c0 23.893333 18.773333 42.666667 42.666666 42.666667h648.533334c23.893333 0 42.666667-18.773333 42.666666-42.666667v-768C878.933333 104.106667 860.16 85.333333 836.266667 85.333333H187.733333z"  /><path  d="M723.626667 718.506667h-426.666667c-13.653333 0-25.6-11.946667-25.6-25.6s11.946667-25.6 25.6-25.6h426.666667c13.653333 0 25.6 11.946667 25.6 25.6s-11.946667 25.6-25.6 25.6zM723.626667 831.146667h-426.666667c-13.653333 0-25.6-11.946667-25.6-25.6s11.946667-25.6 25.6-25.6h426.666667c13.653333 0 25.6 11.946667 25.6 25.6s-11.946667 25.6-25.6 25.6z"  /></svg>