<?xml version="1.0" standalone="no"?><!DOCTYPE svg PUBLIC "-//W3C//DTD SVG 1.1//EN" "http://www.w3.org/Graphics/SVG/1.1/DTD/svg11.dtd"><svg class="icon" width="64px" height="64.00px" viewBox="0 0 1024 1024" version="1.1" xmlns="http://www.w3.org/2000/svg"><path  d="M836.266667 989.866667H187.733333c-51.2 0-93.866667-42.666667-93.866666-93.866667v-768C93.866667 76.8 136.533333 34.133333 187.733333 34.133333h648.533334c51.2 0 93.866667 42.666667 93.866666 93.866667v768c0 51.2-42.666667 93.866667-93.866666 93.866667zM187.733333 85.333333C163.84 85.333333 145.066667 104.106667 145.066667 128v768c0 23.893333 18.773333 42.666667 42.666666 42.666667h648.533334c23.893333 0 42.666667-18.773333 42.666666-42.666667v-768C878.933333 104.106667 860.16 85.333333 836.266667 85.333333H187.733333z"  /><path  d="M385.706667 658.773333h-81.92c-13.653333 0-25.6-11.946667-25.6-25.6V426.666667c0-13.653333 11.946667-25.6 25.6-25.6h81.92c13.653333 0 25.6 11.946667 25.6 25.6v204.8c0 15.36-11.946667 27.306667-25.6 27.306666z m-56.32-51.2h30.72v-153.6h-30.72v153.6zM552.96 658.773333h-81.92c-13.653333 0-25.6-11.946667-25.6-25.6V334.506667c0-13.653333 11.946667-25.6 25.6-25.6h81.92c13.653333 0 25.6 11.946667 25.6 25.6v298.666666c0 13.653333-11.946667 25.6-25.6 25.6z m-56.32-51.2h30.72V360.106667h-30.72v247.466666zM720.213333 658.773333h-81.92c-13.653333 0-25.6-11.946667-25.6-25.6v-375.466666c0-13.653333 11.946667-25.6 25.6-25.6h81.92c13.653333 0 25.6 11.946667 25.6 25.6v375.466666c0 13.653333-11.946667 25.6-25.6 25.6z m-56.32-51.2h30.72v-324.266666h-30.72v324.266666z"  /><path  d="M720.213333 791.893333H303.786667c-13.653333 0-25.6-11.946667-25.6-25.6s11.946667-25.6 25.6-25.6h416.426666c13.653333 0 25.6 11.946667 25.6 25.6s-11.946667 25.6-25.6 25.6z"  /></svg>