<?xml version="1.0" standalone="no"?><!DOCTYPE svg PUBLIC "-//W3C//DTD SVG 1.1//EN" "http://www.w3.org/Graphics/SVG/1.1/DTD/svg11.dtd"><svg class="icon" width="64px" height="64.00px" viewBox="0 0 1024 1024" version="1.1" xmlns="http://www.w3.org/2000/svg"><path  d="M512 989.866667H59.733333c-13.653333 0-25.6-11.946667-25.6-25.6V512C34.133333 249.173333 249.173333 34.133333 512 34.133333s477.866667 215.04 477.866667 477.866667-215.04 477.866667-477.866667 477.866667zM85.333333 938.666667h426.666667c235.52 0 426.666667-191.146667 426.666667-426.666667S747.52 85.333333 512 85.333333 85.333333 276.48 85.333333 512v426.666667z"  /><path  d="M692.906667 401.066667H285.013333c-13.653333 0-25.6-11.946667-25.6-25.6s11.946667-25.6 25.6-25.6h407.893334c13.653333 0 25.6 11.946667 25.6 25.6s-11.946667 25.6-25.6 25.6zM692.906667 583.68H285.013333c-13.653333 0-25.6-11.946667-25.6-25.6s11.946667-25.6 25.6-25.6h407.893334c13.653333 0 25.6 11.946667 25.6 25.6s-11.946667 25.6-25.6 25.6zM512 762.88H285.013333c-13.653333 0-25.6-11.946667-25.6-25.6s11.946667-25.6 25.6-25.6H512c13.653333 0 25.6 11.946667 25.6 25.6s-11.946667 25.6-25.6 25.6z"  /></svg>