<?xml version="1.0" standalone="no"?><!DOCTYPE svg PUBLIC "-//W3C//DTD SVG 1.1//EN" "http://www.w3.org/Graphics/SVG/1.1/DTD/svg11.dtd"><svg class="icon" width="64px" height="64.00px" viewBox="0 0 1024 1024" version="1.1" xmlns="http://www.w3.org/2000/svg"><path  d="M510.293333 532.48c-100.693333 0-184.32-81.92-184.32-184.32 0-100.693333 81.92-184.32 184.32-184.32s184.32 81.92 184.32 184.32c0 102.4-81.92 184.32-184.32 184.32z m0-315.733333c-73.386667 0-133.12 59.733333-133.12 133.12s59.733333 133.12 133.12 133.12 133.12-59.733333 133.12-133.12-59.733333-133.12-133.12-133.12z"  /><path  d="M843.093333 865.28c-13.653333 0-25.6-11.946667-25.6-25.6 0-168.96-138.24-307.2-307.2-307.2s-307.2 138.24-307.2 307.2c0 13.653333-11.946667 25.6-25.6 25.6s-25.6-11.946667-25.6-25.6c0-197.973333 160.426667-358.4 358.4-358.4s358.4 160.426667 358.4 358.4c0 13.653333-11.946667 25.6-25.6 25.6zM737.28 498.346667c-13.653333 0-25.6-11.946667-25.6-25.6s11.946667-25.6 25.6-25.6c44.373333 0 81.92-35.84 81.92-81.92 0-44.373333-35.84-81.92-81.92-81.92-13.653333 0-25.6-11.946667-25.6-25.6s11.946667-25.6 25.6-25.6c73.386667 0 133.12 59.733333 133.12 133.12s-59.733333 133.12-133.12 133.12z"  /><path  d="M962.56 721.92c-13.653333 0-25.6-11.946667-25.6-25.6 0-109.226667-88.746667-199.68-199.68-199.68-13.653333 0-25.6-11.946667-25.6-25.6s11.946667-25.6 25.6-25.6c138.24 0 250.88 112.64 250.88 250.88 0 15.36-10.24 25.6-25.6 25.6z"  /><path  d="M283.306667 498.346667c-73.386667 0-133.12-59.733333-133.12-133.12s59.733333-133.12 133.12-133.12c13.653333 0 25.6 11.946667 25.6 25.6s-11.946667 25.6-25.6 25.6c-44.373333 0-81.92 35.84-81.92 81.92 0 44.373333 35.84 81.92 81.92 81.92 13.653333 0 25.6 11.946667 25.6 25.6s-11.946667 25.6-25.6 25.6z"  /><path  d="M58.026667 721.92c-13.653333 0-25.6-11.946667-25.6-25.6 0-138.24 112.64-250.88 250.88-250.88 13.653333 0 25.6 11.946667 25.6 25.6s-11.946667 25.6-25.6 25.6c-109.226667 0-199.68 88.746667-199.68 199.68 0 15.36-10.24 25.6-25.6 25.6z"  /></svg>