<?xml version="1.0" standalone="no"?><!DOCTYPE svg PUBLIC "-//W3C//DTD SVG 1.1//EN" "http://www.w3.org/Graphics/SVG/1.1/DTD/svg11.dtd"><svg class="icon" width="64px" height="64.00px" viewBox="0 0 1024 1024" version="1.1" xmlns="http://www.w3.org/2000/svg"><path  d="M802.133333 476.16c-17.066667 0-32.426667-1.706667-47.786666-5.12 5.12 18.773333 8.533333 37.546667 10.24 56.32h-155.306667c-3.413333-104.106667-23.893333-206.506667-59.733333-276.48l25.6 10.24v-11.946667c0-20.48 3.413333-40.96 8.533333-59.733333-46.08-18.773333-95.573333-29.013333-148.48-29.013333C215.04 160.426667 34.133333 339.626667 34.133333 561.493333s180.906667 401.066667 401.066667 401.066667S836.266667 783.36 836.266667 561.493333c0-30.72-3.413333-59.733333-10.24-87.04-6.826667 0-15.36 1.706667-23.893334 1.706667z m-696.32 119.466667h155.306667c3.413333 104.106667 23.893333 206.506667 59.733333 276.48C204.8 829.44 119.466667 723.626667 105.813333 595.626667z m155.306667-68.266667H105.813333C119.466667 399.36 204.8 293.546667 320.853333 250.88c-35.84 69.973333-56.32 170.666667-59.733333 276.48z m174.08 366.933333c-40.96 0-98.986667-114.346667-105.813333-296.96h211.626666c-6.826667 180.906667-64.853333 296.96-105.813333 296.96z m-105.813333-366.933333c6.826667-182.613333 64.853333-296.96 105.813333-296.96s98.986667 114.346667 105.813333 296.96H329.386667z m221.866666 344.746667c35.84-69.973333 56.32-172.373333 59.733334-276.48h155.306666c-13.653333 128-98.986667 233.813333-215.04 276.48z"  /><path  d="M802.133333 61.44c-104.106667 0-187.733333 83.626667-187.733333 187.733333s83.626667 187.733333 187.733333 187.733334 187.733333-83.626667 187.733334-187.733334-83.626667-187.733333-187.733334-187.733333z m102.4 187.733333v5.12c0 1.706667 0 1.706667-1.706666 3.413334 0 1.706667 0 1.706667-1.706667 3.413333 0 1.706667-1.706667 3.413333-1.706667 3.413333s0 1.706667-1.706666 1.706667c-1.706667 1.706667-1.706667 3.413333-3.413334 3.413333v1.706667l-54.613333 56.32c-6.826667 6.826667-15.36 10.24-25.6 10.24-8.533333 0-17.066667-3.413333-23.893333-10.24-13.653333-13.653333-13.653333-34.133333-1.706667-47.786667h-52.906667c-18.773333 0-34.133333-15.36-34.133333-34.133333s15.36-34.133333 34.133333-34.133333h52.906667c-11.946667-13.653333-11.946667-34.133333 1.706667-47.786667 13.653333-13.653333 35.84-13.653333 49.493333 1.706667l54.613333 58.026666 3.413334 3.413334 1.706666 1.706666c0 1.706667 1.706667 3.413333 1.706667 3.413334s0 1.706667 1.706667 1.706666c0 1.706667 1.706667 3.413333 1.706666 5.12v10.24z"  /></svg>