<?xml version="1.0" standalone="no"?><!DOCTYPE svg PUBLIC "-//W3C//DTD SVG 1.1//EN" "http://www.w3.org/Graphics/SVG/1.1/DTD/svg11.dtd"><svg class="icon" width="64px" height="64.00px" viewBox="0 0 1024 1024" version="1.1" xmlns="http://www.w3.org/2000/svg"><path  d="M570.026667 807.253333h-116.053334c-20.48 0-39.253333-17.066667-40.96-37.546666l-8.533333-124.586667-18.773333-3.413333c-18.773333-3.413333-32.426667-20.48-32.426667-39.253334v-126.293333c0-64.853333 52.906667-117.76 117.76-117.76h78.506667c64.853333 0 117.76 52.906667 117.76 117.76v126.293333c0 18.773333-13.653333 35.84-32.426667 39.253334l-18.773333 3.413333-8.533334 124.586667c1.706667 20.48-15.36 37.546667-37.546666 37.546666z m-105.813334-51.2h95.573334l8.533333-133.12c0-11.946667 8.533333-20.48 20.48-23.893333l29.013333-5.12v-117.76c0-35.84-30.72-66.56-66.56-66.56h-78.506666c-35.84 0-66.56 30.72-66.56 66.56v117.76l29.013333 5.12c11.946667 1.706667 20.48 11.946667 20.48 23.893333l8.533333 133.12zM512 325.973333c-64.853333 0-117.76-52.906667-117.76-117.76 0-64.853333 52.906667-117.76 117.76-117.76 64.853333 0 117.76 52.906667 117.76 117.76 0 64.853333-52.906667 117.76-117.76 117.76z m0-184.32c-35.84 0-66.56 30.72-66.56 66.56 0 35.84 30.72 66.56 66.56 66.56 37.546667 0 66.56-30.72 66.56-66.56 0-35.84-29.013333-66.56-66.56-66.56zM849.92 674.133333h-78.506667c-18.773333 0-34.133333-15.36-35.84-32.426666l-3.413333-78.506667h-5.12c-17.066667-3.413333-29.013333-17.066667-29.013333-34.133333v-85.333334c0-47.786667 39.253333-87.04 87.04-87.04h51.2c47.786667 0 87.04 39.253333 87.04 87.04v83.626667c0 17.066667-11.946667 30.72-29.013334 34.133333l-3.413333 1.706667-5.12 76.8c-1.706667 18.773333-17.066667 34.133333-35.84 34.133333z m-63.146667-51.2h47.786667l5.12-81.92c0-11.946667 8.533333-20.48 20.48-23.893333l11.946667-1.706667V443.733333c0-20.48-15.36-35.84-35.84-35.84h-51.2c-20.48 0-35.84 15.36-35.84 35.84v71.68l11.946666 1.706667c11.946667 1.706667 20.48 11.946667 20.48 23.893333l5.12 81.92zM810.666667 349.866667c-47.786667 0-87.04-39.253333-87.04-87.04s39.253333-87.04 87.04-87.04 87.04 39.253333 87.04 87.04-39.253333 87.04-87.04 87.04z m0-122.88c-20.48 0-35.84 15.36-35.84 35.84 0 20.48 15.36 35.84 35.84 35.84 20.48 0 35.84-15.36 35.84-35.84 0-20.48-15.36-35.84-35.84-35.84z"  /><path  d="M250.88 674.133333h-78.506667c-18.773333 0-34.133333-15.36-35.84-32.426666L133.12 563.2h-5.12c-17.066667-3.413333-29.013333-17.066667-29.013333-34.133333v-85.333334c0-47.786667 39.253333-87.04 87.04-87.04h51.2c47.786667 0 87.04 39.253333 87.04 87.04v83.626667c0 17.066667-11.946667 30.72-29.013334 34.133333l-3.413333 1.706667-5.12 76.8c-1.706667 18.773333-17.066667 34.133333-35.84 34.133333z m-61.44-51.2h47.786667l5.12-81.92c0-11.946667 8.533333-20.48 20.48-23.893333l11.946666-1.706667V443.733333c0-20.48-15.36-35.84-35.84-35.84h-51.2c-20.48 0-35.84 15.36-35.84 35.84v71.68l11.946667 1.706667c11.946667 1.706667 20.48 11.946667 20.48 23.893333l5.12 81.92z m-39.253333-95.573333zM213.333333 349.866667c-47.786667 0-87.04-39.253333-87.04-87.04s39.253333-87.04 87.04-87.04 87.04 39.253333 87.04 87.04-39.253333 87.04-87.04 87.04z m0-122.88c-20.48 0-35.84 15.36-35.84 35.84 0 20.48 15.36 35.84 35.84 35.84 20.48 0 35.84-15.36 35.84-35.84 0-20.48-17.066667-35.84-35.84-35.84z"  /><path  d="M512 933.546667c-267.946667 0-477.866667-112.64-477.866667-256 0-25.6 6.826667-49.493333 18.773334-73.386667 6.826667-11.946667 22.186667-17.066667 34.133333-10.24s17.066667 22.186667 10.24 34.133333c-8.533333 17.066667-13.653333 32.426667-13.653333 49.493334 0 110.933333 194.56 204.8 426.666666 204.8s426.666667-93.866667 426.666667-204.8c0-13.653333-3.413333-27.306667-8.533333-40.96-5.12-13.653333 0-27.306667 11.946666-34.133334 13.653333-5.12 27.306667 0 34.133334 11.946667 8.533333 20.48 13.653333 40.96 13.653333 63.146667 1.706667 143.36-208.213333 256-476.16 256z"  /></svg>