<?xml version="1.0" standalone="no"?><!DOCTYPE svg PUBLIC "-//W3C//DTD SVG 1.1//EN" "http://www.w3.org/Graphics/SVG/1.1/DTD/svg11.dtd"><svg class="icon" width="64px" height="64.00px" viewBox="0 0 1024 1024" version="1.1" xmlns="http://www.w3.org/2000/svg"><path  d="M419.84 964.266667C206.506667 964.266667 34.133333 790.186667 34.133333 578.56c0-213.333333 172.373333-385.706667 385.706667-385.706667 63.146667 0 124.586667 15.36 179.2 44.373334 11.946667 6.826667 17.066667 22.186667 10.24 34.133333s-22.186667 17.066667-34.133333 10.24c-47.786667-25.6-102.4-39.253333-155.306667-39.253333-175.786667 0-320.853333 136.533333-332.8 308.906666h667.306667c-1.706667-30.72-8.533333-61.44-18.773334-90.453333-5.12-13.653333 1.706667-27.306667 15.36-32.426667 13.653333-5.12 27.306667 1.706667 32.426667 15.36 15.36 42.666667 23.893333 87.04 23.893333 133.12-1.706667 213.333333-174.08 387.413333-387.413333 387.413334zM87.04 604.16c13.653333 172.373333 157.013333 308.906667 332.8 308.906667s320.853333-136.533333 332.8-308.906667h-665.6z"  /><path  d="M419.84 964.266667c-105.813333 0-163.84-197.973333-163.84-385.706667 0-187.733333 58.026667-385.706667 163.84-385.706667 105.813333 0 163.84 197.973333 163.84 385.706667 0 186.026667-56.32 385.706667-163.84 385.706667z m0-721.92c-47.786667 0-112.64 128-112.64 334.506666s66.56 334.506667 112.64 334.506667 112.64-128 112.64-334.506667-64.853333-334.506667-112.64-334.506666z"  /><path  d="M779.946667 604.16H59.733333c-13.653333 0-25.6-11.946667-25.6-25.6s11.946667-25.6 25.6-25.6h720.213334c13.653333 0 25.6 11.946667 25.6 25.6s-11.946667 25.6-25.6 25.6z"  /><path  d="M779.946667 479.573333c-8.533333 0-17.066667 0-23.893334-1.706666-105.813333-11.946667-186.026667-102.4-186.026666-208.213334 0-116.053333 93.866667-209.92 209.92-209.92C896 59.733333 989.866667 155.306667 989.866667 269.653333s-93.866667 209.92-209.92 209.92z m0-368.64c-87.04 0-158.72 71.68-158.72 158.72 0 80.213333 59.733333 148.48 139.946666 157.013334 6.826667 0 11.946667 1.706667 18.773334 1.706666 87.04 0 158.72-71.68 158.72-158.72s-71.68-158.72-158.72-158.72z"  /><path  d="M791.893333 351.573333c-6.826667 0-11.946667-1.706667-17.066666-6.826666-10.24-10.24-10.24-25.6 0-35.84l37.546666-39.253334-37.546666-39.253333c-10.24-10.24-10.24-25.6 0-35.84 10.24-10.24 25.6-10.24 35.84 0l54.613333 56.32c10.24 10.24 10.24 25.6 0 35.84l-54.613333 56.32c-5.12 6.826667-11.946667 8.533333-18.773334 8.533333z"  /><path  d="M846.506667 295.253333h-131.413334c-13.653333 0-25.6-11.946667-25.6-25.6s11.946667-25.6 25.6-25.6h131.413334c13.653333 0 25.6 11.946667 25.6 25.6 0 15.36-11.946667 25.6-25.6 25.6z"  /></svg>