<?xml version="1.0" standalone="no"?><!DOCTYPE svg PUBLIC "-//W3C//DTD SVG 1.1//EN" "http://www.w3.org/Graphics/SVG/1.1/DTD/svg11.dtd"><svg class="icon" width="64px" height="64.00px" viewBox="0 0 1024 1024" version="1.1" xmlns="http://www.w3.org/2000/svg"><path  d="M964.266667 989.866667h-904.533334c-13.653333 0-25.6-11.946667-25.6-25.6S46.08 938.666667 59.733333 938.666667h904.533334c13.653333 0 25.6 11.946667 25.6 25.6s-11.946667 25.6-25.6 25.6z"  /><path  d="M896 989.866667c-11.946667 0-23.893333-8.533333-25.6-22.186667C837.973333 761.173333 709.973333 221.866667 512 221.866667S186.026667 761.173333 153.6 967.68c-1.706667 13.653333-15.36 23.893333-29.013333 22.186667-13.653333-1.706667-23.893333-15.36-22.186667-29.013334 11.946667-81.92 131.413333-790.186667 409.6-790.186666s397.653333 709.973333 409.6 790.186666c1.706667 13.653333-6.826667 27.306667-22.186667 29.013334h-3.413333zM59.733333 989.866667c-13.653333 0-25.6-11.946667-25.6-25.6v-904.533334C34.133333 46.08 46.08 34.133333 59.733333 34.133333S85.333333 46.08 85.333333 59.733333v904.533334c0 13.653333-11.946667 25.6-25.6 25.6z"  /></svg>