<?xml version="1.0" standalone="no"?><!DOCTYPE svg PUBLIC "-//W3C//DTD SVG 1.1//EN" "http://www.w3.org/Graphics/SVG/1.1/DTD/svg11.dtd"><svg class="icon" width="64px" height="64.00px" viewBox="0 0 1024 1024" version="1.1" xmlns="http://www.w3.org/2000/svg"><path  d="M512 633.173333c-87.04 0-158.72-71.68-158.72-158.72s71.68-158.72 158.72-158.72 158.72 71.68 158.72 158.72-71.68 158.72-158.72 158.72z m0-266.24c-59.733333 0-107.52 47.786667-107.52 107.52s47.786667 107.52 107.52 107.52 107.52-47.786667 107.52-107.52-47.786667-107.52-107.52-107.52z"  /><path  d="M791.893333 914.773333H232.106667c-13.653333 0-25.6-11.946667-25.6-25.6 0-168.96 136.533333-305.493333 305.493333-305.493333s305.493333 136.533333 305.493333 305.493333c0 13.653333-10.24 25.6-25.6 25.6z m-534.186666-51.2h506.88C752.64 733.866667 643.413333 633.173333 512 633.173333S271.36 733.866667 257.706667 863.573333zM247.466667 337.92a114.346667 114.346667 0 1 1 0-228.693333 114.346667 114.346667 0 0 1 0 228.693333z m0-177.493333c-34.133333 0-63.146667 29.013333-63.146667 63.146666s29.013333 63.146667 63.146667 63.146667 63.146667-29.013333 63.146666-63.146667-29.013333-63.146667-63.146666-63.146666z"  /><path  d="M290.133333 525.653333H59.733333c-13.653333 0-25.6-11.946667-25.6-25.6 0-117.76 95.573333-213.333333 213.333334-213.333333 39.253333 0 76.8 10.24 109.226666 30.72 11.946667 6.826667 15.36 22.186667 8.533334 35.84-6.826667 11.946667-22.186667 15.36-35.84 8.533333-25.6-15.36-52.906667-22.186667-83.626667-22.186666-80.213333 0-146.773333 59.733333-158.72 136.533333H290.133333c13.653333 0 25.6 11.946667 25.6 25.6s-11.946667 23.893333-25.6 23.893333z"  /><path  d="M776.533333 337.92a114.346667 114.346667 0 1 1 0-228.693333 114.346667 114.346667 0 0 1 0 228.693333z m0-177.493333c-34.133333 0-63.146667 29.013333-63.146666 63.146666s29.013333 63.146667 63.146666 63.146667 63.146667-29.013333 63.146667-63.146667-27.306667-63.146667-63.146667-63.146666z"  /><path  d="M964.266667 525.653333H733.866667c-13.653333 0-25.6-11.946667-25.6-25.6s11.946667-25.6 25.6-25.6h201.386666c-11.946667-76.8-78.506667-136.533333-158.72-136.533333-29.013333 0-58.026667 8.533333-83.626666 22.186667-11.946667 6.826667-27.306667 3.413333-35.84-8.533334-6.826667-11.946667-3.413333-27.306667 8.533333-35.84 32.426667-20.48 69.973333-30.72 109.226667-30.72 117.76 0 213.333333 95.573333 213.333333 213.333334 1.706667 15.36-10.24 27.306667-23.893333 27.306666z"  /></svg>