<?xml version="1.0" standalone="no"?><!DOCTYPE svg PUBLIC "-//W3C//DTD SVG 1.1//EN" "http://www.w3.org/Graphics/SVG/1.1/DTD/svg11.dtd"><svg class="icon" width="64px" height="64.00px" viewBox="0 0 1024 1024" version="1.1" xmlns="http://www.w3.org/2000/svg"><path  d="M896 930.133333h-768C76.8 930.133333 34.133333 887.466667 34.133333 836.266667V187.733333c0-51.2 42.666667-93.866667 93.866667-93.866666h768c51.2 0 93.866667 42.666667 93.866667 93.866666v648.533334c0 51.2-42.666667 93.866667-93.866667 93.866666z m-768-785.066666C104.106667 145.066667 85.333333 163.84 85.333333 187.733333v648.533334c0 23.893333 18.773333 42.666667 42.666667 42.666666h768c23.893333 0 42.666667-18.773333 42.666667-42.666666V187.733333c0-23.893333-18.773333-42.666667-42.666667-42.666666h-768z"  /><path  d="M450.56 566.613333H206.506667c-13.653333 0-25.6-11.946667-25.6-25.6s11.946667-25.6 25.6-25.6h242.346666c13.653333 0 25.6 11.946667 25.6 25.6 1.706667 13.653333-10.24 25.6-23.893333 25.6zM327.68 459.093333c-59.733333 0-109.226667-49.493333-109.226667-109.226666s49.493333-109.226667 109.226667-109.226667 109.226667 49.493333 109.226667 109.226667-47.786667 109.226667-109.226667 109.226666z m0-165.546666c-32.426667 0-58.026667 25.6-58.026667 58.026666s25.6 58.026667 58.026667 58.026667 58.026667-25.6 58.026667-58.026667-25.6-58.026667-58.026667-58.026666z"  /><path  d="M327.68 566.613333c-13.653333 0-25.6-11.946667-25.6-25.6v-105.813333c0-13.653333 11.946667-25.6 25.6-25.6s25.6 11.946667 25.6 25.6v105.813333c0 13.653333-10.24 25.6-25.6 25.6z"  /><path  d="M795.306667 737.28H537.6c-13.653333 0-25.6-11.946667-25.6-25.6s11.946667-25.6 25.6-25.6h257.706667c13.653333 0 25.6 11.946667 25.6 25.6s-11.946667 25.6-25.6 25.6z"  /><path  d="M740.693333 814.08c-6.826667 0-13.653333-1.706667-18.773333-6.826667-10.24-10.24-10.24-25.6 0-35.84l58.026667-58.026666-58.026667-58.026667c-10.24-10.24-10.24-25.6 0-35.84s25.6-10.24 35.84 0l76.8 76.8c10.24 10.24 10.24 25.6 0 35.84l-76.8 76.8c-3.413333 3.413333-10.24 5.12-17.066667 5.12z"  /></svg>