<?xml version="1.0" standalone="no"?><!DOCTYPE svg PUBLIC "-//W3C//DTD SVG 1.1//EN" "http://www.w3.org/Graphics/SVG/1.1/DTD/svg11.dtd"><svg class="icon" width="64px" height="64.00px" viewBox="0 0 1024 1024" version="1.1" xmlns="http://www.w3.org/2000/svg"><path  d="M836.266667 989.866667H187.733333c-51.2 0-93.866667-42.666667-93.866666-93.866667v-768C93.866667 76.8 136.533333 34.133333 187.733333 34.133333h648.533334c51.2 0 93.866667 42.666667 93.866666 93.866667v768c0 51.2-42.666667 93.866667-93.866666 93.866667zM187.733333 85.333333C163.84 85.333333 145.066667 104.106667 145.066667 128v768c0 23.893333 18.773333 42.666667 42.666666 42.666667h648.533334c23.893333 0 42.666667-18.773333 42.666666-42.666667v-768C878.933333 104.106667 860.16 85.333333 836.266667 85.333333H187.733333z"  /><path  d="M619.52 776.533333H387.413333c-13.653333 0-25.6-11.946667-25.6-25.6s11.946667-25.6 25.6-25.6h232.106667c13.653333 0 25.6 11.946667 25.6 25.6s-11.946667 25.6-25.6 25.6z"  /><path  d="M568.32 844.8c-6.826667 0-13.653333-1.706667-18.773333-6.826667-10.24-10.24-10.24-25.6 0-35.84l49.493333-49.493333-47.786667-52.906667c-10.24-10.24-10.24-25.6 0-35.84 10.24-10.24 25.6-10.24 35.84 0l68.266667 68.266667c10.24 10.24 10.24 25.6 0 35.84l-68.266667 68.266667c-5.12 5.12-11.946667 8.533333-18.773333 8.533333z"  /><path  d="M512 360.106667c-52.906667 0-95.573333-42.666667-95.573333-95.573334S459.093333 170.666667 512 170.666667s95.573333 42.666667 95.573333 95.573333-42.666667 93.866667-95.573333 93.866667z m0-138.24c-23.893333 0-44.373333 20.48-44.373333 44.373333s20.48 44.373333 44.373333 44.373333 44.373333-20.48 44.373333-44.373333S535.893333 221.866667 512 221.866667zM667.306667 597.333333H356.693333c-13.653333 0-25.6-11.946667-25.6-25.6 0-100.693333 81.92-180.906667 180.906667-180.906666 100.693333 0 180.906667 81.92 180.906667 180.906666 0 13.653333-10.24 25.6-25.6 25.6z m-283.306667-51.2h256c-11.946667-59.733333-64.853333-104.106667-128-104.106666s-116.053333 44.373333-128 104.106666z"  /></svg>