<?xml version="1.0" standalone="no"?><!DOCTYPE svg PUBLIC "-//W3C//DTD SVG 1.1//EN" "http://www.w3.org/Graphics/SVG/1.1/DTD/svg11.dtd"><svg class="icon" width="64px" height="64.00px" viewBox="0 0 1024 1024" version="1.1" xmlns="http://www.w3.org/2000/svg"><path  d="M541.013333 469.333333c-6.826667 0-11.946667-1.706667-17.066666-6.826666-10.24-10.24-10.24-25.6 0-35.84l114.346666-119.466667-114.346666-119.466667c-10.24-10.24-10.24-25.6 0-35.84 10.24-10.24 25.6-10.24 35.84 0l131.413333 136.533334c10.24 10.24 10.24 25.6 0 35.84l-131.413333 136.533333c-5.12 5.12-11.946667 8.533333-18.773334 8.533333z"  /><path  d="M672.426667 332.8H351.573333c-13.653333 0-25.6-11.946667-25.6-25.6s11.946667-25.6 25.6-25.6h319.146667c13.653333 0 25.6 11.946667 25.6 25.6s-10.24 25.6-23.893333 25.6z"  /><path  d="M836.266667 989.866667H187.733333c-51.2 0-93.866667-42.666667-93.866666-93.866667v-768C93.866667 76.8 136.533333 34.133333 187.733333 34.133333h648.533334c51.2 0 93.866667 42.666667 93.866666 93.866667v768c0 51.2-42.666667 93.866667-93.866666 93.866667zM187.733333 85.333333C163.84 85.333333 145.066667 104.106667 145.066667 128v768c0 23.893333 18.773333 42.666667 42.666666 42.666667h648.533334c23.893333 0 42.666667-18.773333 42.666666-42.666667v-768C878.933333 104.106667 860.16 85.333333 836.266667 85.333333H187.733333z"  /><path  d="M674.133333 648.533333l11.946667 35.84c1.706667 3.413333 5.12 5.12 8.533333 5.12h37.546667c8.533333 0 11.946667 10.24 5.12 15.36l-30.72 22.186667c-3.413333 1.706667-3.413333 5.12-3.413333 8.533333l11.946666 35.84c1.706667 6.826667-6.826667 13.653333-13.653333 8.533334l-30.72-22.186667c-3.413333-1.706667-6.826667-1.706667-10.24 0l-30.72 22.186667c-6.826667 5.12-15.36-1.706667-13.653333-8.533334l11.946666-35.84c1.706667-3.413333 0-6.826667-3.413333-8.533333l-30.72-22.186667c-6.826667-5.12-3.413333-15.36 5.12-15.36h37.546667c3.413333 0 6.826667-1.706667 8.533333-5.12l11.946667-35.84c3.413333-6.826667 13.653333-6.826667 17.066666 0z"  /><path  d="M665.6 878.933333c-85.333333 0-153.6-68.266667-153.6-153.6s68.266667-153.6 153.6-153.6 153.6 68.266667 153.6 153.6-68.266667 153.6-153.6 153.6z m0-256c-56.32 0-102.4 46.08-102.4 102.4s46.08 102.4 102.4 102.4 102.4-46.08 102.4-102.4-46.08-102.4-102.4-102.4z"  /><path  d="M392.533333 674.133333h-133.12c-13.653333 0-25.6-11.946667-25.6-25.6s11.946667-25.6 25.6-25.6H392.533333c13.653333 0 25.6 11.946667 25.6 25.6s-11.946667 25.6-25.6 25.6zM435.2 827.733333H259.413333c-13.653333 0-25.6-11.946667-25.6-25.6s11.946667-25.6 25.6-25.6h177.493334c13.653333 0 25.6 11.946667 25.6 25.6s-13.653333 25.6-27.306667 25.6z"  /></svg>