<?xml version="1.0" standalone="no"?><!DOCTYPE svg PUBLIC "-//W3C//DTD SVG 1.1//EN" "http://www.w3.org/Graphics/SVG/1.1/DTD/svg11.dtd"><svg class="icon" width="64px" height="64.00px" viewBox="0 0 1024 1024" version="1.1" xmlns="http://www.w3.org/2000/svg"><path  d="M832.853333 989.866667H191.146667c-44.373333 0-81.92-40.96-81.92-92.16V126.293333c0-51.2 35.84-92.16 81.92-92.16h530.773333c6.826667 0 15.36 3.413333 18.773333 8.533334L907.946667 238.933333c3.413333 5.12 6.826667 10.24 6.826666 17.066667v640c0 52.906667-37.546667 93.866667-81.92 93.866667zM191.146667 85.333333c-17.066667 0-30.72 18.773333-30.72 40.96v769.706667c0 22.186667 13.653333 40.96 30.72 40.96h641.706666c17.066667 0 30.72-18.773333 30.72-40.96v-631.466667L709.973333 85.333333H191.146667z"  /><path  d="M889.173333 298.666667h-162.133333c-23.893333 0-42.666667-18.773333-42.666667-42.666667V59.733333c0-13.653333 11.946667-25.6 25.6-25.6s25.6 11.946667 25.6 25.6v187.733334h153.6c13.653333 0 25.6 11.946667 25.6 25.6s-11.946667 25.6-25.6 25.6z"  /><path  d="M512 537.6c-61.44 0-109.226667-49.493333-109.226667-110.933333s49.493333-109.226667 109.226667-109.226667c61.44 0 110.933333 49.493333 110.933333 109.226667-1.706667 61.44-49.493333 110.933333-110.933333 110.933333z m0-168.96c-32.426667 0-58.026667 25.6-58.026667 58.026667s25.6 59.733333 58.026667 59.733333 59.733333-25.6 59.733333-59.733333-27.306667-58.026667-59.733333-58.026667zM698.026667 785.066667H325.973333c-13.653333 0-25.6-11.946667-25.6-25.6v-13.653334c0-58.026667 0-87.04 11.946667-112.64 10.24-23.893333 25.6-42.666667 46.08-54.613333 23.893333-13.653333 51.2-13.653333 100.693333-13.653333h107.52c49.493333 0 76.8 0 100.693334 13.653333 20.48 11.946667 35.84 30.72 46.08 54.613333 11.946667 25.6 11.946667 54.613333 11.946666 112.64v13.653334c-1.706667 13.653333-13.653333 25.6-27.306666 25.6z m-346.453334-51.2h319.146667c0-42.666667 0-66.56-6.826667-80.213334-5.12-13.653333-15.36-23.893333-25.6-30.72-11.946667-6.826667-34.133333-6.826667-73.386666-6.826666h-107.52c-39.253333 0-61.44 0-73.386667 6.826666-10.24 6.826667-20.48 17.066667-25.6 30.72-5.12 13.653333-6.826667 39.253333-6.826667 80.213334z"  /></svg>