<?xml version="1.0" standalone="no"?><!DOCTYPE svg PUBLIC "-//W3C//DTD SVG 1.1//EN" "http://www.w3.org/Graphics/SVG/1.1/DTD/svg11.dtd"><svg class="icon" width="64px" height="64.00px" viewBox="0 0 1024 1024" version="1.1" xmlns="http://www.w3.org/2000/svg"><path  d="M512 989.866667C249.173333 989.866667 34.133333 774.826667 34.133333 512S249.173333 34.133333 512 34.133333s477.866667 215.04 477.866667 477.866667-215.04 477.866667-477.866667 477.866667z m0-904.533334C276.48 85.333333 85.333333 276.48 85.333333 512s191.146667 426.666667 426.666667 426.666667 426.666667-191.146667 426.666667-426.666667S747.52 85.333333 512 85.333333z"  /><path  d="M512 452.266667c-51.2 0-93.866667-42.666667-93.866667-93.866667s42.666667-93.866667 93.866667-93.866667 93.866667 42.666667 93.866667 93.866667-42.666667 93.866667-93.866667 93.866667z m0-136.533334c-23.893333 0-42.666667 18.773333-42.666667 42.666667s18.773333 42.666667 42.666667 42.666667 42.666667-18.773333 42.666667-42.666667-18.773333-42.666667-42.666667-42.666667z"  /><path  d="M675.84 616.106667c-13.653333 0-25.6-11.946667-25.6-25.6 0-76.8-61.44-138.24-138.24-138.24s-138.24 61.44-138.24 138.24c0 13.653333-11.946667 25.6-25.6 25.6s-25.6-11.946667-25.6-25.6c0-104.106667 85.333333-189.44 189.44-189.44s189.44 85.333333 189.44 189.44c0 15.36-11.946667 25.6-25.6 25.6zM645.12 442.026667c-13.653333 0-25.6-11.946667-25.6-25.6s11.946667-25.6 25.6-25.6c18.773333 0 34.133333-15.36 34.133333-34.133334s-15.36-34.133333-34.133333-34.133333c-13.653333 0-25.6-11.946667-25.6-25.6S631.466667 273.066667 645.12 273.066667c46.08 0 85.333333 37.546667 85.333333 85.333333s-37.546667 83.626667-85.333333 83.626667z"  /><path  d="M786.773333 581.973333c-13.653333 0-25.6-11.946667-25.6-25.6 0-63.146667-51.2-116.053333-114.346666-116.053333-13.653333 0-25.6-11.946667-25.6-25.6s11.946667-25.6 25.6-25.6c92.16 0 165.546667 75.093333 165.546666 167.253333 0 15.36-11.946667 25.6-25.6 25.6z"  /><path  d="M378.88 442.026667c-46.08 0-85.333333-37.546667-85.333333-85.333334s37.546667-85.333333 85.333333-85.333333c13.653333 0 25.6 11.946667 25.6 25.6S392.533333 324.266667 378.88 324.266667c-18.773333 0-34.133333 15.36-34.133333 34.133333s15.36 34.133333 34.133333 34.133333c13.653333 0 25.6 11.946667 25.6 25.6s-11.946667 23.893333-25.6 23.893334z"  /><path  d="M237.226667 581.973333c-13.653333 0-25.6-11.946667-25.6-25.6 0-92.16 75.093333-167.253333 165.546666-167.253333 13.653333 0 25.6 11.946667 25.6 25.6s-11.946667 25.6-25.6 25.6c-63.146667 0-114.346667 51.2-114.346666 116.053333 0 15.36-11.946667 25.6-25.6 25.6z"  /><path  d="M667.306667 715.093333H356.693333c-13.653333 0-25.6-11.946667-25.6-25.6s11.946667-25.6 25.6-25.6h312.32c13.653333 0 25.6 11.946667 25.6 25.6s-11.946667 25.6-27.306666 25.6z"  /><path  d="M607.573333 815.786667H416.426667c-13.653333 0-25.6-11.946667-25.6-25.6s11.946667-25.6 25.6-25.6h192.853333c13.653333 0 25.6 11.946667 25.6 25.6s-11.946667 25.6-27.306667 25.6z"  /></svg>