<?xml version="1.0" standalone="no"?><!DOCTYPE svg PUBLIC "-//W3C//DTD SVG 1.1//EN" "http://www.w3.org/Graphics/SVG/1.1/DTD/svg11.dtd"><svg class="icon" width="64px" height="64.00px" viewBox="0 0 1024 1024" version="1.1" xmlns="http://www.w3.org/2000/svg"><path  d="M896 930.133333h-768C76.8 930.133333 34.133333 887.466667 34.133333 836.266667V187.733333c0-51.2 42.666667-93.866667 93.866667-93.866666h768c51.2 0 93.866667 42.666667 93.866667 93.866666v648.533334c0 51.2-42.666667 93.866667-93.866667 93.866666z m-768-785.066666C104.106667 145.066667 85.333333 163.84 85.333333 187.733333v648.533334c0 23.893333 18.773333 42.666667 42.666667 42.666666h768c23.893333 0 42.666667-18.773333 42.666667-42.666666V187.733333c0-23.893333-18.773333-42.666667-42.666667-42.666666h-768z"  /><path  d="M617.813333 622.933333c-6.826667 0-13.653333-1.706667-18.773333-6.826666-10.24-10.24-10.24-25.6 0-35.84l66.56-66.56-66.56-66.56c-10.24-10.24-10.24-25.6 0-35.84s25.6-10.24 35.84 0l85.333333 85.333333c10.24 10.24 10.24 25.6 0 35.84l-85.333333 85.333333c-3.413333 3.413333-10.24 5.12-17.066667 5.12z"  /><path  d="M759.466667 622.933333c-6.826667 0-13.653333-1.706667-18.773334-6.826666-10.24-10.24-10.24-25.6 0-35.84l66.56-66.56-66.56-66.56c-10.24-10.24-10.24-25.6 0-35.84s25.6-10.24 35.84 0l85.333334 85.333333c10.24 10.24 10.24 25.6 0 35.84l-85.333334 85.333333c-3.413333 3.413333-10.24 5.12-17.066666 5.12z"  /><path  d="M334.506667 488.106667c-52.906667 0-95.573333-42.666667-95.573334-95.573334s42.666667-95.573333 95.573334-95.573333 95.573333 42.666667 95.573333 95.573333-42.666667 95.573333-95.573333 95.573334z m0-138.24c-23.893333 0-44.373333 20.48-44.373334 44.373333s20.48 44.373333 44.373334 44.373333 44.373333-20.48 44.373333-44.373333-20.48-44.373333-44.373333-44.373333zM489.813333 725.333333H179.2c-15.36 0-25.6-11.946667-25.6-25.6 0-100.693333 81.92-180.906667 180.906667-180.906666S515.413333 599.04 515.413333 699.733333c0 13.653333-10.24 25.6-25.6 25.6z m-283.306666-51.2h256c-11.946667-59.733333-64.853333-104.106667-128-104.106666s-116.053333 44.373333-128 104.106666z"  /></svg>