<?xml version="1.0" standalone="no"?><!DOCTYPE svg PUBLIC "-//W3C//DTD SVG 1.1//EN" "http://www.w3.org/Graphics/SVG/1.1/DTD/svg11.dtd"><svg class="icon" width="64px" height="64.00px" viewBox="0 0 1024 1024" version="1.1" xmlns="http://www.w3.org/2000/svg"><path  d="M150.186667 899.413333c-13.653333 0-25.6-11.946667-25.6-25.6V194.56c0-88.746667 76.8-162.133333 170.666666-162.133333h578.56c13.653333 0 25.6 11.946667 25.6 25.6v723.626666c0 13.653333-11.946667 25.6-25.6 25.6H295.253333c-119.466667 0-119.466667 17.066667-119.466666 64.853334 0 15.36-11.946667 27.306667-25.6 27.306666zM295.253333 85.333333c-64.853333 0-119.466667 49.493333-119.466666 110.933334v578.56c30.72-13.653333 71.68-15.36 119.466666-15.36h552.96V85.333333H295.253333z"  /><path  d="M873.813333 989.866667H240.64c-63.146667 0-116.053333-52.906667-116.053333-116.053334s52.906667-116.053333 116.053333-116.053333h633.173333c13.653333 0 25.6 11.946667 25.6 25.6v180.906667c0 13.653333-11.946667 25.6-25.6 25.6zM240.64 808.96c-35.84 0-64.853333 29.013333-64.853333 64.853333S204.8 938.666667 240.64 938.666667h607.573333v-129.706667H240.64z"  /><path  d="M696.32 590.506667H327.68v-87.04c0-29.013333 23.893333-52.906667 52.906667-52.906667H443.733333l-5.12-5.12c-15.36-17.066667-42.666667-44.373333-42.666666-98.986667 0-83.626667 63.146667-112.64 117.76-112.64s112.64 29.013333 112.64 112.64c0 52.906667-25.6 78.506667-39.253334 95.573334-3.413333 3.413333-6.826667 6.826667-8.533333 10.24h63.146667c29.013333 0 52.906667 23.893333 52.906666 52.906666v85.333334z m-317.44-51.2h266.24v-35.84c0-1.706667-1.706667-1.706667-1.706667-1.706667H563.2c-34.133333 0-34.133333-29.013333-34.133333-52.906667 0-18.773333 11.946667-32.426667 22.186666-42.666666 11.946667-13.653333 25.6-27.306667 25.6-59.733334 0-40.96-20.48-61.44-61.44-61.44-30.72 0-66.56 10.24-66.56 61.44 0 34.133333 15.36 49.493333 29.013334 64.853334 10.24 10.24 20.48 22.186667 20.48 39.253333 0 11.946667 0 20.48-1.706667 27.306667-3.413333 15.36-17.066667 25.6-32.426667 25.6h-81.92c-1.706667 0-1.706667 1.706667-1.706666 1.706666l-1.706667 34.133334z"  /></svg>