<?xml version="1.0" standalone="no"?><!DOCTYPE svg PUBLIC "-//W3C//DTD SVG 1.1//EN" "http://www.w3.org/Graphics/SVG/1.1/DTD/svg11.dtd"><svg class="icon" width="64px" height="64.00px" viewBox="0 0 1024 1024" version="1.1" xmlns="http://www.w3.org/2000/svg"><path  d="M902.826667 860.16H257.706667c-13.653333 0-25.6-11.946667-25.6-25.6V51.2c0-13.653333 11.946667-25.6 25.6-25.6h392.533333c13.653333 0 25.6 11.946667 25.6 25.6v250.88h226.986667c13.653333 0 25.6 11.946667 25.6 25.6v506.88c0 13.653333-10.24 25.6-25.6 25.6z m-619.52-51.2h593.92V353.28H650.24c-13.653333 0-25.6-11.946667-25.6-25.6V76.8h-341.333333v732.16z"  /><path  d="M902.826667 353.28c-6.826667 0-13.653333-3.413333-18.773334-8.533333L631.466667 68.266667c-10.24-10.24-8.533333-27.306667 1.706666-35.84 10.24-10.24 27.306667-8.533333 35.84 1.706666L921.6 310.613333c10.24 10.24 8.533333 27.306667-1.706667 35.84-3.413333 5.12-10.24 6.826667-17.066666 6.826667zM604.16 998.4H121.173333c-13.653333 0-25.6-11.946667-25.6-25.6V419.84c0-13.653333 11.946667-25.6 25.6-25.6s25.6 11.946667 25.6 25.6v527.36h457.386667c13.653333 0 25.6 11.946667 25.6 25.6s-11.946667 25.6-25.6 25.6zM488.106667 445.44h-92.16c-13.653333 0-25.6-11.946667-25.6-25.6s11.946667-25.6 25.6-25.6h92.16c13.653333 0 25.6 11.946667 25.6 25.6s-10.24 25.6-25.6 25.6zM672.426667 629.76H395.946667c-13.653333 0-25.6-11.946667-25.6-25.6s11.946667-25.6 25.6-25.6h276.48c13.653333 0 25.6 11.946667 25.6 25.6s-10.24 25.6-25.6 25.6z"  /></svg>