<?xml version="1.0" standalone="no"?><!DOCTYPE svg PUBLIC "-//W3C//DTD SVG 1.1//EN" "http://www.w3.org/Graphics/SVG/1.1/DTD/svg11.dtd"><svg class="icon" width="64px" height="64.00px" viewBox="0 0 1024 1024" version="1.1" xmlns="http://www.w3.org/2000/svg"><path  d="M512 989.866667C248.490667 989.866667 34.133333 775.509333 34.133333 512S248.490667 34.133333 512 34.133333s477.866667 214.357333 477.866667 477.866667-214.357333 477.866667-477.866667 477.866667z m0-904.533334C276.650667 85.333333 85.333333 276.650667 85.333333 512s191.317333 426.666667 426.666667 426.666667 426.666667-191.317333 426.666667-426.666667S747.349333 85.333333 512 85.333333z"  /><path  d="M336.725333 553.130667c-6.485333 0-13.141333-2.56-18.090666-7.509334l-82.432-82.432a25.582933 25.582933 0 0 1 0-36.181333l103.082666-103.082667c95.914667-95.914667 187.050667-55.466667 221.866667-20.650666a25.582933 25.582933 0 0 1 0 36.181333L354.816 545.792c-4.949333 4.949333-11.605333 7.338667-18.090667 7.338667z m-46.250666-108.032l46.250666 46.250666 166.570667-166.570666c-25.770667-12.629333-72.021333-20.48-127.829333 35.328l-84.992 84.992z m66.901333-103.082667z"  /><path  d="M707.925333 759.466667c-6.485333 0-13.141333-2.56-18.090666-7.509334L401.066667 463.189333a25.582933 25.582933 0 0 1 0-36.181333l61.952-61.952a25.429333 25.429333 0 0 1 36.181333 0l288.768 288.768a25.582933 25.582933 0 0 1 0 36.181333l-61.952 61.952c-4.949333 4.949333-11.605333 7.509333-18.090667 7.509334z m-252.586666-314.368l252.586666 252.586666 25.6-25.6-252.586666-252.586666-25.6 25.6z"  /></svg>