<?xml version="1.0" standalone="no"?><!DOCTYPE svg PUBLIC "-//W3C//DTD SVG 1.1//EN" "http://www.w3.org/Graphics/SVG/1.1/DTD/svg11.dtd"><svg class="icon" width="64px" height="64.00px" viewBox="0 0 1024 1024" version="1.1" xmlns="http://www.w3.org/2000/svg"><path  d="M759.466667 964.266667h-494.933334c-51.2 0-93.866667-40.96-93.866666-90.453334V150.186667c0-49.493333 42.666667-90.453333 93.866666-90.453334h496.64c51.2 0 93.866667 40.96 93.866667 90.453334v725.333333c-1.706667 47.786667-42.666667 88.746667-95.573333 88.746667z m-494.933334-853.333334c-23.893333 0-42.666667 17.066667-42.666666 39.253334v725.333333c0 22.186667 18.773333 39.253333 42.666666 39.253333h496.64c23.893333 0 42.666667-17.066667 42.666667-39.253333V150.186667c0-22.186667-18.773333-39.253333-42.666667-39.253334H264.533333z"  /><path  d="M648.533333 390.826667H375.466667c-13.653333 0-25.6-11.946667-25.6-25.6s11.946667-25.6 25.6-25.6h273.066666c13.653333 0 25.6 11.946667 25.6 25.6s-11.946667 25.6-25.6 25.6zM648.533333 259.413333H375.466667c-13.653333 0-25.6-11.946667-25.6-25.6s11.946667-25.6 25.6-25.6h273.066666c13.653333 0 25.6 11.946667 25.6 25.6s-11.946667 25.6-25.6 25.6zM184.32 863.573333H119.466667c-42.666667 0-76.8-34.133333-76.8-76.8V237.226667c0-42.666667 34.133333-76.8 76.8-76.8h68.266666c13.653333 0 25.6 11.946667 25.6 25.6s-11.946667 25.6-25.6 25.6H119.466667c-13.653333 0-25.6 11.946667-25.6 25.6V785.066667c0 13.653333 11.946667 25.6 25.6 25.6h64.853333c13.653333 0 25.6 11.946667 25.6 25.6s-11.946667 27.306667-25.6 27.306666zM904.533333 863.573333h-64.853333c-13.653333 0-25.6-11.946667-25.6-25.6s11.946667-25.6 25.6-25.6H904.533333c13.653333 0 25.6-11.946667 25.6-25.6V237.226667c0-13.653333-11.946667-25.6-25.6-25.6h-68.266666c-13.653333 0-25.6-11.946667-25.6-25.6s11.946667-25.6 25.6-25.6h68.266666c42.666667 0 76.8 34.133333 76.8 76.8V785.066667c0 42.666667-35.84 78.506667-76.8 78.506666zM641.706667 863.573333H382.293333c-22.186667 0-40.96-18.773333-40.96-40.96v-83.626666c0-22.186667 18.773333-40.96 40.96-40.96h259.413334c22.186667 0 40.96 18.773333 40.96 40.96v83.626666c0 22.186667-18.773333 40.96-40.96 40.96z m-249.173334-51.2h238.933334v-63.146666H392.533333v63.146666z"  /><path  d="M624.64 749.226667H399.36l47.786667-136.533334c5.12-13.653333 17.066667-22.186667 30.72-22.186666h64.853333c13.653333 0 27.306667 8.533333 30.72 22.186666l51.2 136.533334z m-151.893333-51.2h80.213333l-20.48-56.32h-40.96l-18.773333 56.32z m23.893333-68.266667z"  /><path  d="M539.306667 640h-54.613334c-37.546667 0-66.56-30.72-66.56-66.56s30.72-66.56 66.56-66.56h54.613334c37.546667 0 66.56 30.72 66.56 66.56s-29.013333 66.56-66.56 66.56z m-54.613334-81.92c-8.533333 0-15.36 6.826667-15.36 15.36s6.826667 15.36 15.36 15.36h54.613334c8.533333 0 15.36-6.826667 15.36-15.36s-6.826667-15.36-15.36-15.36h-54.613334z"  /></svg>