<?xml version="1.0" standalone="no"?><!DOCTYPE svg PUBLIC "-//W3C//DTD SVG 1.1//EN" "http://www.w3.org/Graphics/SVG/1.1/DTD/svg11.dtd"><svg class="icon" width="64px" height="64.00px" viewBox="0 0 1024 1024" version="1.1" xmlns="http://www.w3.org/2000/svg"><path  d="M911.36 989.866667H134.826667c-32.426667 0-58.026667-11.946667-75.093334-30.72-23.893333-25.6-23.893333-59.733333-22.186666-66.56V552.96c0-35.84 10.24-61.44 32.426666-78.506667 30.72-23.893333 75.093333-13.653333 78.506667-13.653333 1.706667 0 1.706667 0 3.413333 1.706667l329.386667 131.413333L853.333333 455.68c39.253333-15.36 73.386667-15.36 97.28 0 29.013333 17.066667 34.133333 47.786667 35.84 51.2V875.52c8.533333 73.386667-40.96 107.52-68.266666 114.346667h-6.826667zM87.04 896s0 17.066667 10.24 29.013333c8.533333 8.533333 20.48 13.653333 37.546667 13.653334h773.12c8.533333-3.413333 34.133333-17.066667 27.306666-58.026667V513.706667c0-3.413333-3.413333-10.24-10.24-13.653334-10.24-6.826667-29.013333-5.12-52.906666 5.12l-380.586667 141.653334c-5.12 1.706667-11.946667 1.706667-18.773333 0l-337.92-136.533334c-6.826667-1.706667-25.6-3.413333-35.84 5.12-8.533333 6.826667-11.946667 18.773333-11.946667 37.546667V896z"  /><path  d="M203.093333 535.893333c-13.653333 0-25.6-11.946667-25.6-25.6V128c0-5.12 3.413333-44.373333 32.426667-69.973333 20.48-17.066667 46.08-23.893333 76.8-22.186667h467.626667c29.013333-1.706667 85.333333 15.36 95.573333 88.746667V494.933333c0 13.653333-11.946667 25.6-25.6 25.6s-25.6-11.946667-25.6-25.6V129.706667c-6.826667-40.96-34.133333-44.373333-42.666667-42.666667L285.013333 85.333333h-1.706666c-17.066667-1.706667-30.72 1.706667-39.253334 10.24-13.653333 11.946667-15.36 32.426667-15.36 32.426667v380.586667c0 15.36-11.946667 27.306667-25.6 27.306666z"  /><path  d="M709.973333 274.773333H360.106667c-13.653333 0-25.6-11.946667-25.6-25.6s11.946667-25.6 25.6-25.6h351.573333c13.653333 0 25.6 11.946667 25.6 25.6s-11.946667 25.6-27.306667 25.6zM616.106667 411.306667h-256c-13.653333 0-25.6-11.946667-25.6-25.6s11.946667-25.6 25.6-25.6h257.706666c13.653333 0 25.6 11.946667 25.6 25.6s-11.946667 25.6-27.306666 25.6z"  /></svg>