<?xml version="1.0" standalone="no"?><!DOCTYPE svg PUBLIC "-//W3C//DTD SVG 1.1//EN" "http://www.w3.org/Graphics/SVG/1.1/DTD/svg11.dtd"><svg class="icon" width="64px" height="64.00px" viewBox="0 0 1024 1024" version="1.1" xmlns="http://www.w3.org/2000/svg"><path  d="M512 989.866667H196.266667c-39.253333 0-71.68-32.426667-71.68-69.973334V105.813333C124.586667 66.56 157.013333 34.133333 196.266667 34.133333h633.173333c39.253333 0 71.68 32.426667 71.68 69.973334V512c0 13.653333-11.946667 25.6-25.6 25.6s-25.6-11.946667-25.6-25.6V105.813333c0-10.24-8.533333-18.773333-20.48-18.773333H196.266667c-10.24 0-20.48 8.533333-20.48 18.773333v814.08c0 10.24 8.533333 18.773333 20.48 18.773334H512c13.653333 0 25.6 11.946667 25.6 25.6S525.653333 989.866667 512 989.866667z"  /><path  d="M771.413333 967.68c-13.653333 0-25.6-11.946667-25.6-25.6V646.826667c0-13.653333 11.946667-25.6 25.6-25.6s25.6 11.946667 25.6 25.6v293.546666c0 15.36-10.24 27.306667-25.6 27.306667z"  /><path  d="M771.413333 989.866667c-6.826667 0-13.653333-1.706667-18.773333-6.826667l-102.4-102.4c-10.24-10.24-10.24-25.6 0-35.84s25.6-10.24 35.84 0l83.626667 83.626667 83.626666-83.626667c10.24-10.24 25.6-10.24 35.84 0s10.24 25.6 0 35.84l-102.4 102.4c-1.706667 5.12-8.533333 6.826667-15.36 6.826667zM692.906667 356.693333H331.093333c-13.653333 0-25.6-11.946667-25.6-25.6s11.946667-25.6 25.6-25.6h361.813334c13.653333 0 25.6 11.946667 25.6 25.6s-11.946667 25.6-25.6 25.6z"  /><path  d="M512 537.6H331.093333c-13.653333 0-25.6-11.946667-25.6-25.6s11.946667-25.6 25.6-25.6H512c13.653333 0 25.6 11.946667 25.6 25.6s-11.946667 25.6-25.6 25.6z"  /></svg>