<?xml version="1.0" standalone="no"?><!DOCTYPE svg PUBLIC "-//W3C//DTD SVG 1.1//EN" "http://www.w3.org/Graphics/SVG/1.1/DTD/svg11.dtd"><svg class="icon" width="64px" height="64.00px" viewBox="0 0 1024 1024" version="1.1" xmlns="http://www.w3.org/2000/svg"><path  d="M798.72 989.866667H225.28c-59.733333 0-109.226667-49.493333-109.226667-109.226667V145.066667c0-59.733333 49.493333-109.226667 109.226667-109.226667h315.733333c13.653333 0 25.6 11.946667 25.6 25.6s-11.946667 25.6-25.6 25.6H225.28c-32.426667 0-58.026667 25.6-58.026667 58.026667v735.573333c0 32.426667 25.6 58.026667 58.026667 58.026667h573.44c32.426667 0 58.026667-25.6 58.026667-58.026667V363.52c0-13.653333 11.946667-25.6 25.6-25.6s25.6 11.946667 25.6 25.6v517.12c0 59.733333-49.493333 109.226667-109.226667 109.226667z"  /><path  d="M686.08 390.826667c-27.306667 0-49.493333-8.533333-66.56-25.6-29.013333-30.72-27.306667-76.8-27.306667-81.92V59.733333c0-10.24 6.826667-20.48 17.066667-23.893333 10.24-3.413333 20.48-1.706667 29.013333 6.826667l264.533334 303.786666c6.826667 6.826667 8.533333 18.773333 3.413333 27.306667-3.413333 8.533333-13.653333 15.36-22.186667 15.36l-197.973333 1.706667zM643.413333 128v157.013333c0 8.533333 1.706667 32.426667 13.653334 46.08 6.826667 6.826667 15.36 10.24 29.013333 10.24l141.653333-1.706666L643.413333 128zM453.973333 479.573333H290.133333c-13.653333 0-25.6-11.946667-25.6-25.6s11.946667-25.6 25.6-25.6h163.84c13.653333 0 25.6 11.946667 25.6 25.6s-11.946667 25.6-25.6 25.6zM453.973333 341.333333H290.133333c-13.653333 0-25.6-11.946667-25.6-25.6S276.48 290.133333 290.133333 290.133333h163.84c13.653333 0 25.6 11.946667 25.6 25.6s-11.946667 25.6-25.6 25.6zM766.293333 757.76H291.84c-13.653333 0-25.6-11.946667-25.6-25.6s11.946667-25.6 25.6-25.6H768c13.653333 0 25.6 11.946667 25.6 25.6s-13.653333 25.6-27.306667 25.6zM766.293333 619.52H291.84c-13.653333 0-25.6-11.946667-25.6-25.6s11.946667-25.6 25.6-25.6H768c13.653333 0 25.6 11.946667 25.6 25.6s-13.653333 25.6-27.306667 25.6z"  /></svg>