<?xml version="1.0" standalone="no"?><!DOCTYPE svg PUBLIC "-//W3C//DTD SVG 1.1//EN" "http://www.w3.org/Graphics/SVG/1.1/DTD/svg11.dtd"><svg class="icon" width="64px" height="64.00px" viewBox="0 0 1024 1024" version="1.1" xmlns="http://www.w3.org/2000/svg"><path  d="M846.506667 901.12H267.946667c-42.666667 0-76.8-39.253333-76.8-85.333333V119.466667c0-47.786667 34.133333-85.333333 76.8-85.333334h477.866666c6.826667 0 15.36 3.413333 18.773334 8.533334l150.186666 177.493333c3.413333 5.12 6.826667 10.24 6.826667 17.066667v578.56c1.706667 46.08-32.426667 85.333333-75.093333 85.333333zM267.946667 85.333333c-13.653333 0-25.6 15.36-25.6 34.133334v694.613333c0 18.773333 11.946667 34.133333 25.6 34.133333h578.56c13.653333 0 25.6-15.36 25.6-34.133333V247.466667L733.866667 85.333333H267.946667z"  /><path  d="M897.706667 278.186667H750.933333c-22.186667 0-40.96-18.773333-40.96-40.96V59.733333c0-13.653333 11.946667-25.6 25.6-25.6s25.6 11.946667 25.6 25.6v167.253334h134.826667c13.653333 0 25.6 11.946667 25.6 25.6s-10.24 25.6-23.893333 25.6z"  /><path  d="M756.053333 989.866667H177.493333c-42.666667 0-76.8-39.253333-76.8-85.333334V208.213333c0-47.786667 34.133333-85.333333 76.8-85.333333h40.96c13.653333 0 25.6 11.946667 25.6 25.6s-11.946667 25.6-25.6 25.6h-40.96c-13.653333 0-25.6 15.36-25.6 34.133333V904.533333c0 18.773333 11.946667 34.133333 25.6 34.133334h578.56c13.653333 0 25.6-15.36 25.6-34.133334 0-13.653333 11.946667-25.6 25.6-25.6s25.6 11.946667 25.6 25.6c-1.706667 46.08-35.84 85.333333-76.8 85.333334z"  /><path  d="M575.146667 341.333333H372.053333c-13.653333 0-25.6-11.946667-25.6-25.6S358.4 290.133333 372.053333 290.133333h203.093334c13.653333 0 25.6 11.946667 25.6 25.6s-10.24 25.6-25.6 25.6zM704.853333 500.053333H372.053333c-13.653333 0-25.6-11.946667-25.6-25.6s11.946667-25.6 25.6-25.6h332.8c13.653333 0 25.6 11.946667 25.6 25.6s-11.946667 25.6-25.6 25.6zM704.853333 660.48H372.053333c-13.653333 0-25.6-11.946667-25.6-25.6s11.946667-25.6 25.6-25.6h332.8c13.653333 0 25.6 11.946667 25.6 25.6s-11.946667 25.6-25.6 25.6z"  /></svg>