<?xml version="1.0" standalone="no"?><!DOCTYPE svg PUBLIC "-//W3C//DTD SVG 1.1//EN" "http://www.w3.org/Graphics/SVG/1.1/DTD/svg11.dtd"><svg class="icon" width="64px" height="64.00px" viewBox="0 0 1024 1024" version="1.1" xmlns="http://www.w3.org/2000/svg"><path  d="M896 989.866667H262.826667c-13.653333 0-25.6-11.946667-25.6-25.6v-768c0-13.653333 11.946667-25.6 25.6-25.6h633.173333c13.653333 0 25.6 11.946667 25.6 25.6v768c0 13.653333-10.24 25.6-25.6 25.6z m-607.573333-51.2H870.4V221.866667H288.426667v716.8z"  /><path  d="M262.826667 853.333333h-136.533334c-13.653333 0-23.893333-10.24-23.893333-25.6V81.92C102.4 56.32 122.88 34.133333 150.186667 34.133333h610.986666c13.653333 0 25.6 11.946667 25.6 25.6v136.533334c0 13.653333-11.946667 25.6-25.6 25.6s-25.6-11.946667-25.6-25.6V85.333333H153.6v716.8h110.933333c13.653333 0 25.6 11.946667 25.6 25.6s-11.946667 25.6-27.306666 25.6z"  /><path  d="M715.093333 491.52H443.733333c-13.653333 0-25.6-11.946667-25.6-25.6s11.946667-25.6 25.6-25.6h271.36c13.653333 0 25.6 11.946667 25.6 25.6s-10.24 25.6-25.6 25.6zM715.093333 674.133333H443.733333c-13.653333 0-25.6-11.946667-25.6-25.6s11.946667-25.6 25.6-25.6h271.36c13.653333 0 25.6 11.946667 25.6 25.6s-10.24 25.6-25.6 25.6z"  /></svg>