<?xml version="1.0" standalone="no"?><!DOCTYPE svg PUBLIC "-//W3C//DTD SVG 1.1//EN" "http://www.w3.org/Graphics/SVG/1.1/DTD/svg11.dtd"><svg class="icon" width="64px" height="64.00px" viewBox="0 0 1024 1024" version="1.1" xmlns="http://www.w3.org/2000/svg"><path  d="M829.44 989.866667H194.56c-39.253333 0-69.973333-32.426667-69.973333-69.973334V105.813333C124.586667 66.56 157.013333 34.133333 194.56 34.133333h633.173333c39.253333 0 69.973333 32.426667 69.973334 69.973334v814.08c1.706667 39.253333-30.72 71.68-68.266667 71.68zM194.56 85.333333c-10.24 0-18.773333 8.533333-18.773333 18.773334v814.08c0 10.24 8.533333 18.773333 18.773333 18.773333h633.173333c10.24 0 18.773333-8.533333 18.773334-18.773333V105.813333c0-10.24-8.533333-18.773333-18.773334-18.773333H194.56z"  /><path  d="M670.72 672.426667H353.28c-13.653333 0-25.6-11.946667-25.6-25.6s11.946667-25.6 25.6-25.6h315.733333c13.653333 0 25.6 11.946667 25.6 25.6s-10.24 25.6-23.893333 25.6zM512 808.96h-158.72c-13.653333 0-25.6-11.946667-25.6-25.6s11.946667-25.6 25.6-25.6H512c13.653333 0 25.6 11.946667 25.6 25.6s-11.946667 25.6-25.6 25.6zM467.626667 469.333333c-6.826667 0-13.653333-3.413333-18.773334-6.826666L358.4 372.053333c-10.24-10.24-10.24-25.6 0-35.84 10.24-10.24 25.6-10.24 35.84 0l71.68 71.68 162.133333-162.133333c10.24-10.24 25.6-10.24 35.84 0 10.24 10.24 10.24 25.6 0 35.84L484.693333 462.506667c-5.12 5.12-11.946667 6.826667-17.066666 6.826666z"  /></svg>