<?xml version="1.0" standalone="no"?><!DOCTYPE svg PUBLIC "-//W3C//DTD SVG 1.1//EN" "http://www.w3.org/Graphics/SVG/1.1/DTD/svg11.dtd"><svg class="icon" width="64px" height="64.00px" viewBox="0 0 1024 1024" version="1.1" xmlns="http://www.w3.org/2000/svg"><path d="M699.733333 199.168H242.517333c-14.165333 0-25.6-11.434667-25.6-25.6s11.434667-25.6 25.6-25.6H699.733333c14.165333 0 25.6 11.434667 25.6 25.6s-11.434667 25.6-25.6 25.6zM699.733333 352.085333H242.517333c-14.165333 0-25.6-11.434667-25.6-25.6s11.434667-25.6 25.6-25.6H699.733333c14.165333 0 25.6 11.434667 25.6 25.6s-11.434667 25.6-25.6 25.6z" fill="#333333" /><path d="M124.586667 173.568m-25.6 0a25.6 25.6 0 1 0 51.2 0 25.6 25.6 0 1 0-51.2 0Z"  /><path d="M124.586667 326.485333m-25.6 0a25.6 25.6 0 1 0 51.2 0 25.6 25.6 0 1 0-51.2 0Z"  /><path d="M768.682667 901.632c-18.261333 0-27.818667-7.338667-56.149334-29.184-22.528-17.578667-35.669333-26.794667-41.984-30.890667l-19.456 0.341334c-326.144 6.997333-329.386667 3.754667-347.477333-14.336-2.389333-2.048-33.450667-26.282667-54.101333-42.496C49.664 629.077333 47.616 624.128 40.96 607.402667c-10.752-23.552-9.045333-51.882667 5.290667-74.922667 12.117333-17.92 36.693333-38.4 88.064-38.4 53.76 0 114.176 47.786667 162.645333 86.186667 10.410667 8.192 28.842667 22.698667 37.546667 28.501333h52.394666c-17.408-17.578667-28.330667-40.618667-28.330666-63.829333 0-44.202667 30.890667-91.989333 98.986666-91.989334h176.810667c74.922667 0 147.626667 26.624 204.8 75.093334 149.333333 126.976 149.674667 135.509333 150.698667 158.378666 0.512 13.312-4.437333 26.453333-13.824 35.84-4.608 4.778667-47.445333 46.592-88.576 86.528-92.501333 89.429333-96.256 92.842667-118.784 92.842667z m1.024-50.858667z m-93.013334-60.416c3.413333 0 6.826667 0.682667 10.069334 2.048 3.413333 1.536 13.994667 5.973333 57.173333 39.594667 10.581333 8.192 20.138667 15.530667 24.234667 17.92 10.410667-7.509333 41.472-37.376 83.456-77.994667 38.058667-36.864 77.312-75.264 86.357333-84.309333-8.704-12.970667-53.077333-53.418667-132.096-120.661333-47.786667-40.618667-108.885333-62.976-171.690667-62.976H457.557333c-43.178667 0-47.786667 28.501333-47.786666 40.789333 0 18.090667 19.626667 38.741333 40.618666 42.666667 11.264 2.218667 32.597333 5.12 55.296 8.362666l25.088 3.584c10.410667 1.536 18.773333 9.216 21.333334 19.456 2.389333 10.24-1.706667 20.992-10.24 26.965334-6.144 4.266667-12.8 8.192-19.626667 11.434666-3.413333 1.706667-7.168 2.56-11.093333 2.56H328.021333c-3.242667 0-6.485333-0.682667-9.386666-1.877333-9.557333-3.754667-23.210667-13.994667-52.053334-36.693333-41.301333-32.768-96.256-76.117333-132.266666-76.117334-15.872 0-36.693333 2.56-45.056 15.018667-4.778667 7.68-5.461333 18.090667-1.194667 26.965333 7.168 11.434667 82.261333 71.168 192.853333 157.525334 39.765333 31.061333 54.442667 42.666667 57.856 45.568l0.341334 0.341333c19.968 5.12 138.752 3.754667 310.784 0l26.282666-0.512c0.170667 0.341333 0.341333 0.341333 0.512 0.341333z" fill="#333333" /></svg>