<?xml version="1.0" standalone="no"?><!DOCTYPE svg PUBLIC "-//W3C//DTD SVG 1.1//EN" "http://www.w3.org/Graphics/SVG/1.1/DTD/svg11.dtd"><svg class="icon" width="64px" height="64.00px" viewBox="0 0 1024 1024" version="1.1" xmlns="http://www.w3.org/2000/svg"><path  d="M834.56 998.4H189.44c-39.253333 0-71.68-32.426667-71.68-71.68V97.28c0-39.253333 32.426667-71.68 71.68-71.68h645.12c39.253333 0 71.68 32.426667 71.68 71.68v829.44c0 39.253333-32.426667 71.68-71.68 71.68z m-645.12-921.6c-11.946667 0-20.48 8.533333-20.48 20.48v829.44c0 11.946667 8.533333 20.48 20.48 20.48h645.12c11.946667 0 20.48-8.533333 20.48-20.48V97.28c0-11.946667-8.533333-20.48-20.48-20.48H189.44z"  /><path  d="M535.893333 445.44c-6.826667 0-11.946667-1.706667-17.066666-6.826667l-87.04-76.8-87.04 76.8c-6.826667 6.826667-18.773333 8.533333-27.306667 3.413334s-15.36-13.653333-15.36-23.893334V51.2c0-13.653333 11.946667-25.6 25.6-25.6h208.213333c13.653333 0 25.6 11.946667 25.6 25.6v368.64c0 10.24-5.12 18.773333-15.36 23.893333-3.413333 1.706667-6.826667 1.706667-10.24 1.706667z m-104.106666-143.36c6.826667 0 11.946667 1.706667 17.066666 6.826667l61.44 54.613333V76.8h-157.013333v286.72l61.44-54.613333c5.12-5.12 10.24-6.826667 17.066667-6.826667zM558.08 629.76H327.68c-13.653333 0-25.6-11.946667-25.6-25.6s11.946667-25.6 25.6-25.6h230.4c13.653333 0 25.6 11.946667 25.6 25.6s-11.946667 25.6-25.6 25.6zM696.32 768H327.68c-13.653333 0-25.6-11.946667-25.6-25.6s11.946667-25.6 25.6-25.6h368.64c13.653333 0 25.6 11.946667 25.6 25.6s-11.946667 25.6-25.6 25.6z"  /></svg>