<?xml version="1.0" standalone="no"?><!DOCTYPE svg PUBLIC "-//W3C//DTD SVG 1.1//EN" "http://www.w3.org/Graphics/SVG/1.1/DTD/svg11.dtd"><svg class="icon" width="64px" height="64.00px" viewBox="0 0 1024 1024" version="1.1" xmlns="http://www.w3.org/2000/svg"><path  d="M825.344 989.866667c-6.485333 0-13.141333-2.56-18.090667-7.509334L574.293333 749.397333c-23.381333 9.557333-48.469333 14.506667-73.728 14.506667-107.52 0-195.072-87.552-195.072-195.072 0-31.744 7.850667-63.317333 22.528-91.136 3.754667-7.168 10.752-12.117333 18.773334-13.312s16.213333 1.536 21.845333 7.168l89.429333 89.429333 34.474667-34.474666-89.429333-89.429334c-5.802667-5.802667-8.362667-13.824-7.168-21.845333s6.144-15.018667 13.312-18.773333c27.989333-14.848 59.392-22.698667 91.136-22.698667 107.52 0 195.072 87.552 195.072 195.072 0 25.258667-4.949333 50.517333-14.506667 73.728L914.090667 875.52a25.582933 25.582933 0 0 1 0 36.181333l-70.656 70.656c-4.949333 4.949333-11.434667 7.509333-18.090667 7.509334zM579.754667 693.077333c6.656 0 13.141333 2.56 18.090666 7.509334l227.498667 227.498666 34.474667-34.474666-227.498667-227.498667c-8.021333-8.021333-9.728-20.138667-4.608-30.037333 10.922667-20.650667 16.725333-43.861333 16.725333-67.242667 0-79.36-64.512-143.872-143.872-143.872-11.264 0-22.357333 1.365333-33.109333 3.925333l79.530667 79.530667c10.069333 10.069333 10.069333 26.282667 0 36.181333l-70.656 70.656c-9.557333 9.557333-26.624 9.557333-36.181334 0l-79.530666-79.530666c-2.56 10.752-3.925333 22.016-3.925334 33.109333 0 79.36 64.512 143.872 143.872 143.872 23.381333 0 46.762667-5.802667 67.242667-16.554667 3.754667-2.048 7.850667-3.072 11.946667-3.072z"  /><path  d="M581.461333 989.866667H196.266667A94.037333 94.037333 0 0 1 102.4 896v-768C102.4 76.288 144.554667 34.133333 196.266667 34.133333h631.466666C879.445333 34.133333 921.6 76.288 921.6 128v505.173333c0 14.165333-11.434667 25.6-25.6 25.6s-25.6-11.434667-25.6-25.6V128A42.666667 42.666667 0 0 0 827.733333 85.333333h-631.466666A42.666667 42.666667 0 0 0 153.6 128v768a42.666667 42.666667 0 0 0 42.666667 42.666667h385.194666c14.165333 0 25.6 11.434667 25.6 25.6s-11.434667 25.6-25.6 25.6z"  /></svg>