<?xml version="1.0" standalone="no"?><!DOCTYPE svg PUBLIC "-//W3C//DTD SVG 1.1//EN" "http://www.w3.org/Graphics/SVG/1.1/DTD/svg11.dtd"><svg class="icon" width="64px" height="64.00px" viewBox="0 0 1024 1024" version="1.1" xmlns="http://www.w3.org/2000/svg"><path  d="M805.546667 989.866667H218.453333a94.037333 94.037333 0 0 1-93.866666-93.866667v-768C124.586667 76.288 166.741333 34.133333 218.453333 34.133333h429.226667c6.826667 0 13.312 2.730667 18.090667 7.509334l226.133333 226.133333c4.778667 4.778667 7.509333 11.264 7.509333 18.090667V896c0 51.712-42.154667 93.866667-93.866666 93.866667zM218.453333 85.333333a42.666667 42.666667 0 0 0-42.666666 42.666667v768a42.666667 42.666667 0 0 0 42.666666 42.666667h587.093334a42.666667 42.666667 0 0 0 42.666666-42.666667V296.448L637.098667 85.333333H218.453333z"  /><path  d="M692.906667 447.146667H331.093333c-14.165333 0-25.6-11.434667-25.6-25.6s11.434667-25.6 25.6-25.6h361.813334c14.165333 0 25.6 11.434667 25.6 25.6s-11.434667 25.6-25.6 25.6zM692.906667 628.053333H331.093333c-14.165333 0-25.6-11.434667-25.6-25.6s11.434667-25.6 25.6-25.6h361.813334c14.165333 0 25.6 11.434667 25.6 25.6s-11.434667 25.6-25.6 25.6z"  /></svg>