<?xml version="1.0" standalone="no"?><!DOCTYPE svg PUBLIC "-//W3C//DTD SVG 1.1//EN" "http://www.w3.org/Graphics/SVG/1.1/DTD/svg11.dtd"><svg class="icon" width="64px" height="64.00px" viewBox="0 0 1024 1024" version="1.1" xmlns="http://www.w3.org/2000/svg"><path  d="M464.384 966.144H128a94.037333 94.037333 0 0 1-93.866667-93.866667V151.722667c0-51.712 42.154667-93.866667 93.866667-93.866667h265.045333c7.68 0 14.848 3.413333 19.626667 9.216l111.274667 133.632h372.053333c51.712 0 93.866667 42.154667 93.866667 93.866667V488.106667c0 14.165333-11.434667 25.6-25.6 25.6s-25.6-11.434667-25.6-25.6V294.570667a42.666667 42.666667 0 0 0-42.666667-42.666667H512c-7.68 0-14.848-3.413333-19.626667-9.216l-111.274666-133.632H128C104.448 109.056 85.333333 128.341333 85.333333 151.722667V872.106667a42.666667 42.666667 0 0 0 42.666667 42.666666h336.384c14.165333 0 25.6 11.434667 25.6 25.6s-11.434667 25.770667-25.6 25.770667z"  /><path  d="M697.856 966.144h-92.672c-14.165333 0-25.6-11.434667-25.6-25.6v-92.672c0-6.826667 2.730667-13.312 7.509333-18.090667l231.594667-231.594666a25.429333 25.429333 0 0 1 36.181333 0l92.672 92.672c10.069333 10.069333 10.069333 26.282667 0 36.181333L715.946667 958.634667c-4.778667 4.778667-11.264 7.509333-18.090667 7.509333z m-67.072-51.2h56.490667l205.994666-205.994667-56.490666-56.490666L630.784 858.453333v56.490667z"  /></svg>