<?xml version="1.0" standalone="no"?><!DOCTYPE svg PUBLIC "-//W3C//DTD SVG 1.1//EN" "http://www.w3.org/Graphics/SVG/1.1/DTD/svg11.dtd"><svg class="icon" width="64px" height="64.00px" viewBox="0 0 1024 1024" version="1.1" xmlns="http://www.w3.org/2000/svg"><path  d="M827.733333 998.4H182.613333c-39.253333 0-71.68-32.426667-71.68-71.68V97.28c0-39.253333 32.426667-71.68 71.68-71.68h645.12c39.253333 0 71.68 32.426667 71.68 71.68v829.44c0 39.253333-32.426667 71.68-71.68 71.68z m-645.12-921.6c-11.946667 0-20.48 8.533333-20.48 20.48v829.44c0 11.946667 8.533333 20.48 20.48 20.48h645.12c11.946667 0 20.48-8.533333 20.48-20.48V97.28c0-11.946667-8.533333-20.48-20.48-20.48H182.613333z"  /><path  d="M643.413333 675.84H320.853333c-13.653333 0-25.6-11.946667-25.6-25.6s11.946667-25.6 25.6-25.6h322.56c13.653333 0 25.6 11.946667 25.6 25.6s-11.946667 25.6-25.6 25.6zM482.986667 814.08h-162.133334c-13.653333 0-25.6-11.946667-25.6-25.6s11.946667-25.6 25.6-25.6h162.133334c13.653333 0 25.6 11.946667 25.6 25.6s-11.946667 25.6-25.6 25.6zM643.413333 491.52H320.853333c-13.653333 0-25.6-11.946667-25.6-25.6V235.52c0-13.653333 11.946667-25.6 25.6-25.6h322.56c13.653333 0 25.6 11.946667 25.6 25.6v230.4c0 13.653333-11.946667 25.6-25.6 25.6z m-296.96-51.2h271.36V261.12H346.453333v179.2z"  /></svg>