<?xml version="1.0" standalone="no"?><!DOCTYPE svg PUBLIC "-//W3C//DTD SVG 1.1//EN" "http://www.w3.org/Graphics/SVG/1.1/DTD/svg11.dtd"><svg class="icon" width="64px" height="64.00px" viewBox="0 0 1024 1024" version="1.1" xmlns="http://www.w3.org/2000/svg"><path  d="M834.56 998.4H189.44c-39.253333 0-71.68-32.426667-71.68-71.68V97.28c0-39.253333 32.426667-71.68 71.68-71.68h645.12c39.253333 0 71.68 32.426667 71.68 71.68v829.44c0 39.253333-32.426667 71.68-71.68 71.68z m-645.12-921.6c-11.946667 0-20.48 8.533333-20.48 20.48v829.44c0 11.946667 8.533333 20.48 20.48 20.48h645.12c11.946667 0 20.48-8.533333 20.48-20.48V97.28c0-11.946667-8.533333-20.48-20.48-20.48H189.44z"  /><path  d="M327.68 998.4c-13.653333 0-25.6-11.946667-25.6-25.6V51.2c0-13.653333 11.946667-25.6 25.6-25.6s25.6 11.946667 25.6 25.6v921.6c0 13.653333-11.946667 25.6-25.6 25.6zM696.32 261.12H512c-13.653333 0-25.6-11.946667-25.6-25.6s11.946667-25.6 25.6-25.6h184.32c13.653333 0 25.6 11.946667 25.6 25.6s-11.946667 25.6-25.6 25.6zM696.32 445.44H512c-13.653333 0-25.6-11.946667-25.6-25.6s11.946667-25.6 25.6-25.6h184.32c13.653333 0 25.6 11.946667 25.6 25.6s-11.946667 25.6-25.6 25.6z"  /><path  d="M465.92 76.8H189.44c-13.653333 0-25.6-11.946667-25.6-25.6s11.946667-25.6 25.6-25.6h276.48c13.653333 0 25.6 11.946667 25.6 25.6s-11.946667 25.6-25.6 25.6zM465.92 998.4H189.44c-13.653333 0-25.6-11.946667-25.6-25.6s11.946667-25.6 25.6-25.6h276.48c13.653333 0 25.6 11.946667 25.6 25.6s-11.946667 25.6-25.6 25.6z"  /></svg>