<?xml version="1.0" standalone="no"?><!DOCTYPE svg PUBLIC "-//W3C//DTD SVG 1.1//EN" "http://www.w3.org/Graphics/SVG/1.1/DTD/svg11.dtd"><svg class="icon" width="64px" height="64.00px" viewBox="0 0 1024 1024" version="1.1" xmlns="http://www.w3.org/2000/svg"><path  d="M665.6 989.866667H172.373333c-54.613333 0-97.28-44.373333-97.28-97.28v-631.466667c0-54.613333 44.373333-97.28 97.28-97.28h343.04c6.826667 0 15.36 3.413333 18.773334 8.533333l223.573333 259.413334c3.413333 5.12 6.826667 10.24 6.826667 17.066666v445.44c-1.706667 51.2-46.08 95.573333-98.986667 95.573334zM172.373333 213.333333c-25.6 0-46.08 20.48-46.08 46.08v631.466667c0 25.6 20.48 46.08 46.08 46.08H665.6c25.6 0 46.08-20.48 46.08-46.08V457.386667L501.76 213.333333H172.373333z"  /><path  d="M568.32 481.28c-23.893333 0-44.373333-8.533333-59.733333-23.893333-25.6-27.306667-25.6-68.266667-23.893334-73.386667V191.146667c0-10.24 6.826667-20.48 17.066667-23.893334 10.24-3.413333 20.48-1.706667 29.013333 6.826667l228.693334 261.12c6.826667 6.826667 8.533333 18.773333 3.413333 27.306667-3.413333 8.533333-13.653333 15.36-22.186667 15.36l-172.373333 3.413333z m-34.133333-220.16v124.586667c0 6.826667 1.706667 25.6 10.24 35.84 3.413333 3.413333 8.533333 6.826667 22.186666 6.826666l114.346667-1.706666-146.773333-165.546667z"  /><path  d="M851.626667 861.866667h-51.2c-13.653333 0-25.6-11.946667-25.6-25.6s11.946667-25.6 25.6-25.6h51.2c25.6 0 46.08-20.48 46.08-46.08V329.386667L689.493333 85.333333H358.4c-25.6 0-46.08 20.48-46.08 46.08 0 13.653333-11.946667 25.6-25.6 25.6s-25.6-11.946667-25.6-25.6C261.12 78.506667 305.493333 34.133333 358.4 34.133333h343.04c6.826667 0 15.36 3.413333 18.773333 8.533334l223.573334 259.413333c3.413333 5.12 6.826667 10.24 6.826666 17.066667v445.44c0 52.906667-44.373333 97.28-98.986666 97.28z"  /><path  d="M754.346667 353.28c-23.893333 0-44.373333-8.533333-59.733334-23.893333-25.6-27.306667-25.6-68.266667-23.893333-73.386667V63.146667c0-10.24 6.826667-20.48 17.066667-23.893334 10.24-3.413333 20.48-1.706667 29.013333 6.826667L945.493333 307.2c6.826667 6.826667 8.533333 18.773333 3.413334 27.306667-3.413333 8.533333-13.653333 15.36-22.186667 15.36l-172.373333 3.413333zM721.92 133.12v124.586667c0 6.826667 1.706667 25.6 10.24 35.84 3.413333 3.413333 8.533333 6.826667 22.186667 6.826666l114.346666-1.706666-146.773333-165.546667zM368.64 551.253333h-139.946667c-13.653333 0-25.6-11.946667-25.6-25.6s11.946667-25.6 25.6-25.6h139.946667c13.653333 0 25.6 11.946667 25.6 25.6s-11.946667 25.6-25.6 25.6zM368.64 431.786667h-139.946667c-13.653333 0-25.6-11.946667-25.6-25.6s11.946667-25.6 25.6-25.6h139.946667c13.653333 0 25.6 11.946667 25.6 25.6s-11.946667 25.6-25.6 25.6zM638.293333 790.186667h-409.6c-13.653333 0-25.6-11.946667-25.6-25.6s11.946667-25.6 25.6-25.6h409.6c13.653333 0 25.6 11.946667 25.6 25.6s-11.946667 25.6-25.6 25.6zM638.293333 670.72h-409.6c-13.653333 0-25.6-11.946667-25.6-25.6s11.946667-25.6 25.6-25.6h409.6c13.653333 0 25.6 11.946667 25.6 25.6s-11.946667 25.6-25.6 25.6z"  /></svg>