<?xml version="1.0" standalone="no"?><!DOCTYPE svg PUBLIC "-//W3C//DTD SVG 1.1//EN" "http://www.w3.org/Graphics/SVG/1.1/DTD/svg11.dtd"><svg class="icon" width="64px" height="64.00px" viewBox="0 0 1024 1024" version="1.1" xmlns="http://www.w3.org/2000/svg"><path  d="M839.168 557.056c-37.546667-31.914667-82.090667-54.101333-129.365333-65.706667V187.221333c0-51.712-42.154667-93.866667-93.866667-93.866666H215.210667a94.037333 94.037333 0 0 0-93.866667 93.866666v336.554667c-42.325333 3.242667-64 21.333333-74.922667 37.717333-14.336 23.04-16.042667 51.541333-5.290666 74.922667 6.656 16.725333 8.704 21.674667 208.554666 177.834667 17.92 13.994667 51.541333 40.277333 54.101334 42.325333 18.090667 18.090667 21.333333 21.504 347.477333 14.336l19.456-0.341333c6.314667 3.925333 19.626667 13.312 42.154667 30.890666 28.330667 21.845333 37.717333 29.184 55.978666 29.184 22.698667 0 26.282667-3.413333 118.613334-92.842666 41.301333-39.936 83.968-81.749333 88.576-86.528 9.386667-9.386667 14.506667-22.528 13.824-35.84-1.024-22.869333-1.365333-31.402667-150.698667-158.378667zM215.210667 144.554667h400.725333a42.666667 42.666667 0 0 1 42.666667 42.666666V482.986667c-8.021333-0.682667-16.042667-1.024-24.234667-1.024H457.557333c-67.925333 0-98.986667 47.616-98.986666 91.989333 0 23.381333 10.922667 46.250667 28.330666 63.829333H334.506667c-8.704-5.802667-27.136-20.138667-37.546667-28.501333-37.205333-29.525333-81.578667-64.512-124.416-79.189333v-343.04c0-23.381333 19.114667-42.496 42.666667-42.496zM851.626667 801.109333c-41.984 40.618667-73.045333 70.485333-83.456 77.994667-4.266667-2.56-13.653333-9.728-24.234667-17.92-43.008-33.621333-53.589333-38.229333-57.173333-39.594667-3.242667-1.365333-6.656-2.048-10.069334-2.048h-0.512l-26.282666 0.512c-172.032 3.754667-290.986667 5.12-310.784 0l-0.341334-0.341333c-3.072-2.730667-16.042667-12.970667-57.856-45.568-110.762667-86.357333-185.856-146.090667-192.853333-157.525333-4.096-9.045333-3.413333-19.456 1.194667-26.965334 8.362667-12.458667 29.184-15.018667 45.056-15.018666 36.010667 0 90.794667 43.52 132.266666 76.117333 28.842667 22.698667 42.325333 32.768 52.053334 36.693333 3.072 1.194667 6.314667 1.877333 9.386666 1.877334h183.125334c3.754667 0 7.68-0.853333 11.093333-2.56 6.826667-3.242667 13.482667-7.168 19.626667-11.434667 8.533333-5.973333 12.629333-16.725333 10.24-26.965333-2.389333-10.24-10.922667-17.92-21.333334-19.456l-25.088-3.584c-22.698667-3.242667-44.032-6.144-55.296-8.362667-20.821333-3.925333-40.618667-24.746667-40.618666-42.666667 0-12.288 4.608-40.789333 47.786666-40.789333h176.810667c62.805333 0 123.733333 22.357333 171.690667 62.976 79.018667 67.242667 123.392 107.690667 132.096 120.661333-9.216 8.704-48.298667 47.104-86.528 83.968z"  /><path  d="M279.04 312.661333h273.066667c14.165333 0 25.6-11.434667 25.6-25.6s-11.434667-25.6-25.6-25.6h-273.066667c-14.165333 0-25.6 11.434667-25.6 25.6s11.434667 25.6 25.6 25.6z"  /></svg>