<?xml version="1.0" standalone="no"?><!DOCTYPE svg PUBLIC "-//W3C//DTD SVG 1.1//EN" "http://www.w3.org/Graphics/SVG/1.1/DTD/svg11.dtd"><svg class="icon" width="64px" height="64.00px" viewBox="0 0 1024 1024" version="1.1" xmlns="http://www.w3.org/2000/svg"><path  d="M225.28 989.866667H134.826667c-39.253333 0-71.68-29.013333-71.68-64.853334v-699.733333c0-35.84 32.426667-64.853333 71.68-64.853333h90.453333v51.2H134.826667c-11.946667 0-20.48 6.826667-20.48 13.653333v699.733333c0 6.826667 8.533333 13.653333 20.48 13.653334h90.453333v51.2z"  /><path  d="M889.173333 989.866667H256c-39.253333 0-69.973333-32.426667-69.973333-69.973334V104.106667C184.32 66.56 216.746667 34.133333 256 34.133333h633.173333c39.253333 0 69.973333 32.426667 69.973334 71.68v814.08c0 37.546667-30.72 69.973333-69.973334 69.973334zM256 85.333333c-10.24 0-18.773333 8.533333-18.773333 20.48v814.08c0 10.24 8.533333 18.773333 18.773333 18.773334h633.173333c10.24 0 18.773333-8.533333 18.773334-18.773334V104.106667c0-10.24-8.533333-20.48-18.773334-20.48H256z"  /><path  d="M783.36 266.24H361.813333c-13.653333 0-25.6-11.946667-25.6-25.6s11.946667-25.6 25.6-25.6h421.546667c13.653333 0 25.6 11.946667 25.6 25.6s-11.946667 25.6-25.6 25.6zM783.36 460.8H361.813333c-13.653333 0-25.6-11.946667-25.6-25.6s11.946667-25.6 25.6-25.6h421.546667c13.653333 0 25.6 11.946667 25.6 25.6s-11.946667 25.6-25.6 25.6zM590.506667 655.36H361.813333c-13.653333 0-25.6-11.946667-25.6-25.6s11.946667-25.6 25.6-25.6h228.693334c13.653333 0 25.6 11.946667 25.6 25.6s-11.946667 25.6-25.6 25.6z"  /><path  d="M467.626667 989.866667h-273.066667c-13.653333 0-25.6-11.946667-25.6-25.6s11.946667-25.6 25.6-25.6h271.36c13.653333 0 25.6 11.946667 25.6 25.6s-10.24 25.6-23.893333 25.6z"  /></svg>