<?xml version="1.0" standalone="no"?><!DOCTYPE svg PUBLIC "-//W3C//DTD SVG 1.1//EN" "http://www.w3.org/Graphics/SVG/1.1/DTD/svg11.dtd"><svg class="icon" width="64px" height="64.00px" viewBox="0 0 1024 1024" version="1.1" xmlns="http://www.w3.org/2000/svg"><path  d="M896.512 797.696H127.658667C76.117333 797.696 34.133333 755.712 34.133333 704.170667V161.450667c0-51.541333 41.984-93.525333 93.525334-93.525334h768.853333c51.541333 0 93.525333 41.984 93.525333 93.525334v542.72c-0.170667 51.541333-42.154667 93.525333-93.525333 93.525333zM127.658667 119.296C104.277333 119.296 85.333333 138.24 85.333333 161.450667v542.72c0 23.210667 18.944 42.154667 42.325334 42.154666h768.853333c23.210667 0 42.325333-18.944 42.325333-42.154666V161.450667a42.325333 42.325333 0 0 0-42.325333-42.325334H127.658667z"  /><path  d="M512 955.904c-14.165333 0-25.6-11.434667-25.6-25.6v-158.378667c0-14.165333 11.434667-25.6 25.6-25.6s25.6 11.434667 25.6 25.6v158.378667c0 14.165333-11.434667 25.6-25.6 25.6z"  /><path  d="M828.586667 955.904h-633.173334c-14.165333 0-25.6-11.434667-25.6-25.6s11.434667-25.6 25.6-25.6h633.173334c14.165333 0 25.6 11.434667 25.6 25.6s-11.434667 25.6-25.6 25.6z"  /><path  d="M665.6 673.28c-6.485333 0-13.141333-2.56-18.090667-7.509333l-165.717333-165.717334c-16.554667 6.144-34.133333 9.216-51.712 9.216-81.92 0-148.48-66.56-148.48-148.48 0-24.234667 5.973333-48.128 17.237333-69.461333 3.754667-7.168 10.752-12.117333 18.773334-13.312 8.021333-1.194667 16.213333 1.536 21.845333 7.168l59.904 59.733333 15.018667-15.018666-59.904-59.733334c-5.802667-5.802667-8.362667-13.824-7.168-21.845333s6.144-15.018667 13.312-18.773333a148.974933 148.974933 0 0 1 69.461333-17.237334c81.92 0 148.48 66.56 148.48 148.48 0 17.749333-3.242667 35.328-9.386667 51.712l165.717334 165.717334a25.582933 25.582933 0 0 1 0 36.181333l-51.2 51.2c-4.949333 5.12-11.605333 7.68-18.090667 7.68zM487.594667 444.074667c6.656 0 13.141333 2.56 18.090666 7.509333L665.6 611.498667l15.018667-15.018667-159.914667-159.914667c-8.021333-8.021333-9.728-20.138667-4.608-30.037333 7.509333-14.165333 11.264-29.354667 11.264-45.397333 0-53.589333-43.690667-97.28-97.28-97.28-3.242667 0-6.314667 0.170667-9.386667 0.512l47.957334 47.957333a25.582933 25.582933 0 0 1 0 36.181333l-51.2 51.2c-10.069333 10.069333-26.282667 10.069333-36.181334 0l-47.957333-47.957333c-0.341333 3.072-0.512 6.314667-0.512 9.386667 0 53.589333 43.690667 97.28 97.28 97.28 16.042667 0 31.402667-3.754667 45.397333-11.264 3.925333-2.218667 8.021333-3.072 12.117334-3.072z"  /></svg>