<?xml version="1.0" standalone="no"?><!DOCTYPE svg PUBLIC "-//W3C//DTD SVG 1.1//EN" "http://www.w3.org/Graphics/SVG/1.1/DTD/svg11.dtd"><svg class="icon" width="64px" height="64.00px" viewBox="0 0 1024 1024" version="1.1" xmlns="http://www.w3.org/2000/svg"><path  d="M836.266667 989.866667H187.733333a94.037333 94.037333 0 0 1-93.866666-93.866667v-768C93.866667 76.288 136.021333 34.133333 187.733333 34.133333h648.533334c51.712 0 93.866667 42.154667 93.866666 93.866667v768c0 51.712-42.154667 93.866667-93.866666 93.866667zM187.733333 85.333333a42.666667 42.666667 0 0 0-42.666666 42.666667v768A42.666667 42.666667 0 0 0 187.733333 938.666667h648.533334a42.666667 42.666667 0 0 0 42.666666-42.666667v-768A42.666667 42.666667 0 0 0 836.266667 85.333333H187.733333z"  /><path  d="M705.877333 898.389333c-6.314667 0-12.8-2.389333-17.749333-7.168-10.24-9.728-10.581333-25.941333-0.682667-36.181333l64.853334-67.584-64.853334-67.584c-9.728-10.24-9.386667-26.453333 0.682667-36.181333a25.6 25.6 0 0 1 36.181333 0.682666l81.92 85.333334c9.557333 9.898667 9.557333 25.6 0 35.498666l-81.92 85.333334c-4.949333 5.12-11.776 7.850667-18.432 7.850666z"  /><path  d="M787.797333 813.056h-199.68c-14.165333 0-25.6-11.434667-25.6-25.6s11.434667-25.6 25.6-25.6h199.68c14.165333 0 25.6 11.434667 25.6 25.6s-11.434667 25.6-25.6 25.6z"  /><path  d="M757.248 445.610667H576.170667c-14.165333 0-25.6-11.434667-25.6-25.6V241.664c0-14.165333 11.434667-25.6 25.6-25.6h87.722666c6.144 0 12.117333 2.218667 16.725334 6.144l93.354666 80.554667c5.632 4.949333 8.874667 11.946667 8.874667 19.456v97.792c0 14.165333-11.434667 25.6-25.6 25.6z m-155.477333-51.2h129.877333v-60.416l-77.312-66.730667h-52.565333v127.146667z"  /><path  d="M576.170667 445.610667H266.752c-14.165333 0-25.6-11.434667-25.6-25.6V213.845333c0-33.792 29.696-61.269333 66.048-61.269333h228.352c36.352 0 66.048 27.477333 66.048 61.269333v206.165334c0.170667 14.165333-11.434667 25.6-25.429333 25.6z m-283.818667-51.2h258.218667V213.845333c0-4.778667-6.144-10.069333-14.848-10.069333H307.2c-8.704 0-14.848 5.290667-14.848 10.069333v180.565334z"  /><path  d="M757.248 562.005333h-84.138667c-14.165333 0-25.6-11.434667-25.6-25.6s11.434667-25.6 25.6-25.6h58.538667v-65.194666H292.352v65.194666h56.149333c14.165333 0 25.6 11.434667 25.6 25.6s-11.434667 25.6-25.6 25.6h-81.749333c-14.165333 0-25.6-11.434667-25.6-25.6v-116.394666c0-14.165333 11.434667-25.6 25.6-25.6h490.496c14.165333 0 25.6 11.434667 25.6 25.6v116.394666c0 14.165333-11.434667 25.6-25.6 25.6z"  /><path  d="M579.413333 562.005333H442.026667c-14.165333 0-25.6-11.434667-25.6-25.6s11.434667-25.6 25.6-25.6h137.557333c14.165333 0 25.6 11.434667 25.6 25.6s-11.605333 25.6-25.770667 25.6z"  /><path  d="M393.216 613.376a70.144 70.144 0 1 1 0-140.288 70.144 70.144 0 0 1 0 140.288z m0-89.088c-10.410667 0-18.944 8.533333-18.944 18.944s8.533333 18.944 18.944 18.944c10.410667 0 18.944-8.533333 18.944-18.944s-8.533333-18.944-18.944-18.944zM628.565333 613.376a70.144 70.144 0 1 1 0-140.288 70.144 70.144 0 0 1 0 140.288z m0-89.088c-10.410667 0-18.944 8.533333-18.944 18.944s8.533333 18.944 18.944 18.944c10.410667 0 18.944-8.533333 18.944-18.944s-8.533333-18.944-18.944-18.944zM482.986667 290.474667h-122.88c-14.165333 0-25.6-11.434667-25.6-25.6s11.434667-25.6 25.6-25.6h122.88c14.165333 0 25.6 11.434667 25.6 25.6s-11.605333 25.6-25.6 25.6zM482.986667 367.957333h-122.88c-14.165333 0-25.6-11.434667-25.6-25.6s11.434667-25.6 25.6-25.6h122.88c14.165333 0 25.6 11.434667 25.6 25.6s-11.605333 25.6-25.6 25.6z"  /></svg>