<?xml version="1.0" standalone="no"?><!DOCTYPE svg PUBLIC "-//W3C//DTD SVG 1.1//EN" "http://www.w3.org/Graphics/SVG/1.1/DTD/svg11.dtd"><svg class="icon" width="64px" height="64.00px" viewBox="0 0 1024 1024" version="1.1" xmlns="http://www.w3.org/2000/svg"><path  d="M896 989.866667h-768A94.037333 94.037333 0 0 1 34.133333 896V324.096c0-14.165333 11.434667-25.6 25.6-25.6h904.533334c14.165333 0 25.6 11.434667 25.6 25.6V896c0 51.712-42.154667 93.866667-93.866667 93.866667zM85.333333 349.696V896A42.666667 42.666667 0 0 0 128 938.666667h768a42.666667 42.666667 0 0 0 42.666667-42.666667V349.696H85.333333z"  /><path  d="M964.266667 349.696h-904.533334a25.668267 25.668267 0 0 1-21.845333-39.082667l142.165333-231.765333A94.702933 94.702933 0 0 1 260.096 34.133333h503.808c32.426667 0 63.146667 17.237333 80.042667 44.885334l142.165333 231.765333c4.778667 7.850667 5.12 17.749333 0.512 25.941333-4.608 8.021333-13.141333 12.970667-22.357333 12.970667z m-858.794667-51.2h813.056l-118.272-192.853333A42.530133 42.530133 0 0 0 763.904 85.333333H260.096c-14.677333 0-28.672 7.850667-36.352 20.309334l-118.272 192.853333zM464.725333 521.557333H221.866667c-14.165333 0-25.6-11.434667-25.6-25.6s11.434667-25.6 25.6-25.6h242.858666c14.165333 0 25.6 11.434667 25.6 25.6s-11.434667 25.6-25.6 25.6zM364.714667 686.592H221.866667c-14.165333 0-25.6-11.434667-25.6-25.6s11.434667-25.6 25.6-25.6h142.848c14.165333 0 25.6 11.434667 25.6 25.6s-11.434667 25.6-25.6 25.6z"  /><path  d="M512 349.696c-14.165333 0-25.6-11.434667-25.6-25.6V59.733333c0-14.165333 11.434667-25.6 25.6-25.6s25.6 11.434667 25.6 25.6v264.362667c0 14.165333-11.434667 25.6-25.6 25.6z"  /><path  d="M713.386667 876.032c-6.314667 0-12.8-2.389333-17.749334-7.168-10.24-9.728-10.581333-25.941333-0.682666-36.181333l97.621333-101.717334-97.621333-101.717333c-9.728-10.24-9.386667-26.453333 0.682666-36.181333a25.6 25.6 0 0 1 36.181334 0.682666l114.688 119.466667c9.557333 9.898667 9.557333 25.6 0 35.498667l-114.688 119.466666c-4.949333 5.290667-11.605333 7.850667-18.432 7.850667z"  /><path  d="M828.245333 756.736H548.693333c-14.165333 0-25.6-11.434667-25.6-25.6s11.434667-25.6 25.6-25.6h279.552c14.165333 0 25.6 11.434667 25.6 25.6s-11.605333 25.6-25.6 25.6z"  /></svg>