<?xml version="1.0" standalone="no"?><!DOCTYPE svg PUBLIC "-//W3C//DTD SVG 1.1//EN" "http://www.w3.org/Graphics/SVG/1.1/DTD/svg11.dtd"><svg class="icon" width="64px" height="64.00px" viewBox="0 0 1024 1024" version="1.1" xmlns="http://www.w3.org/2000/svg"><path  d="M59.733333 981.333333c-13.653333 0-25.6-11.946667-25.6-25.6V692.906667c0-13.653333 11.946667-25.6 25.6-25.6s25.6 11.946667 25.6 25.6V955.733333c0 13.653333-11.946667 25.6-25.6 25.6zM361.813333 981.333333c-13.653333 0-25.6-11.946667-25.6-25.6V447.146667c0-13.653333 11.946667-25.6 25.6-25.6s25.6 11.946667 25.6 25.6V955.733333c0 13.653333-11.946667 25.6-25.6 25.6zM662.186667 981.333333c-13.653333 0-25.6-11.946667-25.6-25.6V291.84c0-13.653333 11.946667-25.6 25.6-25.6s25.6 11.946667 25.6 25.6V955.733333c0 13.653333-10.24 25.6-25.6 25.6zM964.266667 981.333333c-13.653333 0-25.6-11.946667-25.6-25.6V68.266667c0-13.653333 11.946667-25.6 25.6-25.6S989.866667 54.613333 989.866667 68.266667v887.466666c0 13.653333-11.946667 25.6-25.6 25.6z"  /></svg>