<?xml version="1.0" standalone="no"?><!DOCTYPE svg PUBLIC "-//W3C//DTD SVG 1.1//EN" "http://www.w3.org/Graphics/SVG/1.1/DTD/svg11.dtd"><svg class="icon" width="64px" height="64.00px" viewBox="0 0 1024 1024" version="1.1" xmlns="http://www.w3.org/2000/svg"><path  d="M624.64 866.986667H399.36c-13.653333 0-25.6-11.946667-25.6-25.6V640c0-13.653333 11.946667-25.6 25.6-25.6h225.28c13.653333 0 25.6 11.946667 25.6 25.6v201.386667c0 13.653333-11.946667 25.6-25.6 25.6z m-199.68-51.2h174.08V665.6H424.96v150.186667z"  /><path  d="M894.293333 665.6H129.706667c-39.253333 0-69.973333-32.426667-69.973334-69.973333V145.066667c0-39.253333 32.426667-69.973333 69.973334-69.973334h762.88c39.253333 0 69.973333 32.426667 69.973333 69.973334v448.853333c1.706667 39.253333-30.72 71.68-68.266667 71.68zM129.706667 126.293333c-10.24 0-18.773333 8.533333-18.773334 18.773334v448.853333c0 11.946667 8.533333 20.48 18.773334 20.48h762.88c10.24 0 18.773333-8.533333 18.773333-18.773333V145.066667c0-10.24-8.533333-18.773333-18.773333-18.773334H129.706667z"  /><path  d="M556.373333 552.96h-90.453333c-13.653333 0-25.6-11.946667-25.6-25.6s11.946667-25.6 25.6-25.6h90.453333c13.653333 0 25.6 11.946667 25.6 25.6s-10.24 25.6-25.6 25.6zM737.28 866.986667H286.72c-13.653333 0-25.6-11.946667-25.6-25.6s11.946667-25.6 25.6-25.6h448.853333c13.653333 0 25.6 11.946667 25.6 25.6s-10.24 25.6-23.893333 25.6z"  /></svg>