<?xml version="1.0" standalone="no"?><!DOCTYPE svg PUBLIC "-//W3C//DTD SVG 1.1//EN" "http://www.w3.org/Graphics/SVG/1.1/DTD/svg11.dtd"><svg class="icon" width="64px" height="64.00px" viewBox="0 0 1024 1024" version="1.1" xmlns="http://www.w3.org/2000/svg"><path  d="M783.36 933.546667c-6.826667 0-13.653333-1.706667-18.773333-6.826667l-59.733334-59.733333h-187.733333c-42.666667 0-76.8-34.133333-76.8-76.8v-129.706667c0-13.653333 11.946667-25.6 25.6-25.6h290.133333V477.866667c0-13.653333 11.946667-25.6 25.6-25.6h129.706667c42.666667 0 76.8 34.133333 76.8 76.8v259.413333c0 42.666667-34.133333 76.8-76.8 76.8h-51.2L802.133333 925.013333c-5.12 5.12-11.946667 8.533333-18.773333 8.533334z m-290.133333-249.173334v104.106667c0 13.653333 11.946667 25.6 25.6 25.6H716.8c6.826667 0 13.653333 3.413333 18.773333 6.826667L785.066667 870.4l49.493333-49.493333c5.12-5.12 11.946667-6.826667 18.773333-6.826667h61.44c13.653333 0 25.6-11.946667 25.6-25.6V529.066667c0-13.653333-11.946667-25.6-25.6-25.6h-104.106666v155.306666c0 13.653333-11.946667 25.6-25.6 25.6H493.226667z"  /><path  d="M262.826667 774.826667c-6.826667 0-13.653333-3.413333-18.773334-6.826667l-83.626666-83.626667h-51.2c-42.666667 0-76.8-34.133333-76.8-76.8V167.253333c0-42.666667 34.133333-76.8 76.8-76.8h621.226666c42.666667 0 76.8 34.133333 76.8 76.8v491.52c0 13.653333-11.946667 25.6-25.6 25.6H363.52L281.6 768c-5.12 5.12-11.946667 6.826667-18.773333 6.826667zM110.933333 141.653333C97.28 141.653333 85.333333 153.6 85.333333 167.253333v440.32c0 13.653333 11.946667 25.6 25.6 25.6h61.44c6.826667 0 13.653333 3.413333 18.773334 6.826667l71.68 71.68 71.68-71.68c5.12-5.12 11.946667-6.826667 18.773333-6.826667h404.48V167.253333c0-13.653333-11.946667-25.6-25.6-25.6H110.933333z"  /><path  d="M421.546667 413.013333h-22.186667c-13.653333 0-25.6-11.946667-25.6-25.6s11.946667-25.6 25.6-25.6h22.186667c13.653333 0 25.6 11.946667 25.6 25.6s-11.946667 25.6-25.6 25.6zM580.266667 413.013333h-22.186667c-13.653333 0-25.6-11.946667-25.6-25.6s11.946667-25.6 25.6-25.6H580.266667c13.653333 0 25.6 11.946667 25.6 25.6s-11.946667 25.6-25.6 25.6zM262.826667 413.013333h-22.186667c-13.653333 0-25.6-11.946667-25.6-25.6s11.946667-25.6 25.6-25.6h22.186667c13.653333 0 25.6 11.946667 25.6 25.6s-10.24 25.6-25.6 25.6z"  /></svg>