<?xml version="1.0" standalone="no"?><!DOCTYPE svg PUBLIC "-//W3C//DTD SVG 1.1//EN" "http://www.w3.org/Graphics/SVG/1.1/DTD/svg11.dtd"><svg class="icon" width="64px" height="64.00px" viewBox="0 0 1024 1024" version="1.1" xmlns="http://www.w3.org/2000/svg"><path  d="M512 771.413333c-6.826667 0-11.946667-1.706667-17.066667-6.826666l-148.48-143.36c-10.24-10.24-10.24-25.6 0-35.84 10.24-10.24 25.6-10.24 35.84 0l131.413334 126.293333 131.413333-126.293333c10.24-10.24 25.6-10.24 35.84 0 10.24 10.24 10.24 25.6 0 35.84L529.066667 764.586667c-5.12 5.12-10.24 6.826667-17.066667 6.826666zM512 989.866667c-6.826667 0-11.946667-1.706667-17.066667-6.826667l-148.48-143.36c-10.24-10.24-10.24-25.6 0-35.84 10.24-10.24 25.6-10.24 35.84 0l131.413334 126.293333 131.413333-126.293333c10.24-10.24 25.6-10.24 35.84 0 10.24 10.24 10.24 25.6 0 35.84L529.066667 983.04c-5.12 5.12-10.24 6.826667-17.066667 6.826667z"  /><path  d="M817.493333 822.613333c-6.826667 0-13.653333-1.706667-18.773333-6.826666-10.24-10.24-10.24-25.6 0-35.84 76.8-76.8 119.466667-179.2 119.466667-286.72C918.186667 267.946667 735.573333 85.333333 512 85.333333S105.813333 267.946667 105.813333 491.52c0 105.813333 39.253333 204.8 112.64 279.893333 10.24 10.24 10.24 25.6 0 35.84-10.24 10.24-25.6 10.24-35.84 0-81.92-85.333333-126.293333-197.973333-126.293333-315.733333C54.613333 238.933333 259.413333 34.133333 512 34.133333c252.586667 0 457.386667 204.8 457.386667 457.386667 0 122.88-47.786667 237.226667-133.12 322.56-6.826667 5.12-11.946667 8.533333-18.773334 8.533333z"  /></svg>