<?xml version="1.0" standalone="no"?><!DOCTYPE svg PUBLIC "-//W3C//DTD SVG 1.1//EN" "http://www.w3.org/Graphics/SVG/1.1/DTD/svg11.dtd"><svg class="icon" width="64px" height="64.00px" viewBox="0 0 1024 1024" version="1.1" xmlns="http://www.w3.org/2000/svg"><path  d="M875.52 989.866667H148.48c-13.653333 0-25.6-11.946667-25.6-25.6V732.16c0-134.826667 109.226667-245.76 245.76-245.76h288.426667c134.826667 0 245.76 109.226667 245.76 245.76v232.106667c-1.706667 13.653333-13.653333 25.6-27.306667 25.6z m-701.44-51.2h675.84V732.16c0-107.52-87.04-194.56-194.56-194.56H366.933333c-107.52 0-194.56 87.04-194.56 194.56V938.666667z"  /><path  d="M581.973333 846.506667h-139.946666c-11.946667 0-23.893333-8.533333-25.6-20.48l-54.613334-307.2c-1.706667-6.826667 0-15.36 5.12-20.48 5.12-5.12 11.946667-8.533333 18.773334-8.533334h247.466666c6.826667 0 15.36 3.413333 18.773334 8.533334 5.12 5.12 6.826667 13.653333 5.12 20.48l-54.613334 307.2c1.706667 11.946667-8.533333 20.48-20.48 20.48z m-117.76-51.2h97.28l44.373334-256h-187.733334l46.08 256z"  /><path  d="M512 846.506667c-13.653333 0-25.6-11.946667-25.6-25.6V640c0-13.653333 11.946667-25.6 25.6-25.6s25.6 11.946667 25.6 25.6v180.906667c0 13.653333-11.946667 25.6-25.6 25.6zM512 445.44c-112.64 0-206.506667-92.16-206.506667-206.506667S399.36 34.133333 512 34.133333s206.506667 92.16 206.506667 206.506667-93.866667 204.8-206.506667 204.8zM512 85.333333c-85.333333 0-155.306667 69.973333-155.306667 155.306667s69.973333 155.306667 155.306667 155.306667 155.306667-69.973333 155.306667-155.306667S597.333333 85.333333 512 85.333333z"  /></svg>