<?xml version="1.0" standalone="no"?><!DOCTYPE svg PUBLIC "-//W3C//DTD SVG 1.1//EN" "http://www.w3.org/Graphics/SVG/1.1/DTD/svg11.dtd"><svg class="icon" width="64px" height="64.00px" viewBox="0 0 1024 1024" version="1.1" xmlns="http://www.w3.org/2000/svg"><path  d="M442.026667 472.746667H162.133333c-69.973333 0-128-58.026667-128-128V64.853333c0-13.653333 11.946667-25.6 25.6-25.6h279.893334c69.973333 0 128 58.026667 128 128v279.893334c0 13.653333-11.946667 25.6-25.6 25.6zM85.333333 90.453333v254.293334c0 42.666667 34.133333 76.8 76.8 76.8h254.293334V167.253333c0-42.666667-34.133333-76.8-76.8-76.8H85.333333zM861.866667 472.746667H581.973333c-13.653333 0-25.6-11.946667-25.6-25.6V167.253333c0-69.973333 58.026667-128 128-128h279.893334c13.653333 0 25.6 11.946667 25.6 25.6v279.893334c0 69.973333-58.026667 128-128 128z m-254.293334-51.2h254.293334c42.666667 0 76.8-34.133333 76.8-76.8V90.453333H684.373333c-42.666667 0-76.8 34.133333-76.8 76.8v254.293334z"  /><path  d="M964.266667 984.746667H684.373333c-69.973333 0-128-58.026667-128-128V576.853333c0-13.653333 11.946667-25.6 25.6-25.6h279.893334c69.973333 0 128 58.026667 128 128v279.893334c0 13.653333-11.946667 25.6-25.6 25.6zM607.573333 602.453333v254.293334c0 42.666667 34.133333 76.8 76.8 76.8H938.666667V679.253333c0-42.666667-34.133333-76.8-76.8-76.8H607.573333zM339.626667 984.746667H59.733333c-13.653333 0-25.6-11.946667-25.6-25.6V679.253333c0-69.973333 58.026667-128 128-128h279.893334c13.653333 0 25.6 11.946667 25.6 25.6v279.893334c0 69.973333-58.026667 128-128 128zM85.333333 933.546667h254.293334c42.666667 0 76.8-34.133333 76.8-76.8V602.453333H162.133333c-42.666667 0-76.8 34.133333-76.8 76.8v254.293334z"  /></svg>