<?xml version="1.0" standalone="no"?><!DOCTYPE svg PUBLIC "-//W3C//DTD SVG 1.1//EN" "http://www.w3.org/Graphics/SVG/1.1/DTD/svg11.dtd"><svg class="icon" width="64px" height="64.00px" viewBox="0 0 1024 1024" version="1.1" xmlns="http://www.w3.org/2000/svg"><path  d="M489.813333 943.786667c-6.826667 0-13.653333-1.706667-18.773333-6.826667l-102.4-102.4H119.466667c-51.2 0-93.866667-42.666667-93.866667-93.866667V218.453333c0-51.2 42.666667-93.866667 93.866667-93.866666h590.506666c13.653333 0 25.6 11.946667 25.6 25.6s-11.946667 25.6-25.6 25.6H119.466667c-23.893333 0-42.666667 18.773333-42.666667 42.666666v522.24c0 23.893333 18.773333 42.666667 42.666667 42.666667h261.12c6.826667 0 13.653333 3.413333 18.773333 6.826667l92.16 92.16 92.16-92.16c5.12-5.12 11.946667-6.826667 18.773333-6.826667h261.12c23.893333 0 42.666667-18.773333 42.666667-42.666667V368.64c0-13.653333 11.946667-25.6 25.6-25.6s25.6 11.946667 25.6 25.6v370.346667c0 51.2-42.666667 93.866667-93.866667 93.866666H610.986667l-102.4 102.4c-5.12 5.12-11.946667 8.533333-18.773334 8.533334z"  /><path  d="M512 482.986667h-44.373333c-13.653333 0-25.6-11.946667-25.6-25.6s11.946667-25.6 25.6-25.6H512c13.653333 0 25.6 11.946667 25.6 25.6s-11.946667 25.6-25.6 25.6zM732.16 482.986667h-44.373333c-13.653333 0-25.6-11.946667-25.6-25.6s11.946667-25.6 25.6-25.6h44.373333c13.653333 0 25.6 11.946667 25.6 25.6s-11.946667 25.6-25.6 25.6zM291.84 482.986667h-44.373333c-13.653333 0-25.6-11.946667-25.6-25.6s11.946667-25.6 25.6-25.6h44.373333c13.653333 0 25.6 11.946667 25.6 25.6s-10.24 25.6-25.6 25.6z"  /><path  d="M906.24 172.373333m-66.56 0a66.56 66.56 0 1 0 133.12 0 66.56 66.56 0 1 0-133.12 0Z"  /></svg>