<?xml version="1.0" standalone="no"?><!DOCTYPE svg PUBLIC "-//W3C//DTD SVG 1.1//EN" "http://www.w3.org/Graphics/SVG/1.1/DTD/svg11.dtd"><svg class="icon" width="64px" height="64.00px" viewBox="0 0 1024 1024" version="1.1" xmlns="http://www.w3.org/2000/svg"><path  d="M529.066667 525.653333c-136.533333 0-249.173333-110.933333-249.173334-249.173333S392.533333 27.306667 529.066667 27.306667s249.173333 110.933333 249.173333 249.173333S667.306667 525.653333 529.066667 525.653333z m0-447.146666c-109.226667 0-197.973333 88.746667-197.973334 197.973333S419.84 474.453333 529.066667 474.453333s197.973333-88.746667 197.973333-197.973333S638.293333 78.506667 529.066667 78.506667z"  /><path  d="M600.746667 996.693333H59.733333c-13.653333 0-25.6-11.946667-25.6-25.6 0-273.066667 221.866667-494.933333 494.933334-494.933333 13.653333 0 25.6 11.946667 25.6 25.6s-11.946667 25.6-25.6 25.6c-237.226667 0-430.08 186.026667-443.733334 418.133333h515.413334c13.653333 0 25.6 11.946667 25.6 25.6s-11.946667 25.6-25.6 25.6z"  /><path  d="M964.266667 996.693333H728.746667c-13.653333 0-25.6-11.946667-25.6-25.6V587.093333c0-6.826667 1.706667-13.653333 6.826666-17.066666l117.76-122.88c5.12-5.12 11.946667-8.533333 18.773334-8.533334 6.826667 0 13.653333 3.413333 18.773333 8.533334l119.466667 122.88c5.12 5.12 6.826667 11.946667 6.826666 17.066666v384c-1.706667 13.653333-13.653333 25.6-27.306666 25.6z m-209.92-51.2H938.666667V597.333333l-93.866667-95.573333-90.453333 95.573333v348.16z"  /><path  d="M849.92 663.893333m-49.493333 0a49.493333 49.493333 0 1 0 98.986666 0 49.493333 49.493333 0 1 0-98.986666 0Z"  /></svg>