<?xml version="1.0" standalone="no"?><!DOCTYPE svg PUBLIC "-//W3C//DTD SVG 1.1//EN" "http://www.w3.org/Graphics/SVG/1.1/DTD/svg11.dtd"><svg class="icon" width="64px" height="64.00px" viewBox="0 0 1024 1024" version="1.1" xmlns="http://www.w3.org/2000/svg"><path  d="M512 479.573333c-122.88 0-221.866667-98.986667-221.866667-221.866666S389.12 34.133333 512 34.133333s221.866667 98.986667 221.866667 221.866667-98.986667 223.573333-221.866667 223.573333zM512 85.333333c-93.866667 0-170.666667 76.8-170.666667 170.666667s76.8 170.666667 170.666667 170.666667 170.666667-76.8 170.666667-170.666667S605.866667 85.333333 512 85.333333zM947.2 989.866667h-870.4c-13.653333 0-25.6-11.946667-25.6-25.6 0-254.293333 206.506667-460.8 460.8-460.8s460.8 206.506667 460.8 460.8c0 13.653333-11.946667 25.6-25.6 25.6zM104.106667 938.666667H921.6c-13.653333-213.333333-192.853333-384-409.6-384S116.053333 725.333333 104.106667 938.666667z"  /><path  d="M512 896c-10.24 0-20.48-6.826667-23.893333-17.066667l-73.386667-197.973333c-3.413333-6.826667-1.706667-15.36 1.706667-22.186667l73.386666-128c5.12-8.533333 13.653333-13.653333 22.186667-13.653333s17.066667 5.12 22.186667 13.653333l73.386666 128c3.413333 6.826667 5.12 13.653333 1.706667 22.186667l-73.386667 197.973333c-3.413333 10.24-13.653333 17.066667-23.893333 17.066667z m-44.373333-221.866667l46.08 122.88 44.373333-122.88-46.08-78.506666-44.373333 78.506666z"  /></svg>