<?xml version="1.0" standalone="no"?><!DOCTYPE svg PUBLIC "-//W3C//DTD SVG 1.1//EN" "http://www.w3.org/Graphics/SVG/1.1/DTD/svg11.dtd"><svg class="icon" width="64px" height="64.00px" viewBox="0 0 1024 1024" version="1.1" xmlns="http://www.w3.org/2000/svg"><path  d="M781.653333 989.866667H210.602667c-50.688 0-91.989333-41.301333-91.989334-91.989334V151.04c0-50.688 41.301333-91.989333 91.989334-91.989333H655.36c14.165333 0 25.6 11.434667 25.6 25.6s-11.434667 25.6-25.6 25.6H210.602667a40.789333 40.789333 0 0 0-40.789334 40.789333v746.837333A40.789333 40.789333 0 0 0 210.602667 938.666667H781.653333a40.789333 40.789333 0 0 0 40.789334-40.789334V300.373333c0-14.165333 11.434667-25.6 25.6-25.6s25.6 11.434667 25.6 25.6v597.504c0 50.688-41.301333 91.989333-91.989334 91.989334z"  /><path  d="M543.914667 421.205333a25.531733 25.531733 0 0 1-25.088-30.549333l21.333333-108.032c1.024-4.949333 3.413333-9.557333 6.997333-13.141333L774.997333 41.642667a25.429333 25.429333 0 0 1 36.181334 0l86.698666 86.698666c10.069333 10.069333 10.069333 26.282667 0 36.181334L670.037333 392.362667c-3.584 3.584-8.192 5.973333-13.141333 6.997333l-108.032 21.333333c-1.706667 0.341333-3.413333 0.512-4.949333 0.512z m108.032-46.933333z m-63.146667-74.069333l-12.458667 62.976 62.976-12.458667L843.605333 146.432l-50.517333-50.517333L588.8 300.202667zM626.688 550.058667H280.405333c-14.165333 0-25.6-11.434667-25.6-25.6s11.434667-25.6 25.6-25.6h346.112c14.165333 0 25.6 11.434667 25.6 25.6s-11.434667 25.6-25.429333 25.6zM711.850667 710.144H280.405333c-14.165333 0-25.6-11.434667-25.6-25.6s11.434667-25.6 25.6-25.6h431.445334c14.165333 0 25.6 11.434667 25.6 25.6s-11.434667 25.6-25.6 25.6z"  /></svg>