<?xml version="1.0" standalone="no"?><!DOCTYPE svg PUBLIC "-//W3C//DTD SVG 1.1//EN" "http://www.w3.org/Graphics/SVG/1.1/DTD/svg11.dtd"><svg class="icon" width="64px" height="64.00px" viewBox="0 0 1024 1024" version="1.1" xmlns="http://www.w3.org/2000/svg"><path  d="M964.266667 853.333333h-904.533334c-13.653333 0-25.6-10.24-25.6-25.6S46.08 802.133333 59.733333 802.133333H170.666667V375.466667c0-189.44 153.6-341.333333 341.333333-341.333334 85.333333 0 165.546667 30.72 228.693333 87.04 10.24 10.24 11.946667 25.6 1.706667 35.84-8.533333 11.946667-25.6 11.946667-35.84 3.413334C653.653333 110.933333 583.68 85.333333 512 85.333333c-160.426667 0-290.133333 129.706667-290.133333 290.133334v426.666666h580.266666V397.653333c0-13.653333 11.946667-25.6 25.6-25.6s25.6 11.946667 25.6 25.6V802.133333h110.933334c13.653333 0 25.6 11.946667 25.6 25.6s-11.946667 25.6-25.6 25.6z"  /><path  d="M512 989.866667c-76.8 0-138.24-61.44-138.24-138.24v-22.186667c0-13.653333 11.946667-25.6 25.6-25.6h226.986667c13.653333 0 25.6 11.946667 25.6 25.6v22.186667c-1.706667 76.8-63.146667 138.24-139.946667 138.24z m-87.04-136.533334c1.706667 46.08 40.96 85.333333 87.04 85.333334s85.333333-37.546667 87.04-85.333334H424.96z"  /><path  d="M843.093333 247.466667m-76.8 0a76.8 76.8 0 1 0 153.6 0 76.8 76.8 0 1 0-153.6 0Z"  /></svg>