<?xml version="1.0" standalone="no"?><!DOCTYPE svg PUBLIC "-//W3C//DTD SVG 1.1//EN" "http://www.w3.org/Graphics/SVG/1.1/DTD/svg11.dtd"><svg class="icon" width="64px" height="64.00px" viewBox="0 0 1024 1024" version="1.1" xmlns="http://www.w3.org/2000/svg"><path  d="M512 989.866667C249.173333 989.866667 34.133333 774.826667 34.133333 512S249.173333 34.133333 512 34.133333s477.866667 215.04 477.866667 477.866667-215.04 477.866667-477.866667 477.866667z m0-904.533334C276.48 85.333333 85.333333 276.48 85.333333 512s191.146667 426.666667 426.666667 426.666667 426.666667-191.146667 426.666667-426.666667S747.52 85.333333 512 85.333333z"  /><path  d="M728.746667 728.746667H295.253333c-35.84 0-64.853333-29.013333-64.853333-64.853334V358.4c0-35.84 29.013333-64.853333 64.853333-64.853333h435.2c35.84 0 64.853333 29.013333 64.853334 64.853333v307.2c-1.706667 35.84-30.72 63.146667-66.56 63.146667zM295.253333 344.746667c-6.826667 0-13.653333 5.12-13.653333 13.653333v307.2c0 6.826667 5.12 13.653333 13.653333 13.653333h435.2c6.826667 0 13.653333-5.12 13.653334-13.653333V358.4c0-6.826667-5.12-13.653333-13.653334-13.653333H295.253333z"  /><path  d="M512 537.6c-5.12 0-10.24-1.706667-15.36-5.12L254.293333 351.573333c-11.946667-8.533333-13.653333-23.893333-5.12-35.84 8.533333-11.946667 23.893333-13.653333 35.84-5.12l226.986667 170.666667 226.986667-168.96c11.946667-8.533333 27.306667-6.826667 35.84 5.12s6.826667 27.306667-5.12 35.84L527.36 532.48c-5.12 3.413333-10.24 5.12-15.36 5.12z"  /></svg>