<?xml version="1.0" standalone="no"?><!DOCTYPE svg PUBLIC "-//W3C//DTD SVG 1.1//EN" "http://www.w3.org/Graphics/SVG/1.1/DTD/svg11.dtd"><svg class="icon" width="64px" height="64.00px" viewBox="0 0 1024 1024" version="1.1" xmlns="http://www.w3.org/2000/svg"><path  d="M512 989.866667c-6.826667 0-13.653333-1.706667-18.773333-6.826667L382.293333 870.4H179.2c-13.653333 0-25.6-11.946667-25.6-25.6V641.706667L42.666667 529.066667c-10.24-10.24-10.24-25.6 0-35.84L153.6 382.293333V179.2c0-13.653333 11.946667-25.6 25.6-25.6h203.093333L494.933333 42.666667c10.24-10.24 25.6-10.24 35.84 0L641.706667 153.6h203.093333c13.653333 0 25.6 11.946667 25.6 25.6v203.093333l110.933333 110.933334c10.24 10.24 10.24 25.6 0 35.84L870.4 641.706667v203.093333c0 13.653333-11.946667 25.6-25.6 25.6H641.706667l-110.933334 110.933333c-5.12 6.826667-11.946667 8.533333-18.773333 8.533334zM204.8 819.2h187.733333c6.826667 0 13.653333 3.413333 18.773334 6.826667l100.693333 100.693333 100.693333-100.693333c5.12-5.12 11.946667-6.826667 18.773334-6.826667h187.733333V631.466667c0-6.826667 3.413333-13.653333 6.826667-18.773334l100.693333-100.693333-100.693333-100.693333c-3.413333-5.12-6.826667-11.946667-6.826667-18.773334V204.8H631.466667c-6.826667 0-13.653333-3.413333-18.773334-6.826667l-100.693333-102.4-100.693333 100.693334c-5.12 5.12-11.946667 8.533333-18.773334 8.533333H204.8v187.733333c0 6.826667-3.413333 13.653333-6.826667 18.773334l-102.4 100.693333 100.693334 100.693333c5.12 5.12 6.826667 11.946667 6.826666 18.773334v187.733333z"  /><path  d="M648.533333 732.16H375.466667c-13.653333 0-25.6-11.946667-25.6-25.6s11.946667-25.6 25.6-25.6h273.066666c13.653333 0 25.6 11.946667 25.6 25.6s-11.946667 25.6-25.6 25.6zM648.533333 464.213333H375.466667c-13.653333 0-25.6-11.946667-25.6-25.6s11.946667-25.6 25.6-25.6h273.066666c13.653333 0 25.6 11.946667 25.6 25.6s-11.946667 25.6-25.6 25.6z"  /><path  d="M512 600.746667c-13.653333 0-25.6-11.946667-25.6-25.6v-273.066667c0-13.653333 11.946667-25.6 25.6-25.6s25.6 11.946667 25.6 25.6v273.066667c0 15.36-11.946667 25.6-25.6 25.6z"  /></svg>