<?xml version="1.0" standalone="no"?><!DOCTYPE svg PUBLIC "-//W3C//DTD SVG 1.1//EN" "http://www.w3.org/Graphics/SVG/1.1/DTD/svg11.dtd"><svg class="icon" width="64px" height="64.00px" viewBox="0 0 1024 1024" version="1.1" xmlns="http://www.w3.org/2000/svg"><path  d="M831.146667 856.746667c-6.826667 0-13.653333-1.706667-18.773334-6.826667-10.24-10.24-10.24-25.6 0-35.84C894.293333 733.866667 938.666667 626.346667 938.666667 512c0-114.346667-44.373333-221.866667-124.586667-302.08-10.24-10.24-10.24-25.6 0-35.84s25.6-10.24 35.84 0C940.373333 264.533333 989.866667 384 989.866667 512s-49.493333 247.466667-139.946667 337.92c-5.12 5.12-11.946667 6.826667-18.773333 6.826667zM192.853333 856.746667c-6.826667 0-13.653333-1.706667-18.773333-6.826667C83.626667 759.466667 34.133333 640 34.133333 512s49.493333-247.466667 139.946667-337.92c10.24-10.24 25.6-10.24 35.84 0s10.24 25.6 0 35.84C129.706667 290.133333 85.333333 397.653333 85.333333 512c0 114.346667 44.373333 221.866667 124.586667 302.08 10.24 10.24 10.24 25.6 0 35.84-5.12 5.12-11.946667 6.826667-17.066667 6.826667z"  /><path  d="M310.613333 761.173333c-6.826667 0-13.653333-1.706667-18.773333-6.826666-64.853333-64.853333-100.693333-150.186667-100.693333-242.346667 0-92.16 35.84-177.493333 100.693333-242.346667 10.24-10.24 25.6-10.24 35.84 0 10.24 10.24 10.24 25.6 0 35.84-54.613333 54.613333-85.333333 128-85.333333 206.506667s30.72 150.186667 85.333333 206.506667c10.24 10.24 10.24 25.6 0 35.84-3.413333 5.12-10.24 6.826667-17.066667 6.826666zM713.386667 761.173333c-6.826667 0-13.653333-1.706667-18.773334-6.826666-10.24-10.24-10.24-25.6 0-35.84 54.613333-54.613333 85.333333-128 85.333334-206.506667s-30.72-150.186667-85.333334-206.506667c-10.24-10.24-10.24-25.6 0-35.84 10.24-10.24 25.6-10.24 35.84 0 64.853333 64.853333 100.693333 150.186667 100.693334 242.346667 0 92.16-35.84 177.493333-100.693334 242.346667-3.413333 5.12-10.24 6.826667-17.066666 6.826666zM512 989.866667c-13.653333 0-25.6-11.946667-25.6-25.6V737.28c0-13.653333 11.946667-25.6 25.6-25.6s25.6 11.946667 25.6 25.6v226.986667c0 13.653333-11.946667 25.6-25.6 25.6zM512 310.613333c-13.653333 0-25.6-11.946667-25.6-25.6V59.733333c0-13.653333 11.946667-25.6 25.6-25.6s25.6 11.946667 25.6 25.6v226.986667c0 13.653333-11.946667 23.893333-25.6 23.893333z"  /><path  d="M512 512m-68.266667 0a68.266667 68.266667 0 1 0 136.533334 0 68.266667 68.266667 0 1 0-136.533334 0Z"  /></svg>