<?xml version="1.0" standalone="no"?><!DOCTYPE svg PUBLIC "-//W3C//DTD SVG 1.1//EN" "http://www.w3.org/Graphics/SVG/1.1/DTD/svg11.dtd"><svg class="icon" width="64px" height="64.00px" viewBox="0 0 1024 1024" version="1.1" xmlns="http://www.w3.org/2000/svg"><path  d="M805.546667 989.866667H218.453333a94.037333 94.037333 0 0 1-93.866666-93.866667v-768C124.586667 76.288 166.741333 34.133333 218.453333 34.133333h587.093334c51.712 0 93.866667 42.154667 93.866666 93.866667v768c0 51.712-42.154667 93.866667-93.866666 93.866667zM218.453333 85.333333a42.666667 42.666667 0 0 0-42.666666 42.666667v768a42.666667 42.666667 0 0 0 42.666666 42.666667h587.093334a42.666667 42.666667 0 0 0 42.666666-42.666667v-768A42.666667 42.666667 0 0 0 805.546667 85.333333H218.453333z"  /><path  d="M283.306667 368.810667c-5.632 0-11.264-1.365333-16.384-3.925334-10.922667-5.632-17.749333-16.554667-17.749334-28.501333V34.133333h254.634667v302.08c0 11.946667-6.826667 22.869333-17.749333 28.501334-11.776 6.144-26.282667 4.949333-36.864-2.56l-72.704-52.053334-72.704 52.053334c-5.802667 4.437333-13.141333 6.656-20.48 6.656zM300.373333 85.333333v216.405334l76.117334-54.613334 76.117333 54.613334V85.333333H300.373333zM364.544 766.976a25.531733 25.531733 0 0 1-25.088-30.549333l22.016-111.104c1.024-4.949333 3.413333-9.557333 6.997333-13.141334l234.154667-234.154666a25.429333 25.429333 0 0 1 36.181333 0l89.088 89.088c10.069333 10.069333 10.069333 26.282667 0 36.181333L493.909333 737.450667c-3.584 3.584-8.192 5.973333-13.141333 6.997333l-111.104 22.016c-1.706667 0.341333-3.413333 0.512-5.12 0.512z m111.274667-47.616z m-65.536-76.458667l-13.141334 66.048 66.048-13.141333 210.602667-210.602667-52.906667-52.906666-210.602666 210.602666zM670.037333 831.317333H314.026667c-14.165333 0-25.6-11.434667-25.6-25.6s11.434667-25.6 25.6-25.6h356.010666c14.165333 0 25.6 11.434667 25.6 25.6s-11.605333 25.6-25.6 25.6z"  /></svg>