<?xml version="1.0" standalone="no"?><!DOCTYPE svg PUBLIC "-//W3C//DTD SVG 1.1//EN" "http://www.w3.org/Graphics/SVG/1.1/DTD/svg11.dtd"><svg class="icon" width="64px" height="64.00px" viewBox="0 0 1024 1024" version="1.1" xmlns="http://www.w3.org/2000/svg"><path  d="M897.706667 761.173333H134.826667c-39.253333 0-69.973333-32.426667-69.973334-69.973333V151.893333c0-39.253333 32.426667-69.973333 69.973334-69.973333h762.88c39.253333 0 69.973333 32.426667 69.973333 69.973333v539.306667c0 39.253333-30.72 69.973333-69.973333 69.973333zM134.826667 133.12c-10.24 0-18.773333 8.533333-18.773334 18.773333v539.306667c0 10.24 8.533333 18.773333 18.773334 18.773333h762.88c10.24 0 18.773333-8.533333 18.773333-18.773333V151.893333c0-10.24-8.533333-18.773333-18.773333-18.773333H134.826667z"  /><path  d="M897.706667 761.173333H134.826667c-39.253333 0-69.973333-32.426667-69.973334-69.973333v-134.826667c0-39.253333 32.426667-69.973333 69.973334-69.973333h762.88c39.253333 0 69.973333 32.426667 69.973333 69.973333v134.826667c0 39.253333-30.72 69.973333-69.973333 69.973333zM134.826667 537.6c-10.24 0-18.773333 8.533333-18.773334 18.773333v134.826667c0 10.24 8.533333 18.773333 18.773334 18.773333h762.88c10.24 0 18.773333-8.533333 18.773333-18.773333v-134.826667c0-10.24-8.533333-18.773333-18.773333-18.773333H134.826667zM380.586667 380.586667c-5.12 0-11.946667-1.706667-15.36-5.12-10.24-8.533333-13.653333-25.6-3.413334-35.84l90.453334-112.64c8.533333-10.24 25.6-13.653333 35.84-3.413334 10.24 8.533333 13.653333 25.6 3.413333 35.84l-90.453333 112.64c-5.12 5.12-11.946667 8.533333-20.48 8.533334zM537.6 402.773333c-5.12 0-10.24-1.706667-15.36-5.12-11.946667-8.533333-13.653333-23.893333-5.12-35.84l66.56-90.453333c8.533333-11.946667 23.893333-13.653333 35.84-5.12 11.946667 8.533333 13.653333 23.893333 5.12 35.84L558.08 392.533333c-3.413333 6.826667-11.946667 10.24-20.48 10.24z"  /><path  d="M515.413333 624.64m-44.373333 0a44.373333 44.373333 0 1 0 88.746667 0 44.373333 44.373333 0 1 0-88.746667 0Z"  /><path  d="M740.693333 942.08H291.84c-8.533333 0-17.066667-3.413333-20.48-10.24-5.12-6.826667-5.12-15.36-3.413333-23.893333l66.56-179.2c5.12-13.653333 20.48-20.48 32.426666-15.36 13.653333 5.12 20.48 20.48 15.36 32.426666l-54.613333 145.066667h375.466667L648.533333 745.813333c-5.12-13.653333 1.706667-27.306667 15.36-32.426666 13.653333-5.12 27.306667 1.706667 32.426667 15.36l66.56 179.2c3.413333 8.533333 1.706667 17.066667-3.413333 23.893333-3.413333 5.12-10.24 10.24-18.773334 10.24z"  /></svg>