<?xml version="1.0" standalone="no"?><!DOCTYPE svg PUBLIC "-//W3C//DTD SVG 1.1//EN" "http://www.w3.org/Graphics/SVG/1.1/DTD/svg11.dtd"><svg class="icon" width="64px" height="64.00px" viewBox="0 0 1024 1024" version="1.1" xmlns="http://www.w3.org/2000/svg"><path  d="M713.386667 518.826667c-6.826667 0-11.946667-1.706667-17.066667-6.826667l-100.693333-97.28c-10.24-10.24-10.24-25.6 0-35.84 10.24-10.24 25.6-10.24 35.84 0l83.626666 80.213333 83.626667-80.213333c10.24-10.24 25.6-10.24 35.84 0 10.24 10.24 10.24 25.6 0 35.84l-102.4 97.28c-5.12 5.12-11.946667 6.826667-18.773333 6.826667z"  /><path  d="M713.386667 650.24c-6.826667 0-11.946667-1.706667-17.066667-6.826667L595.626667 546.133333c-10.24-10.24-10.24-25.6 0-35.84 10.24-10.24 25.6-10.24 35.84 0l83.626666 80.213334 83.626667-80.213334c10.24-10.24 25.6-10.24 35.84 0 10.24 10.24 10.24 25.6 0 35.84L733.866667 643.413333c-6.826667 5.12-13.653333 6.826667-20.48 6.826667z"  /><path  d="M896 913.066667h-768C76.8 913.066667 34.133333 870.4 34.133333 819.2V204.8c0-51.2 42.666667-93.866667 93.866667-93.866667h768c51.2 0 93.866667 42.666667 93.866667 93.866667v614.4c0 51.2-42.666667 93.866667-93.866667 93.866667z m-768-750.933334C104.106667 162.133333 85.333333 180.906667 85.333333 204.8v614.4c0 23.893333 18.773333 42.666667 42.666667 42.666667h768c23.893333 0 42.666667-18.773333 42.666667-42.666667V204.8c0-23.893333-18.773333-42.666667-42.666667-42.666667h-768z"  /><path  d="M242.346667 670.72c-6.826667 0-13.653333-1.706667-20.48-5.12-13.653333-6.826667-22.186667-22.186667-22.186667-37.546667V392.533333c0-15.36 8.533333-30.72 22.186667-37.546666 13.653333-6.826667 30.72-6.826667 44.373333 1.706666l187.733333 117.76c11.946667 8.533333 20.48 22.186667 20.48 37.546667s-6.826667 29.013333-20.48 37.546667l-187.733333 117.76c-8.533333 1.706667-15.36 3.413333-23.893333 3.413333z m6.826666-262.826667V614.4l165.546667-104.106667-165.546667-102.4z"  /></svg>