<?xml version="1.0" standalone="no"?><!DOCTYPE svg PUBLIC "-//W3C//DTD SVG 1.1//EN" "http://www.w3.org/Graphics/SVG/1.1/DTD/svg11.dtd"><svg class="icon" width="64px" height="64.00px" viewBox="0 0 1024 1024" version="1.1" xmlns="http://www.w3.org/2000/svg"><path  d="M797.013333 774.826667c-6.826667 0-13.653333-1.706667-18.773333-6.826667-10.24-10.24-10.24-25.6 0-35.84 146.773333-146.773333 146.773333-387.413333 0-534.186667C631.466667 49.493333 392.533333 49.493333 244.053333 196.266667c-146.773333 146.773333-146.773333 387.413333 0 534.186666 10.24 10.24 10.24 25.6 0 35.84s-25.6 10.24-35.84 0c-167.253333-167.253333-167.253333-440.32 0-607.573333C375.466667-6.826667 648.533333-6.826667 815.786667 160.426667c167.253333 167.253333 167.253333 440.32 0 607.573333-5.12 3.413333-11.946667 6.826667-18.773334 6.826667z"  /><path  d="M512 602.453333c-69.973333 0-128-58.026667-128-128s58.026667-128 128-128 128 58.026667 128 128-58.026667 128-128 128z m0-204.8c-42.666667 0-76.8 34.133333-76.8 76.8s34.133333 76.8 76.8 76.8 76.8-34.133333 76.8-76.8-34.133333-76.8-76.8-76.8z"  /><path  d="M631.466667 989.866667H377.173333c-6.826667 0-15.36-3.413333-20.48-8.533334-5.12-5.12-6.826667-13.653333-5.12-20.48L428.373333 563.2c3.413333-13.653333 15.36-22.186667 30.72-20.48 13.653333 3.413333 22.186667 15.36 20.48 30.72L407.893333 938.666667h192.853334l-56.32-366.933334c-1.706667-13.653333 6.826667-27.306667 22.186666-29.013333 13.653333-1.706667 27.306667 6.826667 29.013334 22.186667l61.44 395.946666c1.706667 6.826667-1.706667 15.36-5.12 20.48-6.826667 5.12-13.653333 8.533333-20.48 8.533334z"  /></svg>