<?xml version="1.0" standalone="no"?><!DOCTYPE svg PUBLIC "-//W3C//DTD SVG 1.1//EN" "http://www.w3.org/Graphics/SVG/1.1/DTD/svg11.dtd"><svg class="icon" width="64px" height="64.00px" viewBox="0 0 1024 1024" version="1.1" xmlns="http://www.w3.org/2000/svg"><path  d="M831.146667 856.746667c-6.826667 0-13.653333-1.706667-18.773334-6.826667-10.24-10.24-10.24-25.6 0-35.84C894.293333 733.866667 938.666667 626.346667 938.666667 512s-44.373333-221.866667-124.586667-302.08c-165.546667-165.546667-436.906667-165.546667-604.16 0C129.706667 290.133333 85.333333 397.653333 85.333333 512s44.373333 221.866667 124.586667 302.08c10.24 10.24 10.24 25.6 0 35.84s-25.6 10.24-35.84 0C83.626667 759.466667 34.133333 640 34.133333 512s49.493333-247.466667 139.946667-337.92C360.106667-11.946667 663.893333-11.946667 849.92 174.08 940.373333 264.533333 989.866667 384 989.866667 512s-49.493333 247.466667-139.946667 337.92c-5.12 5.12-11.946667 6.826667-18.773333 6.826667z m-128-128c-6.826667 0-13.653333-1.706667-18.773334-6.826667-10.24-10.24-10.24-25.6 0-35.84 95.573333-95.573333 95.573333-252.586667 0-348.16-95.573333-95.573333-252.586667-95.573333-348.16 0-95.573333 95.573333-95.573333 252.586667 0 348.16 10.24 10.24 10.24 25.6 0 35.84s-25.6 10.24-35.84 0c-116.053333-116.053333-116.053333-303.786667 0-419.84 116.053333-116.053333 303.786667-116.053333 419.84 0 116.053333 116.053333 116.053333 303.786667 0 419.84-3.413333 5.12-10.24 6.826667-17.066666 6.826667z"  /><path  d="M602.453333 989.866667H421.546667c-13.653333 0-25.6-11.946667-25.6-25.6s11.946667-25.6 25.6-25.6h64.853333V624.64c-51.2-11.946667-90.453333-58.026667-90.453333-112.64 0-63.146667 52.906667-116.053333 116.053333-116.053333s116.053333 52.906667 116.053333 116.053333c0 54.613333-39.253333 100.693333-90.453333 112.64V938.666667h64.853333c13.653333 0 25.6 11.946667 25.6 25.6s-11.946667 25.6-25.6 25.6zM512 447.146667c-35.84 0-64.853333 29.013333-64.853333 64.853333s29.013333 64.853333 64.853333 64.853333 64.853333-29.013333 64.853333-64.853333-29.013333-64.853333-64.853333-64.853333z"  /></svg>