<?xml version="1.0" standalone="no"?><!DOCTYPE svg PUBLIC "-//W3C//DTD SVG 1.1//EN" "http://www.w3.org/Graphics/SVG/1.1/DTD/svg11.dtd"><svg class="icon" width="64px" height="64.00px" viewBox="0 0 1024 1024" version="1.1" xmlns="http://www.w3.org/2000/svg"><path  d="M916.48 716.8h-95.573333c-13.653333 0-25.6-11.946667-25.6-25.6s11.946667-25.6 25.6-25.6h95.573333c11.946667 0 22.186667-10.24 22.186667-22.186667V119.466667c0-11.946667-10.24-22.186667-22.186667-22.186667H440.32c-11.946667 0-22.186667 10.24-22.186667 22.186667v71.68c0 13.653333-11.946667 25.6-25.6 25.6s-25.6-11.946667-25.6-25.6V119.466667c0-40.96 32.426667-73.386667 73.386667-73.386667h476.16C957.44 46.08 989.866667 78.506667 989.866667 119.466667v523.946666c0 39.253333-32.426667 73.386667-73.386667 73.386667z"  /><path  d="M583.68 977.92H107.52C66.56 977.92 34.133333 945.493333 34.133333 904.533333V428.373333c0-40.96 32.426667-73.386667 73.386667-73.386666h476.16c40.96 0 73.386667 32.426667 73.386667 73.386666V904.533333c0 40.96-34.133333 73.386667-73.386667 73.386667zM107.52 406.186667c-11.946667 0-22.186667 10.24-22.186667 22.186666V904.533333c0 11.946667 10.24 22.186667 22.186667 22.186667h476.16c11.946667 0 22.186667-10.24 22.186667-22.186667V428.373333c0-11.946667-10.24-22.186667-22.186667-22.186666H107.52z"  /><path  d="M344.746667 709.973333c-13.653333 0-25.6-11.946667-25.6-25.6V512c0-13.653333 11.946667-25.6 25.6-25.6s25.6 11.946667 25.6 25.6v172.373333c0 13.653333-10.24 25.6-25.6 25.6z"  /><path  d="M431.786667 622.933333H259.413333c-13.653333 0-25.6-11.946667-25.6-25.6s11.946667-25.6 25.6-25.6h172.373334c13.653333 0 25.6 11.946667 25.6 25.6s-11.946667 25.6-25.6 25.6zM431.786667 861.866667H259.413333c-13.653333 0-25.6-11.946667-25.6-25.6s11.946667-25.6 25.6-25.6h172.373334c13.653333 0 25.6 11.946667 25.6 25.6s-11.946667 25.6-25.6 25.6zM841.386667 226.986667H515.413333c-13.653333 0-25.6-11.946667-25.6-25.6s11.946667-25.6 25.6-25.6h325.973334c13.653333 0 25.6 11.946667 25.6 25.6s-11.946667 25.6-25.6 25.6zM841.386667 353.28h-109.226667c-13.653333 0-25.6-11.946667-25.6-25.6s11.946667-25.6 25.6-25.6h109.226667c13.653333 0 25.6 11.946667 25.6 25.6s-11.946667 25.6-25.6 25.6z"  /></svg>