<?xml version="1.0" standalone="no"?><!DOCTYPE svg PUBLIC "-//W3C//DTD SVG 1.1//EN" "http://www.w3.org/Graphics/SVG/1.1/DTD/svg11.dtd"><svg class="icon" width="64px" height="64.00px" viewBox="0 0 1024 1024" version="1.1" xmlns="http://www.w3.org/2000/svg"><path  d="M512 933.546667c-6.826667 0-13.653333-1.706667-18.773333-6.826667l-105.813334-105.813333H128c-51.2 0-93.866667-42.666667-93.866667-93.866667V184.32c0-51.2 42.666667-93.866667 93.866667-93.866667h768c51.2 0 93.866667 42.666667 93.866667 93.866667v542.72c0 51.2-42.666667 93.866667-93.866667 93.866667H634.88L529.066667 926.72c-3.413333 3.413333-10.24 6.826667-17.066667 6.826667zM128 141.653333C104.106667 141.653333 85.333333 160.426667 85.333333 184.32v542.72c0 23.893333 18.773333 42.666667 42.666667 42.666667h271.36c6.826667 0 13.653333 3.413333 18.773333 6.826666l95.573334 95.573334 95.573333-95.573334c5.12-5.12 11.946667-6.826667 18.773333-6.826666h271.36c23.893333 0 42.666667-18.773333 42.666667-42.666667V184.32c0-23.893333-18.773333-42.666667-42.666667-42.666667H128z"  /><path  d="M768 377.173333H256c-13.653333 0-25.6-11.946667-25.6-25.6s11.946667-25.6 25.6-25.6h512c13.653333 0 25.6 11.946667 25.6 25.6s-11.946667 25.6-25.6 25.6zM677.546667 558.08H256c-13.653333 0-25.6-11.946667-25.6-25.6s11.946667-25.6 25.6-25.6h419.84c13.653333 0 25.6 11.946667 25.6 25.6 1.706667 15.36-10.24 25.6-23.893333 25.6z"  /></svg>