<?xml version="1.0" standalone="no"?><!DOCTYPE svg PUBLIC "-//W3C//DTD SVG 1.1//EN" "http://www.w3.org/Graphics/SVG/1.1/DTD/svg11.dtd"><svg class="icon" width="64px" height="64.00px" viewBox="0 0 1024 1024" version="1.1" xmlns="http://www.w3.org/2000/svg"><path  d="M807.253333 394.24h-160.426666c-23.893333 0-42.666667-18.773333-42.666667-42.666667V256c0-23.893333 18.773333-42.666667 42.666667-42.666667h27.306666c5.12-1.706667 8.533333-5.12 8.533334-10.24V187.733333c0-30.72 17.066667-52.906667 44.373333-56.32 13.653333-1.706667 29.013333 3.413333 40.96 13.653334 13.653333 11.946667 22.186667 29.013333 22.186667 47.786666v3.413334h35.84c3.413333 0 6.826667 0 10.24 1.706666 13.653333 1.706667 25.6 10.24 32.426666 22.186667 6.826667 11.946667 10.24 25.6 8.533334 37.546667l-18.773334 95.573333c-5.12 23.893333-27.306667 40.96-51.2 40.96z m-151.893333-51.2h151.893333l17.066667-95.573333h-64.853333c-8.533333 0-15.36-3.413333-20.48-10.24-5.12-6.826667-6.826667-15.36-3.413334-22.186667 1.706667-8.533333 3.413333-15.36 3.413334-22.186667 0-3.413333-3.413333-6.826667-5.12-8.533333V204.8c0 32.426667-23.893333 59.733333-56.32 61.44h-22.186667v76.8z m170.666667-95.573333z"  /><path  d="M740.693333 517.12c-131.413333 0-238.933333-107.52-238.933333-238.933333s107.52-238.933333 238.933333-238.933334 238.933333 107.52 238.933334 238.933334-107.52 238.933333-238.933334 238.933333z m0-426.666667c-104.106667 0-187.733333 83.626667-187.733333 187.733334s83.626667 187.733333 187.733333 187.733333 187.733333-83.626667 187.733334-187.733333-85.333333-187.733333-187.733334-187.733334z"  /><path  d="M327.68 583.68c-85.333333 0-155.306667-69.973333-155.306667-155.306667s69.973333-155.306667 155.306667-155.306666 155.306667 69.973333 155.306667 155.306666-69.973333 155.306667-155.306667 155.306667z m0-257.706667c-58.026667 0-104.106667 46.08-104.106667 104.106667s46.08 104.106667 104.106667 104.106667c58.026667 0 104.106667-46.08 104.106667-104.106667s-47.786667-104.106667-104.106667-104.106667zM592.213333 981.333333h-529.066666c-13.653333 0-25.6-11.946667-25.6-25.6v-141.653333c0-107.52 88.746667-196.266667 196.266666-196.266667h187.733334c107.52 0 196.266667 88.746667 196.266666 196.266667V955.733333c0 13.653333-11.946667 25.6-25.6 25.6z m-505.173333-51.2h477.866667v-116.053333c0-80.213333-64.853333-145.066667-145.066667-145.066667h-187.733333c-80.213333 0-145.066667 64.853333-145.066667 145.066667v116.053333z"  /><path  d="M704.853333 750.933333c-54.613333 0-97.28-44.373333-97.28-97.28s44.373333-97.28 97.28-97.28c54.613333 0 97.28 44.373333 97.28 97.28S757.76 750.933333 704.853333 750.933333z m0-145.066666c-25.6 0-46.08 20.48-46.08 46.08s20.48 46.08 46.08 46.08c25.6 0 46.08-20.48 46.08-46.08s-20.48-46.08-46.08-46.08zM853.333333 981.333333h-153.6c-13.653333 0-25.6-11.946667-25.6-25.6s11.946667-25.6 25.6-25.6h128v-39.253333c0-42.666667-34.133333-76.8-76.8-76.8h-71.68c-13.653333 0-25.6-11.946667-25.6-25.6s11.946667-25.6 25.6-25.6H750.933333c69.973333 0 128 58.026667 128 128V955.733333c0 13.653333-11.946667 25.6-25.6 25.6z"  /></svg>