<?xml version="1.0" standalone="no"?><!DOCTYPE svg PUBLIC "-//W3C//DTD SVG 1.1//EN" "http://www.w3.org/Graphics/SVG/1.1/DTD/svg11.dtd"><svg class="icon" width="64px" height="64.00px" viewBox="0 0 1024 1024" version="1.1" xmlns="http://www.w3.org/2000/svg"><path  d="M887.466667 720.213333H136.533333c-56.32 0-102.4-46.08-102.4-102.4V146.773333c0-56.32 46.08-102.4 102.4-102.4h750.933334c56.32 0 102.4 46.08 102.4 102.4v11.946667c0 13.653333-11.946667 25.6-25.6 25.6S938.666667 174.08 938.666667 158.72v-11.946667c0-27.306667-22.186667-51.2-51.2-51.2H136.533333c-27.306667 0-51.2 22.186667-51.2 51.2v471.04c0 27.306667 22.186667 51.2 51.2 51.2h750.933334c27.306667 0 51.2-22.186667 51.2-51.2V529.066667c0-13.653333 11.946667-25.6 25.6-25.6s25.6 11.946667 25.6 25.6v88.746666c0 56.32-46.08 102.4-102.4 102.4z"  /><path  d="M964.266667 452.266667c-13.653333 0-25.6-11.946667-25.6-25.6v-83.626667c0-13.653333 11.946667-25.6 25.6-25.6s25.6 11.946667 25.6 25.6V426.666667c0 13.653333-11.946667 25.6-25.6 25.6zM964.266667 274.773333c-13.653333 0-25.6-11.946667-25.6-25.6v-5.12c0-13.653333 11.946667-25.6 25.6-25.6s25.6 11.946667 25.6 25.6v5.12c0 13.653333-11.946667 25.6-25.6 25.6zM831.146667 977.92H192.853333c-13.653333 0-25.6-11.946667-25.6-25.6s11.946667-25.6 25.6-25.6h640c13.653333 0 25.6 11.946667 25.6 25.6s-11.946667 25.6-27.306666 25.6zM706.56 855.04H317.44c-13.653333 0-25.6-11.946667-25.6-25.6s11.946667-25.6 25.6-25.6h389.12c13.653333 0 25.6 11.946667 25.6 25.6s-10.24 25.6-25.6 25.6zM494.933333 541.013333h-8.533333c-13.653333-3.413333-22.186667-17.066667-20.48-30.72l20.48-102.4c0-3.413333 1.706667-6.826667 5.12-10.24l170.666667-230.4c8.533333-11.946667 23.893333-13.653333 35.84-5.12l90.453333 63.146667c5.12 3.413333 10.24 10.24 10.24 17.066667 1.706667 6.826667 0 13.653333-5.12 18.773333L616.106667 494.933333c-3.413333 3.413333-6.826667 6.826667-11.946667 8.533334l-100.693333 35.84c-1.706667 0-5.12 1.706667-8.533334 1.706666z m42.666667-117.76l-10.24 52.906667 54.613333-18.773333 157.013334-206.506667-47.786667-34.133333-153.6 206.506666z"  /><path  d="M493.226667 541.013333H250.88c-13.653333 0-25.6-11.946667-25.6-25.6s11.946667-25.6 25.6-25.6h242.346667c13.653333 0 25.6 11.946667 25.6 25.6s-11.946667 25.6-25.6 25.6z"  /></svg>