<?xml version="1.0" standalone="no"?><!DOCTYPE svg PUBLIC "-//W3C//DTD SVG 1.1//EN" "http://www.w3.org/Graphics/SVG/1.1/DTD/svg11.dtd"><svg class="icon" width="64px" height="64.00px" viewBox="0 0 1024 1024" version="1.1" xmlns="http://www.w3.org/2000/svg"><path  d="M872.106667 930.133333c-8.533333 0-15.36 0-18.773334-1.706666H151.893333c-64.853333 0-117.76-52.906667-117.76-117.76s52.906667-117.76 117.76-117.76l54.613334 3.413333c13.653333 0 25.6 11.946667 23.893333 27.306667 0 13.653333-13.653333 23.893333-27.306667 23.893333l-52.906666-3.413333c-35.84 0-64.853333 30.72-64.853334 66.56s30.72 66.56 66.56 66.56H858.453333c13.653333 1.706667 49.493333 1.706667 68.266667-15.36 8.533333-6.826667 11.946667-18.773333 10.24-34.133334l1.706667-585.386666c0-13.653333 11.946667-25.6 25.6-25.6s25.6 11.946667 25.6 25.6l-1.706667 585.386666c1.706667 37.546667-13.653333 59.733333-27.306667 71.68-25.6 25.6-64.853333 30.72-88.746666 30.72z"  /><path  d="M59.733333 791.893333c-5.12 0-8.533333-1.706667-13.653333-3.413333-6.826667-5.12-11.946667-11.946667-11.946667-22.186667V211.626667c0-64.853333 52.906667-117.76 119.466667-117.76h701.44c22.186667 0 40.96 18.773333 40.96 40.96v570.026666c0 22.186667-18.773333 40.96-40.96 40.96L136.533333 747.52c-13.653333 10.24-37.546667 27.306667-64.853333 42.666667-3.413333 1.706667-8.533333 1.706667-11.946667 1.706666zM153.6 145.066667c-37.546667 0-68.266667 30.72-68.266667 66.56v508.586666c10.24-6.826667 18.773333-13.653333 23.893334-17.066666 13.653333-10.24 23.893333-11.946667 34.133333-6.826667l701.44-3.413333V145.066667H153.6zM745.813333 836.266667H215.04c-13.653333 0-25.6-11.946667-25.6-25.6s11.946667-25.6 25.6-25.6h530.773333c13.653333 0 25.6 11.946667 25.6 25.6s-11.946667 25.6-25.6 25.6z"  /></svg>