<?xml version="1.0" standalone="no"?><!DOCTYPE svg PUBLIC "-//W3C//DTD SVG 1.1//EN" "http://www.w3.org/Graphics/SVG/1.1/DTD/svg11.dtd"><svg class="icon" width="64px" height="64.00px" viewBox="0 0 1024 1024" version="1.1" xmlns="http://www.w3.org/2000/svg"><path  d="M503.808 981.674667C244.736 981.674667 34.133333 770.901333 34.133333 512S244.736 42.325333 503.808 42.325333c185.856 0 354.645333 109.909333 429.738667 279.893334a473.429333 473.429333 0 0 1 33.28 110.421333c2.389333 13.994667-6.997333 27.136-20.992 29.525333a25.770667 25.770667 0 0 1-29.525334-20.992c-5.802667-33.792-15.701333-66.901333-29.525333-98.304-67.072-151.381333-217.429333-249.344-382.976-249.344C273.066667 93.525333 85.333333 281.258667 85.333333 512s187.733333 418.474667 418.474667 418.474667c14.165333 0 25.6 11.434667 25.6 25.6s-11.434667 25.6-25.6 25.6z"  /><path  d="M320.512 600.234667c-11.434667 0-21.845333-7.68-24.746667-19.285334-3.413333-13.653333 4.949333-27.648 18.602667-31.061333l176.810667-44.544V332.629333c0-14.165333 11.434667-25.6 25.6-25.6s25.6 11.434667 25.6 25.6v192.682667c0 11.776-8.021333 22.016-19.285334 24.746667l-196.096 49.322666c-2.218667 0.682667-4.437333 0.853333-6.485333 0.853334z"  /><path  d="M964.266667 790.357333H630.613333c-14.165333 0-25.6-11.434667-25.6-25.6s11.434667-25.6 25.6-25.6H964.266667c14.165333 0 25.6 11.434667 25.6 25.6s-11.434667 25.6-25.6 25.6z"  /><path  d="M797.354667 957.269333c-14.165333 0-25.6-11.434667-25.6-25.6V598.016c0-14.165333 11.434667-25.6 25.6-25.6s25.6 11.434667 25.6 25.6v333.653333c0 14.165333-11.434667 25.6-25.6 25.6z"  /></svg>