<?xml version="1.0" standalone="no"?><!DOCTYPE svg PUBLIC "-//W3C//DTD SVG 1.1//EN" "http://www.w3.org/Graphics/SVG/1.1/DTD/svg11.dtd"><svg class="icon" width="64px" height="64.00px" viewBox="0 0 1024 1024" version="1.1" xmlns="http://www.w3.org/2000/svg"><path  d="M827.733333 989.866667h-631.466666c-51.2 0-93.866667-42.666667-93.866667-93.866667v-768C102.4 76.8 145.066667 34.133333 196.266667 34.133333h631.466666c51.2 0 93.866667 42.666667 93.866667 93.866667v768c0 51.2-42.666667 93.866667-93.866667 93.866667z m-631.466666-904.533334C172.373333 85.333333 153.6 104.106667 153.6 128v768c0 23.893333 18.773333 42.666667 42.666667 42.666667h631.466666c23.893333 0 42.666667-18.773333 42.666667-42.666667v-768C870.4 104.106667 851.626667 85.333333 827.733333 85.333333h-631.466666z"  /><path  d="M411.306667 349.866667h-153.6c-13.653333 0-25.6-11.946667-25.6-25.6v-153.6c0-13.653333 11.946667-25.6 25.6-25.6h153.6c13.653333 0 25.6 11.946667 25.6 25.6v153.6c0 13.653333-10.24 25.6-25.6 25.6z m-128-51.2h102.4v-102.4h-102.4v102.4zM411.306667 614.4h-153.6c-13.653333 0-25.6-11.946667-25.6-25.6v-153.6c0-13.653333 11.946667-25.6 25.6-25.6h153.6c13.653333 0 25.6 11.946667 25.6 25.6v153.6c0 13.653333-10.24 25.6-25.6 25.6z m-128-51.2h102.4v-102.4h-102.4v102.4zM411.306667 878.933333h-153.6c-13.653333 0-25.6-11.946667-25.6-25.6v-153.6c0-13.653333 11.946667-25.6 25.6-25.6h153.6c13.653333 0 25.6 11.946667 25.6 25.6v153.6c0 13.653333-10.24 25.6-25.6 25.6z m-128-51.2h102.4v-102.4h-102.4v102.4z"  /><path  d="M573.44 745.813333c-5.12 0-10.24-1.706667-15.36-5.12-11.946667-8.533333-13.653333-23.893333-5.12-35.84l194.56-262.826666c8.533333-11.946667 23.893333-13.653333 35.84-5.12 11.946667 8.533333 13.653333 23.893333 5.12 35.84L593.92 733.866667c-5.12 6.826667-11.946667 11.946667-20.48 11.946666zM716.8 824.32h-168.96c-13.653333 0-25.6-11.946667-25.6-25.6s11.946667-25.6 25.6-25.6H716.8c13.653333 0 25.6 11.946667 25.6 25.6s-11.946667 25.6-25.6 25.6z"  /></svg>