<?xml version="1.0" standalone="no"?><!DOCTYPE svg PUBLIC "-//W3C//DTD SVG 1.1//EN" "http://www.w3.org/Graphics/SVG/1.1/DTD/svg11.dtd"><svg class="icon" width="64px" height="64.00px" viewBox="0 0 1024 1024" version="1.1" xmlns="http://www.w3.org/2000/svg"><path  d="M508.245333 776.533333c-126.976 0-230.4-103.424-230.4-230.4s103.424-230.4 230.4-230.4a230.621867 230.621867 0 0 1 227.157334 191.658667c2.389333 13.994667-6.997333 27.136-20.992 29.525333-13.824 2.389333-27.136-6.997333-29.525334-20.992-2.389333-14.506667-6.656-28.672-12.629333-42.154666-28.672-64.853333-93.013333-106.837333-164.010667-106.837334-98.816 0-179.2 80.384-179.2 179.2s80.384 179.2 179.2 179.2c14.165333 0 25.6 11.434667 25.6 25.6s-11.434667 25.6-25.6 25.6z"  /><path  d="M423.765333 600.576c-11.434667 0-21.845333-7.68-24.746666-19.285333-3.413333-13.653333 4.949333-27.648 18.602666-31.061334l71.168-17.92v-68.949333c0-14.165333 11.434667-25.6 25.6-25.6s25.6 11.434667 25.6 25.6v88.917333c0 11.776-8.021333 22.016-19.285333 24.917334l-90.453333 22.698666c-2.389333 0.512-4.437333 0.682667-6.485334 0.682667z"  /><path  d="M720.554667 688.298667H566.613333c-14.165333 0-25.6-11.434667-25.6-25.6s11.434667-25.6 25.6-25.6h153.941334c14.165333 0 25.6 11.434667 25.6 25.6s-11.434667 25.6-25.6 25.6z"  /><path  d="M643.584 765.269333c-14.165333 0-25.6-11.434667-25.6-25.6v-153.941333c0-14.165333 11.434667-25.6 25.6-25.6s25.6 11.434667 25.6 25.6v153.941333c0 14.165333-11.434667 25.6-25.6 25.6z"  /><path  d="M829.269333 989.866667s-0.170667 0 0 0l-644.437333-0.853334C139.434667 989.013333 102.4 947.541333 102.4 896.512v-699.733333c0-51.029333 37.034667-92.501333 82.432-92.501334h120.149333c14.165333 0 25.6 11.434667 25.6 25.6s-11.434667 25.6-25.6 25.6h-120.149333c-17.066667 0-31.232 18.944-31.232 41.301334v699.733333c0 22.357333 14.336 41.301333 31.232 41.301333l644.266667 0.853334c11.093333 0 21.333333-4.266667 29.184-12.117334 7.850667-7.850667 12.117333-18.261333 12.117333-29.184V196.949333c0-22.357333-14.336-41.301333-31.232-41.301333h-124.757333c-14.165333 0-25.6-11.434667-25.6-25.6s11.434667-25.6 25.6-25.6h124.757333c45.568 0 82.432 41.472 82.432 92.501333v700.416c0 24.746667-9.728 47.957333-27.136 65.536A91.374933 91.374933 0 0 1 829.269333 989.866667z"  /><path  d="M676.352 218.965333H347.648c-32.938667 0-59.733333-26.794667-59.733333-59.733333V93.866667c0-32.938667 26.794667-59.733333 59.733333-59.733334h328.874667c32.938667 0 59.733333 26.794667 59.733333 59.733334v65.365333a60.0576 60.0576 0 0 1-59.904 59.733333zM347.648 85.333333c-4.778667 0-8.533333 3.754667-8.533333 8.533334v65.365333c0 4.778667 3.754667 8.533333 8.533333 8.533333h328.874667c4.778667 0 8.533333-3.754667 8.533333-8.533333V93.866667c0-4.778667-3.754667-8.533333-8.533333-8.533334H347.648z"  /></svg>