<?xml version="1.0" standalone="no"?><!DOCTYPE svg PUBLIC "-//W3C//DTD SVG 1.1//EN" "http://www.w3.org/Graphics/SVG/1.1/DTD/svg11.dtd"><svg class="icon" width="64px" height="64.00px" viewBox="0 0 1024 1024" version="1.1" xmlns="http://www.w3.org/2000/svg"><path  d="M827.733333 853.333333H331.093333c-52.906667 0-93.866667-40.96-93.866666-93.866666v-631.466667c0-51.2 42.666667-93.866667 93.866666-93.866667H648.533333c13.653333 0 25.6 11.946667 25.6 25.6v245.76h221.866667c13.653333 0 25.6 11.946667 25.6 25.6v428.373334c0 51.2-42.666667 93.866667-93.866667 93.866666zM331.093333 85.333333c-23.893333 0-42.666667 18.773333-42.666666 42.666667v631.466667c0 23.893333 18.773333 42.666667 42.666666 42.666666h496.64c23.893333 0 42.666667-18.773333 42.666667-42.666666V356.693333H648.533333c-13.653333 0-25.6-11.946667-25.6-25.6V85.333333H331.093333z"  /><path  d="M897.706667 356.693333c-6.826667 0-13.653333-3.413333-18.773334-8.533333L629.76 76.8c-10.24-10.24-8.533333-25.6 1.706667-35.84 10.24-10.24 27.306667-8.533333 35.84 1.706667l249.173333 271.36c10.24 10.24 8.533333 27.306667-1.706667 35.84-5.12 5.12-10.24 6.826667-17.066666 6.826666zM602.453333 989.866667H196.266667c-51.2 0-93.866667-42.666667-93.866667-93.866667V421.546667c0-13.653333 11.946667-25.6 25.6-25.6s25.6 11.946667 25.6 25.6v474.453333c0 23.893333 18.773333 42.666667 42.666667 42.666667h406.186666c13.653333 0 25.6 11.946667 25.6 25.6s-11.946667 25.6-25.6 25.6zM489.813333 537.6h-90.453333c-13.653333 0-25.6-11.946667-25.6-25.6s11.946667-25.6 25.6-25.6h90.453333c13.653333 0 25.6 11.946667 25.6 25.6s-11.946667 25.6-25.6 25.6z"  /><path  d="M795.306667 701.44H399.36c-13.653333 0-25.6-11.946667-25.6-25.6s11.946667-25.6 25.6-25.6h395.946667c13.653333 0 25.6 11.946667 25.6 25.6s-11.946667 25.6-25.6 25.6zM631.466667 597.333333c-5.12 0-10.24-1.706667-15.36-5.12-11.946667-8.533333-13.653333-23.893333-5.12-35.84l90.453333-119.466666c8.533333-11.946667 23.893333-13.653333 35.84-5.12 11.946667 8.533333 13.653333 23.893333 5.12 35.84l-90.453333 119.466666c-5.12 6.826667-11.946667 10.24-20.48 10.24z"  /></svg>