<?xml version="1.0" standalone="no"?><!DOCTYPE svg PUBLIC "-//W3C//DTD SVG 1.1//EN" "http://www.w3.org/Graphics/SVG/1.1/DTD/svg11.dtd"><svg class="icon" width="64px" height="64.00px" viewBox="0 0 1024 1024" version="1.1" xmlns="http://www.w3.org/2000/svg"><path  d="M860.16 989.866667H163.84c-51.2 0-93.866667-42.666667-93.866667-93.866667v-768c0-51.2 42.666667-93.866667 93.866667-93.866667h696.32c51.2 0 93.866667 42.666667 93.866667 93.866667v768c0 51.2-42.666667 93.866667-93.866667 93.866667zM163.84 85.333333C139.946667 85.333333 121.173333 104.106667 121.173333 128v768c0 23.893333 18.773333 42.666667 42.666667 42.666667h696.32c23.893333 0 42.666667-18.773333 42.666667-42.666667v-768c0-23.893333-18.773333-42.666667-42.666667-42.666667H163.84z"  /><path  d="M264.533333 981.333333c-13.653333 0-25.6-11.946667-25.6-25.6V78.506667c0-13.653333 11.946667-25.6 25.6-25.6s25.6 10.24 25.6 25.6V955.733333c0 13.653333-11.946667 25.6-25.6 25.6zM781.653333 365.226667l-114.346666-66.56-114.346667 66.56V39.253333h228.693333v325.973334zM604.16 90.453333v184.32l63.146667-37.546666 63.146666 37.546666V90.453333h-126.293333z"  /></svg>