<?xml version="1.0" standalone="no"?><!DOCTYPE svg PUBLIC "-//W3C//DTD SVG 1.1//EN" "http://www.w3.org/Graphics/SVG/1.1/DTD/svg11.dtd"><svg class="icon" width="64px" height="64.00px" viewBox="0 0 1024 1024" version="1.1" xmlns="http://www.w3.org/2000/svg"><path  d="M860.16 851.626667H163.84c-71.68 0-129.706667-58.026667-129.706667-129.706667V196.266667c0-71.68 58.026667-129.706667 129.706667-129.706667h696.32c71.68 0 129.706667 58.026667 129.706667 129.706667v525.653333c0 71.68-58.026667 129.706667-129.706667 129.706667zM163.84 117.76c-42.666667 0-78.506667 34.133333-78.506667 78.506667v525.653333c0 42.666667 35.84 78.506667 78.506667 78.506667h696.32c42.666667 0 78.506667-35.84 78.506667-78.506667V196.266667c0-42.666667-35.84-78.506667-78.506667-78.506667H163.84zM793.6 957.44H228.693333c-13.653333 0-25.6-11.946667-25.6-25.6s11.946667-25.6 25.6-25.6h564.906667c13.653333 0 25.6 11.946667 25.6 25.6s-11.946667 25.6-25.6 25.6z"  /><path  d="M512 657.066667h-5.12c-23.893333-1.706667-46.08-8.533333-64.853333-23.893334-27.306667-20.48-58.026667-29.013333-90.453334-29.013333-15.36 0-30.72-5.12-42.666666-17.066667-11.946667-10.24-17.066667-25.6-17.066667-42.666666V319.146667c0-15.36 6.826667-30.72 17.066667-42.666667 10.24-10.24 25.6-17.066667 42.666666-17.066667 59.733333 1.706667 114.346667 23.893333 158.72 61.44 40.96-35.84 93.866667-58.026667 148.48-61.44h8.533334c15.36-1.706667 32.426667 5.12 44.373333 15.36 11.946667 10.24 18.773333 27.306667 18.773333 42.666667V546.133333c0 15.36-6.826667 30.72-17.066666 40.96-10.24 10.24-25.6 17.066667-40.96 17.066667h-3.413334c-29.013333 0-58.026667 8.533333-83.626666 25.6l-8.533334 5.12c-18.773333 15.36-40.96 22.186667-64.853333 22.186667z m-158.72-104.106667c42.666667 0 83.626667 13.653333 117.76 39.253333l1.706667 1.706667c10.24 8.533333 22.186667 11.946667 35.84 13.653333h3.413333c13.653333 0 25.6-3.413333 35.84-11.946666l8.533333-5.12c34.133333-23.893333 71.68-35.84 112.64-35.84h3.413334c1.706667 0 3.413333 0 5.12-1.706667 1.706667-1.706667 1.706667-3.413333 1.706666-5.12V319.146667c0-1.706667-1.706667-3.413333-1.706666-5.12-1.706667-1.706667-3.413333-1.706667-5.12-1.706667h-8.533334c-47.786667 3.413333-93.866667 23.893333-128 58.026667-6.826667 5.12-15.36 8.533333-23.893333 10.24-10.24 0-18.773333-3.413333-23.893333-10.24l-3.413334-3.413334c-35.84-35.84-83.626667-54.613333-133.12-56.32-1.706667 0-3.413333 0-5.12 1.706667-1.706667 1.706667-1.706667 3.413333-1.706666 5.12V546.133333c0 1.706667 0 3.413333 1.706666 5.12 1.706667 1.706667 3.413333 1.706667 5.12 1.706667h1.706667z m146.773333-220.16c-1.706667 1.706667-1.706667 1.706667 0 0-1.706667 1.706667-1.706667 1.706667 0 0z m23.893334 0z"  /><path  d="M512 646.826667c-13.653333 0-25.6-11.946667-25.6-25.6V354.986667c0-13.653333 11.946667-25.6 25.6-25.6s25.6 11.946667 25.6 25.6v266.24c0 13.653333-11.946667 25.6-25.6 25.6z"  /></svg>