<?xml version="1.0" standalone="no"?><!DOCTYPE svg PUBLIC "-//W3C//DTD SVG 1.1//EN" "http://www.w3.org/Graphics/SVG/1.1/DTD/svg11.dtd"><svg class="icon" width="64px" height="64.00px" viewBox="0 0 1024 1024" version="1.1" xmlns="http://www.w3.org/2000/svg"><path  d="M860.16 851.626667H163.84c-71.68 0-129.706667-58.026667-129.706667-129.706667V196.266667c0-71.68 58.026667-129.706667 129.706667-129.706667h696.32c71.68 0 129.706667 58.026667 129.706667 129.706667v525.653333c0 71.68-58.026667 129.706667-129.706667 129.706667zM163.84 117.76C121.173333 117.76 85.333333 153.6 85.333333 196.266667v525.653333c0 42.666667 35.84 78.506667 78.506667 78.506667h696.32c42.666667 0 78.506667-35.84 78.506667-78.506667V196.266667c0-42.666667-35.84-78.506667-78.506667-78.506667H163.84z"  /><path  d="M395.946667 581.973333c-13.653333 0-25.6-11.946667-25.6-25.6V336.213333c0-13.653333 11.946667-25.6 25.6-25.6s25.6 11.946667 25.6 25.6v220.16c0 15.36-11.946667 25.6-25.6 25.6z"  /><path  d="M616.106667 361.813333H395.946667c-13.653333 0-25.6-11.946667-25.6-25.6s11.946667-25.6 25.6-25.6h220.16c13.653333 0 25.6 11.946667 25.6 25.6s-11.946667 25.6-25.6 25.6z"  /><path  d="M628.053333 607.573333c-6.826667 0-13.653333-3.413333-18.773333-8.533333L395.946667 368.64c-10.24-10.24-8.533333-27.306667 1.706666-35.84 10.24-10.24 27.306667-8.533333 35.84 1.706667l213.333334 230.4c10.24 10.24 8.533333 27.306667-1.706667 35.84-5.12 5.12-10.24 6.826667-17.066667 6.826666z"  /><path  d="M793.6 957.44h-563.2c-13.653333 0-25.6-11.946667-25.6-25.6s11.946667-25.6 25.6-25.6h564.906667c13.653333 0 25.6 11.946667 25.6 25.6s-11.946667 25.6-27.306667 25.6z"  /></svg>