<?xml version="1.0" standalone="no"?><!DOCTYPE svg PUBLIC "-//W3C//DTD SVG 1.1//EN" "http://www.w3.org/Graphics/SVG/1.1/DTD/svg11.dtd"><svg class="icon" width="64px" height="64.00px" viewBox="0 0 1024 1024" version="1.1" xmlns="http://www.w3.org/2000/svg"><path  d="M829.44 989.866667H184.32C139.946667 989.866667 102.4 947.2 102.4 896v-699.733333c0-51.2 37.546667-92.16 81.92-92.16h119.466667c13.653333 0 25.6 11.946667 25.6 25.6s-11.946667 25.6-25.6 25.6h-119.466667c-17.066667 0-30.72 18.773333-30.72 40.96v699.733333c0 22.186667 13.653333 40.96 30.72 40.96h645.12c10.24 0 22.186667-5.12 29.013333-11.946667 8.533333-8.533333 11.946667-18.773333 11.946667-29.013333v-699.733333c0-22.186667-13.653333-40.96-30.72-40.96h-124.586667c-13.653333 0-25.6-11.946667-25.6-25.6s11.946667-25.6 25.6-25.6h124.586667c46.08 0 81.92 40.96 81.92 92.16v699.733333c0 23.893333-10.24 47.786667-27.306667 64.853333-17.066667 18.773333-40.96 29.013333-64.853333 29.013334z"  /><path  d="M675.84 218.453333H348.16c-32.426667 0-59.733333-27.306667-59.733333-59.733333V93.866667c0-32.426667 27.306667-59.733333 59.733333-59.733334h329.386667c32.426667 0 59.733333 27.306667 59.733333 59.733334v64.853333c-1.706667 34.133333-27.306667 59.733333-61.44 59.733333zM348.16 85.333333c-5.12 0-8.533333 3.413333-8.533333 8.533334v64.853333c0 5.12 3.413333 8.533333 8.533333 8.533333h329.386667c5.12 0 8.533333-3.413333 8.533333-8.533333V93.866667c0-5.12-3.413333-8.533333-8.533333-8.533334H348.16zM443.733333 687.786667c-11.946667 0-23.893333-5.12-32.426666-13.653334l-102.4-105.813333c-10.24-10.24-10.24-25.6 0-35.84 10.24-10.24 25.6-10.24 35.84 0l97.28 102.4 235.52-220.16c10.24-10.24 27.306667-8.533333 35.84 1.706667 10.24 10.24 8.533333 27.306667-1.706667 35.84l-238.933333 223.573333c-8.533333 8.533333-18.773333 11.946667-29.013334 11.946667z"  /></svg>