<?xml version="1.0" standalone="no"?><!DOCTYPE svg PUBLIC "-//W3C//DTD SVG 1.1//EN" "http://www.w3.org/Graphics/SVG/1.1/DTD/svg11.dtd"><svg class="icon" width="64px" height="64.00px" viewBox="0 0 1024 1024" version="1.1" xmlns="http://www.w3.org/2000/svg"><path  d="M896 967.68h-768c-51.2 0-93.866667-42.666667-93.866667-93.866667V271.36c0-51.2 42.666667-93.866667 93.866667-93.866667h768c51.2 0 93.866667 42.666667 93.866667 93.866667v602.453333c0 51.2-42.666667 93.866667-93.866667 93.866667z m-768-738.986667c-23.893333 0-42.666667 18.773333-42.666667 42.666667v602.453333c0 23.893333 18.773333 42.666667 42.666667 42.666667h768c23.893333 0 42.666667-18.773333 42.666667-42.666667V271.36c0-23.893333-18.773333-42.666667-42.666667-42.666667h-768z"  /><path  d="M822.613333 428.373333H563.2c-13.653333 0-25.6-11.946667-25.6-25.6s11.946667-25.6 25.6-25.6h259.413333c13.653333 0 25.6 11.946667 25.6 25.6s-11.946667 25.6-25.6 25.6zM822.613333 600.746667H563.2c-13.653333 0-25.6-11.946667-25.6-25.6s11.946667-25.6 25.6-25.6h259.413333c13.653333 0 25.6 11.946667 25.6 25.6s-11.946667 25.6-25.6 25.6zM822.613333 810.666667H201.386667c-13.653333 0-25.6-11.946667-25.6-25.6s11.946667-25.6 25.6-25.6h621.226666c13.653333 0 25.6 11.946667 25.6 25.6s-11.946667 25.6-25.6 25.6zM853.333333 107.52H170.666667c-13.653333 0-25.6-11.946667-25.6-25.6s11.946667-25.6 25.6-25.6h682.666666c13.653333 0 25.6 11.946667 25.6 25.6s-11.946667 25.6-25.6 25.6zM390.826667 498.346667H201.386667c-13.653333 0-25.6-11.946667-25.6-25.6s11.946667-25.6 25.6-25.6h189.44c13.653333 0 25.6 11.946667 25.6 25.6s-11.946667 25.6-25.6 25.6zM390.826667 592.213333H201.386667c-13.653333 0-25.6-11.946667-25.6-25.6s11.946667-25.6 25.6-25.6h189.44c13.653333 0 25.6 11.946667 25.6 25.6s-11.946667 25.6-25.6 25.6z"  /><path  d="M295.253333 687.786667c-13.653333 0-25.6-11.946667-25.6-25.6V472.746667c0-13.653333 11.946667-25.6 25.6-25.6s25.6 11.946667 25.6 25.6v189.44c0 13.653333-10.24 25.6-25.6 25.6z"  /><path  d="M295.253333 493.226667l-112.64-112.64c-10.24-10.24-10.24-25.6 0-35.84s25.6-10.24 35.84 0l76.8 76.8 76.8-76.8c10.24-10.24 25.6-10.24 35.84 0s10.24 25.6 0 35.84l-112.64 112.64z"  /></svg>