<?xml version="1.0" standalone="no"?><!DOCTYPE svg PUBLIC "-//W3C//DTD SVG 1.1//EN" "http://www.w3.org/Graphics/SVG/1.1/DTD/svg11.dtd"><svg class="icon" width="64px" height="64.00px" viewBox="0 0 1024 1024" version="1.1" xmlns="http://www.w3.org/2000/svg"><path  d="M827.733333 899.413333h-631.466666c-51.2 0-93.866667-42.666667-93.866667-93.866666V331.093333c0-13.653333 11.946667-25.6 25.6-25.6h768c13.653333 0 25.6 11.946667 25.6 25.6v474.453334c0 51.2-40.96 93.866667-93.866667 93.866666zM153.6 356.693333v448.853334c0 23.893333 18.773333 42.666667 42.666667 42.666666h631.466666c23.893333 0 42.666667-18.773333 42.666667-42.666666V356.693333H153.6z"  /><path  d="M930.133333 356.693333h-836.266666c-32.426667 0-59.733333-27.306667-59.733334-59.733333v-112.64c0-32.426667 27.306667-59.733333 59.733334-59.733333h836.266666c32.426667 0 59.733333 27.306667 59.733334 59.733333v112.64c0 32.426667-27.306667 59.733333-59.733334 59.733333z m-836.266666-180.906666c-5.12 0-8.533333 3.413333-8.533334 8.533333v112.64c0 5.12 3.413333 8.533333 8.533334 8.533333h836.266666c5.12 0 8.533333-3.413333 8.533334-8.533333v-112.64c0-5.12-3.413333-8.533333-8.533334-8.533333h-836.266666zM512 778.24c-98.986667 0-179.2-80.213333-179.2-179.2S413.013333 419.84 512 419.84s179.2 80.213333 179.2 179.2S610.986667 778.24 512 778.24z m0-307.2c-69.973333 0-128 58.026667-128 128s58.026667 128 128 128 128-58.026667 128-128-58.026667-128-128-128z"  /><path  d="M482.986667 672.426667c-8.533333 0-17.066667-3.413333-23.893334-10.24l-42.666666-46.08c-10.24-10.24-10.24-25.6 0-35.84 10.24-10.24 25.6-10.24 35.84 0l30.72 32.426666 88.746666-83.626666c10.24-10.24 27.306667-8.533333 35.84 1.706666 10.24 10.24 8.533333 27.306667-1.706666 35.84l-102.4 95.573334c-5.12 8.533333-11.946667 10.24-20.48 10.24z"  /><path  d="M512 356.693333c-13.653333 0-25.6-11.946667-25.6-25.6V150.186667c0-13.653333 11.946667-25.6 25.6-25.6s25.6 11.946667 25.6 25.6v180.906666c0 13.653333-11.946667 25.6-25.6 25.6z"  /></svg>