<?xml version="1.0" standalone="no"?><!DOCTYPE svg PUBLIC "-//W3C//DTD SVG 1.1//EN" "http://www.w3.org/Graphics/SVG/1.1/DTD/svg11.dtd"><svg class="icon" width="64px" height="64.00px" viewBox="0 0 1024 1024" version="1.1" xmlns="http://www.w3.org/2000/svg"><path  d="M646.826667 858.453333H377.173333c-30.72 0-54.613333-23.893333-54.613333-54.613333V602.453333c0-13.653333 11.946667-25.6 25.6-25.6h325.973333c13.653333 0 25.6 11.946667 25.6 25.6v201.386667c1.706667 29.013333-23.893333 54.613333-52.906666 54.613333z m-273.066667-230.4v175.786667c0 1.706667 1.706667 3.413333 3.413333 3.413333h267.946667c1.706667 0 3.413333-1.706667 3.413333-3.413333V628.053333H373.76z"  /><path  d="M689.493333 628.053333H334.506667c-22.186667 0-39.253333-18.773333-39.253334-39.253333v-47.786667c0-22.186667 18.773333-39.253333 39.253334-39.253333h354.986666c22.186667 0 39.253333 18.773333 39.253334 39.253333v47.786667c1.706667 20.48-17.066667 39.253333-39.253334 39.253333z m-344.746666-51.2h332.8v-25.6H344.746667v25.6z"  /><path  d="M827.733333 989.866667h-631.466666c-51.2 0-93.866667-42.666667-93.866667-93.866667v-768C102.4 76.8 145.066667 34.133333 196.266667 34.133333h631.466666c51.2 0 93.866667 42.666667 93.866667 93.866667v768c0 51.2-42.666667 93.866667-93.866667 93.866667z m-631.466666-904.533334C172.373333 85.333333 153.6 104.106667 153.6 128v768c0 23.893333 18.773333 42.666667 42.666667 42.666667h631.466666c23.893333 0 42.666667-18.773333 42.666667-42.666667v-768C870.4 104.106667 851.626667 85.333333 827.733333 85.333333h-631.466666z"  /><path  d="M471.04 385.706667c-10.24 0-18.773333-3.413333-27.306667-11.946667l-59.733333-63.146667c-10.24-10.24-10.24-25.6 0-35.84 10.24-10.24 25.6-10.24 35.84 0l51.2 52.906667 133.12-122.88c10.24-10.24 27.306667-8.533333 35.84 1.706667 10.24 10.24 8.533333 27.306667-1.706667 35.84L496.64 375.466667c-6.826667 6.826667-17.066667 10.24-25.6 10.24z"  /></svg>