<?xml version="1.0" standalone="no"?><!DOCTYPE svg PUBLIC "-//W3C//DTD SVG 1.1//EN" "http://www.w3.org/Graphics/SVG/1.1/DTD/svg11.dtd"><svg class="icon" width="64px" height="64.00px" viewBox="0 0 1024 1024" version="1.1" xmlns="http://www.w3.org/2000/svg"><path  d="M819.029333 774.314667H513.024c-11.264 0-21.504-6.144-27.306667-16.554667-7.509333-12.970667-7.509333-30.890667 0-43.690667l152.917334-264.704c5.973333-10.410667 16.213333-16.554667 27.306666-16.554666 11.093333 0 21.333333 6.144 27.306667 16.384l153.088 264.704c7.509333 12.8 7.509333 30.890667 0 43.690666-5.973333 10.581333-16.213333 16.725333-27.306667 16.725334zM802.133333 739.669333z m-294.4-12.8z m31.744-3.754666h252.928l-126.464-218.794667-126.464 218.794667z"  /><path  d="M665.941333 652.629333c-14.165333 0-25.6-11.434667-25.6-25.6v-52.224c0-14.165333 11.434667-25.6 25.6-25.6s25.6 11.434667 25.6 25.6v52.224c0 14.165333-11.434667 25.6-25.6 25.6z"  /><path  d="M643.925333 688.810667a22.869333 22.016 90 1 0 44.032 0 22.869333 22.016 90 1 0-44.032 0Z"  /><path  d="M840.874667 894.976H274.773333a94.037333 94.037333 0 0 1-93.866666-93.866667V128c0-51.712 42.154667-93.866667 93.866666-93.866667h566.101334c51.712 0 93.866667 42.154667 93.866666 93.866667v673.109333c0 51.712-42.154667 93.866667-93.866666 93.866667zM274.773333 85.333333a42.666667 42.666667 0 0 0-42.666666 42.666667v673.109333a42.666667 42.666667 0 0 0 42.666666 42.666667h566.101334a42.666667 42.666667 0 0 0 42.666666-42.666667V128a42.666667 42.666667 0 0 0-42.666666-42.666667H274.773333z"  /><path  d="M756.394667 989.866667H175.957333c-47.786667 0-86.698667-38.912-86.698666-86.698667V215.722667c0-47.786667 38.912-86.698667 86.698666-86.698667h30.549334c14.165333 0 25.6 11.434667 25.6 25.6s-11.434667 25.6-25.6 25.6h-30.549334c-19.626667 0-35.498667 15.872-35.498666 35.498667v687.445333c0 19.626667 15.872 35.498667 35.498666 35.498667h580.437334c19.626667 0 35.498667-15.872 35.498666-35.498667v-33.792c0-14.165333 11.434667-25.6 25.6-25.6s25.6 11.434667 25.6 25.6v33.792c0 47.786667-38.912 86.698667-86.698666 86.698667z"  /><path  d="M754.005333 238.933333H361.642667c-14.165333 0-25.6-11.434667-25.6-25.6s11.434667-25.6 25.6-25.6h392.192c14.165333 0 25.6 11.434667 25.6 25.6S768 238.933333 754.005333 238.933333z"  /><path  d="M557.909333 357.717333h-196.266666c-14.165333 0-25.6-11.434667-25.6-25.6s11.434667-25.6 25.6-25.6h196.096c14.165333 0 25.6 11.434667 25.6 25.6s-11.434667 25.6-25.429334 25.6z"  /></svg>