<?xml version="1.0" standalone="no"?><!DOCTYPE svg PUBLIC "-//W3C//DTD SVG 1.1//EN" "http://www.w3.org/Graphics/SVG/1.1/DTD/svg11.dtd"><svg class="icon" width="64px" height="64.00px" viewBox="0 0 1024 1024" version="1.1" xmlns="http://www.w3.org/2000/svg"><path  d="M896 873.813333h-768c-51.2 0-93.866667-42.666667-93.866667-93.866666V244.053333c0-51.2 42.666667-93.866667 93.866667-93.866666h768c51.2 0 93.866667 42.666667 93.866667 93.866666v535.893334c0 51.2-42.666667 93.866667-93.866667 93.866666z m-768-672.426666c-23.893333 0-42.666667 18.773333-42.666667 42.666666v535.893334c0 23.893333 18.773333 42.666667 42.666667 42.666666h768c23.893333 0 42.666667-18.773333 42.666667-42.666666V244.053333c0-23.893333-18.773333-42.666667-42.666667-42.666666h-768z"  /><path  d="M384 349.866667H203.093333c-13.653333 0-25.6-11.946667-25.6-25.6s11.946667-25.6 25.6-25.6h180.906667c13.653333 0 25.6 11.946667 25.6 25.6s-11.946667 25.6-25.6 25.6zM312.32 515.413333h-110.933333c-13.653333 0-25.6-11.946667-25.6-25.6s11.946667-25.6 25.6-25.6h110.933333c13.653333 0 25.6 11.946667 25.6 25.6s-10.24 25.6-25.6 25.6zM820.906667 725.333333H203.093333c-13.653333 0-25.6-11.946667-25.6-25.6s11.946667-25.6 25.6-25.6h617.813334c13.653333 0 25.6 11.946667 25.6 25.6s-10.24 25.6-25.6 25.6z"  /><path  d="M503.466667 634.88c-6.826667 0-13.653333-3.413333-18.773334-6.826667-6.826667-6.826667-8.533333-15.36-6.826666-23.893333l18.773333-95.573333c1.706667-5.12 3.413333-10.24 6.826667-13.653334l203.093333-203.093333c10.24-10.24 25.6-10.24 35.84 0l76.8 76.8c10.24 10.24 10.24 25.6 0 35.84l-201.386667 204.8c-3.413333 3.413333-8.533333 6.826667-13.653333 6.826667l-95.573333 18.773333h-5.12z m95.573333-44.373333zM546.133333 525.653333l-10.24 51.2 51.2-10.24 179.2-179.2-40.96-40.96L546.133333 525.653333z"  /></svg>