<?xml version="1.0" standalone="no"?><!DOCTYPE svg PUBLIC "-//W3C//DTD SVG 1.1//EN" "http://www.w3.org/Graphics/SVG/1.1/DTD/svg11.dtd"><svg class="icon" width="64px" height="64.00px" viewBox="0 0 1024 1024" version="1.1" xmlns="http://www.w3.org/2000/svg"><path  d="M896 808.96h-768c-51.2 0-93.866667-42.666667-93.866667-93.866667V179.2C34.133333 128 76.8 85.333333 128 85.333333h768c51.2 0 93.866667 42.666667 93.866667 93.866667v535.893333c0 52.906667-42.666667 93.866667-93.866667 93.866667zM128 136.533333C104.106667 136.533333 85.333333 157.013333 85.333333 179.2v535.893333c0 23.893333 18.773333 42.666667 42.666667 42.666667h768c23.893333 0 42.666667-18.773333 42.666667-42.666667V179.2C938.666667 157.013333 919.893333 136.533333 896 136.533333h-768zM781.653333 938.666667H242.346667c-13.653333 0-25.6-11.946667-25.6-25.6s11.946667-25.6 25.6-25.6h539.306666c13.653333 0 25.6 11.946667 25.6 25.6s-11.946667 25.6-25.6 25.6z"  /><path  d="M430.08 517.12c-6.826667 0-13.653333-3.413333-18.773333-8.533333-10.24-10.24-10.24-25.6 0-35.84l194.56-187.733334c10.24-10.24 25.6-10.24 35.84 0 10.24 10.24 10.24 25.6 0 35.84l-194.56 187.733334c-3.413333 5.12-10.24 8.533333-17.066667 8.533333zM677.546667 617.813333H346.453333c-13.653333 0-25.6-11.946667-25.6-25.6s11.946667-25.6 25.6-25.6h331.093334c13.653333 0 25.6 11.946667 25.6 25.6s-11.946667 25.6-25.6 25.6z"  /></svg>