<?xml version="1.0" standalone="no"?><!DOCTYPE svg PUBLIC "-//W3C//DTD SVG 1.1//EN" "http://www.w3.org/Graphics/SVG/1.1/DTD/svg11.dtd"><svg class="icon" width="64px" height="64.00px" viewBox="0 0 1024 1024" version="1.1" xmlns="http://www.w3.org/2000/svg"><path  d="M898.389333 923.989333h-768a94.037333 94.037333 0 0 1-93.866666-93.866666v-648.533334c0-51.712 42.154667-93.866667 93.866666-93.866666h768c51.712 0 93.866667 42.154667 93.866667 93.866666v648.533334c0 51.712-42.154667 93.866667-93.866667 93.866666z m-768-785.066666a42.666667 42.666667 0 0 0-42.666666 42.666666v648.533334a42.666667 42.666667 0 0 0 42.666666 42.666666h768a42.666667 42.666667 0 0 0 42.666667-42.666666v-648.533334a42.666667 42.666667 0 0 0-42.666667-42.666666h-768z"  /><path  d="M472.746667 321.024H186.197333c-14.165333 0-25.6-11.434667-25.6-25.6s11.434667-25.6 25.6-25.6H472.746667c14.165333 0 25.6 11.434667 25.6 25.6s-11.434667 25.6-25.6 25.6zM472.746667 487.765333H186.197333c-14.165333 0-25.6-11.434667-25.6-25.6s11.434667-25.6 25.6-25.6H472.746667c14.165333 0 25.6 11.434667 25.6 25.6s-11.434667 25.6-25.6 25.6zM355.84 654.677333h-169.642667c-14.165333 0-25.6-11.434667-25.6-25.6s11.434667-25.6 25.6-25.6h169.642667c14.165333 0 25.6 11.434667 25.6 25.6s-11.434667 25.6-25.6 25.6z"  /><path  d="M864.256 791.04H577.706667c-14.165333 0-25.6-11.434667-25.6-25.6s11.434667-25.6 25.6-25.6h286.549333c14.165333 0 25.6 11.434667 25.6 25.6s-11.434667 25.6-25.6 25.6zM720.896 665.770667a123.904 123.904 0 1 1 0-247.808 123.904 123.904 0 1 1 0 247.808z m0-196.437334c-40.106667 0-72.704 32.597333-72.704 72.704s32.597333 72.704 72.704 72.704 72.704-32.597333 72.704-72.704-32.597333-72.704-72.704-72.704z"  /><path  d="M720.896 791.04c-14.165333 0-25.6-11.434667-25.6-25.6v-125.269333c0-14.165333 11.434667-25.6 25.6-25.6s25.6 11.434667 25.6 25.6v125.269333c0 14.165333-11.434667 25.6-25.6 25.6z"  /></svg>