<?xml version="1.0" standalone="no"?><!DOCTYPE svg PUBLIC "-//W3C//DTD SVG 1.1//EN" "http://www.w3.org/Graphics/SVG/1.1/DTD/svg11.dtd"><svg class="icon" width="64px" height="64.00px" viewBox="0 0 1024 1024" version="1.1" xmlns="http://www.w3.org/2000/svg"><path  d="M446.805333 989.866667H144.725333c-49.322667 0-89.429333-42.154667-89.429333-93.866667v-768C55.296 76.288 95.402667 34.133333 144.725333 34.133333h657.578667c49.322667 0 89.429333 42.154667 89.429333 93.866667v291.84c0 14.165333-11.434667 25.6-25.6 25.6s-25.6-11.434667-25.6-25.6V128c0-23.552-17.066667-42.666667-38.229333-42.666667H144.725333C123.733333 85.333333 106.496 104.448 106.496 128v768c0 23.552 17.066667 42.666667 38.229333 42.666667h302.08c14.165333 0 25.6 11.434667 25.6 25.6S460.8 989.866667 446.805333 989.866667z"  /><path  d="M721.237333 972.8c-136.533333 0-247.466667-110.933333-247.466666-247.466667S584.704 477.866667 721.237333 477.866667s247.466667 110.933333 247.466667 247.466666S857.6 972.8 721.237333 972.8z m0-443.733333c-108.202667 0-196.266667 88.064-196.266666 196.266666S613.034667 921.6 721.237333 921.6s196.266667-88.064 196.266667-196.266667S829.44 529.066667 721.237333 529.066667z"  /><path  d="M721.237333 758.954667c-14.165333 0-25.6-11.434667-25.6-25.6v-132.437334c0-14.165333 11.434667-25.6 25.6-25.6s25.6 11.434667 25.6 25.6v132.437334c0 14.165333-11.605333 25.6-25.6 25.6z"  /><path  d="M721.237333 816.469333m-33.28 0a33.28 33.28 0 1 0 66.56 0 33.28 33.28 0 1 0-66.56 0Z"  /><path  d="M433.493333 348.501333H217.941333c-14.165333 0-25.6-11.434667-25.6-25.6s11.434667-25.6 25.6-25.6H433.493333c14.165333 0 25.6 11.434667 25.6 25.6s-11.434667 25.6-25.6 25.6zM433.493333 456.362667H217.941333c-14.165333 0-25.6-11.434667-25.6-25.6s11.434667-25.6 25.6-25.6H433.493333c14.165333 0 25.6 11.434667 25.6 25.6s-11.434667 25.6-25.6 25.6z"  /><path  d="M325.973333 564.224c-14.165333 0-25.6-11.434667-25.6-25.6V322.901333c0-14.165333 11.434667-25.6 25.6-25.6s25.6 11.434667 25.6 25.6v215.552c0 14.165333-11.434667 25.770667-25.6 25.770667z"  /><path  d="M325.802667 341.162667l-125.952-125.952c-10.069333-10.069333-10.069333-26.282667 0-36.181334s26.282667-10.069333 36.181333 0l89.770667 89.6 89.6-89.6c10.069333-10.069333 26.282667-10.069333 36.181333 0s10.069333 26.282667 0 36.181334l-125.781333 125.952z"  /></svg>