<?xml version="1.0" standalone="no"?><!DOCTYPE svg PUBLIC "-//W3C//DTD SVG 1.1//EN" "http://www.w3.org/Graphics/SVG/1.1/DTD/svg11.dtd"><svg class="icon" width="64px" height="64.00px" viewBox="0 0 1024 1024" version="1.1" xmlns="http://www.w3.org/2000/svg"><path  d="M896 899.413333h-768c-51.2 0-93.866667-42.666667-93.866667-93.866666V218.453333c0-51.2 42.666667-93.866667 93.866667-93.866666h768c51.2 0 93.866667 42.666667 93.866667 93.866666v587.093334c0 51.2-42.666667 93.866667-93.866667 93.866666z m-768-723.626666c-23.893333 0-42.666667 18.773333-42.666667 42.666666v587.093334c0 23.893333 18.773333 42.666667 42.666667 42.666666h768c23.893333 0 42.666667-18.773333 42.666667-42.666666V218.453333c0-23.893333-18.773333-42.666667-42.666667-42.666666h-768z"  /><path  d="M964.266667 356.693333h-904.533334c-13.653333 0-25.6-11.946667-25.6-25.6s11.946667-25.6 25.6-25.6h904.533334c13.653333 0 25.6 11.946667 25.6 25.6s-11.946667 25.6-25.6 25.6zM489.813333 764.586667h-5.12c-13.653333-1.706667-23.893333-15.36-20.48-29.013334l46.08-249.173333c1.706667-13.653333 15.36-23.893333 29.013334-20.48 13.653333 1.706667 23.893333 15.36 20.48 29.013333l-46.08 249.173334c-1.706667 10.24-11.946667 20.48-23.893334 20.48zM670.72 764.586667c-6.826667 0-13.653333-1.706667-18.773333-6.826667-10.24-10.24-10.24-25.6 0-35.84l116.053333-116.053333-114.346667-95.573334c-10.24-8.533333-11.946667-25.6-3.413333-35.84 8.533333-10.24 25.6-11.946667 35.84-3.413333l136.533333 112.64c5.12 5.12 8.533333 11.946667 8.533334 18.773333 0 6.826667-1.706667 13.653333-6.826667 18.773334l-136.533333 136.533333c-5.12 3.413333-10.24 6.826667-17.066667 6.826667zM353.28 764.586667c-6.826667 0-13.653333-1.706667-18.773333-6.826667l-136.533334-136.533333c-5.12-5.12-8.533333-11.946667-6.826666-18.773334 0-6.826667 3.413333-13.653333 8.533333-18.773333l136.533333-112.64c10.24-8.533333 27.306667-6.826667 35.84 3.413333 8.533333 10.24 6.826667 27.306667-3.413333 35.84L256 604.16l116.053333 116.053333c10.24 10.24 10.24 25.6 0 35.84-5.12 5.12-11.946667 8.533333-18.773333 8.533334z"  /></svg>