<?xml version="1.0" standalone="no"?><!DOCTYPE svg PUBLIC "-//W3C//DTD SVG 1.1//EN" "http://www.w3.org/Graphics/SVG/1.1/DTD/svg11.dtd"><svg class="icon" width="64px" height="64.00px" viewBox="0 0 1024 1024" version="1.1" xmlns="http://www.w3.org/2000/svg"><path  d="M512 877.226667H128c-51.2 0-93.866667-42.666667-93.866667-93.866667V240.64c0-51.2 42.666667-93.866667 93.866667-93.866667h768c51.2 0 93.866667 42.666667 93.866667 93.866667V512c0 13.653333-11.946667 25.6-25.6 25.6S938.666667 525.653333 938.666667 512V240.64c0-23.893333-18.773333-42.666667-42.666667-42.666667h-768c-23.893333 0-42.666667 18.773333-42.666667 42.666667v542.72c0 23.893333 18.773333 42.666667 42.666667 42.666667H512c13.653333 0 25.6 11.946667 25.6 25.6s-11.946667 25.6-25.6 25.6z"  /><path  d="M964.266667 764.586667H648.533333c-13.653333 0-25.6-11.946667-25.6-25.6s11.946667-25.6 25.6-25.6h315.733334c13.653333 0 25.6 11.946667 25.6 25.6s-11.946667 25.6-25.6 25.6z"  /><path  d="M851.626667 877.226667c-6.826667 0-13.653333-1.706667-18.773334-6.826667-10.24-10.24-10.24-25.6 0-35.84l95.573334-95.573333-95.573334-95.573334c-10.24-10.24-10.24-25.6 0-35.84s25.6-10.24 35.84 0l112.64 112.64c10.24 10.24 10.24 25.6 0 35.84l-112.64 112.64c-5.12 5.12-10.24 8.533333-17.066666 8.533334zM512 544.426667c-5.12 0-10.24-1.706667-15.36-5.12l-426.666667-320.853334c-11.946667-8.533333-13.653333-23.893333-5.12-35.84 8.533333-11.946667 23.893333-13.653333 35.84-5.12L512 488.106667l411.306667-308.906667c11.946667-8.533333 27.306667-6.826667 35.84 5.12s6.826667 27.306667-5.12 35.84l-426.666667 320.853333c-5.12 1.706667-10.24 3.413333-15.36 3.413334z"  /></svg>