<?xml version="1.0" standalone="no"?><!DOCTYPE svg PUBLIC "-//W3C//DTD SVG 1.1//EN" "http://www.w3.org/Graphics/SVG/1.1/DTD/svg11.dtd"><svg class="icon" width="64px" height="64.00px" viewBox="0 0 1024 1024" version="1.1" xmlns="http://www.w3.org/2000/svg"><path  d="M382.293333 477.866667c-93.866667 0-168.96-75.093333-168.96-168.96s75.093333-168.96 168.96-168.96 168.96 75.093333 168.96 168.96-76.8 168.96-168.96 168.96z m0-286.72c-64.853333 0-117.76 52.906667-117.76 117.76s52.906667 117.76 117.76 117.76 117.76-52.906667 117.76-117.76-52.906667-117.76-117.76-117.76zM704.853333 884.053333c-13.653333 0-25.6-11.946667-25.6-25.6 0-163.84-133.12-296.96-296.96-296.96S85.333333 694.613333 85.333333 858.453333c0 13.653333-11.946667 25.6-25.6 25.6S34.133333 873.813333 34.133333 858.453333c0-191.146667 155.306667-348.16 348.16-348.16S730.453333 665.6 730.453333 858.453333c0 15.36-11.946667 25.6-25.6 25.6z"  /><path  d="M897.706667 866.986667h-81.92c-13.653333 0-25.6-11.946667-25.6-25.6s11.946667-25.6 25.6-25.6h81.92c22.186667 0 40.96-18.773333 40.96-40.96V232.106667c0-22.186667-18.773333-40.96-40.96-40.96H593.92c-13.653333 0-25.6-11.946667-25.6-25.6s11.946667-25.6 25.6-25.6h303.786667c51.2 0 92.16 40.96 92.16 92.16v542.72c0 51.2-40.96 92.16-92.16 92.16z"  /><path  d="M892.586667 337.92H651.946667c-13.653333 0-25.6-11.946667-25.6-25.6s11.946667-25.6 25.6-25.6h240.64c13.653333 0 25.6 11.946667 25.6 25.6s-11.946667 25.6-25.6 25.6zM892.586667 513.706667H718.506667c-13.653333 0-25.6-11.946667-25.6-25.6s11.946667-25.6 25.6-25.6h172.373333c13.653333 0 25.6 11.946667 25.6 25.6s-10.24 25.6-23.893333 25.6zM892.586667 691.2h-87.04c-13.653333 0-25.6-11.946667-25.6-25.6s11.946667-25.6 25.6-25.6h87.04c13.653333 0 25.6 11.946667 25.6 25.6s-11.946667 25.6-25.6 25.6z"  /></svg>