<?xml version="1.0" standalone="no"?><!DOCTYPE svg PUBLIC "-//W3C//DTD SVG 1.1//EN" "http://www.w3.org/Graphics/SVG/1.1/DTD/svg11.dtd"><svg class="icon" width="64px" height="64.00px" viewBox="0 0 1024 1024" version="1.1" xmlns="http://www.w3.org/2000/svg"><path  d="M274.602667 718.506667c-45.226667 0-82.090667-36.864-82.090667-82.090667s36.864-82.090667 82.090667-82.090667 82.090667 36.864 82.090666 82.090667-36.864 82.090667-82.090666 82.090667z m0-112.981334a30.890667 30.890667 0 1 0 0 61.781334 30.890667 30.890667 0 0 0 0-61.781334zM749.397333 718.506667c-45.226667 0-82.090667-36.864-82.090666-82.090667s36.864-82.090667 82.090666-82.090667 82.090667 36.864 82.090667 82.090667-36.693333 82.090667-82.090667 82.090667z m0-112.981334a30.890667 30.890667 0 1 0 0 61.781334 30.890667 30.890667 0 0 0 0-61.781334z"  /><path  d="M760.832 944.64c-62.976 0-114.517333-50.517333-116.053333-113.152H379.221333c-1.536 62.634667-53.077333 113.152-116.053333 113.152s-114.346667-50.517333-116.053333-113.152H127.658667C76.117333 831.658667 34.133333 789.674667 34.133333 738.133333V528.042667c0-61.44 34.133333-116.736 89.258667-144.213334l4.608-2.389333 49.493333-212.309333a115.6096 115.6096 0 0 1 112.981334-89.770667h445.269333c54.784 0 101.376 37.376 113.322667 90.794667l47.274666 211.456 4.437334 2.218666A160.375467 160.375467 0 0 1 989.866667 528.042667v210.090666c0 51.541333-41.984 93.525333-93.525334 93.525334h-19.626666c-1.536 62.464-52.906667 112.981333-115.882667 112.981333z m-407.04-164.181333h316.586667c14.165333 0 25.6 11.434667 25.6 25.6v22.698666c0 35.84 29.184 64.853333 64.853333 64.853334 35.84 0 64.853333-29.013333 64.853333-64.853334v-22.698666c0-14.165333 11.434667-25.6 25.6-25.6h45.226667c23.210667 0 42.325333-18.944 42.325333-42.325334V528.042667c0-41.984-23.381333-79.701333-60.928-98.474667l-15.36-7.68c-6.826667-3.413333-11.776-9.898667-13.482666-17.237333l-49.834667-223.232a64.512 64.512 0 0 0-63.317333-50.688h-445.44c-30.378667 0-56.32 20.650667-63.146667 50.176l-52.224 224.085333c-1.706667 7.338667-6.656 13.653333-13.482667 17.066667l-15.36 7.68A109.090133 109.090133 0 0 0 85.333333 528.042667v210.090666a42.325333 42.325333 0 0 0 42.325334 42.325334h45.226666c14.165333 0 25.6 11.434667 25.6 25.6v22.698666c0 35.84 29.013333 64.853333 64.853334 64.853334s64.853333-29.013333 64.853333-64.853334v-22.698666c0-14.165333 11.434667-25.6 25.6-25.6z"  /><path  d="M738.133333 492.373333h-452.266666a25.6 25.6 0 0 1-19.968-9.557333 25.6 25.6 0 0 1-4.949334-21.504l37.376-168.106667a70.382933 70.382933 0 0 1 69.12-55.466666h289.28c33.450667 0 61.952 22.869333 69.12 55.466666l37.376 168.106667c1.706667 7.509333-0.170667 15.530667-4.949333 21.504-4.949333 5.973333-12.288 9.557333-20.138667 9.557333z m-420.352-51.2h388.437334l-30.378667-137.045333c-2.048-9.045333-9.898667-15.36-19.114667-15.36H367.445333c-9.216 0-17.066667 6.314667-19.114666 15.36l-30.549334 137.045333z"  /></svg>