<?xml version="1.0" standalone="no"?><!DOCTYPE svg PUBLIC "-//W3C//DTD SVG 1.1//EN" "http://www.w3.org/Graphics/SVG/1.1/DTD/svg11.dtd"><svg class="icon" width="64px" height="64.00px" viewBox="0 0 1024 1024" version="1.1" xmlns="http://www.w3.org/2000/svg"><path  d="M836.266667 989.866667H187.733333c-51.2 0-93.866667-42.666667-93.866666-93.866667v-768C93.866667 76.8 136.533333 34.133333 187.733333 34.133333h648.533334c51.2 0 93.866667 42.666667 93.866666 93.866667v768c0 51.2-42.666667 93.866667-93.866666 93.866667zM187.733333 85.333333C163.84 85.333333 145.066667 104.106667 145.066667 128v768c0 23.893333 18.773333 42.666667 42.666666 42.666667h648.533334c23.893333 0 42.666667-18.773333 42.666666-42.666667v-768C878.933333 104.106667 860.16 85.333333 836.266667 85.333333H187.733333z"  /><path  d="M491.52 851.626667c-13.653333 0-25.6-11.946667-25.6-25.6V479.573333H307.2v346.453334c0 13.653333-11.946667 25.6-25.6 25.6s-25.6-11.946667-25.6-25.6V464.213333c0-18.773333 15.36-35.84 35.84-35.84h191.146667c18.773333 0 35.84 15.36 35.84 35.84v361.813334c-1.706667 13.653333-11.946667 25.6-27.306667 25.6z"  /><path  d="M587.093333 851.626667c-13.653333 0-25.6-11.946667-25.6-25.6v-204.8L477.866667 571.733333c-11.946667-6.826667-15.36-22.186667-8.533334-35.84 6.826667-11.946667 22.186667-15.36 35.84-8.533333l95.573334 58.026667c8.533333 5.12 11.946667 13.653333 11.946666 22.186666v220.16c0 11.946667-11.946667 23.893333-25.6 23.893334z"  /><path  d="M626.346667 851.626667H244.053333c-13.653333 0-25.6-11.946667-25.6-25.6s11.946667-25.6 25.6-25.6h380.586667c13.653333 0 25.6 11.946667 25.6 25.6s-10.24 25.6-23.893333 25.6z"  /><path  d="M773.12 293.546667h-136.533333c-13.653333 0-25.6-11.946667-25.6-25.6s11.946667-25.6 25.6-25.6h136.533333c13.653333 0 25.6 11.946667 25.6 25.6s-11.946667 25.6-25.6 25.6zM773.12 361.813333h-136.533333c-13.653333 0-25.6-11.946667-25.6-25.6s11.946667-25.6 25.6-25.6h136.533333c13.653333 0 25.6 11.946667 25.6 25.6s-11.946667 25.6-25.6 25.6z"  /><path  d="M704.853333 430.08c-13.653333 0-25.6-11.946667-25.6-25.6v-136.533333c0-13.653333 11.946667-25.6 25.6-25.6s25.6 11.946667 25.6 25.6v136.533333c0 15.36-11.946667 25.6-25.6 25.6z"  /><path  d="M704.853333 293.546667l-87.04-87.04c-10.24-10.24-10.24-25.6 0-35.84s25.6-10.24 35.84 0l49.493334 49.493333 49.493333-49.493333c10.24-10.24 25.6-10.24 35.84 0s10.24 25.6 0 35.84l-83.626667 87.04z"  /></svg>