<?xml version="1.0" standalone="no"?><!DOCTYPE svg PUBLIC "-//W3C//DTD SVG 1.1//EN" "http://www.w3.org/Graphics/SVG/1.1/DTD/svg11.dtd"><svg class="icon" width="64px" height="64.00px" viewBox="0 0 1024 1024" version="1.1" xmlns="http://www.w3.org/2000/svg"><path  d="M373.76 699.733333c-39.253333 0-71.68-32.426667-71.68-71.68 0-39.253333 32.426667-71.68 71.68-71.68s71.68 32.426667 71.68 71.68c0 39.253333-32.426667 71.68-71.68 71.68z m0-92.16c-11.946667 0-20.48 8.533333-20.48 20.48s8.533333 20.48 20.48 20.48 20.48-8.533333 20.48-20.48-10.24-20.48-20.48-20.48zM640 699.733333c-39.253333 0-71.68-32.426667-71.68-71.68 0-39.253333 32.426667-71.68 71.68-71.68s71.68 32.426667 71.68 71.68c0 39.253333-32.426667 71.68-71.68 71.68z m0-92.16c-11.946667 0-20.48 8.533333-20.48 20.48s8.533333 20.48 20.48 20.48 20.48-8.533333 20.48-20.48-10.24-20.48-20.48-20.48z"  /><path  d="M593.92 653.653333H419.84c-13.653333 0-25.6-11.946667-25.6-25.6s11.946667-25.6 25.6-25.6h148.48V375.466667H283.306667v226.986666h44.373333c13.653333 0 25.6 11.946667 25.6 25.6s-11.946667 25.6-25.6 25.6h-69.973333c-13.653333 0-25.6-11.946667-25.6-25.6V349.866667c0-13.653333 11.946667-25.6 25.6-25.6h336.213333c13.653333 0 25.6 11.946667 25.6 25.6v278.186666c-1.706667 13.653333-11.946667 25.6-25.6 25.6z"  /><path  d="M766.293333 653.653333h-71.68c-13.653333 0-25.6-11.946667-25.6-25.6s11.946667-25.6 25.6-25.6h46.08v-64.853333l-61.44-81.92h-61.44v170.666667c0 13.653333-11.946667 25.6-25.6 25.6s-25.6-11.946667-25.6-25.6V431.786667c0-13.653333 11.946667-25.6 25.6-25.6h98.986667c8.533333 0 15.36 3.413333 20.48 10.24l75.093333 98.986666c3.413333 5.12 5.12 10.24 5.12 15.36v98.986667c0 11.946667-10.24 23.893333-25.6 23.893333z"  /><path  d="M832.853333 989.866667H191.146667c-44.373333 0-81.92-40.96-81.92-92.16V126.293333c0-51.2 35.84-92.16 81.92-92.16h530.773333c6.826667 0 15.36 3.413333 18.773333 8.533334L907.946667 238.933333c3.413333 5.12 6.826667 10.24 6.826666 17.066667v640c0 52.906667-37.546667 93.866667-81.92 93.866667zM191.146667 85.333333c-17.066667 0-30.72 18.773333-30.72 40.96v769.706667c0 22.186667 13.653333 40.96 30.72 40.96h641.706666c17.066667 0 30.72-18.773333 30.72-40.96v-631.466667L709.973333 85.333333H191.146667z"  /><path  d="M889.173333 298.666667h-162.133333c-23.893333 0-42.666667-18.773333-42.666667-42.666667V59.733333c0-13.653333 11.946667-25.6 25.6-25.6s25.6 11.946667 25.6 25.6v187.733334h153.6c13.653333 0 25.6 11.946667 25.6 25.6s-11.946667 25.6-25.6 25.6z"  /></svg>