<?xml version="1.0" standalone="no"?><!DOCTYPE svg PUBLIC "-//W3C//DTD SVG 1.1//EN" "http://www.w3.org/Graphics/SVG/1.1/DTD/svg11.dtd"><svg class="icon" width="64px" height="64.00px" viewBox="0 0 1024 1024" version="1.1" xmlns="http://www.w3.org/2000/svg"><path  d="M836.266667 989.866667H187.733333c-51.2 0-93.866667-42.666667-93.866666-93.866667v-768C93.866667 76.8 136.533333 34.133333 187.733333 34.133333h648.533334c51.2 0 93.866667 42.666667 93.866666 93.866667v768c0 51.2-42.666667 93.866667-93.866666 93.866667zM187.733333 85.333333C163.84 85.333333 145.066667 104.106667 145.066667 128v768c0 23.893333 18.773333 42.666667 42.666666 42.666667h648.533334c23.893333 0 42.666667-18.773333 42.666666-42.666667v-768C878.933333 104.106667 860.16 85.333333 836.266667 85.333333H187.733333z"  /><path  d="M754.346667 411.306667H269.653333c-13.653333 0-25.6-11.946667-25.6-25.6V238.933333c0-13.653333 11.946667-25.6 25.6-25.6h482.986667c13.653333 0 25.6 11.946667 25.6 25.6v146.773334c1.706667 13.653333-10.24 25.6-23.893333 25.6z m-459.093334-51.2h431.786667v-95.573334H295.253333v95.573334zM428.373333 607.573333h-158.72c-13.653333 0-25.6-11.946667-25.6-25.6s11.946667-25.6 25.6-25.6h158.72c13.653333 0 25.6 11.946667 25.6 25.6s-10.24 25.6-25.6 25.6zM428.373333 761.173333h-158.72c-13.653333 0-25.6-11.946667-25.6-25.6s11.946667-25.6 25.6-25.6h158.72c13.653333 0 25.6 11.946667 25.6 25.6s-10.24 25.6-25.6 25.6zM645.12 629.76c-8.533333 0-15.36-3.413333-20.48-10.24L554.666667 529.066667c-8.533333-10.24-6.826667-27.306667 3.413333-35.84 10.24-8.533333 27.306667-6.826667 35.84 3.413333l51.2 64.853333 51.2-64.853333c8.533333-10.24 25.6-13.653333 35.84-3.413333 11.946667 8.533333 13.653333 25.6 3.413333 35.84L665.6 619.52c-5.12 6.826667-11.946667 10.24-20.48 10.24zM730.453333 718.506667h-170.666666c-13.653333 0-25.6-11.946667-25.6-25.6s11.946667-25.6 25.6-25.6h170.666666c13.653333 0 25.6 11.946667 25.6 25.6s-11.946667 25.6-25.6 25.6z"  /><path  d="M730.453333 629.76h-170.666666c-13.653333 0-25.6-11.946667-25.6-25.6s11.946667-25.6 25.6-25.6h170.666666c13.653333 0 25.6 11.946667 25.6 25.6s-11.946667 25.6-25.6 25.6z"  /><path  d="M645.12 808.96c-13.653333 0-25.6-11.946667-25.6-25.6V604.16c0-13.653333 11.946667-25.6 25.6-25.6s25.6 11.946667 25.6 25.6v179.2c0 13.653333-11.946667 25.6-25.6 25.6z"  /></svg>