<?xml version="1.0" standalone="no"?><!DOCTYPE svg PUBLIC "-//W3C//DTD SVG 1.1//EN" "http://www.w3.org/Graphics/SVG/1.1/DTD/svg11.dtd"><svg class="icon" width="64px" height="64.00px" viewBox="0 0 1024 1024" version="1.1" xmlns="http://www.w3.org/2000/svg"><path  d="M264.533333 954.026667c-59.733333 0-107.52-47.786667-107.52-107.52s47.786667-107.52 107.52-107.52 107.52 47.786667 107.52 107.52-47.786667 107.52-107.52 107.52z m0-163.84c-30.72 0-56.32 25.6-56.32 56.32s25.6 56.32 56.32 56.32 56.32-25.6 56.32-56.32-23.893333-56.32-56.32-56.32zM737.28 954.026667c-59.733333 0-107.52-47.786667-107.52-107.52s47.786667-107.52 107.52-107.52 107.52 47.786667 107.52 107.52-47.786667 107.52-107.52 107.52z m0-163.84c-30.72 0-56.32 25.6-56.32 56.32s25.6 56.32 56.32 56.32 56.32-25.6 56.32-56.32-23.893333-56.32-56.32-56.32z"  /><path  d="M655.36 872.106667h-307.2c-13.653333 0-25.6-11.946667-25.6-25.6s11.946667-25.6 25.6-25.6H631.466667V378.88h-40.96c-13.653333 0-25.6-11.946667-25.6-25.6s11.946667-25.6 25.6-25.6h66.56c13.653333 0 25.6 11.946667 25.6 25.6v493.226667c-1.706667 13.653333-11.946667 25.6-27.306667 25.6zM182.613333 872.106667H59.733333c-13.653333 0-25.6-11.946667-25.6-25.6V353.28c0-13.653333 11.946667-25.6 25.6-25.6h80.213334c13.653333 0 25.6 11.946667 25.6 25.6s-11.946667 25.6-25.6 25.6H85.333333v442.026667h97.28c13.653333 0 25.6 11.946667 25.6 25.6s-10.24 25.6-25.6 25.6z"  /><path  d="M964.266667 872.106667H836.266667c-13.653333 0-25.6-11.946667-25.6-25.6s11.946667-25.6 25.6-25.6h102.4v-139.946667l-119.466667-157.013333h-138.24v324.266666c0 13.653333-11.946667 25.6-25.6 25.6s-25.6-11.946667-25.6-25.6V496.64c0-13.653333 11.946667-25.6 25.6-25.6h175.786667c8.533333 0 15.36 3.413333 20.48 10.24l131.413333 174.08c3.413333 5.12 5.12 10.24 5.12 15.36v174.08c1.706667 15.36-10.24 27.306667-23.893333 27.306667z"  /><path  d="M312.32 436.906667h-49.493333c-13.653333 0-25.6-11.946667-25.6-25.6v-49.493334c0-6.826667 3.413333-13.653333 6.826666-18.773333l139.946667-139.946667c10.24-10.24 27.306667-10.24 35.84 0l49.493333 49.493334c10.24 10.24 10.24 25.6 0 35.84l-139.946666 139.946666c-3.413333 5.12-10.24 8.533333-17.066667 8.533334z m-23.893333-51.2h13.653333l114.346667-114.346667-13.653334-13.653333-114.346666 114.346666v13.653334z"  /><path  d="M358.4 563.2c-136.533333 0-247.466667-110.933333-247.466667-247.466667S221.866667 69.973333 358.4 69.973333s247.466667 110.933333 247.466667 247.466667S494.933333 563.2 358.4 563.2z m0-442.026667c-107.52 0-196.266667 88.746667-196.266667 196.266667S249.173333 512 358.4 512s196.266667-88.746667 196.266667-196.266667S465.92 121.173333 358.4 121.173333z"  /></svg>