<?xml version="1.0" standalone="no"?><!DOCTYPE svg PUBLIC "-//W3C//DTD SVG 1.1//EN" "http://www.w3.org/Graphics/SVG/1.1/DTD/svg11.dtd"><svg class="icon" width="64px" height="64.00px" viewBox="0 0 1024 1024" version="1.1" xmlns="http://www.w3.org/2000/svg"><path  d="M851.626667 943.786667H172.373333c-51.2 0-93.866667-42.666667-93.866666-93.866667V172.373333c0-51.2 42.666667-93.866667 93.866666-93.866666h679.253334c51.2 0 93.866667 42.666667 93.866666 93.866666v679.253334c0 51.2-42.666667 92.16-93.866666 92.16zM172.373333 129.706667c-23.893333 0-42.666667 18.773333-42.666666 42.666666v679.253334c0 23.893333 18.773333 42.666667 42.666666 42.666666h679.253334c23.893333 0 42.666667-18.773333 42.666666-42.666666V172.373333c0-23.893333-18.773333-42.666667-42.666666-42.666666H172.373333z"  /><path  d="M670.72 786.773333H353.28c-10.24 0-18.773333-5.12-22.186667-13.653333l-37.546666-76.8H59.733333c-13.653333 0-25.6-11.946667-25.6-25.6s11.946667-25.6 25.6-25.6h249.173334c10.24 0 18.773333 5.12 22.186666 13.653333l37.546667 76.8h285.013333l37.546667-76.8c5.12-8.533333 13.653333-13.653333 22.186667-13.653333h249.173333c13.653333 0 25.6 11.946667 25.6 25.6s-11.946667 25.6-25.6 25.6H732.16l-37.546667 76.8c-5.12 8.533333-15.36 13.653333-23.893333 13.653333zM670.72 595.626667H353.28c-13.653333 0-25.6-11.946667-25.6-25.6s11.946667-25.6 25.6-25.6h315.733333c13.653333 0 25.6 11.946667 25.6 25.6s-10.24 25.6-23.893333 25.6zM580.266667 361.813333h-136.533334c-13.653333 0-25.6-11.946667-25.6-25.6s11.946667-25.6 25.6-25.6h136.533334c13.653333 0 25.6 11.946667 25.6 25.6s-11.946667 25.6-25.6 25.6zM580.266667 430.08h-136.533334c-13.653333 0-25.6-11.946667-25.6-25.6s11.946667-25.6 25.6-25.6h136.533334c13.653333 0 25.6 11.946667 25.6 25.6s-11.946667 25.6-25.6 25.6z"  /><path  d="M512 498.346667c-13.653333 0-25.6-11.946667-25.6-25.6v-136.533334c0-13.653333 11.946667-25.6 25.6-25.6s25.6 11.946667 25.6 25.6v136.533334c0 13.653333-11.946667 25.6-25.6 25.6z"  /><path  d="M512 361.813333l-87.04-87.04c-10.24-10.24-10.24-25.6 0-35.84s25.6-10.24 35.84 0l49.493333 49.493334 49.493334-49.493334c10.24-10.24 25.6-10.24 35.84 0s10.24 25.6 0 35.84L512 361.813333z"  /></svg>