<?xml version="1.0" standalone="no"?><!DOCTYPE svg PUBLIC "-//W3C//DTD SVG 1.1//EN" "http://www.w3.org/Graphics/SVG/1.1/DTD/svg11.dtd"><svg class="icon" width="64px" height="64.00px" viewBox="0 0 1024 1024" version="1.1" xmlns="http://www.w3.org/2000/svg"><path  d="M59.733333 571.733333c-13.653333 0-25.6-11.946667-25.6-25.6 0-110.933333 102.4-201.386667 226.986667-201.386666 13.653333 0 25.6 11.946667 25.6 25.6s-11.946667 25.6-25.6 25.6C163.84 395.946667 85.333333 462.506667 85.333333 546.133333c0 13.653333-11.946667 25.6-25.6 25.6zM964.266667 571.733333c-13.653333 0-25.6-11.946667-25.6-25.6 0-134.826667-122.88-150.186667-175.786667-150.186666-13.653333 0-25.6-11.946667-25.6-25.6s11.946667-25.6 25.6-25.6C902.826667 344.746667 989.866667 421.546667 989.866667 546.133333c0 13.653333-11.946667 25.6-25.6 25.6z"  /><path  d="M762.88 395.946667c-13.653333 0-25.6-11.946667-25.6-25.6C737.28 232.106667 648.533333 143.36 512 143.36c-136.533333 0-225.28 88.746667-225.28 226.986667 0 13.653333-11.946667 25.6-25.6 25.6s-25.6-11.946667-25.6-25.6C235.52 204.8 346.453333 92.16 512 92.16s276.48 110.933333 276.48 278.186667c0 13.653333-10.24 25.6-25.6 25.6z"  /><path  d="M512 622.933333c-68.266667 0-122.88-54.613333-122.88-122.88s54.613333-122.88 122.88-122.88 122.88 54.613333 122.88 122.88-54.613333 122.88-122.88 122.88z m0-192.853333c-39.253333 0-71.68 32.426667-71.68 71.68s32.426667 71.68 71.68 71.68 71.68-32.426667 71.68-71.68-32.426667-71.68-71.68-71.68zM728.746667 931.84H295.253333c-13.653333 0-25.6-11.946667-25.6-25.6 0-134.826667 109.226667-242.346667 242.346667-242.346667 134.826667 0 242.346667 109.226667 242.346667 242.346667 0 13.653333-10.24 25.6-25.6 25.6z m-406.186667-51.2h380.586667c-11.946667-93.866667-93.866667-165.546667-189.44-165.546667-98.986667-1.706667-179.2 71.68-191.146667 165.546667z"  /></svg>