<?xml version="1.0" standalone="no"?><!DOCTYPE svg PUBLIC "-//W3C//DTD SVG 1.1//EN" "http://www.w3.org/Graphics/SVG/1.1/DTD/svg11.dtd"><svg class="icon" width="64px" height="64.00px" viewBox="0 0 1024 1024" version="1.1" xmlns="http://www.w3.org/2000/svg"><path  d="M394.24 989.866667H204.8c-51.2 0-93.866667-42.666667-93.866667-93.866667v-768C110.933333 76.8 153.6 34.133333 204.8 34.133333h614.4c51.2 0 93.866667 42.666667 93.866667 93.866667v331.093333c0 13.653333-11.946667 25.6-25.6 25.6s-25.6-11.946667-25.6-25.6V128C861.866667 104.106667 843.093333 85.333333 819.2 85.333333H204.8c-23.893333 0-42.666667 18.773333-42.666667 42.666667v768c0 23.893333 18.773333 42.666667 42.666667 42.666667h189.44c13.653333 0 25.6 11.946667 25.6 25.6s-11.946667 25.6-25.6 25.6z"  /><path  d="M686.08 279.893333H273.066667c-13.653333 0-25.6-11.946667-25.6-25.6s11.946667-25.6 25.6-25.6h413.013333c13.653333 0 25.6 11.946667 25.6 25.6s-11.946667 25.6-25.6 25.6zM515.413333 459.093333H273.066667c-13.653333 0-25.6-11.946667-25.6-25.6s11.946667-25.6 25.6-25.6h242.346666c13.653333 0 25.6 11.946667 25.6 25.6s-11.946667 25.6-25.6 25.6z"  /><path  d="M723.626667 802.133333h-39.253334c-66.56 0-121.173333-54.613333-121.173333-121.173333v-92.16c0-13.653333 11.946667-25.6 25.6-25.6H819.2c13.653333 0 25.6 11.946667 25.6 25.6v92.16c1.706667 66.56-52.906667 121.173333-121.173333 121.173333z m-107.52-187.733333v66.56c0 39.253333 30.72 69.973333 69.973333 69.973333h39.253333c39.253333 0 69.973333-30.72 69.973334-69.973333V614.4H616.106667z"  /><path  d="M820.906667 989.866667H590.506667c-13.653333 0-25.6-11.946667-25.6-25.6v-92.16c0-66.56 54.613333-121.173333 121.173333-121.173334h39.253333c66.56 0 121.173333 54.613333 121.173334 121.173334v92.16c0 13.653333-11.946667 25.6-25.6 25.6z m-204.8-51.2h179.2v-66.56c0-39.253333-30.72-69.973333-69.973334-69.973334h-39.253333c-39.253333 0-69.973333 30.72-69.973333 69.973334V938.666667zM870.4 614.4H539.306667c-13.653333 0-25.6-11.946667-25.6-25.6s11.946667-25.6 25.6-25.6H870.4c13.653333 0 25.6 11.946667 25.6 25.6S885.76 614.4 870.4 614.4z"  /><path  d="M870.4 989.866667H539.306667c-13.653333 0-25.6-11.946667-25.6-25.6s11.946667-25.6 25.6-25.6H870.4c13.653333 0 25.6 11.946667 25.6 25.6S885.76 989.866667 870.4 989.866667zM704.853333 665.6c-49.493333 0-88.746667 39.253333-88.746666 88.746667v6.826666h177.493333v-6.826666c0-47.786667-39.253333-88.746667-88.746667-88.746667z"  /><path  d="M704.853333 858.453333c-49.493333 0-88.746667 39.253333-88.746666 88.746667v6.826667h177.493333v-6.826667c0-49.493333-39.253333-88.746667-88.746667-88.746667z"  /></svg>