<?xml version="1.0" standalone="no"?><!DOCTYPE svg PUBLIC "-//W3C//DTD SVG 1.1//EN" "http://www.w3.org/Graphics/SVG/1.1/DTD/svg11.dtd"><svg class="icon" width="64px" height="64.00px" viewBox="0 0 1024 1024" version="1.1" xmlns="http://www.w3.org/2000/svg"><path  d="M762.88 769.706667H261.12c-13.653333 0-25.6-11.946667-25.6-25.6V580.266667c0-13.653333 11.946667-25.6 25.6-25.6h501.76c13.653333 0 25.6 11.946667 25.6 25.6v162.133333c0 15.36-11.946667 27.306667-25.6 27.306667z m-476.16-51.2h450.56v-110.933334H286.72v110.933334z"  /><path  d="M655.36 694.613333c17.066667 0 30.72-13.653333 30.72-30.72s-13.653333-30.72-30.72-30.72-30.72 13.653333-30.72 30.72c0 15.36 13.653333 30.72 30.72 30.72zM286.72 585.386667l-49.493333-10.24 63.146666-300.373334c1.706667-11.946667 13.653333-20.48 25.6-20.48h375.466667c11.946667 0 22.186667 8.533333 25.6 20.48l63.146667 300.373334-49.493334 10.24L682.666667 305.493333H344.746667l-58.026667 279.893334z"  /><path  d="M474.453333 530.773333h-15.36c-52.906667 0-85.333333-27.306667-85.333333-69.973333 0-37.546667 34.133333-69.973333 75.093333-69.973333 13.653333 0 25.6 11.946667 25.6 25.6s-10.24 27.306667-25.6 27.306666c-13.653333 0-23.893333 8.533333-23.893333 18.773334 0 5.12 0 18.773333 34.133333 18.773333h15.36c13.653333 0 25.6 11.946667 25.6 25.6s-11.946667 23.893333-25.6 23.893333zM564.906667 530.773333h-17.066667c-13.653333 0-25.6-11.946667-25.6-25.6s11.946667-25.6 25.6-25.6h17.066667c34.133333 0 34.133333-13.653333 34.133333-18.773333 0-5.12 0-18.773333-23.893333-18.773333-13.653333 0-25.6-11.946667-25.6-25.6s11.946667-25.6 25.6-25.6c46.08 0 75.093333 27.306667 75.093333 69.973333 0 42.666667-32.426667 69.973333-85.333333 69.973333z"  /><path  d="M575.146667 443.733333c-13.653333 0-25.6-11.946667-25.6-25.6 0-23.893333-13.653333-37.546667-37.546667-37.546666-23.893333 0-37.546667 13.653333-37.546667 37.546666 0 13.653333-11.946667 25.6-25.6 25.6s-25.6-11.946667-25.6-25.6c0-52.906667 35.84-88.746667 88.746667-88.746666 51.2 0 88.746667 35.84 88.746667 88.746666 0 13.653333-11.946667 25.6-25.6 25.6zM462.506667 479.573333H563.2v51.2h-100.693333z"  /><path  d="M836.266667 989.866667H187.733333c-51.2 0-93.866667-42.666667-93.866666-93.866667v-768C93.866667 76.8 136.533333 34.133333 187.733333 34.133333h648.533334c51.2 0 93.866667 42.666667 93.866666 93.866667v768c0 51.2-42.666667 93.866667-93.866666 93.866667zM187.733333 85.333333C163.84 85.333333 145.066667 104.106667 145.066667 128v768c0 23.893333 18.773333 42.666667 42.666666 42.666667h648.533334c23.893333 0 42.666667-18.773333 42.666666-42.666667v-768C878.933333 104.106667 860.16 85.333333 836.266667 85.333333H187.733333z"  /></svg>