<?xml version="1.0" standalone="no"?><!DOCTYPE svg PUBLIC "-//W3C//DTD SVG 1.1//EN" "http://www.w3.org/Graphics/SVG/1.1/DTD/svg11.dtd"><svg class="icon" width="64px" height="64.00px" viewBox="0 0 1024 1024" version="1.1" xmlns="http://www.w3.org/2000/svg"><path  d="M629.76 989.866667c-10.24 0-20.48-3.413333-29.013333-11.946667l-109.226667-93.866667-102.4 93.866667c-8.533333 8.533333-20.48 11.946667-30.72 11.946667-10.24 0-20.48-5.12-29.013333-11.946667L218.453333 887.466667 136.533333 974.506667c-11.946667 13.653333-30.72 17.066667-47.786666 10.24-17.066667-6.826667-27.306667-22.186667-27.306667-39.253334V129.706667C61.44 76.8 104.106667 34.133333 157.013333 34.133333h665.6c52.906667 0 95.573333 42.666667 95.573334 95.573334v153.6c0 13.653333-11.946667 25.6-25.6 25.6s-25.6-11.946667-25.6-25.6v-153.6c0-23.893333-20.48-44.373333-44.373334-44.373334h-665.6C133.12 85.333333 112.64 105.813333 112.64 129.706667v795.306666l73.386667-78.506666c8.533333-8.533333 18.773333-13.653333 30.72-13.653334 10.24 0 22.186667 3.413333 30.72 11.946667l110.933333 90.453333 105.813333-95.573333c15.36-11.946667 39.253333-11.946667 54.613334 1.706667l110.933333 93.866666 110.933333-93.866666c17.066667-15.36 44.373333-13.653333 59.733334 3.413333l68.266666 75.093333v-116.053333c0-13.653333 11.946667-25.6 25.6-25.6s25.6 11.946667 25.6 25.6v136.533333c0 18.773333-10.24 34.133333-27.306666 40.96-17.066667 6.826667-35.84 1.706667-47.786667-11.946666l-76.8-85.333334-107.52 90.453334c-10.24 11.946667-20.48 15.36-30.72 15.36z"  /><path  d="M749.226667 781.653333c-126.293333 0-230.4-104.106667-230.4-230.4s104.106667-230.4 230.4-230.4 230.4 104.106667 230.4 230.4-102.4 230.4-230.4 230.4z m0-409.6c-98.986667 0-179.2 80.213333-179.2 179.2s80.213333 179.2 179.2 179.2 179.2-80.213333 179.2-179.2-80.213333-179.2-179.2-179.2zM436.906667 365.226667H221.866667c-13.653333 0-25.6-11.946667-25.6-25.6s11.946667-25.6 25.6-25.6h215.04c13.653333 0 25.6 11.946667 25.6 25.6s-10.24 25.6-25.6 25.6zM436.906667 472.746667H221.866667c-13.653333 0-25.6-11.946667-25.6-25.6s11.946667-25.6 25.6-25.6h215.04c13.653333 0 25.6 11.946667 25.6 25.6s-10.24 25.6-25.6 25.6z"  /><path  d="M329.386667 581.973333c-13.653333 0-25.6-11.946667-25.6-25.6V339.626667c0-13.653333 11.946667-25.6 25.6-25.6s25.6 11.946667 25.6 25.6v215.04c0 15.36-10.24 27.306667-25.6 27.306666z"  /><path  d="M329.386667 358.4L204.8 232.106667c-10.24-10.24-10.24-25.6 0-35.84s25.6-10.24 35.84 0l90.453333 90.453333 90.453334-90.453333c10.24-10.24 25.6-10.24 35.84 0s10.24 25.6 0 35.84L329.386667 358.4z"  /><path  d="M680.96 616.106667c-11.946667 0-22.186667-8.533333-25.6-18.773334-3.413333-13.653333 5.12-27.306667 18.773333-30.72l69.973334-17.066666v-68.266667c0-13.653333 11.946667-25.6 25.6-25.6s25.6 11.946667 25.6 25.6v88.746667c0 11.946667-8.533333 22.186667-18.773334 25.6L687.786667 614.4c-3.413333 1.706667-5.12 1.706667-6.826667 1.706667z"  /></svg>