<?xml version="1.0" standalone="no"?><!DOCTYPE svg PUBLIC "-//W3C//DTD SVG 1.1//EN" "http://www.w3.org/Graphics/SVG/1.1/DTD/svg11.dtd"><svg class="icon" width="64px" height="64.00px" viewBox="0 0 1024 1024" version="1.1" xmlns="http://www.w3.org/2000/svg"><path  d="M419.84 686.08h-39.253333c-105.813333 0-167.253333-49.493333-167.253334-131.413333 0-71.68 66.56-131.413333 146.773334-131.413334 13.653333 0 25.6 11.946667 25.6 25.6s-11.946667 25.6-25.6 25.6c-52.906667 0-95.573333 35.84-95.573334 80.213334 0 66.56 63.146667 80.213333 116.053334 80.213333h39.253333c13.653333 0 25.6 11.946667 25.6 25.6s-10.24 25.6-25.6 25.6zM641.706667 686.08h-39.253334c-13.653333 0-25.6-11.946667-25.6-25.6s11.946667-25.6 25.6-25.6h39.253334c52.906667 0 117.76-13.653333 117.76-80.213333 0-69.973333-59.733333-80.213333-95.573334-80.213334-13.653333 0-25.6-11.946667-25.6-25.6s11.946667-25.6 25.6-25.6c90.453333 0 146.773333 49.493333 146.773334 131.413334 0 81.92-63.146667 131.413333-168.96 131.413333z"  /><path  d="M663.893333 474.453333c-13.653333 0-25.6-11.946667-25.6-25.6 0-76.8-49.493333-126.293333-126.293333-126.293333s-126.293333 47.786667-126.293333 126.293333c0 13.653333-11.946667 25.6-25.6 25.6s-25.6-11.946667-25.6-25.6c0-105.813333 71.68-177.493333 177.493333-177.493333 104.106667 0 177.493333 73.386667 177.493333 177.493333 0 13.653333-11.946667 25.6-25.6 25.6zM390.826667 634.88h242.346666v51.2H390.826667z"  /><path  d="M512 989.866667C249.173333 989.866667 34.133333 774.826667 34.133333 512S249.173333 34.133333 512 34.133333s477.866667 215.04 477.866667 477.866667-215.04 477.866667-477.866667 477.866667z m0-904.533334C276.48 85.333333 85.333333 276.48 85.333333 512s191.146667 426.666667 426.666667 426.666667 426.666667-191.146667 426.666667-426.666667S747.52 85.333333 512 85.333333z"  /></svg>