<?xml version="1.0" standalone="no"?><!DOCTYPE svg PUBLIC "-//W3C//DTD SVG 1.1//EN" "http://www.w3.org/Graphics/SVG/1.1/DTD/svg11.dtd"><svg class="icon" width="64px" height="64.00px" viewBox="0 0 1024 1024" version="1.1" xmlns="http://www.w3.org/2000/svg"><path  d="M747.52 986.453333c-126.293333 0-230.4-104.106667-230.4-230.4s104.106667-230.4 230.4-230.4 230.4 104.106667 230.4 230.4-102.4 230.4-230.4 230.4z m0-409.6c-98.986667 0-179.2 80.213333-179.2 179.2S648.533333 935.253333 747.52 935.253333s179.2-80.213333 179.2-179.2-80.213333-179.2-179.2-179.2z"  /><path  d="M808.96 761.173333h-122.88c-13.653333 0-25.6-11.946667-25.6-25.6s11.946667-25.6 25.6-25.6h122.88c13.653333 0 25.6 11.946667 25.6 25.6s-10.24 25.6-25.6 25.6zM808.96 822.613333h-122.88c-13.653333 0-25.6-11.946667-25.6-25.6s11.946667-25.6 25.6-25.6h122.88c13.653333 0 25.6 11.946667 25.6 25.6s-10.24 25.6-25.6 25.6z"  /><path  d="M747.52 884.053333c-13.653333 0-25.6-11.946667-25.6-25.6v-122.88c0-13.653333 11.946667-25.6 25.6-25.6s25.6 11.946667 25.6 25.6v122.88c0 15.36-10.24 25.6-25.6 25.6z"  /><path  d="M747.52 762.88L669.013333 682.666667c-10.24-10.24-10.24-25.6 0-35.84s25.6-10.24 35.84 0l42.666667 42.666666 42.666667-42.666666c10.24-10.24 25.6-10.24 35.84 0s10.24 25.6 0 35.84l-78.506667 80.213333z"  /><path  d="M445.44 976.213333h-3.413333C211.626667 940.373333 46.08 744.106667 46.08 512 46.08 252.586667 256 42.666667 515.413333 42.666667c186.026667 0 354.986667 109.226667 430.08 279.893333 15.36 35.84 27.306667 71.68 32.426667 110.933333 1.706667 13.653333-6.826667 27.306667-20.48 29.013334-13.653333 1.706667-27.306667-6.826667-29.013333-20.48-5.12-34.133333-15.36-66.56-29.013334-98.986667-68.266667-151.893333-218.453333-249.173333-384-249.173333-230.4 0-418.133333 187.733333-418.133333 418.133333 0 208.213333 148.48 380.586667 353.28 413.013333 13.653333 1.706667 23.893333 15.36 22.186667 29.013334-3.413333 13.653333-13.653333 22.186667-27.306667 22.186666z"  /><path  d="M331.093333 600.746667c-11.946667 0-22.186667-8.533333-25.6-18.773334-3.413333-13.653333 5.12-27.306667 18.773334-30.72l177.493333-44.373333V332.8c0-13.653333 11.946667-25.6 25.6-25.6s25.6 11.946667 25.6 25.6v192.853333c0 11.946667-8.533333 22.186667-18.773333 25.6l-196.266667 49.493334h-6.826667z"  /></svg>