<?xml version="1.0" standalone="no"?><!DOCTYPE svg PUBLIC "-//W3C//DTD SVG 1.1//EN" "http://www.w3.org/Graphics/SVG/1.1/DTD/svg11.dtd"><svg class="icon" width="64px" height="64.00px" viewBox="0 0 1024 1024" version="1.1" xmlns="http://www.w3.org/2000/svg"><path  d="M896 913.066667h-768C76.8 913.066667 34.133333 870.4 34.133333 819.2V204.8c0-51.2 42.666667-93.866667 93.866667-93.866667h768c51.2 0 93.866667 42.666667 93.866667 93.866667v614.4c0 51.2-42.666667 93.866667-93.866667 93.866667z m-768-750.933334C104.106667 162.133333 85.333333 180.906667 85.333333 204.8v614.4c0 23.893333 18.773333 42.666667 42.666667 42.666667h768c23.893333 0 42.666667-18.773333 42.666667-42.666667V204.8c0-23.893333-18.773333-42.666667-42.666667-42.666667h-768z"  /><path  d="M334.506667 476.16c-8.533333 0-15.36-3.413333-20.48-10.24l-102.4-129.706667c-8.533333-10.24-6.826667-27.306667 3.413333-35.84 10.24-8.533333 27.306667-6.826667 35.84 3.413334l83.626667 104.106666 83.626666-104.106666c8.533333-10.24 25.6-13.653333 35.84-3.413334 10.24 8.533333 13.653333 25.6 3.413334 35.84l-102.4 129.706667c-5.12 6.826667-11.946667 10.24-20.48 10.24zM459.093333 605.866667H211.626667c-13.653333 0-25.6-11.946667-25.6-25.6s11.946667-25.6 25.6-25.6h247.466666c13.653333 0 25.6 11.946667 25.6 25.6s-11.946667 25.6-25.6 25.6z"  /><path  d="M459.093333 476.16H211.626667c-13.653333 0-25.6-11.946667-25.6-25.6s11.946667-25.6 25.6-25.6h247.466666c13.653333 0 25.6 11.946667 25.6 25.6s-11.946667 25.6-25.6 25.6z"  /><path  d="M334.506667 737.28c-13.653333 0-25.6-11.946667-25.6-25.6V450.56c0-13.653333 11.946667-25.6 25.6-25.6s25.6 11.946667 25.6 25.6v261.12c0 13.653333-11.946667 25.6-25.6 25.6z"  /><path  d="M810.666667 465.92H633.173333c-13.653333 0-25.6-11.946667-25.6-25.6s11.946667-25.6 25.6-25.6h179.2c13.653333 0 25.6 11.946667 25.6 25.6s-11.946667 25.6-27.306666 25.6z"  /><path  d="M721.92 556.373333c-13.653333 0-25.6-11.946667-25.6-25.6V351.573333c0-13.653333 11.946667-25.6 25.6-25.6s25.6 11.946667 25.6 25.6v179.2c0 13.653333-11.946667 25.6-25.6 25.6z"  /><path  d="M810.666667 713.386667H633.173333c-13.653333 0-25.6-11.946667-25.6-25.6s11.946667-25.6 25.6-25.6h179.2c13.653333 0 25.6 11.946667 25.6 25.6s-11.946667 25.6-27.306666 25.6z"  /></svg>