<?xml version="1.0" standalone="no"?><!DOCTYPE svg PUBLIC "-//W3C//DTD SVG 1.1//EN" "http://www.w3.org/Graphics/SVG/1.1/DTD/svg11.dtd"><svg class="icon" width="64px" height="64.00px" viewBox="0 0 1024 1024" version="1.1" xmlns="http://www.w3.org/2000/svg"><path d="M387.413333 954.026667c-5.12 0-10.24-1.706667-15.36-5.12l-122.88-88.746667-138.24 88.746667c-6.826667 6.826667-17.066667 6.826667-25.6 1.706666-8.533333-5.12-13.653333-13.653333-13.653333-22.186666V170.666667c0-73.386667 59.733333-134.826667 134.826667-134.826667h564.906666c73.386667 0 134.826667 59.733333 134.826667 134.826667v269.653333c0 13.653333-11.946667 25.6-25.6 25.6s-27.306667-11.946667-27.306667-25.6V170.666667c0-46.08-37.546667-83.626667-83.626666-83.626667h-563.2c-46.08 0-83.626667 37.546667-83.626667 83.626667v711.68l112.64-73.386667c8.533333-5.12 20.48-5.12 29.013333 0l136.533334 98.986667c11.946667 8.533333 13.653333 23.893333 5.12 35.84-3.413333 6.826667-11.946667 10.24-18.773334 10.24z"  /><path d="M708.266667 324.266667H267.946667c-13.653333 0-25.6-11.946667-25.6-25.6s11.946667-25.6 25.6-25.6h440.32c13.653333 0 25.6 11.946667 25.6 25.6s-10.24 25.6-25.6 25.6zM469.333333 498.346667H267.946667c-13.653333 0-25.6-11.946667-25.6-25.6s11.946667-25.6 25.6-25.6h201.386666c13.653333 0 25.6 11.946667 25.6 25.6s-11.946667 25.6-25.6 25.6zM691.2 991.573333c-143.36 0-261.12-116.053333-261.12-261.12S546.133333 469.333333 691.2 469.333333s261.12 116.053333 261.12 261.12-117.76 261.12-261.12 261.12z m0-469.333333c-116.053333 0-209.92 93.866667-209.92 209.92s93.866667 209.92 209.92 209.92 209.92-93.866667 209.92-209.92-93.866667-209.92-209.92-209.92z"  /><path d="M808.96 781.653333h-165.546667v-168.96c0-13.653333 11.946667-25.6 25.6-25.6s25.6 11.946667 25.6 25.6v117.76h114.346667c13.653333 0 25.6 11.946667 25.6 25.6s-11.946667 25.6-25.6 25.6z"  /></svg>