<?xml version="1.0" standalone="no"?><!DOCTYPE svg PUBLIC "-//W3C//DTD SVG 1.1//EN" "http://www.w3.org/Graphics/SVG/1.1/DTD/svg11.dtd"><svg class="icon" width="64px" height="64.00px" viewBox="0 0 1024 1024" version="1.1" xmlns="http://www.w3.org/2000/svg"><path  d="M172.373333 585.386667c-13.653333 0-30.72-3.413333-47.786666-11.946667-34.133333-17.066667-58.026667-52.906667-69.973334-105.813333-27.306667-114.346667 0-189.44 83.626667-235.52 8.533333-42.666667 46.08-172.373333 160.426667-174.08h8.533333c165.546667 0 170.666667 122.88 170.666667 124.586666 0 13.653333-10.24 25.6-23.893334 27.306667-13.653333 0-25.6-10.24-27.306666-23.893333 0-8.533333-6.826667-78.506667-126.293334-75.093334-92.16 1.706667-114.346667 143.36-114.346666 145.066667l-1.706667 13.653333-11.946667 5.12c-51.2 25.6-95.573333 66.56-66.56 184.32 8.533333 37.546667 23.893333 63.146667 44.373334 73.386667 22.186667 10.24 44.373333 3.413333 44.373333 3.413333 13.653333-5.12 27.306667 1.706667 34.133333 13.653334 5.12 13.653333-1.706667 27.306667-13.653333 34.133333-3.413333-3.413333-20.48 1.706667-42.666667 1.706667z"  /><path  d="M651.946667 206.506667c-8.533333 0-17.066667-5.12-22.186667-13.653334-35.84-66.56-75.093333-102.4-116.053333-107.52-49.493333-6.826667-88.746667 34.133333-88.746667 34.133334-10.24 10.24-25.6 10.24-35.84 1.706666-10.24-10.24-10.24-25.6-1.706667-35.84 1.706667-1.706667 58.026667-59.733333 133.12-49.493333 58.026667 6.826667 110.933333 52.906667 155.306667 133.12 6.826667 11.946667 1.706667 27.306667-10.24 34.133333-5.12 3.413333-10.24 3.413333-13.653333 3.413334z"  /><path  d="M822.613333 262.826667c-11.946667 0-23.893333-8.533333-25.6-22.186667-8.533333-49.493333-27.306667-83.626667-56.32-100.693333-51.2-27.306667-119.466667 1.706667-119.466666 1.706666-13.653333 5.12-27.306667 0-34.133334-13.653333-5.12-13.653333 0-27.306667 13.653334-34.133333 3.413333-1.706667 92.16-39.253333 165.546666 0 44.373333 23.893333 71.68 69.973333 83.626667 136.533333 1.706667 13.653333-6.826667 27.306667-20.48 29.013333-3.413333 3.413333-5.12 3.413333-6.826667 3.413334z"  /><path  d="M817.493333 612.693333c-27.306667 0-56.32-3.413333-90.453333-10.24-13.653333-3.413333-22.186667-17.066667-20.48-30.72 3.413333-13.653333 17.066667-22.186667 30.72-20.48 73.386667 15.36 128 11.946667 160.426667-10.24 17.066667-11.946667 25.6-29.013333 29.013333-51.2 3.413333-25.6-15.36-71.68-29.013333-93.866666l-6.826667-11.946667 6.826667-11.946667c18.773333-37.546667 22.186667-68.266667 10.24-93.866666-23.893333-49.493333-102.4-66.56-104.106667-66.56-13.653333-3.413333-22.186667-17.066667-20.48-30.72 3.413333-13.653333 17.066667-22.186667 30.72-20.48 3.413333 0 104.106667 22.186667 139.946667 95.573333 18.773333 37.546667 17.066667 80.213333-5.12 128 11.946667 23.893333 32.426667 73.386667 29.013333 112.64-5.12 35.84-22.186667 66.56-49.493333 87.04-27.306667 18.773333-64.853333 29.013333-110.933334 29.013333z"  /><path  d="M384 768c-54.613333 0-102.4-11.946667-131.413333-42.666667-22.186667-23.893333-40.96-69.973333-5.12-148.48 5.12-13.653333 20.48-18.773333 34.133333-11.946666 13.653333 5.12 18.773333 20.48 11.946667 34.133333-20.48 44.373333-20.48 75.093333-5.12 93.866667 35.84 37.546667 155.306667 34.133333 278.186666-10.24 148.48-52.906667 175.786667-206.506667 177.493334-213.333334 1.706667-13.653333 15.36-23.893333 29.013333-20.48 13.653333 1.706667 23.893333 15.36 20.48 29.013334-1.706667 8.533333-32.426667 189.44-209.92 252.586666C523.946667 750.933333 450.56 768 384 768z"  /><path  d="M285.013333 612.693333c-22.186667 0-42.666667-5.12-59.733333-13.653333-29.013333-13.653333-47.786667-39.253333-58.026667-76.8-18.773333-66.56 54.613333-124.586667 63.146667-129.706667 11.946667-8.533333 27.306667-6.826667 35.84 5.12s6.826667 27.306667-5.12 35.84c-13.653333 10.24-52.906667 47.786667-44.373333 75.093334 6.826667 22.186667 17.066667 35.84 32.426666 44.373333 25.6 13.653333 71.68 8.533333 129.706667-13.653333 63.146667-23.893333 90.453333-20.48 119.466667-11.946667 13.653333 3.413333 20.48 5.12 37.546666-1.706667 23.893333-8.533333 30.72-32.426667 34.133334-40.96 5.12-22.186667 0-44.373333-11.946667-58.026666-11.946667-8.533333-11.946667-23.893333-1.706667-34.133334 10.24-10.24 27.306667-8.533333 35.84 1.706667 23.893333 25.6 34.133333 64.853333 23.893334 104.106667-8.533333 37.546667-32.426667 64.853333-64.853334 76.8-32.426667 11.946667-51.2 6.826667-68.266666 1.706666-18.773333-5.12-35.84-10.24-88.746667 10.24-42.666667 17.066667-78.506667 25.6-109.226667 25.6z"  /><path  d="M288.426667 450.56c-49.493333 0-90.453333-40.96-90.453334-90.453333s40.96-90.453333 90.453334-90.453334 90.453333 40.96 90.453333 90.453334-40.96 90.453333-90.453333 90.453333z m0-128c-20.48 0-39.253333 17.066667-39.253334 39.253333s17.066667 39.253333 39.253334 39.253334 39.253333-17.066667 39.253333-39.253334-17.066667-39.253333-39.253333-39.253333zM530.773333 450.56c-49.493333 0-90.453333-40.96-90.453333-90.453333s40.96-90.453333 90.453333-90.453334 90.453333 40.96 90.453334 90.453334-40.96 90.453333-90.453334 90.453333z m0-128c-20.48 0-39.253333 17.066667-39.253333 39.253333s17.066667 39.253333 39.253333 39.253334c20.48 0 39.253333-17.066667 39.253334-39.253334s-18.773333-39.253333-39.253334-39.253333zM774.826667 493.226667c-49.493333 0-90.453333-40.96-90.453334-90.453334s40.96-90.453333 90.453334-90.453333 90.453333 40.96 90.453333 90.453333-40.96 90.453333-90.453333 90.453334z m0-128c-20.48 0-39.253333 17.066667-39.253334 39.253333s17.066667 39.253333 39.253334 39.253333c20.48 0 39.253333-17.066667 39.253333-39.253333s-17.066667-39.253333-39.253333-39.253333zM508.586667 989.866667c-49.493333 0-90.453333-40.96-90.453334-90.453334s40.96-90.453333 90.453334-90.453333 90.453333 40.96 90.453333 90.453333-40.96 90.453333-90.453333 90.453334z m0-128c-20.48 0-39.253333 17.066667-39.253334 39.253333s17.066667 39.253333 39.253334 39.253333c20.48 0 39.253333-17.066667 39.253333-39.253333s-17.066667-39.253333-39.253333-39.253333z"  /><path  d="M573.44 925.013333c-11.946667 0-22.186667-8.533333-25.6-20.48-1.706667-13.653333 6.826667-27.306667 20.48-29.013333 1.706667 0 59.733333-11.946667 85.333333-66.56 20.48-47.786667-52.906667-92.16-52.906666-92.16-11.946667-6.826667-15.36-22.186667-8.533334-35.84 6.826667-11.946667 22.186667-15.36 35.84-8.533333 42.666667 25.6 105.813333 87.04 73.386667 157.013333-35.84 80.213333-119.466667 95.573333-122.88 97.28-1.706667-1.706667-3.413333-1.706667-5.12-1.706667z"  /></svg>