<?xml version="1.0" standalone="no"?><!DOCTYPE svg PUBLIC "-//W3C//DTD SVG 1.1//EN" "http://www.w3.org/Graphics/SVG/1.1/DTD/svg11.dtd"><svg class="icon" width="64px" height="64.00px" viewBox="0 0 1024 1024" version="1.1" xmlns="http://www.w3.org/2000/svg"><path  d="M805.546667 989.866667H218.453333a94.037333 94.037333 0 0 1-93.866666-93.866667v-768C124.586667 76.288 166.741333 34.133333 218.453333 34.133333h451.925334c7.509333 0 14.506667 3.242667 19.456 8.874667l203.605333 237.397333c3.925333 4.608 6.144 10.581333 6.144 16.725334V896c-0.170667 51.712-42.325333 93.866667-94.037333 93.866667zM218.453333 85.333333a42.666667 42.666667 0 0 0-42.666666 42.666667v768a42.666667 42.666667 0 0 0 42.666666 42.666667h587.093334a42.666667 42.666667 0 0 0 42.666666-42.666667V306.688L658.432 85.333333H218.453333z"  /><path  d="M444.074667 786.261333h-135.68c-14.165333 0-25.6-11.434667-25.6-25.6V602.453333c0-14.165333 11.434667-25.6 25.6-25.6h135.68c14.165333 0 25.6 11.434667 25.6 25.6v158.208c0 14.165333-11.434667 25.6-25.6 25.6z m-109.909334-51.2h84.48V628.053333h-84.48v107.008z"  /><path  d="M738.133333 786.261333h-452.266666c-14.165333 0-25.6-11.434667-25.6-25.6s11.434667-25.6 25.6-25.6h452.266666c14.165333 0 25.6 11.434667 25.6 25.6s-11.434667 25.6-25.6 25.6z"  /><path  d="M579.925333 786.261333h-135.68c-14.165333 0-25.6-11.434667-25.6-25.6v-271.36c0-14.165333 11.434667-25.6 25.6-25.6h135.68c14.165333 0 25.6 11.434667 25.6 25.6v271.36c0 14.165333-11.605333 25.6-25.6 25.6z m-110.250666-51.2h84.48v-220.16h-84.48v220.16z"  /><path  d="M715.434667 786.261333h-135.68c-14.165333 0-25.6-11.434667-25.6-25.6V376.32c0-14.165333 11.434667-25.6 25.6-25.6h135.68c14.165333 0 25.6 11.434667 25.6 25.6v384.341333c0 14.165333-11.434667 25.6-25.6 25.6z m-109.909334-51.2h84.48V401.92h-84.48v333.141333z"  /></svg>