<?xml version="1.0" standalone="no"?><!DOCTYPE svg PUBLIC "-//W3C//DTD SVG 1.1//EN" "http://www.w3.org/Graphics/SVG/1.1/DTD/svg11.dtd"><svg class="icon" width="64px" height="64.00px" viewBox="0 0 1024 1024" version="1.1" xmlns="http://www.w3.org/2000/svg"><path  d="M495.445333 401.92c-65.877333 0-119.466667-53.589333-119.466666-119.466667s53.589333-119.466667 119.466666-119.466666 119.466667 53.589333 119.466667 119.466666-53.589333 119.466667-119.466667 119.466667z m0-187.904c-37.717333 0-68.266667 30.72-68.266666 68.266667s30.72 68.266667 68.266666 68.266666 68.266667-30.72 68.266667-68.266666-30.549333-68.266667-68.266667-68.266667zM284.16 674.816c-14.165333 0-25.6-11.434667-25.6-25.6 0-130.730667 106.325333-236.885333 236.885333-236.885333 59.392 0 116.224 22.016 160.085334 62.122666a25.617067 25.617067 0 0 1-34.645334 37.717334 185.412267 185.412267 0 0 0-125.44-48.810667c-102.4 0-185.685333 83.285333-185.685333 185.685333a25.6 25.6 0 0 1-25.6 25.770667z"  /><path  d="M739.84 592.554667h-139.434667c-14.165333 0-25.6-11.434667-25.6-25.6s11.434667-25.6 25.6-25.6h139.434667c14.165333 0 25.6 11.434667 25.6 25.6s-11.434667 25.6-25.6 25.6zM739.84 658.261333h-139.434667c-14.165333 0-25.6-11.434667-25.6-25.6s11.434667-25.6 25.6-25.6h139.434667c14.165333 0 25.6 11.434667 25.6 25.6s-11.434667 25.6-25.6 25.6z"  /><path  d="M896.341333 797.696H127.658667C76.117333 797.696 34.133333 755.712 34.133333 704.170667V161.450667c0-51.541333 41.984-93.354667 93.525334-93.354667h768.853333c51.541333 0 93.525333 41.984 93.525333 93.354667v542.72c-0.170667 51.541333-42.154667 93.525333-93.696 93.525333zM127.658667 119.296C104.277333 119.296 85.333333 138.24 85.333333 161.450667v542.72a42.325333 42.325333 0 0 0 42.325334 42.325333h768.853333c23.210667 0 42.325333-18.944 42.325333-42.325333V161.450667c0-23.210667-18.944-42.154667-42.325333-42.154667H127.658667z"  /><path  d="M512 955.904c-14.165333 0-25.6-11.434667-25.6-25.6v-158.208c0-14.165333 11.434667-25.6 25.6-25.6s25.6 11.434667 25.6 25.6v158.208c0 14.165333-11.434667 25.6-25.6 25.6z"  /><path  d="M828.586667 955.904h-633.173334c-14.165333 0-25.6-11.434667-25.6-25.6s11.434667-25.6 25.6-25.6h633.173334c14.165333 0 25.6 11.434667 25.6 25.6s-11.434667 25.6-25.6 25.6z"  /></svg>