<?xml version="1.0" standalone="no"?><!DOCTYPE svg PUBLIC "-//W3C//DTD SVG 1.1//EN" "http://www.w3.org/Graphics/SVG/1.1/DTD/svg11.dtd"><svg class="icon" width="64px" height="64.00px" viewBox="0 0 1024 1024" version="1.1" xmlns="http://www.w3.org/2000/svg"><path  d="M928.426667 926.72H88.746667c-32.426667 0-58.026667-25.6-58.026667-58.026667V221.866667c0-32.426667 25.6-58.026667 58.026667-58.026667h78.506666v51.2H88.746667c-3.413333 0-6.826667 3.413333-6.826667 6.826667v646.826666c0 3.413333 3.413333 6.826667 6.826667 6.826667h839.68c3.413333 0 6.826667-3.413333 6.826666-6.826667V221.866667c0-3.413333-3.413333-6.826667-6.826666-6.826667h-66.56v-51.2h66.56c32.426667 0 58.026667 25.6 58.026666 58.026667v646.826666c0 32.426667-27.306667 58.026667-58.026666 58.026667z"  /><path  d="M887.466667 785.066667H139.946667V174.08l13.653333-6.826667c8.533333-5.12 215.04-119.466667 348.16-47.786666 39.253333-27.306667 151.893333-71.68 372.053333 46.08l13.653334 6.826666V785.066667z m-696.32-51.2H836.266667V204.8C605.866667 85.333333 522.24 167.253333 522.24 168.96l-15.36 15.36-18.773333-11.946667C407.893333 114.346667 257.706667 170.666667 191.146667 204.8v529.066667z"  /><path  d="M849.92 773.12c-240.64-129.706667-325.973333-44.373333-327.68-42.666667l-15.36 15.36-18.773333-11.946666c-87.04-61.44-252.586667 6.826667-308.906667 39.253333L153.6 728.746667c8.533333-5.12 215.04-119.466667 348.16-47.786667 39.253333-27.306667 151.893333-71.68 372.053333 46.08l-23.893333 46.08z"  /><path  d="M477.832533 711.389867l5.051734-554.666667 51.2 0.4608-5.051734 554.666667z"  /></svg>