<?xml version="1.0" standalone="no"?><!DOCTYPE svg PUBLIC "-//W3C//DTD SVG 1.1//EN" "http://www.w3.org/Graphics/SVG/1.1/DTD/svg11.dtd"><svg class="icon" width="64px" height="64.00px" viewBox="0 0 1024 1024" version="1.1" xmlns="http://www.w3.org/2000/svg"><path  d="M896 967.850667h-768a94.037333 94.037333 0 0 1-93.866667-93.866667V271.36c0-51.712 42.154667-93.866667 93.866667-93.866667h768c51.712 0 93.866667 42.154667 93.866667 93.866667v602.624c0 51.712-42.154667 93.866667-93.866667 93.866667zM128 228.693333A42.666667 42.666667 0 0 0 85.333333 271.36v602.624a42.666667 42.666667 0 0 0 42.666667 42.666667h768a42.666667 42.666667 0 0 0 42.666667-42.666667V271.36a42.666667 42.666667 0 0 0-42.666667-42.666667h-768z"  /><path  d="M204.8 669.696c-3.242667 0-6.656-0.682667-9.898667-2.048-12.970667-5.461333-19.285333-20.48-13.824-33.450667l106.325334-254.464c3.925333-9.386667 12.970667-15.530667 23.04-15.701333 9.557333 0.341333 19.456 5.461333 23.722666 14.677333l120.661334 254.464c5.973333 12.8 0.682667 27.989333-12.117334 34.133334-12.8 6.144-27.989333 0.682667-34.133333-12.117334l-96.085333-202.581333-84.138667 201.386667c-3.925333 9.728-13.482667 15.701333-23.552 15.701333z"  /><path  d="M399.189333 601.088h-165.717333c-14.165333 0-25.6-11.434667-25.6-25.6s11.434667-25.6 25.6-25.6h165.717333c14.165333 0 25.6 11.434667 25.6 25.6s-11.434667 25.6-25.6 25.6zM822.613333 427.861333H563.712c-14.165333 0-25.6-11.434667-25.6-25.6s11.434667-25.6 25.6-25.6H822.613333c14.165333 0 25.6 11.434667 25.6 25.6s-11.605333 25.6-25.6 25.6zM822.613333 600.746667H563.712c-14.165333 0-25.6-11.434667-25.6-25.6s11.434667-25.6 25.6-25.6H822.613333c14.165333 0 25.6 11.434667 25.6 25.6s-11.605333 25.6-25.6 25.6z"  /><path  d="M822.613333 809.984H201.386667c-14.165333 0-25.6-11.434667-25.6-25.6s11.434667-25.6 25.6-25.6h621.226666c14.165333 0 25.6 11.434667 25.6 25.6s-11.605333 25.6-25.6 25.6z"  /><path  d="M853.333333 107.349333H170.666667c-14.165333 0-25.6-11.434667-25.6-25.6s11.434667-25.6 25.6-25.6h682.666666c14.165333 0 25.6 11.434667 25.6 25.6s-11.434667 25.6-25.6 25.6z"  /></svg>