<?xml version="1.0" standalone="no"?><!DOCTYPE svg PUBLIC "-//W3C//DTD SVG 1.1//EN" "http://www.w3.org/Graphics/SVG/1.1/DTD/svg11.dtd"><svg class="icon" width="64px" height="64.00px" viewBox="0 0 1024 1024" version="1.1" xmlns="http://www.w3.org/2000/svg"><path  d="M836.266667 989.866667H187.733333c-51.2 0-93.866667-42.666667-93.866666-93.866667v-768C93.866667 76.8 136.533333 34.133333 187.733333 34.133333h648.533334c51.2 0 93.866667 42.666667 93.866666 93.866667v768c0 51.2-42.666667 93.866667-93.866666 93.866667zM187.733333 85.333333C163.84 85.333333 145.066667 104.106667 145.066667 128v768c0 23.893333 18.773333 42.666667 42.666666 42.666667h648.533334c23.893333 0 42.666667-18.773333 42.666666-42.666667v-768C878.933333 104.106667 860.16 85.333333 836.266667 85.333333H187.733333z"  /><path  d="M512 730.453333c-58.026667 0-112.64-22.186667-153.6-63.146666-10.24-10.24-10.24-25.6 0-35.84s25.6-10.24 35.84 0c30.72 30.72 73.386667 49.493333 117.76 49.493333 92.16 0 167.253333-75.093333 167.253333-167.253333s-75.093333-167.253333-167.253333-167.253334c-44.373333 0-87.04 17.066667-117.76 49.493334-17.066667 17.066667-54.613333 59.733333-54.613333 59.733333-8.533333 10.24-25.6 11.946667-35.84 1.706667-10.24-10.24-11.946667-25.6-1.706667-35.84 1.706667-1.706667 39.253333-44.373333 58.026667-61.44 40.96-40.96 95.573333-63.146667 153.6-63.146667 119.466667 0 218.453333 97.28 218.453333 218.453333S631.466667 730.453333 512 730.453333z"  /><path  d="M404.48 462.506667h-85.333333c-13.653333 0-25.6-11.946667-25.6-25.6v-85.333334c0-13.653333 11.946667-25.6 25.6-25.6s25.6 11.946667 25.6 25.6v59.733334h59.733333c13.653333 0 25.6 11.946667 25.6 25.6s-10.24 25.6-25.6 25.6z"  /></svg>