<?xml version="1.0" standalone="no"?><!DOCTYPE svg PUBLIC "-//W3C//DTD SVG 1.1//EN" "http://www.w3.org/Graphics/SVG/1.1/DTD/svg11.dtd"><svg class="icon" width="64px" height="64.00px" viewBox="0 0 1024 1024" version="1.1" xmlns="http://www.w3.org/2000/svg"><path  d="M512 85.333333c235.349333 0 426.666667 191.317333 426.666667 426.666667S747.349333 938.666667 512 938.666667 85.333333 747.349333 85.333333 512 276.650667 85.333333 512 85.333333m0-51.2C248.149333 34.133333 34.133333 248.149333 34.133333 512s214.016 477.866667 477.866667 477.866667 477.866667-214.016 477.866667-477.866667S775.850667 34.133333 512 34.133333z"  /><path  d="M512 517.290667c-6.485333 0-13.141333-2.56-18.090667-7.509334l-68.096-68.096c-10.069333-10.069333-10.069333-26.282667 0-36.181333s26.282667-10.069333 36.181334 0l68.096 68.096c10.069333 10.069333 10.069333 26.282667 0 36.181333-4.949333 4.949333-11.605333 7.509333-18.090667 7.509334z"  /><path  d="M512 517.290667c-6.485333 0-13.141333-2.56-18.090667-7.509334a25.429333 25.429333 0 0 1 0-36.181333l68.096-68.096c10.069333-10.069333 26.282667-10.069333 36.181334 0s10.069333 26.282667 0 36.181333l-68.096 68.096c-4.949333 4.949333-11.605333 7.509333-18.090667 7.509334z"  /><path  d="M512 672.768c-14.165333 0-25.6-11.434667-25.6-25.6v-155.477333c0-14.165333 11.434667-25.6 25.6-25.6s25.6 11.434667 25.6 25.6v155.477333c0 14.165333-11.434667 25.6-25.6 25.6z"  /><path  d="M582.485333 530.432h-140.970666c-14.165333 0-25.6-11.434667-25.6-25.6s11.434667-25.6 25.6-25.6h140.970666c14.165333 0 25.6 11.434667 25.6 25.6s-11.434667 25.6-25.6 25.6zM582.485333 600.405333h-140.970666c-14.165333 0-25.6-11.434667-25.6-25.6s11.434667-25.6 25.6-25.6h140.970666c14.165333 0 25.6 11.434667 25.6 25.6s-11.434667 25.6-25.6 25.6z"  /><path  d="M512 807.765333c-105.301333 0-203.434667-56.661333-256.170667-147.968a25.429333 25.429333 0 0 1 0-25.6c4.608-7.850667 12.970667-12.8 22.186667-12.8h112.469333c14.165333 0 25.6 11.434667 25.6 25.6s-11.434667 25.6-25.6 25.6H327.68c46.08 52.565333 113.322667 83.968 184.32 83.968 53.418667 0 104.106667-16.896 146.773333-48.810666 11.264-8.362667 27.306667-6.144 35.84 5.12 8.533333 11.264 6.144 27.306667-5.12 35.84A293.512533 293.512533 0 0 1 512 807.765333zM746.154667 672.768c-9.216 0-17.578667-4.949333-22.186667-12.8l-54.613333-94.549333c-6.997333-12.288-2.901333-27.818667 9.386666-34.986667 12.288-6.997333 27.818667-2.901333 34.986667 9.386667l29.866667 51.541333c8.704-25.429333 13.141333-52.224 13.141333-79.36 0-97.28-57.685333-185.344-146.773333-224.256a25.378133 25.378133 0 0 1-13.141334-33.621333c5.632-12.970667 20.821333-18.944 33.621334-13.141334 107.861333 47.104 177.493333 153.6 177.493333 271.189334 0 52.053333-13.653333 103.082667-39.594667 147.968-4.608 7.68-13.141333 12.629333-22.186666 12.629333zM243.029333 564.565333c-12.970667 0-24.064-9.898667-25.429333-23.04-1.024-9.728-1.536-19.626667-1.536-29.525333 0-163.157333 132.778667-295.765333 295.765333-295.765333 9.216 0 17.578667 4.949333 22.186667 12.8s4.608 17.749333 0 25.6l-54.613333 94.549333a25.617067 25.617067 0 0 1-44.373334-25.6l29.866667-51.712C352.597333 293.888 267.434667 393.216 267.434667 512c0 8.192 0.341333 16.384 1.194666 24.405333 1.365333 13.994667-8.874667 26.624-22.869333 27.989334-1.024 0.170667-1.877333 0.170667-2.730667 0.170666z"  /></svg>