<?xml version="1.0" standalone="no"?><!DOCTYPE svg PUBLIC "-//W3C//DTD SVG 1.1//EN" "http://www.w3.org/Graphics/SVG/1.1/DTD/svg11.dtd"><svg class="icon" width="64px" height="64.00px" viewBox="0 0 1024 1024" version="1.1" xmlns="http://www.w3.org/2000/svg"><path  d="M783.36 943.786667H240.64c-51.2 0-93.866667-42.666667-93.866667-93.866667V443.733333c0-51.2 42.666667-93.866667 93.866667-93.866666h542.72c51.2 0 93.866667 42.666667 93.866667 93.866666v406.186667c0 52.906667-42.666667 93.866667-93.866667 93.866667zM240.64 401.066667c-23.893333 0-42.666667 18.773333-42.666667 42.666666v406.186667c0 23.893333 18.773333 42.666667 42.666667 42.666667h542.72c23.893333 0 42.666667-18.773333 42.666667-42.666667V443.733333c0-23.893333-18.773333-42.666667-42.666667-42.666666H240.64z"  /><path  d="M353.28 558.08m-46.08 0a46.08 46.08 0 1 0 92.16 0 46.08 46.08 0 1 0-92.16 0Z"  /><path  d="M670.72 558.08m-46.08 0a46.08 46.08 0 1 0 92.16 0 46.08 46.08 0 1 0-92.16 0Z"  /><path  d="M421.546667 692.906667c-25.6 0-46.08 20.48-46.08 46.08s20.48 46.08 46.08 46.08v-92.16z m180.906666 90.453333c25.6 0 46.08-20.48 46.08-46.08s-20.48-46.08-46.08-46.08v92.16z m-180.906666 0h180.906666v-90.453333H421.546667v90.453333zM512 401.066667c-13.653333 0-25.6-11.946667-25.6-25.6V196.266667c0-13.653333 11.946667-25.6 25.6-25.6s25.6 11.946667 25.6 25.6V375.466667c0 15.36-11.946667 25.6-25.6 25.6zM59.733333 764.586667c-13.653333 0-25.6-11.946667-25.6-25.6V558.08c0-13.653333 11.946667-25.6 25.6-25.6s25.6 10.24 25.6 25.6v180.906667c0 13.653333-11.946667 25.6-25.6 25.6zM964.266667 764.586667c-13.653333 0-25.6-11.946667-25.6-25.6V558.08c0-13.653333 11.946667-25.6 25.6-25.6s25.6 11.946667 25.6 25.6v180.906667c0 13.653333-11.946667 25.6-25.6 25.6z"  /><path  d="M512 221.866667c-39.253333 0-69.973333-32.426667-69.973333-71.68 0-39.253333 32.426667-69.973333 69.973333-69.973334s69.973333 32.426667 69.973333 69.973334c0 39.253333-30.72 71.68-69.973333 71.68z m0-92.16c-10.24 0-18.773333 8.533333-18.773333 18.773333S501.76 170.666667 512 170.666667s18.773333-8.533333 18.773333-20.48-8.533333-20.48-18.773333-20.48z"  /></svg>