<?xml version="1.0" standalone="no"?><!DOCTYPE svg PUBLIC "-//W3C//DTD SVG 1.1//EN" "http://www.w3.org/Graphics/SVG/1.1/DTD/svg11.dtd"><svg class="icon" width="64px" height="64.00px" viewBox="0 0 1024 1024" version="1.1" xmlns="http://www.w3.org/2000/svg"><path  d="M512 759.466667c-136.533333 0-247.466667-110.933333-247.466667-247.466667S375.466667 264.533333 512 264.533333 759.466667 375.466667 759.466667 512c0 14.165333-11.434667 25.6-25.6 25.6H537.6V733.866667c0 14.165333-11.434667 25.6-25.6 25.6z m0-443.733334c-108.202667 0-196.266667 88.064-196.266667 196.266667 0 99.498667 74.410667 182.101333 170.666667 194.56V535.381333c0-26.965333 22.016-48.981333 48.981333-48.981333H706.56c-12.458667-96.256-95.061333-170.666667-194.56-170.666667z"  /><path  d="M722.261333 747.861333h-140.117333c-14.165333 0-25.6-11.434667-25.6-25.6V581.973333c0-14.165333 11.434667-25.6 25.6-25.6h140.117333c14.165333 0 25.6 11.434667 25.6 25.6v140.117334c0 14.165333-11.605333 25.770667-25.6 25.770666z m-114.517333-51.2h88.917333V607.573333h-88.917333v89.088z"  /><path  d="M827.733333 996.693333h-631.466666A94.037333 94.037333 0 0 1 102.4 902.826667V121.173333c0-51.712 42.154667-93.866667 93.866667-93.866666h529.066666c6.826667 0 13.312 2.730667 18.090667 7.509333l170.666667 170.666667c4.778667 4.778667 7.509333 11.264 7.509333 18.090666v679.253334c0 51.712-42.154667 93.866667-93.866667 93.866666z m-631.466666-918.186666A42.666667 42.666667 0 0 0 153.6 121.173333v781.653334a42.666667 42.666667 0 0 0 42.666667 42.666666h631.466666a42.666667 42.666667 0 0 0 42.666667-42.666666V234.154667L714.752 78.506667H196.266667z"  /></svg>