<?xml version="1.0" standalone="no"?><!DOCTYPE svg PUBLIC "-//W3C//DTD SVG 1.1//EN" "http://www.w3.org/Graphics/SVG/1.1/DTD/svg11.dtd"><svg class="icon" width="64px" height="64.00px" viewBox="0 0 1024 1024" version="1.1" xmlns="http://www.w3.org/2000/svg"><path  d="M486.4 979.626667l-27.306667-1.706667c-76.8-6.826667-151.893333-34.133333-216.746666-76.8-63.146667-40.96-116.053333-97.28-151.893334-163.84-37.546667-68.266667-56.32-145.066667-56.32-221.866667 0-78.506667 18.773333-153.6 56.32-221.866666 35.84-66.56 88.746667-122.88 151.893334-163.84C307.2 85.333333 380.586667 59.733333 459.093333 52.906667l27.306667-1.706667v928.426667z m-51.2-873.813334c-58.026667 10.24-114.346667 30.72-163.84 64.853334-56.32 37.546667-102.4 87.04-134.826667 145.066666-34.133333 63.146667-51.2 129.706667-51.2 199.68s17.066667 138.24 49.493334 197.973334c32.426667 58.026667 78.506667 109.226667 134.826666 145.066666 49.493333 34.133333 105.813333 56.32 163.84 64.853334V105.813333zM525.653333 960.853333V546.133333h414.72l-1.706666 27.306667c-5.12 64.853333-27.306667 129.706667-63.146667 186.026667-34.133333 54.613333-81.92 102.4-136.533333 136.533333-56.32 35.84-119.466667 56.32-186.026667 63.146667l-27.306667 1.706666z m51.2-363.52v307.2c47.786667-8.533333 93.866667-25.6 134.826667-51.2 47.786667-30.72 90.453333-71.68 119.466667-119.466666 25.6-40.96 44.373333-87.04 51.2-134.826667H576.853333zM991.573333 510.293333H525.653333V44.373333l27.306667 1.706667c75.093333 6.826667 146.773333 30.72 209.92 71.68 61.44 39.253333 116.053333 92.16 153.6 153.6 39.253333 63.146667 64.853333 136.533333 71.68 209.92l3.413333 29.013333z m-414.72-51.2h358.4c-8.533333-56.32-29.013333-110.933333-59.733333-160.426666-34.133333-56.32-81.92-104.106667-138.24-138.24-47.786667-30.72-104.106667-51.2-160.426667-59.733334v358.4z"  /></svg>