<?xml version="1.0" standalone="no"?><!DOCTYPE svg PUBLIC "-//W3C//DTD SVG 1.1//EN" "http://www.w3.org/Graphics/SVG/1.1/DTD/svg11.dtd"><svg class="icon" width="64px" height="64.00px" viewBox="0 0 1024 1024" version="1.1" xmlns="http://www.w3.org/2000/svg"><path  d="M896 93.866667h-768A94.037333 94.037333 0 0 0 34.133333 187.733333v648.533334c0 51.712 42.154667 93.866667 93.866667 93.866666h768c51.712 0 93.866667-42.154667 93.866667-93.866666v-140.8c0-14.165333-11.434667-25.6-25.6-25.6s-25.6 11.434667-25.6 25.6V836.266667a42.666667 42.666667 0 0 1-42.666667 42.666666h-768A42.666667 42.666667 0 0 1 85.333333 836.266667V187.733333a42.666667 42.666667 0 0 1 42.666667-42.666666h768A42.666667 42.666667 0 0 1 938.666667 187.733333v141.994667c0 14.165333 11.434667 25.6 25.6 25.6s25.6-11.434667 25.6-25.6V187.733333c0-51.712-42.154667-93.866667-93.866667-93.866666z"  /><path  d="M530.090667 323.413333a25.429333 25.429333 0 0 0-36.181334 0l-89.6 89.6-89.770666-89.6a25.429333 25.429333 0 0 0-36.181334 0 25.429333 25.429333 0 0 0 0 36.181334l82.090667 82.090666h-64c-14.165333 0-25.6 11.434667-25.6 25.6s11.434667 25.6 25.6 25.6h82.432v56.661334h-82.432c-14.165333 0-25.6 11.434667-25.6 25.6s11.434667 25.6 25.6 25.6h82.432v82.261333c0 14.165333 11.434667 25.6 25.6 25.6s25.6-11.434667 25.6-25.6V600.746667H512c14.165333 0 25.6-11.434667 25.6-25.6s-11.434667-25.6-25.6-25.6h-82.090667v-56.661334H512c14.165333 0 25.6-11.434667 25.6-25.6s-11.434667-25.6-25.6-25.6h-64l82.090667-82.090666c10.069333-9.898667 10.069333-26.112 0-36.181334zM719.189333 615.424c4.949333 4.949333 11.605333 7.509333 18.090667 7.509333s13.141333-2.56 18.090667-7.509333l85.333333-85.333333c10.069333-10.069333 10.069333-26.282667 0-36.181334l-85.333333-85.333333c-10.069333-10.069333-26.282667-10.069333-36.181334 0s-10.069333 26.282667 0 36.181333L786.432 512l-67.242667 67.242667a25.429333 25.429333 0 0 0 0 36.181333zM860.842667 615.424c4.949333 4.949333 11.605333 7.509333 18.090666 7.509333s13.141333-2.56 18.090667-7.509333l85.333333-85.333333c10.069333-10.069333 10.069333-26.282667 0-36.181334l-85.333333-85.333333c-10.069333-10.069333-26.282667-10.069333-36.181333 0s-10.069333 26.282667 0 36.181333L928.085333 512l-67.242666 67.242667a25.429333 25.429333 0 0 0 0 36.181333z"  /></svg>