<?xml version="1.0" standalone="no"?><!DOCTYPE svg PUBLIC "-//W3C//DTD SVG 1.1//EN" "http://www.w3.org/Graphics/SVG/1.1/DTD/svg11.dtd"><svg class="icon" width="64px" height="64.00px" viewBox="0 0 1024 1024" version="1.1" xmlns="http://www.w3.org/2000/svg"><path  d="M443.733333 989.866667H196.266667c-51.2 0-93.866667-42.666667-93.866667-93.866667v-768C102.4 76.8 143.36 34.133333 196.266667 34.133333H648.533333c6.826667 0 13.653333 3.413333 18.773334 8.533334L870.4 267.946667c3.413333 5.12 6.826667 10.24 6.826667 17.066666v203.093334c0 13.653333-11.946667 25.6-25.6 25.6s-25.6-11.946667-25.6-25.6V295.253333L636.586667 85.333333H196.266667C172.373333 85.333333 153.6 104.106667 153.6 128v768c0 23.893333 18.773333 42.666667 42.666667 42.666667H443.733333c13.653333 0 25.6 11.946667 25.6 25.6S459.093333 989.866667 443.733333 989.866667z"  /><path  d="M670.72 989.866667H580.266667c-13.653333 0-25.6-11.946667-25.6-25.6v-90.453334c0-6.826667 3.413333-13.653333 6.826666-18.773333l225.28-225.28c10.24-10.24 25.6-10.24 35.84 0l90.453334 90.453333c10.24 10.24 10.24 25.6 0 35.84L687.786667 983.04c-3.413333 3.413333-10.24 6.826667-17.066667 6.826667z m-64.853333-51.2h54.613333l201.386667-201.386667-54.613334-54.613333-201.386666 201.386666V938.666667zM851.626667 310.613333H658.773333c-32.426667 0-59.733333-27.306667-59.733333-59.733333V59.733333c0-13.653333 11.946667-25.6 25.6-25.6s25.6 11.946667 25.6 25.6v191.146667c0 5.12 3.413333 8.533333 8.533333 8.533333h191.146667c13.653333 0 25.6 11.946667 25.6 25.6 1.706667 15.36-10.24 25.6-23.893333 25.6z"  /></svg>