<?xml version="1.0" standalone="no"?><!DOCTYPE svg PUBLIC "-//W3C//DTD SVG 1.1//EN" "http://www.w3.org/Graphics/SVG/1.1/DTD/svg11.dtd"><svg class="icon" width="64px" height="64.00px" viewBox="0 0 1024 1024" version="1.1" xmlns="http://www.w3.org/2000/svg"><path  d="M484.693333 964.266667H206.506667c-68.266667 0-122.88-59.733333-122.88-131.413334v-665.6C83.626667 93.866667 138.24 34.133333 206.506667 34.133333h610.986666c68.266667 0 122.88 59.733333 122.88 131.413334v160.426666h-51.2V165.546667c0-44.373333-32.426667-80.213333-71.68-80.213334H206.506667C167.253333 85.333333 134.826667 121.173333 134.826667 165.546667v665.6c0 44.373333 32.426667 80.213333 71.68 80.213333h278.186666v52.906667z"  /><path  d="M537.6 334.506667H225.28c-13.653333 0-25.6-11.946667-25.6-25.6s11.946667-25.6 25.6-25.6h312.32c13.653333 0 25.6 11.946667 25.6 25.6s-11.946667 25.6-25.6 25.6zM411.306667 523.946667H225.28c-13.653333 0-25.6-11.946667-25.6-25.6s11.946667-25.6 25.6-25.6h186.026667c13.653333 0 25.6 11.946667 25.6 25.6s-10.24 25.6-25.6 25.6zM725.333333 788.48c-117.76 0-213.333333-95.573333-213.333333-213.333333s95.573333-213.333333 213.333333-213.333334S938.666667 457.386667 938.666667 575.146667s-95.573333 213.333333-213.333334 213.333333z m0-375.466667c-88.746667 0-162.133333 73.386667-162.133333 162.133334s73.386667 162.133333 162.133333 162.133333 162.133333-73.386667 162.133334-162.133333-73.386667-162.133333-162.133334-162.133334z"  /><path  d="M600.746667 981.333333c-13.653333 0-25.6-11.946667-25.6-25.6V720.213333c0-13.653333 11.946667-25.6 25.6-25.6s25.6 11.946667 25.6 25.6V955.733333c0 15.36-11.946667 25.6-25.6 25.6z"  /><path  d="M600.746667 989.866667c-6.826667 0-15.36-3.413333-20.48-8.533334-8.533333-10.24-6.826667-27.306667 3.413333-35.84l124.586667-102.4c10.24-8.533333 27.306667-6.826667 35.84 3.413334 8.533333 10.24 6.826667 27.306667-3.413334 35.84l-124.586666 102.4c-3.413333 3.413333-10.24 5.12-15.36 5.12zM849.92 981.333333c-13.653333 0-25.6-11.946667-25.6-25.6V720.213333c0-13.653333 11.946667-25.6 25.6-25.6s25.6 11.946667 25.6 25.6V955.733333c0 15.36-11.946667 25.6-25.6 25.6z"  /><path  d="M849.92 989.866667c-5.12 0-11.946667-1.706667-17.066667-5.12l-124.586666-102.4c-10.24-8.533333-11.946667-25.6-3.413334-35.84 8.533333-10.24 25.6-11.946667 35.84-3.413334l124.586667 102.4c10.24 8.533333 11.946667 25.6 3.413333 35.84-3.413333 5.12-11.946667 8.533333-18.773333 8.533334z"  /></svg>