<?xml version="1.0" standalone="no"?><!DOCTYPE svg PUBLIC "-//W3C//DTD SVG 1.1//EN" "http://www.w3.org/Graphics/SVG/1.1/DTD/svg11.dtd"><svg class="icon" width="64px" height="64.00px" viewBox="0 0 1024 1024" version="1.1" xmlns="http://www.w3.org/2000/svg"><path  d="M677.546667 989.866667h-546.133334c-49.493333 0-90.453333-40.96-90.453333-90.453334V124.586667C40.96 75.093333 81.92 34.133333 131.413333 34.133333h546.133334C727.04 34.133333 768 75.093333 768 124.586667v774.826666c0 49.493333-40.96 90.453333-90.453333 90.453334zM131.413333 85.333333C110.933333 85.333333 92.16 102.4 92.16 124.586667v774.826666c0 22.186667 17.066667 39.253333 39.253333 39.253334h546.133334c22.186667 0 39.253333-17.066667 39.253333-39.253334V124.586667C716.8 102.4 699.733333 85.333333 677.546667 85.333333h-546.133334z"  /><path  d="M897.706667 989.866667H631.466667v-51.2h266.24c18.773333 0 32.426667-15.36 32.426666-32.426667V242.346667c0-18.773333-15.36-32.426667-32.426666-32.426667h-160.426667v-51.2h160.426667c46.08 0 83.626667 37.546667 83.626666 83.626667v663.893333c1.706667 46.08-35.84 83.626667-83.626666 83.626667zM619.52 392.533333H189.44c-23.893333 0-44.373333-20.48-44.373333-44.373333v-145.066667c0-23.893333 20.48-44.373333 44.373333-44.373333h428.373333c23.893333 0 44.373333 20.48 44.373334 44.373333v145.066667c1.706667 25.6-18.773333 44.373333-42.666667 44.373333z m-423.253333-51.2h416.426666v-131.413333H196.266667V341.333333zM612.693333 535.893333H196.266667c-13.653333 0-25.6-11.946667-25.6-25.6s11.946667-25.6 25.6-25.6h416.426666c13.653333 0 25.6 11.946667 25.6 25.6s-10.24 25.6-25.6 25.6zM612.693333 679.253333H196.266667c-13.653333 0-25.6-11.946667-25.6-25.6s11.946667-25.6 25.6-25.6h416.426666c13.653333 0 25.6 11.946667 25.6 25.6s-10.24 25.6-25.6 25.6zM612.693333 820.906667H196.266667c-13.653333 0-25.6-11.946667-25.6-25.6s11.946667-25.6 25.6-25.6h416.426666c13.653333 0 25.6 11.946667 25.6 25.6s-10.24 25.6-25.6 25.6z"  /></svg>