<?xml version="1.0" standalone="no"?><!DOCTYPE svg PUBLIC "-//W3C//DTD SVG 1.1//EN" "http://www.w3.org/Graphics/SVG/1.1/DTD/svg11.dtd"><svg class="icon" width="64px" height="64.00px" viewBox="0 0 1024 1024" version="1.1" xmlns="http://www.w3.org/2000/svg"><path  d="M783.36 967.68H240.64c-51.2 0-93.866667-42.666667-93.866667-93.866667V421.546667c0-51.2 42.666667-93.866667 93.866667-93.866667h542.72c51.2 0 93.866667 42.666667 93.866667 93.866667v450.56c0 52.906667-42.666667 95.573333-93.866667 95.573333zM240.64 378.88c-23.893333 0-42.666667 18.773333-42.666667 42.666667v450.56c0 23.893333 18.773333 42.666667 42.666667 42.666666h542.72c23.893333 0 42.666667-18.773333 42.666667-42.666666V421.546667c0-23.893333-18.773333-42.666667-42.666667-42.666667H240.64z"  /><path  d="M602.453333 378.88c-5.12 0-8.533333-1.706667-13.653333-3.413333-11.946667-6.826667-15.36-23.893333-8.533333-35.84l112.64-180.906667c6.826667-11.946667 23.893333-15.36 35.84-8.533333 11.946667 6.826667 15.36 23.893333 8.533333 35.84l-112.64 180.906666c-5.12 8.533333-13.653333 11.946667-22.186667 11.946667zM421.546667 378.88c-8.533333 0-17.066667-3.413333-22.186667-11.946667l-112.64-180.906666c-6.826667-11.946667-3.413333-27.306667 8.533333-35.84 11.946667-6.826667 27.306667-3.413333 35.84 8.533333L443.733333 339.626667c6.826667 11.946667 3.413333 27.306667-8.533333 35.84-5.12 3.413333-8.533333 3.413333-13.653333 3.413333z"  /><path  d="M738.986667 197.973333c-39.253333 0-69.973333-32.426667-69.973334-69.973333s32.426667-69.973333 69.973334-69.973333 69.973333 32.426667 69.973333 69.973333-32.426667 69.973333-69.973333 69.973333z m0-90.453333c-10.24 0-18.773333 8.533333-18.773334 18.773333s8.533333 18.773333 18.773334 18.773334 18.773333-8.533333 18.773333-18.773334-8.533333-18.773333-18.773333-18.773333zM286.72 197.973333c-39.253333 0-69.973333-32.426667-69.973333-69.973333s32.426667-69.973333 69.973333-69.973333 69.973333 32.426667 69.973333 69.973333-32.426667 69.973333-69.973333 69.973333z m0-90.453333c-10.24 0-18.773333 8.533333-18.773333 18.773333s8.533333 18.773333 18.773333 18.773334 18.773333-8.533333 18.773333-18.773334-8.533333-18.773333-18.773333-18.773333zM602.453333 718.506667H421.546667c-63.146667 0-116.053333-52.906667-116.053334-116.053334s52.906667-116.053333 116.053334-116.053333h180.906666c63.146667 0 116.053333 52.906667 116.053334 116.053333s-52.906667 116.053333-116.053334 116.053334zM421.546667 537.6c-35.84 0-64.853333 29.013333-64.853334 64.853333s29.013333 64.853333 64.853334 64.853334h180.906666c35.84 0 64.853333-29.013333 64.853334-64.853334s-29.013333-64.853333-64.853334-64.853333H421.546667zM172.373333 764.586667H76.8c-23.893333 0-42.666667-18.773333-42.666667-42.666667V529.066667c0-23.893333 18.773333-42.666667 42.666667-42.666667h95.573333c13.653333 0 25.6 11.946667 25.6 25.6s-11.946667 25.6-25.6 25.6H85.333333v175.786667h87.04c13.653333 0 25.6 11.946667 25.6 25.6s-10.24 25.6-25.6 25.6zM947.2 764.586667h-95.573333c-13.653333 0-25.6-11.946667-25.6-25.6s11.946667-25.6 25.6-25.6H938.666667V537.6h-87.04c-13.653333 0-25.6-11.946667-25.6-25.6s11.946667-25.6 25.6-25.6h95.573333c23.893333 0 42.666667 18.773333 42.666667 42.666667v192.853333c0 22.186667-18.773333 42.666667-42.666667 42.666667z m0-226.986667z"  /></svg>