<?xml version="1.0" standalone="no"?><!DOCTYPE svg PUBLIC "-//W3C//DTD SVG 1.1//EN" "http://www.w3.org/Graphics/SVG/1.1/DTD/svg11.dtd"><svg class="icon" width="64px" height="64.00px" viewBox="0 0 1024 1024" version="1.1" xmlns="http://www.w3.org/2000/svg"><path  d="M484.181333 989.866667H190.805333C141.994667 989.866667 102.4 947.712 102.4 896v-768C102.4 76.288 141.994667 34.133333 190.805333 34.133333h642.389334C882.005333 34.133333 921.6 76.288 921.6 128v323.925333c0 14.165333-11.434667 25.6-25.6 25.6s-25.6-11.434667-25.6-25.6V128c0-23.552-16.725333-42.666667-37.205333-42.666667H190.805333C170.325333 85.333333 153.6 104.448 153.6 128v768c0 23.552 16.725333 42.666667 37.205333 42.666667h293.376c14.165333 0 25.6 11.434667 25.6 25.6s-11.434667 25.6-25.6 25.6z"  /><path  d="M676.352 278.528H244.736c-14.165333 0-25.6-11.434667-25.6-25.6s11.434667-25.6 25.6-25.6h431.616c14.165333 0 25.6 11.434667 25.6 25.6s-11.605333 25.6-25.6 25.6zM676.352 448H244.736c-14.165333 0-25.6-11.434667-25.6-25.6s11.434667-25.6 25.6-25.6h431.616c14.165333 0 25.6 11.434667 25.6 25.6s-11.605333 25.6-25.6 25.6zM390.997333 617.472h-146.261333c-14.165333 0-25.6-11.434667-25.6-25.6s11.434667-25.6 25.6-25.6h146.261333c14.165333 0 25.6 11.434667 25.6 25.6s-11.434667 25.6-25.6 25.6z"  /><path  d="M736.256 794.112c-4.266667 0-8.704-1.024-12.629333-3.242667l-204.8-115.882666c-8.021333-4.608-12.970667-13.141333-12.970667-22.357334s4.949333-17.749333 12.970667-22.357333l204.8-115.882667c7.850667-4.437333 17.408-4.437333 25.258666 0l204.8 115.882667c8.021333 4.608 12.970667 13.141333 12.970667 22.357333s-4.949333 17.749333-12.970667 22.357334l-204.8 115.882666c-3.925333 2.048-8.362667 3.242667-12.629333 3.242667z m-152.917333-141.653333l152.917333 86.528 152.917333-86.528-152.917333-86.528-152.917333 86.528z"  /><path  d="M736.256 890.538667c-4.266667 0-8.704-1.024-12.629333-3.242667l-204.8-115.882667c-8.021333-4.608-12.970667-13.141333-12.970667-22.357333s4.949333-17.749333 12.970667-22.357333l85.162666-48.298667c12.288-6.997333 27.989333-2.730667 34.816 9.728 6.997333 12.288 2.56 27.989333-9.728 34.816l-45.909333 25.941333 152.917333 86.528 152.917334-86.528-45.909334-25.941333c-12.288-6.997333-16.554667-22.528-9.728-34.816 6.997333-12.288 22.698667-16.554667 34.816-9.728l85.162667 48.298667c8.021333 4.608 12.970667 13.141333 12.970667 22.357333s-4.949333 17.749333-12.970667 22.357333l-204.8 115.882667c-3.584 2.218667-8.021333 3.242667-12.288 3.242667z"  /><path  d="M736.256 989.866667c-4.266667 0-8.704-1.024-12.629333-3.242667l-204.8-115.882667c-8.021333-4.608-12.970667-13.141333-12.970667-22.357333s4.949333-17.749333 12.970667-22.357333l85.162666-48.298667c12.288-6.997333 27.989333-2.730667 34.816 9.728 6.997333 12.288 2.56 27.989333-9.728 34.816l-45.909333 25.941333 152.917333 86.528 152.917334-86.528-48.298667-27.306666c-12.288-6.997333-16.554667-22.528-9.728-34.816 6.997333-12.288 22.698667-16.554667 34.816-9.728l87.722667 49.664c8.021333 4.608 12.970667 13.141333 12.970666 22.357333s-4.949333 17.749333-12.970666 22.357333l-204.8 115.882667c-3.754667 2.218667-8.192 3.242667-12.458667 3.242667z"  /></svg>