<?xml version="1.0" standalone="no"?><!DOCTYPE svg PUBLIC "-//W3C//DTD SVG 1.1//EN" "http://www.w3.org/Graphics/SVG/1.1/DTD/svg11.dtd"><svg class="icon" width="64px" height="64.00px" viewBox="0 0 1024 1024" version="1.1" xmlns="http://www.w3.org/2000/svg"><path  d="M896 965.973333h-768c-51.2 0-93.866667-42.666667-93.866667-93.866666V151.893333c0-51.2 42.666667-93.866667 93.866667-93.866666H392.533333c6.826667 0 15.36 3.413333 20.48 8.533333l110.933334 133.12h392.533333c40.96 0 73.386667 32.426667 73.386667 73.386667v599.04c0 51.2-42.666667 93.866667-93.866667 93.866666zM128 109.226667C104.106667 109.226667 85.333333 128 85.333333 151.893333v720.213334c0 23.893333 18.773333 42.666667 42.666667 42.666666h768c23.893333 0 42.666667-18.773333 42.666667-42.666666v-597.333334c0-11.946667-10.24-22.186667-22.186667-22.186666H512c-6.826667 0-15.36-3.413333-20.48-8.533334l-110.933333-133.12H128z"  /><path  d="M512 774.826667c-5.12 0-8.533333-1.706667-13.653333-3.413334-6.826667-3.413333-155.306667-98.986667-155.306667-288.426666 0-15.36 0-40.96 160.426667-90.453334 5.12-1.706667 10.24-1.706667 15.36 0 160.426667 49.493333 160.426667 75.093333 160.426666 90.453334 0 189.44-148.48 285.013333-155.306666 288.426666-3.413333 3.413333-6.826667 3.413333-11.946667 3.413334z m-117.76-283.306667c3.413333 126.293333 83.626667 201.386667 117.76 226.986667 32.426667-25.6 114.346667-100.693333 117.76-226.986667-17.066667-11.946667-69.973333-32.426667-117.76-47.786667-47.786667 15.36-100.693333 35.84-117.76 47.786667z"  /></svg>