<?xml version="1.0" standalone="no"?><!DOCTYPE svg PUBLIC "-//W3C//DTD SVG 1.1//EN" "http://www.w3.org/Graphics/SVG/1.1/DTD/svg11.dtd"><svg class="icon" width="64px" height="64.00px" viewBox="0 0 1024 1024" version="1.1" xmlns="http://www.w3.org/2000/svg"><path  d="M540.501333 989.866667H118.613333c-49.493333 0-89.770667-42.154667-89.770666-93.866667v-768C28.842667 76.288 69.12 34.133333 118.613333 34.133333h656.554667c49.493333 0 89.770667 42.154667 89.770667 93.866667V460.8c0 14.165333-11.434667 25.6-25.6 25.6s-25.6-11.434667-25.6-25.6V128c0-23.552-17.408-42.666667-38.570667-42.666667H118.613333C97.28 85.333333 80.042667 104.448 80.042667 128v768c0 23.552 17.237333 42.666667 38.570666 42.666667h421.888c14.165333 0 25.6 11.434667 25.6 25.6s-11.434667 25.6-25.6 25.6z"  /><path  d="M284.672 517.290667c-7.168 0-14.336-2.901333-19.285333-8.874667-9.216-10.752-8.192-26.794667 2.56-36.181333l309.077333-268.629334c10.581333-9.386667 26.794667-8.192 36.181333 2.56 9.216 10.752 8.192 26.794667-2.56 36.181334L301.397333 510.976c-4.778667 4.266667-10.752 6.314667-16.725333 6.314667z"  /><path  d="M519.168 381.098667c-27.818667 0-53.589333-16.725333-68.266667-33.621334-22.869333-26.453333-41.642667-79.018667 0.853334-116.053333L529.066667 164.352a25.668267 25.668267 0 0 1 33.621333 38.741333l-77.312 67.072c-18.090667 15.701333 0.341333 39.424 4.266667 44.032 3.754667 4.266667 24.576 25.770667 42.666666 10.069334l77.312-67.072a25.668267 25.668267 0 0 1 33.621334 38.741333l-77.312 67.072c-15.189333 12.8-31.402667 18.090667-46.762667 18.090667z"  /><path  d="M497.834667 517.290667c-6.826667 0-13.482667-2.730667-18.432-7.850667l-144.896-151.893333-40.789334 38.912a25.6 25.6 0 0 1-36.181333-0.853334l-63.658667-66.730666c-54.442667-57.002667-27.648-122.197333 3.584-152.064 4.949333-4.608 11.434667-6.997333 18.261334-7.168 6.826667 0.170667 13.312 3.072 17.92 7.850666l120.149333 125.952 162.474667 170.325334c9.728 10.24 9.386667 26.453333-0.853334 36.181333-4.778667 4.949333-11.264 7.338667-17.578666 7.338667zM218.112 235.52c-6.485333 15.018667-8.192 36.010667 12.970667 58.026667l45.909333 48.128 22.186667-21.162667-81.066667-84.992z"  /><path  d="M764.757333 989.866667c-126.976 0-230.4-103.424-230.4-230.4S637.781333 529.066667 764.757333 529.066667s230.4 103.424 230.4 230.4S891.904 989.866667 764.757333 989.866667z m0-409.6c-98.816 0-179.2 80.384-179.2 179.2S665.941333 938.666667 764.757333 938.666667s179.2-80.384 179.2-179.2S863.573333 580.266667 764.757333 580.266667z"  /><path  d="M826.197333 764.586667h-122.88c-14.165333 0-25.6-11.434667-25.6-25.6s11.434667-25.6 25.6-25.6h122.88c14.165333 0 25.6 11.434667 25.6 25.6s-11.434667 25.6-25.6 25.6zM826.197333 826.026667h-122.88c-14.165333 0-25.6-11.434667-25.6-25.6s11.434667-25.6 25.6-25.6h122.88c14.165333 0 25.6 11.434667 25.6 25.6s-11.434667 25.6-25.6 25.6z"  /><path  d="M764.928 887.466667c-14.165333 0-25.6-11.434667-25.6-25.6v-122.88c0-14.165333 11.434667-25.6 25.6-25.6s25.6 11.434667 25.6 25.6v122.88c0 14.165333-11.434667 25.6-25.6 25.6z"  /><path  d="M764.757333 764.928l-79.530666-79.530667c-10.069333-10.069333-10.069333-26.282667 0-36.181333s26.282667-10.069333 36.181333 0l43.349333 43.349333 43.349334-43.349333c10.069333-10.069333 26.282667-10.069333 36.181333 0s10.069333 26.282667 0 36.181333l-79.530667 79.530667z"  /></svg>