<?xml version="1.0" standalone="no"?><!DOCTYPE svg PUBLIC "-//W3C//DTD SVG 1.1//EN" "http://www.w3.org/Graphics/SVG/1.1/DTD/svg11.dtd"><svg class="icon" width="64px" height="64.00px" viewBox="0 0 1024 1024" version="1.1" xmlns="http://www.w3.org/2000/svg"><path  d="M585.386667 530.773333H296.96c-13.653333 0-25.6-11.946667-25.6-25.6s11.946667-25.6 25.6-25.6h288.426667c13.653333 0 25.6 11.946667 25.6 25.6s-11.946667 25.6-25.6 25.6zM469.333333 356.693333H296.96c-13.653333 0-25.6-11.946667-25.6-25.6s11.946667-25.6 25.6-25.6h172.373333c13.653333 0 25.6 11.946667 25.6 25.6s-11.946667 25.6-25.6 25.6zM989.866667 324.266667H756.053333v-112.64c0-64.853333 52.906667-116.053333 116.053334-116.053334 64.853333 0 116.053333 52.906667 116.053333 116.053334V324.266667z m-182.613334-51.2H938.666667v-61.44c0-35.84-29.013333-64.853333-64.853334-64.853334-35.84 0-64.853333 29.013333-64.853333 64.853334V273.066667zM691.2 930.133333c-64.853333 0-116.053333-52.906667-116.053333-116.053333v-56.32h51.2v56.32c0 35.84 29.013333 64.853333 64.853333 64.853333s64.853333-29.013333 64.853333-64.853333v-56.32h51.2v56.32c0 63.146667-51.2 116.053333-116.053333 116.053333z"  /><path  d="M708.266667 930.133333H133.12c-54.613333 0-98.986667-44.373333-98.986667-98.986666v-98.986667h588.8v51.2H85.333333v47.786667c0 27.306667 22.186667 47.786667 47.786667 47.786666h575.146667c27.306667 0 47.786667-22.186667 47.786666-47.786666v-580.266667h51.2v580.266667c0 54.613333-44.373333 98.986667-98.986666 98.986666z"  /><path  d="M599.04 781.653333H167.253333V179.2c0-46.08 37.546667-85.333333 85.333334-85.333333h612.693333v51.2H252.586667c-18.773333 0-34.133333 15.36-34.133334 34.133333v551.253333h380.586667v51.2z"  /></svg>