<?xml version="1.0" standalone="no"?><!DOCTYPE svg PUBLIC "-//W3C//DTD SVG 1.1//EN" "http://www.w3.org/Graphics/SVG/1.1/DTD/svg11.dtd"><svg class="icon" width="64px" height="64.00px" viewBox="0 0 1024 1024" version="1.1" xmlns="http://www.w3.org/2000/svg"><path  d="M964.266667 989.866667h-904.533334c-13.653333 0-25.6-11.946667-25.6-25.6v-904.533334C34.133333 46.08 46.08 34.133333 59.733333 34.133333S85.333333 46.08 85.333333 59.733333V938.666667h878.933334c13.653333 0 25.6 11.946667 25.6 25.6s-11.946667 25.6-25.6 25.6z"  /><path  d="M361.813333 788.48h-100.693333c-13.653333 0-25.6-11.946667-25.6-25.6s11.946667-25.6 25.6-25.6h100.693333c13.653333 0 25.6 11.946667 25.6 25.6s-11.946667 25.6-25.6 25.6zM561.493333 587.093333H261.12c-13.653333 0-25.6-11.946667-25.6-25.6s11.946667-25.6 25.6-25.6H563.2c13.653333 0 25.6 11.946667 25.6 25.6s-11.946667 25.6-27.306667 25.6zM964.266667 387.413333H261.12c-13.653333 0-25.6-11.946667-25.6-25.6s11.946667-25.6 25.6-25.6h703.146667c13.653333 0 25.6 11.946667 25.6 25.6s-11.946667 25.6-25.6 25.6zM762.88 186.026667H261.12c-13.653333 0-25.6-11.946667-25.6-25.6s11.946667-25.6 25.6-25.6h501.76c13.653333 0 25.6 11.946667 25.6 25.6s-10.24 25.6-25.6 25.6z"  /></svg>