<?xml version="1.0" standalone="no"?><!DOCTYPE svg PUBLIC "-//W3C//DTD SVG 1.1//EN" "http://www.w3.org/Graphics/SVG/1.1/DTD/svg11.dtd"><svg class="icon" width="64px" height="64.00px" viewBox="0 0 1024 1024" version="1.1" xmlns="http://www.w3.org/2000/svg"><path  d="M482.645333 989.866667H187.733333a94.037333 94.037333 0 0 1-93.866666-93.866667v-768C93.866667 76.288 136.021333 34.133333 187.733333 34.133333h648.533334c51.712 0 93.866667 42.154667 93.866666 93.866667v329.045333c0 14.165333-11.434667 25.6-25.6 25.6s-25.6-11.434667-25.6-25.6V128A42.666667 42.666667 0 0 0 836.266667 85.333333H187.733333a42.666667 42.666667 0 0 0-42.666666 42.666667v768A42.666667 42.666667 0 0 0 187.733333 938.666667h294.912c14.165333 0 25.6 11.434667 25.6 25.6s-11.605333 25.6-25.6 25.6z"  /><path  d="M698.368 244.736H266.752c-14.165333 0-25.6-11.434667-25.6-25.6s11.434667-25.6 25.6-25.6h431.616c14.165333 0 25.6 11.434667 25.6 25.6s-11.434667 25.6-25.6 25.6zM698.368 394.410667H266.752c-14.165333 0-25.6-11.434667-25.6-25.6s11.434667-25.6 25.6-25.6h431.616c14.165333 0 25.6 11.434667 25.6 25.6s-11.434667 25.6-25.6 25.6zM407.893333 544.085333h-141.141333c-14.165333 0-25.6-11.434667-25.6-25.6s11.434667-25.6 25.6-25.6h141.141333c14.165333 0 25.6 11.434667 25.6 25.6s-11.434667 25.6-25.6 25.6z"  /><path  d="M730.453333 770.389333c-3.925333 0-7.850667-0.853333-11.434666-2.730666l-202.410667-100.010667c-8.704-4.266667-14.165333-13.141333-14.165333-22.869333s5.461333-18.602667 14.165333-22.869334l202.410667-100.010666c7.168-3.584 15.530667-3.584 22.698666 0l202.410667 100.010666c8.704 4.266667 14.165333 13.141333 14.165333 22.869334s-5.461333 18.602667-14.165333 22.869333l-202.410667 100.010667c-3.584 1.706667-7.509333 2.730667-11.264 2.730666z m-144.725333-125.781333l144.725333 71.509333 144.725334-71.509333-144.725334-71.509333-144.725333 71.509333z"  /><path  d="M730.453333 875.690667c-3.925333 0-7.850667-0.853333-11.434666-2.730667l-202.410667-100.010667a25.634133 25.634133 0 0 1-11.605333-34.304c6.314667-12.629333 21.674667-17.92 34.304-11.605333l191.146666 94.378667L921.6 727.04c12.629333-6.314667 27.989333-1.024 34.304 11.605333 6.314667 12.629333 1.024 27.989333-11.605333 34.304l-202.410667 100.010667c-3.754667 1.706667-7.68 2.730667-11.434667 2.730667z"  /><path  d="M730.453333 980.992c-3.925333 0-7.850667-0.853333-11.434666-2.730667l-202.410667-100.010666a25.634133 25.634133 0 0 1-11.605333-34.304c6.314667-12.629333 21.674667-17.92 34.304-11.605334l191.146666 94.378667L921.6 832.341333c12.629333-6.314667 27.989333-1.024 34.304 11.605334 6.314667 12.629333 1.024 27.989333-11.605333 34.304l-202.410667 100.010666c-3.754667 1.706667-7.68 2.730667-11.434667 2.730667z"  /></svg>