<?xml version="1.0" standalone="no"?><!DOCTYPE svg PUBLIC "-//W3C//DTD SVG 1.1//EN" "http://www.w3.org/Graphics/SVG/1.1/DTD/svg11.dtd"><svg class="icon" width="64px" height="64.00px" viewBox="0 0 1024 1024" version="1.1" xmlns="http://www.w3.org/2000/svg"><path  d="M263.168 537.6C132.608 537.6 34.133333 487.765333 34.133333 421.546667V150.186667c0-14.165333 11.434667-25.6 25.6-25.6S85.333333 136.021333 85.333333 150.186667v271.36c0 26.453333 69.290667 64.853333 177.834667 64.853333s178.005333-38.4 178.005333-64.853333V150.186667c0-14.165333 11.434667-25.6 25.6-25.6s25.6 11.434667 25.6 25.6v271.36c0 66.218667-98.474667 116.053333-229.205333 116.053333z"  /><path  d="M263.168 401.92C132.608 401.92 34.133333 352.085333 34.133333 285.866667c0-14.165333 11.434667-25.6 25.6-25.6s25.6 11.434667 25.6 25.6c0 26.453333 69.290667 64.853333 177.834667 64.853333s178.005333-38.4 178.005333-64.853333c0-14.165333 11.434667-25.6 25.6-25.6s25.6 11.434667 25.6 25.6c0 66.218667-98.474667 116.053333-229.205333 116.053333z"  /><path  d="M263.168 266.24C132.608 266.24 34.133333 216.405333 34.133333 150.186667S132.608 34.133333 263.168 34.133333s229.205333 49.834667 229.205333 116.053334-98.474667 116.053333-229.205333 116.053333z m0-180.906667C154.624 85.333333 85.333333 123.733333 85.333333 150.186667c0 26.453333 69.290667 64.853333 177.834667 64.853333s178.005333-38.4 178.005333-64.853333c0-26.453333-69.290667-64.853333-178.005333-64.853334zM919.04 356.693333c-14.165333 0-25.6-11.434667-25.6-25.6v-157.866666a42.666667 42.666667 0 0 0-42.666667-42.666667H692.906667c-14.165333 0-25.6-11.434667-25.6-25.6s11.434667-25.6 25.6-25.6h157.866666c51.712 0 93.866667 42.154667 93.866667 93.866667v157.866666c0 14.165333-11.434667 25.6-25.6 25.6zM331.093333 944.64h-157.866666a94.037333 94.037333 0 0 1-93.866667-93.866667V692.906667c0-14.165333 11.434667-25.6 25.6-25.6s25.6 11.434667 25.6 25.6v157.866666a42.666667 42.666667 0 0 0 42.666667 42.666667h157.866666c14.165333 0 25.6 11.434667 25.6 25.6s-11.434667 25.6-25.6 25.6zM760.832 989.866667c-14.165333 0-25.6-11.434667-25.6-25.6v-135.68c0-14.165333 11.434667-25.6 25.6-25.6s25.6 11.434667 25.6 25.6v135.68c0 14.165333-11.605333 25.6-25.6 25.6z"  /><path  d="M896.341333 989.866667h-271.36c-14.165333 0-25.6-11.434667-25.6-25.6s11.434667-25.6 25.6-25.6h271.36c14.165333 0 25.6 11.434667 25.6 25.6s-11.434667 25.6-25.6 25.6zM930.133333 854.186667H591.36c-32.938667 0-59.733333-26.794667-59.733333-59.733334v-203.093333c0-32.938667 26.794667-59.733333 59.733333-59.733333H930.133333c32.938667 0 59.733333 26.794667 59.733334 59.733333v203.093333c0 32.938667-26.794667 59.733333-59.733334 59.733334z m-338.773333-271.36c-4.778667 0-8.533333 3.754667-8.533333 8.533333v203.093333c0 4.778667 3.754667 8.533333 8.533333 8.533334H930.133333c4.778667 0 8.533333-3.754667 8.533334-8.533334v-203.093333c0-4.778667-3.754667-8.533333-8.533334-8.533333H591.36z"  /></svg>