<?xml version="1.0" standalone="no"?><!DOCTYPE svg PUBLIC "-//W3C//DTD SVG 1.1//EN" "http://www.w3.org/Graphics/SVG/1.1/DTD/svg11.dtd"><svg class="icon" width="64px" height="64.00px" viewBox="0 0 1024 1024" version="1.1" xmlns="http://www.w3.org/2000/svg"><path  d="M415.061333 398.848c-14.165333 0-25.6 11.434667-25.6 25.6s11.434667 25.6 25.6 25.6h71.509334v71.338667c0 14.165333 11.434667 25.6 25.6 25.6s25.6-11.434667 25.6-25.6v-71.338667h71.338666c14.165333 0 25.6-11.434667 25.6-25.6s-11.434667-25.6-25.6-25.6h-71.338666v-45.738667h71.338666c14.165333 0 25.6-11.434667 25.6-25.6s-11.434667-25.6-25.6-25.6h-51.370666l69.461333-69.461333c10.069333-10.069333 10.069333-26.282667 0-36.181333s-26.282667-10.069333-36.181333 0L512 275.114667l-78.848-78.848c-10.069333-10.069333-26.282667-10.069333-36.181333 0s-10.069333 26.282667 0 36.181333l69.461333 69.461333h-51.370667c-14.165333 0-25.6 11.434667-25.6 25.6s11.434667 25.6 25.6 25.6h71.509334v45.738667h-71.509334zM346.112 710.485333h331.776c10.410667 0 19.797333-6.314667 23.722667-15.872 3.925333-9.557333 1.536-20.650667-5.802667-27.989333l-60.757333-59.392c-10.069333-9.898667-26.282667-9.728-36.181334 0.512-9.898667 10.069333-9.728 26.282667 0.512 36.181333l15.872 15.530667H346.112c-14.165333 0-25.6 11.434667-25.6 25.6s11.434667 25.429333 25.6 25.429333zM677.888 745.301333H346.112c-10.410667 0-19.797333 6.314667-23.722667 15.872-3.925333 9.557333-1.536 20.650667 5.802667 27.989334l60.757333 59.392c4.949333 4.949333 11.434667 7.338667 17.92 7.338666 6.656 0 13.312-2.56 18.261334-7.68 9.898667-10.069333 9.728-26.282667-0.512-36.181333l-15.872-15.530667h268.970666c14.165333 0 25.6-11.434667 25.6-25.6s-11.264-25.6-25.429333-25.6z"  /><path  d="M836.266667 34.133333H187.733333a94.037333 94.037333 0 0 0-93.866666 93.866667v768c0 51.712 42.154667 93.866667 93.866666 93.866667h648.533334c51.712 0 93.866667-42.154667 93.866666-93.866667v-768C930.133333 76.288 887.978667 34.133333 836.266667 34.133333z m42.666666 861.866667A42.666667 42.666667 0 0 1 836.266667 938.666667H187.733333a42.666667 42.666667 0 0 1-42.666666-42.666667v-768A42.666667 42.666667 0 0 1 187.733333 85.333333h648.533334a42.666667 42.666667 0 0 1 42.666666 42.666667v768z"  /></svg>