<?xml version="1.0" standalone="no"?><!DOCTYPE svg PUBLIC "-//W3C//DTD SVG 1.1//EN" "http://www.w3.org/Graphics/SVG/1.1/DTD/svg11.dtd"><svg class="icon" width="64px" height="64.00px" viewBox="0 0 1024 1024" version="1.1" xmlns="http://www.w3.org/2000/svg"><path  d="M960.853333 302.08H162.133333c-71.68 0-128-58.026667-128-128s58.026667-128 128-128h802.133334c13.653333 0 25.6 11.946667 25.6 25.6s-11.946667 25.6-25.6 25.6h-802.133334C119.466667 95.573333 85.333333 129.706667 85.333333 172.373333s34.133333 76.8 76.8 76.8h797.013334c13.653333 0 25.6 11.946667 25.6 25.6s-10.24 27.306667-23.893334 27.306667z"  /><path  d="M984.746667 976.213333H163.84c-69.973333 0-126.293333-56.32-126.293333-124.586666V197.973333h51.2v653.653334c0 40.96 34.133333 73.386667 75.093333 73.386666h769.706667V267.946667h51.2v708.266666zM884.053333 197.973333H216.746667c-13.653333 0-25.6-11.946667-25.6-25.6s11.946667-25.6 25.6-25.6h669.013333c13.653333 0 25.6 11.946667 25.6 25.6s-13.653333 25.6-27.306667 25.6z"  /><path  d="M278.186667 418.133333m-23.893334 0a23.893333 23.893333 0 1 0 47.786667 0 23.893333 23.893333 0 1 0-47.786667 0Z"  /><path  d="M278.186667 595.626667m-23.893334 0a23.893333 23.893333 0 1 0 47.786667 0 23.893333 23.893333 0 1 0-47.786667 0Z"  /><path  d="M768 443.733333H392.533333c-13.653333 0-25.6-11.946667-25.6-25.6S378.88 392.533333 392.533333 392.533333h375.466667c13.653333 0 25.6 11.946667 25.6 25.6S783.36 443.733333 768 443.733333zM768 621.226667H392.533333c-13.653333 0-25.6-11.946667-25.6-25.6s11.946667-25.6 25.6-25.6h375.466667c13.653333 0 25.6 11.946667 25.6 25.6s-10.24 25.6-25.6 25.6z"  /><path  d="M278.186667 776.533333m-23.893334 0a23.893333 23.893333 0 1 0 47.786667 0 23.893333 23.893333 0 1 0-47.786667 0Z"  /><path  d="M768 802.133333H392.533333c-13.653333 0-25.6-11.946667-25.6-25.6S378.88 750.933333 392.533333 750.933333h375.466667c13.653333 0 25.6 11.946667 25.6 25.6S783.36 802.133333 768 802.133333z"  /></svg>