<?xml version="1.0" standalone="no"?><!DOCTYPE svg PUBLIC "-//W3C//DTD SVG 1.1//EN" "http://www.w3.org/Graphics/SVG/1.1/DTD/svg11.dtd"><svg class="icon" width="64px" height="64.00px" viewBox="0 0 1024 1024" version="1.1" xmlns="http://www.w3.org/2000/svg"><path d="M512 967.68l-406.186667-136.533333c-59.733333-22.186667-71.68-58.026667-71.68-85.333334V139.946667c0-46.08 37.546667-83.626667 83.626667-83.626667h5.12L529.066667 196.266667l-17.066667 47.786666-397.653333-136.533333c-17.066667 1.706667-29.013333 15.36-29.013334 32.426667v607.573333c0 8.533333 0 23.893333 37.546667 37.546667L529.066667 918.186667l-17.066667 49.493333z" fill="#333333" /><path d="M512 967.68l-17.066667-49.493333 406.186667-134.826667c35.84-13.653333 35.84-29.013333 35.84-37.546667V139.946667c0-17.066667-11.946667-30.72-29.013333-32.426667l-397.653334 136.533333-17.066666-47.786666 406.186666-139.946667h5.12c46.08 0 83.626667 37.546667 83.626667 83.626667v607.573333c0 27.306667-11.946667 64.853333-71.68 85.333333L512 967.68zM225.28 655.36c-5.12 0-10.24-1.706667-13.653333-5.12-8.533333-5.12-11.946667-15.36-10.24-25.6l13.653333-83.626667-59.733333-59.733333c-6.826667-6.826667-8.533333-17.066667-6.826667-25.6 3.413333-8.533333 10.24-15.36 20.48-17.066667l80.213333-15.36 37.546667-78.506666c3.413333-8.533333 13.653333-15.36 22.186667-15.36s18.773333 5.12 23.893333 13.653333l39.253333 78.506667 87.04 8.533333c10.24 1.706667 18.773333 8.533333 22.186667 17.066667 3.413333 10.24 0 20.48-6.826667 27.306666l-63.146666 59.733334 15.36 85.333333c1.706667 10.24-1.706667 18.773333-10.24 25.6-8.533333 5.12-18.773333 6.826667-27.306667 1.706667l-73.386667-39.253334-73.386666 42.666667c-8.533333 5.12-11.946667 5.12-17.066667 5.12z m-1.706667-174.08l35.84 34.133333c5.12 5.12 8.533333 13.653333 6.826667 22.186667l-6.826667 42.666667 39.253334-23.893334c8.533333-5.12 17.066667-5.12 25.6 0l39.253333 20.48-8.533333-46.08c-1.706667-8.533333 1.706667-17.066667 6.826666-22.186666l34.133334-30.72-46.08-5.12c-8.533333-1.706667-17.066667-6.826667-20.48-13.653334L307.2 414.72l-20.48 42.666667c-3.413333 6.826667-10.24 11.946667-18.773333 13.653333l-44.373334 10.24z" fill="#333333" /><path d="M592.213333 402.773333l259.413334-88.746666"  /><path d="M592.213333 428.373333c-10.24 0-20.48-6.826667-23.893333-17.066666-5.12-13.653333 1.706667-27.306667 15.36-32.426667L843.093333 290.133333c13.653333-5.12 27.306667 1.706667 32.426667 15.36 5.12 13.653333-1.706667 27.306667-15.36 32.426667L600.746667 426.666667c-3.413333 1.706667-5.12 1.706667-8.533334 1.706666z" fill="#333333" /><path d="M592.213333 552.96l259.413334-90.453333"  /><path d="M592.213333 578.56c-10.24 0-20.48-6.826667-23.893333-17.066667-5.12-13.653333 1.706667-27.306667 15.36-32.426666l259.413333-88.746667c13.653333-5.12 27.306667 1.706667 32.426667 15.36 5.12 13.653333-1.706667 27.306667-15.36 32.426667l-259.413333 88.746666c-3.413333 0-5.12 1.706667-8.533334 1.706667z" fill="#333333" /><path d="M592.213333 713.386667l259.413334-88.746667"  /><path d="M592.213333 738.986667c-10.24 0-20.48-6.826667-23.893333-17.066667-5.12-13.653333 1.706667-27.306667 15.36-32.426667l259.413333-88.746666c13.653333-5.12 27.306667 1.706667 32.426667 15.36 5.12 13.653333-1.706667 27.306667-15.36 32.426666l-259.413333 88.746667c-3.413333 1.706667-5.12 1.706667-8.533334 1.706667z" fill="#333333" /></svg>