<?xml version="1.0" standalone="no"?><!DOCTYPE svg PUBLIC "-//W3C//DTD SVG 1.1//EN" "http://www.w3.org/Graphics/SVG/1.1/DTD/svg11.dtd"><svg class="icon" width="64px" height="64.00px" viewBox="0 0 1024 1024" version="1.1" xmlns="http://www.w3.org/2000/svg"><path  d="M472.746667 863.573333c-228.693333 0-414.72-186.026667-414.72-414.72S244.053333 34.133333 472.746667 34.133333 887.466667 220.16 887.466667 448.853333 701.44 863.573333 472.746667 863.573333z m0-778.24C271.36 85.333333 109.226667 247.466667 109.226667 448.853333s162.133333 363.52 363.52 363.52S834.56 648.533333 834.56 448.853333 672.426667 85.333333 472.746667 85.333333z"  /><path  d="M472.746667 407.893333c-54.613333 0-100.693333-44.373333-100.693334-100.693333s44.373333-100.693333 100.693334-100.693333 100.693333 44.373333 100.693333 100.693333-46.08 100.693333-100.693333 100.693333z m0-150.186666c-27.306667 0-49.493333 22.186667-49.493334 49.493333s22.186667 49.493333 49.493334 49.493333 49.493333-22.186667 49.493333-49.493333-23.893333-49.493333-49.493333-49.493333zM634.88 689.493333c-13.653333 0-25.6-11.946667-25.6-25.6v-44.373333c0-75.093333-61.44-136.533333-136.533333-136.533333s-136.533333 61.44-136.533334 136.533333v44.373333c0 13.653333-11.946667 25.6-25.6 25.6s-25.6-11.946667-25.6-25.6v-44.373333c0-104.106667 83.626667-187.733333 187.733334-187.733333s187.733333 83.626667 187.733333 187.733333v44.373333c0 15.36-11.946667 25.6-25.6 25.6z"  /><path  d="M940.373333 989.866667c-6.826667 0-13.653333-3.413333-18.773333-8.533334l-213.333333-221.866666c-10.24-10.24-10.24-25.6 0-35.84 10.24-10.24 25.6-10.24 35.84 0l213.333333 221.866666c10.24 10.24 10.24 25.6 0 35.84-3.413333 6.826667-10.24 8.533333-17.066667 8.533334z"  /></svg>