<?xml version="1.0" standalone="no"?><!DOCTYPE svg PUBLIC "-//W3C//DTD SVG 1.1//EN" "http://www.w3.org/Graphics/SVG/1.1/DTD/svg11.dtd"><svg class="icon" width="64px" height="64.00px" viewBox="0 0 1024 1024" version="1.1" xmlns="http://www.w3.org/2000/svg"><path  d="M778.24 989.866667H245.76C167.253333 989.866667 102.4 926.72 102.4 848.213333V175.786667C102.4 97.28 167.253333 34.133333 245.76 34.133333h532.48c78.506667 0 141.653333 63.146667 141.653333 141.653334v670.72c1.706667 80.213333-63.146667 143.36-141.653333 143.36zM245.76 85.333333C194.56 85.333333 153.6 126.293333 153.6 175.786667v670.72c0 49.493333 40.96 90.453333 90.453333 90.453333h532.48c49.493333 0 90.453333-40.96 90.453334-90.453333V175.786667C870.4 126.293333 829.44 85.333333 778.24 85.333333H245.76z"  /><path  d="M419.84 518.826667c-10.24 0-18.773333-3.413333-27.306667-8.533334-15.36-10.24-22.186667-29.013333-18.773333-46.08l13.653333-76.8-54.613333-54.613333c-13.653333-13.653333-17.066667-30.72-11.946667-47.786667S341.333333 256 358.4 252.586667l76.8-11.946667 34.133333-69.973333c6.826667-15.36 23.893333-25.6 40.96-27.306667 17.066667 0 34.133333 10.24 42.666667 25.6l34.133333 69.973333 76.8 11.946667c17.066667 1.706667 32.426667 15.36 37.546667 32.426667 5.12 17.066667 1.706667 35.84-11.946667 47.786666l-56.32 54.613334 13.653334 76.8c3.413333 17.066667-3.413333 35.84-18.773334 46.08-15.36 10.24-34.133333 11.946667-49.493333 3.413333l-68.266667-35.84-68.266666 35.84c-6.826667 5.12-15.36 6.826667-22.186667 6.826667z m-46.08-216.746667l68.266667 66.56-17.066667 95.573333 85.333333-44.373333 85.333334 44.373333-17.066667-95.573333 68.266667-66.56-95.573334-13.653333-42.666666-85.333334-42.666667 85.333334-92.16 13.653333z m281.6 1.706667z m-141.653333-109.226667zM715.093333 624.64H308.906667c-13.653333 0-25.6-11.946667-25.6-25.6s11.946667-25.6 25.6-25.6H716.8c13.653333 0 25.6 11.946667 25.6 25.6s-11.946667 25.6-27.306667 25.6zM715.093333 795.306667H308.906667c-13.653333 0-25.6-11.946667-25.6-25.6s11.946667-25.6 25.6-25.6H716.8c13.653333 0 25.6 11.946667 25.6 25.6s-11.946667 25.6-27.306667 25.6z"  /></svg>