<?xml version="1.0" standalone="no"?><!DOCTYPE svg PUBLIC "-//W3C//DTD SVG 1.1//EN" "http://www.w3.org/Graphics/SVG/1.1/DTD/svg11.dtd"><svg class="icon" width="64px" height="64.00px" viewBox="0 0 1024 1024" version="1.1" xmlns="http://www.w3.org/2000/svg"><path  d="M505.173333 556.373333c-8.533333 0-17.066667-3.413333-25.6-8.533333-13.653333-8.533333-18.773333-25.6-17.066666-40.96l10.24-54.613333-40.96-39.253334c-11.946667-11.946667-15.36-27.306667-10.24-42.666666 5.12-15.36 17.066667-25.6 34.133333-29.013334l56.32-8.533333 25.6-49.493333c6.826667-13.653333 20.48-23.893333 37.546667-23.893334 15.36 0 30.72 8.533333 37.546666 23.893334l25.6 51.2 56.32 8.533333c15.36 1.706667 29.013333 13.653333 34.133334 29.013333 5.12 15.36 0 32.426667-10.24 42.666667l-40.96 39.253333 10.24 54.613334c3.413333 15.36-3.413333 32.426667-17.066667 40.96-13.653333 10.24-30.72 10.24-44.373333 3.413333l-49.493334-25.6-49.493333 25.6c-8.533333 1.706667-15.36 3.413333-22.186667 3.413333z m8.533334-40.96z m-30.72-126.293333l46.08 44.373333-10.24 63.146667 58.026666-30.72 58.026667 30.72-10.24-63.146667 46.08-44.373333-63.146667-10.24-29.013333-58.026667-32.426667 59.733334-63.146666 8.533333z m203.093333 3.413333z m-102.4-87.04z"  /><path  d="M793.6 988.16h-563.2c-78.506667 0-141.653333-63.146667-141.653333-141.653333V174.08c0-78.506667 63.146667-141.653333 141.653333-141.653333h563.2c78.506667 0 141.653333 63.146667 141.653333 141.653333v670.72c0 78.506667-63.146667 143.36-141.653333 143.36z m-563.2-904.533333c-49.493333 0-90.453333 40.96-90.453333 90.453333v670.72c0 49.493333 40.96 90.453333 90.453333 90.453333h563.2c49.493333 0 90.453333-40.96 90.453333-90.453333V174.08c0-49.493333-40.96-90.453333-90.453333-90.453333h-563.2z"  /><path  d="M465.92 803.84h-78.506667c-15.36 0-29.013333-13.653333-29.013333-29.013333v-78.506667c0-15.36 13.653333-29.013333 29.013333-29.013333h78.506667c15.36 0 29.013333 13.653333 29.013333 29.013333v78.506667c0 15.36-13.653333 29.013333-29.013333 29.013333z m-56.32-51.2h34.133333v-34.133333h-34.133333v34.133333zM622.933333 803.84H546.133333c-15.36 0-29.013333-13.653333-29.013333-29.013333v-78.506667c0-15.36 13.653333-29.013333 29.013333-29.013333h78.506667c15.36 0 29.013333 13.653333 29.013333 29.013333v78.506667c-1.706667 15.36-13.653333 29.013333-30.72 29.013333z m-54.613333-51.2h34.133333v-34.133333h-34.133333v34.133333zM781.653333 803.84h-78.506666c-15.36 0-29.013333-13.653333-29.013334-29.013333v-78.506667c0-15.36 13.653333-29.013333 29.013334-29.013333h78.506666c15.36 0 29.013333 13.653333 29.013334 29.013333v78.506667c0 15.36-13.653333 29.013333-29.013334 29.013333z m-56.32-51.2h34.133334v-34.133333h-34.133334v34.133333z"  /><path  d="M226.986667 58.026667h51.2v904.533333h-51.2z"  /></svg>