<?xml version="1.0" standalone="no"?><!DOCTYPE svg PUBLIC "-//W3C//DTD SVG 1.1//EN" "http://www.w3.org/Graphics/SVG/1.1/DTD/svg11.dtd"><svg class="icon" width="64px" height="64.00px" viewBox="0 0 1024 1024" version="1.1" xmlns="http://www.w3.org/2000/svg"><path  d="M704.853333 399.36c-6.826667 0-11.946667-1.706667-17.066666-6.826667l-68.266667-64.853333-68.266667 64.853333c-6.826667 6.826667-18.773333 8.533333-27.306666 5.12-10.24-3.413333-15.36-13.653333-15.36-23.893333V61.44c0-13.653333 11.946667-25.6 25.6-25.6h170.666666c13.653333 0 25.6 11.946667 25.6 25.6v312.32c0 10.24-6.826667 18.773333-15.36 23.893333-3.413333 1.706667-6.826667 1.706667-10.24 1.706667zM559.786667 87.04v226.986667l42.666666-40.96c10.24-8.533333 25.6-8.533333 35.84 0l42.666667 40.96V87.04h-121.173333zM877.226667 991.573333H237.226667c-73.386667 0-133.12-59.733333-133.12-133.12s59.733333-133.12 133.12-133.12h641.706666c22.186667 0 40.96 18.773333 40.96 40.96v180.906667c0 25.6-18.773333 44.373333-42.666666 44.373333zM237.226667 778.24c-44.373333 0-81.92 35.84-81.92 81.92s35.84 81.92 81.92 81.92h631.466666v-162.133333h-631.466666z"  /><path  d="M877.226667 991.573333H237.226667c-73.386667 0-133.12-59.733333-133.12-133.12V168.96c0-73.386667 59.733333-133.12 133.12-133.12h638.293333c23.893333 0 42.666667 18.773333 42.666667 42.666667v870.4c1.706667 23.893333-17.066667 42.666667-40.96 42.666666z m-640-904.533333c-44.373333 0-81.92 35.84-81.92 81.92v689.493333c0 44.373333 35.84 81.92 81.92 81.92h629.76v-853.333333H237.226667z"  /></svg>