<?xml version="1.0" standalone="no"?><!DOCTYPE svg PUBLIC "-//W3C//DTD SVG 1.1//EN" "http://www.w3.org/Graphics/SVG/1.1/DTD/svg11.dtd"><svg class="icon" width="64px" height="64.00px" viewBox="0 0 1024 1024" version="1.1" xmlns="http://www.w3.org/2000/svg"><path  d="M836.266667 989.866667H187.733333c-51.2 0-93.866667-42.666667-93.866666-93.866667v-768C93.866667 76.8 136.533333 34.133333 187.733333 34.133333h648.533334c51.2 0 93.866667 42.666667 93.866666 93.866667v768c0 51.2-42.666667 93.866667-93.866666 93.866667zM187.733333 85.333333C163.84 85.333333 145.066667 104.106667 145.066667 128v768c0 23.893333 18.773333 42.666667 42.666666 42.666667h648.533334c23.893333 0 42.666667-18.773333 42.666666-42.666667v-768C878.933333 104.106667 860.16 85.333333 836.266667 85.333333H187.733333z"  /><path  d="M358.4 298.666667c-39.253333 0-69.973333-30.72-69.973333-69.973334s30.72-69.973333 69.973333-69.973333 69.973333 30.72 69.973333 69.973333-30.72 69.973333-69.973333 69.973334z m0-88.746667c-10.24 0-18.773333 8.533333-18.773333 18.773333s8.533333 18.773333 18.773333 18.773334 18.773333-8.533333 18.773333-18.773334-8.533333-18.773333-18.773333-18.773333zM457.386667 455.68H259.413333c-13.653333 0-25.6-11.946667-25.6-25.6 0-68.266667 56.32-124.586667 124.586667-124.586667s124.586667 56.32 124.586667 124.586667c0 13.653333-10.24 25.6-25.6 25.6z m-167.253334-51.2h138.24c-10.24-27.306667-37.546667-47.786667-68.266666-47.786667S300.373333 375.466667 290.133333 404.48zM559.786667 578.56H259.413333c-13.653333 0-25.6-11.946667-25.6-25.6s11.946667-25.6 25.6-25.6h300.373334c13.653333 0 25.6 11.946667 25.6 25.6s-11.946667 25.6-25.6 25.6zM771.413333 274.773333h-119.466666c-13.653333 0-25.6-11.946667-25.6-25.6s11.946667-25.6 25.6-25.6h119.466666c13.653333 0 25.6 11.946667 25.6 25.6s-11.946667 25.6-25.6 25.6zM771.413333 406.186667h-119.466666c-13.653333 0-25.6-11.946667-25.6-25.6s11.946667-25.6 25.6-25.6h119.466666c13.653333 0 25.6 11.946667 25.6 25.6s-11.946667 25.6-25.6 25.6zM771.413333 718.506667h-512c-13.653333 0-25.6-11.946667-25.6-25.6s11.946667-25.6 25.6-25.6h512c13.653333 0 25.6 11.946667 25.6 25.6s-11.946667 25.6-25.6 25.6z"  /><path  d="M771.413333 856.746667h-512c-13.653333 0-25.6-11.946667-25.6-25.6s11.946667-25.6 25.6-25.6h512c13.653333 0 25.6 11.946667 25.6 25.6s-11.946667 25.6-25.6 25.6z"  /></svg>