<?xml version="1.0" standalone="no"?><!DOCTYPE svg PUBLIC "-//W3C//DTD SVG 1.1//EN" "http://www.w3.org/Graphics/SVG/1.1/DTD/svg11.dtd"><svg class="icon" width="64px" height="64.00px" viewBox="0 0 1024 1024" version="1.1" xmlns="http://www.w3.org/2000/svg"><path  d="M829.44 989.866667H194.56c-51.2 0-92.16-40.96-92.16-92.16V126.293333C102.4 75.093333 143.36 34.133333 194.56 34.133333h636.586667c51.2 0 92.16 40.96 92.16 92.16v769.706667c0 52.906667-42.666667 93.866667-93.866667 93.866667zM194.56 85.333333C170.666667 85.333333 151.893333 104.106667 151.893333 126.293333v769.706667c0 22.186667 18.773333 40.96 40.96 40.96h636.586667c22.186667 0 40.96-18.773333 40.96-40.96V126.293333c1.706667-22.186667-17.066667-40.96-40.96-40.96H194.56z"  /><path  d="M657.066667 674.133333H319.146667c-13.653333 0-25.6-11.946667-25.6-25.6s11.946667-25.6 25.6-25.6h337.92c13.653333 0 25.6 11.946667 25.6 25.6s-11.946667 25.6-25.6 25.6zM488.106667 808.96h-168.96c-13.653333 0-25.6-11.946667-25.6-25.6s11.946667-25.6 25.6-25.6h168.96c13.653333 0 25.6 11.946667 25.6 25.6s-11.946667 25.6-25.6 25.6zM438.613333 544.426667H375.466667c-20.48 0-35.84-17.066667-35.84-35.84v-61.44c0-10.24 3.413333-18.773333 10.24-25.6l208.213333-208.213334c13.653333-13.653333 37.546667-13.653333 51.2 0l63.146667 63.146667c13.653333 13.653333 13.653333 37.546667 0 51.2L464.213333 534.186667c-6.826667 6.826667-15.36 10.24-25.6 10.24z m-47.786666-51.2h40.96l192.853333-192.853334-40.96-40.96-192.853333 192.853334v40.96z"  /></svg>