<?xml version="1.0" standalone="no"?><!DOCTYPE svg PUBLIC "-//W3C//DTD SVG 1.1//EN" "http://www.w3.org/Graphics/SVG/1.1/DTD/svg11.dtd"><svg class="icon" width="64px" height="64.00px" viewBox="0 0 1024 1024" version="1.1" xmlns="http://www.w3.org/2000/svg"><path  d="M361.813333 884.053333h-92.16c-63.146667 0-121.173333-23.893333-165.546666-68.266666-44.373333-44.373333-68.266667-104.106667-68.266667-165.546667 0-63.146667 23.893333-121.173333 68.266667-165.546667 39.253333-39.253333 88.746667-63.146667 143.36-68.266666 18.773333-157.013333 153.6-276.48 314.026666-276.48 80.213333 0 157.013333 30.72 215.04 85.333333l1.706667 1.706667c3.413333 3.413333 3.413333 3.413333 8.533333 6.826666 10.24 10.24 10.24 25.6 0 35.84-10.24 10.24-25.6 10.24-35.84 0l-3.413333-3.413333-3.413333-1.706667-1.706667-1.706666c-49.493333-46.08-112.64-71.68-180.906667-71.68-141.653333 0-257.706667 110.933333-264.533333 250.88 0 13.653333-11.946667 23.893333-25.6 23.893333-49.493333 0-95.573333 18.773333-129.706667 54.613333-34.133333 34.133333-54.613333 80.213333-54.613333 129.706667 0 49.493333 18.773333 95.573333 54.613333 129.706667 34.133333 34.133333 80.213333 54.613333 129.706667 54.613333h92.16c13.653333 0 25.6 11.946667 25.6 25.6s-13.653333 23.893333-27.306667 23.893333z"  /><path  d="M866.986667 522.24h-69.973334c-6.826667 0-13.653333-3.413333-18.773333-6.826667l-104.106667-102.4h-124.586666c-13.653333 0-25.6-11.946667-25.6-25.6s11.946667-25.6 25.6-25.6h134.826666c6.826667 0 13.653333 3.413333 18.773334 6.826667l104.106666 102.4h59.733334c13.653333 0 25.6 11.946667 25.6 25.6s-11.946667 25.6-25.6 25.6zM597.333333 815.786667h-78.506666c-13.653333 0-25.6-11.946667-25.6-25.6s11.946667-25.6 25.6-25.6h68.266666l126.293334-124.586667c5.12-5.12 11.946667-6.826667 18.773333-6.826667h170.666667c13.653333 0 25.6 11.946667 25.6 25.6s-13.653333 23.893333-27.306667 23.893334h-158.72l-126.293333 124.586666c-5.12 5.12-11.946667 8.533333-18.773334 8.533334zM609.28 599.04H443.733333c-13.653333 0-25.6-11.946667-25.6-25.6s11.946667-25.6 25.6-25.6h165.546667c13.653333 0 25.6 11.946667 25.6 25.6s-11.946667 25.6-25.6 25.6z"  /><path  d="M476.16 385.706667c0 27.306667 22.186667 47.786667 47.786667 47.786666 27.306667 0 47.786667-22.186667 47.786666-47.786666s-22.186667-47.786667-47.786666-47.786667c-25.6-1.706667-47.786667 20.48-47.786667 47.786667zM442.026667 788.48c0 27.306667 22.186667 47.786667 47.786666 47.786667 27.306667 0 47.786667-22.186667 47.786667-47.786667 0-27.306667-22.186667-47.786667-47.786667-47.786667s-47.786667 22.186667-47.786666 47.786667zM851.626667 491.52c0 27.306667 22.186667 47.786667 47.786666 47.786667 27.306667 0 47.786667-22.186667 47.786667-47.786667 0-27.306667-22.186667-47.786667-47.786667-47.786667s-47.786667 20.48-47.786666 47.786667zM884.053333 651.946667c0 27.306667 22.186667 47.786667 47.786667 47.786666 27.306667 0 47.786667-22.186667 47.786667-47.786666s-22.186667-47.786667-47.786667-47.786667-47.786667 20.48-47.786667 47.786667zM365.226667 571.733333c0 27.306667 22.186667 47.786667 47.786666 47.786667 27.306667 0 47.786667-22.186667 47.786667-47.786667s-22.186667-47.786667-47.786667-47.786666-47.786667 20.48-47.786666 47.786666zM593.92 571.733333c0 27.306667 22.186667 47.786667 47.786667 47.786667 27.306667 0 47.786667-22.186667 47.786666-47.786667s-22.186667-47.786667-47.786666-47.786666-47.786667 20.48-47.786667 47.786666z"  /></svg>