<?xml version="1.0" standalone="no"?><!DOCTYPE svg PUBLIC "-//W3C//DTD SVG 1.1//EN" "http://www.w3.org/Graphics/SVG/1.1/DTD/svg11.dtd"><svg class="icon" width="64px" height="64.00px" viewBox="0 0 1024 1024" version="1.1" xmlns="http://www.w3.org/2000/svg"><path  d="M192.853333 459.093333H66.56c-6.826667 0-15.36-3.413333-18.773333-8.533333s-6.826667-13.653333-5.12-20.48c34.133333-196.266667 191.146667-353.28 387.413333-387.413333 6.826667-1.706667 15.36 0 20.48 5.12 5.12 5.12 8.533333 11.946667 8.533333 18.773333v126.293333c0 11.946667-8.533333 22.186667-18.773333 25.6-109.226667 27.306667-194.56 112.64-221.866667 221.866667-3.413333 10.24-13.653333 18.773333-25.6 18.773333z m-95.573333-51.2h75.093333c34.133333-112.64 121.173333-199.68 233.813334-233.813333V97.28C256 136.533333 136.533333 256 97.28 407.893333z m336.213333-215.04z"  /><path  d="M512 989.866667C256 989.866667 46.08 790.186667 34.133333 534.186667c0-6.826667 1.706667-13.653333 6.826667-18.773334 5.12-5.12 11.946667-8.533333 18.773333-8.533333l124.586667-1.706667c13.653333 0 23.893333 10.24 25.6 23.893334 10.24 158.72 143.36 283.306667 302.08 283.306666 167.253333 0 303.786667-136.533333 303.786667-303.786666 0-158.72-124.586667-291.84-281.6-302.08-13.653333-1.706667-23.893333-11.946667-23.893334-25.6l1.706667-124.586667c0-6.826667 3.413333-13.653333 8.533333-18.773333s10.24-3.413333 17.066667-3.413334C791.893333 47.786667 989.866667 257.706667 989.866667 512c0 262.826667-215.04 477.866667-477.866667 477.866667zM87.04 559.786667C110.933333 773.12 291.84 938.666667 512 938.666667c235.52 0 426.666667-191.146667 426.666667-426.666667 0-218.453333-163.84-399.36-377.173334-423.253333l-1.706666 73.386666C733.866667 184.32 865.28 334.506667 865.28 512c0 194.56-158.72 354.986667-354.986667 354.986667-179.2 0-327.68-133.12-351.573333-307.2H87.04z"  /></svg>