<?xml version="1.0" standalone="no"?><!DOCTYPE svg PUBLIC "-//W3C//DTD SVG 1.1//EN" "http://www.w3.org/Graphics/SVG/1.1/DTD/svg11.dtd"><svg class="icon" width="64px" height="64.00px" viewBox="0 0 1024 1024" version="1.1" xmlns="http://www.w3.org/2000/svg"><path  d="M836.266667 989.866667H187.733333c-51.2 0-93.866667-42.666667-93.866666-93.866667v-768C93.866667 76.8 136.533333 34.133333 187.733333 34.133333h648.533334c51.2 0 93.866667 42.666667 93.866666 93.866667v768c0 51.2-42.666667 93.866667-93.866666 93.866667zM187.733333 85.333333C163.84 85.333333 145.066667 104.106667 145.066667 128v768c0 23.893333 18.773333 42.666667 42.666666 42.666667h648.533334c23.893333 0 42.666667-18.773333 42.666666-42.666667v-768C878.933333 104.106667 860.16 85.333333 836.266667 85.333333H187.733333z"  /><path  d="M512 812.373333c-5.12 0-8.533333-1.706667-13.653333-3.413333-10.24-6.826667-247.466667-157.013333-247.466667-460.8 0-15.36 0-56.32 254.293333-134.826667 5.12-1.706667 10.24-1.706667 15.36 0 254.293333 78.506667 254.293333 119.466667 254.293334 134.826667 0 303.786667-237.226667 455.68-247.466667 460.8-6.826667 1.706667-10.24 3.413333-15.36 3.413333z m-209.92-460.8c1.706667 232.106667 162.133333 368.64 209.92 402.773334 47.786667-35.84 208.213333-172.373333 209.92-402.773334-18.773333-18.773333-119.466667-59.733333-209.92-88.746666-90.453333 29.013333-191.146667 69.973333-209.92 88.746666z"  /><path  d="M573.44 577.6384h-153.6c-13.653333 0-25.6-11.946667-25.6-25.6s11.946667-25.6 25.6-25.6h153.6c6.826667 0 15.36-3.413333 15.36-15.36 0-10.24-5.12-15.36-15.36-15.36h-122.88c-34.133333 0-68.266667-22.186667-68.266667-66.56 0-44.373333 34.133333-66.56 68.266667-66.56h148.48c13.653333 0 25.6 11.946667 25.6 25.6s-11.946667 25.6-25.6 25.6h-148.48c-6.826667 0-17.066667 3.413333-17.066667 15.36 0 13.653333 10.24 15.36 17.066667 15.36h122.88c32.426667 0 66.56 22.186667 66.56 66.56 0 44.373333-32.426667 66.56-66.56 66.56z"  /></svg>