<?xml version="1.0" standalone="no"?><!DOCTYPE svg PUBLIC "-//W3C//DTD SVG 1.1//EN" "http://www.w3.org/Graphics/SVG/1.1/DTD/svg11.dtd"><svg class="icon" width="64px" height="64.00px" viewBox="0 0 1024 1024" version="1.1" xmlns="http://www.w3.org/2000/svg"><path  d="M839.168 34.133333H184.832C134.656 34.133333 93.866667 79.36 93.866667 135.168v753.834667c0 55.637333 40.789333 101.034667 90.965333 101.034666h189.098667c14.165333 0 25.6-11.434667 25.6-25.6s-11.434667-25.6-25.6-25.6H184.832c-22.016 0-39.765333-22.357333-39.765333-49.834666V135.168C145.066667 107.690667 162.986667 85.333333 184.832 85.333333h654.165333c22.016 0 39.765333 22.357333 39.765334 49.834667v454.656c0 14.165333 11.434667 25.6 25.6 25.6s25.6-11.434667 25.6-25.6V135.168C930.133333 79.36 889.344 34.133333 839.168 34.133333z"  /><path  d="M515.754667 473.429333c14.165333 0 25.6-11.434667 25.6-25.6s-11.434667-25.6-25.6-25.6h-82.090667v-56.661333h82.090667c14.165333 0 25.6-11.434667 25.6-25.6s-11.434667-25.6-25.6-25.6h-64l82.090666-82.090667c10.069333-10.069333 10.069333-26.282667 0-36.181333s-26.282667-10.069333-36.181333 0l-89.6 89.6-89.770667-89.6a25.429333 25.429333 0 0 0-36.181333 0 25.429333 25.429333 0 0 0 0 36.181333l82.090667 82.090667h-64c-14.165333 0-25.6 11.434667-25.6 25.6s11.434667 25.6 25.6 25.6h82.432v56.661333h-82.432c-14.165333 0-25.6 11.434667-25.6 25.6s11.434667 25.6 25.6 25.6h82.432v82.261334c0 14.165333 11.434667 25.6 25.6 25.6s25.6-11.434667 25.6-25.6v-82.261334h81.92zM466.261333 797.866667H904.533333c10.410667 0 19.797333-6.314667 23.722667-15.872 3.925333-9.557333 1.536-20.650667-5.802667-27.989334l-80.384-78.506666c-10.069333-9.898667-26.282667-9.728-36.181333 0.512-9.898667 10.069333-9.728 26.282667 0.512 36.181333l35.328 34.474667h-375.466667c-14.165333 0-25.6 11.434667-25.6 25.6s11.434667 25.6 25.6 25.6zM904.533333 860.16H466.261333c-10.410667 0-19.797333 6.314667-23.722666 15.872-3.925333 9.557333-1.536 20.650667 5.802666 27.989333l80.384 78.506667c4.949333 4.949333 11.434667 7.338667 17.92 7.338667 6.656 0 13.312-2.56 18.261334-7.68 9.898667-10.069333 9.728-26.282667-0.512-36.181334L529.066667 911.36h375.466666c14.165333 0 25.6-11.434667 25.6-25.6s-11.434667-25.6-25.6-25.6z"  /></svg>