<?xml version="1.0" standalone="no"?><!DOCTYPE svg PUBLIC "-//W3C//DTD SVG 1.1//EN" "http://www.w3.org/Graphics/SVG/1.1/DTD/svg11.dtd"><svg class="icon" width="64px" height="64.00px" viewBox="0 0 1024 1024" version="1.1" xmlns="http://www.w3.org/2000/svg"><path  d="M896 913.066667h-768C76.8 913.066667 34.133333 870.4 34.133333 819.2V204.8c0-51.2 42.666667-93.866667 93.866667-93.866667h768c51.2 0 93.866667 42.666667 93.866667 93.866667v614.4c0 51.2-42.666667 93.866667-93.866667 93.866667z m-768-750.933334C104.106667 162.133333 85.333333 180.906667 85.333333 204.8v614.4c0 23.893333 18.773333 42.666667 42.666667 42.666667h768c23.893333 0 42.666667-18.773333 42.666667-42.666667V204.8c0-23.893333-18.773333-42.666667-42.666667-42.666667h-768z"  /><path  d="M378.88 527.36c-64.853333 0-117.76-52.906667-117.76-117.76s52.906667-117.76 117.76-117.76 117.76 52.906667 117.76 117.76-52.906667 117.76-117.76 117.76z m0-184.32c-37.546667 0-66.56 30.72-66.56 66.56s30.72 66.56 66.56 66.56 66.56-30.72 66.56-66.56-30.72-66.56-66.56-66.56z"  /><path  d="M581.973333 732.16H175.786667c-13.653333 0-25.6-11.946667-25.6-25.6 0-126.293333 102.4-228.693333 228.693333-228.693333s228.693333 102.4 228.693333 228.693333c0 13.653333-11.946667 25.6-25.6 25.6z m-378.88-51.2h351.573334c-11.946667-85.333333-87.04-151.893333-175.786667-151.893333s-163.84 64.853333-175.786667 151.893333z"  /><path  d="M378.88 662.186667c-6.826667 0-13.653333-3.413333-18.773333-8.533334L324.266667 617.813333c-6.826667-6.826667-8.533333-17.066667-5.12-27.306666l35.84-97.28c3.413333-10.24 13.653333-17.066667 23.893333-17.066667s20.48 6.826667 23.893333 17.066667l35.84 97.28c3.413333 8.533333 1.706667 20.48-5.12 27.306666l-35.84 37.546667c-5.12 3.413333-11.946667 6.826667-18.773333 6.826667z m-6.826667-69.973334l6.826667 6.826667 6.826667-6.826667-6.826667-17.066666-6.826667 17.066666z"  /><path  d="M848.213333 378.88H607.573333c-13.653333 0-25.6-11.946667-25.6-25.6s11.946667-25.6 25.6-25.6h240.64c13.653333 0 25.6 11.946667 25.6 25.6s-10.24 25.6-25.6 25.6zM848.213333 537.6H667.306667c-13.653333 0-25.6-11.946667-25.6-25.6s11.946667-25.6 25.6-25.6h180.906666c13.653333 0 25.6 11.946667 25.6 25.6s-10.24 25.6-25.6 25.6zM848.213333 698.026667h-141.653333c-13.653333 0-25.6-11.946667-25.6-25.6s11.946667-25.6 25.6-25.6h141.653333c13.653333 0 25.6 11.946667 25.6 25.6s-10.24 25.6-25.6 25.6z"  /></svg>