<?xml version="1.0" standalone="no"?><!DOCTYPE svg PUBLIC "-//W3C//DTD SVG 1.1//EN" "http://www.w3.org/Graphics/SVG/1.1/DTD/svg11.dtd"><svg class="icon" width="64px" height="64.00px" viewBox="0 0 1024 1024" version="1.1" xmlns="http://www.w3.org/2000/svg"><path  d="M658.773333 614.4H233.813333c-13.653333 0-25.6-11.946667-25.6-25.6s11.946667-25.6 25.6-25.6h424.96c13.653333 0 25.6 11.946667 25.6 25.6s-11.946667 25.6-25.6 25.6zM658.773333 781.653333H233.813333c-13.653333 0-25.6-11.946667-25.6-25.6s11.946667-25.6 25.6-25.6h424.96c13.653333 0 25.6 11.946667 25.6 25.6s-11.946667 25.6-25.6 25.6zM428.373333 447.146667H233.813333c-13.653333 0-25.6-11.946667-25.6-25.6s11.946667-25.6 25.6-25.6h194.56c13.653333 0 25.6 11.946667 25.6 25.6s-11.946667 25.6-25.6 25.6z"  /><path  d="M839.68 989.866667H116.053333c-27.306667 0-51.2-22.186667-51.2-51.2V196.266667c0-27.306667 22.186667-51.2 51.2-51.2h674.133334c27.306667 0 51.2 22.186667 51.2 51.2V989.866667z m-51.2-793.6H116.053333V938.666667h672.426667V196.266667z"  /><path  d="M870.4 989.866667h-22.186667c-32.426667 0-59.733333-27.306667-59.733333-59.733334V327.68h128c23.893333 0 42.666667 18.773333 42.666667 42.666667v530.773333c0 49.493333-39.253333 88.746667-88.746667 88.746667z m-30.72-610.986667v551.253333c0 5.12 3.413333 8.533333 8.533333 8.533334H870.4c20.48 0 37.546667-17.066667 37.546667-37.546667V378.88h-68.266667zM624.64 196.266667H269.653333c-22.186667 0-39.253333-17.066667-39.253333-39.253334V73.386667c0-22.186667 17.066667-39.253333 39.253333-39.253334h356.693334C648.533333 34.133333 665.6 51.2 665.6 73.386667v83.626666c-1.706667 22.186667-18.773333 39.253333-40.96 39.253334z m-343.04-51.2H614.4V85.333333H281.6v59.733334z"  /></svg>