<?xml version="1.0" standalone="no"?><!DOCTYPE svg PUBLIC "-//W3C//DTD SVG 1.1//EN" "http://www.w3.org/Graphics/SVG/1.1/DTD/svg11.dtd"><svg class="icon" width="64px" height="64.00px" viewBox="0 0 1024 1024" version="1.1" xmlns="http://www.w3.org/2000/svg"><path  d="M836.266667 989.866667H187.733333c-51.2 0-93.866667-42.666667-93.866666-93.866667v-768C93.866667 76.8 136.533333 34.133333 187.733333 34.133333h648.533334c51.2 0 93.866667 42.666667 93.866666 93.866667v768c0 51.2-42.666667 93.866667-93.866666 93.866667zM187.733333 85.333333C163.84 85.333333 145.066667 104.106667 145.066667 128v768c0 23.893333 18.773333 42.666667 42.666666 42.666667h648.533334c23.893333 0 42.666667-18.773333 42.666666-42.666667v-768C878.933333 104.106667 860.16 85.333333 836.266667 85.333333H187.733333z"  /><path  d="M674.133333 295.253333H286.72c-13.653333 0-25.6-11.946667-25.6-25.6s11.946667-25.6 25.6-25.6h387.413333c13.653333 0 25.6 11.946667 25.6 25.6s-10.24 25.6-25.6 25.6zM541.013333 443.733333H286.72c-13.653333 0-25.6-11.946667-25.6-25.6S273.066667 392.533333 286.72 392.533333h252.586667c13.653333 0 25.6 11.946667 25.6 25.6s-10.24 25.6-23.893334 25.6zM430.08 715.093333c-6.826667 0-13.653333-1.706667-18.773333-6.826666-10.24-10.24-10.24-25.6 0-35.84l59.733333-59.733334c10.24-10.24 25.6-10.24 35.84 0 10.24 10.24 10.24 25.6 0 35.84l-59.733333 59.733334c-3.413333 5.12-10.24 6.826667-17.066667 6.826666z"  /><path  d="M481.28 766.293333c-6.826667 0-13.653333-1.706667-18.773333-6.826666l-51.2-51.2c-10.24-10.24-10.24-25.6 0-35.84s25.6-10.24 35.84 0l51.2 51.2c10.24 10.24 10.24 25.6 0 35.84-3.413333 5.12-10.24 6.826667-17.066667 6.826666z"  /><path  d="M720.213333 870.4H460.8c-13.653333 0-25.6-11.946667-25.6-25.6S447.146667 819.2 460.8 819.2h259.413333c29.013333 0 52.906667-23.893333 52.906667-52.906667s-23.893333-52.906667-52.906667-52.906666h-290.133333c-13.653333 0-25.6-11.946667-25.6-25.6s11.946667-25.6 25.6-25.6h288.426667c56.32 0 104.106667 46.08 104.106666 104.106666s-46.08 104.106667-102.4 104.106667z"  /></svg>