<?xml version="1.0" standalone="no"?><!DOCTYPE svg PUBLIC "-//W3C//DTD SVG 1.1//EN" "http://www.w3.org/Graphics/SVG/1.1/DTD/svg11.dtd"><svg class="icon" width="64px" height="64.00px" viewBox="0 0 1024 1024" version="1.1" xmlns="http://www.w3.org/2000/svg"><path  d="M691.2 440.32h-358.4c-37.546667 0-68.266667-30.72-68.266667-68.266667v-87.04C262.826667 145.066667 373.76 34.133333 512 34.133333s249.173333 110.933333 249.173333 249.173334v87.04c0 39.253333-30.72 69.973333-69.973333 69.973333zM512 85.333333c-109.226667 0-197.973333 88.746667-197.973333 197.973334v87.04c0 10.24 8.533333 17.066667 17.066666 17.066666h360.106667c10.24 0 17.066667-8.533333 17.066667-17.066666v-87.04C709.973333 174.08 621.226667 85.333333 512 85.333333zM512 989.866667c-136.533333 0-249.173333-110.933333-249.173333-249.173334V476.16h498.346666v266.24C761.173333 878.933333 648.533333 989.866667 512 989.866667zM314.026667 527.36v215.04C314.026667 849.92 402.773333 938.666667 512 938.666667s197.973333-88.746667 197.973333-197.973334V527.36H314.026667z"  /><path  d="M512 324.266667c-49.493333 0-90.453333-40.96-90.453333-90.453334s40.96-90.453333 90.453333-90.453333 90.453333 40.96 90.453333 90.453333S561.493333 324.266667 512 324.266667z m0-129.706667c-22.186667 0-39.253333 17.066667-39.253333 39.253333s17.066667 39.253333 39.253333 39.253334 39.253333-17.066667 39.253333-39.253334-17.066667-39.253333-39.253333-39.253333zM674.133333 525.653333h-324.266666v-136.533333h324.266666v136.533333z m-273.066666-51.2h221.866666v-34.133333h-221.866666v34.133333zM515.413333 856.746667c-3.413333 0-6.826667 0-11.946666-3.413334-11.946667-6.826667-18.773333-22.186667-11.946667-34.133333l35.84-71.68h-73.386667c-8.533333 0-17.066667-5.12-22.186666-11.946667-5.12-8.533333-5.12-17.066667 0-25.6l59.733333-107.52c6.826667-11.946667 22.186667-17.066667 34.133333-10.24s17.066667 22.186667 10.24 34.133334l-39.253333 69.973333h69.973333c8.533333 0 17.066667 5.12 22.186667 11.946667s5.12 17.066667 1.706667 25.6l-52.906667 109.226666c-3.413333 6.826667-11.946667 13.653333-22.186667 13.653334zM221.866667 621.226667c-49.493333 0-90.453333-40.96-90.453334-90.453334s40.96-90.453333 90.453334-90.453333 90.453333 40.96 90.453333 90.453333-40.96 90.453333-90.453333 90.453334z m0-131.413334c-22.186667 0-39.253333 17.066667-39.253334 39.253334 0 22.186667 17.066667 39.253333 39.253334 39.253333 22.186667 0 39.253333-17.066667 39.253333-39.253333 0-20.48-17.066667-39.253333-39.253333-39.253334zM177.493333 902.826667c-8.533333 0-17.066667-3.413333-22.186666-11.946667-6.826667-11.946667-3.413333-27.306667 8.533333-35.84 10.24-6.826667 15.36-17.066667 15.36-29.013333 0-18.773333-15.36-34.133333-34.133333-34.133334s-34.133333 15.36-34.133334 34.133334c0 10.24 5.12 20.48 13.653334 27.306666 11.946667 8.533333 13.653333 23.893333 5.12 35.84-8.533333 11.946667-23.893333 13.653333-35.84 5.12-22.186667-15.36-35.84-40.96-35.84-68.266666 0-47.786667 37.546667-85.333333 85.333333-85.333334s85.333333 37.546667 85.333333 85.333334c0 29.013333-15.36 56.32-39.253333 71.68-3.413333 3.413333-6.826667 5.12-11.946667 5.12z"  /><path  d="M168.96 764.586667h-51.2v-95.573334c0-5.12 1.706667-10.24 3.413333-13.653333l51.2-81.92 42.666667 27.306667-47.786667 76.8v87.04z"  /><path  d="M802.133333 621.226667c-49.493333 0-90.453333-40.96-90.453333-90.453334s40.96-90.453333 90.453333-90.453333 90.453333 40.96 90.453334 90.453333-40.96 90.453333-90.453334 90.453334z m0-131.413334c-22.186667 0-39.253333 17.066667-39.253333 39.253334 0 22.186667 17.066667 39.253333 39.253333 39.253333 22.186667 0 39.253333-17.066667 39.253334-39.253333 0-20.48-17.066667-39.253333-39.253334-39.253334zM846.506667 902.826667c-5.12 0-10.24-1.706667-13.653334-3.413334-23.893333-15.36-39.253333-42.666667-39.253333-71.68 0-47.786667 37.546667-85.333333 85.333333-85.333333s85.333333 37.546667 85.333334 85.333333c0 27.306667-13.653333 52.906667-35.84 68.266667-11.946667 8.533333-27.306667 5.12-35.84-5.12-8.533333-11.946667-5.12-27.306667 5.12-35.84 8.533333-6.826667 13.653333-17.066667 13.653333-27.306667 0-18.773333-15.36-34.133333-34.133333-34.133333s-34.133333 15.36-34.133334 34.133333c0 11.946667 5.12 22.186667 15.36 29.013334 11.946667 6.826667 15.36 23.893333 8.533334 35.84-3.413333 5.12-11.946667 10.24-20.48 10.24z"  /><path  d="M906.24 764.586667h-51.2v-88.746667l-47.786667-76.8 42.666667-27.306667 51.2 81.92c3.413333 3.413333 3.413333 8.533333 3.413333 13.653334v97.28z"  /></svg>