<?xml version="1.0" standalone="no"?><!DOCTYPE svg PUBLIC "-//W3C//DTD SVG 1.1//EN" "http://www.w3.org/Graphics/SVG/1.1/DTD/svg11.dtd"><svg class="icon" width="64px" height="64.00px" viewBox="0 0 1024 1024" version="1.1" xmlns="http://www.w3.org/2000/svg"><path  d="M896 809.472h-768a94.037333 94.037333 0 0 1-93.866667-93.866667V179.882667c0-51.712 42.154667-93.866667 93.866667-93.866667h768c51.712 0 93.866667 42.154667 93.866667 93.866667v535.722666c0 51.712-42.154667 93.866667-93.866667 93.866667zM128 137.216a42.666667 42.666667 0 0 0-42.666667 42.666667v535.722666a42.666667 42.666667 0 0 0 42.666667 42.666667h768a42.666667 42.666667 0 0 0 42.666667-42.666667V179.882667a42.666667 42.666667 0 0 0-42.666667-42.666667h-768zM781.312 937.984H242.688c-14.165333 0-25.6-11.434667-25.6-25.6s11.434667-25.6 25.6-25.6h538.453333c14.165333 0 25.6 11.434667 25.6 25.6s-11.434667 25.6-25.429333 25.6z"  /><path  d="M682.666667 640H341.333333c-14.165333 0-25.6-11.434667-25.6-25.6V273.066667c0-14.165333 11.434667-25.6 25.6-25.6s25.6 11.434667 25.6 25.6v315.733333H682.666667c14.165333 0 25.6 11.434667 25.6 25.6s-11.434667 25.6-25.6 25.6z"  /><path  d="M417.109333 564.224c-14.165333 0-25.6-11.434667-25.6-25.6v-37.888c0-14.165333 11.434667-25.6 25.6-25.6s25.6 11.434667 25.6 25.6v37.888c0 13.994667-11.434667 25.6-25.6 25.6zM493.056 564.224c-14.165333 0-25.6-11.434667-25.6-25.6v-113.834667c0-14.165333 11.434667-25.6 25.6-25.6s25.6 11.434667 25.6 25.6v113.834667c0 13.994667-11.434667 25.6-25.6 25.6zM568.832 564.224c-14.165333 0-25.6-11.434667-25.6-25.6V273.066667c0-14.165333 11.434667-25.6 25.6-25.6s25.6 11.434667 25.6 25.6v265.557333c0 13.994667-11.434667 25.6-25.6 25.6zM644.778667 564.224c-14.165333 0-25.6-11.434667-25.6-25.6V348.842667c0-14.165333 11.434667-25.6 25.6-25.6s25.6 11.434667 25.6 25.6v189.610666c0 14.165333-11.434667 25.770667-25.6 25.770667z"  /></svg>