<?xml version="1.0" standalone="no"?><!DOCTYPE svg PUBLIC "-//W3C//DTD SVG 1.1//EN" "http://www.w3.org/Graphics/SVG/1.1/DTD/svg11.dtd"><svg class="icon" width="64px" height="64.00px" viewBox="0 0 1024 1024" version="1.1" xmlns="http://www.w3.org/2000/svg"><path  d="M111.325867 730.965333l38.161066-34.116266 174.062934 194.645333-38.161067 34.133333z"  /><path  d="M105.813333 984.746667c-17.066667 0-27.306667-5.12-34.133333-11.946667-18.773333-15.36-20.48-35.84-20.48-40.96v-3.413333L92.16 733.866667c5.12-22.186667 17.066667-35.84 18.773333-37.546667l1.706667-1.706667 614.4-614.4c15.36-17.066667 34.133333-25.6 52.906667-25.6 20.48 0 34.133333 13.653333 39.253333 17.066667l119.466667 114.346667c23.893333 18.773333 35.84 39.253333 35.84 61.44 0 22.186667-11.946667 35.84-17.066667 39.253333L368.64 882.346667c-42.666667 47.786667-75.093333 61.44-78.506667 63.146666l-3.413333 1.706667-163.84 35.84c-6.826667 1.706667-11.946667 1.706667-17.066667 1.706667z m-1.706666-51.2h8.533333l160.426667-35.84c5.12-3.413333 27.306667-15.36 58.026666-49.493334l590.506667-597.333333v-1.706667c0-3.413333-5.12-11.946667-17.066667-22.186666l-1.706666-1.706667-122.88-117.76-1.706667-1.706667c-1.706667 0-6.826667 3.413333-13.653333 10.24l-612.693334 614.4c-1.706667 1.706667-5.12 6.826667-6.826666 15.36l-40.96 187.733334z"  /><path  d="M648.465067 193.2288l38.161066-34.133333L860.672 353.792l-38.178133 34.133333z"  /><path  d="M768 989.866667c-18.773333 0-37.546667-6.826667-51.2-20.48L488.106667 738.986667l35.84-35.84 228.693333 228.693333c8.533333 8.533333 22.186667 8.533333 30.72 0l150.186667-150.186667c3.413333-3.413333 6.826667-8.533333 6.826666-15.36 0-5.12-1.706667-10.24-6.826666-15.36L271.36 92.16c-8.533333-8.533333-22.186667-8.533333-30.72 0l-150.186667 150.186667c-8.533333 8.533333-8.533333 22.186667 0 30.72l230.4 230.4-35.84 35.84L54.613333 307.2c-13.653333-13.653333-20.48-30.72-20.48-51.2 0-18.773333 6.826667-37.546667 20.48-51.2L204.8 54.613333c13.653333-13.653333 32.426667-20.48 51.2-20.48s37.546667 6.826667 51.2 20.48L969.386667 716.8c13.653333 13.653333 20.48 32.426667 20.48 51.2s-6.826667 37.546667-20.48 51.2L819.2 969.386667c-13.653333 13.653333-32.426667 20.48-51.2 20.48z"  /><path  d="M127.2832 344.4736l151.8592-154.6752 36.522667 35.874133L163.84 380.330667zM231.424 448.529067l151.842133-154.658134 36.522667 35.874134-151.842133 154.658133zM544.494933 760.7296l151.8592-154.6752 36.522667 35.874133-151.842133 154.658134zM652.305067 867.549867l151.8592-154.6752 36.522666 35.874133-151.842133 154.6752z"  /></svg>