<?xml version="1.0" standalone="no"?><!DOCTYPE svg PUBLIC "-//W3C//DTD SVG 1.1//EN" "http://www.w3.org/Graphics/SVG/1.1/DTD/svg11.dtd"><svg class="icon" width="64px" height="64.00px" viewBox="0 0 1024 1024" version="1.1" xmlns="http://www.w3.org/2000/svg"><path  d="M513.365333 989.866667H196.266667A94.037333 94.037333 0 0 1 102.4 896v-768C102.4 76.288 144.554667 34.133333 196.266667 34.133333h631.466666C879.445333 34.133333 921.6 76.288 921.6 128v453.973333c0 14.165333-11.434667 25.6-25.6 25.6s-25.6-11.434667-25.6-25.6V128A42.666667 42.666667 0 0 0 827.733333 85.333333h-631.466666A42.666667 42.666667 0 0 0 153.6 128v768a42.666667 42.666667 0 0 0 42.666667 42.666667h317.098666c14.165333 0 25.6 11.434667 25.6 25.6s-11.605333 25.6-25.6 25.6z"  /><path  d="M896 857.941333H632.149333c-14.165333 0-25.6-11.434667-25.6-25.6s11.434667-25.6 25.6-25.6H896c14.165333 0 25.6 11.434667 25.6 25.6s-11.434667 25.6-25.6 25.6z"  /><path  d="M764.074667 989.866667c-14.165333 0-25.6-11.434667-25.6-25.6V700.416c0-14.165333 11.434667-25.6 25.6-25.6s25.6 11.434667 25.6 25.6V964.266667c0 14.165333-11.434667 25.6-25.6 25.6z"  /><path  d="M512 399.701333c-59.221333 0-107.52-48.298667-107.52-107.52s48.128-107.52 107.52-107.52 107.52 48.298667 107.52 107.52-48.298667 107.52-107.52 107.52z m0-163.84c-31.061333 0-56.32 25.258667-56.32 56.32s25.258667 56.32 56.32 56.32 56.32-25.258667 56.32-56.32-25.258667-56.32-56.32-56.32zM722.432 640.682667H301.568c-14.165333 0-25.6-11.434667-25.6-25.6v-13.994667c0-56.490667 0-84.821333 12.970667-110.250667a118.084267 118.084267 0 0 1 52.053333-52.053333c25.429333-12.970667 53.76-12.970667 110.250667-12.970667h121.685333c56.490667 0 84.821333 0 110.250667 12.970667 22.528 11.434667 40.618667 29.525333 52.053333 52.053333 12.970667 25.429333 12.970667 53.76 12.970667 110.250667v13.994667c-0.170667 14.165333-11.605333 25.6-25.770667 25.6z m-395.264-51.2h369.834667c0-39.424-0.682667-62.122667-7.338667-75.434667-6.485333-12.970667-16.896-23.210667-29.696-29.696-14.506667-7.338667-40.277333-7.338667-87.04-7.338667h-121.685333c-46.762667 0-72.533333 0-87.04 7.338667-12.8 6.485333-23.210667 16.896-29.696 29.696-6.826667 13.312-7.338667 36.010667-7.338667 75.434667z"  /></svg>