<?xml version="1.0" standalone="no"?><!DOCTYPE svg PUBLIC "-//W3C//DTD SVG 1.1//EN" "http://www.w3.org/Graphics/SVG/1.1/DTD/svg11.dtd"><svg class="icon" width="64px" height="64.00px" viewBox="0 0 1024 1024" version="1.1" xmlns="http://www.w3.org/2000/svg"><path  d="M759.466667 991.573333h-494.933334c-78.506667 0-141.653333-63.146667-141.653333-141.653333V177.493333c0-78.506667 63.146667-141.653333 141.653333-141.653333h494.933334c78.506667 0 141.653333 63.146667 141.653333 141.653333v670.72c0 78.506667-63.146667 143.36-141.653333 143.36z m-494.933334-904.533333c-49.493333 0-90.453333 40.96-90.453333 90.453333v670.72c0 49.493333 40.96 90.453333 90.453333 90.453334h494.933334c49.493333 0 90.453333-40.96 90.453333-90.453334V177.493333c0-49.493333-40.96-90.453333-90.453333-90.453333h-494.933334z"  /><path  d="M747.52 535.893333H295.253333c-13.653333 0-25.6-11.946667-25.6-25.6s11.946667-25.6 25.6-25.6h450.56c13.653333 0 25.6 11.946667 25.6 25.6s-10.24 25.6-23.893333 25.6zM747.52 713.386667H295.253333c-13.653333 0-25.6-11.946667-25.6-25.6s11.946667-25.6 25.6-25.6h450.56c13.653333 0 25.6 11.946667 25.6 25.6s-10.24 25.6-23.893333 25.6zM501.76 356.693333H295.253333c-13.653333 0-25.6-11.946667-25.6-25.6s11.946667-25.6 25.6-25.6h206.506667c13.653333 0 25.6 11.946667 25.6 25.6s-11.946667 25.6-25.6 25.6zM778.24 370.346667c-6.826667 0-11.946667-1.706667-17.066667-6.826667L699.733333 307.2l-61.44 58.026667c-6.826667 6.826667-18.773333 8.533333-27.306666 5.12s-15.36-13.653333-15.36-23.893334V61.44c0-13.653333 11.946667-25.6 25.6-25.6h157.013333c13.653333 0 25.6 11.946667 25.6 25.6v285.013333c0 10.24-6.826667 18.773333-15.36 23.893334h-10.24zM645.12 87.04v199.68l35.84-34.133333c10.24-8.533333 25.6-8.533333 35.84 0l35.84 34.133333V87.04h-107.52z"  /></svg>