<?xml version="1.0" standalone="no"?><!DOCTYPE svg PUBLIC "-//W3C//DTD SVG 1.1//EN" "http://www.w3.org/Graphics/SVG/1.1/DTD/svg11.dtd"><svg class="icon" width="64px" height="64.00px" viewBox="0 0 1024 1024" version="1.1" xmlns="http://www.w3.org/2000/svg"><path  d="M896.341333 797.696H127.658667C76.117333 797.696 34.133333 755.712 34.133333 704.170667V161.450667c0-51.541333 41.984-93.354667 93.525334-93.354667h768.853333c51.541333 0 93.525333 41.984 93.525333 93.354667v542.72c-0.170667 51.541333-42.154667 93.525333-93.696 93.525333zM127.658667 119.296C104.277333 119.296 85.333333 138.24 85.333333 161.450667v542.72a42.325333 42.325333 0 0 0 42.325334 42.325333h768.853333c23.210667 0 42.325333-18.944 42.325333-42.325333V161.450667c0-23.210667-18.944-42.154667-42.325333-42.154667H127.658667z"  /><path  d="M512 955.904c-14.165333 0-25.6-11.434667-25.6-25.6v-158.208c0-14.165333 11.434667-25.6 25.6-25.6s25.6 11.434667 25.6 25.6v158.208c0 14.165333-11.434667 25.6-25.6 25.6zM331.093333 616.789333c-7.168 0-14.165333-2.901333-19.285333-8.704-9.386667-10.581333-8.192-26.794667 2.389333-36.181333l361.813334-316.586667a25.668267 25.668267 0 0 1 33.792 38.570667l-361.813334 316.586667c-4.949333 4.266667-10.922667 6.314667-16.896 6.314666z"  /><path  d="M828.586667 955.904h-633.173334c-14.165333 0-25.6-11.434667-25.6-25.6s11.434667-25.6 25.6-25.6h633.173334c14.165333 0 25.6 11.434667 25.6 25.6s-11.434667 25.6-25.6 25.6zM308.565333 435.882667c-51.541333 0-93.525333-41.984-93.525333-93.525334 0-51.541333 41.984-93.354667 93.525333-93.354666 51.541333 0 93.354667 41.984 93.354667 93.354666 0 51.541333-41.984 93.525333-93.354667 93.525334z m0-135.68c-23.210667 0-42.325333 18.944-42.325333 42.154666a42.325333 42.325333 0 0 0 42.325333 42.325334 42.24 42.24 0 0 0 0-84.48zM715.434667 616.789333c-51.541333 0-93.354667-41.984-93.354667-93.354666 0-51.541333 41.984-93.525333 93.354667-93.525334 51.541333 0 93.525333 41.984 93.525333 93.525334 0 51.370667-41.984 93.354667-93.525333 93.354666z m0-135.68a42.24 42.24 0 0 0 0 84.48c23.210667 0 42.325333-18.944 42.325333-42.154666a42.325333 42.325333 0 0 0-42.325333-42.325334z"  /></svg>