<?xml version="1.0" standalone="no"?><!DOCTYPE svg PUBLIC "-//W3C//DTD SVG 1.1//EN" "http://www.w3.org/Graphics/SVG/1.1/DTD/svg11.dtd"><svg class="icon" width="64px" height="64.00px" viewBox="0 0 1024 1024" version="1.1" xmlns="http://www.w3.org/2000/svg"><path  d="M839.168 989.866667H184.832c-50.176 0-90.965333-45.226667-90.965333-101.034667V135.168C93.866667 79.36 134.656 34.133333 184.832 34.133333h654.165333c50.176 0 90.965333 45.226667 90.965334 101.034667v753.834667c0.170667 55.637333-40.618667 100.864-90.794667 100.864zM184.832 85.333333C162.986667 85.333333 145.066667 107.690667 145.066667 135.168v753.834667c0 27.477333 17.92 49.834667 39.765333 49.834666h654.165333c22.016 0 39.765333-22.357333 39.765334-49.834666V135.168C878.933333 107.690667 861.013333 85.333333 839.168 85.333333H184.832z"  /><path  d="M671.914667 751.274667H351.914667c-25.941333 0-46.933333-20.992-46.933334-46.933334V512.341333c0-25.941333 20.992-46.933333 46.933334-46.933333h320c25.941333 0 46.933333 20.992 46.933333 46.933333v192c0 25.770667-20.992 46.933333-46.933333 46.933334z m-315.733334-51.2h311.466667V516.608H356.181333v183.466667z"  /><path  d="M512 665.258667c-14.165333 0-25.6-11.434667-25.6-25.6v-64c0-14.165333 11.434667-25.6 25.6-25.6s25.6 11.434667 25.6 25.6v64c0 14.165333-11.434667 25.6-25.6 25.6z"  /><path  d="M644.266667 516.608h-264.533334v-110.933333c0-72.874667 59.392-132.266667 132.266667-132.266667s132.266667 59.392 132.266667 132.266667v110.933333z m-213.333334-51.2h162.133334v-59.733333c0-44.714667-36.352-81.066667-81.066667-81.066667s-81.066667 36.352-81.066667 81.066667v59.733333z"  /></svg>