<?xml version="1.0" standalone="no"?><!DOCTYPE svg PUBLIC "-//W3C//DTD SVG 1.1//EN" "http://www.w3.org/Graphics/SVG/1.1/DTD/svg11.dtd"><svg class="icon" width="64px" height="64.00px" viewBox="0 0 1024 1024" version="1.1" xmlns="http://www.w3.org/2000/svg"><path  d="M896 930.133333h-768C76.8 930.133333 34.133333 887.466667 34.133333 836.266667V187.733333c0-51.2 42.666667-93.866667 93.866667-93.866666h768c51.2 0 93.866667 42.666667 93.866667 93.866666v648.533334c0 51.2-42.666667 93.866667-93.866667 93.866666z m-768-785.066666C104.106667 145.066667 85.333333 163.84 85.333333 187.733333v648.533334c0 23.893333 18.773333 42.666667 42.666667 42.666666h768c23.893333 0 42.666667-18.773333 42.666667-42.666666V187.733333c0-23.893333-18.773333-42.666667-42.666667-42.666666h-768z"  /><path  d="M331.093333 390.826667c-8.533333 0-15.36-3.413333-20.48-10.24L238.933333 290.133333c-8.533333-10.24-6.826667-27.306667 3.413334-35.84 10.24-8.533333 27.306667-6.826667 35.84 3.413334l51.2 64.853333 51.2-64.853333c8.533333-10.24 25.6-13.653333 35.84-3.413334 11.946667 8.533333 13.653333 25.6 3.413333 35.84l-71.68 90.453334c-1.706667 6.826667-8.533333 10.24-17.066667 10.24zM416.426667 481.28h-170.666667c-13.653333 0-25.6-11.946667-25.6-25.6s11.946667-25.6 25.6-25.6h170.666667c13.653333 0 25.6 11.946667 25.6 25.6s-11.946667 25.6-25.6 25.6z"  /><path  d="M416.426667 390.826667h-170.666667c-13.653333 0-25.6-11.946667-25.6-25.6s11.946667-25.6 25.6-25.6h170.666667c13.653333 0 25.6 11.946667 25.6 25.6s-11.946667 25.6-25.6 25.6z"  /><path  d="M331.093333 570.026667c-13.653333 0-25.6-11.946667-25.6-25.6V365.226667c0-13.653333 11.946667-25.6 25.6-25.6s25.6 11.946667 25.6 25.6v179.2c0 15.36-11.946667 25.6-25.6 25.6zM788.48 810.666667h-160.426667c-18.773333 0-35.84-15.36-35.84-35.84v-90.453334c0-18.773333 15.36-35.84 35.84-35.84h160.426667c18.773333 0 35.84 15.36 35.84 35.84v90.453334c0 20.48-17.066667 35.84-35.84 35.84z m-145.066667-51.2h128v-58.026667h-128v58.026667z m145.066667-58.026667z"  /><path  d="M757.76 701.44c-13.653333 0-25.6-11.946667-25.6-25.6v-39.253333c0-13.653333-10.24-23.893333-23.893333-23.893334s-23.893333 10.24-23.893334 23.893334v39.253333c0 13.653333-11.946667 25.6-25.6 25.6s-25.6-11.946667-25.6-25.6v-39.253333c0-40.96 34.133333-75.093333 75.093334-75.093334s75.093333 34.133333 75.093333 75.093334v39.253333c0 13.653333-11.946667 25.6-25.6 25.6z"  /><path  d="M779.946667 469.333333h-221.866667c-13.653333 0-25.6-11.946667-25.6-25.6s11.946667-25.6 25.6-25.6h221.866667c13.653333 0 25.6 11.946667 25.6 25.6s-11.946667 25.6-25.6 25.6z"  /><path  d="M442.026667 728.746667h-221.866667c-13.653333 0-25.6-11.946667-25.6-25.6s11.946667-25.6 25.6-25.6h221.866667c13.653333 0 25.6 11.946667 25.6 25.6s-11.946667 25.6-25.6 25.6z"  /><path  d="M779.946667 336.213333h-221.866667c-13.653333 0-25.6-11.946667-25.6-25.6s11.946667-25.6 25.6-25.6h221.866667c13.653333 0 25.6 11.946667 25.6 25.6s-11.946667 25.6-25.6 25.6z"  /></svg>