<?xml version="1.0" standalone="no"?><!DOCTYPE svg PUBLIC "-//W3C//DTD SVG 1.1//EN" "http://www.w3.org/Graphics/SVG/1.1/DTD/svg11.dtd"><svg class="icon" width="64px" height="64.00px" viewBox="0 0 1024 1024" version="1.1" xmlns="http://www.w3.org/2000/svg"><path  d="M418.133333 972.970667c-6.656 0-13.141333-2.56-18.090666-7.509334-9.045333-8.874667-10.069333-23.04-2.56-33.28l165.205333-224.597333-99.498667-99.498667a25.429333 25.429333 0 0 1 0-36.181333c29.696-29.525333 79.872-56.149333 153.941334-21.162667l161.962666-89.770666-8.192-56.149334c-1.536-10.922667 3.925333-21.674667 13.824-26.624 9.898667-4.949333 21.845333-3.072 29.525334 4.778667l168.106666 168.106667c7.850667 7.850667 9.728 19.626667 4.778667 29.525333-4.949333 9.898667-15.701333 15.530667-26.453333 13.824L904.533333 586.581333l-90.112 162.304c18.773333 42.666667 31.744 100.693333-20.992 153.429334-10.069333 10.069333-26.282667 10.069333-36.181333 0l-100.010667-99.84-223.914666 165.546666c-4.608 3.413333-9.898667 4.949333-15.189334 4.949334z m241.664-229.888c6.656 0 13.141333 2.56 18.090667 7.509333l95.061333 94.890667c10.24-19.797333 9.898667-45.397333-10.24-86.357334-3.754667-7.509333-3.413333-16.384 0.682667-23.722666l105.130667-189.098667c4.778667-8.533333 13.994667-13.824 23.552-13.141333l-59.392-59.392c0.341333 9.557333-4.608 18.773333-13.141334 23.552l-189.269333 104.96c-7.68 4.266667-17.066667 4.266667-24.746667 0-40.106667-22.016-66.56-19.626667-85.504-9.728L614.4 687.104c8.874667 8.874667 10.069333 23.04 2.56 33.28l-77.824 105.813333 105.472-77.994666c4.608-3.413333 9.898667-5.12 15.189333-5.12z"  /><path  d="M298.496 974.677333H128a94.037333 94.037333 0 0 1-93.866667-93.866666v-663.893334c0-51.712 42.154667-93.866667 93.866667-93.866666h768c51.712 0 93.866667 42.154667 93.866667 93.866666v145.578667c0 14.165333-11.434667 25.6-25.6 25.6s-25.6-11.434667-25.6-25.6v-145.578667a42.666667 42.666667 0 0 0-42.666667-42.666666h-768a42.666667 42.666667 0 0 0-42.666667 42.666666v663.893334a42.666667 42.666667 0 0 0 42.666667 42.666666h170.496c14.165333 0 25.6 11.434667 25.6 25.6s-11.434667 25.6-25.6 25.6z"  /><path  d="M289.28 240.469333c-14.165333 0-25.6-11.434667-25.6-25.6v-139.946666c0-14.165333 11.434667-25.6 25.6-25.6s25.6 11.434667 25.6 25.6v140.117333c0 13.994667-11.434667 25.429333-25.6 25.429333zM734.72 240.469333c-14.165333 0-25.6-11.434667-25.6-25.6v-139.946666c0-14.165333 11.434667-25.6 25.6-25.6s25.6 11.434667 25.6 25.6v140.117333c0 13.994667-11.434667 25.429333-25.6 25.429333z"  /></svg>