<?xml version="1.0" standalone="no"?><!DOCTYPE svg PUBLIC "-//W3C//DTD SVG 1.1//EN" "http://www.w3.org/Graphics/SVG/1.1/DTD/svg11.dtd"><svg class="icon" width="64px" height="64.00px" viewBox="0 0 1024 1024" version="1.1" xmlns="http://www.w3.org/2000/svg"><path  d="M839.168 616.618667c-37.546667-31.914667-82.090667-54.101333-129.365333-65.706667V191.488c0-6.656-2.56-13.141333-7.338667-17.92L573.44 41.472l-0.170667-0.170667c-0.853333-0.853333-1.877333-1.706667-2.901333-2.389333-0.341333-0.170667-0.512-0.512-0.853333-0.682667a24.7296 24.7296 0 0 0-14.336-4.437333H215.210667a94.037333 94.037333 0 0 0-93.866667 93.866667v455.509333c-42.496 3.242667-64 21.333333-74.922667 37.717333-14.336 23.04-16.213333 51.541333-5.290666 75.093334 6.656 16.725333 8.704 21.674667 208.554666 177.834666 15.36 11.946667 51.370667 40.106667 54.101334 42.496 18.090667 18.261333 21.333333 21.504 347.477333 14.336l19.456-0.341333c6.314667 3.925333 19.626667 13.312 42.154667 30.890667 28.330667 21.845333 37.717333 29.184 55.978666 29.184 22.698667 0 26.282667-3.413333 118.613334-92.842667 41.642667-40.277333 84.138667-82.090667 88.576-86.528a47.786667 47.786667 0 0 0 13.824-35.84c-0.853333-23.210667-1.365333-31.744-150.698667-158.549333zM580.949333 122.197333l51.2 52.394667h-51.2V122.197333zM215.210667 84.992h314.538666v115.2c0 14.165333 11.434667 25.6 25.6 25.6h103.424v316.586667c-8.021333-0.682667-16.042667-1.024-24.234666-1.024H457.557333c-67.925333 0-98.986667 47.616-98.986666 91.989333 0 23.381333 10.922667 46.250667 28.330666 63.829333H334.506667c-8.874667-5.802667-27.648-20.650667-37.546667-28.501333-37.376-29.525333-81.578667-64.512-124.416-79.189333V127.658667a42.666667 42.666667 0 0 1 42.666667-42.666667z m636.586666 775.509333c-41.984 40.618667-73.216 70.485333-83.456 77.994667-4.266667-2.56-13.653333-9.728-24.405333-17.92-43.008-33.621333-53.589333-38.229333-57.002667-39.594667-3.242667-1.365333-6.656-2.048-10.069333-2.048h-0.512l-26.282667 0.512c-172.032 3.754667-290.986667 5.12-310.784 0l-0.341333-0.341333c-3.242667-2.901333-17.237333-13.994667-57.856-45.568-110.592-86.357333-185.856-146.090667-192.853333-157.525333-4.096-9.045333-3.413333-19.456 1.194666-27.136 8.362667-12.458667 29.184-15.018667 45.056-15.018667 35.84 0 90.794667 43.52 131.413334 75.434667 28.672 22.698667 43.178667 33.450667 52.906666 37.376 3.072 1.194667 6.314667 1.877333 9.557334 1.877333h183.125333c3.754667 0 7.68-0.853333 11.093333-2.56 6.826667-3.242667 13.482667-7.168 19.626667-11.434667 8.533333-5.973333 12.629333-16.725333 10.24-26.965333-2.389333-10.24-10.922667-17.92-21.333333-19.456l-24.405334-3.584c-21.845333-3.072-44.544-6.314667-56.149333-8.533333-20.821333-3.925333-40.618667-24.746667-40.618667-42.666667 0-12.288 4.608-40.789333 47.786667-40.789333h176.810667c62.805333 0 123.733333 22.357333 171.690666 62.976 79.018667 67.242667 123.392 107.690667 132.096 120.661333-9.216 9.045333-48.128 47.274667-86.528 84.309333z"  /><path  d="M349.184 387.413333c-14.165333 0-25.6 11.434667-25.6 25.6s11.434667 25.6 25.6 25.6h44.544v44.544c0 14.165333 11.434667 25.6 25.6 25.6s25.6-11.434667 25.6-25.6V438.613333h44.373333c14.165333 0 25.6-11.434667 25.6-25.6s-11.434667-25.6-25.6-25.6h-44.373333v-18.944h44.373333c14.165333 0 25.6-11.434667 25.6-25.6s-11.434667-25.6-25.6-25.6H469.333333l38.058667-38.058666c10.069333-10.069333 10.069333-26.282667 0-36.181334s-26.282667-10.069333-36.181333 0l-51.882667 51.882667-51.882667-51.882667c-10.069333-10.069333-26.282667-10.069333-36.181333 0s-10.069333 26.282667 0 36.181334l38.058667 38.058666h-19.968c-14.165333 0-25.6 11.434667-25.6 25.6s11.434667 25.6 25.6 25.6h44.544v18.944h-44.714667z"  /></svg>