<?xml version="1.0" standalone="no"?><!DOCTYPE svg PUBLIC "-//W3C//DTD SVG 1.1//EN" "http://www.w3.org/Graphics/SVG/1.1/DTD/svg11.dtd"><svg class="icon" width="64px" height="64.00px" viewBox="0 0 1024 1024" version="1.1" xmlns="http://www.w3.org/2000/svg"><path  d="M898.048 988.330667h-768a94.037333 94.037333 0 0 1-93.866667-93.866667v-546.133333c0-51.712 42.154667-93.866667 93.866667-93.866667h768c51.712 0 93.866667 42.154667 93.866667 93.866667v546.133333c0 51.712-41.984 93.866667-93.866667 93.866667z m-768-682.666667a42.666667 42.666667 0 0 0-42.666667 42.666667v546.133333a42.666667 42.666667 0 0 0 42.666667 42.666667h768a42.666667 42.666667 0 0 0 42.666667-42.666667v-546.133333a42.666667 42.666667 0 0 0-42.666667-42.666667h-768zM770.048 177.322667h-512c-14.165333 0-25.6-11.434667-25.6-25.6s11.434667-25.6 25.6-25.6h512c14.165333 0 25.6 11.434667 25.6 25.6s-11.434667 25.6-25.6 25.6z"  /><path  d="M643.413333 593.066667H384.853333c-14.165333 0-25.6-11.434667-25.6-25.6s11.434667-25.6 25.6-25.6H643.413333c14.165333 0 25.6 11.434667 25.6 25.6s-11.434667 25.6-25.6 25.6zM643.413333 722.432H384.853333c-14.165333 0-25.6-11.434667-25.6-25.6s11.434667-25.6 25.6-25.6H643.413333c14.165333 0 25.6 11.434667 25.6 25.6s-11.434667 25.6-25.6 25.6z"  /><path  d="M514.389333 851.797333c-14.165333 0-25.6-11.434667-25.6-25.6V567.466667c0-14.165333 11.434667-25.6 25.6-25.6s25.6 11.434667 25.6 25.6v258.730666c0 14.165333-11.605333 25.6-25.6 25.6z"  /><path  d="M514.048 582.144l-147.456-147.456c-10.069333-10.069333-10.069333-26.282667 0-36.181333s26.282667-10.069333 36.181333 0l111.274667 111.274666 111.274667-111.274666c10.069333-10.069333 26.282667-10.069333 36.181333 0s10.069333 26.282667 0 36.181333l-147.456 147.456z"  /></svg>