<?xml version="1.0" standalone="no"?><!DOCTYPE svg PUBLIC "-//W3C//DTD SVG 1.1//EN" "http://www.w3.org/Graphics/SVG/1.1/DTD/svg11.dtd"><svg class="icon" width="64px" height="64.00px" viewBox="0 0 1024 1024" version="1.1" xmlns="http://www.w3.org/2000/svg"><path  d="M218.794667 931.157333a25.429333 25.429333 0 0 1-25.6-25.6V819.2H61.269333a25.6 25.6 0 0 1-25.6-25.6V118.442667a25.6 25.6 0 0 1 25.6-25.6h899.754667a25.6 25.6 0 0 1 25.6 25.6v247.296a25.6 25.6 0 1 1-51.2 0v-221.866667H86.869333V768h131.925334a25.6 25.6 0 0 1 25.6 25.6v71.168l187.733333-94.037333A26.794667 26.794667 0 0 1 443.733333 768h101.205334a25.6 25.6 0 1 1 0 51.2h-95.232l-219.477334 109.397333a26.624 26.624 0 0 1-11.434666 2.56z"  /><path  d="M961.024 773.802667H646.144a25.6 25.6 0 0 1-25.6-25.6V568.149333a25.6 25.6 0 0 1 25.6-25.6h314.88a25.6 25.6 0 0 1 25.6 25.6v180.053334a25.6 25.6 0 0 1-25.6 25.6z m-290.133333-51.2h264.533333v-128.853334H671.744z"  /><path  d="M870.4 593.749333a25.6 25.6 0 0 1-25.6-25.6v-67.413333a41.984 41.984 0 0 0-83.797333 0v67.413333a25.6 25.6 0 0 1-51.2 0v-67.413333a93.184 93.184 0 0 1 186.197333 0v67.413333a25.6 25.6 0 0 1-25.6 25.6zM376.32 324.266667h-134.997333a25.6 25.6 0 0 1 0-51.2h134.997333a25.6 25.6 0 0 1 0 51.2zM512 458.922667H241.322667a25.6 25.6 0 0 1 0-51.2H512a25.6 25.6 0 1 1 0 51.2z"  /></svg>