<?xml version="1.0" standalone="no"?><!DOCTYPE svg PUBLIC "-//W3C//DTD SVG 1.1//EN" "http://www.w3.org/Graphics/SVG/1.1/DTD/svg11.dtd"><svg class="icon" width="64px" height="64.00px" viewBox="0 0 1024 1024" version="1.1" xmlns="http://www.w3.org/2000/svg"><path  d="M894.805333 796.501333H129.194667a25.6 25.6 0 0 1-25.6-25.6v-147.285333C103.594667 392.533333 286.890667 204.8 512 204.8s408.405333 187.733333 408.405333 418.816v147.285333a25.6 25.6 0 0 1-25.6 25.6z m-740.010666-51.2h714.410666v-121.685333C869.205333 421.034667 708.949333 256 512 256S154.794667 421.034667 154.794667 623.616z"  /><path  d="M962.218667 931.669333H61.781333a25.6 25.6 0 0 1-25.6-25.6v-135.168a25.6 25.6 0 0 1 25.6-25.6h900.437334a25.6 25.6 0 0 1 25.6 25.6v135.168a25.6 25.6 0 0 1-25.6 25.6z m-874.837334-51.2h849.237334v-83.968H87.381333zM580.266667 548.864h-136.533334a25.6 25.6 0 0 1-25.6-25.6V117.930667a25.6 25.6 0 0 1 25.6-25.6h136.533334a25.6 25.6 0 0 1 25.6 25.6v405.333333a25.6 25.6 0 0 1-25.6 25.6z m-109.568-51.2h83.968V143.530667h-84.650667z"  /></svg>