<?xml version="1.0" standalone="no"?><!DOCTYPE svg PUBLIC "-//W3C//DTD SVG 1.1//EN" "http://www.w3.org/Graphics/SVG/1.1/DTD/svg11.dtd"><svg class="icon" width="64px" height="64.00px" viewBox="0 0 1024 1024" version="1.1" xmlns="http://www.w3.org/2000/svg"><path  d="M664.405333 863.744a178.005333 178.005333 0 0 1-177.834666-177.834667V537.6h-409.6A25.6 25.6 0 0 1 51.2 512a460.8 460.8 0 1 1 921.6 0 455.850667 455.850667 0 0 1-38.229333 184.149333 25.429333 25.429333 0 0 1-23.381334 15.36h-70.826666a178.005333 178.005333 0 0 1-175.957334 152.234667zM103.424 486.4H512a25.6 25.6 0 0 1 25.6 25.6v173.909333a126.634667 126.634667 0 0 0 253.269333 0 25.6 25.6 0 0 1 25.6-25.6h77.141334A409.6 409.6 0 1 0 103.424 486.4z"  /><path  d="M664.234667 755.029333a68.266667 68.266667 0 1 1 68.266666-69.12 69.12 69.12 0 0 1-68.266666 69.12z m0-86.869333a17.066667 17.066667 0 1 0 17.066666 17.066667 17.92 17.92 0 0 0-17.066666-17.066667zM294.570667 972.8a25.770667 25.770667 0 0 1-10.752-2.218667C201.386667 932.352 150.528 860.16 101.376 790.357333l-1.706667-2.730666a24.917333 24.917333 0 0 1-2.901333-23.893334 25.429333 25.429333 0 0 1 18.261333-15.701333l391.338667-87.04a25.6 25.6 0 0 1 11.264 50.005333L163.669333 789.674667c37.717333 52.224 76.117333 99.84 129.877334 128.170666l249.002666-145.237333a25.6 25.6 0 1 1 25.770667 44.202667L307.2 969.045333a24.405333 24.405333 0 0 1-12.629333 3.754667z"  /></svg>