<?xml version="1.0" standalone="no"?><!DOCTYPE svg PUBLIC "-//W3C//DTD SVG 1.1//EN" "http://www.w3.org/Graphics/SVG/1.1/DTD/svg11.dtd"><svg class="icon" width="64px" height="64.00px" viewBox="0 0 1024 1024" version="1.1" xmlns="http://www.w3.org/2000/svg"><path  d="M513.365333 931.669333a25.770667 25.770667 0 0 1-18.432-7.338666L390.144 819.2H62.976a25.6 25.6 0 0 1-25.6-25.6V117.930667a25.6 25.6 0 0 1 25.6-25.6h900.949333A25.6 25.6 0 0 1 989.866667 117.930667V793.6a25.6 25.6 0 0 1-25.6 25.6H636.586667l-105.130667 105.130667a25.429333 25.429333 0 0 1-18.090667 7.338666zM88.576 768h312.32a25.429333 25.429333 0 0 1 18.090667 7.509333L513.365333 870.4l94.549334-94.378667a24.917333 24.917333 0 0 1 18.090666-8.021333H938.666667V143.530667H88.576z"  /><path  d="M669.525333 629.76H354.474667a25.6 25.6 0 0 1-25.6-25.6V424.277333a25.6 25.6 0 0 1 25.6-25.6h315.050666a25.6 25.6 0 0 1 25.6 25.6V604.16a25.6 25.6 0 0 1-25.6 25.6z m-290.133333-51.2h264.533333v-128.682667H380.074667z"  /><path  d="M580.266667 449.877333a25.770667 25.770667 0 0 1-25.6-25.6v-68.266666a41.813333 41.813333 0 0 0-83.626667 0v68.266666a25.6 25.6 0 0 1-51.2 0v-68.266666a93.013333 93.013333 0 0 1 186.026667 0v68.266666a25.6 25.6 0 0 1-25.6 25.6z"  /></svg>