<?xml version="1.0" standalone="no"?><!DOCTYPE svg PUBLIC "-//W3C//DTD SVG 1.1//EN" "http://www.w3.org/Graphics/SVG/1.1/DTD/svg11.dtd"><svg class="icon" width="64px" height="64.00px" viewBox="0 0 1024 1024" version="1.1" xmlns="http://www.w3.org/2000/svg"><path  d="M99.157333 242.517333c-5.461333 0-10.922667-1.706667-15.701333-5.290666-11.093333-8.704-13.141333-24.746667-4.608-36.010667l120.490667-155.306667c4.778667-6.314667 12.288-9.898667 20.309333-9.898666h584.704c7.850667 0 15.36 3.584 20.309333 9.898666l120.149334 155.306667c8.704 11.264 6.656 27.306667-4.608 35.84-11.264 8.704-27.306667 6.656-35.84-4.608L791.893333 87.04H232.106667L119.466667 232.618667c-5.12 6.485333-12.629333 9.898667-20.309334 9.898666z"  /><path  d="M870.4 987.989333H153.6a94.037333 94.037333 0 0 1-93.866667-93.866666V272.042667c0-51.712 42.154667-93.866667 93.866667-93.866667h716.8c51.712 0 93.866667 42.154667 93.866667 93.866667v621.909333c0 51.882667-42.154667 94.037333-93.866667 94.037333zM153.6 229.376a42.666667 42.666667 0 0 0-42.666667 42.666667v621.909333a42.666667 42.666667 0 0 0 42.666667 42.666667h716.8a42.666667 42.666667 0 0 0 42.666667-42.666667V272.042667a42.666667 42.666667 0 0 0-42.666667-42.666667H153.6z"  /><path  d="M512 798.378667c-6.485333 0-13.141333-2.56-18.090667-7.509334L304.298667 601.258667c-10.069333-10.069333-10.069333-26.282667 0-36.181334s26.282667-10.069333 36.181333 0L512 736.597333l171.52-171.52c10.069333-10.069333 26.282667-10.069333 36.181333 0s10.069333 26.282667 0 36.181334L530.090667 790.869333c-4.949333 4.949333-11.605333 7.509333-18.090667 7.509334z"  /><path  d="M511.829333 798.378667c-14.165333 0-25.6-11.434667-25.6-25.6V393.557333c0-14.165333 11.434667-25.6 25.6-25.6s25.6 11.434667 25.6 25.6v379.221334c0 14.165333-11.434667 25.6-25.6 25.6z"  /></svg>