<?xml version="1.0" standalone="no"?><!DOCTYPE svg PUBLIC "-//W3C//DTD SVG 1.1//EN" "http://www.w3.org/Graphics/SVG/1.1/DTD/svg11.dtd"><svg class="icon" width="64px" height="64.00px" viewBox="0 0 1024 1024" version="1.1" xmlns="http://www.w3.org/2000/svg"><path  d="M581.973333 878.933333L563.2 846.506667c-3.413333-6.826667-6.826667-13.653333-8.533333-20.48l-56.32 29.013333V532.48l329.386666-165.546667v114.346667c25.6 1.706667 49.493333 15.36 66.56 34.133333V314.026667c0-3.413333 0-5.12-1.706666-8.533334v-1.706666c0-1.706667-1.706667-3.413333-1.706667-5.12 0 0 0-1.706667-1.706667-1.706667 0 0 0-1.706667-1.706666-1.706667-1.706667-1.706667-3.413333-3.413333-3.413334-5.12l-1.706666-1.706666c-1.706667-1.706667-5.12-3.413333-6.826667-5.12L477.866667 85.333333c-8.533333-5.12-20.48-5.12-29.013334 0L52.906667 283.306667c-1.706667 1.706667-5.12 3.413333-6.826667 5.12l-1.706667 1.706666c-1.706667 1.706667-3.413333 3.413333-3.413333 5.12l-1.706667 1.706667s0 1.706667-1.706666 1.706667c0 1.706667-1.706667 3.413333-1.706667 5.12v1.706666c-1.706667 1.706667-1.706667 5.12-1.706667 8.533334v395.946666c0 11.946667 6.826667 23.893333 18.773334 29.013334L448.853333 938.666667c1.706667 0 3.413333 1.706667 5.12 1.706666h17.066667c1.706667 0 3.413333-1.706667 5.12-1.706666l107.52-54.613334c1.706667-1.706667 0-3.413333-1.706667-5.12z m-151.893333-23.893333L100.693333 689.493333V368.64l329.386667 165.546667v320.853333z m34.133333-380.586667L141.653333 314.026667 464.213333 153.6 785.066667 314.026667l-320.853334 160.426666z"  /><path  d="M762.88 935.253333c-30.72 0-58.026667-22.186667-61.44-52.906666v-3.413334c-6.826667 3.413333-17.066667 5.12-25.6 5.12-25.6 0-47.786667-13.653333-61.44-34.133333l-17.066667-29.013333c-18.773333-29.013333-11.946667-66.56 11.946667-88.746667-23.893333-22.186667-30.72-59.733333-13.653333-88.746667L614.4 614.4c17.066667-29.013333 54.613333-40.96 87.04-29.013333 6.826667-32.426667 35.84-58.026667 69.973333-58.026667h34.133334c34.133333 0 63.146667 23.893333 69.973333 58.026667 8.533333-3.413333 17.066667-5.12 25.6-5.12 25.6 0 47.786667 11.946667 61.44 34.133333l17.066667 29.013333c17.066667 29.013333 11.946667 66.56-11.946667 88.746667 23.893333 22.186667 30.72 59.733333 13.653333 88.746667l-17.066666 29.013333c-13.653333 22.186667-35.84 34.133333-61.44 34.133333-8.533333 0-17.066667-1.706667-25.6-5.12-6.826667 32.426667-35.84 58.026667-69.973334 58.026667h-44.373333v-1.706667zM768 870.4z m-5.12-5.12z m-47.786667-66.56l15.36 10.24c5.12 3.413333 8.533333 5.12 15.36 8.533333l17.066667 6.826667 6.826667 40.96h37.546666c1.706667 0 1.706667-1.706667 3.413334-1.706667l5.12-39.253333 17.066666-8.533333c5.12-1.706667 10.24-5.12 15.36-8.533334l15.36-10.24 39.253334 15.36c1.706667 0 3.413333 0 3.413333-1.706666l17.066667-29.013334v-3.413333L887.466667 756.053333l1.706666-18.773333v-6.826667-6.826666l-1.706666-18.773334 32.426666-23.893333c1.706667 0 1.706667-1.706667 0-3.413333l-17.066666-29.013334-1.706667-1.706666-39.253333 15.36-15.36-10.24c-5.12-3.413333-10.24-6.826667-15.36-8.533334l-17.066667-6.826666-6.826667-39.253334c0-1.706667-1.706667-3.413333-3.413333-3.413333h-34.133333c-1.706667 0-1.706667 1.706667-3.413334 1.706667l-5.12 39.253333-17.066666 8.533333c-5.12 3.413333-10.24 5.12-15.36 8.533334l-15.36 10.24-39.253334-15.36h-3.413333l-17.066667 29.013333v3.413333l32.426667 23.893334-1.706667 18.773333v11.946667l1.706667 18.773333-13.653333 15.36-17.066667 13.653333c-1.706667 1.706667-1.706667 1.706667 0 3.413334l17.066667 29.013333 1.706666 1.706667 40.96-17.066667z"  /><path  d="M786.773333 815.786667c-46.08 0-85.333333-37.546667-85.333333-85.333334 0-46.08 37.546667-85.333333 85.333333-85.333333 46.08 0 85.333333 37.546667 85.333334 85.333333 0 46.08-37.546667 85.333333-85.333334 85.333334z m0-102.4c-8.533333 0-17.066667 6.826667-17.066666 17.066666 0 8.533333 6.826667 17.066667 17.066666 17.066667 8.533333 0 17.066667-6.826667 17.066667-17.066667 0-8.533333-6.826667-17.066667-17.066667-17.066666z"  /></svg>