<?xml version="1.0" standalone="no"?><!DOCTYPE svg PUBLIC "-//W3C//DTD SVG 1.1//EN" "http://www.w3.org/Graphics/SVG/1.1/DTD/svg11.dtd"><svg class="icon" width="64px" height="64.00px" viewBox="0 0 1024 1024" version="1.1" xmlns="http://www.w3.org/2000/svg"><path  d="M896 757.76h-768c-51.2 0-93.866667-42.666667-93.866667-93.866667V213.333333C34.133333 160.426667 76.8 119.466667 128 119.466667h768c51.2 0 93.866667 42.666667 93.866667 93.866666V665.6c0 51.2-42.666667 92.16-93.866667 92.16zM128 170.666667C104.106667 170.666667 85.333333 189.44 85.333333 213.333333V665.6c0 23.893333 18.773333 42.666667 42.666667 42.666667h768c23.893333 0 42.666667-18.773333 42.666667-42.666667V213.333333c0-23.893333-18.773333-42.666667-42.666667-42.666666h-768z"  /><path  d="M486.4 744.106667h51.2v136.533333h-51.2z"  /><path  d="M783.36 904.533333H240.64c-13.653333 0-25.6-11.946667-25.6-25.6s11.946667-25.6 25.6-25.6h542.72c13.653333 0 25.6 11.946667 25.6 25.6s-11.946667 25.6-25.6 25.6z"  /><path  d="M512 651.946667c-3.413333 0-8.533333-1.706667-11.946667-3.413334l-187.733333-93.866666c-8.533333-5.12-13.653333-13.653333-13.653333-22.186667v-187.733333c0-10.24 5.12-18.773333 13.653333-22.186667l187.733333-93.866667c6.826667-3.413333 15.36-3.413333 22.186667 0l187.733333 93.866667c8.533333 5.12 13.653333 13.653333 13.653334 22.186667v187.733333c0 10.24-5.12 18.773333-13.653334 22.186667l-187.733333 93.866666c-1.706667 1.706667-6.826667 3.413333-10.24 3.413334z m-162.133333-134.826667L512 597.333333l162.133333-80.213333v-155.306667L512 279.893333l-162.133333 81.92v155.306667z"  /><path  d="M512 464.213333c-3.413333 0-8.533333-1.706667-11.946667-3.413333l-187.733333-93.866667c-11.946667-6.826667-17.066667-22.186667-11.946667-34.133333 6.826667-11.946667 22.186667-17.066667 34.133334-11.946667l187.733333 93.866667c11.946667 6.826667 17.066667 22.186667 11.946667 34.133333-3.413333 10.24-13.653333 15.36-22.186667 15.36z"  /><path  d="M512 651.946667c-13.653333 0-25.6-11.946667-25.6-25.6v-187.733334c0-13.653333 11.946667-25.6 25.6-25.6s25.6 11.946667 25.6 25.6v187.733334c0 13.653333-11.946667 25.6-25.6 25.6z"  /><path  d="M512 464.213333c-10.24 0-18.773333-5.12-22.186667-13.653333-6.826667-11.946667-1.706667-27.306667 11.946667-34.133333l187.733333-93.866667c11.946667-6.826667 27.306667-1.706667 34.133334 11.946667 6.826667 11.946667 1.706667 27.306667-11.946667 34.133333l-187.733333 93.866667c-3.413333 0-8.533333 1.706667-11.946667 1.706666zM418.133333 416.426667c-10.24 0-18.773333-5.12-22.186666-13.653334-6.826667-11.946667-1.706667-27.306667 11.946666-34.133333l187.733334-93.866667c11.946667-6.826667 27.306667-1.706667 34.133333 11.946667 6.826667 11.946667 1.706667 27.306667-11.946667 34.133333l-187.733333 93.866667c-3.413333 1.706667-8.533333 1.706667-11.946667 1.706667z"  /></svg>