<?xml version="1.0" standalone="no"?><!DOCTYPE svg PUBLIC "-//W3C//DTD SVG 1.1//EN" "http://www.w3.org/Graphics/SVG/1.1/DTD/svg11.dtd"><svg class="icon" width="64px" height="64.00px" viewBox="0 0 1024 1024" version="1.1" xmlns="http://www.w3.org/2000/svg"><path  d="M761.173333 989.866667H150.186667c-51.2 0-92.16-40.96-92.16-92.16V126.293333c0-51.2 40.96-92.16 92.16-92.16h544.426666c51.2 0 92.16 40.96 92.16 92.16v837.973334c0 13.653333-11.946667 25.6-25.6 25.6zM150.186667 85.333333C126.293333 85.333333 107.52 104.106667 107.52 126.293333v769.706667c0 22.186667 18.773333 40.96 40.96 40.96H733.866667V126.293333c1.706667-22.186667-17.066667-40.96-40.96-40.96H150.186667z"  /><path  d="M873.813333 989.866667h-114.346666c-13.653333 0-25.6-11.946667-25.6-25.6V465.92c0-13.653333 11.946667-25.6 25.6-25.6h114.346666c51.2 0 92.16 40.96 92.16 92.16v363.52c1.706667 52.906667-40.96 93.866667-92.16 93.866667z m-87.04-51.2h88.746667c22.186667 0 40.96-18.773333 40.96-40.96V534.186667c0-22.186667-18.773333-40.96-40.96-40.96h-88.746667V938.666667zM399.36 266.24H218.453333c-13.653333 0-25.6-11.946667-25.6-25.6s11.946667-25.6 25.6-25.6h180.906667c13.653333 0 25.6 11.946667 25.6 25.6s-11.946667 25.6-25.6 25.6zM489.813333 424.96H218.453333c-13.653333 0-25.6-11.946667-25.6-25.6s11.946667-25.6 25.6-25.6h271.36c13.653333 0 25.6 11.946667 25.6 25.6s-11.946667 25.6-25.6 25.6z"  /></svg>