<?xml version="1.0" standalone="no"?><!DOCTYPE svg PUBLIC "-//W3C//DTD SVG 1.1//EN" "http://www.w3.org/Graphics/SVG/1.1/DTD/svg11.dtd"><svg class="icon" width="64px" height="64.00px" viewBox="0 0 1024 1024" version="1.1" xmlns="http://www.w3.org/2000/svg"><path  d="M493.226667 989.866667c-256 0-462.506667-208.213333-462.506667-462.506667C30.72 273.066667 237.226667 64.853333 493.226667 64.853333c13.653333 0 25.6 11.946667 25.6 25.6s-11.946667 25.6-25.6 25.6C266.24 116.053333 81.92 300.373333 81.92 527.36S266.24 938.666667 493.226667 938.666667 904.533333 754.346667 904.533333 527.36c0-13.653333 11.946667-25.6 25.6-25.6s25.6 11.946667 25.6 25.6C955.733333 781.653333 747.52 989.866667 493.226667 989.866667z"  /><path  d="M967.68 423.253333H629.76c-13.653333 0-25.6-11.946667-25.6-25.6V59.733333c0-13.653333 11.946667-25.6 25.6-25.6 201.386667 0 363.52 163.84 363.52 363.52 0 15.36-10.24 25.6-25.6 25.6z m-312.32-51.2h286.72C930.133333 220.16 807.253333 97.28 655.36 85.333333v286.72z"  /></svg>