<?xml version="1.0" standalone="no"?><!DOCTYPE svg PUBLIC "-//W3C//DTD SVG 1.1//EN" "http://www.w3.org/Graphics/SVG/1.1/DTD/svg11.dtd"><svg class="icon" width="64px" height="64.00px" viewBox="0 0 1024 1024" version="1.1" xmlns="http://www.w3.org/2000/svg"><path  d="M805.546667 989.866667h-580.266667c-54.613333 0-97.28-40.96-97.28-92.16V126.293333c0-51.2 44.373333-92.16 97.28-92.16h430.08c13.653333 0 25.6 11.946667 25.6 25.6v199.68c0 5.12 5.12 8.533333 10.24 8.533334h182.613333c13.653333 0 25.6 11.946667 25.6 25.6v605.866666c-1.706667 49.493333-42.666667 90.453333-93.866666 90.453334zM223.573333 85.333333c-25.6 0-46.08 18.773333-46.08 40.96v769.706667c0 22.186667 20.48 40.96 46.08 40.96h580.266667c22.186667 0 40.96-18.773333 40.96-40.96v-580.266667h-157.013333c-34.133333 0-61.44-27.306667-61.44-59.733333V85.333333H223.573333z"  /><path  d="M872.106667 317.44c-6.826667 0-13.653333-3.413333-18.773334-8.533333L634.88 76.8c-10.24-10.24-8.533333-27.306667 1.706667-35.84 10.24-10.24 27.306667-8.533333 35.84 1.706667l218.453333 232.106666c10.24 10.24 8.533333 27.306667-1.706667 35.84-5.12 5.12-11.946667 6.826667-17.066666 6.826667z"  /><path  d="M315.733333 448.853333c0-63.146667 32.426667-98.986667 78.506667-98.986666 46.08 0 80.213333 35.84 80.213333 98.986666s-34.133333 100.693333-80.213333 100.693334c-44.373333-1.706667-78.506667-37.546667-78.506667-100.693334z m107.52 0c0-44.373333-11.946667-58.026667-27.306666-58.026666-15.36 0-27.306667 13.653333-27.306667 58.026666s11.946667 59.733333 27.306667 59.733334c13.653333-1.706667 27.306667-17.066667 27.306666-59.733334z m151.893334-98.986666h42.666666l-168.96 324.266666h-42.666666l168.96-324.266666z m-25.6 223.573333c0-63.146667 34.133333-98.986667 78.506666-98.986667 46.08 0 78.506667 35.84 78.506667 98.986667s-34.133333 100.693333-78.506667 100.693333c-44.373333 0-78.506667-37.546667-78.506666-100.693333z m105.813333 0c0-44.373333-11.946667-58.026667-27.306667-58.026667-15.36 0-27.306667 13.653333-27.306666 58.026667 0 44.373333 13.653333 58.026667 27.306666 58.026667 15.36 1.706667 27.306667-13.653333 27.306667-58.026667z"  /></svg>