<?xml version="1.0" standalone="no"?><!DOCTYPE svg PUBLIC "-//W3C//DTD SVG 1.1//EN" "http://www.w3.org/Graphics/SVG/1.1/DTD/svg11.dtd"><svg class="icon" width="64px" height="64.00px" viewBox="0 0 1024 1024" version="1.1" xmlns="http://www.w3.org/2000/svg"><path  d="M896 773.12h-768c-51.2 0-93.866667-42.666667-93.866667-93.866667V189.44c0-51.2 42.666667-93.866667 93.866667-93.866667h768c51.2 0 93.866667 42.666667 93.866667 93.866667v488.106667c0 52.906667-42.666667 95.573333-93.866667 95.573333zM128 146.773333C104.106667 146.773333 85.333333 167.253333 85.333333 189.44v488.106667c0 23.893333 18.773333 42.666667 42.666667 42.666666h768c23.893333 0 42.666667-18.773333 42.666667-42.666666V189.44c0-23.893333-18.773333-42.666667-42.666667-42.666667h-768z"  /><path  d="M285.013333 928.426667c-5.12 0-10.24-1.706667-13.653333-5.12-11.946667-8.533333-15.36-23.893333-6.826667-35.84l102.4-153.6c8.533333-11.946667 23.893333-15.36 35.84-6.826667 11.946667 8.533333 15.36 23.893333 6.826667 35.84l-102.4 153.6c-6.826667 6.826667-13.653333 11.946667-22.186667 11.946667zM738.986667 928.426667c-8.533333 0-17.066667-3.413333-20.48-11.946667l-102.4-153.6c-8.533333-11.946667-5.12-27.306667 6.826666-35.84s27.306667-5.12 35.84 6.826667l102.4 153.6c8.533333 11.946667 5.12 27.306667-6.826666 35.84-5.12 3.413333-10.24 5.12-15.36 5.12z"  /><path  d="M238.933333 600.746667c-5.12 0-10.24-1.706667-15.36-5.12-11.946667-8.533333-13.653333-25.6-5.12-35.84l150.186667-191.146667c5.12-5.12 11.946667-8.533333 18.773333-10.24 6.826667 0 13.653333 1.706667 18.773334 6.826667l126.293333 121.173333 139.946667-122.88c10.24-8.533333 27.306667-8.533333 35.84 1.706667s8.533333 27.306667-1.706667 35.84l-158.72 138.24c-10.24 8.533333-25.6 8.533333-34.133333 0l-122.88-117.76-133.12 168.96c-5.12 6.826667-11.946667 10.24-18.773334 10.24z"  /><path  d="M768 324.266667m-34.133333 0a34.133333 34.133333 0 1 0 68.266666 0 34.133333 34.133333 0 1 0-68.266666 0Z"  /></svg>