<?xml version="1.0" standalone="no"?><!DOCTYPE svg PUBLIC "-//W3C//DTD SVG 1.1//EN" "http://www.w3.org/Graphics/SVG/1.1/DTD/svg11.dtd"><svg class="icon" width="64px" height="64.00px" viewBox="0 0 1024 1024" version="1.1" xmlns="http://www.w3.org/2000/svg"><path  d="M585.386667 989.866667H134.826667c-54.613333 0-97.28-40.96-97.28-92.16V126.293333c0-51.2 44.373333-92.16 97.28-92.16H563.2c13.653333 0 25.6 11.946667 25.6 25.6v232.106667c0 5.12 5.12 8.533333 10.24 8.533333h182.613333c13.653333 0 25.6 11.946667 25.6 25.6v191.146667c0 13.653333-11.946667 25.6-25.6 25.6s-25.6-11.946667-25.6-25.6v-165.546667h-157.013333c-34.133333 0-61.44-27.306667-61.44-59.733333V85.333333H134.826667C109.226667 85.333333 88.746667 104.106667 88.746667 126.293333v769.706667c0 22.186667 20.48 40.96 46.08 40.96h450.56c13.653333 0 25.6 11.946667 25.6 25.6s-11.946667 27.306667-25.6 27.306667z"  /><path  d="M781.653333 351.573333c-6.826667 0-15.36-3.413333-20.48-8.533333L544.426667 76.8c-8.533333-10.24-6.826667-27.306667 3.413333-35.84 10.24-8.533333 27.306667-6.826667 35.84 3.413333L802.133333 308.906667c8.533333 10.24 6.826667 27.306667-3.413333 35.84-5.12 5.12-11.946667 6.826667-17.066667 6.826666z"  /><path  d="M776.533333 989.866667c-116.053333 0-209.92-93.866667-209.92-209.92s93.866667-209.92 209.92-209.92 209.92 93.866667 209.92 209.92S892.586667 989.866667 776.533333 989.866667z m0-370.346667c-87.04 0-158.72 71.68-158.72 158.72s71.68 158.72 158.72 158.72 158.72-71.68 158.72-158.72-69.973333-158.72-158.72-158.72z"  /><path  d="M960.853333 805.546667H776.533333c-13.653333 0-25.6-11.946667-25.6-25.6V593.92c0-13.653333 11.946667-25.6 25.6-25.6s25.6 11.946667 25.6 25.6v158.72h158.72c13.653333 0 25.6 11.946667 25.6 25.6s-10.24 27.306667-25.6 27.306667z"  /></svg>