<?xml version="1.0" standalone="no"?><!DOCTYPE svg PUBLIC "-//W3C//DTD SVG 1.1//EN" "http://www.w3.org/Graphics/SVG/1.1/DTD/svg11.dtd"><svg class="icon" width="64px" height="64.00px" viewBox="0 0 1024 1024" version="1.1" xmlns="http://www.w3.org/2000/svg"><path  d="M897.706667 989.866667H126.293333c-51.2 0-92.16-40.96-92.16-92.16V126.293333C34.133333 75.093333 75.093333 34.133333 126.293333 34.133333h769.706667c51.2 0 92.16 40.96 92.16 92.16v769.706667c1.706667 52.906667-39.253333 93.866667-90.453333 93.866667zM126.293333 85.333333C104.106667 85.333333 85.333333 104.106667 85.333333 126.293333v769.706667C85.333333 919.893333 104.106667 938.666667 126.293333 938.666667h769.706667c22.186667 0 40.96-18.773333 40.96-40.96V126.293333c1.706667-22.186667-17.066667-40.96-39.253333-40.96H126.293333z"  /><path  d="M646.826667 537.6H353.28c-51.2 0-92.16-40.96-92.16-92.16V59.733333c0-13.653333 11.946667-25.6 25.6-25.6h426.666667c13.653333 0 25.6 11.946667 25.6 25.6v385.706667c0 51.2-42.666667 92.16-92.16 92.16zM312.32 85.333333v360.106667c0 22.186667 18.773333 40.96 40.96 40.96h293.546667c22.186667 0 40.96-18.773333 40.96-40.96V85.333333h-375.466667z"  /><path  d="M561.493333 361.813333c-13.653333 0-25.6-11.946667-25.6-25.6v-100.693333c0-13.653333 11.946667-25.6 25.6-25.6s25.6 11.946667 25.6 25.6v100.693333c0 13.653333-10.24 25.6-25.6 25.6zM814.08 85.333333H186.026667c-15.36 0-25.6-11.946667-25.6-25.6S170.666667 34.133333 186.026667 34.133333h628.053333c13.653333 0 25.6 11.946667 25.6 25.6S827.733333 85.333333 814.08 85.333333z"  /></svg>