<?xml version="1.0" standalone="no"?><!DOCTYPE svg PUBLIC "-//W3C//DTD SVG 1.1//EN" "http://www.w3.org/Graphics/SVG/1.1/DTD/svg11.dtd"><svg class="icon" width="64px" height="64.00px" viewBox="0 0 1024 1024" version="1.1" xmlns="http://www.w3.org/2000/svg"><path  d="M512 936.96H175.786667c-63.146667 0-116.053333-51.2-116.053334-116.053333V192.853333c0-63.146667 51.2-116.053333 116.053334-116.053333h628.053333c63.146667 0 116.053333 51.2 116.053333 116.053333V529.066667c0 13.653333-11.946667 25.6-25.6 25.6s-25.6-11.946667-25.6-25.6V192.853333c0-35.84-29.013333-64.853333-64.853333-64.853333H175.786667c-35.84 0-64.853333 29.013333-64.853334 64.853333v628.053334c0 35.84 29.013333 64.853333 64.853334 64.853333H512c13.653333 0 25.6 11.946667 25.6 25.6s-11.946667 25.6-25.6 25.6z"  /><path  d="M894.293333 442.026667H85.333333c-13.653333 0-25.6-11.946667-25.6-25.6s11.946667-25.6 25.6-25.6h808.96c13.653333 0 25.6 11.946667 25.6 25.6s-11.946667 25.6-25.6 25.6z"  /><path  d="M399.36 936.96c-13.653333 0-25.6-11.946667-25.6-25.6V102.4c0-13.653333 11.946667-25.6 25.6-25.6s25.6 11.946667 25.6 25.6v808.96c0 13.653333-10.24 25.6-25.6 25.6zM938.666667 846.506667H669.013333c-13.653333 0-25.6-11.946667-25.6-25.6s11.946667-25.6 25.6-25.6H938.666667c13.653333 0 25.6 11.946667 25.6 25.6s-11.946667 25.6-25.6 25.6z"  /><path  d="M803.84 981.333333c-6.826667 0-13.653333-1.706667-18.773333-6.826666-10.24-10.24-10.24-25.6 0-35.84l116.053333-116.053334-116.053333-116.053333c-10.24-10.24-10.24-25.6 0-35.84s25.6-10.24 35.84 0l134.826666 134.826667c10.24 10.24 10.24 25.6 0 35.84l-134.826666 134.826666c-3.413333 3.413333-10.24 5.12-17.066667 5.12z"  /></svg>