<?xml version="1.0" standalone="no"?><!DOCTYPE svg PUBLIC "-//W3C//DTD SVG 1.1//EN" "http://www.w3.org/Graphics/SVG/1.1/DTD/svg11.dtd"><svg class="icon" width="64px" height="64.00px" viewBox="0 0 1024 1024" version="1.1" xmlns="http://www.w3.org/2000/svg"><path  d="M873.813333 960.853333H240.64c-63.146667 0-116.053333-52.906667-116.053333-116.053333v-68.266667c0-13.653333 11.946667-25.6 25.6-25.6s25.6 11.946667 25.6 25.6v68.266667c0 35.84 29.013333 64.853333 64.853333 64.853333h633.173333c35.84 0 64.853333-29.013333 64.853334-64.853333V339.626667c0-17.066667-6.826667-34.133333-18.773334-46.08l-128-128c-11.946667-11.946667-29.013333-18.773333-46.08-18.773334H240.64c-35.84 0-64.853333 29.013333-64.853333 64.853334v68.266666c0 13.653333-11.946667 25.6-25.6 25.6s-25.6-11.946667-25.6-25.6v-68.266666c0-63.146667 52.906667-116.053333 116.053333-116.053334h505.173333c30.72 0 59.733333 11.946667 81.92 34.133334l128 128c22.186667 22.186667 34.133333 51.2 34.133334 81.92v505.173333c0 64.853333-51.2 116.053333-116.053334 116.053333z"  /><path  d="M711.68 419.84h-307.2c-29.013333 0-52.906667-23.893333-52.906667-52.906667V122.88c0-13.653333 11.946667-25.6 25.6-25.6h361.813334c13.653333 0 25.6 11.946667 25.6 25.6v244.053333c0 29.013333-23.893333 52.906667-52.906667 52.906667zM402.773333 148.48v218.453333s0 1.706667 1.706667 1.706667h307.2s1.706667 0 1.706667-1.706667V148.48H402.773333zM829.44 960.853333c-13.653333 0-25.6-11.946667-25.6-25.6V600.746667c0-1.706667 0-1.706667-1.706667-1.706667h-109.226666c-13.653333 0-25.6-11.946667-25.6-25.6s11.946667-25.6 25.6-25.6H802.133333c29.013333 0 52.906667 23.893333 52.906667 52.906667v334.506666c0 15.36-11.946667 25.6-25.6 25.6zM286.72 960.853333c-13.653333 0-25.6-11.946667-25.6-25.6v-158.72c0-13.653333 11.946667-25.6 25.6-25.6s25.6 11.946667 25.6 25.6v158.72c0 15.36-11.946667 25.6-25.6 25.6zM196.266667 691.2c-6.826667 0-13.653333-1.706667-18.773334-6.826667l-136.533333-136.533333c-1.706667-1.706667-5.12-5.12-5.12-8.533333S34.133333 532.48 34.133333 529.066667s0-6.826667 1.706667-10.24c1.706667-3.413333 3.413333-5.12 5.12-8.533334l136.533333-136.533333c10.24-10.24 25.6-10.24 35.84 0s10.24 25.6 0 35.84l-92.16 92.16h435.2c13.653333 0 25.6 11.946667 25.6 25.6s-11.946667 25.6-25.6 25.6H121.173333l92.16 92.16c10.24 10.24 10.24 25.6 0 35.84-5.12 6.826667-10.24 10.24-17.066666 10.24z"  /></svg>