<?xml version="1.0" standalone="no"?><!DOCTYPE svg PUBLIC "-//W3C//DTD SVG 1.1//EN" "http://www.w3.org/Graphics/SVG/1.1/DTD/svg11.dtd"><svg class="icon" width="64px" height="64.00px" viewBox="0 0 1024 1024" version="1.1" xmlns="http://www.w3.org/2000/svg"><path  d="M512 989.866667C249.173333 989.866667 34.133333 774.826667 34.133333 512S249.173333 34.133333 512 34.133333s477.866667 215.04 477.866667 477.866667-215.04 477.866667-477.866667 477.866667z m0-904.533334C276.48 85.333333 85.333333 276.48 85.333333 512s191.146667 426.666667 426.666667 426.666667 426.666667-191.146667 426.666667-426.666667S747.52 85.333333 512 85.333333z"  /><path  d="M428.373333 680.96c-6.826667 0-13.653333-3.413333-18.773333-6.826667l-116.053333-116.053333c-10.24-10.24-10.24-25.6 0-35.84s25.6-10.24 35.84 0l98.986666 98.986667 266.24-266.24c10.24-10.24 25.6-10.24 35.84 0s10.24 25.6 0 35.84L445.44 672.426667c-3.413333 5.12-10.24 8.533333-17.066667 8.533333z"  /></svg>