<?xml version="1.0" standalone="no"?><!DOCTYPE svg PUBLIC "-//W3C//DTD SVG 1.1//EN" "http://www.w3.org/Graphics/SVG/1.1/DTD/svg11.dtd"><svg class="icon" width="64px" height="64.00px" viewBox="0 0 1024 1024" version="1.1" xmlns="http://www.w3.org/2000/svg"><path  d="M512 894.634667H132.096A92.501333 92.501333 0 0 1 39.594667 802.133333V221.866667a92.501333 92.501333 0 0 1 92.501333-92.501334h758.613333A92.501333 92.501333 0 0 1 983.210667 221.866667v269.141333a25.6 25.6 0 0 1-51.2 0V221.866667a41.301333 41.301333 0 0 0-41.301334-41.301334H132.096A41.301333 41.301333 0 0 0 90.794667 221.866667v580.266666a41.301333 41.301333 0 0 0 41.301333 41.301334H512a25.6 25.6 0 0 1 0 51.2z"  /><path  d="M957.610667 448.341333H65.194667a25.6 25.6 0 0 1-25.6-25.6V221.866667a92.501333 92.501333 0 0 1 92.501333-92.501334h758.613333A92.501333 92.501333 0 0 1 983.210667 221.866667v200.874666a25.6 25.6 0 0 1-25.6 25.6z m-866.816-51.2h841.216V221.866667a41.301333 41.301333 0 0 0-41.301334-41.301334H132.096A41.301333 41.301333 0 0 0 90.794667 221.866667z"  /><path  d="M198.997333 288.938667m-44.544 0a44.544 44.544 0 1 0 89.088 0 44.544 44.544 0 1 0-89.088 0Z"  /><path  d="M332.970667 288.938667m-44.544 0a44.544 44.544 0 1 0 89.088 0 44.544 44.544 0 1 0-89.088 0Z"  /><path  d="M958.805333 883.370667H592.384a25.770667 25.770667 0 0 1-22.186667-12.8 25.429333 25.429333 0 0 1 0-25.6L753.493333 529.066667a25.429333 25.429333 0 0 1 44.202667 0l183.296 315.904a25.429333 25.429333 0 0 1 0 25.6 25.770667 25.770667 0 0 1-22.186667 12.8z m-322.048-51.2h277.674667l-138.752-238.933334z"  /><path  d="M775.68 825.002667a25.6 25.6 0 0 1-25.6-25.6v-8.362667a25.6 25.6 0 0 1 51.2 0v8.362667a25.6 25.6 0 0 1-25.6 25.6zM775.68 749.738667a25.6 25.6 0 0 1-25.6-25.6v-66.218667a25.258667 25.258667 0 0 1 25.429333-25.6A25.770667 25.770667 0 0 1 802.133333 657.749333v66.218667a25.770667 25.770667 0 0 1-25.6 25.770667z"  /></svg>