<?xml version="1.0" standalone="no"?><!DOCTYPE svg PUBLIC "-//W3C//DTD SVG 1.1//EN" "http://www.w3.org/Graphics/SVG/1.1/DTD/svg11.dtd"><svg class="icon" width="64px" height="64.00px" viewBox="0 0 1024 1024" version="1.1" xmlns="http://www.w3.org/2000/svg"><path  d="M897.706667 989.866667H126.293333c-51.2 0-92.16-40.96-92.16-92.16V126.293333C34.133333 75.093333 75.093333 34.133333 126.293333 34.133333h643.413334c6.826667 0 11.946667 1.706667 17.066666 6.826667L981.333333 221.866667c5.12 5.12 8.533333 11.946667 8.533334 18.773333v657.066667c0 51.2-40.96 92.16-92.16 92.16zM126.293333 85.333333C104.106667 85.333333 85.333333 104.106667 85.333333 126.293333v769.706667C85.333333 919.893333 104.106667 938.666667 126.293333 938.666667h769.706667c22.186667 0 40.96-18.773333 40.96-40.96V252.586667L759.466667 85.333333H126.293333z"  /><path  d="M477.866667 271.36H293.546667c-32.426667 0-59.733333-27.306667-59.733334-59.733333V59.733333c0-13.653333 11.946667-25.6 25.6-25.6H512c6.826667 0 13.653333 3.413333 18.773333 6.826667 5.12 5.12 6.826667 11.946667 6.826667 18.773333v151.893334c0 32.426667-27.306667 59.733333-59.733333 59.733333zM286.72 85.333333v126.293334c0 5.12 3.413333 8.533333 8.533333 8.533333H477.866667c5.12 0 8.533333-3.413333 8.533333-8.533333V85.333333H286.72z"  /><path  d="M769.706667 85.333333H134.826667c-13.653333 0-25.6-11.946667-25.6-25.6S121.173333 34.133333 134.826667 34.133333h634.88c13.653333 0 25.6 11.946667 25.6 25.6S785.066667 85.333333 769.706667 85.333333zM762.88 587.093333H261.12c-13.653333 0-25.6-11.946667-25.6-25.6s11.946667-25.6 25.6-25.6h501.76c13.653333 0 25.6 11.946667 25.6 25.6s-10.24 25.6-25.6 25.6zM512 788.48H261.12c-13.653333 0-25.6-11.946667-25.6-25.6s11.946667-25.6 25.6-25.6H512c13.653333 0 25.6 11.946667 25.6 25.6s-11.946667 25.6-25.6 25.6z"  /></svg>