<?xml version="1.0" standalone="no"?><!DOCTYPE svg PUBLIC "-//W3C//DTD SVG 1.1//EN" "http://www.w3.org/Graphics/SVG/1.1/DTD/svg11.dtd"><svg class="icon" width="64px" height="64.00px" viewBox="0 0 1024 1024" version="1.1" xmlns="http://www.w3.org/2000/svg"><path  d="M512 964.266667c-3.413333 0-6.826667 0-10.24-1.706667C232.106667 851.626667 93.866667 624.64 93.866667 286.72c0-10.24 6.826667-20.48 17.066666-23.893333C238.933333 213.333333 368.64 146.773333 498.346667 63.146667c8.533333-5.12 18.773333-5.12 27.306666 0 129.706667 81.92 259.413333 150.186667 387.413334 197.973333 10.24 3.413333 17.066667 13.653333 17.066666 23.893333 0 337.92-138.24 566.613333-407.893333 675.84-3.413333 3.413333-6.826667 3.413333-10.24 3.413334zM145.066667 303.786667c5.12 305.493333 124.586667 505.173333 366.933333 607.573333 242.346667-102.4 361.813333-302.08 366.933333-607.573333-121.173333-47.786667-245.76-110.933333-366.933333-187.733334-121.173333 76.8-245.76 139.946667-366.933333 187.733334z"  /><path  d="M476.16 715.093333c-6.826667 0-13.653333-3.413333-18.773333-8.533333l-146.773334-150.186667c-10.24-10.24-10.24-25.6 0-35.84l73.386667-75.093333c5.12-5.12 11.946667-8.533333 18.773333-8.533333 6.826667 0 13.653333 3.413333 18.773334 8.533333l54.613333 56.32 128-131.413333c3.413333-3.413333 5.12-5.12 10.24-6.826667 10.24-3.413333 20.48-1.706667 27.306667 5.12l73.386666 75.093333c10.24 10.24 10.24 25.6 0 35.84L494.933333 706.56c-5.12 5.12-11.946667 8.533333-18.773333 8.533333z m-112.64-175.786666l110.933333 114.346666 186.026667-189.44-37.546667-39.253333-128 131.413333c-5.12 5.12-11.946667 8.533333-18.773333 8.533334-6.826667 0-13.653333-3.413333-18.773333-8.533334l-54.613334-56.32-39.253333 39.253334z"  /></svg>