<?xml version="1.0" standalone="no"?><!DOCTYPE svg PUBLIC "-//W3C//DTD SVG 1.1//EN" "http://www.w3.org/Graphics/SVG/1.1/DTD/svg11.dtd"><svg class="icon" width="64px" height="64.00px" viewBox="0 0 1024 1024" version="1.1" xmlns="http://www.w3.org/2000/svg"><path  d="M479.573333 947.2H85.333333c-13.653333 0-25.6-11.946667-25.6-25.6V691.2c0-6.826667 3.413333-13.653333 6.826667-18.773333l35.84-34.133334c76.8-75.093333 179.2-117.76 288.426667-117.76h245.76c13.653333 0 25.6 11.946667 25.6 25.6v71.68l85.333333-83.626666c49.493333-44.373333 90.453333-63.146667 128-56.32 29.013333 5.12 54.613333 23.893333 73.386667 56.32 34.133333 59.733333 0 128-44.373334 174.08-35.84 35.84-146.773333 131.413333-151.893333 134.826666-73.386667 66.56-172.373333 104.106667-273.066667 104.106667z m-368.64-51.2h368.64c88.746667 0 174.08-32.426667 240.64-92.16 1.706667-1.706667 114.346667-98.986667 148.48-133.12 10.24-10.24 63.146667-66.56 37.546667-110.933333-11.946667-18.773333-23.893333-30.72-37.546667-32.426667-20.48-3.413333-49.493333 11.946667-85.333333 42.666667l-128 124.586666c-6.826667 6.826667-18.773333 8.533333-27.306667 5.12-10.24-3.413333-15.36-13.653333-15.36-23.893333v-105.813333H392.533333c-95.573333 0-184.32 35.84-252.586666 102.4L112.64 699.733333l-1.706667 196.266667z m406.186667-392.533333h-30.72c-13.653333 0-25.6-11.946667-25.6-25.6v-46.08c-170.666667-17.066667-261.12-119.466667-261.12-295.253334V102.4c0-13.653333 11.946667-25.6 25.6-25.6h37.546667c157.013333 17.066667 218.453333 81.92 242.346666 151.893333 23.893333-69.973333 83.626667-133.12 238.933334-151.893333h37.546666c13.653333 0 25.6 11.946667 25.6 25.6v34.133333c0 175.786667-90.453333 278.186667-262.826666 295.253334V477.866667c-1.706667 13.653333-11.946667 25.6-27.306667 25.6z m-266.24-375.466667V136.533333c0 148.48 71.68 228.693333 216.746667 244.053334v-25.6c0-95.573333 1.706667-204.8-208.213334-226.986667h-8.533333z m496.64 0C541.013333 153.6 539.306667 261.12 539.306667 356.693333v25.6c145.066667-15.36 216.746667-95.573333 216.746666-244.053333v-10.24h-8.533333z"  /><path  d="M570.026667 756.053333H377.173333c-13.653333 0-25.6-11.946667-25.6-25.6s11.946667-25.6 25.6-25.6h191.146667c5.12-1.706667 32.426667-13.653333 66.56-66.56 8.533333-11.946667 23.893333-15.36 35.84-6.826666 11.946667 8.533333 15.36 23.893333 6.826667 35.84-51.2 76.8-93.866667 87.04-102.4 88.746666h-5.12z"  /></svg>