<?xml version="1.0" standalone="no"?><!DOCTYPE svg PUBLIC "-//W3C//DTD SVG 1.1//EN" "http://www.w3.org/Graphics/SVG/1.1/DTD/svg11.dtd"><svg class="icon" width="64px" height="64.00px" viewBox="0 0 1024 1024" version="1.1" xmlns="http://www.w3.org/2000/svg"><path  d="M667.989333 322.730667H346.282667a28.501333 28.501333 0 1 1 0-56.832h321.706666a28.501333 28.501333 0 0 1 0 56.832zM667.989333 530.944H346.282667a28.501333 28.501333 0 1 1 0-56.832h321.706666a28.501333 28.501333 0 0 1 0 56.832zM554.496 739.157333h-208.213333a28.501333 28.501333 0 1 1 0-56.832h208.213333a28.501333 28.501333 0 0 1 0 56.832z"  /><path  d="M582.826667 947.2H213.845333a104.96 104.96 0 0 1-104.106666-103.936V180.736a104.96 104.96 0 0 1 104.106666-103.936H800.426667a104.96 104.96 0 0 1 104.106666 103.936v388.096a28.501333 28.501333 0 0 1-56.832 0V180.736a46.762667 46.762667 0 0 0-47.274666-47.274667H213.845333a46.933333 46.933333 0 0 0-47.445333 47.274667v662.528a46.933333 46.933333 0 0 0 47.445333 47.274667h368.981334a28.330667 28.330667 0 1 1 0 56.661333z"  /><path  d="M786.432 894.293333h-58.368a20.650667 20.650667 0 0 1-20.650667-20.650666v-1.877334a20.650667 20.650667 0 0 1 20.650667-20.650666h58.368v-35.84h-58.368a20.650667 20.650667 0 0 1-20.650667-20.650667 20.650667 20.650667 0 0 1 20.650667-20.650667h26.453333l-28.501333-52.224a23.210667 23.210667 0 0 1 20.48-34.133333H750.933333a23.210667 23.210667 0 0 1 20.138667 11.605333l42.154667 73.045334L853.333333 699.733333a23.210667 23.210667 0 0 1 20.309334-11.946666 23.210667 23.210667 0 0 1 20.309333 34.133333l-28.330667 52.224h28.16a20.650667 20.650667 0 0 1 20.650667 20.650667 20.650667 20.650667 0 0 1-20.650667 20.650666h-54.613333v35.84h54.442667a20.650667 20.650667 0 0 1 20.650666 20.650667v1.877333a20.650667 20.650667 0 0 1-20.650666 20.650667h-54.442667v32.085333a26.453333 26.453333 0 0 1-26.453333 26.282667 26.282667 26.282667 0 0 1-26.282667-26.282667z"  /></svg>