<?xml version="1.0" standalone="no"?><!DOCTYPE svg PUBLIC "-//W3C//DTD SVG 1.1//EN" "http://www.w3.org/Graphics/SVG/1.1/DTD/svg11.dtd"><svg class="icon" width="64px" height="64.00px" viewBox="0 0 1024 1024" version="1.1" xmlns="http://www.w3.org/2000/svg"><path  d="M558.762667 253.781333h-221.866667A46.421333 46.421333 0 0 1 290.133333 207.36v-4.949333a46.421333 46.421333 0 0 1 46.421334-46.421334h222.208a46.250667 46.250667 0 0 1 46.421333 46.421334v4.949333a46.592 46.592 0 0 1-46.421333 46.421333z m-221.866667-53.589333a1.877333 1.877333 0 0 0-1.706667 1.706667v4.949333a1.877333 1.877333 0 0 0 1.706667 1.706667h221.866667a2.048 2.048 0 0 0 1.706666-1.706667v-4.949333a1.877333 1.877333 0 0 0-1.706666-1.706667z"  /><path  d="M558.762667 201.216a27.648 27.648 0 0 1-27.989334-27.989333C530.773333 124.586667 485.376 102.4 443.733333 102.4c-38.741333 0-80.042667 18.602667-80.042666 70.485333a27.989333 27.989333 0 1 1-55.978667 0c0-74.410667 55.978667-126.293333 136.533333-126.293333 82.773333 0 143.189333 53.077333 143.189334 126.293333a27.989333 27.989333 0 0 1-28.672 28.330667zM492.544 409.6h-201.386667a23.893333 23.893333 0 0 1-24.064-24.064v-7.850667a23.893333 23.893333 0 0 1 24.064-24.064h201.386667a23.893333 23.893333 0 0 1 24.064 24.064v7.850667A24.405333 24.405333 0 0 1 492.544 409.6zM185.344 380.928a27.989333 27.989333 0 1 0 27.989333-27.989333 28.16 28.16 0 0 0-27.989333 27.989333zM488.618667 606.890667H295.082667a27.989333 27.989333 0 1 1 0-55.978667h193.536a27.648 27.648 0 0 1 27.989333 27.989333 28.16 28.16 0 0 1-27.989333 27.989334zM185.344 578.901333a27.989333 27.989333 0 1 0 27.989333-27.989333 27.989333 27.989333 0 0 0-27.989333 27.989333zM488.618667 804.864H295.082667a27.989333 27.989333 0 1 1 0-55.808h193.536a27.648 27.648 0 0 1 27.989333 27.818667 28.16 28.16 0 0 1-27.989333 27.989333zM185.344 776.874667a27.989333 27.989333 0 1 0 27.989333-27.818667 27.989333 27.989333 0 0 0-27.989333 27.818667zM756.906667 678.912a188.928 188.928 0 1 1 188.928-188.757333 188.928 188.928 0 0 1-188.928 188.757333z m0-326.485333a137.728 137.728 0 1 0 137.728 137.728 137.898667 137.898667 0 0 0-137.728-137.728z"  /><path  d="M740.864 538.794667h-51.712v-28.330667h51.712v-23.381333h-51.712v-27.136h30.890667l-30.890667-56.661334h37.034667l32.085333 55.466667 30.72-55.466667h34.474667l-30.72 56.661334h32.085333v27.136h-49.322667v23.381333h49.322667v28.330667h-49.322667v38.229333h-34.645333v-38.229333z"  /><path  d="M760.661333 892.586667a27.136 27.136 0 0 1-24.576 29.013333H158.72a27.136 27.136 0 0 1-24.576-29.013333v-648.533334a27.136 27.136 0 0 1 24.576-28.842666H256a27.989333 27.989333 0 0 0 0-55.978667H158.72a82.602667 82.602667 0 0 0-80.554667 84.48v648.533333a82.944 82.944 0 0 0 80.554667 85.333334h577.365333a82.944 82.944 0 0 0 80.554667-85.333334V641.877333a187.733333 187.733333 0 0 1-55.978667 29.866667zM816.64 243.712a82.944 82.944 0 0 0-80.554667-84.48h-98.986666a27.989333 27.989333 0 0 0 0 55.978667h98.986666a27.136 27.136 0 0 1 24.576 28.501333v70.997333a187.733333 187.733333 0 0 1 55.978667 30.037334z"  /></svg>