<?xml version="1.0" standalone="no"?><!DOCTYPE svg PUBLIC "-//W3C//DTD SVG 1.1//EN" "http://www.w3.org/Graphics/SVG/1.1/DTD/svg11.dtd"><svg class="icon" width="64px" height="64.00px" viewBox="0 0 1024 1024" version="1.1" xmlns="http://www.w3.org/2000/svg"><path  d="M856.917333 918.357333h-273.066666a25.6 25.6 0 0 1-18.090667-7.509333 25.941333 25.941333 0 0 1-7.509333-18.090667v-68.266666a34.133333 34.133333 0 0 1 34.133333-34.133334h61.781333a119.466667 119.466667 0 0 1-36.010666-87.04c0-74.581333 56.661333-101.034667 104.96-101.034666s100.864 26.453333 100.864 101.034666a113.322667 113.322667 0 0 1-35.157334 84.309334l-2.56 2.730666h62.122667a34.133333 34.133333 0 0 1 34.133333 34.133334v68.266666a25.6 25.6 0 0 1-25.6 25.6z m-247.466666-51.2h221.866666v-25.258666h-68.266666c-32.256 0-32.256-29.696-32.256-49.152A58.197333 58.197333 0 0 1 750.933333 752.981333a62.634667 62.634667 0 0 0 21.504-49.322666c0-12.288 0-49.834667-49.664-49.834667-24.405333 0-53.76 8.704-53.76 49.834667a68.266667 68.266667 0 0 0 23.381334 53.248 52.565333 52.565333 0 0 1 18.432 35.84 102.4 102.4 0 0 1-1.706667 24.405333 31.573333 31.573333 0 0 1-31.573333 24.746667h-68.266667zM856.917333 995.157333h-273.066666a25.6 25.6 0 0 1 0-51.2h273.066666a25.6 25.6 0 1 1 0 51.2z"  /><path  d="M449.877333 995.157333h-271.36a70.826667 70.826667 0 0 1-70.826666-70.826666V110.250667a70.826667 70.826667 0 0 1 70.826666-70.826667h474.965334a25.770667 25.770667 0 0 1 18.944 8.362667l203.605333 226.133333a25.770667 25.770667 0 0 1 6.485333 17.066667V494.933333a25.6 25.6 0 0 1-51.2 0V300.885333L642.048 90.624H178.517333a19.626667 19.626667 0 0 0-19.626666 19.626667v814.08a19.797333 19.797333 0 0 0 19.626666 19.626666h271.36a25.6 25.6 0 0 1 0 51.2z"  /><path  d="M856.917333 316.757333H631.466667a25.6 25.6 0 0 1-25.6-25.6V65.024a25.6 25.6 0 0 1 51.2 0v200.533333h199.850666a25.6 25.6 0 1 1 0 51.2z"  /></svg>