<?xml version="1.0" standalone="no"?><!DOCTYPE svg PUBLIC "-//W3C//DTD SVG 1.1//EN" "http://www.w3.org/Graphics/SVG/1.1/DTD/svg11.dtd"><svg class="icon" width="64px" height="64.00px" viewBox="0 0 1024 1024" version="1.1" xmlns="http://www.w3.org/2000/svg"><path  d="M586.410667 622.421333a25.258667 25.258667 0 0 1-19.626667-9.216l-144.554667-172.202666A25.6 25.6 0 1 1 460.8 408.234667L606.037333 580.266667a25.429333 25.429333 0 0 1-3.242666 36.010666 25.770667 25.770667 0 0 1-16.384 6.144z"  /><path  d="M329.045333 955.733333A290.133333 290.133333 0 0 1 142.336 443.733333L508.928 136.533333a290.133333 290.133333 0 1 1 372.736 443.733334L515.072 887.466667a287.914667 287.914667 0 0 1-186.026667 68.266666z m-153.6-472.917333a238.933333 238.933333 0 1 0 307.2 365.909333l366.421334-307.2a238.933333 238.933333 0 0 0-307.2-365.909333z"  /></svg>