<?xml version="1.0" standalone="no"?><!DOCTYPE svg PUBLIC "-//W3C//DTD SVG 1.1//EN" "http://www.w3.org/Graphics/SVG/1.1/DTD/svg11.dtd"><svg class="icon" width="64px" height="64.00px" viewBox="0 0 1024 1024" version="1.1" xmlns="http://www.w3.org/2000/svg"><path  d="M893.269333 781.312c-14.165333 0-25.6 11.434667-25.6 25.6v115.712l-68.437333-75.434667a43.195733 43.195733 0 0 0-59.733333-4.096l-110.421334 93.013334-111.445333-94.549334c-15.530667-13.141333-38.4-13.653333-54.442667-1.194666l-105.301333 95.232-111.274667-90.965334c-8.192-7.509333-18.773333-11.776-30.037333-11.264-11.605333 0.341333-22.357333 4.949333-30.378667 13.482667l-73.728 77.653333V129.877333A44.424533 44.424533 0 0 1 156.842667 85.333333h666.112c24.576 0 44.544 19.968 44.544 44.544v153.770667c0 14.165333 11.434667 25.6 25.6 25.6s25.6-11.434667 25.6-25.6V129.877333A95.914667 95.914667 0 0 0 822.954667 34.133333H156.842667a95.914667 95.914667 0 0 0-95.744 95.744v815.104c0 17.749333 10.581333 33.450667 27.136 40.106667a42.666667 42.666667 0 0 0 47.274666-10.410667l82.432-86.869333 109.226667 89.258667c7.509333 7.509333 17.408 12.117333 28.16 12.629333 11.605333 0.853333 22.698667-3.413333 31.232-11.093333l103.082667-93.354667 109.738666 93.184c8.192 7.68 18.773333 11.605333 29.525334 11.605333 10.581333 0 21.162667-3.754667 29.354666-11.434666L766.464 887.466667l77.312 85.162666c12.117333 13.312 30.72 17.749333 47.445333 11.264 16.725333-6.485333 27.648-22.186667 27.648-40.277333v-136.533333c0-14.336-11.605333-25.770667-25.6-25.770667z"  /><path  d="M201.386667 580.778667c-14.165333 0-25.6 11.434667-25.6 25.6s11.434667 25.6 25.6 25.6h135.338666c14.165333 0 25.6-11.434667 25.6-25.6s-11.434667-25.6-25.6-25.6H201.386667zM408.746667 411.306667c0-14.165333-11.434667-25.6-25.6-25.6H201.386667c-14.165333 0-25.6 11.434667-25.6 25.6s11.434667 25.6 25.6 25.6h181.76c14.165333 0 25.6-11.434667 25.6-25.6zM497.834667 216.234667c0-14.165333-11.434667-25.6-25.6-25.6H201.386667c-14.165333 0-25.6 11.434667-25.6 25.6s11.434667 25.6 25.6 25.6h270.848c14.165333 0 25.6-11.434667 25.6-25.6zM732.501333 321.365333c-126.976 0-230.4 103.424-230.4 230.4s103.424 230.4 230.4 230.4 230.4-103.424 230.4-230.4-103.424-230.4-230.4-230.4z m0 409.6c-98.816 0-179.2-80.384-179.2-179.2s80.384-179.2 179.2-179.2 179.2 80.384 179.2 179.2-80.384 179.2-179.2 179.2z"  /><path  d="M812.032 441.514667a25.429333 25.429333 0 0 0-36.181333 0l-43.349334 43.349333-43.349333-43.349333a25.429333 25.429333 0 0 0-36.181333 0 25.429333 25.429333 0 0 0 0 36.181333l27.989333 27.989333h-9.898667c-14.165333 0-25.6 11.434667-25.6 25.6s11.434667 25.6 25.6 25.6h35.84v10.24h-35.84c-14.165333 0-25.6 11.434667-25.6 25.6s11.434667 25.6 25.6 25.6h35.84v35.84c0 14.165333 11.434667 25.6 25.6 25.6s25.6-11.434667 25.6-25.6v-35.84h35.84c14.165333 0 25.6-11.434667 25.6-25.6s-11.434667-25.6-25.6-25.6h-35.84v-10.24h35.84c14.165333 0 25.6-11.434667 25.6-25.6s-11.434667-25.6-25.6-25.6h-9.898666l27.989333-27.989333c9.898667-9.898667 9.898667-26.112 0-36.181333z"  /></svg>