<?xml version="1.0" standalone="no"?><!DOCTYPE svg PUBLIC "-//W3C//DTD SVG 1.1//EN" "http://www.w3.org/Graphics/SVG/1.1/DTD/svg11.dtd"><svg class="icon" width="64px" height="64.00px" viewBox="0 0 1024 1024" version="1.1" xmlns="http://www.w3.org/2000/svg"><path  d="M915.968 989.866667H108.032A73.216 73.216 0 0 1 34.133333 915.968V417.450667A26.282667 26.282667 0 0 1 59.904 392.533333h904.533333A26.282667 26.282667 0 0 1 989.866667 417.450667v500.224A72.874667 72.874667 0 0 1 915.968 989.866667zM85.333333 443.733333v474.453334a22.698667 22.698667 0 0 0 22.357334 22.357333h808.277333A22.698667 22.698667 0 0 0 938.666667 917.674667V443.733333z"  /><path  d="M964.096 443.733333h-904.533333A26.282667 26.282667 0 0 1 34.133333 417.450667v-238.933334a73.216 73.216 0 0 1 73.898667-73.898666h807.936A73.216 73.216 0 0 1 989.866667 178.517333v237.226667A26.624 26.624 0 0 1 964.096 443.733333zM85.333333 392.533333h853.333334V178.517333a22.698667 22.698667 0 0 0-22.357334-22.357333H108.032A22.698667 22.698667 0 0 0 85.333333 178.517333z"  /><path  d="M321.194667 276.48a26.453333 26.453333 0 0 1-25.770667-25.770667V59.904a25.770667 25.770667 0 1 1 51.2 0v190.805333a25.258667 25.258667 0 0 1-25.429333 25.770667zM702.805333 276.48a26.624 26.624 0 0 1-25.770666-25.770667V59.904a25.770667 25.770667 0 0 1 51.2 0v190.805333a26.453333 26.453333 0 0 1-25.429334 25.770667zM454.826667 804.864H401.066667a34.133333 34.133333 0 0 1-34.133334-34.133333V716.8a39.424 39.424 0 0 1 9.728-24.917333L546.133333 522.410667a33.109333 33.109333 0 0 1 48.128 0L648.533333 576.170667a32.768 32.768 0 0 1 9.728 24.746666 39.424 39.424 0 0 1-9.728 24.917334L477.866667 795.306667a36.010667 36.010667 0 0 1-23.381334 9.557333z m-46.933334-41.301333h44.202667L614.4 600.917333l-44.202667-44.032-162.304 162.645334v44.032zM668.672 882.005333H355.328a25.770667 25.770667 0 0 1 0-51.2h313.344a26.282667 26.282667 0 0 1 25.770667 25.770667 25.258667 25.258667 0 0 1-25.770667 25.429333z"  /></svg>