<?xml version="1.0" standalone="no"?><!DOCTYPE svg PUBLIC "-//W3C//DTD SVG 1.1//EN" "http://www.w3.org/Graphics/SVG/1.1/DTD/svg11.dtd"><svg class="icon" width="64px" height="64.00px" viewBox="0 0 1024 1024" version="1.1" xmlns="http://www.w3.org/2000/svg"><path  d="M208.213333 404.48c-6.826667 0-13.653333-1.706667-18.773333-6.826667L98.986667 307.2c-17.066667-17.066667-27.306667-40.96-27.306667-66.56s10.24-47.786667 27.306667-66.56l110.933333-110.933333c35.84-35.84 95.573333-35.84 133.12 0L433.493333 153.6c10.24 10.24 10.24 25.6 0 35.84s-25.6 10.24-35.84 0L307.2 97.28c-15.36-15.36-44.373333-15.36-59.733333 0L136.533333 208.213333c-8.533333 8.533333-11.946667 18.773333-11.946666 30.72s5.12 22.186667 11.946666 30.72l90.453334 90.453334c10.24 10.24 10.24 25.6 0 35.84-6.826667 5.12-13.653333 8.533333-18.773334 8.533333zM771.413333 988.16c-25.6 0-47.786667-10.24-66.56-27.306667L614.4 870.4c-10.24-10.24-10.24-25.6 0-35.84s25.6-10.24 35.84 0l90.453333 90.453333c15.36 15.36 44.373333 15.36 59.733334 0l110.933333-110.933333c17.066667-17.066667 17.066667-44.373333 0-59.733333l-90.453333-90.453334c-10.24-10.24-10.24-25.6 0-35.84s25.6-10.24 35.84 0l90.453333 90.453334c35.84 35.84 35.84 95.573333 0 133.12L836.266667 962.56c-15.36 17.066667-39.253333 25.6-64.853334 25.6zM252.586667 989.866667c-23.893333 0-47.786667-8.533333-64.853334-27.306667l-112.64-112.64c-35.84-35.84-35.84-95.573333 0-131.413333L706.56 85.333333c35.84-35.84 95.573333-35.84 131.413333 0l112.64 112.64c35.84 35.84 35.84 95.573333 0 131.413334L317.44 962.56c-18.773333 18.773333-42.666667 27.306667-64.853333 27.306667zM771.413333 109.226667c-10.24 0-22.186667 5.12-29.013333 11.946666L109.226667 754.346667c-15.36 15.36-15.36 42.666667 0 58.026666l112.64 112.64c15.36 15.36 42.666667 15.36 58.026666 0l633.173334-633.173333c15.36-15.36 15.36-42.666667 0-58.026667L802.133333 121.173333c-8.533333-8.533333-18.773333-11.946667-30.72-11.946666z"  /><path  d="M512 523.946667m-49.493333 0a49.493333 49.493333 0 1 0 98.986666 0 49.493333 49.493333 0 1 0-98.986666 0Z"  /><path  d="M414.72 621.226667m-49.493333 0a49.493333 49.493333 0 1 0 98.986666 0 49.493333 49.493333 0 1 0-98.986666 0Z"  /><path  d="M609.28 424.96m-49.493333 0a49.493333 49.493333 0 1 0 98.986666 0 49.493333 49.493333 0 1 0-98.986666 0Z"  /></svg>