<?xml version="1.0" standalone="no"?><!DOCTYPE svg PUBLIC "-//W3C//DTD SVG 1.1//EN" "http://www.w3.org/Graphics/SVG/1.1/DTD/svg11.dtd"><svg class="icon" width="64px" height="64.00px" viewBox="0 0 1024 1024" version="1.1" xmlns="http://www.w3.org/2000/svg"><path  d="M599.04 800.426667l-10.24-3.413334a23.893333 23.893333 0 0 1-15.36-22.186666v-150.186667h-90.453333a25.6 25.6 0 0 1 0-51.2h116.053333a25.6 25.6 0 0 1 25.6 25.6v112.64l131.413333-129.706667a27.306667 27.306667 0 0 1 18.773334-8.533333h116.053333a32.426667 32.426667 0 0 0 22.186667-8.533333 34.133333 34.133333 0 0 0 10.24-23.893334V133.12a27.306667 27.306667 0 0 0-10.24-22.186667 27.306667 27.306667 0 0 0-22.186667-10.24H424.96a34.133333 34.133333 0 0 0-23.893333 10.24 32.426667 32.426667 0 0 0-8.533334 22.186667 25.6 25.6 0 0 1-25.6 25.6A23.893333 23.893333 0 0 1 341.333333 133.12a81.92 81.92 0 0 1 23.893334-58.026667 80.213333 80.213333 0 0 1 59.733333-25.6h465.92a76.8 76.8 0 0 1 58.026667 25.6 76.8 76.8 0 0 1 25.6 58.026667v407.893333a80.213333 80.213333 0 0 1-25.6 59.733334 81.92 81.92 0 0 1-58.026667 23.893333H785.066667l-167.253334 167.253333a27.306667 27.306667 0 0 1-18.773333 8.533334zM220.16 450.56a134.826667 134.826667 0 0 1-98.986667-42.666667 138.24 138.24 0 0 1 0-199.68 138.24 138.24 0 0 1 199.68 0 138.24 138.24 0 0 1 0 199.68 136.533333 136.533333 0 0 1-100.693333 42.666667z m0-233.813333a88.746667 88.746667 0 0 0-63.146667 27.306666 90.453333 90.453333 0 0 0-27.306666 64.853334 88.746667 88.746667 0 0 0 27.306666 63.146666 88.746667 88.746667 0 0 0 63.146667 27.306667 90.453333 90.453333 0 0 0 64.853333-27.306667 88.746667 88.746667 0 0 0 27.306667-63.146666 93.866667 93.866667 0 0 0-92.16-92.16zM279.893333 974.506667H162.133333A27.306667 27.306667 0 0 1 136.533333 952.32L110.933333 740.693333H75.093333a25.6 25.6 0 0 1-25.6-25.6v-87.04a175.786667 175.786667 0 0 1 49.493334-121.173333 172.373333 172.373333 0 0 1 121.173333-49.493333 172.373333 172.373333 0 0 1 172.373333 170.666666v87.04a25.6 25.6 0 0 1-25.6 25.6h-35.84l-27.306666 211.626667a25.6 25.6 0 0 1-23.893334 22.186667z m-93.866666-51.2H256l27.306667-209.92a25.6 25.6 0 0 1 25.6-23.893334H341.333333v-61.44a117.76 117.76 0 0 0-35.84-83.626666 114.346667 114.346667 0 0 0-85.333333-35.84A114.346667 114.346667 0 0 0 136.533333 544.426667a121.173333 121.173333 0 0 0-35.84 83.626666v61.44h32.426667a25.6 25.6 0 0 1 25.6 23.893334z"  /><path  d="M512 450.56a27.306667 27.306667 0 0 1-18.773333-8.533333 29.013333 29.013333 0 0 1 0-35.84l69.973333-68.266667-69.973333-69.973333a29.013333 29.013333 0 0 1 0-35.84 27.306667 27.306667 0 0 1 37.546666 0l87.04 87.04a25.6 25.6 0 0 1 6.826667 18.773333 22.186667 22.186667 0 0 1-6.826667 17.066667l-87.04 87.04a27.306667 27.306667 0 0 1-18.773333 8.533333zM832.853333 363.52h-117.76a25.6 25.6 0 0 1-25.6-25.6 25.6 25.6 0 0 1 25.6-25.6h117.76a25.6 25.6 0 0 1 25.6 25.6 25.6 25.6 0 0 1-25.6 25.6z"  /></svg>