<?xml version="1.0" standalone="no"?><!DOCTYPE svg PUBLIC "-//W3C//DTD SVG 1.1//EN" "http://www.w3.org/Graphics/SVG/1.1/DTD/svg11.dtd"><svg class="icon" width="64px" height="64.00px" viewBox="0 0 1024 1024" version="1.1" xmlns="http://www.w3.org/2000/svg"><path  d="M507.733333 973.312c-14.165333 0-25.6-11.434667-25.6-25.6s11.434667-25.6 25.6-25.6c21.504 0 43.008-2.218667 64-6.485333 20.309333-4.096 40.448-10.410667 59.562667-18.432 18.773333-8.021333 36.864-17.749333 53.930667-29.184a319.965867 319.965867 0 0 0 85.674666-85.674667c11.434667-16.896 21.333333-34.986667 29.184-53.930667a319.2832 319.2832 0 0 0 24.917334-123.562666c0-14.165333 11.434667-25.6 25.6-25.6s25.6 11.434667 25.6 25.6c0 24.917333-2.56 50.005333-7.509334 74.24-4.778667 23.722667-12.117333 46.933333-21.504 69.12-9.216 21.845333-20.650667 43.008-33.962666 62.634666-13.141333 19.456-28.330667 37.888-44.885334 54.442667-16.554667 16.554667-34.986667 31.744-54.442666 44.885333-19.797333 13.312-40.789333 24.746667-62.634667 33.962667-22.186667 9.386667-45.568 16.554667-69.12 21.504-24.576 5.12-49.493333 7.68-74.410667 7.68zM165.034667 457.898667c-14.165333 0-25.6-11.434667-25.6-25.6 0-25.088 2.56-50.005333 7.509333-74.24 4.778667-23.722667 12.117333-46.933333 21.504-69.12 9.216-21.845333 20.650667-42.837333 33.962667-62.634667a369.442133 369.442133 0 0 1 161.962666-133.290667c22.186667-9.386667 45.568-16.554667 69.12-21.504 24.234667-4.949333 49.152-7.509333 74.24-7.509333 14.165333 0 25.6 11.434667 25.6 25.6s-11.434667 25.6-25.6 25.6c-21.504 0-43.008 2.218667-64 6.485333a316.928 316.928 0 0 0-113.322666 47.616c-16.725333 11.434667-32.597333 24.405333-46.933334 38.741334-14.336 14.336-27.306667 30.208-38.741333 46.933333a312.763733 312.763733 0 0 0-47.616 113.322667c-4.266667 20.821333-6.485333 42.325333-6.485333 64 0 14.165333-11.434667 25.6-25.6 25.6z"  /><path  d="M169.642667 580.608c-10.752 0-21.333333-4.096-29.525334-12.117333l-90.282666-90.282667c-11.946667-11.946667-15.530667-29.866667-9.045334-45.568s21.674667-25.770667 38.570667-25.770667h180.736c16.896 0 32.085333 10.069333 38.570667 25.770667s2.901333 33.450667-9.045334 45.568l-90.282666 90.282667c-8.192 8.021333-18.944 12.117333-29.696 12.117333z m-67.413334-122.709333l67.584 67.584 67.584-67.584H102.229333zM940.714667 630.613333H760.149333c-16.896 0-32.085333-10.069333-38.570666-25.770666s-2.901333-33.450667 9.045333-45.568l90.282667-90.282667c16.213333-16.213333 42.837333-16.213333 59.050666 0l90.282667 90.282667c11.946667 11.946667 15.530667 29.866667 9.045333 45.568s-21.504 25.770667-38.570666 25.770666z m-157.866667-51.2h134.997333l-67.584-67.584-67.413333 67.584zM314.88 674.986667c9.386667 0 17.066667 7.68 17.066667 17.066666V904.533333c0 9.386667-7.68 17.066667-17.066667 17.066667H102.4c-9.386667 0-17.066667-7.68-17.066667-17.066667V692.053333c0-9.386667 7.68-17.066667 17.066667-17.066666h212.48m0-51.2H102.4c-37.717333 0-68.266667 30.549333-68.266667 68.266666V904.533333c0 37.717333 30.549333 68.266667 68.266667 68.266667h212.48c37.717333 0 68.266667-30.549333 68.266667-68.266667V692.053333c0-37.717333-30.549333-68.266667-68.266667-68.266666zM921.6 102.4c9.386667 0 17.066667 7.68 17.066667 17.066667v212.48c0 9.386667-7.68 17.066667-17.066667 17.066666H709.12c-9.386667 0-17.066667-7.68-17.066667-17.066666V119.466667c0-9.386667 7.68-17.066667 17.066667-17.066667H921.6m0-51.2H709.12c-37.717333 0-68.266667 30.549333-68.266667 68.266667v212.48c0 37.717333 30.549333 68.266667 68.266667 68.266666H921.6c37.717333 0 68.266667-30.549333 68.266667-68.266666V119.466667c0-37.717333-30.549333-68.266667-68.266667-68.266667z"  /></svg>