<?xml version="1.0" standalone="no"?><!DOCTYPE svg PUBLIC "-//W3C//DTD SVG 1.1//EN" "http://www.w3.org/Graphics/SVG/1.1/DTD/svg11.dtd"><svg class="icon" width="64px" height="64.00px" viewBox="0 0 1024 1024" version="1.1" xmlns="http://www.w3.org/2000/svg"><path  d="M807.253333 989.866667H682.666667c-13.653333 0-25.6-11.946667-25.6-25.6S669.013333 938.666667 682.666667 938.666667h124.586666c22.186667 0 40.96-18.773333 40.96-40.96V715.093333c0-13.653333 11.946667-25.6 25.6-25.6s25.6 11.946667 25.6 25.6v180.906667c0 52.906667-40.96 93.866667-92.16 93.866667zM331.093333 989.866667h-114.346666c-51.2 0-92.16-40.96-92.16-92.16V126.293333c0-51.2 40.96-92.16 92.16-92.16h588.8c51.2 0 92.16 40.96 92.16 92.16v204.8c0 13.653333-11.946667 25.6-25.6 25.6s-25.6-11.946667-25.6-25.6v-204.8c0-22.186667-18.773333-40.96-40.96-40.96H216.746667c-22.186667 0-40.96 18.773333-40.96 40.96v769.706667c0 22.186667 18.773333 40.96 40.96 40.96h114.346666c13.653333 0 25.6 11.946667 25.6 25.6s-11.946667 27.306667-25.6 27.306667z"  /><path  d="M648.533333 356.693333H331.093333c-13.653333 0-25.6-11.946667-25.6-25.6s11.946667-25.6 25.6-25.6H648.533333c13.653333 0 25.6 11.946667 25.6 25.6s-11.946667 25.6-25.6 25.6zM489.813333 989.866667c-5.12 0-11.946667-1.706667-15.36-5.12-10.24-8.533333-11.946667-25.6-3.413333-35.84L853.333333 472.746667c8.533333-10.24 25.6-11.946667 35.84-3.413334 10.24 8.533333 11.946667 25.6 3.413334 35.84L508.586667 979.626667c-5.12 6.826667-11.946667 10.24-18.773334 10.24zM512 537.6H331.093333c-13.653333 0-25.6-11.946667-25.6-25.6s11.946667-25.6 25.6-25.6H512c13.653333 0 25.6 11.946667 25.6 25.6s-11.946667 25.6-25.6 25.6z"  /></svg>