<?xml version="1.0" standalone="no"?><!DOCTYPE svg PUBLIC "-//W3C//DTD SVG 1.1//EN" "http://www.w3.org/Graphics/SVG/1.1/DTD/svg11.dtd"><svg class="icon" width="64px" height="64.00px" viewBox="0 0 1024 1024" version="1.1" xmlns="http://www.w3.org/2000/svg"><path  d="M209.92 974.506667a23.893333 23.893333 0 0 1-18.773333-10.24l-78.506667-97.28A209.92 209.92 0 0 1 68.266667 742.4V541.013333a83.626667 83.626667 0 0 1 25.6-59.733333 81.92 81.92 0 0 1 58.026666-23.893333 85.333333 85.333333 0 0 1 59.733334 23.893333 88.746667 88.746667 0 0 1 23.893333 59.733333v150.186667a25.6 25.6 0 0 1-25.6 25.6 25.6 25.6 0 0 1-25.6-25.6v-150.186667a32.426667 32.426667 0 0 0-8.533333-22.186666 30.72 30.72 0 0 0-46.08 0 27.306667 27.306667 0 0 0-10.24 22.186666v201.386667a143.36 143.36 0 0 0 34.133333 92.16l76.8 98.986667a27.306667 27.306667 0 0 1-3.413333 35.84 29.013333 29.013333 0 0 1-17.066667 5.12z"  /><path  d="M385.706667 974.506667a25.6 25.6 0 0 1-25.6-25.6v-122.88a145.066667 145.066667 0 0 0-25.6-81.92L290.133333 677.546667c-1.706667-5.12-5.12-6.826667-8.533333-10.24l-10.24-3.413334h-11.946667l-10.24 5.12a23.893333 23.893333 0 0 0-11.946666 17.066667 23.893333 23.893333 0 0 0 1.706666 18.773333l51.2 87.04a25.6 25.6 0 1 1-42.666666 25.6l-52.906667-87.04c-1.706667 0-1.706667 0-1.706667-1.706666a80.213333 80.213333 0 0 1-5.12-56.32 73.386667 73.386667 0 0 1 32.426667-46.08 87.04 87.04 0 0 1 29.013333-11.946667 102.4 102.4 0 0 1 32.426667 0 98.986667 98.986667 0 0 1 30.72 13.653333 69.973333 69.973333 0 0 1 20.48 23.893334l44.373333 64.853333a192.853333 192.853333 0 0 1 34.133334 109.226667v122.88a25.6 25.6 0 0 1-25.6 25.6zM851.626667 974.506667a29.013333 29.013333 0 0 1-17.066667-5.12 27.306667 27.306667 0 0 1-3.413333-35.84l76.8-98.986667a143.36 143.36 0 0 0 34.133333-92.16V541.013333a27.306667 27.306667 0 0 0-10.24-22.186666 30.72 30.72 0 0 0-46.08 0 32.426667 32.426667 0 0 0-8.533333 22.186666v150.186667a25.6 25.6 0 0 1-25.6 25.6 25.6 25.6 0 0 1-25.6-25.6v-150.186667a88.746667 88.746667 0 0 1 23.893333-59.733333 85.333333 85.333333 0 0 1 59.733333-23.893333 81.92 81.92 0 0 1 83.626667 83.626666v201.386667a197.973333 197.973333 0 0 1-44.373333 124.586667l-76.8 97.28a27.306667 27.306667 0 0 1-20.48 10.24z"  /><path  d="M675.84 974.506667a25.6 25.6 0 0 1-25.6-25.6v-122.88a201.386667 201.386667 0 0 1 34.133333-110.933334l44.373334-66.56a68.266667 68.266667 0 0 1 22.186666-22.186666 90.453333 90.453333 0 0 1 29.013334-13.653334 104.106667 104.106667 0 0 1 32.426666 0 114.346667 114.346667 0 0 1 30.72 11.946667 88.746667 88.746667 0 0 1 32.426667 46.08 80.213333 80.213333 0 0 1-6.826667 56.32l-54.613333 87.04a23.893333 23.893333 0 0 1-34.133333 8.533333 25.6 25.6 0 0 1-8.533334-34.133333l52.906667-87.04a34.133333 34.133333 0 0 0 1.706667-18.773333 30.72 30.72 0 0 0-11.946667-17.066667l-11.946667-5.12h-11.946666l-10.24 3.413333-8.533334 8.533334-44.373333 68.266666a145.066667 145.066667 0 0 0-25.6 81.92v122.88a25.6 25.6 0 0 1-25.6 29.013334zM353.28 385.706667a27.306667 27.306667 0 0 1-15.36-5.12L194.56 273.066667a29.013333 29.013333 0 0 1-10.24-20.48 34.133333 34.133333 0 0 1 10.24-20.48l143.36-105.813334a25.6 25.6 0 0 1 30.72 40.96l-116.053333 85.333334 116.053333 87.04a25.6 25.6 0 0 1 5.12 35.84 27.306667 27.306667 0 0 1-20.48 10.24zM708.266667 385.706667a25.6 25.6 0 0 1-15.36-46.08l116.053333-87.04-116.053333-85.333334a27.306667 27.306667 0 0 1-5.12-35.84 25.6 25.6 0 0 1 35.84-5.12l143.36 105.813334a27.306667 27.306667 0 0 1 10.24 20.48 23.893333 23.893333 0 0 1-10.24 20.48l-143.36 107.52a23.893333 23.893333 0 0 1-15.36 5.12zM494.933333 457.386667h-5.12a25.6 25.6 0 0 1-20.48-30.72l71.68-356.693334a25.6 25.6 0 1 1 51.2 10.24l-71.68 356.693334a27.306667 27.306667 0 0 1-25.6 20.48z"  /></svg>