<?xml version="1.0" standalone="no"?><!DOCTYPE svg PUBLIC "-//W3C//DTD SVG 1.1//EN" "http://www.w3.org/Graphics/SVG/1.1/DTD/svg11.dtd"><svg class="icon" width="64px" height="64.00px" viewBox="0 0 1024 1024" version="1.1" xmlns="http://www.w3.org/2000/svg"><path  d="M969.386667 989.866667H54.613333c-13.653333 0-25.6-11.946667-25.6-25.6S40.96 938.666667 54.613333 938.666667h914.773334c13.653333 0 25.6 11.946667 25.6 25.6s-11.946667 25.6-25.6 25.6zM331.093333 786.773333h-150.186666c-27.306667 0-51.2-22.186667-51.2-51.2v-148.48c0-13.653333 5.12-25.6 15.36-35.84L646.826667 49.493333c8.533333-10.24 22.186667-15.36 35.84-15.36s25.6 5.12 35.84 15.36l150.186666 150.186667c10.24 10.24 15.36 22.186667 15.36 35.84s-5.12 25.6-15.36 35.84L366.933333 771.413333c-8.533333 10.24-22.186667 15.36-35.84 15.36z m-150.186666-199.68v148.48h150.186666l500.053334-500.053333L682.666667 85.333333 180.906667 587.093333z"  /></svg>