<?xml version="1.0" standalone="no"?><!DOCTYPE svg PUBLIC "-//W3C//DTD SVG 1.1//EN" "http://www.w3.org/Graphics/SVG/1.1/DTD/svg11.dtd"><svg class="icon" width="64px" height="64.00px" viewBox="0 0 1024 1024" version="1.1" xmlns="http://www.w3.org/2000/svg"><path d="M490.496 867.498667a31.573333 31.573333 0 0 1-31.573333 31.402666h-324.266667a31.744 31.744 0 0 1-32.426667-30.890666V614.4a31.914667 31.914667 0 0 1 32.256-31.061333A31.573333 31.573333 0 0 1 165.888 614.4v222.72l292.693333-1.877333a31.573333 31.573333 0 0 1 31.914667 31.744zM901.802667 325.461333a76.117333 76.117333 0 0 1-62.122667 105.642667 79.701333 79.701333 0 0 1-91.136-75.264 25.6 25.6 0 0 0-51.2 0 80.213333 80.213333 0 0 1-160.256 0 25.6 25.6 0 0 0-51.2 0 80.213333 80.213333 0 0 1-160.256 0 25.6 25.6 0 0 0-51.2 0 80.213333 80.213333 0 0 1-102.4 72.874667 79.530667 79.530667 0 0 1-51.2-42.496 80.896 80.896 0 0 1 3.242667-68.266667c19.626667-47.616 38.912-95.573333 58.368-143.36l-24.576 18.773333H865.28l-24.576-18.773333 31.573333 77.824 19.797334 48.64a94.037333 94.037333 0 0 0 13.824 28.842667 25.6 25.6 0 0 0 36.181333-36.181334c10.581333 10.752 7.338667 13.994667 3.925333 4.778667-2.048-5.632-4.608-11.093333-6.826666-17.066667l-19.968-48.810666-29.184-70.997334a26.965333 26.965333 0 0 0-24.746667-18.773333H157.696a26.624 26.624 0 0 0-24.746667 18.773333c-19.285333 47.445333-37.717333 95.232-57.856 142.336a130.048 130.048 0 1 0 250.538667 51.2h-51.2a131.413333 131.413333 0 0 0 262.656 0h-51.2a131.413333 131.413333 0 0 0 262.656 0h-51.2A131.754667 131.754667 0 0 0 853.333333 480.597333a127.658667 127.658667 0 0 0 92.842667-181.077333c-13.653333-29.866667-57.856-3.925333-44.373333 25.941333zM135.509333 103.253333a23.722667 23.722667 0 0 1 22.528-24.064h706.901334a24.064 24.064 0 0 1 0 47.957334H158.037333a23.552 23.552 0 0 1-22.528-23.893334z" fill="#333333" /><path d="M729.6 484.522667A230.4 230.4 0 1 0 955.733333 671.573333a233.813333 233.813333 0 0 0-226.304-187.733333c-32.938667 0-32.938667 51.2 0 51.2A179.2 179.2 0 1 1 553.301333 682.666667a181.077333 181.077333 0 0 1 176.298667-146.773334c32.938667-0.682667 33.109333-51.882667 0-51.370666z" fill="#2C2C2C" /><path d="M795.818667 691.2l-115.712 115.541333-59.562667 17.066667 17.066667-59.562667L753.834667 648.533333a4.266667 4.266667 0 0 1 6.314666 0l35.157334 35.328a4.437333 4.437333 0 0 1 0.512 7.338667z" fill="#2C2C2C" /><path d="M770.588727 631.590766m3.499707-3.499707l21.118923-21.118922q3.499707-3.499707 6.999414 0l34.997072 34.997071q3.499707 3.499707 0 6.999415l-21.118923 21.118922q-3.499707 3.499707-6.999414 0l-34.997072-34.997071q-3.499707-3.499707 0-6.999415Z" fill="#2C2C2C" /></svg>