<?xml version="1.0" standalone="no"?><!DOCTYPE svg PUBLIC "-//W3C//DTD SVG 1.1//EN" "http://www.w3.org/Graphics/SVG/1.1/DTD/svg11.dtd"><svg class="icon" width="64px" height="64.00px" viewBox="0 0 1024 1024" version="1.1" xmlns="http://www.w3.org/2000/svg"><path  d="M626.346667 974.506667H394.24a29.013333 29.013333 0 0 1-20.48-8.533334 25.6 25.6 0 0 1-5.12-22.186666l29.013333-174.08a25.6 25.6 0 0 1 25.6-20.48H597.333333a23.893333 23.893333 0 0 1 25.6 20.48l29.013334 174.08a25.6 25.6 0 0 1-5.12 22.186666 29.013333 29.013333 0 0 1-20.48 8.533334z m-203.093334-51.2H597.333333l-22.186666-122.88h-129.706667z"  /><path  d="M713.386667 974.506667H307.2a25.6 25.6 0 1 1 0-51.2h406.186667a25.6 25.6 0 0 1 0 51.2zM831.146667 800.426667H189.44c-47.786667 0-141.653333-30.72-141.653333-143.36V191.146667c0-47.786667 30.72-141.653333 141.653333-141.653334h641.706667c47.786667 0 141.653333 30.72 141.653333 141.653334v465.92c0 49.493333-30.72 143.36-141.653333 143.36z m0-699.733334H189.44c-87.04 0-90.453333 81.92-90.453333 90.453334v465.92a87.04 87.04 0 0 0 90.453333 92.16h641.706667c87.04 0 90.453333-81.92 90.453333-92.16V191.146667c0-87.04-81.92-90.453333-90.453333-90.453334z"  /><path  d="M315.733333 585.386667a139.946667 139.946667 0 0 1-100.693333-40.96 148.48 148.48 0 0 1-40.96-100.693334v-58.026666a148.48 148.48 0 0 1 40.96-100.693334 139.946667 139.946667 0 0 1 100.693333-40.96 25.6 25.6 0 0 1 0 51.2 87.04 87.04 0 0 0-63.146666 25.6 93.866667 93.866667 0 0 0-27.306667 64.853334V443.733333a93.866667 93.866667 0 0 0 27.306667 64.853334 87.04 87.04 0 0 0 63.146666 25.6 25.6 25.6 0 0 1 25.6 25.6 23.893333 23.893333 0 0 1-25.6 25.6zM723.626667 585.386667H665.6a25.6 25.6 0 0 1-25.6-25.6 25.6 25.6 0 0 1 25.6-25.6h58.026667a40.96 40.96 0 0 0 23.893333-8.533334 40.96 40.96 0 0 0 8.533333-23.893333c0-29.013333-17.066667-44.373333-47.786666-66.56s-68.266667-51.2-68.266667-107.52a88.746667 88.746667 0 0 1 23.893333-59.733333 88.746667 88.746667 0 0 1 59.733334-23.893334h58.026666a25.6 25.6 0 0 1 0 51.2h-58.026666a32.426667 32.426667 0 0 0-22.186667 8.533334 34.133333 34.133333 0 0 0-10.24 23.893333c0 29.013333 18.773333 44.373333 47.786667 66.56s68.266667 51.2 68.266666 107.52a81.92 81.92 0 0 1-83.626666 83.626667zM491.52 585.386667h-58.026667a23.893333 23.893333 0 0 1-25.6-25.6 25.6 25.6 0 0 1 25.6-25.6h58.026667a32.426667 32.426667 0 0 0 22.186667-8.533334 34.133333 34.133333 0 0 0 10.24-23.893333c0-29.013333-18.773333-44.373333-47.786667-66.56s-68.266667-51.2-68.266667-107.52a88.746667 88.746667 0 0 1 23.893334-59.733333 85.333333 85.333333 0 0 1 59.733333-23.893334h58.026667a25.6 25.6 0 0 1 0 51.2h-58.026667a40.96 40.96 0 0 0-23.893333 8.533334 40.96 40.96 0 0 0-8.533334 23.893333c0 29.013333 17.066667 44.373333 47.786667 66.56s68.266667 51.2 68.266667 107.52a80.213333 80.213333 0 0 1-25.6 59.733333 81.92 81.92 0 0 1-58.026667 23.893334z"  /></svg>