<?xml version="1.0" standalone="no"?><!DOCTYPE svg PUBLIC "-//W3C//DTD SVG 1.1//EN" "http://www.w3.org/Graphics/SVG/1.1/DTD/svg11.dtd"><svg class="icon" width="64px" height="64.00px" viewBox="0 0 1024 1024" version="1.1" xmlns="http://www.w3.org/2000/svg"><path  d="M783.36 989.866667H194.56c-51.2 0-92.16-40.96-92.16-92.16V126.293333C102.4 75.093333 143.36 34.133333 194.56 34.133333h430.08c13.653333 0 25.6 11.946667 25.6 25.6S640 85.333333 624.64 85.333333H194.56C172.373333 85.333333 153.6 104.106667 153.6 126.293333v769.706667c0 22.186667 18.773333 40.96 40.96 40.96h588.8c22.186667 0 40.96-18.773333 40.96-40.96V421.546667c0-13.653333 11.946667-25.6 25.6-25.6s25.6 11.946667 25.6 25.6v476.16c1.706667 51.2-40.96 92.16-92.16 92.16z"  /><path  d="M443.733333 402.773333H262.826667c-13.653333 0-25.6-11.946667-25.6-25.6s11.946667-25.6 25.6-25.6H443.733333c13.653333 0 25.6 11.946667 25.6 25.6s-10.24 25.6-25.6 25.6zM534.186667 628.053333H262.826667c-13.653333 0-25.6-11.946667-25.6-25.6s11.946667-25.6 25.6-25.6h271.36c13.653333 0 25.6 11.946667 25.6 25.6s-10.24 25.6-25.6 25.6zM624.64 401.066667c-6.826667 0-13.653333-1.706667-18.773333-6.826667-10.24-10.24-10.24-25.6 0-35.84l273.066666-271.36c10.24-10.24 25.6-10.24 35.84 0s10.24 25.6 0 35.84L643.413333 394.24c-5.12 5.12-11.946667 6.826667-18.773333 6.826667z"  /></svg>