<?xml version="1.0" standalone="no"?><!DOCTYPE svg PUBLIC "-//W3C//DTD SVG 1.1//EN" "http://www.w3.org/Graphics/SVG/1.1/DTD/svg11.dtd"><svg class="icon" width="64px" height="64.00px" viewBox="0 0 1024 1024" version="1.1" xmlns="http://www.w3.org/2000/svg"><path  d="M619.178667 971.605333H111.957333a72.192 72.192 0 0 1-72.021333-72.021333v-477.866667a27.648 27.648 0 0 1 26.965333-27.477333h863.402667a27.648 27.648 0 0 1 26.965333 26.965333V563.2a26.965333 26.965333 0 0 1-53.930666 0v-115.029333H94.037333V897.706667a17.92 17.92 0 0 0 17.066667 18.090666h508.074667a27.648 27.648 0 0 1 26.965333 26.965334 29.525333 29.525333 0 0 1-26.965333 28.842666z"  /><path  d="M930.304 448.170667H66.901333a27.648 27.648 0 0 1-26.965333-26.965334V192.682667a72.192 72.192 0 0 1 72.021333-71.850667h773.290667a72.192 72.192 0 0 1 72.021333 71.850667v228.522666a26.453333 26.453333 0 0 1-26.965333 26.965334z m-836.266667-53.930667h809.301334V192.682667a18.090667 18.090667 0 0 0-18.090667-17.066667H111.957333a18.090667 18.090667 0 0 0-17.066666 17.066667z"  /><path  d="M316.928 288.085333A27.648 27.648 0 0 1 290.133333 261.12V79.530667a26.965333 26.965333 0 1 1 53.930667 0V261.12a26.453333 26.453333 0 0 1-27.136 26.965333zM680.277333 288.085333a27.648 27.648 0 0 1-26.965333-26.965333V79.530667a26.965333 26.965333 0 1 1 53.930667 0V261.12a25.429333 25.429333 0 0 1-26.965334 26.965333zM781.482667 960.853333h-53.76a34.133333 34.133333 0 0 1-34.133334-34.133333v-53.930667a40.277333 40.277333 0 0 1 9.557334-24.917333l169.642666-169.472a33.109333 33.109333 0 0 1 48.128 0l53.76 53.76a34.133333 34.133333 0 0 1 9.728 24.746667 40.277333 40.277333 0 0 1-9.728 24.917333l-169.472 169.472a36.010667 36.010667 0 0 1-23.381333 9.557333zM733.866667 919.552h44.032l162.645333-162.645333-44.032-44.032L733.866667 875.52v44.032z"  /></svg>