<?xml version="1.0" standalone="no"?><!DOCTYPE svg PUBLIC "-//W3C//DTD SVG 1.1//EN" "http://www.w3.org/Graphics/SVG/1.1/DTD/svg11.dtd"><svg class="icon" width="64px" height="64.00px" viewBox="0 0 1024 1024" version="1.1" xmlns="http://www.w3.org/2000/svg"><path  d="M447.317333 611.498667a30.208 30.208 0 0 1-12.117333-24.576 30.549333 30.549333 0 1 1 60.928 0 29.866667 29.866667 0 0 1-12.288 24.576l41.130667 146.090666a29.525333 29.525333 0 0 1-7.509334 29.184l-41.130666 41.642667a14.506667 14.506667 0 0 1-20.650667 0l-41.813333-41.642667a29.525333 29.525333 0 0 1-7.509334-29.184l40.96-146.090666z"  /><path  d="M648.533333 900.949333H170.666667a75.605333 75.605333 0 0 1-58.538667-19.626666c-34.133333-34.133333-17.92-101.034667-5.973333-142.848a346.282667 346.282667 0 0 1 232.448-233.130667 25.770667 25.770667 0 0 0 11.264-42.666667 196.266667 196.266667 0 0 1-72.362667-174.762666 192.512 192.512 0 0 1 93.184-140.458667 190.122667 190.122667 0 0 1 276.48 115.712A195.413333 195.413333 0 0 1 580.266667 462.677333a25.6 25.6 0 0 0 11.264 42.666667 366.250667 366.250667 0 0 1 109.397333 54.954667c26.624 19.285333 52.224-25.088 25.770667-44.202667a404.138667 404.138667 0 0 0-121.514667-60.074667l11.264 42.837334a242.005333 242.005333 0 0 0-31.573333-395.605334 242.005333 242.005333 0 0 0-352.426667 149.162667 244.906667 244.906667 0 0 0 81.237333 246.442667l10.581334-42.837334A396.970667 396.970667 0 0 0 79.189333 665.6C38.741333 752.298667 2.730667 921.6 134.997333 949.077333a250.197333 250.197333 0 0 0 51.2 2.56H648.533333a25.6 25.6 0 0 0 0-51.2z"  /><path  d="M608.938667 752.469333a186.709333 186.709333 0 1 0 150.528-183.125333 189.269333 189.269333 0 0 0-150.528 183.125333 19.456 19.456 0 0 0 38.912 0 147.626667 147.626667 0 1 1 121.856 145.749334 149.333333 149.333333 0 0 1-121.173334-145.749334 19.456 19.456 0 0 0-39.594666 0z"  /><path  d="M882.517333 686.250667a31.061333 31.061333 0 0 1 1.194667 4.266666 26.112 26.112 0 0 1 0 5.12 15.189333 15.189333 0 0 1-1.024 5.290667 14.506667 14.506667 0 0 1-3.242667 4.949333l-4.266666 4.266667-3.413334 3.242667-2.901333 2.901333-37.888-37.888c1.706667-1.365333 3.584-3.242667 5.802667-5.290667l5.461333-4.949333a20.650667 20.650667 0 0 1 5.973333-3.242667 17.066667 17.066667 0 0 1 5.973334 0 21.504 21.504 0 0 1 5.632 0 25.429333 25.429333 0 0 1 4.778666 1.877334 37.888 37.888 0 0 1 9.386667 7.68 48.981333 48.981333 0 0 1 8.533333 11.776zM724.992 785.066667l5.632-5.802667 11.093333-11.264 14.848-14.677333 17.066667-17.066667 43.52-43.52 37.888 38.058667-44.373333 44.032-17.066667 17.066666-14.506667 14.506667-10.752 10.752-4.949333 4.949333a38.912 38.912 0 0 1-4.778667 3.754667 20.138667 20.138667 0 0 1-5.461333 3.242667 70.314667 70.314667 0 0 1-8.192 3.584L733.866667 836.266667l-11.434667 3.242666-7.850667 1.877334c-3.754667 0-6.144 0-7.338666-1.706667a9.386667 9.386667 0 0 1-1.024-7.338667 64.170667 64.170667 0 0 1 1.877333-8.192c1.024-3.584 2.218667-7.338667 3.242667-11.264s2.218667-7.338667 3.413333-10.581333a38.912 38.912 0 0 1 2.56-6.656 28.16 28.16 0 0 1 7.168-10.24z"  /></svg>