<?xml version="1.0" standalone="no"?><!DOCTYPE svg PUBLIC "-//W3C//DTD SVG 1.1//EN" "http://www.w3.org/Graphics/SVG/1.1/DTD/svg11.dtd"><svg class="icon" width="64px" height="64.00px" viewBox="0 0 1024 1024" version="1.1" xmlns="http://www.w3.org/2000/svg"><path  d="M897.706667 877.226667H126.293333C75.093333 877.226667 34.133333 836.266667 34.133333 785.066667V240.64c0-51.2 40.96-92.16 92.16-92.16h769.706667c51.2 0 92.16 40.96 92.16 92.16V785.066667c1.706667 49.493333-39.253333 92.16-90.453333 92.16zM126.293333 197.973333C104.106667 197.973333 85.333333 216.746667 85.333333 238.933333v544.426667c0 22.186667 18.773333 40.96 40.96 40.96h769.706667c22.186667 0 40.96-18.773333 40.96-40.96V240.64c0-22.186667-18.773333-40.96-40.96-40.96H126.293333z"  /><path  d="M331.093333 877.226667c-13.653333 0-25.6-11.946667-25.6-25.6V172.373333c0-13.653333 11.946667-25.6 25.6-25.6s25.6 11.946667 25.6 25.6v679.253334c0 13.653333-11.946667 25.6-25.6 25.6zM489.813333 696.32c-6.826667 0-13.653333-1.706667-18.773333-6.826667-10.24-10.24-10.24-25.6 0-35.84l315.733333-315.733333c10.24-10.24 25.6-10.24 35.84 0s10.24 25.6 0 35.84L506.88 687.786667c-5.12 5.12-10.24 8.533333-17.066667 8.533333zM534.186667 424.96c-6.826667 0-13.653333-1.706667-18.773334-6.826667l-46.08-46.08c-10.24-10.24-10.24-25.6 0-35.84s25.6-10.24 35.84 0l46.08 46.08c10.24 10.24 10.24 25.6 0 35.84-3.413333 3.413333-10.24 6.826667-17.066666 6.826667zM805.546667 696.32c-6.826667 0-13.653333-1.706667-18.773334-6.826667l-44.373333-44.373333c-10.24-10.24-10.24-25.6 0-35.84s25.6-10.24 35.84 0l44.373333 44.373333c10.24 10.24 10.24 25.6 0 35.84-3.413333 3.413333-10.24 6.826667-17.066666 6.826667z"  /></svg>