<?xml version="1.0" standalone="no"?><!DOCTYPE svg PUBLIC "-//W3C//DTD SVG 1.1//EN" "http://www.w3.org/Graphics/SVG/1.1/DTD/svg11.dtd"><svg class="icon" width="64px" height="64.00px" viewBox="0 0 1024 1024" version="1.1" xmlns="http://www.w3.org/2000/svg"><path  d="M447.146667 989.866667H197.973333c-51.2 0-92.16-40.96-92.16-92.16V126.293333c0-51.2 40.96-92.16 92.16-92.16h452.266667c6.826667 0 13.653333 3.413333 18.773333 8.533334l203.093334 226.986666c3.413333 5.12 6.826667 10.24 6.826666 17.066667v203.093333c0 13.653333-11.946667 25.6-25.6 25.6s-25.6-11.946667-25.6-25.6V295.253333L640 85.333333H197.973333c-22.186667 0-40.96 18.773333-40.96 40.96v769.706667c0 22.186667 18.773333 40.96 40.96 40.96h249.173334c13.653333 0 25.6 11.946667 25.6 25.6s-10.24 27.306667-25.6 27.306667z"  /><path  d="M667.306667 989.866667h-66.56c-23.893333 0-42.666667-18.773333-42.666667-42.666667v-66.56c0-11.946667 5.12-22.186667 11.946667-30.72l209.92-209.92c17.066667-17.066667 42.666667-17.066667 59.733333 0l66.56 66.56c8.533333 8.533333 11.946667 18.773333 11.946667 30.72s-5.12 22.186667-11.946667 30.72L696.32 977.92c-6.826667 6.826667-18.773333 11.946667-29.013333 11.946667z m-58.026667-51.2h54.613333l201.386667-201.386667-54.613333-54.613333-201.386667 201.386666V938.666667zM855.04 312.32H662.186667c-32.426667 0-59.733333-27.306667-59.733334-59.733333V59.733333c0-13.653333 11.946667-25.6 25.6-25.6s25.6 11.946667 25.6 25.6v192.853334c0 5.12 3.413333 8.533333 8.533334 8.533333h192.853333c13.653333 0 25.6 11.946667 25.6 25.6s-11.946667 25.6-25.6 25.6z"  /></svg>