<?xml version="1.0" standalone="no"?><!DOCTYPE svg PUBLIC "-//W3C//DTD SVG 1.1//EN" "http://www.w3.org/Graphics/SVG/1.1/DTD/svg11.dtd"><svg class="icon" width="64px" height="64.00px" viewBox="0 0 1024 1024" version="1.1" xmlns="http://www.w3.org/2000/svg"><path  d="M951.637333 825.344H666.794667c-14.165333 0-25.6-11.434667-25.6-25.6s11.434667-25.6 25.6-25.6h259.242666v-501.76H666.794667c-14.165333 0-25.6-11.434667-25.6-25.6s11.434667-25.6 25.6-25.6h284.842666c14.165333 0 25.6 11.434667 25.6 25.6v552.96c0 14.165333-11.434667 25.6-25.6 25.6z"  /><path  d="M649.557333 389.461333c-11.093333 0-22.016-4.266667-30.037333-12.458666l-100.010667-100.010667c-16.554667-16.554667-16.554667-43.690667 0-60.416l100.010667-100.010667a42.325333 42.325333 0 0 1 46.421333-9.216c16.042667 6.656 26.282667 22.016 26.282667 39.424v200.192c0 17.237333-10.410667 32.768-26.282667 39.424-5.290667 2.048-10.752 3.072-16.384 3.072z m-87.893333-142.677333l79.530667 79.530667V167.253333l-79.530667 79.530667zM649.557333 942.421333c-11.093333 0-22.016-4.266667-30.037333-12.458666l-100.010667-100.010667c-16.554667-16.554667-16.554667-43.690667 0-60.416l100.010667-100.010667a42.325333 42.325333 0 0 1 46.421333-9.216c16.042667 6.656 26.282667 22.016 26.282667 39.424v200.192c0 17.237333-10.410667 32.768-26.282667 39.424-5.290667 2.048-10.752 3.072-16.384 3.072z m-87.893333-142.677333l79.530667 79.530667V720.213333l-79.530667 79.530667zM320.170667 413.525333H140.629333a94.037333 94.037333 0 0 1-93.866666-93.866666V128c0-51.712 42.154667-93.866667 93.866666-93.866667h179.541334c51.712 0 93.866667 42.154667 93.866666 93.866667v191.658667c0 51.882667-42.154667 93.866667-93.866666 93.866666zM140.629333 85.333333a42.666667 42.666667 0 0 0-42.666666 42.666667v191.658667a42.666667 42.666667 0 0 0 42.666666 42.666666h179.541334a42.666667 42.666667 0 0 0 42.666666-42.666666V128a42.666667 42.666667 0 0 0-42.666666-42.666667H140.629333zM320.170667 989.354667H140.629333a94.037333 94.037333 0 0 1-93.866666-93.866667V703.829333c0-51.712 42.154667-93.866667 93.866666-93.866666h179.541334c51.712 0 93.866667 42.154667 93.866666 93.866666v191.658667c0 51.882667-42.154667 93.866667-93.866666 93.866667zM140.629333 661.162667a42.666667 42.666667 0 0 0-42.666666 42.666666v191.658667a42.666667 42.666667 0 0 0 42.666666 42.666667h179.541334a42.666667 42.666667 0 0 0 42.666666-42.666667V703.829333a42.666667 42.666667 0 0 0-42.666666-42.666666H140.629333z"  /></svg>