<?xml version="1.0" standalone="no"?><!DOCTYPE svg PUBLIC "-//W3C//DTD SVG 1.1//EN" "http://www.w3.org/Graphics/SVG/1.1/DTD/svg11.dtd"><svg class="icon" width="64px" height="64.00px" viewBox="0 0 1024 1024" version="1.1" xmlns="http://www.w3.org/2000/svg"><path  d="M897.706667 989.866667H126.293333c-51.2 0-92.16-40.96-92.16-92.16V126.293333C34.133333 75.093333 75.093333 34.133333 126.293333 34.133333H460.8c13.653333 0 25.6 11.946667 25.6 25.6S476.16 85.333333 462.506667 85.333333H126.293333C104.106667 85.333333 85.333333 104.106667 85.333333 126.293333v769.706667C85.333333 919.893333 104.106667 938.666667 126.293333 938.666667h769.706667c22.186667 0 40.96-18.773333 40.96-40.96V561.493333c0-13.653333 11.946667-25.6 25.6-25.6s25.6 11.946667 25.6 25.6v334.506667c1.706667 52.906667-39.253333 93.866667-90.453333 93.866667z"  /><path  d="M436.906667 788.48h-160.426667c-23.893333 0-42.666667-18.773333-42.666667-42.666667v-158.72c0-11.946667 5.12-22.186667 11.946667-30.72L750.933333 52.906667c15.36-15.36 44.373333-15.36 59.733334 0l160.426666 160.426666c17.066667 17.066667 17.066667 42.666667 0 59.733334L467.626667 776.533333c-8.533333 8.533333-18.773333 11.946667-30.72 11.946667z m-150.186667-51.2h148.48l494.933333-494.933333-146.773333-146.773334-494.933333 494.933334v146.773333z m-3.413333-143.36z"  /></svg>