<?xml version="1.0" standalone="no"?><!DOCTYPE svg PUBLIC "-//W3C//DTD SVG 1.1//EN" "http://www.w3.org/Graphics/SVG/1.1/DTD/svg11.dtd"><svg class="icon" width="64px" height="64.00px" viewBox="0 0 1024 1024" version="1.1" xmlns="http://www.w3.org/2000/svg"><path  d="M747.690667 37.205333c-186.368 0-373.248-4.266667-559.616 0A102.4 102.4 0 0 0 85.333333 142.848V768c0 43.178667 1.536 85.333333 40.618667 114.005333 32.085333 23.893333 70.826667 19.797333 108.373333 19.797334h497.322667a164.522667 164.522667 0 0 0 39.936-2.901334A102.4 102.4 0 0 0 847.701333 802.133333V198.826667a375.466667 375.466667 0 0 0-2.901333-85.333334 102.4 102.4 0 0 0-97.109333-76.288c-32.938667-1.194667-32.768 50.005333 0 51.2 48.128 1.877333 48.810667 44.373333 48.810666 79.872v632.32a49.834667 49.834667 0 0 1-51.2 48.810667c-89.941333 3.413333-180.565333 0-270.506666 0H189.952C153.6 849.749333 136.533333 822.784 136.533333 788.821333V176.298667c0-30.549333-5.632-68.266667 29.013334-83.797334 22.869333-9.898667 58.197333-4.096 82.090666-4.096h500.053334a25.6 25.6 0 0 0 0-51.2z"  /><path  d="M276.138667 988.16c168.448 0 336.896 1.024 505.344 0a156.330667 156.330667 0 0 0 150.016-107.349333 281.088 281.088 0 0 0 7.168-87.04V224.085333a25.6 25.6 0 0 0-51.2 0v608.085334a103.936 103.936 0 0 1-102.4 104.789333c-79.701333 1.536-159.402667 0-238.933334 0H276.138667a25.6 25.6 0 0 0 0 51.2zM441.514667 585.045333H244.394667a25.6 25.6 0 0 1 0-51.2h197.12a25.6 25.6 0 1 1 0 51.2z"  /><path  d="M540.16 761.514667H244.394667a25.6 25.6 0 0 1 0-51.2h295.765333a25.6 25.6 0 0 1 0 51.2zM676.864 291.669333a20.650667 20.650667 0 1 0 0-41.301333h-32.938667l47.445334-47.274667a20.48 20.48 0 1 0-28.842667-28.842666l-68.266667 68.266666-68.266666-68.266666a20.48 20.48 0 1 0-28.842667 28.842666L546.133333 250.368h-34.133333a20.650667 20.650667 0 0 0 0 41.301333h61.610667v36.864H512a20.650667 20.650667 0 0 0 0 41.301334h61.610667v65.706666a20.650667 20.650667 0 1 0 41.301333 0v-65.706666h61.610667a20.650667 20.650667 0 1 0 0-41.301334h-61.269334v-36.864z m0 0"  /></svg>