<?xml version="1.0" standalone="no"?><!DOCTYPE svg PUBLIC "-//W3C//DTD SVG 1.1//EN" "http://www.w3.org/Graphics/SVG/1.1/DTD/svg11.dtd"><svg class="icon" width="64px" height="64.00px" viewBox="0 0 1024 1024" version="1.1" xmlns="http://www.w3.org/2000/svg"><path  d="M781.141333 887.381333c14.165333 0 25.6 11.451733 25.6 25.6512 0 14.165333-11.434667 25.634133-25.429333 25.634134H242.688a25.6 25.6 0 0 1-25.6-25.634134 25.6 25.6 0 0 1 25.6-25.6512h538.453333zM896 85.333333c51.712 0 93.866667 42.222933 93.866667 94.020267v536.576c0 51.797333-42.154667 94.020267-93.866667 94.020267h-768A94.1056 94.1056 0 0 1 34.133333 715.9296V179.370667C34.133333 127.556267 76.288 85.333333 128 85.333333h768z m0 51.285334h-768c-23.552 0-42.666667 19.114667-42.666667 42.734933v536.576a42.7008 42.7008 0 0 0 42.666667 42.734933h768c23.552 0 42.666667-19.131733 42.666667-42.734933V179.370667a42.7008 42.7008 0 0 0-42.666667-42.734934zM704.768 232.106667c13.533867 0 25.378133 11.946667 25.378133 25.6v358.656c12.066133 1.774933 21.981867 12.834133 21.981867 25.344 0 13.653333-10.1376 25.6-25.361067 25.6H278.4768c-13.533867 0-25.378133-11.946667-25.378133-25.6 0-12.4928 9.9328-23.552 21.981866-25.344V482.986667c0-13.653333 11.861333-25.6 25.3952-25.6l109.943467-0.017067V370.346667c0-13.653333 11.844267-25.6 25.378133-25.6l109.943467-0.017067 0.017067-87.022933c0-13.653333 11.844267-25.6 25.378133-25.6h133.632zM410.4192 508.5696l-82.875733 0.017067v107.52l82.875733-0.017067v-107.52z m135.338667-112.622933h-84.5824v220.16h84.5824V395.946667z m133.632-112.64h-82.875734v332.8h82.875734V283.306667z"  /></svg>