<?xml version="1.0" standalone="no"?><!DOCTYPE svg PUBLIC "-//W3C//DTD SVG 1.1//EN" "http://www.w3.org/Graphics/SVG/1.1/DTD/svg11.dtd"><svg class="icon" width="64px" height="64.00px" viewBox="0 0 1024 1024" version="1.1" xmlns="http://www.w3.org/2000/svg"><path  d="M917.674667 34.133333c39.5264 0 70.485333 32.6656 70.485333 70.485334v173.277866a24.337067 24.337067 0 0 1 0 17.851734v621.909333C989.866667 957.218133 957.184 989.866667 919.381333 989.866667H104.618667C65.058133 989.866667 34.133333 957.201067 34.133333 919.381333V104.618667C34.133333 65.058133 66.798933 34.133333 104.618667 34.133333h813.056zM273.066667 312.593067H85.691733V917.674667c0 10.308267 8.6016 18.909867 18.909867 18.909866L273.066667 936.567467V312.593067z m663.5008 446.856533H324.266667v177.117867h593.408c10.308267 0 18.909867-8.584533 18.909866-18.8928l-0.017066-158.225067z m0-221.866667H324.266667v170.666667h612.3008v-170.666667z m0-224.989866H324.266667v173.789866h612.3008V312.593067zM917.674667 85.7088H104.618667c-10.325333 0-18.909867 8.584533-18.909867 18.8928l-0.017067 156.416h850.875734V104.6016c0-10.308267-8.584533-18.8928-18.8928-18.8928z"  /></svg>