<?xml version="1.0" standalone="no"?><!DOCTYPE svg PUBLIC "-//W3C//DTD SVG 1.1//EN" "http://www.w3.org/Graphics/SVG/1.1/DTD/svg11.dtd"><svg class="icon" width="64px" height="64.00px" viewBox="0 0 1024 1024" version="1.1" xmlns="http://www.w3.org/2000/svg"><path  d="M783.701333 470.698667h-51.712V435.2c0-9.216-0.682667-18.261333-1.706666-27.136h53.418666c71.338667 0 129.365333-58.538667 129.365334-130.56 0-15.701333-10.922667-26.794667-26.453334-26.794667-10.752 0-22.357333 10.24-22.357333 26.794667 0 44.714667-36.181333 81.237333-80.554667 81.237333h-64.853333C688.469333 273.237333 608.426667 213.333333 512 213.333333c-96.426667 0-176.469333 59.733333-206.677333 145.237334h-64.853334c-44.373333 0-80.554667-36.352-80.554666-81.237334 0-16.554667-11.605333-26.794667-22.357334-26.794666-15.701333 0-26.624 10.922667-26.624 26.794666 0 74.410667 55.637333 130.56 129.365334 130.56h53.418666c-1.024 8.874667-1.706667 17.92-1.706666 27.136v35.498667h-51.712c-73.728 0-129.365333 56.149333-129.365334 130.56 0 15.701333 10.922667 26.794667 26.624 26.794667 10.752 0 22.357333-10.24 22.357334-26.794667 0-44.714667 36.181333-81.237333 80.554666-81.237333h51.712v91.989333c-0.170667 0-0.341333 0.170667-0.512 0.170667l-78.165333 33.28c-30.208 13.141333-55.978667 39.082667-68.949333 69.632-13.141333 30.890667-13.312 65.365333 0 100.864 4.096 8.192 9.557333 15.701333 21.845333 15.701333 5.802667 0 8.704-1.706667 9.728-5.973333 5.802667-2.901333 10.069333-7.509333 12.458667-13.141334 2.56-6.144 2.389333-12.970667-0.170667-18.090666a86.186667 86.186667 0 0 1 0-61.952 75.776 75.776 0 0 1 41.984-42.325334l61.781333-24.917333v2.730667c0 37.717333 9.386667 73.216 25.941334 104.277333l-40.106667 40.448c-20.650667 16.725333-31.061333 41.984-31.061333 75.264 0 25.770667 12.288 52.224 34.645333 74.752 5.802667 5.973333 11.946667 5.973333 16.554667 5.973333 8.192 0 14.336 0 19.968-5.290666 4.437333-2.56 7.509333-6.997333 8.362666-12.458667 1.194667-7.509333-1.706667-15.530667-7.68-21.504-11.946667-12.117333-18.773333-27.136-18.944-42.666667-3.413333-17.578667 2.730667-28.16 15.018667-40.448l30.378667-34.133333c40.448 47.445333 100.181333 77.653333 166.741333 77.653333 68.949333 0 129.536-30.549333 169.642667-79.189333l31.914666 35.84c9.728 9.898667 14.677333 23.722667 14.677334 41.472 0 13.994667-6.656 28.842667-18.261334 40.789333-4.437333 2.56-7.338667 6.997333-8.192 12.458667-1.194667 7.509333 1.706667 15.530667 7.68 21.674667l1.706667 1.706666h2.389333c0.682667 0 2.389333 0.853333 3.584 1.365334 2.389333 1.194667 5.290667 2.730667 8.874667 2.730666 4.437333 0 10.752 0 16.042667-5.461333 22.698667-18.261333 35.157333-45.056 35.157333-74.24 3.925333-23.381333-4.778667-48.810667-26.453333-75.776l-40.618667-40.96c-0.512-1.024-1.536-1.536-2.218667-2.389333 14.848-29.525333 23.381333-62.976 23.893334-98.816l57.856 23.381333a76.288 76.288 0 0 1 41.984 42.325333c7.68 19.456 7.68 42.496 0.170666 61.44-2.048 4.266667-2.218667 9.386667-0.512 14.677334 2.56 7.509333 8.704 14.848 15.530667 18.261333l10.922667 0.682667c10.752 0 16.213333-5.632 20.650666-10.069334l1.365334-2.048c12.970667-34.816 12.970667-69.290667-0.170667-100.010666-12.970667-30.549333-38.741333-56.490667-69.12-69.632l-78.506667-31.744v-97.792h51.712c44.373333 0 80.554667 36.352 80.554667 81.237333 0 16.554667 11.605333 26.794667 22.357333 26.794667 15.701333 0 26.453333-10.922667 26.453334-26.794667 0-74.752-55.637333-130.901333-129.365334-130.901333z m-442.197333-45.568c5.461333-88.917333 81.237333-162.304 170.496-162.304 87.722667 0 164.864 74.752 170.496 162.304H341.504z m-0.512 53.418666h144.554667v359.253334c-80.554667-13.312-144.554667-85.674667-144.554667-170.154667V478.549333z m197.461333 0h144.554667v189.098667c0 84.48-63.829333 156.842667-144.554667 170.154667V478.549333zM272.042667 192c-35.328 0-64-28.672-64-64s28.672-64 64-64 64 28.672 64 64-28.672 64-64 64z m0-76.8c-6.997333 0-12.8 5.802667-12.8 12.8s5.802667 12.8 12.8 12.8 12.8-5.802667 12.8-12.8-5.802667-12.8-12.8-12.8z"  /><path  d="M349.696 243.541333c-6.485333 0-13.141333-2.56-18.090667-7.509333l-45.568-45.568c-10.069333-9.898667-10.069333-26.282667 0-36.181333s26.282667-10.069333 36.181334 0l45.568 45.568c10.069333 9.898667 10.069333 26.282667 0 36.181333-4.949333 4.949333-11.605333 7.509333-18.090667 7.509333zM751.957333 192c-35.328 0-64-28.672-64-64s28.672-64 64-64 64 28.672 64 64-28.672 64-64 64z m0-76.8c-6.997333 0-12.8 5.802667-12.8 12.8s5.802667 12.8 12.8 12.8 12.8-5.802667 12.8-12.8-5.802667-12.8-12.8-12.8z"  /><path  d="M674.304 243.541333c-6.485333 0-13.141333-2.56-18.090667-7.509333a25.429333 25.429333 0 0 1 0-36.181333l45.568-45.568c10.069333-10.069333 26.282667-10.069333 36.181334 0s10.069333 26.282667 0 36.181333l-45.568 45.568c-4.949333 4.949333-11.434667 7.509333-18.090667 7.509333z"  /></svg>