<?xml version="1.0" standalone="no"?><!DOCTYPE svg PUBLIC "-//W3C//DTD SVG 1.1//EN" "http://www.w3.org/Graphics/SVG/1.1/DTD/svg11.dtd"><svg class="icon" width="64px" height="64.00px" viewBox="0 0 1024 1024" version="1.1" xmlns="http://www.w3.org/2000/svg"><path  d="M897.706667 989.866667H126.293333c-51.2 0-92.16-40.96-92.16-92.16V126.293333C34.133333 75.093333 75.093333 34.133333 126.293333 34.133333h769.706667c51.2 0 92.16 40.96 92.16 92.16v769.706667c1.706667 52.906667-39.253333 93.866667-90.453333 93.866667zM126.293333 85.333333C104.106667 85.333333 85.333333 104.106667 85.333333 126.293333v769.706667C85.333333 919.893333 104.106667 938.666667 126.293333 938.666667h769.706667c22.186667 0 40.96-18.773333 40.96-40.96V126.293333c1.706667-22.186667-17.066667-40.96-39.253333-40.96H126.293333z"  /><path  d="M407.893333 708.266667c-10.24 0-20.48-3.413333-29.013333-8.533334-18.773333-10.24-29.013333-29.013333-29.013333-51.2V373.76c0-22.186667 10.24-40.96 29.013333-51.2 18.773333-10.24 40.96-10.24 59.733333 0l238.933334 138.24c18.773333 10.24 29.013333 29.013333 29.013333 51.2s-10.24 40.96-29.013333 51.2l-238.933334 138.24c-10.24 5.12-20.48 6.826667-30.72 6.826667z m0-341.333334c-1.706667 0-3.413333 0-3.413333 1.706667-1.706667 0-3.413333 3.413333-3.413333 6.826667v276.48c0 3.413333 1.706667 6.826667 3.413333 6.826666s5.12 1.706667 8.533333 0l238.933334-138.24c3.413333-1.706667 3.413333-5.12 3.413333-6.826666s0-5.12-3.413333-6.826667l-238.933334-138.24c-3.413333-1.706667-5.12-1.706667-5.12-1.706667z"  /></svg>