<?xml version="1.0" standalone="no"?><!DOCTYPE svg PUBLIC "-//W3C//DTD SVG 1.1//EN" "http://www.w3.org/Graphics/SVG/1.1/DTD/svg11.dtd"><svg class="icon" width="64px" height="64.00px" viewBox="0 0 1024 1024" version="1.1" xmlns="http://www.w3.org/2000/svg"><path  d="M512 989.866667C249.173333 989.866667 34.133333 774.826667 34.133333 512S249.173333 34.133333 512 34.133333s477.866667 215.04 477.866667 477.866667-215.04 477.866667-477.866667 477.866667z m0-904.533334C276.48 85.333333 85.333333 276.48 85.333333 512s191.146667 426.666667 426.666667 426.666667 426.666667-191.146667 426.666667-426.666667S747.52 85.333333 512 85.333333z"  /><path  d="M426.666667 708.266667c-10.24 0-20.48-3.413333-29.013334-8.533334-18.773333-10.24-29.013333-29.013333-29.013333-51.2V373.76c0-22.186667 10.24-40.96 29.013333-51.2 18.773333-10.24 40.96-10.24 59.733334 0l238.933333 138.24c18.773333 10.24 29.013333 29.013333 29.013333 51.2s-10.24 40.96-29.013333 51.2l-238.933333 138.24c-10.24 5.12-20.48 6.826667-30.72 6.826667z m0-341.333334c-1.706667 0-3.413333 0-3.413334 1.706667-1.706667 0-3.413333 3.413333-3.413333 6.826667v276.48c0 3.413333 1.706667 6.826667 3.413333 6.826666s5.12 1.706667 8.533334 0l238.933333-138.24c3.413333-1.706667 3.413333-5.12 3.413333-6.826666s0-5.12-3.413333-6.826667l-238.933333-138.24c-3.413333-1.706667-5.12-1.706667-5.12-1.706667z"  /></svg>