<?xml version="1.0" standalone="no"?><!DOCTYPE svg PUBLIC "-//W3C//DTD SVG 1.1//EN" "http://www.w3.org/Graphics/SVG/1.1/DTD/svg11.dtd"><svg class="icon" width="64px" height="64.00px" viewBox="0 0 1024 1024" version="1.1" xmlns="http://www.w3.org/2000/svg"><path  d="M918.186667 366.933333H107.52c-25.6 0-47.786667-22.186667-47.786667-49.493333V109.226667c0-27.306667 20.48-49.493333 47.786667-49.493334h810.666667c25.6 0 47.786667 22.186667 47.786666 49.493334v209.92c-1.706667 25.6-22.186667 47.786667-47.786666 47.786666z m-807.253334-51.2h802.133334v-204.8h-802.133334v204.8zM918.186667 964.266667H107.52c-25.6 0-47.786667-22.186667-47.786667-49.493334V706.56c0-27.306667 20.48-49.493333 47.786667-49.493333h810.666667c25.6 0 47.786667 22.186667 47.786666 49.493333v209.92c-1.706667 25.6-22.186667 47.786667-47.786666 47.786667z m-807.253334-51.2h802.133334v-204.8h-802.133334v204.8z"  /><path  d="M725.333333 708.266667c-13.653333 0-25.6-11.946667-25.6-25.6v-145.066667H298.666667c-13.653333 0-25.6-11.946667-25.6-25.6V341.333333c0-13.653333 11.946667-25.6 25.6-25.6s25.6 11.946667 25.6 25.6v145.066667h401.066666c13.653333 0 25.6 11.946667 25.6 25.6v170.666667c0 13.653333-11.946667 25.6-25.6 25.6zM640 836.266667h-256c-13.653333 0-25.6-11.946667-25.6-25.6s11.946667-25.6 25.6-25.6h256c13.653333 0 25.6 11.946667 25.6 25.6s-11.946667 25.6-25.6 25.6zM640 238.933333h-256c-13.653333 0-25.6-11.946667-25.6-25.6s11.946667-25.6 25.6-25.6h256c13.653333 0 25.6 11.946667 25.6 25.6s-11.946667 25.6-25.6 25.6z"  /></svg>