<?xml version="1.0" standalone="no"?><!DOCTYPE svg PUBLIC "-//W3C//DTD SVG 1.1//EN" "http://www.w3.org/Graphics/SVG/1.1/DTD/svg11.dtd"><svg class="icon" width="64px" height="64.00px" viewBox="0 0 1024 1024" version="1.1" xmlns="http://www.w3.org/2000/svg"><path  d="M619.52 452.266667c-49.493333 0-90.453333-40.96-90.453333-90.453334V150.186667c0-49.493333 40.96-90.453333 90.453333-90.453334s90.453333 40.96 90.453333 90.453334v213.333333c-1.706667 47.786667-40.96 88.746667-90.453333 88.746667z m0-341.333334c-20.48 0-39.253333 17.066667-39.253333 39.253334v213.333333c0 20.48 17.066667 39.253333 39.253333 39.253333s39.253333-17.066667 39.253333-39.253333V150.186667c-1.706667-22.186667-18.773333-39.253333-39.253333-39.253334zM875.52 452.266667h-64.853333c-13.653333 0-25.6-11.946667-25.6-25.6v-64.853334c0-49.493333 40.96-90.453333 90.453333-90.453333s90.453333 40.96 90.453333 90.453333-40.96 90.453333-90.453333 90.453334z m-39.253333-51.2h39.253333c20.48 0 39.253333-17.066667 39.253333-39.253334s-17.066667-39.253333-39.253333-39.253333S836.266667 341.333333 836.266667 363.52v37.546667zM406.186667 964.266667c-49.493333 0-90.453333-40.96-90.453334-90.453334V662.186667c0-49.493333 40.96-90.453333 90.453334-90.453334s90.453333 40.96 90.453333 90.453334v213.333333c-1.706667 47.786667-40.96 88.746667-90.453333 88.746667z m0-341.333334c-20.48 0-39.253333 17.066667-39.253334 39.253334v213.333333c0 20.48 17.066667 39.253333 39.253334 39.253333s39.253333-17.066667 39.253333-39.253333V662.186667c-1.706667-22.186667-18.773333-39.253333-39.253333-39.253334zM150.186667 750.933333c-49.493333 0-90.453333-40.96-90.453334-90.453333s40.96-90.453333 90.453334-90.453333h64.853333c13.653333 0 25.6 11.946667 25.6 25.6v64.853333C238.933333 709.973333 199.68 750.933333 150.186667 750.933333z m0-128c-20.48 0-39.253333 17.066667-39.253334 39.253334s17.066667 39.253333 39.253334 39.253333 39.253333-17.066667 39.253333-39.253333v-39.253334H150.186667zM875.52 708.266667H662.186667c-49.493333 0-90.453333-40.96-90.453334-90.453334s40.96-90.453333 90.453334-90.453333h213.333333c49.493333 0 90.453333 40.96 90.453333 90.453333s-40.96 90.453333-90.453333 90.453334zM662.186667 580.266667c-20.48 0-39.253333 17.066667-39.253334 39.253333s17.066667 39.253333 39.253334 39.253333h213.333333c20.48 0 39.253333-17.066667 39.253333-39.253333s-17.066667-39.253333-39.253333-39.253333H662.186667zM662.186667 964.266667c-49.493333 0-90.453333-40.96-90.453334-90.453334v-64.853333c0-13.653333 11.946667-25.6 25.6-25.6h64.853334c49.493333 0 90.453333 40.96 90.453333 90.453333s-40.96 90.453333-90.453333 90.453334zM622.933333 836.266667v39.253333c0 20.48 17.066667 39.253333 39.253334 39.253333s39.253333-17.066667 39.253333-39.253333S682.666667 836.266667 662.186667 836.266667h-39.253334zM363.52 494.933333H150.186667c-49.493333 0-90.453333-40.96-90.453334-90.453333s40.96-90.453333 90.453334-90.453333h213.333333c49.493333 0 90.453333 40.96 90.453333 90.453333S413.013333 494.933333 363.52 494.933333zM150.186667 366.933333c-20.48 0-39.253333 17.066667-39.253334 39.253334s17.066667 39.253333 39.253334 39.253333h213.333333c20.48 0 39.253333-17.066667 39.253333-39.253333s-17.066667-39.253333-39.253333-39.253334H150.186667zM426.666667 238.933333h-64.853334c-49.493333 0-90.453333-40.96-90.453333-90.453333s40.96-90.453333 90.453333-90.453333 90.453333 40.96 90.453334 90.453333v64.853333c0 13.653333-11.946667 25.6-25.6 25.6z m-63.146667-128c-20.48 0-39.253333 17.066667-39.253333 39.253334s17.066667 39.253333 39.253333 39.253333h39.253333V150.186667c-1.706667-22.186667-18.773333-39.253333-39.253333-39.253334z"  /></svg>