<?xml version="1.0" standalone="no"?><!DOCTYPE svg PUBLIC "-//W3C//DTD SVG 1.1//EN" "http://www.w3.org/Graphics/SVG/1.1/DTD/svg11.dtd"><svg class="icon" width="64px" height="64.00px" viewBox="0 0 1024 1024" version="1.1" xmlns="http://www.w3.org/2000/svg"><path  d="M368.981333 438.784H122.026667a75.093333 75.093333 0 0 1-75.093334-74.922667V116.736a75.093333 75.093333 0 0 1 75.093334-74.922667h246.954666A75.093333 75.093333 0 0 1 443.733333 116.736v247.125333a75.093333 75.093333 0 0 1-74.752 74.922667zM122.026667 93.013333a23.893333 23.893333 0 0 0-23.893334 23.722667v247.125333a23.893333 23.893333 0 0 0 23.893334 23.722667h246.954666A23.722667 23.722667 0 0 0 392.533333 363.861333V116.736a23.722667 23.722667 0 0 0-23.722666-23.722667zM368.981333 982.186667H122.026667a75.093333 75.093333 0 0 1-75.093334-74.922667V660.138667a75.093333 75.093333 0 0 1 75.093334-74.922667h246.954666A75.093333 75.093333 0 0 1 443.733333 660.138667v247.125333a75.093333 75.093333 0 0 1-74.752 74.922667zM122.026667 636.416a23.893333 23.893333 0 0 0-23.893334 23.722667v247.125333a23.893333 23.893333 0 0 0 23.893334 23.722667h246.954666A23.722667 23.722667 0 0 0 392.533333 907.264V660.138667a23.722667 23.722667 0 0 0-23.722666-23.722667zM902.144 438.784H655.018667A75.093333 75.093333 0 0 1 580.266667 363.861333V116.736a75.093333 75.093333 0 0 1 74.922666-74.922667h246.954667a75.093333 75.093333 0 0 1 74.922667 74.922667v247.125333a75.093333 75.093333 0 0 1-74.922667 74.922667zM655.018667 93.013333A23.722667 23.722667 0 0 0 631.466667 116.736v247.125333a23.722667 23.722667 0 0 0 23.722666 23.722667h246.954667a23.893333 23.893333 0 0 0 23.722667-23.722667V116.736a23.722667 23.722667 0 0 0-23.722667-23.722667zM678.912 982.186667a25.6 25.6 0 0 1-25.6-25.6V592.042667a25.6 25.6 0 0 1 51.2 0v364.544a25.6 25.6 0 0 1-25.6 25.6z"  /><path  d="M678.912 777.216c-34.133333 0-85.333333-20.138667-85.333333-75.434667v-99.669333a25.6 25.6 0 0 1 51.2 0v99.669333c0 22.528 28.501333 24.064 34.133333 24.234667s34.133333-1.706667 34.133333-24.234667v-99.669333a25.6 25.6 0 0 1 51.2 0v99.669333c0 55.296-51.029333 75.434667-85.333333 75.434667zM938.666667 982.186667a25.429333 25.429333 0 0 1-25.429334-23.381334l-30.72-364.544a25.770667 25.770667 0 0 1 23.552-27.648 25.429333 25.429333 0 0 1 27.477334 23.381334l30.037333 364.544a25.770667 25.770667 0 0 1-23.552 27.648zM819.2 982.186667h-2.218667a25.6 25.6 0 0 1-23.381333-27.648l29.866667-364.544a25.6 25.6 0 1 1 51.2 4.266666l-30.72 364.544A25.6 25.6 0 0 1 819.2 982.186667z"  /></svg>