<?xml version="1.0" standalone="no"?><!DOCTYPE svg PUBLIC "-//W3C//DTD SVG 1.1//EN" "http://www.w3.org/Graphics/SVG/1.1/DTD/svg11.dtd"><svg class="icon" width="64px" height="64.00px" viewBox="0 0 1024 1024" version="1.1" xmlns="http://www.w3.org/2000/svg"><path  d="M890.538667 557.397333H102.229333a42.666667 42.666667 0 0 1-42.666666-42.666666v-98.816a42.666667 42.666667 0 0 1 42.666666-42.666667h788.309334a42.666667 42.666667 0 0 1 42.666666 42.666667v98.816a42.666667 42.666667 0 0 1-42.666666 42.666666z m-779.776-51.2h771.242666v-81.749333H110.762667v81.749333z"  /><path  d="M730.453333 988.501333H262.144a91.136 91.136 0 0 1-88.746667-69.461333L79.36 537.941333c-1.877333-7.68-0.170667-15.701333 4.778667-21.845333s12.288-9.898667 20.138666-9.898667h784.213334c7.850667 0 15.36 3.584 20.138666 9.898667s6.656 14.336 4.778667 21.845333L819.2 919.04a91.136 91.136 0 0 1-88.746667 69.461333zM136.874667 557.397333l86.357333 349.354667c4.437333 17.92 20.48 30.549333 39.082667 30.549333H730.453333c18.432 0 34.474667-12.629333 39.082667-30.549333l86.357333-349.354667H136.874667zM708.096 297.984c-6.485333 0-13.141333-2.56-18.090667-7.509333L496.298667 96.768 302.762667 290.474667c-10.069333 10.069333-26.282667 10.069333-36.181334 0a25.429333 25.429333 0 0 1 0-36.181334l211.626667-211.797333a25.429333 25.429333 0 0 1 36.181333 0L726.186667 254.293333c10.069333 10.069333 10.069333 26.282667 0 36.181334-4.949333 4.949333-11.605333 7.509333-18.090667 7.509333z"  /><path  d="M719.018667 688.981333h-165.888c-14.165333 0-25.6-11.434667-25.6-25.6s11.434667-25.6 25.6-25.6h165.888c14.165333 0 25.6 11.434667 25.6 25.6s-11.434667 25.6-25.6 25.6zM719.018667 772.949333h-165.888c-14.165333 0-25.6-11.434667-25.6-25.6s11.434667-25.6 25.6-25.6h165.888c14.165333 0 25.6 11.434667 25.6 25.6s-11.434667 25.6-25.6 25.6zM719.018667 857.088h-165.888c-14.165333 0-25.6-11.434667-25.6-25.6s11.434667-25.6 25.6-25.6h165.888c14.165333 0 25.6 11.434667 25.6 25.6s-11.434667 25.6-25.6 25.6z"  /></svg>