<?xml version="1.0" standalone="no"?><!DOCTYPE svg PUBLIC "-//W3C//DTD SVG 1.1//EN" "http://www.w3.org/Graphics/SVG/1.1/DTD/svg11.dtd"><svg class="icon" width="64px" height="64.00px" viewBox="0 0 1024 1024" version="1.1" xmlns="http://www.w3.org/2000/svg"><path  d="M768 885.76c-18.773333 0-27.306667-6.826667-56.32-29.013333-22.186667-17.066667-35.84-27.306667-42.666667-30.72h-18.773333c-325.973333 6.826667-329.386667 3.413333-348.16-13.653334-3.413333-1.706667-35.84-29.013333-54.613333-42.666666C49.493333 612.693333 47.786667 607.573333 40.96 592.213333c-10.24-23.893333-8.533333-51.2 5.12-75.093333 11.946667-18.773333 37.546667-39.253333 88.746667-39.253333 52.906667 0 114.346667 47.786667 162.133333 87.04 10.24 8.533333 29.013333 22.186667 37.546667 29.013333h52.906666c-17.066667-17.066667-29.013333-40.96-29.013333-63.146667 0-44.373333 30.72-92.16 98.986667-92.16h177.493333c75.093333 0 146.773333 27.306667 204.8 75.093334C989.866667 640 989.866667 648.533333 989.866667 672.426667c0 13.653333-5.12 25.6-13.653334 35.84-5.12 5.12-47.786667 46.08-88.746666 87.04-92.16 87.04-95.573333 90.453333-119.466667 90.453333z m1.706667-51.2z m-92.16-59.733333c3.413333 0 6.826667 0 10.24 1.706666 3.413333 1.706667 13.653333 6.826667 56.32 39.253334 10.24 8.533333 20.48 15.36 23.893333 18.773333 10.24-6.826667 40.96-37.546667 83.626667-78.506667 37.546667-37.546667 76.8-75.093333 87.04-83.626666-8.533333-13.653333-52.906667-52.906667-131.413334-121.173334-47.786667-40.96-109.226667-63.146667-172.373333-63.146666H457.386667c-42.666667 0-47.786667 29.013333-47.786667 40.96 0 18.773333 20.48 39.253333 40.96 42.666666 11.946667 1.706667 35.84 5.12 56.32 8.533334l23.893333 3.413333c10.24 1.706667 18.773333 8.533333 20.48 18.773333 1.706667 10.24-1.706667 20.48-10.24 27.306667-6.826667 5.12-13.653333 8.533333-20.48 11.946667-3.413333 1.706667-6.826667 1.706667-10.24 1.706666H327.68c-3.413333 0-6.826667 0-10.24-1.706666-10.24-3.413333-23.893333-13.653333-52.906667-37.546667C225.28 573.44 170.666667 529.066667 134.826667 529.066667c-15.36 0-35.84 3.413333-44.373334 15.36-5.12 6.826667-6.826667 18.773333-1.706666 27.306666 6.826667 11.946667 81.92 71.68 192.853333 157.013334 40.96 32.426667 54.613333 42.666667 58.026667 46.08 20.48 5.12 138.24 3.413333 310.613333 0h27.306667c-1.706667 0-1.706667 0 0 0z"  /><path  d="M242.346667 522.24h-51.2v-324.266667c0-32.426667 27.306667-59.733333 59.733333-59.733333h315.733333c32.426667 0 59.733333 27.306667 59.733334 59.733333v256h-51.2v-256c0-5.12-3.413333-8.533333-8.533334-8.533333H250.88c-5.12 0-8.533333 3.413333-8.533333 8.533333v324.266667z"  /><path  d="M409.6 331.093333c-73.386667 0-97.28-42.666667-98.986667-47.786666-6.826667-11.946667-1.706667-27.306667 11.946667-34.133334 11.946667-6.826667 27.306667-1.706667 34.133333 10.24 1.706667 1.706667 13.653333 20.48 54.613334 20.48 40.96 0 54.613333-20.48 54.613333-20.48 6.826667-11.946667 22.186667-17.066667 34.133333-11.946666s17.066667 22.186667 11.946667 34.133333c-6.826667 5.12-29.013333 49.493333-102.4 49.493333z"  /></svg>