<?xml version="1.0" standalone="no"?><!DOCTYPE svg PUBLIC "-//W3C//DTD SVG 1.1//EN" "http://www.w3.org/Graphics/SVG/1.1/DTD/svg11.dtd"><svg class="icon" width="64px" height="64.00px" viewBox="0 0 1024 1024" version="1.1" xmlns="http://www.w3.org/2000/svg"><path  d="M829.44 989.866667H194.56c-51.2 0-92.16-40.96-92.16-92.16V126.293333C102.4 75.093333 143.36 34.133333 194.56 34.133333h636.586667c51.2 0 92.16 40.96 92.16 92.16v769.706667c0 52.906667-42.666667 93.866667-93.866667 93.866667zM194.56 85.333333C170.666667 85.333333 151.893333 104.106667 151.893333 126.293333v769.706667c0 22.186667 18.773333 40.96 40.96 40.96h636.586667c22.186667 0 40.96-18.773333 40.96-40.96V126.293333c1.706667-22.186667-17.066667-40.96-40.96-40.96H194.56z"  /><path  d="M677.546667 605.866667H399.36c-11.946667 0-22.186667-8.533333-25.6-18.773334l-64.853333-257.706666h-17.066667c-13.653333 0-25.6-11.946667-25.6-25.6s11.946667-25.6 25.6-25.6h37.546667c11.946667 0 22.186667 8.533333 25.6 18.773333l11.946666 44.373333h363.52c8.533333 0 15.36 3.413333 20.48 10.24 5.12 6.826667 6.826667 13.653333 5.12 22.186667l-52.906666 213.333333c-3.413333 10.24-13.653333 18.773333-25.6 18.773334z m-257.706667-51.2h237.226667l40.96-162.133334H378.88l40.96 162.133334zM399.36 750.933333c-32.426667 0-59.733333-27.306667-59.733333-59.733333s27.306667-59.733333 59.733333-59.733333 59.733333 27.306667 59.733333 59.733333-25.6 59.733333-59.733333 59.733333z m0-68.266666c-5.12 0-8.533333 3.413333-8.533333 8.533333s3.413333 8.533333 8.533333 8.533333 8.533333-3.413333 8.533333-8.533333-3.413333-8.533333-8.533333-8.533333zM677.546667 750.933333c-32.426667 0-59.733333-27.306667-59.733334-59.733333s27.306667-59.733333 59.733334-59.733333 59.733333 27.306667 59.733333 59.733333-27.306667 59.733333-59.733333 59.733333z m0-68.266666c-5.12 0-8.533333 3.413333-8.533334 8.533333s3.413333 8.533333 8.533334 8.533333 8.533333-3.413333 8.533333-8.533333-3.413333-8.533333-8.533333-8.533333z"  /></svg>