<?xml version="1.0" standalone="no"?><!DOCTYPE svg PUBLIC "-//W3C//DTD SVG 1.1//EN" "http://www.w3.org/Graphics/SVG/1.1/DTD/svg11.dtd"><svg class="icon" width="64px" height="64.00px" viewBox="0 0 1024 1024" version="1.1" xmlns="http://www.w3.org/2000/svg"><path  d="M488.106667 989.866667H194.56c-51.2 0-92.16-40.96-92.16-92.16V126.293333C102.4 75.093333 143.36 34.133333 194.56 34.133333h636.586667c51.2 0 92.16 40.96 92.16 92.16v428.373334c0 13.653333-11.946667 25.6-25.6 25.6s-25.6-11.946667-25.6-25.6V126.293333C872.106667 104.106667 853.333333 85.333333 829.44 85.333333H194.56C170.666667 85.333333 151.893333 104.106667 151.893333 126.293333v769.706667c0 22.186667 18.773333 40.96 40.96 40.96h295.253334c13.653333 0 25.6 11.946667 25.6 25.6s-10.24 27.306667-25.6 27.306667z"  /><path  d="M720.213333 247.466667H303.786667c-13.653333 0-25.6-11.946667-25.6-25.6s11.946667-25.6 25.6-25.6h416.426666c13.653333 0 25.6 11.946667 25.6 25.6s-11.946667 25.6-25.6 25.6zM720.213333 395.946667H303.786667c-13.653333 0-25.6-11.946667-25.6-25.6s11.946667-25.6 25.6-25.6h416.426666c13.653333 0 25.6 11.946667 25.6 25.6s-11.946667 25.6-25.6 25.6zM583.68 544.426667H303.786667c-13.653333 0-25.6-11.946667-25.6-25.6s11.946667-25.6 25.6-25.6h281.6c13.653333 0 25.6 11.946667 25.6 25.6s-11.946667 25.6-27.306667 25.6z"  /><path  d="M667.306667 901.12c-15.36 0-30.72-5.12-42.666667-17.066667l-51.2-51.2c-11.946667-11.946667-17.066667-25.6-17.066667-42.666666 0-15.36 6.826667-30.72 17.066667-42.666667l107.52-107.52c22.186667-22.186667 61.44-22.186667 83.626667 0l51.2 51.2c11.946667 11.946667 17.066667 25.6 17.066666 42.666667 0 15.36-6.826667 30.72-17.066666 42.666666l-107.52 107.52c-10.24 10.24-25.6 17.066667-40.96 17.066667z m56.32-228.693333c-1.706667 0-3.413333 0-6.826667 1.706666l-107.52 107.52c-1.706667 1.706667-1.706667 5.12-1.706667 6.826667s0 3.413333 1.706667 6.826667l51.2 51.2c3.413333 3.413333 8.533333 3.413333 11.946667 0l107.52-107.52c1.706667-1.706667 1.706667-5.12 1.706666-6.826667 0-1.706667 0-3.413333-1.706666-6.826667l-51.2-51.2c-1.706667 0-3.413333-1.706667-5.12-1.706666z m75.093333 85.333333z"  /><path  d="M897.706667 989.866667c-6.826667 0-13.653333-1.706667-18.773334-6.826667l-151.893333-151.893333c-10.24-10.24-10.24-25.6 0-35.84s25.6-10.24 35.84 0l151.893333 151.893333c10.24 10.24 10.24 25.6 0 35.84-5.12 5.12-10.24 6.826667-17.066666 6.826667z"  /></svg>