<?xml version="1.0" standalone="no"?><!DOCTYPE svg PUBLIC "-//W3C//DTD SVG 1.1//EN" "http://www.w3.org/Graphics/SVG/1.1/DTD/svg11.dtd"><svg class="icon" width="64px" height="64.00px" viewBox="0 0 1024 1024" version="1.1" xmlns="http://www.w3.org/2000/svg"><path  d="M692.565333 940.885333H331.434667c-40.448 0-76.117333-25.770667-88.917334-64l-144.725333-431.786666c-15.872-3.584-30.208-11.605333-41.301333-23.381334A81.117867 81.117867 0 0 1 34.133333 361.130667c2.218667-43.349333 39.424-77.312 84.650667-77.312h789.333333c26.112 0 50.858667 12.629333 66.218667 33.792 15.530667 21.504 19.626667 48.810667 10.922667 74.922666-8.874667 26.965333-31.744 46.592-59.392 52.565334l-144.554667 431.445333a93.303467 93.303467 0 0 1-88.746667 64.341333zM118.954667 335.189333c-17.749333 0-32.768 12.970667-33.621334 28.672-0.512 8.533333 2.56 16.554667 8.362667 22.528s13.653333 9.557333 22.016 9.557334c10.922667 0 22.016 6.997333 25.429333 17.408l149.845334 446.976a42.5984 42.5984 0 0 0 40.448 29.184h360.96c18.432 0 34.645333-11.776 40.448-29.184l149.845333-446.976c3.413333-10.410667 13.312-17.408 24.234667-17.408 14.336 0 25.941333-8.021333 29.866666-19.456 4.608-13.994667-0.512-24.064-3.925333-28.842667-5.802667-8.021333-14.848-12.629333-24.746667-12.629333H118.954667z"  /><path  d="M712.362667 591.872H311.637333c-14.165333 0-25.6-11.434667-25.6-25.6s11.434667-25.6 25.6-25.6h400.725334c14.165333 0 25.6 11.434667 25.6 25.6s-11.434667 25.6-25.6 25.6zM666.453333 711.850667h-308.906666c-14.165333 0-25.6-11.434667-25.6-25.6s11.434667-25.6 25.6-25.6h308.906666c14.165333 0 25.6 11.434667 25.6 25.6s-11.434667 25.6-25.6 25.6zM623.274667 831.829333H400.725333c-14.165333 0-25.6-11.434667-25.6-25.6s11.434667-25.6 25.6-25.6h222.72c14.165333 0 25.6 11.434667 25.6 25.6s-11.605333 25.6-25.770666 25.6zM379.050667 259.242667c-3.925333 0-8.021333-0.853333-11.776-2.901334L127.488 131.584c-12.458667-6.656-17.408-22.016-10.752-34.645333s22.016-17.408 34.474667-10.922667l239.616 124.928c12.458667 6.485333 17.408 22.016 10.922666 34.474667-4.608 8.874667-13.482667 13.824-22.698666 13.824z"  /></svg>