<?xml version="1.0" standalone="no"?><!DOCTYPE svg PUBLIC "-//W3C//DTD SVG 1.1//EN" "http://www.w3.org/Graphics/SVG/1.1/DTD/svg11.dtd"><svg class="icon" width="64px" height="64.00px" viewBox="0 0 1024 1024" version="1.1" xmlns="http://www.w3.org/2000/svg"><path  d="M738.986667 778.24H249.173333c-11.946667 0-22.186667-8.533333-25.6-18.773333L129.706667 380.586667l-23.893334-93.866667H59.733333c-13.653333 0-25.6-11.946667-25.6-25.6s11.946667-25.6 25.6-25.6h66.56c11.946667 0 22.186667 8.533333 25.6 18.773333l23.893334 93.866667h325.973333c13.653333 0 25.6 11.946667 25.6 25.6s-11.946667 25.6-25.6 25.6H186.026667l81.92 325.973333h450.56l46.08-187.733333c3.413333-13.653333 17.066667-22.186667 30.72-18.773333 13.653333 3.413333 22.186667 17.066667 18.773333 30.72l-51.2 206.506666c-1.706667 13.653333-11.946667 22.186667-23.893333 22.186667zM249.173333 965.973333c-46.08 0-81.92-37.546667-81.92-81.92S204.8 802.133333 249.173333 802.133333s81.92 37.546667 81.92 81.92-37.546667 81.92-81.92 81.92z m0-112.64c-17.066667 0-30.72 13.653333-30.72 30.72s13.653333 30.72 30.72 30.72 30.72-13.653333 30.72-30.72-13.653333-30.72-30.72-30.72zM738.986667 965.973333c-46.08 0-81.92-37.546667-81.92-81.92s37.546667-81.92 81.92-81.92 81.92 37.546667 81.92 81.92-35.84 81.92-81.92 81.92z m0-112.64c-17.066667 0-30.72 13.653333-30.72 30.72s13.653333 30.72 30.72 30.72 30.72-13.653333 30.72-30.72-13.653333-30.72-30.72-30.72z"  /><path  d="M728.746667 578.56c-143.36 0-261.12-117.76-261.12-261.12S585.386667 58.026667 728.746667 58.026667 989.866667 175.786667 989.866667 319.146667s-117.76 259.413333-261.12 259.413333z m0-469.333333c-116.053333 0-209.92 93.866667-209.92 209.92S612.693333 529.066667 728.746667 529.066667 938.666667 433.493333 938.666667 317.44 844.8 109.226667 728.746667 109.226667z"  /><path  d="M684.373333 418.133333c-10.24 0-18.773333-3.413333-25.6-11.946666l-66.56-69.973334c-10.24-10.24-8.533333-25.6 0-35.84 10.24-10.24 25.6-10.24 35.84 0l56.32 59.733334 145.066667-136.533334c10.24-10.24 27.306667-8.533333 35.84 1.706667 10.24 10.24 8.533333 27.306667-1.706667 35.84l-157.013333 146.773333c-3.413333 6.826667-13.653333 10.24-22.186667 10.24z"  /></svg>