<?xml version="1.0" standalone="no"?><!DOCTYPE svg PUBLIC "-//W3C//DTD SVG 1.1//EN" "http://www.w3.org/Graphics/SVG/1.1/DTD/svg11.dtd"><svg class="icon" width="64px" height="64.00px" viewBox="0 0 1024 1024" version="1.1" xmlns="http://www.w3.org/2000/svg"><path  d="M597.333333 887.466667H366.933333c-54.613333 0-98.986667-44.373333-98.986666-98.986667V148.48c0-54.613333 44.373333-98.986667 98.986666-98.986667h443.733334c54.613333 0 98.986667 44.373333 98.986666 98.986667v435.2h-51.2V148.48C856.746667 122.88 836.266667 102.4 810.666667 102.4h-443.733334c-25.6 0-47.786667 20.48-47.786666 47.786667v640c0 25.6 20.48 47.786667 47.786666 47.786666H597.333333V887.466667z"  /><path  d="M762.88 972.8c-126.293333 0-226.986667-102.4-226.986667-226.986667s102.4-226.986667 226.986667-226.986666S989.866667 619.52 989.866667 745.813333 887.466667 972.8 762.88 972.8z m0-402.773333c-97.28 0-175.786667 78.506667-175.786667 175.786666S665.6 921.6 762.88 921.6 938.666667 843.093333 938.666667 745.813333s-78.506667-175.786667-175.786667-175.786666z"  /><path  d="M723.626667 834.56c-8.533333 0-18.773333-3.413333-25.6-10.24l-58.026667-59.733333c-10.24-10.24-8.533333-25.6 0-35.84 10.24-10.24 25.6-8.533333 35.84 0l46.08 47.786666 122.88-114.346666c10.24-10.24 27.306667-8.533333 35.84 1.706666 10.24 10.24 8.533333 27.306667-1.706667 35.84l-134.826666 124.586667c-3.413333 8.533333-11.946667 10.24-20.48 10.24zM114.346667 808.96c-10.24 0-20.48-6.826667-23.893334-15.36l-54.613333-136.533333c-1.706667-5.12-1.706667-8.533333-1.706667-11.946667V220.16c0-44.373333 35.84-80.213333 80.213334-80.213333s80.213333 35.84 80.213333 80.213333v424.96c0 3.413333 0 6.826667-1.706667 10.24l-54.613333 136.533333c-3.413333 10.24-13.653333 17.066667-23.893333 17.066667zM85.333333 641.706667l29.013334 73.386666 29.013333-73.386666V220.16c0-15.36-13.653333-29.013333-29.013333-29.013333S85.333333 204.8 85.333333 220.16v421.546667z"  /><path  d="M750.933333 254.293333H426.666667c-13.653333 0-25.6-11.946667-25.6-25.6s11.946667-25.6 25.6-25.6h324.266666c13.653333 0 25.6 11.946667 25.6 25.6s-11.946667 25.6-25.6 25.6zM750.933333 377.173333H426.666667c-13.653333 0-25.6-11.946667-25.6-25.6s11.946667-25.6 25.6-25.6h324.266666c13.653333 0 25.6 11.946667 25.6 25.6s-11.946667 25.6-25.6 25.6zM551.253333 500.053333H426.666667c-13.653333 0-25.6-11.946667-25.6-25.6s11.946667-25.6 25.6-25.6h124.586666c13.653333 0 25.6 11.946667 25.6 25.6s-11.946667 25.6-25.6 25.6z"  /></svg>