<?xml version="1.0" standalone="no"?><!DOCTYPE svg PUBLIC "-//W3C//DTD SVG 1.1//EN" "http://www.w3.org/Graphics/SVG/1.1/DTD/svg11.dtd"><svg class="icon" width="64px" height="64.00px" viewBox="0 0 1024 1024" version="1.1" xmlns="http://www.w3.org/2000/svg"><path  d="M488.106667 989.866667H194.56c-51.2 0-92.16-40.96-92.16-92.16V126.293333C102.4 75.093333 143.36 34.133333 194.56 34.133333h636.586667c51.2 0 92.16 40.96 92.16 92.16v428.373334c0 13.653333-11.946667 25.6-25.6 25.6s-25.6-11.946667-25.6-25.6V126.293333C872.106667 104.106667 853.333333 85.333333 829.44 85.333333H194.56C170.666667 85.333333 151.893333 104.106667 151.893333 126.293333v769.706667c0 22.186667 18.773333 40.96 40.96 40.96h295.253334c13.653333 0 25.6 11.946667 25.6 25.6s-10.24 27.306667-25.6 27.306667z"  /><path  d="M684.373333 247.466667H267.946667c-13.653333 0-25.6-11.946667-25.6-25.6s11.946667-25.6 25.6-25.6h416.426666c13.653333 0 25.6 11.946667 25.6 25.6s-10.24 25.6-25.6 25.6zM476.16 395.946667H267.946667c-13.653333 0-25.6-11.946667-25.6-25.6s11.946667-25.6 25.6-25.6h208.213333c13.653333 0 25.6 11.946667 25.6 25.6s-10.24 25.6-25.6 25.6zM394.24 544.426667h-126.293333c-13.653333 0-25.6-11.946667-25.6-25.6s11.946667-25.6 25.6-25.6h126.293333c13.653333 0 25.6 11.946667 25.6 25.6s-11.946667 25.6-25.6 25.6z"  /><path  d="M708.266667 989.866667c-32.426667 0-66.56-6.826667-104.106667-20.48-81.92-30.72-148.48-126.293333-191.146667-201.386667-20.48-35.84-10.24-81.92 22.186667-107.52 29.013333-23.893333 69.973333-25.6 102.4-6.826667v-133.12c0-37.546667 30.72-66.56 66.56-66.56s66.56 30.72 66.56 66.56v34.133334c5.12-1.706667 10.24-1.706667 15.36-1.706667 25.6 0 49.493333 15.36 59.733333 37.546667 6.826667-3.413333 15.36-3.413333 23.893334-3.413334 25.6 0 49.493333 15.36 59.733333 37.546667 6.826667-3.413333 15.36-3.413333 23.893333-3.413333 37.546667 0 66.56 30.72 66.56 66.56V819.2c0 23.893333-6.826667 46.08-18.773333 64.853333-20.48 29.013333-54.613333 68.266667-95.573333 85.333334-32.426667 13.653333-63.146667 20.48-97.28 20.48zM491.52 691.2c-8.533333 0-17.066667 3.413333-23.893333 8.533333-13.653333 10.24-17.066667 29.013333-10.24 42.666667 30.72 54.613333 92.16 151.893333 163.84 177.493333 63.146667 23.893333 109.226667 23.893333 163.84 0 32.426667-13.653333 61.44-49.493333 75.093333-68.266666 8.533333-11.946667 10.24-25.6 10.24-35.84v-131.413334c0-8.533333-6.826667-15.36-15.36-15.36s-15.36 6.826667-15.36 15.36c0 13.653333-11.946667 25.6-25.6 25.6s-25.6-11.946667-25.6-25.6v-34.133333c0-8.533333-6.826667-15.36-15.36-15.36s-15.36 6.826667-15.36 15.36c0 13.653333-11.946667 25.6-25.6 25.6s-25.6-11.946667-25.6-25.6v-34.133333c0-8.533333-6.826667-15.36-15.36-15.36s-15.36 6.826667-15.36 15.36c0 13.653333-11.946667 25.6-25.6 25.6s-25.6-11.946667-25.6-25.6v-100.693334c0-8.533333-6.826667-15.36-15.36-15.36s-15.36 6.826667-15.36 15.36v191.146667c0 10.24-6.826667 20.48-15.36 23.893333-10.24 3.413333-20.48 1.706667-27.306667-5.12L525.653333 699.733333c-13.653333-3.413333-23.893333-8.533333-34.133333-8.533333z"  /></svg>