<?xml version="1.0" standalone="no"?><!DOCTYPE svg PUBLIC "-//W3C//DTD SVG 1.1//EN" "http://www.w3.org/Graphics/SVG/1.1/DTD/svg11.dtd"><svg class="icon" width="64px" height="64.00px" viewBox="0 0 1024 1024" version="1.1" xmlns="http://www.w3.org/2000/svg"><path  d="M712.021333 794.282667H311.978667c-12.629333 0-23.210667-9.045333-25.258667-21.504L230.058667 421.546667c-1.194667-7.338667 0.853333-15.018667 5.802666-20.650667s11.946667-9.045333 19.456-9.045333h513.365334c7.509333 0 14.677333 3.242667 19.456 9.045333s6.997333 13.312 5.802666 20.650667L737.28 772.778667c-2.048 12.458667-12.8 21.504-25.258667 21.504z m-378.197333-51.2h356.352l48.469333-300.032H285.354667l48.469333 300.032z"  /><path  d="M660.650667 443.050667c-14.165333 0-25.6-11.434667-25.6-25.6 0-75.264-55.125333-136.533333-123.050667-136.533334s-123.050667 61.269333-123.050667 136.533334c0 14.165333-11.434667 25.6-25.6 25.6s-25.6-11.434667-25.6-25.6c0-103.594667 78.165333-187.733333 174.250667-187.733334s174.250667 84.138667 174.250667 187.733334c0 14.165333-11.434667 25.6-25.6 25.6z"  /><path  d="M417.450667 538.965333m-26.965334 0a26.965333 26.965333 0 1 0 53.930667 0 26.965333 26.965333 0 1 0-53.930667 0Z"  /><path  d="M512 699.733333c-66.901333 0-101.034667-49.834667-102.4-51.882666a25.6 25.6 0 0 1 42.496-28.501334c1.194667 1.365333 21.162667 29.184 59.904 29.184 38.912 0 59.050667-28.16 59.904-29.354666 8.021333-11.605333 23.893333-14.506667 35.498667-6.656 11.605333 7.850667 14.677333 23.552 6.997333 35.157333-1.365333 2.218667-35.498667 52.053333-102.4 52.053333z"  /><path  d="M606.549333 538.965333m-26.965333 0a26.965333 26.965333 0 1 0 53.930667 0 26.965333 26.965333 0 1 0-53.930667 0Z"  /><path  d="M512 85.333333c235.349333 0 426.666667 191.317333 426.666667 426.666667S747.349333 938.666667 512 938.666667 85.333333 747.349333 85.333333 512 276.650667 85.333333 512 85.333333m0-51.2C248.149333 34.133333 34.133333 248.149333 34.133333 512s214.016 477.866667 477.866667 477.866667 477.866667-214.016 477.866667-477.866667S775.850667 34.133333 512 34.133333z"  /></svg>