<?xml version="1.0" standalone="no"?><!DOCTYPE svg PUBLIC "-//W3C//DTD SVG 1.1//EN" "http://www.w3.org/Graphics/SVG/1.1/DTD/svg11.dtd"><svg class="icon" width="64px" height="64.00px" viewBox="0 0 1024 1024" version="1.1" xmlns="http://www.w3.org/2000/svg"><path  d="M776.533333 965.973333h-648.533333c-51.2 0-93.866667-42.666667-93.866667-93.866666V151.893333c0-51.2 42.666667-93.866667 93.866667-93.866666H392.533333c6.826667 0 15.36 3.413333 20.48 8.533333l110.933334 133.12h252.586666c51.2 0 93.866667 42.666667 93.866667 93.866667v58.026666h-51.2v-58.026666c0-23.893333-18.773333-42.666667-42.666667-42.666667H512c-6.826667 0-15.36-3.413333-20.48-8.533333l-110.933333-133.12H128C104.106667 109.226667 85.333333 128 85.333333 151.893333v720.213334c0 23.893333 18.773333 42.666667 42.666667 42.666666h648.533333v51.2z"  /><path  d="M774.826667 826.026667H406.186667v-87.04c0-29.013333 23.893333-52.906667 52.906666-52.906667h63.146667l-5.12-5.12c-15.36-17.066667-42.666667-44.373333-42.666667-98.986667 0-83.626667 63.146667-112.64 117.76-112.64s112.64 29.013333 112.64 112.64c0 52.906667-25.6 78.506667-39.253333 95.573334-3.413333 3.413333-6.826667 6.826667-8.533333 10.24h63.146666c29.013333 0 52.906667 23.893333 52.906667 52.906666v85.333334z m-317.44-51.2h266.24v-35.84c0-1.706667-1.706667-1.706667-1.706667-1.706667h-80.213333c-34.133333 0-34.133333-29.013333-34.133334-52.906667 0-18.773333 11.946667-32.426667 22.186667-42.666666 13.653333-13.653333 25.6-27.306667 25.6-59.733334 0-40.96-20.48-61.44-61.44-61.44-30.72 0-66.56 10.24-66.56 61.44 0 34.133333 15.36 51.2 29.013333 64.853334 10.24 10.24 20.48 22.186667 20.48 39.253333 0 11.946667 0 20.48-1.706666 27.306667-3.413333 15.36-17.066667 25.6-32.426667 25.6H460.8c-1.706667 0-1.706667 1.706667-1.706667 1.706666l-1.706666 34.133334z"  /><path  d="M896 965.973333H218.453333c-13.653333 0-25.6-11.946667-25.6-25.6V419.84c0-51.2 42.666667-93.866667 93.866667-93.866667h609.28c51.2 0 93.866667 42.666667 93.866667 93.866667v452.266667c0 51.2-42.666667 93.866667-93.866667 93.866666z m-651.946667-51.2h651.946667c23.893333 0 42.666667-18.773333 42.666667-42.666666V419.84c0-23.893333-18.773333-42.666667-42.666667-42.666667H286.72c-23.893333 0-42.666667 18.773333-42.666667 42.666667v494.933333z"  /></svg>