<?xml version="1.0" standalone="no"?><!DOCTYPE svg PUBLIC "-//W3C//DTD SVG 1.1//EN" "http://www.w3.org/Graphics/SVG/1.1/DTD/svg11.dtd"><svg class="icon" width="64px" height="64.00px" viewBox="0 0 1024 1024" version="1.1" xmlns="http://www.w3.org/2000/svg"><path  d="M914.773333 993.28h-324.266666c-23.893333 0-44.373333-17.066667-46.08-40.96l-18.773334-191.146667c-1.706667-17.066667 3.413333-34.133333 15.36-46.08 11.946667-11.946667 27.306667-20.48 44.373334-20.48h329.386666c17.066667 0 32.426667 6.826667 44.373334 18.773334 11.946667 11.946667 17.066667 29.013333 15.36 46.08l-13.653334 191.146666c-1.706667 25.6-22.186667 42.666667-46.08 42.666667z m-320.853333-51.2h315.733333l13.653334-186.026667c0-3.413333-1.706667-5.12-1.706667-6.826666-1.706667-1.706667-3.413333-3.413333-6.826667-3.413334H585.386667c-3.413333 0-5.12 1.706667-6.826667 3.413334-1.706667 1.706667-1.706667 3.413333-1.706667 6.826666l17.066667 186.026667z"  /><path  d="M844.8 832.853333H653.653333c-13.653333 0-25.6-11.946667-25.6-25.6s11.946667-25.6 25.6-25.6h191.146667c13.653333 0 25.6 11.946667 25.6 25.6s-11.946667 25.6-25.6 25.6zM824.32 913.066667h-150.186667c-13.653333 0-25.6-11.946667-25.6-25.6s11.946667-25.6 25.6-25.6h150.186667c13.653333 0 25.6 11.946667 25.6 25.6s-11.946667 25.6-25.6 25.6zM834.56 745.813333h-170.666667c-13.653333 0-25.6-11.946667-25.6-25.6v-6.826666c0-109.226667 47.786667-191.146667 110.933334-191.146667s110.933333 81.92 110.933333 191.146667v6.826666c0 15.36-11.946667 25.6-25.6 25.6z m-145.066667-51.2h117.76c-5.12-68.266667-34.133333-119.466667-59.733333-119.466666-22.186667 0-52.906667 46.08-58.026667 119.466666z"  /><path  d="M394.24 989.866667H204.8c-51.2 0-93.866667-42.666667-93.866667-93.866667v-768C110.933333 76.8 153.6 34.133333 204.8 34.133333h614.4c51.2 0 93.866667 42.666667 93.866667 93.866667v331.093333c0 13.653333-11.946667 25.6-25.6 25.6s-25.6-11.946667-25.6-25.6V128C861.866667 104.106667 843.093333 85.333333 819.2 85.333333H204.8c-23.893333 0-42.666667 18.773333-42.666667 42.666667v768c0 23.893333 18.773333 42.666667 42.666667 42.666667h189.44c13.653333 0 25.6 11.946667 25.6 25.6s-11.946667 25.6-25.6 25.6z"  /><path  d="M686.08 279.893333H273.066667c-13.653333 0-25.6-11.946667-25.6-25.6s11.946667-25.6 25.6-25.6h413.013333c13.653333 0 25.6 11.946667 25.6 25.6s-11.946667 25.6-25.6 25.6zM515.413333 459.093333H273.066667c-13.653333 0-25.6-11.946667-25.6-25.6s11.946667-25.6 25.6-25.6h242.346666c13.653333 0 25.6 11.946667 25.6 25.6s-11.946667 25.6-25.6 25.6z"  /></svg>