<?xml version="1.0" standalone="no"?><!DOCTYPE svg PUBLIC "-//W3C//DTD SVG 1.1//EN" "http://www.w3.org/Graphics/SVG/1.1/DTD/svg11.dtd"><svg class="icon" width="64px" height="64.00px" viewBox="0 0 1024 1024" version="1.1" xmlns="http://www.w3.org/2000/svg"><path  d="M827.733333 887.466667H307.2c-51.2 0-93.866667-42.666667-93.866667-93.866667v-665.6C213.333333 76.8 256 34.133333 307.2 34.133333h520.533333c51.2 0 93.866667 42.666667 93.866667 93.866667v665.6c0 51.2-42.666667 93.866667-93.866667 93.866667zM307.2 85.333333c-23.893333 0-42.666667 18.773333-42.666667 42.666667v665.6c0 23.893333 18.773333 42.666667 42.666667 42.666667h520.533333c23.893333 0 42.666667-18.773333 42.666667-42.666667v-665.6C870.4 104.106667 851.626667 85.333333 827.733333 85.333333H307.2z"  /><path  d="M723.626667 989.866667H187.733333c-47.786667 0-85.333333-39.253333-85.333333-85.333334V223.573333c0-47.786667 39.253333-85.333333 85.333333-85.333333h51.2v51.2h-51.2c-18.773333 0-34.133333 15.36-34.133333 34.133333V904.533333c0 18.773333 15.36 34.133333 34.133333 34.133334h535.893334c18.773333 0 34.133333-15.36 34.133333-34.133334v-58.026666h51.2V904.533333c1.706667 46.08-37.546667 85.333333-85.333333 85.333334zM785.066667 259.413333H373.76c-13.653333 0-25.6-11.946667-25.6-25.6s11.946667-25.6 25.6-25.6H785.066667c13.653333 0 25.6 11.946667 25.6 25.6s-11.946667 25.6-25.6 25.6z"  /><path  d="M785.066667 368.64H373.76c-13.653333 0-25.6-11.946667-25.6-25.6s11.946667-25.6 25.6-25.6H785.066667c13.653333 0 25.6 11.946667 25.6 25.6s-11.946667 25.6-25.6 25.6z"  /><path  d="M728.746667 742.4H430.08v-73.386667c0-25.6 20.48-47.786667 47.786667-47.786666h35.84c-11.946667-13.653333-29.013333-37.546667-29.013334-76.8 0-69.973333 52.906667-93.866667 97.28-93.866667 56.32 0 93.866667 37.546667 93.866667 93.866667 0 40.96-18.773333 63.146667-30.72 76.8H682.666667c25.6 0 47.786667 20.48 47.786666 47.786666v73.386667z m-247.466667-51.2h196.266667v-18.773333h-59.733334c-32.426667 0-32.426667-29.013333-32.426666-47.786667 0-17.066667 10.24-29.013333 18.773333-37.546667 10.24-10.24 18.773333-20.48 18.773333-42.666666 0-18.773333-5.12-42.666667-42.666666-42.666667-30.72 0-46.08 13.653333-46.08 42.666667 0 23.893333 10.24 35.84 20.48 46.08 8.533333 8.533333 17.066667 18.773333 17.066666 34.133333 0 10.24 0 17.066667-1.706666 22.186667-3.413333 15.36-15.36 23.893333-30.72 23.893333h-59.733334l1.706667 20.48z"  /></svg>