<?xml version="1.0" standalone="no"?><!DOCTYPE svg PUBLIC "-//W3C//DTD SVG 1.1//EN" "http://www.w3.org/Graphics/SVG/1.1/DTD/svg11.dtd"><svg class="icon" width="64px" height="64.00px" viewBox="0 0 1024 1024" version="1.1" xmlns="http://www.w3.org/2000/svg"><path  d="M803.601067 34.133333c51.2 0 92.962133 42.154667 92.962133 93.866667v373.077333c0 14.165333-11.3152 25.6-25.344 25.6a25.429333 25.429333 0 0 1-25.361067-25.6V128c0-23.552-18.926933-42.666667-42.257066-42.666667H161.245867C137.898667 85.333333 118.954667 104.448 118.954667 128v768c0 23.552 18.944 42.666667 42.274133 42.666667H527.189333c14.045867 0 25.361067 11.434667 25.361067 25.6s-11.3152 25.6-25.361067 25.6H161.245867C109.909333 989.764267 68.352 947.797333 68.266667 896v-768C68.266667 76.288 110.011733 34.133333 161.245867 34.133333h642.3552z m-58.1632 522.24C861.405867 556.373333 955.733333 651.605333 955.733333 768.682667c0 117.077333-94.327467 212.309333-210.295466 212.309333-115.950933 0-210.2784-95.232-210.2784-212.309333 0-117.077333 94.327467-212.309333 210.2784-212.309334z m0 51.2c-88.064 0-159.573333 72.362667-159.573334 161.109334 0 88.746667 71.68 161.109333 159.573334 161.109333 87.9104 0 159.573333-72.362667 159.573333-161.109333 0-88.746667-71.662933-161.109333-159.573333-161.109334z m11.332266 50.005334l16.725334 52.053333c1.706667 4.949333 6.263467 8.362667 11.502933 8.362667h54.272c11.656533 0 16.554667 15.018667 7.099733 22.016l-43.963733 32.256a12.3904 12.3904 0 0 0-4.386133 13.653333l16.725333 52.053333c3.549867 11.264-9.1136 20.48-18.602667 13.653334l-43.9296-32.256a12.0832 12.0832 0 0 0-14.199466 0l-43.963734 32.256c-9.454933 6.997333-22.135467-2.389333-18.602666-13.653334l16.7424-52.053333a12.219733 12.219733 0 0 0-4.386134-13.653333l-43.946666-32.256c-9.472-6.997333-4.573867-22.016 7.099733-22.016h54.272c5.2224 0 9.796267-3.413333 11.485867-8.362667l16.725333-52.053333c4.061867-11.264 19.797333-11.264 23.330133 0z m-434.944 114.858666c14.0288 0 25.361067 11.434667 25.361067 25.6s-11.332267 25.6-25.361067 25.6h-117.316266a25.429333 25.429333 0 0 1-25.344-25.6c0-14.165333 11.3152-25.6 25.344-25.6h117.316266z m115.797334-115.541333c14.0288 0 25.361067 11.434667 25.361066 25.6s-11.332267 25.6-25.361066 25.6H204.509867a25.429333 25.429333 0 0 1-25.344-25.6c0-14.165333 11.3152-25.6 25.344-25.6h233.1136z m-3.4816-307.029333a42.666667 42.666667 0 0 1 42.001066 35.157333l0.4096 2.798933 7.5776 68.266667a42.666667 42.666667 0 0 1-37.6832 47.104l-2.3552 0.2048-2.3552 0.068267h-98.4064a42.666667 42.666667 0 0 1-42.666666-42.666667l0.068266-2.3552 0.2048-2.3552 7.5776-68.266667a42.666667 42.666667 0 0 1 39.594667-37.870933l2.816-0.085333h83.217067z m204.8 0a42.666667 42.666667 0 0 1 42.001066 35.157333l0.4096 2.798933 7.5776 68.266667a42.666667 42.666667 0 0 1-37.6832 47.104l-2.3552 0.2048-2.3552 0.068267h-98.4064a42.666667 42.666667 0 0 1-42.666666-42.666667l0.068266-2.3552 0.2048-2.3552 7.5776-68.266667a42.666667 42.666667 0 0 1 39.594667-37.870933l2.816-0.085333h83.217067z m-212.445867 51.2h-67.9424l-5.6832 51.2h79.3088l-5.6832-51.2z m204.8 0h-67.9424l-5.6832 51.2h79.3088l-5.6832-51.2z m-94.754133-221.866667a42.666667 42.666667 0 0 1 42.001066 35.157333l0.4096 2.798934 7.5776 68.266666a42.666667 42.666667 0 0 1-37.6832 47.104l-2.3552 0.2048-2.3552 0.068267h-98.4064a42.666667 42.666667 0 0 1-42.666666-42.666667l0.068266-2.3552 0.2048-2.3552 7.5776-68.266666a42.666667 42.666667 0 0 1 39.594667-37.870934l2.816-0.085333h83.217067z m-7.645867 51.2h-67.9424l-5.6832 51.2h79.3088l-5.6832-51.2z"  /></svg>