<?xml version="1.0" standalone="no"?><!DOCTYPE svg PUBLIC "-//W3C//DTD SVG 1.1//EN" "http://www.w3.org/Graphics/SVG/1.1/DTD/svg11.dtd"><svg class="icon" width="64px" height="64.00px" viewBox="0 0 1024 1024" version="1.1" xmlns="http://www.w3.org/2000/svg"><path  d="M831.982933 34.133333c49.493333 0 89.770667 42.154667 89.617067 93.866667v768c0 51.712-40.277333 93.866667-89.787733 93.866667H175.104C125.627733 989.866667 85.333333 947.712 85.333333 896v-768C85.333333 76.288 125.610667 34.133333 175.121067 34.133333z m-0.170666 51.2H175.104c-21.162667 0-38.570667 19.114667-38.570667 42.666667v768c0 23.552 17.237333 42.666667 38.570667 42.666667H832c21.333333 0 38.570667-19.114667 38.570667-42.666667H870.4v-768C870.4 104.448 853.162667 85.333333 831.829333 85.333333z m-93.713067 726.186667c14.165333 0 25.429333 11.434667 25.429333 25.6s-11.434667 25.6-25.6 25.6H269.0048c-14.165333 0-25.6-11.434667-25.6-25.6s11.434667-25.6 25.6-25.6z m0-135.338667c14.165333 0 25.429333 11.434667 25.429333 25.6s-11.434667 25.6-25.6 25.6H269.0048c-14.165333 0-25.6-11.434667-25.6-25.6s11.434667-25.6 25.6-25.6zM434.141867 384a42.666667 42.666667 0 0 1 42.410666 37.956267l7.5776 68.266666a42.666667 42.666667 0 0 1-42.3936 47.377067h-98.4064a42.666667 42.666667 0 0 1-42.3936-47.377067l7.5776-68.266666a42.666667 42.666667 0 0 1 42.410667-37.956267z m204.8 0a42.666667 42.666667 0 0 1 42.410666 37.956267l7.5776 68.266666a42.666667 42.666667 0 0 1-42.3936 47.377067h-98.4064a42.666667 42.666667 0 0 1-42.3936-47.377067l7.5776-68.266666a42.666667 42.666667 0 0 1 42.410667-37.956267z m-212.445867 51.2h-67.9424l-5.6832 51.2h79.3088l-5.6832-51.2z m204.8 0h-67.9424l-5.6832 51.2h79.3088l-5.6832-51.2z m-94.754133-221.866667a42.666667 42.666667 0 0 1 42.410666 37.956267l7.5776 68.266667a42.666667 42.666667 0 0 1-42.3936 47.377066h-98.4064a42.666667 42.666667 0 0 1-42.3936-47.377066l7.5776-68.266667a42.666667 42.666667 0 0 1 42.410667-37.956267z m-7.645867 51.2h-67.9424l-5.6832 51.2h79.3088l-5.6832-51.2z"  /></svg>