<?xml version="1.0" standalone="no"?><!DOCTYPE svg PUBLIC "-//W3C//DTD SVG 1.1//EN" "http://www.w3.org/Graphics/SVG/1.1/DTD/svg11.dtd"><svg class="icon" width="64px" height="64.00px" viewBox="0 0 1024 1024" version="1.1" xmlns="http://www.w3.org/2000/svg"><path  d="M512 498.346667c-238.933333 0-428.373333-100.693333-428.373333-230.4C83.626667 136.533333 273.066667 34.133333 512 34.133333c238.933333 0 428.373333 102.4 428.373333 232.106667S750.933333 498.346667 512 498.346667zM512 85.333333C307.2 85.333333 134.826667 168.96 134.826667 267.946667 134.826667 365.226667 307.2 447.146667 512 447.146667s377.173333-83.626667 377.173333-180.906667S716.8 85.333333 512 85.333333z"  /><path  d="M512 744.106667c-238.933333 0-428.373333-100.693333-428.373333-230.4 1.706667-37.546667 15.36-73.386667 40.96-100.693334l37.546666 34.133334c-17.066667 18.773333-27.306667 42.666667-27.306666 68.266666C134.826667 610.986667 307.2 692.906667 512 692.906667S889.173333 610.986667 889.173333 512c-1.706667-23.893333-10.24-47.786667-27.306666-66.56l37.546666-35.84c25.6 27.306667 39.253333 63.146667 40.96 100.693333 0 133.12-189.44 233.813333-428.373333 233.813334z"  /><path  d="M512 989.866667C273.066667 989.866667 83.626667 887.466667 83.626667 757.76c1.706667-37.546667 15.36-71.68 39.253333-97.28l37.546667 34.133333c-15.36 17.066667-23.893333 40.96-25.6 64.853334C134.826667 855.04 307.2 938.666667 512 938.666667s377.173333-83.626667 377.173333-180.906667c0-17.066667-5.12-42.666667-25.6-63.146667l37.546667-35.84c23.893333 25.6 37.546667 59.733333 39.253333 97.28C940.373333 887.466667 750.933333 989.866667 512 989.866667z"  /></svg>