<?xml version="1.0" standalone="no"?><!DOCTYPE svg PUBLIC "-//W3C//DTD SVG 1.1//EN" "http://www.w3.org/Graphics/SVG/1.1/DTD/svg11.dtd"><svg class="icon" width="64px" height="64.00px" viewBox="0 0 1024 1024" version="1.1" xmlns="http://www.w3.org/2000/svg"><path  d="M630.272 985.088H214.869333a70.485333 70.485333 0 0 1-70.314666-70.314667V109.226667a70.485333 70.485333 0 0 1 70.314666-70.314667H841.386667a70.485333 70.485333 0 0 1 70.485333 70.314667v594.261333a281.941333 281.941333 0 0 1-281.6 281.6zM214.869333 90.112a19.114667 19.114667 0 0 0-19.114666 19.114667v805.546666a19.114667 19.114667 0 0 0 19.114666 19.114667h415.402667a230.570667 230.570667 0 0 0 230.4-230.4V109.226667a19.285333 19.285333 0 0 0-19.285333-19.114667z"  /><path  d="M729.6 262.656H460.8a25.6 25.6 0 1 1 0-51.2h268.8a25.6 25.6 0 0 1 0 51.2zM729.6 452.266667H460.8a25.6 25.6 0 1 1 0-51.2h268.8a25.6 25.6 0 0 1 0 51.2zM729.6 641.877333H460.8a25.6 25.6 0 1 1 0-51.2h268.8a25.6 25.6 0 0 1 0 51.2zM326.826667 307.2a70.314667 70.314667 0 1 1 70.314666-70.314667A70.485333 70.485333 0 0 1 326.826667 307.2z m0-89.429333a19.114667 19.114667 0 1 0 19.114666 19.114666 19.114667 19.114667 0 0 0-19.114666-18.944zM326.826667 496.981333A70.314667 70.314667 0 1 1 397.141333 426.666667a70.485333 70.485333 0 0 1-70.314666 70.314666z m0-89.429333A19.114667 19.114667 0 1 0 345.941333 426.666667a19.114667 19.114667 0 0 0-19.114666-19.114667zM326.826667 686.592a70.314667 70.314667 0 1 1 70.314666-70.314667 70.485333 70.485333 0 0 1-70.314666 70.314667z m0-89.429333a19.114667 19.114667 0 1 0 19.114666 19.114666A19.114667 19.114667 0 0 0 326.826667 597.333333zM625.834667 982.869333a25.6 25.6 0 0 1-25.6-25.6V739.498667a25.6 25.6 0 0 1 25.6-25.6h233.472a25.6 25.6 0 1 1 0 51.2H651.434667v192.170666a25.6 25.6 0 0 1-25.6 25.6z"  /></svg>