<?xml version="1.0" standalone="no"?><!DOCTYPE svg PUBLIC "-//W3C//DTD SVG 1.1//EN" "http://www.w3.org/Graphics/SVG/1.1/DTD/svg11.dtd"><svg class="icon" width="64px" height="64.00px" viewBox="0 0 1024 1024" version="1.1" xmlns="http://www.w3.org/2000/svg"><path  d="M469.333333 982.186667H158.037333a70.144 70.144 0 0 1-69.973333-69.973334V111.786667a70.144 70.144 0 0 1 69.973333-69.973334h622.592a70.144 70.144 0 0 1 69.973334 69.973334V512a25.6 25.6 0 0 1-51.2 0V111.786667a18.773333 18.773333 0 0 0-18.773334-18.773334H158.037333a18.773333 18.773333 0 0 0-18.773333 18.773334v800.426666a18.773333 18.773333 0 0 0 18.773333 18.773334H469.333333a25.6 25.6 0 0 1 0 51.2z"  /><path  d="M647.168 359.765333H291.498667a25.6 25.6 0 1 1 0-51.2h355.669333a25.6 25.6 0 0 1 0 51.2zM469.333333 537.6H291.498667a25.6 25.6 0 1 1 0-51.2H469.333333a25.6 25.6 0 0 1 0 51.2zM739.669333 934.229333c-105.813333 0-187.733333-108.032-191.146666-112.64a25.6 25.6 0 0 1 0-30.72c3.413333-4.437333 85.333333-112.64 191.146666-112.64s187.733333 108.202667 191.146667 112.64a25.6 25.6 0 0 1 0 30.72c-3.413333 4.608-85.333333 112.64-191.146667 112.64z m-136.533333-128c23.893333 26.282667 77.653333 76.8 136.533333 76.8s113.322667-51.2 136.533334-76.8c-23.893333-26.112-77.653333-76.8-136.533334-76.8s-113.322667 50.688-137.216 76.8z"  /><path  d="M739.669333 874.496a68.266667 68.266667 0 1 1 68.266667-68.266667 68.266667 68.266667 0 0 1-68.266667 68.266667z m0-85.333333a17.066667 17.066667 0 1 0 17.066667 17.066666 17.066667 17.066667 0 0 0-17.066667-17.066666z"  /></svg>