<?xml version="1.0" standalone="no"?><!DOCTYPE svg PUBLIC "-//W3C//DTD SVG 1.1//EN" "http://www.w3.org/Graphics/SVG/1.1/DTD/svg11.dtd"><svg class="icon" width="64px" height="64.00px" viewBox="0 0 1024 1024" version="1.1" xmlns="http://www.w3.org/2000/svg"><path  d="M964.266667 310.613333c-13.653333 0-25.6-11.946667-25.6-25.6v-136.533333c0-34.133333-29.013333-63.146667-64.853334-63.146667h-136.533333c-13.653333 0-25.6-11.946667-25.6-25.6S723.626667 34.133333 738.986667 34.133333h136.533333C936.96 34.133333 989.866667 87.04 989.866667 150.186667v136.533333c0 13.653333-11.946667 23.893333-25.6 23.893333zM873.813333 989.866667h-136.533333c-13.653333 0-25.6-11.946667-25.6-25.6s11.946667-25.6 25.6-25.6h136.533333c35.84 0 64.853333-29.013333 64.853334-64.853334v-136.533333c0-13.653333 11.946667-25.6 25.6-25.6s25.6 11.946667 25.6 25.6v136.533333c0 63.146667-52.906667 116.053333-116.053334 116.053334zM286.72 989.866667h-136.533333C87.04 989.866667 34.133333 936.96 34.133333 873.813333v-136.533333c0-13.653333 11.946667-25.6 25.6-25.6s25.6 11.946667 25.6 25.6v136.533333C85.333333 909.653333 114.346667 938.666667 150.186667 938.666667h136.533333c13.653333 0 25.6 11.946667 25.6 25.6s-11.946667 25.6-25.6 25.6zM59.733333 310.613333c-13.653333 0-25.6-11.946667-25.6-25.6v-136.533333C34.133333 87.04 87.04 34.133333 150.186667 34.133333h136.533333c13.653333 0 25.6 11.946667 25.6 25.6S300.373333 85.333333 286.72 85.333333h-136.533333C114.346667 85.333333 85.333333 114.346667 85.333333 150.186667v136.533333c0 13.653333-11.946667 23.893333-25.6 23.893333z"  /><path  d="M488.106667 738.986667c-138.24 0-252.586667-112.64-252.586667-252.586667s112.64-252.586667 252.586667-252.586667 252.586667 112.64 252.586666 252.586667-114.346667 252.586667-252.586666 252.586667z m0-452.266667c-110.933333 0-201.386667 90.453333-201.386667 201.386667s90.453333 201.386667 201.386667 201.386666S687.786667 597.333333 687.786667 488.106667 597.333333 286.72 488.106667 286.72z"  /><path  d="M762.88 788.48c-6.826667 0-13.653333-1.706667-18.773333-6.826667L631.466667 669.013333c-10.24-10.24-10.24-25.6 0-35.84s25.6-10.24 35.84 0l112.64 112.64c10.24 10.24 10.24 25.6 0 35.84-3.413333 5.12-10.24 6.826667-17.066667 6.826667z"  /></svg>