<?xml version="1.0" standalone="no"?><!DOCTYPE svg PUBLIC "-//W3C//DTD SVG 1.1//EN" "http://www.w3.org/Graphics/SVG/1.1/DTD/svg11.dtd"><svg class="icon" width="64px" height="64.00px" viewBox="0 0 1024 1024" version="1.1" xmlns="http://www.w3.org/2000/svg"><path  d="M465.408 953.173333H115.541333a72.192 72.192 0 0 1-72.192-72.192V134.826667a72.362667 72.362667 0 0 1 72.192-72.192h291.84l116.565334 139.946666h384.512a72.362667 72.362667 0 0 1 72.192 72.192v209.92a25.6 25.6 0 0 1-51.2 0V274.773333a21.162667 21.162667 0 0 0-20.992-20.992H500.053333l-116.565333-139.946666H115.541333A21.162667 21.162667 0 0 0 94.549333 134.826667v746.154666a21.162667 21.162667 0 0 0 20.992 20.992h349.866667a25.6 25.6 0 1 1 0 51.2z"  /><path  d="M424.618667 420.352h-233.813334a25.6 25.6 0 0 1 0-51.2h233.813334a25.6 25.6 0 0 1 0 51.2zM347.648 562.005333h-156.842667a25.6 25.6 0 0 1 0-51.2h156.842667a25.6 25.6 0 0 1 0 51.2zM761.685333 961.365333a196.266667 196.266667 0 1 1 196.266667-196.266666 196.437333 196.437333 0 0 1-196.266667 196.266666z m0-341.333333a145.066667 145.066667 0 1 0 145.066667 145.066667 145.237333 145.237333 0 0 0-145.066667-145.066667z"  /><path  d="M684.885333 867.498667a25.6 25.6 0 0 1-24.405333-34.133334l39.253333-114.688a25.6 25.6 0 0 1 16.213334-17.066666l115.2-38.4a25.770667 25.770667 0 0 1 26.282666 6.144 25.6 25.6 0 0 1 6.144 26.112l-39.253333 116.053333a25.6 25.6 0 0 1-16.213333 17.066667l-115.2 37.546666a27.306667 27.306667 0 0 1-8.021334 1.365334z m58.538667-120.490667L725.333333 802.133333l54.442667-18.261333 18.090667-54.442667z"  /></svg>