<?xml version="1.0" standalone="no"?><!DOCTYPE svg PUBLIC "-//W3C//DTD SVG 1.1//EN" "http://www.w3.org/Graphics/SVG/1.1/DTD/svg11.dtd"><svg class="icon" width="64px" height="64.00px" viewBox="0 0 1024 1024" version="1.1" xmlns="http://www.w3.org/2000/svg"><path  d="M559.786667 989.866667H155.306667c-51.2 0-92.16-40.96-92.16-92.16V126.293333c0-51.2 40.96-92.16 92.16-92.16h694.613333c51.2 0 92.16 40.96 92.16 92.16v285.013334c0 13.653333-11.946667 25.6-25.6 25.6s-25.6-11.946667-25.6-25.6V126.293333c0-22.186667-18.773333-40.96-40.96-40.96H155.306667C131.413333 85.333333 114.346667 104.106667 114.346667 126.293333v769.706667c0 22.186667 18.773333 40.96 40.96 40.96h404.48c13.653333 0 25.6 11.946667 25.6 25.6s-11.946667 27.306667-25.6 27.306667z"  /><path  d="M728.746667 892.586667c-107.52 0-196.266667-87.04-196.266667-196.266667 0-107.52 87.04-196.266667 196.266667-196.266667 107.52 0 196.266667 87.04 196.266666 196.266667S836.266667 892.586667 728.746667 892.586667z m0-339.626667c-80.213333 0-145.066667 64.853333-145.066667 145.066667s64.853333 145.066667 145.066667 145.066666 145.066667-64.853333 145.066666-145.066666-64.853333-145.066667-145.066666-145.066667z"  /><path  d="M935.253333 930.133333c-6.826667 0-13.653333-1.706667-18.773333-6.826666l-85.333333-85.333334c-10.24-10.24-10.24-25.6 0-35.84s25.6-10.24 35.84 0l85.333333 85.333334c10.24 10.24 10.24 25.6 0 35.84-3.413333 5.12-10.24 6.826667-17.066667 6.826666z"  /></svg>