<?xml version="1.0" standalone="no"?><!DOCTYPE svg PUBLIC "-//W3C//DTD SVG 1.1//EN" "http://www.w3.org/Graphics/SVG/1.1/DTD/svg11.dtd"><svg class="icon" width="64px" height="64.00px" viewBox="0 0 1024 1024" version="1.1" xmlns="http://www.w3.org/2000/svg"><path  d="M924.330667 658.944c-0.853333-1.365333-1.536-2.56-2.389334-3.925333-25.258667-38.741333-77.824-50.176-119.466666-26.112l-119.466667 68.949333-175.616-97.450667c-7.850667-4.437333-17.408-4.266667-25.258667 0.170667l-71.168 40.96c-6.997333 4.096-11.605333 11.093333-12.629333 19.285333-0.853333 8.021333 2.048 16.042667 7.850667 21.674667l115.2 108.544-63.488 36.693333-78.677334-36.693333c-7.509333-3.584-16.384-3.072-23.552 1.024l-53.248 30.72c-7.68 4.437333-12.458667 12.458667-12.8 21.333333s4.096 17.237333 11.434667 22.186667l170.325333 112.469333c11.093333 7.338667 23.893333 11.093333 36.693334 11.093334 11.434667 0 23.04-3.072 33.28-9.045334L892.416 778.24a87.4496 87.4496 0 0 0 31.914667-119.296zM866.816 733.866667L515.754667 936.618667c-5.12 2.901333-11.264 2.730667-16.213334-0.512l-135.68-89.6 5.802667-3.413334 78.677333 36.693334c7.509333 3.584 16.384 3.072 23.552-1.024l104.789334-60.586667c6.997333-4.096 11.605333-11.093333 12.629333-19.285333 0.853333-8.021333-2.048-16.042667-7.850667-21.674667l-115.2-108.544 28.672-16.554667 175.616 97.450667c7.850667 4.437333 17.408 4.266667 25.258667-0.170667l132.096-76.288c17.92-10.410667 40.789333-5.973333 51.029333 9.728v0.170667l1.024 1.536c10.069333 17.408 4.096 39.424-13.141333 49.322667z"  /><path  d="M313.002667 938.666667h-115.712c-32.085333 0-58.197333-26.112-58.197334-58.197334V143.530667C139.264 111.445333 165.205333 85.333333 197.290667 85.333333h477.184v147.285334c0 14.165333 11.434667 25.6 25.6 25.6h132.778666v294.229333c0 14.165333 11.434667 25.6 25.6 25.6s25.6-11.434667 25.6-25.6V221.696c0-6.656-2.56-13.141333-7.338666-17.92l-158.378667-162.133333s-0.170667 0-0.170667-0.170667c-0.853333-0.853333-1.706667-1.536-2.730666-2.218667-0.341333-0.341333-0.682667-0.682667-1.024-0.853333-2.730667-1.877333-5.802667-3.242667-9.216-3.925333-1.706667-0.170667-3.413333-0.341333-5.12-0.341334H197.290667c-60.245333 0-109.226667 48.981333-109.226667 109.397334v736.938666c0 60.245333 49.152 109.397333 109.397333 109.397334h115.712c14.165333 0 25.6-11.434667 25.6-25.6s-11.605333-25.6-25.770666-25.6zM725.674667 122.538667l82.432 84.48h-82.432V122.538667z"  /><path  d="M461.653333 214.528a25.429333 25.429333 0 0 0-36.181333 0l-67.925333 67.925333-67.925334-67.925333a25.429333 25.429333 0 0 0-36.181333 0 25.429333 25.429333 0 0 0 0 36.181333l56.661333 56.661334h-38.570666c-14.165333 0-25.6 11.434667-25.6 25.6s11.434667 25.6 25.6 25.6h60.416v34.816h-60.416c-14.165333 0-25.6 11.434667-25.6 25.6s11.434667 25.6 25.6 25.6h60.416v60.416c0 14.165333 11.434667 25.6 25.6 25.6s25.6-11.434667 25.6-25.6v-60.416h60.245333c14.165333 0 25.6-11.434667 25.6-25.6s-11.434667-25.6-25.6-25.6h-60.245333v-34.816h60.245333c14.165333 0 25.6-11.434667 25.6-25.6s-11.434667-25.6-25.6-25.6h-38.570667l56.661334-56.661334a25.6 25.6 0 0 0 0.170666-36.181333z"  /></svg>