<?xml version="1.0" standalone="no"?><!DOCTYPE svg PUBLIC "-//W3C//DTD SVG 1.1//EN" "http://www.w3.org/Graphics/SVG/1.1/DTD/svg11.dtd"><svg class="icon" width="64px" height="64.00px" viewBox="0 0 1024 1024" version="1.1" xmlns="http://www.w3.org/2000/svg"><path  d="M485.256533 448.9728c-20.241067 0-39.594667-4.027733-54.562133-11.434667L132.522667 290.2016c-20.411733-10.0864-32.170667-26.282667-32.290134-44.373333-0.119467-18.346667 11.707733-34.935467 32.477867-45.533867l301.329067-153.634133C449.911467 38.5536 470.357333 34.133333 491.690667 34.133333c20.258133 0 39.594667 4.061867 54.562133 11.434667l298.1888 147.336533c20.411733 10.0864 32.170667 26.3168 32.290133 44.424534 0.119467 18.346667-11.7248 34.935467-32.494933 45.499733l-301.312 153.634133c-15.872 8.0896-36.352 12.561067-57.685333 12.561067l0.017066-0.0512zM154.4704 245.3504l298.222933 147.370667c8.106667 3.976533 19.933867 6.2976 32.494934 6.2976 13.4656 0 26.248533-2.594133 35.140266-7.133867l301.329067-153.634133 0.750933-0.4096-298.222933-147.319467c-8.106667-3.9936-19.968-6.3488-32.529067-6.3488-13.4144 0-26.2144 2.594133-35.106133 7.133867l-301.277867 153.6-0.750933 0.392533-0.0512 0.0512zM423.3216 989.866667c-10.325333 0-21.060267-2.747733-32.0512-8.0896l-0.631467-0.3584L124.177067 841.045333C92.296533 825.224533 68.266667 791.330133 68.266667 762.112V383.709867C68.266667 357.188267 87.688533 337.92 114.363733 337.92c10.325333 0 21.060267 2.696533 32.0512 8.0896l0.631467 0.324267 266.461867 140.356266c31.880533 15.8208 55.9104 49.7152 55.9104 78.984534v378.402133c0 26.504533-19.370667 45.7728-46.097067 45.7728z m-9.898667-52.957867c2.5088 1.194667 4.539733 1.911467 6.126934 2.3552V565.725867c0-8.0896-11.246933-25.838933-28.279467-34.2016l-0.631467-0.341334L124.245333 390.8608a33.28 33.28 0 0 0-6.126933-2.304v373.521067c0 8.106667 11.281067 25.838933 28.279467 34.218666l0.631466 0.324267L413.422933 936.96v-0.0512zM566.613333 989.866667c-26.7264 0-46.08-19.268267-46.08-45.7728V565.691733c0-29.269333 23.995733-63.146667 55.876267-78.9504l267.093333-140.714666c10.9568-5.376 21.725867-8.0896 32.0512-8.0896 26.6752 0 46.062933 19.2512 46.062934 45.7728v378.368c0 29.252267-23.978667 63.146667-55.876267 78.933333l-267.093333 140.765867c-9.915733 5.12-20.8896 7.8848-32.034134 8.0896z m299.093334-599.022934l-267.008 140.680534c-17.0496 8.362667-28.330667 26.112-28.330667 34.2016v373.538133c2.133333-0.580267 4.1984-1.365333 6.161067-2.3552l267.025066-140.663467c16.981333-8.3456 28.2624-26.077867 28.2624-34.184533V388.522667a33.792 33.792 0 0 0-6.109866 2.321066z"  /></svg>