<?xml version="1.0" standalone="no"?><!DOCTYPE svg PUBLIC "-//W3C//DTD SVG 1.1//EN" "http://www.w3.org/Graphics/SVG/1.1/DTD/svg11.dtd"><svg class="icon" width="64px" height="64.00px" viewBox="0 0 1024 1024" version="1.1" xmlns="http://www.w3.org/2000/svg"><path  d="M921.6 93.866667H102.4A59.733333 59.733333 0 0 0 42.666667 153.6v102.4A59.733333 59.733333 0 0 0 102.4 315.733333h819.2a59.733333 59.733333 0 0 0 59.733333-59.733333V153.6A59.733333 59.733333 0 0 0 921.6 93.866667z m-819.2 51.2h819.2a8.533333 8.533333 0 0 1 8.533333 8.533333v102.4a8.533333 8.533333 0 0 1-8.533333 8.533333H102.4a8.533333 8.533333 0 0 1-8.533333-8.533333V153.6a8.533333 8.533333 0 0 1 8.533333-8.533333zM409.6 401.066667H102.4A59.733333 59.733333 0 0 0 42.666667 460.8v102.4A59.733333 59.733333 0 0 0 102.4 622.933333h307.2a59.733333 59.733333 0 0 0 59.733333-59.733333v-102.4a59.733333 59.733333 0 0 0-59.733333-59.733333z m-307.2 51.2h307.2a8.533333 8.533333 0 0 1 8.533333 8.533333v102.4a8.533333 8.533333 0 0 1-8.533333 8.533333H102.4a8.533333 8.533333 0 0 1-8.533333-8.533333v-102.4a8.533333 8.533333 0 0 1 8.533333-8.533333zM409.6 708.266667H102.4A59.733333 59.733333 0 0 0 42.666667 768v102.4A59.733333 59.733333 0 0 0 102.4 930.133333h307.2a59.733333 59.733333 0 0 0 59.733333-59.733333v-102.4a59.733333 59.733333 0 0 0-59.733333-59.733333z m-307.2 51.2h307.2a8.533333 8.533333 0 0 1 8.533333 8.533333v102.4a8.533333 8.533333 0 0 1-8.533333 8.533333H102.4a8.533333 8.533333 0 0 1-8.533333-8.533333v-102.4a8.533333 8.533333 0 0 1 8.533333-8.533333zM921.6 401.066667H614.4a59.733333 59.733333 0 0 0-59.733333 59.733333v102.4a59.733333 59.733333 0 0 0 59.733333 59.733333h307.2a59.733333 59.733333 0 0 0 59.733333-59.733333v-102.4a59.733333 59.733333 0 0 0-59.733333-59.733333z m-307.2 51.2h307.2a8.533333 8.533333 0 0 1 8.533333 8.533333v102.4a8.533333 8.533333 0 0 1-8.533333 8.533333H614.4a8.533333 8.533333 0 0 1-8.533333-8.533333v-102.4a8.533333 8.533333 0 0 1 8.533333-8.533333zM921.6 708.266667H614.4a59.733333 59.733333 0 0 0-59.733333 59.733333v102.4a59.733333 59.733333 0 0 0 59.733333 59.733333h307.2a59.733333 59.733333 0 0 0 59.733333-59.733333v-102.4a59.733333 59.733333 0 0 0-59.733333-59.733333z m-307.2 51.2h307.2a8.533333 8.533333 0 0 1 8.533333 8.533333v102.4a8.533333 8.533333 0 0 1-8.533333 8.533333H614.4a8.533333 8.533333 0 0 1-8.533333-8.533333v-102.4a8.533333 8.533333 0 0 1 8.533333-8.533333z"  /></svg>