<?xml version="1.0" standalone="no"?><!DOCTYPE svg PUBLIC "-//W3C//DTD SVG 1.1//EN" "http://www.w3.org/Graphics/SVG/1.1/DTD/svg11.dtd"><svg class="icon" width="64px" height="64.00px" viewBox="0 0 1024 1024" version="1.1" xmlns="http://www.w3.org/2000/svg"><path  d="M426.666667 537.6a59.733333 59.733333 0 0 1 59.733333 59.733333v307.2a59.733333 59.733333 0 0 1-59.733333 59.733334H85.333333A59.733333 59.733333 0 0 1 25.6 904.533333V597.333333A59.733333 59.733333 0 0 1 85.333333 537.6z m512 0a59.733333 59.733333 0 0 1 59.733333 59.733333v307.2a59.733333 59.733333 0 0 1-59.733333 59.733334H597.333333a59.733333 59.733333 0 0 1-59.733333-59.733334V597.333333a59.733333 59.733333 0 0 1 59.733333-59.733333z m-512 51.2H85.333333a8.533333 8.533333 0 0 0-8.533333 8.533333v307.2a8.533333 8.533333 0 0 0 8.533333 8.533334h341.333334a8.533333 8.533333 0 0 0 8.533333-8.533334V597.333333a8.533333 8.533333 0 0 0-8.533333-8.533333z m512 0H597.333333a8.533333 8.533333 0 0 0-8.533333 8.533333v307.2a8.533333 8.533333 0 0 0 8.533333 8.533334h341.333334a8.533333 8.533333 0 0 0 8.533333-8.533334V597.333333a8.533333 8.533333 0 0 0-8.533333-8.533333zM230.4 699.733333a25.6 25.6 0 0 1 0 51.2h-85.333333a25.6 25.6 0 0 1 0-51.2h85.333333z m512 0a25.6 25.6 0 0 1 0 51.2h-85.333333a25.6 25.6 0 0 1 0-51.2h85.333333zM682.666667 59.733333A59.733333 59.733333 0 0 1 742.4 119.466667v307.2a59.733333 59.733333 0 0 1-59.733333 59.733333H341.333333a59.733333 59.733333 0 0 1-59.733333-59.733333V119.466667A59.733333 59.733333 0 0 1 341.333333 59.733333z m0 51.2H341.333333a8.533333 8.533333 0 0 0-8.533333 8.533334v307.2a8.533333 8.533333 0 0 0 8.533333 8.533333h341.333334a8.533333 8.533333 0 0 0 8.533333-8.533333V119.466667a8.533333 8.533333 0 0 0-8.533333-8.533334zM486.4 221.866667a25.6 25.6 0 0 1 0 51.2h-85.333333a25.6 25.6 0 0 1 0-51.2h85.333333z"  /></svg>