<?xml version="1.0" standalone="no"?><!DOCTYPE svg PUBLIC "-//W3C//DTD SVG 1.1//EN" "http://www.w3.org/Graphics/SVG/1.1/DTD/svg11.dtd"><svg class="icon" width="64px" height="64.00px" viewBox="0 0 1024 1024" version="1.1" xmlns="http://www.w3.org/2000/svg"><path  d="M749.397333 863.914667a114.858667 114.858667 0 1 1 80.896-34.133334 113.664 113.664 0 0 1-80.896 34.133334z m0-178.005334a63.317333 63.317333 0 0 0-44.885333 108.202667 64.853333 64.853333 0 0 0 89.6 0 63.488 63.488 0 0 0-44.714667-108.202667zM245.077333 863.914667a115.2 115.2 0 0 1-105.984-70.656 114.517333 114.517333 0 0 1-8.704-44.032 114.176 114.176 0 0 1 34.133334-80.896 114.517333 114.517333 0 0 1 187.733333 124.757333 112.298667 112.298667 0 0 1-24.917333 37.205333 113.493333 113.493333 0 0 1-80.896 34.133334z m0-178.005334a66.730667 66.730667 0 0 0-24.405333 4.778667 63.829333 63.829333 0 0 0-20.48 13.824 62.122667 62.122667 0 0 0-13.824 20.48 64.341333 64.341333 0 0 0 0 48.64 62.122667 62.122667 0 0 0 13.824 20.48 63.829333 63.829333 0 0 0 20.48 13.824 64.853333 64.853333 0 0 0 48.64 0 62.122667 62.122667 0 0 0 20.48-13.824 63.146667 63.146667 0 0 0 18.602667-44.885333 64 64 0 0 0-39.082667-58.538667 65.194667 65.194667 0 0 0-24.234667-4.778667zM660.309333 774.826667H333.994667a25.6 25.6 0 0 1 0-51.2h326.314666a25.6 25.6 0 0 1 0 51.2zM897.706667 774.826667h-59.392a25.6 25.6 0 0 1 0-51.2h59.392a34.133333 34.133333 0 0 0 34.133333-34.133334V506.538667a181.930667 181.930667 0 0 0-22.869333-88.405334l-88.234667-158.890666a96.256 96.256 0 0 0-34.133333-35.157334 94.037333 94.037333 0 0 0-47.274667-12.8H126.293333A34.133333 34.133333 0 0 0 102.4 221.866667a32.938667 32.938667 0 0 0-9.898667 23.893333v444.245333a34.133333 34.133333 0 0 0 9.898667 23.893334 34.133333 34.133333 0 0 0 23.722667 9.728h29.866666a25.6 25.6 0 0 1 0 51.2H126.293333a85.333333 85.333333 0 0 1-85.333333-85.333334V245.077333a85.333333 85.333333 0 0 1 85.333333-85.333333h612.522667a144.213333 144.213333 0 0 1 126.122667 74.24L953.173333 392.533333a232.618667 232.618667 0 0 1 29.354667 113.322667v184.149333A85.333333 85.333333 0 0 1 957.610667 750.933333a85.333333 85.333333 0 0 1-59.904 23.893334zM956.928 709.461333a26.112 26.112 0 0 1-20.138667-9.728l-53.248-68.266666a92.330667 92.330667 0 0 0-72.874666-34.133334H67.072a25.6 25.6 0 1 1 0-51.2H810.666667a145.749333 145.749333 0 0 1 62.805333 14.336 144.213333 144.213333 0 0 1 50.176 40.448l53.418667 68.266667a25.770667 25.770667 0 0 1-4.266667 34.816 26.282667 26.282667 0 0 1-15.872 5.461333zM874.496 329.898667H67.072a25.6 25.6 0 0 1 0-51.2h807.424a25.6 25.6 0 0 1 0 51.2zM690.005333 477.866667a25.6 25.6 0 0 1-25.6-25.6v-147.968a25.6 25.6 0 0 1 51.2 0v148.309333a25.6 25.6 0 0 1-25.6 25.258667zM393.386667 477.866667a25.6 25.6 0 0 1-25.6-25.6v-147.968a25.6 25.6 0 0 1 51.2 0v148.309333a25.6 25.6 0 0 1-25.6 25.258667zM949.930667 477.866667H67.072a25.6 25.6 0 0 1 0-51.2h882.858667a25.6 25.6 0 0 1 0 51.2z" /></svg>