<?xml version="1.0" standalone="no"?><!DOCTYPE svg PUBLIC "-//W3C//DTD SVG 1.1//EN" "http://www.w3.org/Graphics/SVG/1.1/DTD/svg11.dtd"><svg class="icon" width="64px" height="64.00px" viewBox="0 0 1024 1024" version="1.1" xmlns="http://www.w3.org/2000/svg"><path  d="M944.298667 737.109333h-99.84a25.6 25.6 0 1 1 0-51.2h74.24V445.44a107.52 107.52 0 0 0-107.52-107.349333H611.669333a25.6 25.6 0 0 1 0-51.2h199.509334a158.72 158.72 0 0 1 158.72 158.549333v266.069333a25.6 25.6 0 0 1-25.6 25.6zM611.669333 737.109333a25.6 25.6 0 0 1-25.6-25.6V245.930667a39.765333 39.765333 0 0 0-11.946666-28.842667A40.618667 40.618667 0 0 0 546.133333 204.8H146.261333a40.618667 40.618667 0 0 0-28.842666 11.946667 39.936 39.936 0 0 0-12.117334 28.842666v440.32h40.96a25.6 25.6 0 0 1 0 51.2h-66.56a25.6 25.6 0 0 1-25.6-25.6V245.930667A91.989333 91.989333 0 0 1 146.261333 153.6H546.133333a91.989333 91.989333 0 0 1 91.989334 91.989333v465.92a25.6 25.6 0 0 1-26.453334 25.6zM578.56 737.109333h-166.229333a25.6 25.6 0 1 1 0-51.2h166.229333a25.6 25.6 0 1 1 0 51.2zM728.064 870.4A141.994667 141.994667 0 1 1 870.4 728.064 142.165333 142.165333 0 0 1 728.064 870.4z m0-232.789333a90.794667 90.794667 0 1 0 91.136 90.453333 90.965333 90.965333 0 0 0-91.136-90.794667zM279.210667 870.4a141.994667 141.994667 0 1 1 141.994666-141.994667A142.165333 142.165333 0 0 1 279.210667 870.4z m0-232.789333a90.794667 90.794667 0 1 0 90.794666 90.794666 90.965333 90.965333 0 0 0-90.794666-91.136z" /></svg>