<?xml version="1.0" standalone="no"?><!DOCTYPE svg PUBLIC "-//W3C//DTD SVG 1.1//EN" "http://www.w3.org/Graphics/SVG/1.1/DTD/svg11.dtd"><svg class="icon" width="64px" height="64.00px" viewBox="0 0 1024 1024" version="1.1" xmlns="http://www.w3.org/2000/svg"><path  d="M197.12 786.602667h-51.2A94.890667 94.890667 0 0 1 51.2 691.882667V233.301333a94.890667 94.890667 0 0 1 94.037333-94.890666H592.213333a95.061333 95.061333 0 0 1 94.890667 94.890666v469.674667a25.6 25.6 0 0 1-51.2 0V233.301333a43.690667 43.690667 0 0 0-43.690667-43.690666H145.237333A43.690667 43.690667 0 0 0 102.4 233.301333v458.581334a43.52 43.52 0 0 0 43.52 43.52h51.2a25.6 25.6 0 0 1 0 51.2zM947.882667 517.12H661.504a25.6 25.6 0 0 1 0-51.2h286.378667a25.6 25.6 0 0 1 0 51.2zM878.592 773.802667h-23.893333a25.6 25.6 0 0 1 0-51.2h23.893333A43.690667 43.690667 0 0 0 921.6 678.912V477.866667l-93.866667-192a43.52 43.52 0 0 0-39.082666-24.576h-114.688a25.6 25.6 0 0 1 0-51.2h115.370666a95.402667 95.402667 0 0 1 85.333334 53.248L970.922667 460.8a25.941333 25.941333 0 0 1 2.56 11.264v206.848a94.890667 94.890667 0 0 1-94.890667 94.890667zM297.301333 885.589333a122.709333 122.709333 0 0 1-122.197333-122.368 122.88 122.88 0 0 1 61.098667-105.984 122.197333 122.197333 0 0 1 183.296 105.984 122.709333 122.709333 0 0 1-122.197334 122.368z m0-193.536a71.168 71.168 0 0 0-70.997333 71.168 70.997333 70.997333 0 0 0 106.496 61.44 71.168 71.168 0 0 0 35.498667-61.44 70.314667 70.314667 0 0 0-35.498667-61.610666 72.021333 72.021333 0 0 0-35.498667-9.557334zM735.914667 885.589333A122.709333 122.709333 0 0 1 614.4 763.221333a122.88 122.88 0 0 1 61.098667-105.984 122.197333 122.197333 0 0 1 183.296 105.984 122.709333 122.709333 0 0 1-122.197334 122.368z m0-193.536A71.168 71.168 0 0 0 665.6 763.221333a70.997333 70.997333 0 1 0 106.496-61.610666 71.509333 71.509333 0 0 0-36.181333-9.557334zM621.226667 786.602667H417.792a25.6 25.6 0 0 1 0-51.2H621.226667a25.6 25.6 0 1 1 0 51.2z" /></svg>