<?xml version="1.0" standalone="no"?><!DOCTYPE svg PUBLIC "-//W3C//DTD SVG 1.1//EN" "http://www.w3.org/Graphics/SVG/1.1/DTD/svg11.dtd"><svg class="icon" width="64px" height="64.00px" viewBox="0 0 1024 1024" version="1.1" xmlns="http://www.w3.org/2000/svg"><path  d="M443.733333 989.866667H194.56c-51.2 0-92.16-40.96-92.16-92.16V126.293333C102.4 75.093333 143.36 34.133333 194.56 34.133333H648.533333c6.826667 0 13.653333 3.413333 18.773334 8.533334L870.4 267.946667c3.413333 5.12 6.826667 10.24 6.826667 17.066666v203.093334c0 13.653333-11.946667 25.6-25.6 25.6s-25.6-11.946667-25.6-25.6V295.253333L636.586667 85.333333H194.56C172.373333 85.333333 153.6 104.106667 153.6 126.293333v769.706667c0 22.186667 18.773333 40.96 40.96 40.96H443.733333c13.653333 0 25.6 11.946667 25.6 25.6S459.093333 989.866667 443.733333 989.866667z"  /><path  d="M648.533333 967.68c-6.826667 0-13.653333-1.706667-18.773333-6.826667l-112.64-112.64c-10.24-10.24-10.24-25.6 0-35.84l112.64-112.64c10.24-10.24 25.6-10.24 35.84 0s10.24 25.6 0 35.84l-95.573333 95.573334 95.573333 95.573333c10.24 10.24 10.24 25.6 0 35.84-5.12 1.706667-11.946667 5.12-17.066667 5.12z"  /><path  d="M863.573333 853.333333H534.186667c-13.653333 0-25.6-11.946667-25.6-25.6s11.946667-25.6 25.6-25.6h327.68c5.12 0 8.533333-3.413333 8.533333-8.533333V648.533333c0-13.653333 11.946667-25.6 25.6-25.6s25.6 10.24 25.6 25.6v146.773334c0 32.426667-25.6 58.026667-58.026667 58.026666zM851.626667 312.32H658.773333c-32.426667 0-59.733333-27.306667-59.733333-59.733333V59.733333c0-13.653333 11.946667-25.6 25.6-25.6s25.6 11.946667 25.6 25.6v192.853334c0 5.12 3.413333 8.533333 8.533333 8.533333h192.853334c13.653333 0 25.6 11.946667 25.6 25.6s-11.946667 25.6-25.6 25.6z"  /></svg>