<?xml version="1.0" standalone="no"?><!DOCTYPE svg PUBLIC "-//W3C//DTD SVG 1.1//EN" "http://www.w3.org/Graphics/SVG/1.1/DTD/svg11.dtd"><svg class="icon" width="64px" height="64.00px" viewBox="0 0 1024 1024" version="1.1" xmlns="http://www.w3.org/2000/svg"><path  d="M807.253333 989.866667H216.746667c-51.2 0-92.16-40.96-92.16-92.16V126.293333c0-51.2 40.96-92.16 92.16-92.16h452.266666c6.826667 0 13.653333 3.413333 18.773334 8.533334l203.093333 226.986666c3.413333 5.12 6.826667 10.24 6.826667 17.066667v610.986667c1.706667 51.2-39.253333 92.16-90.453334 92.16zM216.746667 85.333333c-22.186667 0-40.96 18.773333-40.96 40.96v769.706667c0 22.186667 18.773333 40.96 40.96 40.96h588.8c22.186667 0 40.96-18.773333 40.96-40.96V295.253333L658.773333 85.333333H216.746667z"  /><path  d="M443.733333 786.773333c-6.826667 0-13.653333-1.706667-18.773333-6.826666L312.32 665.6c-10.24-10.24-10.24-25.6 0-35.84l112.64-112.64c10.24-10.24 25.6-10.24 35.84 0s10.24 25.6 0 35.84L366.933333 648.533333l95.573334 95.573334c10.24 10.24 10.24 25.6 0 35.84-5.12 3.413333-11.946667 6.826667-18.773334 6.826666z"  /><path  d="M658.773333 674.133333H331.093333c-13.653333 0-25.6-11.946667-25.6-25.6s11.946667-25.6 25.6-25.6h327.68c5.12 0 8.533333-3.413333 8.533334-8.533333v-146.773333c0-13.653333 11.946667-25.6 25.6-25.6s25.6 11.946667 25.6 25.6V614.4c0 32.426667-27.306667 59.733333-59.733334 59.733333zM873.813333 312.32H680.96c-32.426667 0-59.733333-27.306667-59.733333-59.733333V59.733333c1.706667-13.653333 11.946667-25.6 27.306666-25.6s25.6 11.946667 25.6 25.6v192.853334c0 5.12 3.413333 8.533333 8.533334 8.533333h192.853333c13.653333 0 25.6 11.946667 25.6 25.6s-13.653333 25.6-27.306667 25.6z"  /></svg>