<?xml version="1.0" standalone="no"?><!DOCTYPE svg PUBLIC "-//W3C//DTD SVG 1.1//EN" "http://www.w3.org/Graphics/SVG/1.1/DTD/svg11.dtd"><svg class="icon" width="64px" height="64.00px" viewBox="0 0 1024 1024" version="1.1" xmlns="http://www.w3.org/2000/svg"><path  d="M235.52 462.506667c-6.826667 0-13.653333-1.706667-18.773333-6.826667L40.96 278.186667c-5.12-5.12-6.826667-11.946667-6.826667-18.773334 0-6.826667 3.413333-13.653333 8.533334-18.773333l175.786666-150.186667c10.24-8.533333 27.306667-8.533333 35.84 3.413334 8.533333 10.24 8.533333 27.306667-3.413333 35.84l-155.306667 133.12 157.013334 157.013333c10.24 10.24 10.24 25.6 0 35.84-3.413333 3.413333-10.24 6.826667-17.066667 6.826667z"  /><path  d="M638.293333 940.373333h-426.666666c-13.653333 0-25.6-11.946667-25.6-25.6s11.946667-25.6 25.6-25.6h426.666666c80.213333 0 158.72-34.133333 216.746667-93.866666 58.026667-59.733333 88.746667-138.24 85.333333-218.453334-6.826667-160.426667-141.653333-290.133333-300.373333-290.133333h-580.266667c-13.653333 0-25.6-11.946667-25.6-25.6s11.946667-25.6 25.6-25.6h578.56c187.733333 0 344.746667 151.893333 351.573334 337.92 3.413333 93.866667-32.426667 187.733333-98.986667 256-66.56 69.973333-158.72 110.933333-252.586667 110.933333z"  /></svg>