<?xml version="1.0" standalone="no"?><!DOCTYPE svg PUBLIC "-//W3C//DTD SVG 1.1//EN" "http://www.w3.org/Graphics/SVG/1.1/DTD/svg11.dtd"><svg class="icon" width="64px" height="64.00px" viewBox="0 0 1024 1024" version="1.1" xmlns="http://www.w3.org/2000/svg"><path  d="M267.946667 856.064a107.008 107.008 0 1 1 107.52-107.008 107.008 107.008 0 0 1-107.52 107.008z m0-162.816a55.808 55.808 0 1 0 56.32 55.808 55.808 55.808 0 0 0-56.32-55.808zM735.744 856.064a107.008 107.008 0 1 1 106.837333-107.008 107.008 107.008 0 0 1-106.837333 107.008z m0-162.816a55.808 55.808 0 1 0 55.637333 55.808 55.808 55.808 0 0 0-55.637333-55.808z"  /><path  d="M654.336 774.656H349.354667a25.6 25.6 0 0 1 0-51.2h279.381333V286.72H361.472a25.6 25.6 0 0 1 0-51.2h292.864a25.6 25.6 0 0 1 25.6 25.6v487.936a25.6 25.6 0 0 1-25.6 25.6zM186.709333 774.656H64.682667a25.6 25.6 0 0 1-25.6-25.6v-278.186667a25.6 25.6 0 0 1 51.2 0v252.586667h96.426666a25.6 25.6 0 0 1 0 51.2z"  /><path  d="M959.317333 774.656h-125.781333a25.6 25.6 0 0 1 0-51.2h100.181333v-138.581333l-117.76-155.818667h-136.533333v320a25.6 25.6 0 0 1-51.2 0V403.456a25.6 25.6 0 0 1 25.6-25.6h174.762667a26.112 26.112 0 0 1 20.48 10.069333l130.730666 172.885334a26.282667 26.282667 0 0 1 5.12 15.36v172.885333a25.6 25.6 0 0 1-25.6 25.6zM181.930667 374.272a72.192 72.192 0 1 1 72.192-72.021333 72.021333 72.021333 0 0 1-72.192 72.021333z m0-93.013333a20.992 20.992 0 1 0 20.992 20.992 20.992 20.992 0 0 0-20.992-20.992z"  /><path  d="M181.930667 436.394667a25.6 25.6 0 0 1-25.6-25.6v-62.122667a25.6 25.6 0 0 1 51.2 0v62.122667a25.6 25.6 0 0 1-25.6 25.6zM181.930667 281.258667A25.6 25.6 0 0 1 156.330667 256v-62.464a25.6 25.6 0 0 1 51.2 0V256a25.6 25.6 0 0 1-25.6 25.258667z"  /><path  d="M88.064 382.122667a25.6 25.6 0 0 1-12.970667-47.786667l53.76-31.061333a25.6 25.6 0 0 1 25.6 44.373333L100.693333 378.709333a25.941333 25.941333 0 0 1-12.629333 3.413334zM221.866667 304.469333a25.6 25.6 0 0 1-12.8-47.786666l53.76-30.890667a25.6 25.6 0 0 1 25.6 44.202667l-53.76 31.061333a25.258667 25.258667 0 0 1-12.8 3.413333z"  /><path  d="M141.653333 304.469333a25.258667 25.258667 0 0 1-12.8-3.413333L75.093333 269.994667a25.6 25.6 0 1 1 25.6-44.202667L154.453333 256a25.6 25.6 0 0 1-12.8 47.786667zM275.968 382.122667a25.941333 25.941333 0 0 1-12.629333-3.413334l-53.76-31.061333a25.6 25.6 0 1 1 25.6-44.373333l53.76 31.061333a25.6 25.6 0 0 1-12.970667 47.786667z"  /></svg>