<?xml version="1.0" standalone="no"?><!DOCTYPE svg PUBLIC "-//W3C//DTD SVG 1.1//EN" "http://www.w3.org/Graphics/SVG/1.1/DTD/svg11.dtd"><svg class="icon" width="64px" height="64.00px" viewBox="0 0 1024 1024" version="1.1" xmlns="http://www.w3.org/2000/svg"><path  d="M512 835.072c-133.802667 0-227.328-2.901333-282.112-5.461333A99.669333 99.669333 0 0 1 134.826667 733.866667c-1.536-36.522667-3.754667-96.256-4.778667-178.517334a70.997333 70.997333 0 0 1-59.221333-66.730666c0-12.458667-0.853333-28.16-0.853334-47.616s0-39.082667 1.194667-58.538667a79.530667 79.530667 0 0 1 60.416-72.704c1.365333-41.472 3.413333-80.213333 6.144-115.370667a125.781333 125.781333 0 0 1 116.736-116.906666c73.386667-5.461333 159.914667-8.362667 257.536-8.362667 122.026667 0 207.36 4.608 257.536 8.362667a125.781333 125.781333 0 0 1 116.736 116.906666c2.901333 38.4 4.949333 77.141333 6.144 115.370667a79.530667 79.530667 0 0 1 60.416 72.704c0.853333 18.090667 1.194667 37.717333 1.194667 58.538667v47.616a71.168 71.168 0 0 1-59.221334 66.730666c-1.024 82.261333-3.242667 141.994667-4.778666 178.688a99.669333 99.669333 0 0 1-95.061334 94.890667c-55.808 3.242667-149.162667 6.144-282.965333 6.144zM152.064 358.4a28.501333 28.501333 0 0 0-29.696 26.453333c0 18.602667-1.365333 37.546667-1.194667 56.149334s0 34.133333 0.853334 45.226666a20.992 20.992 0 0 0 23.04 19.968h10.24a25.6 25.6 0 0 1 25.6 25.429334c1.024 93.866667 3.242667 160.938667 5.12 200.704a48.298667 48.298667 0 0 0 46.08 46.08c54.442667 2.56 147.114667 5.461333 279.893333 5.461333s225.450667-2.901333 279.893333-5.461333a48.128 48.128 0 0 0 46.08-45.909334c1.877333-39.936 4.096-106.837333 5.12-200.874666a25.770667 25.770667 0 0 1 25.6-25.429334h10.24a20.992 20.992 0 0 0 23.04-19.285333c0-15.018667 1.024-30.037333 0-45.226667 0-19.968 0-38.741333-1.194666-55.978666a28.501333 28.501333 0 0 0-28.842667-27.306667h-4.437333a25.6 25.6 0 0 1-25.6-24.917333c-1.194667-44.714667-3.413333-90.282667-6.656-135.338667a74.24 74.24 0 0 0-69.632-69.632C716.8 125.44 632.490667 121.002667 512 121.002667c-94.890667 0-182.613333 2.901333-253.610667 8.192a74.24 74.24 0 0 0-69.632 69.632c-3.072 40.618667-5.290667 85.333333-6.656 135.338666A25.6 25.6 0 0 1 156.501333 358.4zM324.266667 954.197333c-17.066667 0-36.522667 0-56.661334-2.56a61.269333 61.269333 0 0 1-56.490666-57.685333c-1.024-20.138667-1.706667-41.984-1.706667-64.682667v-25.6a25.429333 25.429333 0 0 1 26.112-25.088 25.770667 25.770667 0 0 1 25.088 26.112v24.576c0 21.674667 0 42.496 1.706667 61.781334a10.069333 10.069333 0 0 0 9.216 9.557333 602.794667 602.794667 0 0 0 105.301333 0 10.069333 10.069333 0 0 0 9.386667-9.386667c1.194667-19.285333 1.706667-40.106667 1.706666-61.952v-19.797333a25.429333 25.429333 0 0 1 25.088-26.112 26.112 26.112 0 0 1 26.112 25.088v20.821333c0 22.869333 0 44.714667-1.877333 64.853334a61.098667 61.098667 0 0 1-56.32 57.514666c-20.821333 1.706667-39.594667 2.56-56.661333 2.56zM699.733333 954.197333c-17.066667 0-36.522667 0-56.661333-2.56a61.44 61.44 0 0 1-56.490667-57.685333c-1.536-28.501333-2.048-57.173333-1.536-85.333333a25.6 25.6 0 0 1 25.6-25.088 25.6 25.6 0 0 1 25.088 26.112c0 26.965333 0 54.442667 1.536 81.749333a10.069333 10.069333 0 0 0 9.216 9.386667 602.794667 602.794667 0 0 0 105.301334 0 10.069333 10.069333 0 0 0 9.386666-9.386667c1.194667-19.285333 1.706667-40.106667 1.706667-61.952v-24.576a25.6 25.6 0 0 1 51.2-1.024v25.6c0 22.869333 0 44.714667-1.877333 64.853333a60.928 60.928 0 0 1-56.32 57.514667c-18.944 1.536-38.058667 2.389333-56.149334 2.389333zM373.248 716.8h-59.562667a25.6 25.6 0 0 1 0-51.2h59.562667a25.6 25.6 0 0 1 0 51.2zM710.314667 716.8h-59.392a25.6 25.6 0 0 1 0-51.2h59.392a25.6 25.6 0 0 1 0 51.2zM769.194667 597.333333H254.805333a25.770667 25.770667 0 0 1-25.6-25.258666v-99.498667c0-125.781333 5.802667-203.605333 9.216-238.933333a60.757333 60.757333 0 0 1 54.101334-54.784A2069.504 2069.504 0 0 1 512 169.130667a2048 2048 0 0 1 220.330667 9.557333 60.757333 60.757333 0 0 1 53.930666 54.954667c3.413333 35.157333 9.216 112.981333 9.216 238.933333v99.498667A25.770667 25.770667 0 0 1 769.194667 597.333333z m-489.130667-51.2h463.872v-73.557333c0-123.733333-5.632-199.68-8.874667-233.984a9.557333 9.557333 0 0 0-8.533333-8.704A1987.072 1987.072 0 0 0 512 220.330667a1977.344 1977.344 0 0 0-214.698667 9.386666 9.216 9.216 0 0 0-8.533333 8.533334c-3.413333 34.133333-9.045333 110.592-9.045333 234.154666 0 26.453333 0.170667 51.029333 0.341333 73.728z" /></svg>