<?xml version="1.0" standalone="no"?><!DOCTYPE svg PUBLIC "-//W3C//DTD SVG 1.1//EN" "http://www.w3.org/Graphics/SVG/1.1/DTD/svg11.dtd"><svg class="icon" width="64px" height="64.00px" viewBox="0 0 1024 1024" version="1.1" xmlns="http://www.w3.org/2000/svg"><path  d="M827.733333 989.866667h-631.466666c-51.2 0-93.866667-42.666667-93.866667-93.866667v-768C102.4 76.8 145.066667 34.133333 196.266667 34.133333h631.466666c51.2 0 93.866667 42.666667 93.866667 93.866667v768c0 51.2-42.666667 93.866667-93.866667 93.866667z m-631.466666-904.533334C172.373333 85.333333 153.6 104.106667 153.6 128v768c0 23.893333 18.773333 42.666667 42.666667 42.666667h631.466666c23.893333 0 42.666667-18.773333 42.666667-42.666667v-768C870.4 104.106667 851.626667 85.333333 827.733333 85.333333h-631.466666z"  /><path  d="M512 500.053333c-119.466667 0-209.92-51.2-209.92-117.76S392.533333 264.533333 512 264.533333s209.92 51.2 209.92 117.76S631.466667 500.053333 512 500.053333z m0-184.32c-98.986667 0-158.72 39.253333-158.72 66.56s61.44 66.56 158.72 66.56 158.72-39.253333 158.72-66.56-59.733333-66.56-158.72-66.56z"  /><path  d="M512 629.76c-119.466667 0-209.92-51.2-209.92-117.76v-129.706667c0-13.653333 11.946667-25.6 25.6-25.6s25.6 11.946667 25.6 25.6V512c0 27.306667 61.44 66.56 158.72 66.56s158.72-39.253333 158.72-66.56v-129.706667c0-13.653333 11.946667-25.6 25.6-25.6s25.6 11.946667 25.6 25.6V512c0 66.56-90.453333 117.76-209.92 117.76z"  /><path  d="M512 759.466667c-119.466667 0-209.92-51.2-209.92-117.76V512c0-13.653333 11.946667-25.6 25.6-25.6s25.6 11.946667 25.6 25.6v129.706667c0 27.306667 61.44 66.56 158.72 66.56s158.72-39.253333 158.72-66.56V512c0-13.653333 11.946667-25.6 25.6-25.6s25.6 11.946667 25.6 25.6v129.706667c0 66.56-90.453333 117.76-209.92 117.76z"  /></svg>