<?xml version="1.0" standalone="no"?><!DOCTYPE svg PUBLIC "-//W3C//DTD SVG 1.1//EN" "http://www.w3.org/Graphics/SVG/1.1/DTD/svg11.dtd"><svg class="icon" width="64px" height="64.00px" viewBox="0 0 1024 1024" version="1.1" xmlns="http://www.w3.org/2000/svg"><path  d="M248.490667 890.709333a105.472 105.472 0 0 1-105.301334-99.669333h-14.506666a85.333333 85.333333 0 0 1-85.333334-85.333333v-145.749334a144.384 144.384 0 0 1 80.384-130.048l3.584-1.706666L170.666667 280.917333a104.277333 104.277333 0 0 1 102.4-80.042666h392.533333a104.96 104.96 0 0 1 102.4 82.432l40.618667 144.896 3.413333 1.706666a146.602667 146.602667 0 0 1 57.002667 51.2 25.6 25.6 0 0 1-43.008 27.818667 93.013333 93.013333 0 0 0-37.034667-32.938667l-13.482667-6.826666a25.258667 25.258667 0 0 1-13.141333-16.042667l-44.032-157.184A54.442667 54.442667 0 0 0 665.6 252.074667H273.066667a53.930667 53.930667 0 0 0-52.736 41.984l-46.592 159.232a25.088 25.088 0 0 1-13.141334 15.701333l-13.482666 6.826667a93.354667 93.354667 0 0 0-51.2 84.138666v145.578667a34.133333 34.133333 0 0 0 34.133333 34.133333h38.570667a25.6 25.6 0 0 1 25.6 25.6V785.066667a54.272 54.272 0 0 0 108.544 0v-19.626667a25.6 25.6 0 0 1 25.6-25.6H494.933333a25.6 25.6 0 0 1 0 51.2h-141.141333a105.472 105.472 0 0 1-105.301333 99.669333z"  /><path  d="M258.389333 691.2a75.605333 75.605333 0 1 1 75.605334-75.605333 75.776 75.776 0 0 1-75.605334 75.605333z m0-99.84a24.405333 24.405333 0 1 0 24.405334 24.234667 24.405333 24.405333 0 0 0-24.405334-24.234667zM587.776 252.074667h-238.933333a25.258667 25.258667 0 0 1-19.797334-9.386667 25.088 25.088 0 0 1-5.802666-20.821333l19.797333-98.986667a51.2 51.2 0 0 1 48.469333-41.472h153.6a51.2 51.2 0 0 1 48.469334 41.472l19.285333 98.986667a25.088 25.088 0 0 1-5.290667 21.162666 25.258667 25.258667 0 0 1-19.797333 9.045334z m-208.213333-51.2h176.981333l-13.653333-68.266667h-149.504zM648.533333 491.52H288.426667a25.6 25.6 0 1 1 0-51.2H648.533333a25.6 25.6 0 0 1 0 51.2zM755.882667 907.264a189.269333 189.269333 0 1 1 189.269333-189.269333 189.269333 189.269333 0 0 1-189.269333 189.269333z m0-327.168a138.069333 138.069333 0 1 0 138.069333 137.898667A138.069333 138.069333 0 0 0 755.882667 580.266667z"  /><path  d="M810.325333 679.594667a25.088 25.088 0 0 1-18.090666-7.509334 52.906667 52.906667 0 0 0-72.704 0 25.429333 25.429333 0 0 1-36.181334 0 25.770667 25.770667 0 0 1 0-36.181333 102.4 102.4 0 0 1 145.066667 0 25.429333 25.429333 0 0 1 0 36.181333 24.746667 24.746667 0 0 1-18.090667 7.509334zM955.733333 942.933333a26.112 26.112 0 0 1-18.090666-7.509333L855.381333 853.333333a25.6 25.6 0 0 1 36.181334-36.181333L972.8 899.242667a25.770667 25.770667 0 0 1 0 36.181333 26.112 26.112 0 0 1-17.066667 7.509333z"  /></svg>