<?xml version="1.0" standalone="no"?><!DOCTYPE svg PUBLIC "-//W3C//DTD SVG 1.1//EN" "http://www.w3.org/Graphics/SVG/1.1/DTD/svg11.dtd"><svg class="icon" width="64px" height="64.00px" viewBox="0 0 1024 1024" version="1.1" xmlns="http://www.w3.org/2000/svg"><path  d="M672.426667 989.866667H151.893333c-51.2 0-92.16-40.96-92.16-92.16V126.293333c0-51.2 40.96-92.16 92.16-92.16h573.44c13.653333 0 25.6 11.946667 25.6 25.6S738.986667 85.333333 725.333333 85.333333H151.893333C129.706667 85.333333 110.933333 104.106667 110.933333 126.293333v769.706667c0 22.186667 18.773333 40.96 40.96 40.96h520.533334c13.653333 0 25.6 11.946667 25.6 25.6s-10.24 27.306667-25.6 27.306667zM913.066667 515.413333c-13.653333 0-25.6-11.946667-25.6-25.6v-256c0-13.653333 11.946667-25.6 25.6-25.6s25.6 11.946667 25.6 25.6v256c0 13.653333-10.24 25.6-25.6 25.6z"  /><path  d="M938.666667 749.226667H636.586667c-13.653333 0-25.6-11.946667-25.6-25.6s11.946667-25.6 25.6-25.6H938.666667c13.653333 0 25.6 11.946667 25.6 25.6s-11.946667 25.6-25.6 25.6z"  /><path  d="M788.48 899.413333c-13.653333 0-25.6-11.946667-25.6-25.6V571.733333c0-13.653333 11.946667-25.6 25.6-25.6s25.6 11.946667 25.6 25.6v302.08c0 13.653333-11.946667 25.6-25.6 25.6z"  /><path  d="M913.066667 259.413333h-121.173334c-51.2 0-92.16-40.96-92.16-92.16V59.733333c0-10.24 6.826667-18.773333 15.36-23.893333 8.533333-3.413333 20.48-1.706667 27.306667 5.12l187.733333 174.08c8.533333 6.826667 10.24 18.773333 6.826667 27.306667-3.413333 10.24-13.653333 17.066667-23.893333 17.066666zM750.933333 117.76v47.786667c0 22.186667 18.773333 40.96 40.96 40.96h54.613334L750.933333 117.76z"  /></svg>