<?xml version="1.0" standalone="no"?><!DOCTYPE svg PUBLIC "-//W3C//DTD SVG 1.1//EN" "http://www.w3.org/Graphics/SVG/1.1/DTD/svg11.dtd"><svg class="icon" width="64px" height="64.00px" viewBox="0 0 1024 1024" version="1.1" xmlns="http://www.w3.org/2000/svg"><path  d="M858.453333 989.866667H165.546667c-51.2 0-92.16-40.96-92.16-92.16V126.293333c0-51.2 40.96-92.16 92.16-92.16h573.44c13.653333 0 25.6 11.946667 25.6 25.6S752.64 85.333333 738.986667 85.333333H165.546667C141.653333 85.333333 122.88 104.106667 122.88 126.293333v769.706667c0 22.186667 18.773333 40.96 40.96 40.96h694.613333c22.186667 0 40.96-18.773333 40.96-40.96V233.813333c0-13.653333 11.946667-25.6 25.6-25.6s25.6 11.946667 25.6 25.6v663.893334c1.706667 51.2-40.96 92.16-92.16 92.16z"  /><path  d="M713.386667 537.6H310.613333c-13.653333 0-25.6-11.946667-25.6-25.6s11.946667-25.6 25.6-25.6h402.773334c13.653333 0 25.6 11.946667 25.6 25.6s-11.946667 25.6-25.6 25.6z"  /><path  d="M512 738.986667c-13.653333 0-25.6-11.946667-25.6-25.6V310.613333c0-13.653333 11.946667-25.6 25.6-25.6s25.6 11.946667 25.6 25.6v402.773334c0 13.653333-11.946667 25.6-25.6 25.6z"  /><path  d="M926.72 259.413333h-121.173333c-51.2 0-92.16-40.96-92.16-92.16V59.733333c0-10.24 6.826667-18.773333 15.36-23.893333 8.533333-3.413333 20.48-1.706667 27.306666 5.12l187.733334 174.08c8.533333 6.826667 10.24 18.773333 6.826666 27.306667-5.12 10.24-13.653333 17.066667-23.893333 17.066666z m-162.133333-141.653333v47.786667c0 22.186667 18.773333 40.96 40.96 40.96h54.613333l-95.573333-88.746667z"  /></svg>