<?xml version="1.0" standalone="no"?><!DOCTYPE svg PUBLIC "-//W3C//DTD SVG 1.1//EN" "http://www.w3.org/Graphics/SVG/1.1/DTD/svg11.dtd"><svg class="icon" width="64px" height="64.00px" viewBox="0 0 1024 1024" version="1.1" xmlns="http://www.w3.org/2000/svg"><path  d="M884.053333 984.064H139.946667a100.181333 100.181333 0 0 1-100.010667-100.010667V139.946667A100.181333 100.181333 0 0 1 139.946667 39.936h529.066666a99.328 99.328 0 0 1 70.656 29.184L955.733333 284.16a99.328 99.328 0 0 1 29.184 70.656v529.066667a100.181333 100.181333 0 0 1-100.864 100.181333zM139.946667 91.136A48.810667 48.810667 0 0 0 91.136 139.946667v744.106666a48.810667 48.810667 0 0 0 48.810667 48.810667h744.106666a48.810667 48.810667 0 0 0 48.810667-48.810667v-529.066666a49.152 49.152 0 0 0-14.165333-34.133334L703.658667 105.301333a48.469333 48.469333 0 0 0-34.133334-14.165333z"  /><path  d="M760.149333 984.064H263.850667a25.6 25.6 0 0 1-25.6-25.6V636.074667a100.181333 100.181333 0 0 1 100.181333-100.010667h347.136A100.181333 100.181333 0 0 1 785.066667 636.074667v322.389333a25.6 25.6 0 0 1-24.917334 25.6z m-470.016-51.2h443.733334V636.074667a48.981333 48.981333 0 0 0-48.981334-48.810667h-346.453333A48.981333 48.981333 0 0 0 290.133333 636.074667zM636.074667 339.114667H338.432A100.181333 100.181333 0 0 1 238.933333 238.933333V65.536a25.6 25.6 0 0 1 51.2 0V238.933333a48.981333 48.981333 0 0 0 48.981334 48.810667h296.96a25.6 25.6 0 0 1 0 51.2z"  /></svg>