<?xml version="1.0" standalone="no"?><!DOCTYPE svg PUBLIC "-//W3C//DTD SVG 1.1//EN" "http://www.w3.org/Graphics/SVG/1.1/DTD/svg11.dtd"><svg class="icon" width="64px" height="64.00px" viewBox="0 0 1024 1024" version="1.1" xmlns="http://www.w3.org/2000/svg"><path  d="M964.266667 978.090667h-904.533334a25.941333 25.941333 0 0 1-21.504-11.605334 25.429333 25.429333 0 0 1-1.877333-24.234666l316.586667-723.626667a25.258667 25.258667 0 0 1 23.381333-15.36 25.429333 25.429333 0 0 1 23.381333 15.701333l199.850667 479.573334 68.266667-206.506667a25.6 25.6 0 0 1 46.250666-4.949333L986.282667 938.666667a26.112 26.112 0 0 1 0 25.770666 25.770667 25.770667 0 0 1-22.016 13.653334z m-865.450667-51.2h820.224L699.733333 561.152l-72.874666 218.453333a25.429333 25.429333 0 0 1-47.786667 1.706667L375.466667 294.058667zM806.058667 344.917333a138.752 138.752 0 1 1 138.581333-138.752 138.922667 138.922667 0 0 1-138.581333 138.752z m0-225.450666a87.552 87.552 0 1 0 87.381333 87.381333A87.552 87.552 0 0 0 806.058667 119.466667z"  /></svg>