<?xml version="1.0" standalone="no"?><!DOCTYPE svg PUBLIC "-//W3C//DTD SVG 1.1//EN" "http://www.w3.org/Graphics/SVG/1.1/DTD/svg11.dtd"><svg class="icon" width="64px" height="64.00px" viewBox="0 0 1024 1024" version="1.1" xmlns="http://www.w3.org/2000/svg"><path  d="M604.672 196.266667h-166.741333a81.237333 81.237333 0 0 1 0-162.304h166.741333a81.237333 81.237333 0 0 1 0 162.304zM437.930667 85.333333a30.037333 30.037333 0 0 0 0 59.904h166.741333a30.037333 30.037333 0 0 0 0-59.904z"  /><path  d="M808.277333 989.866667H215.722667a99.669333 99.669333 0 0 1-99.498667-99.498667v-665.6a99.669333 99.669333 0 0 1 99.498667-99.669333h89.088a47.786667 47.786667 0 0 1 47.786666 47.786666 44.714667 44.714667 0 0 0 44.714667 44.544H645.12a44.714667 44.714667 0 0 0 44.714667-44.544 47.786667 47.786667 0 0 1 47.786666-47.786666h70.656a99.669333 99.669333 0 0 1 99.498667 99.669333v665.6A99.669333 99.669333 0 0 1 808.277333 989.866667zM215.722667 176.810667a48.469333 48.469333 0 0 0-48.298667 48.469333v665.6a48.298667 48.298667 0 0 0 48.298667 47.786667h592.554666a48.298667 48.298667 0 0 0 48.298667-48.298667v-665.6a48.469333 48.469333 0 0 0-48.298667-48.469333h-68.266666a95.744 95.744 0 0 1-95.744 92.330666H397.312a95.744 95.744 0 0 1-95.744-92.330666z"  /><path  d="M478.890667 491.690667h-192.853334a25.6 25.6 0 0 1 0-51.2h192.853334a25.6 25.6 0 0 1 0 51.2zM701.098667 730.624h-384a25.6 25.6 0 0 1 0-51.2h384a25.6 25.6 0 0 1 0 51.2zM701.098667 856.917333h-384a25.6 25.6 0 1 1 0-51.2h384a25.6 25.6 0 0 1 0 51.2z"  /><path  d="M382.464 588.117333a25.6 25.6 0 0 1-25.6-25.6V369.493333a25.6 25.6 0 0 1 51.2 0V563.2a25.6 25.6 0 0 1-25.6 24.917333z"  /></svg>