<?xml version="1.0" standalone="no"?><!DOCTYPE svg PUBLIC "-//W3C//DTD SVG 1.1//EN" "http://www.w3.org/Graphics/SVG/1.1/DTD/svg11.dtd"><svg class="icon" width="64px" height="64.00px" viewBox="0 0 1024 1024" version="1.1" xmlns="http://www.w3.org/2000/svg"><path  d="M776.874667 877.226667a25.088 25.088 0 0 1-18.090667-6.826667 25.429333 25.429333 0 0 1 0-36.181333l155.477333-155.477334-155.477333-155.306666a25.6 25.6 0 1 1 36.181333-36.181334l173.568 172.714667a25.770667 25.770667 0 0 1 0 36.181333L794.965333 870.4a25.088 25.088 0 0 1-18.090666 6.826667z"  /><path  d="M950.442667 704H299.178667a25.6 25.6 0 0 1 0-51.2h651.264a25.6 25.6 0 0 1 0 51.2z"  /><path  d="M62.122667 889.685333a25.6 25.6 0 0 1-25.6-25.6V159.914667a25.6 25.6 0 0 1 25.6-25.6h899.754666a25.6 25.6 0 0 1 25.6 25.6v173.056a25.6 25.6 0 1 1-51.2 0v-147.456H87.722667v678.570666a25.6 25.6 0 0 1-25.6 25.6z"  /></svg>