<?xml version="1.0" standalone="no"?><!DOCTYPE svg PUBLIC "-//W3C//DTD SVG 1.1//EN" "http://www.w3.org/Graphics/SVG/1.1/DTD/svg11.dtd"><svg class="icon" width="64px" height="64.00px" viewBox="0 0 1024 1024" version="1.1" xmlns="http://www.w3.org/2000/svg"><path  d="M453.461333 379.050667a26.453333 26.453333 0 0 0-37.717333 0l-110.421333 110.250666a26.624 26.624 0 0 0-5.632 29.013334 26.282667 26.282667 0 0 0 25.770666 22.016h369.834667a26.794667 26.794667 0 0 0 0-53.418667H383.317333l70.144-70.314667a26.624 26.624 0 0 0 0-37.717333m117.077334 377.002667a26.453333 26.453333 0 0 0 37.717333 0l110.421333-110.250667a26.794667 26.794667 0 0 0 5.632-29.184 26.282667 26.282667 0 0 0-25.770666-22.016H328.704a26.794667 26.794667 0 0 0 0 53.418667h311.978667l-70.144 70.314666a26.624 26.624 0 0 0 0 37.717334"  /><path  d="M980.138667 460.8L533.674667 41.984a35.84 35.84 0 0 0-43.349334 0L43.861333 460.8a27.989333 27.989333 0 1 0 38.4 40.96l12.629334-11.776v367.957333A131.754667 131.754667 0 0 0 226.816 989.866667h570.368a131.754667 131.754667 0 0 0 131.925333-131.413334v-94.549333a28.16 28.16 0 1 0-56.149333 0v94.037333a75.605333 75.605333 0 0 1-75.776 75.264H226.816a75.605333 75.605333 0 0 1-75.776-75.264V437.418667L512 98.474667l360.96 338.944v158.037333a28.16 28.16 0 1 0 56.149333 0v-105.472l12.629334 11.776a27.989333 27.989333 0 0 0 38.4-40.96"  /></svg>