<?xml version="1.0" standalone="no"?><!DOCTYPE svg PUBLIC "-//W3C//DTD SVG 1.1//EN" "http://www.w3.org/Graphics/SVG/1.1/DTD/svg11.dtd"><svg class="icon" width="64px" height="64.00px" viewBox="0 0 1024 1024" version="1.1" xmlns="http://www.w3.org/2000/svg"><path  d="M410.624 720.213333c-16.042667 0-30.890667-6.144-42.325333-17.578666l-93.184-93.184a59.9552 59.9552 0 0 1 0-84.48l250.709333-250.709334a59.9552 59.9552 0 0 1 84.48 0l93.184 93.354667a59.648 59.648 0 0 1 0 84.48L452.778667 702.634667c-11.264 11.264-26.282667 17.578667-42.154667 17.578666z m157.525333-412.330666a8.021333 8.021333 0 0 0-5.973333 2.56l-250.88 250.709333c-3.242667 3.242667-3.242667 8.704 0 12.117333l93.354667 93.354667c2.218667 2.218667 4.778667 2.56 5.973333 2.56s3.925333-0.341333 5.973333-2.56L667.306667 415.914667c3.413333-3.413333 3.413333-8.704 0-12.117334l-93.184-93.354666c-1.706667-1.706667-3.925333-2.56-5.973334-2.56z"  /><path  d="M512 989.866667C248.490667 989.866667 34.133333 775.509333 34.133333 512S248.490667 34.133333 512 34.133333s477.866667 214.357333 477.866667 477.866667c0 127.317333-49.493333 247.296-139.434667 337.408l-18.090667 18.090667-290.304-290.133334c-10.069333-10.069333-10.069333-26.282667 0-36.181333s26.282667-10.069333 36.181334 0l253.44 253.44C900.778667 716.458667 938.666667 617.130667 938.666667 512 938.666667 276.821333 747.178667 85.333333 512 85.333333S85.333333 276.821333 85.333333 512s191.317333 426.666667 426.666667 426.666667c14.165333 0 25.6 11.434667 25.6 25.6S526.165333 989.866667 512 989.866667z"  /></svg>