<?xml version="1.0" standalone="no"?><!DOCTYPE svg PUBLIC "-//W3C//DTD SVG 1.1//EN" "http://www.w3.org/Graphics/SVG/1.1/DTD/svg11.dtd"><svg class="icon" width="64px" height="64.00px" viewBox="0 0 1024 1024" version="1.1" xmlns="http://www.w3.org/2000/svg"><path  d="M512 989.866667C249.173333 989.866667 34.133333 774.826667 34.133333 512S249.173333 34.133333 512 34.133333s477.866667 215.04 477.866667 477.866667-215.04 477.866667-477.866667 477.866667z m0-904.533334C276.48 85.333333 85.333333 276.48 85.333333 512s191.146667 426.666667 426.666667 426.666667 426.666667-191.146667 426.666667-426.666667S747.52 85.333333 512 85.333333z"  /><path  d="M512 721.92c-116.053333 0-209.92-93.866667-209.92-209.92S395.946667 302.08 512 302.08 721.92 395.946667 721.92 512 628.053333 721.92 512 721.92z m0-368.64c-87.04 0-158.72 71.68-158.72 158.72s71.68 158.72 158.72 158.72 158.72-71.68 158.72-158.72-71.68-158.72-158.72-158.72z"  /></svg>