<?xml version="1.0" standalone="no"?><!DOCTYPE svg PUBLIC "-//W3C//DTD SVG 1.1//EN" "http://www.w3.org/Graphics/SVG/1.1/DTD/svg11.dtd"><svg class="icon" width="64px" height="64.00px" viewBox="0 0 1024 1024" version="1.1" xmlns="http://www.w3.org/2000/svg"><path  d="M964.266667 662.186667c-11.946667 0-22.186667-8.533333-25.6-20.48L837.973333 153.6c-3.413333-20.48-22.186667-34.133333-40.96-34.133333H228.693333c-20.48 0-37.546667 13.653333-40.96 34.133333L85.333333 641.706667c-3.413333 13.653333-17.066667 22.186667-30.72 20.48-13.653333-3.413333-22.186667-17.066667-20.48-30.72L136.533333 143.36C145.066667 98.986667 184.32 68.266667 228.693333 68.266667h566.613334c44.373333 0 83.626667 30.72 92.16 75.093333L989.866667 631.466667c3.413333 13.653333-6.826667 27.306667-20.48 30.72h-5.12z"  /><path  d="M896 955.733333h-768c-51.2 0-93.866667-42.666667-93.866667-93.866666V636.586667c0-13.653333 11.946667-25.6 25.6-25.6H307.2c11.946667 0 20.48 6.826667 23.893333 18.773333l35.84 117.76h290.133334l35.84-117.76c3.413333-10.24 13.653333-18.773333 23.893333-18.773333h247.466667c13.653333 0 25.6 11.946667 25.6 25.6v225.28c0 51.2-42.666667 93.866667-93.866667 93.866666zM85.333333 662.186667v199.68C85.333333 885.76 104.106667 904.533333 128 904.533333h768c23.893333 0 42.666667-18.773333 42.666667-42.666666V662.186667H737.28l-35.84 117.76c-3.413333 10.24-13.653333 18.773333-23.893333 18.773333H348.16c-11.946667 0-20.48-6.826667-23.893333-18.773333l-35.84-117.76H85.333333z"  /><path  d="M657.066667 361.813333c-6.826667 0-13.653333-1.706667-18.773334-6.826666L512 226.986667l-126.293333 126.293333c-10.24 10.24-25.6 10.24-35.84 0s-10.24-25.6 0-35.84l145.066666-145.066667c10.24-10.24 25.6-10.24 35.84 0l145.066667 145.066667c10.24 10.24 10.24 25.6 0 35.84-5.12 6.826667-11.946667 8.533333-18.773333 8.533333z"  /><path  d="M512 636.586667c-13.653333 0-25.6-11.946667-25.6-25.6V191.146667c0-13.653333 11.946667-25.6 25.6-25.6s25.6 11.946667 25.6 25.6v419.84c0 13.653333-11.946667 25.6-25.6 25.6z"  /></svg>