<?xml version="1.0" standalone="no"?><!DOCTYPE svg PUBLIC "-//W3C//DTD SVG 1.1//EN" "http://www.w3.org/Graphics/SVG/1.1/DTD/svg11.dtd"><svg class="icon" width="64px" height="64.00px" viewBox="0 0 1024 1024" version="1.1" xmlns="http://www.w3.org/2000/svg"><path  d="M897.706667 989.866667H126.293333c-51.2 0-92.16-40.96-92.16-92.16V126.293333C34.133333 75.093333 75.093333 34.133333 126.293333 34.133333h389.12c13.653333 0 25.6 11.946667 25.6 25.6S530.773333 85.333333 517.12 85.333333H126.293333C104.106667 85.333333 85.333333 104.106667 85.333333 126.293333v769.706667C85.333333 919.893333 104.106667 938.666667 126.293333 938.666667h769.706667c22.186667 0 40.96-18.773333 40.96-40.96V498.346667c0-13.653333 11.946667-25.6 25.6-25.6s25.6 11.946667 25.6 25.6v399.36c1.706667 51.2-39.253333 92.16-90.453333 92.16z"  /><path  d="M670.72 378.88c-6.826667 0-13.653333-1.706667-18.773333-6.826667-10.24-10.24-10.24-25.6 0-35.84L945.493333 42.666667c10.24-10.24 25.6-10.24 35.84 0s10.24 25.6 0 35.84L689.493333 372.053333c-5.12 5.12-11.946667 6.826667-18.773333 6.826667z"  /><path  d="M964.266667 339.626667c-13.653333 0-25.6-11.946667-25.6-25.6V85.333333H709.973333c-13.653333 0-25.6-11.946667-25.6-25.6S696.32 34.133333 709.973333 34.133333h254.293334c13.653333 0 25.6 11.946667 25.6 25.6v254.293334c0 13.653333-11.946667 25.6-25.6 25.6z"  /></svg>