<?xml version="1.0" standalone="no"?><!DOCTYPE svg PUBLIC "-//W3C//DTD SVG 1.1//EN" "http://www.w3.org/Graphics/SVG/1.1/DTD/svg11.dtd"><svg class="icon" width="64px" height="64.00px" viewBox="0 0 1024 1024" version="1.1" xmlns="http://www.w3.org/2000/svg"><path  d="M512 989.866667C153.6 989.866667 58.026667 723.626667 58.026667 583.68c0-13.653333 11.946667-25.6 25.6-25.6s25.6 11.946667 25.6 25.6c0 131.413333 85.333333 354.986667 402.773333 354.986667s402.773333-223.573333 402.773333-354.986667c0-13.653333 11.946667-25.6 25.6-25.6s25.6 11.946667 25.6 25.6C965.973333 723.626667 870.4 989.866667 512 989.866667z"  /><path  d="M512 752.64c-13.653333 0-25.6-11.946667-25.6-25.6v-665.6c0-13.653333 11.946667-25.6 25.6-25.6s25.6 11.946667 25.6 25.6v663.893333c0 15.36-11.946667 27.306667-25.6 27.306667z"  /><path  d="M797.013333 370.346667c-6.826667 0-13.653333-1.706667-18.773333-6.826667L512 95.573333 244.053333 363.52c-10.24 10.24-25.6 10.24-35.84 0s-10.24-25.6 0-35.84L493.226667 40.96c10.24-10.24 25.6-10.24 35.84 0l285.013333 285.013333c10.24 10.24 10.24 25.6 0 35.84-3.413333 6.826667-10.24 8.533333-17.066667 8.533334z"  /></svg>