<?xml version="1.0" standalone="no"?><!DOCTYPE svg PUBLIC "-//W3C//DTD SVG 1.1//EN" "http://www.w3.org/Graphics/SVG/1.1/DTD/svg11.dtd"><svg class="icon" width="64px" height="64.00px" viewBox="0 0 1024 1024" version="1.1" xmlns="http://www.w3.org/2000/svg"><path  d="M512 989.866667C249.173333 989.866667 34.133333 774.826667 34.133333 512S249.173333 34.133333 512 34.133333c141.653333 0 276.48 63.146667 366.933333 172.373334 8.533333 10.24 6.826667 27.306667-3.413333 35.84-10.24 8.533333-27.306667 6.826667-35.84-3.413334C759.466667 141.653333 640 85.333333 512 85.333333 276.48 85.333333 85.333333 276.48 85.333333 512s191.146667 426.666667 426.666667 426.666667c131.413333 0 252.586667-59.733333 334.506667-162.133334 8.533333-11.946667 25.6-13.653333 35.84-3.413333 10.24 8.533333 13.653333 25.6 3.413333 35.84C795.306667 923.306667 658.773333 989.866667 512 989.866667z"  /><path  d="M962.56 537.6H491.52c-13.653333 0-25.6-11.946667-25.6-25.6s11.946667-25.6 25.6-25.6h471.04c13.653333 0 25.6 11.946667 25.6 25.6s-10.24 25.6-25.6 25.6z"  /><path  d="M832.853333 669.013333c-6.826667 0-13.653333-1.706667-18.773333-6.826666-10.24-10.24-10.24-25.6 0-35.84l114.346667-114.346667-114.346667-114.346667c-10.24-10.24-10.24-25.6 0-35.84s25.6-10.24 35.84 0l131.413333 131.413334c10.24 10.24 10.24 25.6 0 35.84l-131.413333 131.413333c-3.413333 6.826667-10.24 8.533333-17.066667 8.533333z"  /></svg>