<?xml version="1.0" standalone="no"?><!DOCTYPE svg PUBLIC "-//W3C//DTD SVG 1.1//EN" "http://www.w3.org/Graphics/SVG/1.1/DTD/svg11.dtd"><svg class="icon" width="64px" height="64.00px" viewBox="0 0 1024 1024" version="1.1" xmlns="http://www.w3.org/2000/svg"><path  d="M897.706667 940.373333H126.293333c-51.2 0-92.16-40.96-92.16-92.16V633.173333c0-13.653333 11.946667-25.6 25.6-25.6s25.6 11.946667 25.6 25.6v213.333334C85.333333 868.693333 104.106667 887.466667 126.293333 887.466667h769.706667c22.186667 0 40.96-18.773333 40.96-40.96V633.173333c0-13.653333 11.946667-25.6 25.6-25.6s25.6 11.946667 25.6 25.6v213.333334c1.706667 51.2-39.253333 93.866667-90.453333 93.866666z"  /><path  d="M512 684.373333c-13.653333 0-25.6-11.946667-25.6-25.6v-546.133333c0-13.653333 11.946667-25.6 25.6-25.6s25.6 11.946667 25.6 25.6v546.133333c0 13.653333-11.946667 25.6-25.6 25.6z"  /><path  d="M747.52 370.346667c-6.826667 0-13.653333-1.706667-18.773333-6.826667L512 146.773333 295.253333 363.52c-10.24 10.24-25.6 10.24-35.84 0s-10.24-25.6 0-35.84L493.226667 92.16c10.24-10.24 25.6-10.24 35.84 0l235.52 235.52c10.24 10.24 10.24 25.6 0 35.84-5.12 5.12-10.24 6.826667-17.066667 6.826667z"  /></svg>