<?xml version="1.0" standalone="no"?><!DOCTYPE svg PUBLIC "-//W3C//DTD SVG 1.1//EN" "http://www.w3.org/Graphics/SVG/1.1/DTD/svg11.dtd"><svg class="icon" width="64px" height="64.00px" viewBox="0 0 1024 1024" version="1.1" xmlns="http://www.w3.org/2000/svg"><path  d="M694.613333 774.826667H329.386667c-13.653333 0-25.6-11.946667-25.6-25.6s11.946667-25.6 25.6-25.6h365.226666c13.653333 0 25.6 11.946667 25.6 25.6s-11.946667 25.6-25.6 25.6zM660.48 459.093333c-6.826667 0-13.653333-1.706667-18.773333-6.826666l-139.946667-139.946667-139.946667 139.946667c-10.24 10.24-25.6 10.24-35.84 0s-10.24-25.6 0-35.84l157.013334-157.013334c10.24-10.24 25.6-10.24 35.84 0l157.013333 157.013334c10.24 10.24 10.24 25.6 0 35.84-1.706667 3.413333-8.533333 6.826667-15.36 6.826666z"  /><path  d="M503.466667 628.053333c-13.653333 0-25.6-11.946667-25.6-25.6V274.773333c0-13.653333 11.946667-25.6 25.6-25.6s25.6 11.946667 25.6 25.6v325.973334c0 15.36-11.946667 27.306667-25.6 27.306666z"  /><path  d="M896 989.866667h-768c-51.2 0-93.866667-42.666667-93.866667-93.866667v-768C34.133333 76.8 76.8 34.133333 128 34.133333h768c51.2 0 93.866667 42.666667 93.866667 93.866667v768c0 51.2-42.666667 93.866667-93.866667 93.866667zM128 85.333333C104.106667 85.333333 85.333333 104.106667 85.333333 128v768C85.333333 919.893333 104.106667 938.666667 128 938.666667h768c23.893333 0 42.666667-18.773333 42.666667-42.666667v-768C938.666667 104.106667 919.893333 85.333333 896 85.333333h-768z"  /></svg>