<?xml version="1.0" standalone="no"?><!DOCTYPE svg PUBLIC "-//W3C//DTD SVG 1.1//EN" "http://www.w3.org/Graphics/SVG/1.1/DTD/svg11.dtd"><svg class="icon" width="64px" height="64.00px" viewBox="0 0 1024 1024" version="1.1" xmlns="http://www.w3.org/2000/svg"><path  d="M873.813333 394.24h-75.093333v-51.2h75.093333c22.186667 0 40.96-18.773333 40.96-40.96V126.293333c0-22.186667-18.773333-40.96-40.96-40.96H150.186667C128 85.333333 109.226667 104.106667 109.226667 126.293333v175.786667c0 22.186667 18.773333 40.96 40.96 40.96h75.093333v51.2H150.186667c-51.2 0-92.16-40.96-92.16-92.16V126.293333c0-51.2 40.96-92.16 92.16-92.16h723.626666c51.2 0 92.16 40.96 92.16 92.16v175.786667c0 51.2-40.96 92.16-92.16 92.16z"  /><path  d="M201.386667 1015.466667V269.653333c0-51.2 40.96-92.16 92.16-92.16h436.906666c51.2 0 92.16 40.96 92.16 92.16v745.813334l-168.96-124.586667-141.653333 105.813333-143.36-105.813333-167.253333 124.586667z m167.253333-189.44l143.36 105.813333 143.36-105.813333 117.76 87.04V269.653333c0-22.186667-18.773333-40.96-40.96-40.96H293.546667c-22.186667 0-40.96 18.773333-40.96 40.96v643.413334l116.053333-87.04z"  /><path  d="M607.573333 561.493333H416.426667c-13.653333 0-25.6-11.946667-25.6-25.6s11.946667-25.6 25.6-25.6h191.146666c13.653333 0 25.6 11.946667 25.6 25.6s-11.946667 25.6-25.6 25.6zM607.573333 436.906667H416.426667c-13.653333 0-25.6-11.946667-25.6-25.6s11.946667-25.6 25.6-25.6h191.146666c13.653333 0 25.6 11.946667 25.6 25.6s-11.946667 25.6-25.6 25.6z"  /></svg>