<?xml version="1.0" standalone="no"?><!DOCTYPE svg PUBLIC "-//W3C//DTD SVG 1.1//EN" "http://www.w3.org/Graphics/SVG/1.1/DTD/svg11.dtd"><svg class="icon" width="64px" height="64.00px" viewBox="0 0 1024 1024" version="1.1" xmlns="http://www.w3.org/2000/svg"><path  d="M715.093333 989.866667H308.906667c-63.146667 0-116.053333-52.906667-116.053334-116.053334V692.906667c0-13.653333 11.946667-25.6 25.6-25.6h588.8c13.653333 0 25.6 11.946667 25.6 25.6v180.906666c-1.706667 63.146667-52.906667 116.053333-117.76 116.053334zM244.053333 718.506667v155.306666c0 35.84 29.013333 64.853333 64.853334 64.853334H716.8c35.84 0 64.853333-29.013333 64.853333-64.853334v-155.306666H244.053333z"  /><path  d="M873.813333 853.333333h-68.266666c-13.653333 0-25.6-11.946667-25.6-25.6s11.946667-25.6 25.6-25.6h68.266666c35.84 0 64.853333-29.013333 64.853334-64.853333V512c0-35.84-29.013333-64.853333-64.853334-64.853333H150.186667C114.346667 447.146667 85.333333 476.16 85.333333 512v226.986667c0 34.133333 29.013333 63.146667 64.853334 63.146666h66.56c13.653333 0 25.6 11.946667 25.6 25.6s-10.24 25.6-25.6 25.6H150.186667C87.04 853.333333 34.133333 802.133333 34.133333 737.28V512c0-63.146667 52.906667-116.053333 116.053334-116.053333h723.626666c63.146667 0 116.053333 52.906667 116.053334 116.053333v226.986667c0 63.146667-52.906667 114.346667-116.053334 114.346666z"  /><path  d="M827.733333 447.146667H194.56c-13.653333 0-25.6-11.946667-25.6-25.6V150.186667C168.96 87.04 221.866667 34.133333 286.72 34.133333h452.266667C802.133333 34.133333 853.333333 87.04 853.333333 150.186667v271.36c0 13.653333-10.24 25.6-25.6 25.6z m-607.573333-51.2H802.133333V150.186667C802.133333 114.346667 773.12 85.333333 738.986667 85.333333H286.72C250.88 85.333333 221.866667 114.346667 221.866667 150.186667v245.76z"  /></svg>