<?xml version="1.0" standalone="no"?><!DOCTYPE svg PUBLIC "-//W3C//DTD SVG 1.1//EN" "http://www.w3.org/Graphics/SVG/1.1/DTD/svg11.dtd"><svg class="icon" width="64px" height="64.00px" viewBox="0 0 1024 1024" version="1.1" xmlns="http://www.w3.org/2000/svg"><path  d="M843.093333 947.2H179.2c-66.56 0-121.173333-54.613333-121.173333-121.173333V390.826667c0-66.56 54.613333-121.173333 121.173333-121.173334h663.893333c66.56 0 121.173333 54.613333 121.173334 121.173334v433.493333c0 68.266667-54.613333 122.88-121.173334 122.88zM179.2 320.853333c-37.546667 0-69.973333 32.426667-69.973333 69.973334v433.493333c0 39.253333 30.72 69.973333 69.973333 69.973333h663.893333c37.546667 0 69.973333-32.426667 69.973334-69.973333V390.826667c0-39.253333-30.72-69.973333-69.973334-69.973334H179.2z"  /><path  d="M749.226667 320.853333c-13.653333 0-25.6-11.946667-25.6-25.6V131.413333c0-1.706667-1.706667-3.413333-3.413334-3.413333H302.08c-1.706667 0-3.413333 1.706667-3.413333 3.413333v163.84c0 13.653333-11.946667 25.6-25.6 25.6s-25.6-11.946667-25.6-25.6V131.413333c0-30.72 23.893333-54.613333 54.613333-54.613333h416.426667c29.013333 0 54.613333 23.893333 54.613333 54.613333v163.84c1.706667 13.653333-10.24 25.6-23.893333 25.6z"  /><path  d="M416.426667 320.853333c-13.653333 0-25.6-11.946667-25.6-25.6V102.4c0-13.653333 11.946667-25.6 25.6-25.6s25.6 11.946667 25.6 25.6v192.853333c0 13.653333-11.946667 25.6-25.6 25.6zM512 320.853333c-13.653333 0-25.6-11.946667-25.6-25.6V102.4c0-13.653333 11.946667-25.6 25.6-25.6s25.6 11.946667 25.6 25.6v192.853333c0 13.653333-11.946667 25.6-25.6 25.6zM725.333333 709.973333c-56.32 0-102.4-46.08-102.4-102.4s46.08-102.4 102.4-102.4 102.4 46.08 102.4 102.4-46.08 102.4-102.4 102.4z m0-153.6c-29.013333 0-51.2 22.186667-51.2 51.2s22.186667 51.2 51.2 51.2 51.2-22.186667 51.2-51.2-23.893333-51.2-51.2-51.2z"  /></svg>