<?xml version="1.0" standalone="no"?><!DOCTYPE svg PUBLIC "-//W3C//DTD SVG 1.1//EN" "http://www.w3.org/Graphics/SVG/1.1/DTD/svg11.dtd"><svg class="icon" width="64px" height="64.00px" viewBox="0 0 1024 1024" version="1.1" xmlns="http://www.w3.org/2000/svg"><path  d="M863.573333 436.906667c-13.653333 0-25.6-11.946667-25.6-25.6V126.293333C837.973333 104.106667 819.2 85.333333 797.013333 85.333333H226.986667c-22.186667 0-40.96 18.773333-40.96 40.96v285.013334c0 13.653333-11.946667 25.6-25.6 25.6s-25.6-11.946667-25.6-25.6V126.293333c0-51.2 40.96-92.16 92.16-92.16h570.026666c51.2 0 92.16 40.96 92.16 92.16v285.013334c0 13.653333-11.946667 25.6-25.6 25.6z"  /><path  d="M914.773333 989.866667H109.226667C68.266667 989.866667 34.133333 955.733333 34.133333 914.773333V477.866667c0-51.2 40.96-92.16 92.16-92.16h769.706667c51.2 0 92.16 40.96 92.16 92.16v435.2C989.866667 955.733333 955.733333 989.866667 914.773333 989.866667zM126.293333 436.906667C104.106667 436.906667 85.333333 455.68 85.333333 477.866667v435.2c0 15.36 10.24 25.6 23.893334 25.6h803.84c13.653333 0 23.893333-10.24 23.893333-23.893334V477.866667c0-22.186667-18.773333-40.96-40.96-40.96H126.293333z"  /><path  d="M788.48 989.866667H411.306667c-13.653333 0-25.6-11.946667-25.6-25.6v-167.253334c0-32.426667 27.306667-59.733333 59.733333-59.733333h310.613333c32.426667 0 59.733333 27.306667 59.733334 59.733333v167.253334c-1.706667 13.653333-13.653333 25.6-27.306667 25.6z m-351.573333-51.2h325.973333v-141.653334c0-5.12-3.413333-8.533333-8.533333-8.533333H445.44c-5.12 0-8.533333 3.413333-8.533333 8.533333V938.666667zM286.72 587.093333h-75.093333c-13.653333 0-25.6-11.946667-25.6-25.6s11.946667-25.6 25.6-25.6h75.093333c13.653333 0 25.6 11.946667 25.6 25.6s-11.946667 25.6-25.6 25.6z"  /></svg>