<?xml version="1.0" standalone="no"?><!DOCTYPE svg PUBLIC "-//W3C//DTD SVG 1.1//EN" "http://www.w3.org/Graphics/SVG/1.1/DTD/svg11.dtd"><svg class="icon" width="64px" height="64.00px" viewBox="0 0 1024 1024" version="1.1" xmlns="http://www.w3.org/2000/svg"><path  d="M909.653333 822.613333h-134.826666c-13.653333 0-25.6-11.946667-25.6-25.6s11.946667-25.6 25.6-25.6h134.826666c1.706667 0 3.413333-1.706667 3.413334-3.413333V464.213333c0-90.453333-73.386667-163.84-163.84-163.84H274.773333c-90.453333 0-163.84 73.386667-163.84 163.84V768c0 1.706667 1.706667 3.413333 3.413334 3.413333h134.826666c13.653333 0 25.6 11.946667 25.6 25.6s-11.946667 25.6-25.6 25.6H114.346667c-29.013333 0-54.613333-23.893333-54.613334-54.613333V464.213333c0-119.466667 97.28-215.04 215.04-215.04h474.453334c119.466667 0 215.04 97.28 215.04 215.04V768c0 29.013333-23.893333 54.613333-54.613334 54.613333z"  /><path  d="M701.44 300.373333c-13.653333 0-25.6-11.946667-25.6-25.6V114.346667c0-1.706667-1.706667-3.413333-3.413333-3.413334H351.573333c-1.706667 0-3.413333 1.706667-3.413333 3.413334v160.426666c0 13.653333-11.946667 25.6-25.6 25.6s-25.6-11.946667-25.6-25.6V114.346667c0-29.013333 23.893333-54.613333 54.613333-54.613334h322.56c29.013333 0 54.613333 23.893333 54.613334 54.613334v160.426666c-1.706667 13.653333-13.653333 25.6-27.306667 25.6zM762.88 964.266667H261.12c-15.36 0-30.72-6.826667-40.96-18.773334-10.24-11.946667-15.36-27.306667-11.946667-42.666666l39.253334-274.773334c3.413333-27.306667 27.306667-46.08 52.906666-46.08h424.96c27.306667 0 49.493333 20.48 52.906667 46.08l39.253333 274.773334c1.706667 15.36-1.706667 30.72-11.946666 42.666666-11.946667 11.946667-25.6 18.773333-42.666667 18.773334zM300.373333 633.173333c-1.706667 0-3.413333 1.706667-3.413333 1.706667l-39.253333 274.773333v1.706667l1.706666 1.706667h503.466667s1.706667 0 1.706667-1.706667v-1.706667l-39.253334-274.773333c0-1.706667-1.706667-1.706667-3.413333-1.706667H300.373333z m-68.266666 273.066667zM749.226667 443.733333c-6.826667 0-11.946667-1.706667-17.066667-6.826666-10.24-10.24-11.946667-25.6-1.706667-35.84 10.24-10.24 25.6-11.946667 35.84-1.706667 10.24 10.24 11.946667 25.6 1.706667 35.84-5.12 5.12-11.946667 8.533333-18.773333 8.533333z"  /></svg>