<?xml version="1.0" standalone="no"?><!DOCTYPE svg PUBLIC "-//W3C//DTD SVG 1.1//EN" "http://www.w3.org/Graphics/SVG/1.1/DTD/svg11.dtd"><svg class="icon" width="64px" height="64.00px" viewBox="0 0 1024 1024" version="1.1" xmlns="http://www.w3.org/2000/svg"><path  d="M573.269333 986.624a388.437333 388.437333 0 0 1-136.533333-27.989333c-113.664-42.496-206.165333-184.490667-251.221333-265.386667a105.130667 105.130667 0 0 1 27.989333-133.12 111.104 111.104 0 0 1 139.605333 0V364.714667a81.578667 81.578667 0 0 1 162.986667 0v58.538666a80.725333 80.725333 0 0 1 30.037333-5.973333 81.578667 81.578667 0 0 1 76.288 52.906667 79.872 79.872 0 0 1 35.498667-8.192 81.578667 81.578667 0 0 1 75.946667 52.906666 79.872 79.872 0 0 1 35.498666-8.192 81.578667 81.578667 0 0 1 81.408 81.578667v175.786667a140.629333 140.629333 0 0 1-24.405333 81.92c-26.965333 38.229333-70.656 88.746667-125.269333 112.128a319.658667 319.658667 0 0 1-127.829334 28.501333z m-290.133333-399.530667a59.904 59.904 0 0 0-37.546667 13.141334 53.930667 53.930667 0 0 0-15.018666 68.266666c41.472 74.752 125.952 204.8 224.256 242.346667 87.552 32.768 151.210667 32.768 226.816 0 45.909333-19.626667 85.333333-68.266667 103.594666-94.549333a89.941333 89.941333 0 0 0 15.018667-52.394667V588.288a30.378667 30.378667 0 1 0-60.586667 0 25.6 25.6 0 0 1-51.2 0v-44.714667a30.378667 30.378667 0 1 0-60.586666 0 25.6 25.6 0 0 1-51.2 0v-44.714666a30.208 30.208 0 1 0-60.416 0 25.6 25.6 0 0 1-51.2 0v-134.144a30.378667 30.378667 0 0 0-60.586667 0v257.024a25.770667 25.770667 0 0 1-15.872 23.722666 25.6 25.6 0 0 1-27.818667-5.632l-35.328-35.157333a59.221333 59.221333 0 0 0-42.496-17.578667z"  /><path  d="M257.536 334.506667a25.770667 25.770667 0 0 1-23.722667-16.042667 213.674667 213.674667 0 0 1-8.362666-25.6 204.8 204.8 0 1 1 402.261333-51.2 25.6 25.6 0 1 1-51.2 0 153.6 153.6 0 1 0-307.2 0 154.965333 154.965333 0 0 0 4.608 37.546667l7.168 21.504a25.770667 25.770667 0 0 1-15.530667 32.085333 26.282667 26.282667 0 0 1-8.021333 1.706667z"  /></svg>