<?xml version="1.0" standalone="no"?><!DOCTYPE svg PUBLIC "-//W3C//DTD SVG 1.1//EN" "http://www.w3.org/Graphics/SVG/1.1/DTD/svg11.dtd"><svg class="icon" width="64px" height="64.00px" viewBox="0 0 1024 1024" version="1.1" xmlns="http://www.w3.org/2000/svg"><path  d="M567.466667 924.672H151.210667a108.714667 108.714667 0 0 1-108.544-108.544V207.872a108.714667 108.714667 0 0 1 108.544-108.544H870.4a108.544 108.544 0 0 1 108.544 108.544V375.466667a25.6 25.6 0 0 1-51.2 0v-167.594667A57.514667 57.514667 0 0 0 870.4 150.528H151.210667a57.514667 57.514667 0 0 0-57.344 57.344v608.256a57.514667 57.514667 0 0 0 57.344 57.344h416.256a25.6 25.6 0 0 1 0 51.2z"  /><path  d="M929.450667 915.797333H740.352a51.2 51.2 0 0 1-51.2-51.2V601.258667a51.2 51.2 0 0 1 51.2-51.2h17.066667A63.317333 63.317333 0 0 1 814.762667 512h40.277333a63.829333 63.829333 0 0 1 57.344 36.693333h17.066667a52.053333 52.053333 0 0 1 51.2 51.2v264.021334a52.053333 52.053333 0 0 1-51.2 51.882666zM740.352 600.576v263.338667H930.133333V600.576h-37.546666a25.6 25.6 0 0 1-25.6-24.917333 12.117333 12.117333 0 0 0-11.946667-11.776h-40.277333a12.288 12.288 0 0 0-12.117334 11.776 25.6 25.6 0 0 1-25.6 24.917333z"  /><path  d="M830.464 812.544a25.429333 25.429333 0 0 1-13.824-3.925333 25.6 25.6 0 0 1-7.850667-35.328l9.386667-14.677334h-12.8a25.941333 25.941333 0 0 1-22.528-12.970666 25.6 25.6 0 0 1 0-26.112L819.2 660.309333a25.6 25.6 0 1 1 43.690667 26.965334l-12.288 19.797333h13.653333a25.941333 25.941333 0 0 1 22.357333 13.141333 25.258667 25.258667 0 0 1-0.853333 26.112l-34.133333 54.442667a25.088 25.088 0 0 1-21.162667 11.776zM586.752 338.432H204.8a25.6 25.6 0 0 1 0-51.2h381.952a25.6 25.6 0 0 1 0 51.2zM586.752 493.909333H204.8a25.6 25.6 0 1 1 0-51.2h381.952a25.6 25.6 0 0 1 0 51.2zM411.648 659.797333H204.8a25.6 25.6 0 0 1 0-51.2h206.848a25.6 25.6 0 1 1 0 51.2z"  /></svg>