<?xml version="1.0" standalone="no"?><!DOCTYPE svg PUBLIC "-//W3C//DTD SVG 1.1//EN" "http://www.w3.org/Graphics/SVG/1.1/DTD/svg11.dtd"><svg class="icon" width="64px" height="64.00px" viewBox="0 0 1024 1024" version="1.1" xmlns="http://www.w3.org/2000/svg"><path  d="M890.538667 947.370667H133.461333c-21.845333 0-39.594667-17.749333-39.594666-39.594667s17.749333-39.594667 39.594666-39.594667h271.872c12.629333-14.336 38.741333-90.794667 48.64-258.56 1.024-16.213333 10.752-30.378667 25.258667-37.205333l15.36-7.168c0.512-0.170667 1.194667-0.682667 2.048-1.365333a25.6 25.6 0 0 1 30.890667 0.170666c0.682667 0.512 1.536 1.024 2.389333 1.536l14.506667 6.826667c14.506667 6.826667 24.234667 20.992 25.258666 37.034667 10.581333 167.936 36.352 244.224 48.64 258.56h271.872c21.845333 0 39.594667 17.749333 39.594667 39.594666s-17.408 39.765333-39.253333 39.765334z m0-28.16z m-443.221334-23.04h129.706667c-29.184-40.448-48.469333-133.802667-58.026667-279.210667l-7.168-3.413333-6.997333 3.242666c-8.874667 145.408-28.16 238.933333-57.514667 279.381334zM469.674667 426.325333c-1.024 0-3.242667-0.170667-4.266667-0.170666a38.4 38.4 0 0 1-33.792-42.154667l24.234667-273.066667c2.56-26.965333 23.893333-48.298667 50.688-50.858666 15.018667-1.536 29.525333 3.072 41.130666 12.629333 11.605333 9.557333 18.773333 23.210667 20.309334 38.229333l24.064 273.237334c0 0.682667 0.170667 2.901333 0.170666 3.584a38.4 38.4 0 0 1-38.058666 38.4l-84.48 0.170666z m84.309333-25.941333z m-71.168-11.946667v0.512c-0.170667-0.341333-0.170667-0.341333 0-0.512zM512 111.104h-0.512c-2.389333 0.170667-4.437333 2.218667-4.608 4.608l-23.04 259.413333 55.978667-0.170666-22.698667-259.413334a4.4032 4.4032 0 0 0-1.877333-3.242666 4.369067 4.369067 0 0 0-3.242667-1.194667zM823.466667 690.346667c-7.850667 0-15.530667-1.706667-22.869334-4.949334l-248.32-115.712a38.4 38.4 0 0 1-3.754666-1.877333c-17.749333-10.069333-24.064-33.450667-13.653334-51.712l42.154667-73.557333c0.512-0.853333 1.536-2.389333 2.048-3.242667 5.461333-7.850667 14.165333-13.482667 24.234667-15.36 10.069333-1.706667 20.309333 0.512 28.672 6.314667l224.426666 157.866666c21.504 15.872 29.184 44.544 18.602667 68.608-6.144 13.824-17.237333 24.405333-31.232 29.866667-6.656 2.56-13.482667 3.754667-20.309333 3.754667zM586.410667 529.066667l235.52 109.738666c1.194667 0.512 2.56 0.170667 3.413333 0 0.853333-0.341333 2.048-1.024 2.901333-2.730666 1.024-2.218667 0.341333-4.949333-1.706666-6.314667l-212.309334-149.333333L586.410667 529.066667zM198.656 691.541333a56.490667 56.490667 0 0 1-47.274667-25.770666c-16.896-25.941333-9.728-60.928 16.213334-77.994667l223.402666-157.184c1.365333-1.024 2.901333-2.048 4.437334-2.901333 8.704-4.778667 19.114667-5.802667 28.842666-2.901334s17.92 9.386667 22.698667 18.432l41.813333 73.045334c0.512 0.682667 1.365333 2.389333 1.706667 3.242666 8.704 18.602667 0.512 41.472-18.602667 50.346667L223.573333 685.397333c-7.68 4.096-16.384 6.144-24.917333 6.144z m210.773333-211.456l-212.992 149.845334c-3.072 2.048-3.754667 5.290667-2.218666 7.68a5.12 5.12 0 0 0 6.656 1.706666L437.589333 529.066667l-28.16-48.981334z m12.117334-8.533333z m-18.944-3.584c0 0.170667 0.170667 0.170667 0.170666 0.341333l-0.170666-0.341333z m3.584-16.725333zM512 514.048c-10.069333 0-19.797333-5.290667-25.088-14.506667l-12.8-22.186666a28.842667 28.842667 0 0 1-3.925333-15.189334c0-7.338667 3.072-14.506667 8.704-19.968 5.461333-5.290667 12.970667-8.704 20.309333-8.192h25.6c5.290667 0 10.581333 1.536 15.189333 4.266667A29.013333 29.013333 0 0 1 549.546667 477.866667l-12.629334 21.845333c-2.56 4.437333-6.314667 8.192-10.752 10.752-4.437333 2.389333-9.216 3.584-14.165333 3.584z m-12.970667-29.013333h0.341334-0.341334z m3.584-20.138667c0.682667 6.144 3.925333 12.288 9.386667 16.042667 0.853333-0.682667 1.877333-1.365333 2.730667-2.218667 3.754667-3.754667 6.144-8.704 6.656-13.994667-5.802667-2.56-12.629333-2.730667-18.773334 0.170667z m-10.069333 9.216z m38.741333-0.341333l0.170667 0.170666c-0.170667 0-0.170667-0.170667-0.170667-0.170666z m-25.770666-22.186667c-0.170667 0.341333-0.341333 0.512-0.512 0.853333l0.512-0.853333z m12.8-0.341333l0.341333 0.512c-0.170667-0.170667-0.170667-0.341333-0.341333-0.512z"  /></svg>