<?xml version="1.0" standalone="no"?><!DOCTYPE svg PUBLIC "-//W3C//DTD SVG 1.1//EN" "http://www.w3.org/Graphics/SVG/1.1/DTD/svg11.dtd"><svg class="icon" width="64px" height="64.00px" viewBox="0 0 1024 1024" version="1.1" xmlns="http://www.w3.org/2000/svg"><path  d="M590.506667 687.786667h-157.013334a25.6 25.6 0 0 1-25.6-25.6v-59.733334a105.813333 105.813333 0 0 1 104.106667-104.106666 104.106667 104.106667 0 0 1 104.106667 104.106666v59.733334a25.6 25.6 0 0 1-25.6 25.6z m-131.413334-51.2h105.813334v-34.133334a52.906667 52.906667 0 0 0-105.813334 0zM619.52 465.92a25.6 25.6 0 0 1-25.6-25.6v-78.506667a25.6 25.6 0 0 1 25.6-25.6 25.6 25.6 0 0 1 25.6 25.6v78.506667a23.893333 23.893333 0 0 1-25.6 25.6zM404.48 465.92a25.6 25.6 0 0 1-25.6-25.6v-78.506667a25.6 25.6 0 0 1 51.2 0v78.506667a25.6 25.6 0 0 1-25.6 25.6z"  /><path  d="M703.146667 791.893333H320.853333a56.32 56.32 0 0 1-42.666666-17.066666 372.053333 372.053333 0 0 1 0-525.653334 56.32 56.32 0 0 1 42.666666-17.066666h382.293334a54.613333 54.613333 0 0 1 42.666666 17.066666 372.053333 372.053333 0 0 1 0 525.653334 54.613333 54.613333 0 0 1-42.666666 17.066666zM314.026667 285.013333a322.56 322.56 0 0 0 0 453.973334h395.946666a322.56 322.56 0 0 0 0-453.973334H314.026667z"  /><path  d="M836.266667 979.626667H189.44A143.36 143.36 0 0 1 46.08 836.266667V187.733333a143.36 143.36 0 0 1 143.36-143.36H836.266667a145.066667 145.066667 0 0 1 143.36 143.36v648.533334a145.066667 145.066667 0 0 1-143.36 143.36zM189.44 95.573333A92.16 92.16 0 0 0 97.28 187.733333v648.533334a92.16 92.16 0 0 0 92.16 92.16H836.266667a92.16 92.16 0 0 0 92.16-92.16V187.733333A92.16 92.16 0 0 0 836.266667 95.573333z"  /></svg>