<?xml version="1.0" standalone="no"?><!DOCTYPE svg PUBLIC "-//W3C//DTD SVG 1.1//EN" "http://www.w3.org/Graphics/SVG/1.1/DTD/svg11.dtd"><svg class="icon" width="64px" height="64.00px" viewBox="0 0 1024 1024" version="1.1" xmlns="http://www.w3.org/2000/svg"><path  d="M658.773333 773.12H365.226667a105.813333 105.813333 0 0 1-83.626667-40.96L146.773333 551.253333a66.56 66.56 0 0 1 0-78.506666l134.826667-180.906667a105.813333 105.813333 0 0 1 83.626667-40.96h293.546666a105.813333 105.813333 0 0 1 83.626667 40.96l134.826667 180.906667a66.56 66.56 0 0 1 0 78.506666l-134.826667 180.906667a105.813333 105.813333 0 0 1-83.626667 40.96zM365.226667 302.08a56.32 56.32 0 0 0-42.666667 20.48L187.733333 503.466667a15.36 15.36 0 0 0 0 17.066666l134.826667 180.906667a56.32 56.32 0 0 0 42.666667 20.48h293.546666a56.32 56.32 0 0 0 42.666667-20.48L836.266667 520.533333a15.36 15.36 0 0 0 0-17.066666l-134.826667-180.906667a56.32 56.32 0 0 0-42.666667-20.48z m-63.146667 5.12z"  /><path  d="M836.266667 979.626667H187.733333A145.066667 145.066667 0 0 1 44.373333 836.266667V187.733333A145.066667 145.066667 0 0 1 187.733333 44.373333h648.533334a145.066667 145.066667 0 0 1 143.36 143.36v648.533334a145.066667 145.066667 0 0 1-143.36 143.36zM187.733333 95.573333A93.866667 93.866667 0 0 0 95.573333 187.733333v648.533334a93.866667 93.866667 0 0 0 92.16 92.16h648.533334a93.866667 93.866667 0 0 0 92.16-92.16V187.733333A93.866667 93.866667 0 0 0 836.266667 95.573333z"  /><path  d="M349.866667 556.373333a44.373333 44.373333 0 0 1 0-88.746666 25.6 25.6 0 0 1 25.6 25.6 27.306667 27.306667 0 0 1-8.533334 18.773333 27.306667 27.306667 0 0 1 8.533334 18.773333 25.6 25.6 0 0 1-25.6 25.6z"  /><path  d="M349.866667 556.373333a25.6 25.6 0 0 1-25.6-25.6 23.893333 23.893333 0 0 1 10.24-18.773333 23.893333 23.893333 0 0 1-10.24-18.773333 25.6 25.6 0 0 1 25.6-25.6 44.373333 44.373333 0 1 1 0 88.746666zM512 643.413333a46.08 46.08 0 0 1 0-90.453333 25.6 25.6 0 0 1 25.6 25.6A23.893333 23.893333 0 0 1 529.066667 597.333333a29.013333 29.013333 0 0 1 8.533333 20.48 25.6 25.6 0 0 1-25.6 25.6z"  /><path  d="M512 643.413333a25.6 25.6 0 0 1-25.6-25.6A29.013333 29.013333 0 0 1 494.933333 597.333333a23.893333 23.893333 0 0 1-8.533333-18.773333 25.6 25.6 0 0 1 25.6-25.6 46.08 46.08 0 0 1 0 90.453333zM674.133333 556.373333a44.373333 44.373333 0 1 1 0-88.746666 25.6 25.6 0 0 1 25.6 25.6 23.893333 23.893333 0 0 1-10.24 18.773333 23.893333 23.893333 0 0 1 10.24 18.773333 25.6 25.6 0 0 1-25.6 25.6z"  /><path  d="M674.133333 556.373333a25.6 25.6 0 0 1-25.6-25.6 27.306667 27.306667 0 0 1 8.533334-18.773333 27.306667 27.306667 0 0 1-8.533334-18.773333 25.6 25.6 0 0 1 25.6-25.6 44.373333 44.373333 0 0 1 0 88.746666z"  /></svg>