<?xml version="1.0" standalone="no"?><!DOCTYPE svg PUBLIC "-//W3C//DTD SVG 1.1//EN" "http://www.w3.org/Graphics/SVG/1.1/DTD/svg11.dtd"><svg class="icon" width="64px" height="64.00px" viewBox="0 0 1024 1024" version="1.1" xmlns="http://www.w3.org/2000/svg"><path  d="M399.36 595.626667a83.626667 83.626667 0 1 1 83.626667-83.626667 83.626667 83.626667 0 0 1-83.626667 83.626667z m0-116.053334a32.426667 32.426667 0 1 0 0 64.853334 32.426667 32.426667 0 1 0 0-64.853334zM634.88 595.626667a83.626667 83.626667 0 1 1 83.626667-83.626667 83.626667 83.626667 0 0 1-83.626667 83.626667z m0-116.053334a32.426667 32.426667 0 1 0 0 64.853334 32.426667 32.426667 0 0 0 0-64.853334z"  /><path  d="M836.266667 979.626667H187.733333A145.066667 145.066667 0 0 1 44.373333 836.266667V187.733333A145.066667 145.066667 0 0 1 187.733333 44.373333h648.533334a145.066667 145.066667 0 0 1 143.36 143.36v648.533334a145.066667 145.066667 0 0 1-143.36 143.36zM187.733333 95.573333A93.866667 93.866667 0 0 0 95.573333 187.733333v648.533334a93.866667 93.866667 0 0 0 92.16 92.16h648.533334a93.866667 93.866667 0 0 0 92.16-92.16V187.733333A93.866667 93.866667 0 0 0 836.266667 95.573333z"  /><path  d="M517.12 322.56a25.6 25.6 0 0 1-25.6-25.6v-98.986667a25.6 25.6 0 0 1 25.6-25.6 25.6 25.6 0 0 1 25.6 25.6v98.986667a25.6 25.6 0 0 1-25.6 25.6zM517.12 851.626667a25.6 25.6 0 0 1-25.6-25.6v-98.986667a25.6 25.6 0 0 1 25.6-25.6 25.6 25.6 0 0 1 25.6 25.6v98.986667a25.6 25.6 0 0 1-25.6 25.6z"  /><path  d="M512 863.573333a343.04 343.04 0 0 1-232.106667-90.453333 218.453333 218.453333 0 0 1-68.266666-157.013333v-11.946667h-29.013334a25.6 25.6 0 0 1-25.6-25.6V443.733333a25.6 25.6 0 0 1 25.6-25.6h29.013334v-10.24a218.453333 218.453333 0 0 1 68.266666-157.013333 341.333333 341.333333 0 0 1 464.213334 0 218.453333 218.453333 0 0 1 68.266666 157.013333v10.24h29.013334a25.6 25.6 0 0 1 25.6 25.6v134.826667a25.6 25.6 0 0 1-25.6 25.6h-29.013334v11.946667a218.453333 218.453333 0 0 1-68.266666 157.013333A343.04 343.04 0 0 1 512 863.573333zM208.213333 552.96h29.013334a25.6 25.6 0 0 1 25.6 25.6v37.546667a162.133333 162.133333 0 0 0 52.906666 119.466666 288.426667 288.426667 0 0 0 392.533334 0 162.133333 162.133333 0 0 0 52.906666-119.466666v-37.546667a25.6 25.6 0 0 1 25.6-25.6h29.013334v-83.626667h-29.013334a25.6 25.6 0 0 1-25.6-25.6v-35.84a162.133333 162.133333 0 0 0-52.906666-119.466666 288.426667 288.426667 0 0 0-392.533334 0 162.133333 162.133333 0 0 0-52.906666 119.466666V443.733333a25.6 25.6 0 0 1-25.6 25.6h-29.013334z"  /></svg>