<?xml version="1.0" standalone="no"?><!DOCTYPE svg PUBLIC "-//W3C//DTD SVG 1.1//EN" "http://www.w3.org/Graphics/SVG/1.1/DTD/svg11.dtd"><svg class="icon" width="64px" height="64.00px" viewBox="0 0 1024 1024" version="1.1" xmlns="http://www.w3.org/2000/svg"><path  d="M645.802667 672.938667h-290.133334a25.6 25.6 0 1 1 0-51.2h290.133334a25.6 25.6 0 0 1 0 51.2zM347.648 977.237333a25.6 25.6 0 0 1-25.6-25.6V647.338667a25.6 25.6 0 0 1 51.2 0v304.298666a25.6 25.6 0 0 1-25.6 25.6zM645.802667 977.237333a25.6 25.6 0 0 1-25.6-25.6V647.338667a25.6 25.6 0 0 1 51.2 0v304.298666a25.6 25.6 0 0 1-25.6 25.6zM838.656 977.237333H162.133333a55.466667 55.466667 0 0 1-44.202666-22.869333A76.288 76.288 0 0 1 102.4 907.776V512a25.6 25.6 0 0 1 51.2 0v395.776a25.941333 25.941333 0 0 0 4.608 15.36c1.706667 2.218667 3.072 2.901333 3.584 2.901333h676.864a7.168 7.168 0 0 0 3.584-2.901333 25.941333 25.941333 0 0 0 4.608-15.36V512a25.6 25.6 0 0 1 51.2 0v395.776a77.312 77.312 0 0 1-15.189333 46.592 55.808 55.808 0 0 1-44.202667 22.869333zM951.637333 334.677333a25.770667 25.770667 0 0 1-23.552-15.530666l-94.72-221.866667H190.634667l-94.72 221.866667a25.6 25.6 0 1 1-47.104-20.138667L150.186667 62.293333a25.429333 25.429333 0 0 1 23.552-15.530666h676.522666a25.429333 25.429333 0 0 1 23.552 15.530666l101.376 236.714667a25.429333 25.429333 0 0 1-13.482666 34.133333 25.941333 25.941333 0 0 1-10.069334 1.536zM226.474667 537.6h-18.944a160.768 160.768 0 0 1-160.768-160.938667v-68.266666a25.6 25.6 0 0 1 51.2 0v68.266666a109.568 109.568 0 0 0 109.568 109.738667h18.944a109.568 109.568 0 0 0 109.738666-109.738667v-68.266666a25.6 25.6 0 0 1 51.2 0v68.266666a160.768 160.768 0 0 1-160.938666 160.938667zM529.066667 537.6h-34.133334a160.768 160.768 0 0 1-160.938666-160.938667v-68.266666a25.6 25.6 0 0 1 51.2 0v68.266666A109.568 109.568 0 0 0 494.933333 486.4h34.133334a109.568 109.568 0 0 0 109.738666-109.738667v-68.266666a25.6 25.6 0 0 1 51.2 0v68.266666A160.768 160.768 0 0 1 529.066667 537.6zM816.469333 537.6h-17.066666a160.768 160.768 0 0 1-160.938667-160.938667v-68.266666a25.6 25.6 0 0 1 51.2 0v68.266666a109.568 109.568 0 0 0 109.738667 109.738667h17.066666a109.568 109.568 0 0 0 109.568-109.738667v-68.266666a25.6 25.6 0 0 1 51.2 0v68.266666a160.768 160.768 0 0 1-160.768 160.938667z" /></svg>