<?xml version="1.0" standalone="no"?><!DOCTYPE svg PUBLIC "-//W3C//DTD SVG 1.1//EN" "http://www.w3.org/Graphics/SVG/1.1/DTD/svg11.dtd"><svg class="icon" width="64px" height="64.00px" viewBox="0 0 1024 1024" version="1.1" xmlns="http://www.w3.org/2000/svg"><path  d="M873.813333 989.866667c-3.413333 0-8.533333-1.706667-11.946666-3.413334L512 805.546667 162.133333 986.453333c-8.533333 3.413333-17.066667 3.413333-25.6-1.706666-6.826667-5.12-11.946667-13.653333-11.946666-22.186667v-836.266667c0-51.2 40.96-92.16 92.16-92.16h588.8c51.2 0 92.16 40.96 92.16 92.16v837.973334c0 8.533333-5.12 17.066667-11.946667 22.186666-3.413333 1.706667-6.826667 3.413333-11.946667 3.413334zM512 750.933333c3.413333 0 8.533333 1.706667 11.946667 3.413334l324.266666 167.253333V126.293333c0-22.186667-18.773333-40.96-40.96-40.96H216.746667c-22.186667 0-40.96 18.773333-40.96 40.96V921.6l324.266666-167.253333c3.413333-1.706667 8.533333-3.413333 11.946667-3.413334z"  /><path  d="M605.866667 590.506667c-6.826667 0-13.653333-1.706667-20.48-5.12L512 546.133333l-75.093333 39.253334c-13.653333 8.533333-32.426667 6.826667-44.373334-3.413334-13.653333-10.24-20.48-25.6-17.066666-40.96l13.653333-81.92-61.44-59.733333c-11.946667-11.946667-15.36-27.306667-10.24-42.666667s18.773333-25.6 34.133333-29.013333l83.626667-11.946667 37.546667-75.093333c6.826667-15.36 22.186667-23.893333 37.546666-23.893333 15.36 0 30.72 8.533333 37.546667 23.893333l37.546667 75.093333 83.626666 11.946667c15.36 1.706667 29.013333 13.653333 34.133334 29.013333s1.706667 32.426667-10.24 42.666667L631.466667 459.093333l13.653333 81.92c3.413333 15.36-3.413333 32.426667-17.066667 40.96-5.12 5.12-13.653333 8.533333-22.186666 8.533334zM512 493.226667c6.826667 0 13.653333 1.706667 20.48 5.12l63.146667 34.133333-11.946667-68.266667c-1.706667-13.653333 1.706667-27.306667 11.946667-37.546666l51.2-51.2-69.973334-10.24c-13.653333-1.706667-25.6-10.24-32.426666-23.893334L512 276.48 481.28 341.333333c-6.826667 11.946667-18.773333 20.48-32.426667 23.893334l-71.68 10.24 51.2 51.2c10.24 10.24 15.36 23.893333 11.946667 37.546666l-11.946667 68.266667 63.146667-34.133333c6.826667-3.413333 13.653333-5.12 20.48-5.12z"  /></svg>