<?xml version="1.0" standalone="no"?><!DOCTYPE svg PUBLIC "-//W3C//DTD SVG 1.1//EN" "http://www.w3.org/Graphics/SVG/1.1/DTD/svg11.dtd"><svg class="icon" width="64px" height="64.00px" viewBox="0 0 1024 1024" version="1.1" xmlns="http://www.w3.org/2000/svg"><path  d="M598.869333 930.133333a57.685333 57.685333 0 0 1-58.538666-56.490666V580.266667A56.661333 56.661333 0 0 1 597.333333 523.605333l1.706667 25.429334v-25.429334a58.026667 58.026667 0 0 1 43.008 17.066667 54.272 54.272 0 0 1 17.066667 39.424v293.546667a57.685333 57.685333 0 0 1-60.245334 56.490666z m0-355.498666c-4.266667 0-6.997333 2.730667-6.997333 4.949333v294.058667c0 2.56 3.072 5.290667 7.338667 5.290666s7.509333-2.730667 7.509333-5.290666V580.266667a3.925333 3.925333 0 0 0-1.365333-2.730667 13.653333 13.653333 0 0 0-5.802667-2.218667zM825.685333 330.24H625.322667a36.352 36.352 0 0 1-36.352-36.010667v-126.293333a36.352 36.352 0 0 1 36.352-36.181333h200.362666A36.522667 36.522667 0 0 1 858.624 153.6a35.498667 35.498667 0 0 1-5.290667 37.888l-34.133333 39.594667 34.133333 39.424a35.498667 35.498667 0 0 1 5.632 38.570666 36.181333 36.181333 0 0 1-33.28 21.162667z m-185.514666-51.2h152.576l-21.333334-24.405333a36.181333 36.181333 0 0 1 0-47.274667l21.162667-24.405333h-152.405333zM341.333333 349.866667a128 128 0 1 1 128-128 128 128 0 0 1-128 128z m0-204.8a76.8 76.8 0 1 0 76.8 76.8A76.970667 76.970667 0 0 0 341.333333 145.066667z"  /><path  d="M375.466667 930.133333h-59.733334a69.802667 69.802667 0 0 1-69.290666-63.658666l-13.482667-163.157334a17.066667 17.066667 0 0 0-3.072-8.704L174.421333 614.4a69.290667 69.290667 0 0 1-11.093333-51.2v-2.048l41.472-145.066667a69.12 69.12 0 0 1 68.266667-55.296h337.92a69.12 69.12 0 1 1 0 138.24h-129.536v136.533334a68.266667 68.266667 0 0 1-7.168 30.037333L460.8 693.589333a19.456 19.456 0 0 0-1.706667 6.144l-13.653333 166.912A69.973333 69.973333 0 0 1 375.466667 930.133333z m-161.962667-356.693333a17.066667 17.066667 0 0 0 3.072 12.458667L271.872 665.6a68.266667 68.266667 0 0 1 12.117333 34.133333l13.482667 163.157334a18.090667 18.090667 0 0 0 18.261333 17.066666H375.466667a18.602667 18.602667 0 0 0 18.432-17.066666l13.653333-166.741334a68.266667 68.266667 0 0 1 6.826667-24.576l13.994666-28.672a17.066667 17.066667 0 0 0 1.877334-7.68V447.829333h179.712a17.92 17.92 0 1 0 0-35.84h-337.92a18.261333 18.261333 0 0 0-18.090667 14.677334v2.048z"  /></svg>