<?xml version="1.0" standalone="no"?><!DOCTYPE svg PUBLIC "-//W3C//DTD SVG 1.1//EN" "http://www.w3.org/Graphics/SVG/1.1/DTD/svg11.dtd"><svg class="icon" width="64px" height="64.00px" viewBox="0 0 1024 1024" version="1.1" xmlns="http://www.w3.org/2000/svg"><path  d="M510.634667 989.866667a476.16 476.16 0 1 1 475.989333-476.16A476.501333 476.501333 0 0 1 510.634667 989.866667z m0-901.12a424.96 424.96 0 1 0 424.789333 424.96A425.472 425.472 0 0 0 510.634667 88.405333z"  /><path  d="M181.76 714.069333A236.885333 236.885333 0 0 1 95.573333 694.613333a25.941333 25.941333 0 0 1-14.336-34.133333 25.6 25.6 0 0 1 34.133334-14.165333c34.133333 13.482667 78.848 25.429333 101.376 4.778666 10.410667-9.386667 12.8-37.546667 15.018666-62.464 3.584-40.96 8.192-91.818667 50.005334-114.688 38.4-20.992 77.482667 4.437333 115.541333 29.013334 43.178667 27.989333 73.557333 45.056 100.522667 30.037333s24.405333-37.034667 18.261333-86.528c-5.12-40.618667-10.922667-86.698667 24.234667-117.248a136.533333 136.533333 0 0 1 87.381333-29.696c31.744-2.218667 37.034667-3.413333 40.789333-27.648s0-27.136-17.066666-37.205333A97.792 97.792 0 0 1 597.333333 162.133333c-9.557333-53.077333-14.677333-97.792 18.261334-107.349333a25.770667 25.770667 0 0 1 26.112 41.813333A251.562667 251.562667 0 0 0 647.509333 153.6a47.786667 47.786667 0 0 0 29.354667 38.4c20.138667 11.946667 51.2 30.037333 41.472 89.088-10.24 65.194667-57.002667 68.266667-87.893333 70.656a89.941333 89.941333 0 0 0-57.344 17.066667c-13.653333 11.776-11.776 34.133333-7.168 72.192 5.632 44.544 13.312 105.472-44.032 137.386666s-109.909333-3.584-153.6-31.573333c-24.234667-15.701333-51.2-34.133333-63.146667-27.136-17.066667 9.728-20.821333 42.496-23.552 74.24-3.242667 35.84-6.485333 73.045333-31.573333 95.914667a97.621333 97.621333 0 0 1-68.266667 24.234666zM623.616 974.848a25.258667 25.258667 0 0 1-18.261333-7.68c-49.152-51.2-66.56-99.498667-51.2-146.090667A136.533333 136.533333 0 0 1 597.333333 754.346667a52.565333 52.565333 0 0 0 17.066667-20.48 76.970667 76.970667 0 0 0 0-24.405334c0-31.232-2.56-77.994667 68.266667-115.541333 64.853333-34.133333 146.602667 0 249.685333 102.4a25.6 25.6 0 0 1-36.010667 36.352c-57.856-57.514667-137.557333-119.466667-189.952-92.672-42.154667 22.016-41.301333 41.301333-40.277333 68.266667a108.032 108.032 0 0 1-4.266667 42.666666A99.84 99.84 0 0 1 631.466667 792.234667 85.333333 85.333333 0 0 0 602.453333 836.266667c-8.704 27.136 4.608 59.050667 39.594667 94.890666a25.429333 25.429333 0 0 1-18.432 43.349334z"  /></svg>