<?xml version="1.0" standalone="no"?><!DOCTYPE svg PUBLIC "-//W3C//DTD SVG 1.1//EN" "http://www.w3.org/Graphics/SVG/1.1/DTD/svg11.dtd"><svg class="icon" width="64px" height="64.00px" viewBox="0 0 1024 1024" version="1.1" xmlns="http://www.w3.org/2000/svg"><path  d="M512.853333 989.866667A477.866667 477.866667 0 1 1 989.866667 512a477.866667 477.866667 0 0 1-477.013334 477.866667z m0-903.509334A426.666667 426.666667 0 1 0 938.666667 512 426.666667 426.666667 0 0 0 512.853333 86.528z"  /><path  d="M964.608 538.282667H61.098667a25.6 25.6 0 1 1 0-51.2h903.509333a25.6 25.6 0 0 1 0 51.2z"  /><path  d="M512.853333 989.866667C395.264 989.866667 307.2 785.066667 307.2 512S395.776 34.133333 513.365333 34.133333s206.336 204.8 206.336 477.866667S631.466667 989.866667 512.853333 989.866667z m0-903.509334C439.466667 86.528 358.4 261.632 358.4 512s81.578667 426.666667 154.965333 426.666667 155.136-174.933333 155.136-426.666667-82.261333-425.472-155.648-425.472z"  /><path  d="M512.853333 358.4a474.112 474.112 0 0 1-337.408-139.776 25.6 25.6 0 1 1 36.181334-36.181333A422.570667 422.570667 0 0 0 512.853333 307.2a423.253333 423.253333 0 0 0 301.397334-124.757333 25.6 25.6 0 0 1 36.181333 36.181333A474.453333 474.453333 0 0 1 512.853333 358.4zM832.341333 851.285333a25.088 25.088 0 0 1-18.090666-7.509333 426.666667 426.666667 0 0 0-602.624 0 25.6 25.6 0 0 1-36.181334-36.181333 477.866667 477.866667 0 0 1 674.986667 0 25.429333 25.429333 0 0 1 0 36.181333 25.088 25.088 0 0 1-18.090667 7.509333z"  /></svg>