<?xml version="1.0" standalone="no"?><!DOCTYPE svg PUBLIC "-//W3C//DTD SVG 1.1//EN" "http://www.w3.org/Graphics/SVG/1.1/DTD/svg11.dtd"><svg class="icon" width="64px" height="64.00px" viewBox="0 0 1024 1024" version="1.1" xmlns="http://www.w3.org/2000/svg"><path  d="M163.84 896H119.466667c-47.786667 0-85.333333-37.546667-85.333334-85.333333V122.88c0-47.786667 37.546667-85.333333 85.333334-85.333333h687.786666c47.786667 0 85.333333 37.546667 85.333334 85.333333v35.84c0 13.653333-11.946667 25.6-25.6 25.6s-25.6-11.946667-25.6-25.6V122.88c0-18.773333-15.36-34.133333-34.133334-34.133333H119.466667c-18.773333 0-34.133333 15.36-34.133334 34.133333v687.786667c0 18.773333 15.36 34.133333 34.133334 34.133333h44.373333c13.653333 0 25.6 11.946667 25.6 25.6s-10.24 25.6-25.6 25.6z"  /><path  d="M896 986.453333H238.933333c-51.2 0-93.866667-42.666667-93.866666-93.866666V235.52c0-51.2 42.666667-93.866667 93.866666-93.866667h657.066667c51.2 0 93.866667 42.666667 93.866667 93.866667v657.066667c0 51.2-42.666667 93.866667-93.866667 93.866666zM238.933333 192.853333c-23.893333 0-42.666667 18.773333-42.666666 42.666667v657.066667c0 23.893333 18.773333 42.666667 42.666666 42.666666h657.066667c23.893333 0 42.666667-18.773333 42.666667-42.666666V235.52c0-23.893333-18.773333-42.666667-42.666667-42.666667H238.933333z"  /><path  d="M506.88 716.8c-6.826667 0-13.653333-1.706667-18.773333-6.826667l-104.106667-104.106666c-10.24-10.24-10.24-25.6 0-35.84s25.6-10.24 35.84 0l85.333333 85.333333 235.52-235.52c10.24-10.24 25.6-10.24 35.84 0s10.24 25.6 0 35.84L525.653333 708.266667c-5.12 5.12-11.946667 8.533333-18.773333 8.533333z"  /></svg>