<?xml version="1.0" standalone="no"?><!DOCTYPE svg PUBLIC "-//W3C//DTD SVG 1.1//EN" "http://www.w3.org/Graphics/SVG/1.1/DTD/svg11.dtd"><svg class="icon" width="64px" height="64.00px" viewBox="0 0 1024 1024" version="1.1" xmlns="http://www.w3.org/2000/svg"><path  d="M512 989.866667C249.173333 989.866667 34.133333 774.826667 34.133333 512S249.173333 34.133333 512 34.133333s477.866667 215.04 477.866667 477.866667-215.04 477.866667-477.866667 477.866667z m0-904.533334C276.48 85.333333 85.333333 276.48 85.333333 512s191.146667 426.666667 426.666667 426.666667 426.666667-191.146667 426.666667-426.666667S747.52 85.333333 512 85.333333z"  /><path  d="M512 783.36h-3.413333-1.706667c-3.413333 0-6.826667-1.706667-10.24-1.706667H494.933333c-1.706667 0-1.706667 0-3.413333-1.706666h-1.706667-1.706666c-68.266667-37.546667-150.186667-52.906667-242.346667-47.786667h-5.12c-29.013333-3.413333-47.786667-25.6-47.786667-52.906667V298.666667c0-25.6 18.773333-47.786667 44.373334-51.2 102.4-15.36 194.56-1.706667 276.48 37.546666 81.92-39.253333 175.786667-52.906667 276.48-37.546666 25.6 3.413333 44.373333 25.6 44.373333 51.2v377.173333c0 29.013333-23.893333 52.906667-52.906667 52.906667h-3.413333c-92.16-5.12-172.373333 10.24-240.64 47.786666-1.706667 1.706667-5.12 1.706667-6.826667 3.413334 0 0-1.706667 0-3.413333 1.706666-3.413333 1.706667-6.826667 1.706667-10.24 1.706667H512z m0-51.2c78.506667-42.666667 168.96-59.733333 269.653333-52.906667 0 0 1.706667 0 1.706667-1.706666V298.666667s0-1.706667-1.706667-1.706667c-95.573333-13.653333-182.613333-1.706667-257.706666 37.546667-6.826667 3.413333-17.066667 3.413333-23.893334 0-75.093333-39.253333-162.133333-52.906667-257.706666-37.546667 0 0-1.706667 0-1.706667 1.706667v377.173333s0 1.706667 1.706667 1.706667c100.693333-6.826667 191.146667 11.946667 269.653333 54.613333z"  /><path  d="M512 781.653333c-13.653333 0-25.6-11.946667-25.6-25.6v-443.733333c0-13.653333 11.946667-25.6 25.6-25.6s25.6 11.946667 25.6 25.6v443.733333c0 13.653333-11.946667 25.6-25.6 25.6zM593.92 496.64c-10.24 0-18.773333-5.12-23.893333-15.36-5.12-13.653333 0-27.306667 11.946666-34.133333 3.413333-1.706667 73.386667-34.133333 146.773334-23.893334 13.653333 1.706667 23.893333 15.36 22.186666 29.013334s-15.36 23.893333-29.013333 22.186666c-58.026667-6.826667-119.466667 20.48-119.466667 20.48-1.706667 0-5.12 1.706667-8.533333 1.706667zM616.106667 587.093333c-10.24 0-18.773333-5.12-23.893334-15.36-5.12-13.653333 0-27.306667 11.946667-34.133333 1.706667-1.706667 51.2-23.893333 102.4-17.066667 13.653333 1.706667 23.893333 15.36 22.186667 29.013334-1.706667 13.653333-15.36 23.893333-29.013334 22.186666-35.84-5.12-75.093333 11.946667-75.093333 11.946667-1.706667 1.706667-5.12 3.413333-8.533333 3.413333z"  /><path  d="M419.84 496.64c-3.413333 0-6.826667 0-10.24-1.706667 0 0-61.44-27.306667-119.466667-20.48-13.653333 1.706667-27.306667-8.533333-29.013333-22.186666s8.533333-27.306667 22.186667-29.013334c73.386667-8.533333 143.36 22.186667 146.773333 23.893334 13.653333 5.12 18.773333 20.48 11.946667 34.133333-1.706667 10.24-11.946667 15.36-22.186667 15.36zM397.653333 587.093333c-3.413333 0-6.826667 0-10.24-1.706666 0 0-39.253333-17.066667-75.093333-11.946667-13.653333 1.706667-27.306667-8.533333-29.013333-22.186667-1.706667-13.653333 8.533333-27.306667 22.186666-29.013333 51.2-6.826667 100.693333 15.36 102.4 17.066667 13.653333 5.12 18.773333 20.48 11.946667 34.133333-1.706667 8.533333-11.946667 13.653333-22.186667 13.653333z"  /></svg>