<?xml version="1.0" standalone="no"?><!DOCTYPE svg PUBLIC "-//W3C//DTD SVG 1.1//EN" "http://www.w3.org/Graphics/SVG/1.1/DTD/svg11.dtd"><svg class="icon" width="64px" height="64.00px" viewBox="0 0 1024 1024" version="1.1" xmlns="http://www.w3.org/2000/svg"><path  d="M896 989.866667h-768c-51.2 0-93.866667-42.666667-93.866667-93.866667v-768C34.133333 76.8 76.8 34.133333 128 34.133333h768c51.2 0 93.866667 42.666667 93.866667 93.866667v768c0 51.2-42.666667 93.866667-93.866667 93.866667zM128 85.333333C104.106667 85.333333 85.333333 104.106667 85.333333 128v768C85.333333 919.893333 104.106667 938.666667 128 938.666667h768c23.893333 0 42.666667-18.773333 42.666667-42.666667v-768C938.666667 104.106667 919.893333 85.333333 896 85.333333h-768z"  /><path  d="M846.506667 370.346667c-13.653333 0-25.6-11.946667-25.6-25.6v-100.693334c0-22.186667-18.773333-40.96-40.96-40.96h-100.693334c-13.653333 0-25.6-11.946667-25.6-25.6s11.946667-25.6 25.6-25.6h100.693334c51.2 0 92.16 40.96 92.16 92.16v100.693334c0 13.653333-10.24 25.6-25.6 25.6zM779.946667 872.106667h-100.693334c-13.653333 0-25.6-11.946667-25.6-25.6s11.946667-25.6 25.6-25.6h100.693334c22.186667 0 40.96-18.773333 40.96-40.96v-100.693334c0-13.653333 11.946667-25.6 25.6-25.6s25.6 11.946667 25.6 25.6v100.693334c0 51.2-40.96 92.16-92.16 92.16zM344.746667 872.106667h-100.693334c-51.2 0-92.16-40.96-92.16-92.16v-100.693334c0-13.653333 11.946667-25.6 25.6-25.6s25.6 11.946667 25.6 25.6v100.693334c0 22.186667 18.773333 40.96 40.96 40.96h100.693334c13.653333 0 25.6 11.946667 25.6 25.6s-11.946667 25.6-25.6 25.6zM177.493333 370.346667c-13.653333 0-25.6-11.946667-25.6-25.6v-100.693334c0-51.2 40.96-92.16 92.16-92.16h100.693334c13.653333 0 25.6 11.946667 25.6 25.6s-11.946667 25.6-25.6 25.6h-100.693334c-22.186667 0-40.96 18.773333-40.96 40.96v100.693334c0 13.653333-11.946667 25.6-25.6 25.6z"  /></svg>