<?xml version="1.0" standalone="no"?><!DOCTYPE svg PUBLIC "-//W3C//DTD SVG 1.1//EN" "http://www.w3.org/Graphics/SVG/1.1/DTD/svg11.dtd"><svg class="icon" width="64px" height="64.00px" viewBox="0 0 1024 1024" version="1.1" xmlns="http://www.w3.org/2000/svg"><path  d="M462.506667 989.866667H59.733333c-13.653333 0-25.6-11.946667-25.6-25.6V561.493333c0-13.653333 11.946667-25.6 25.6-25.6s25.6 11.946667 25.6 25.6V938.666667h377.173334c13.653333 0 25.6 11.946667 25.6 25.6s-11.946667 25.6-25.6 25.6zM964.266667 488.106667c-13.653333 0-25.6-11.946667-25.6-25.6V85.333333H561.493333c-13.653333 0-25.6-11.946667-25.6-25.6S547.84 34.133333 561.493333 34.133333h402.773334c13.653333 0 25.6 11.946667 25.6 25.6v402.773334c0 13.653333-11.946667 25.6-25.6 25.6z"  /></svg>