<?xml version="1.0" standalone="no"?><!DOCTYPE svg PUBLIC "-//W3C//DTD SVG 1.1//EN" "http://www.w3.org/Graphics/SVG/1.1/DTD/svg11.dtd"><svg class="icon" width="64px" height="64.00px" viewBox="0 0 1024 1024" version="1.1" xmlns="http://www.w3.org/2000/svg"><path  d="M467.626667 901.12C228.693333 901.12 34.133333 706.56 34.133333 467.626667S228.693333 34.133333 467.626667 34.133333s433.493333 194.56 433.493333 433.493334-194.56 433.493333-433.493333 433.493333z m0-815.786667C256 85.333333 85.333333 256 85.333333 467.626667s170.666667 382.293333 382.293334 382.293333 382.293333-170.666667 382.293333-382.293333S677.546667 85.333333 467.626667 85.333333z"  /><path  d="M467.626667 636.586667c-13.653333 0-25.6-11.946667-25.6-25.6V324.266667c0-13.653333 11.946667-25.6 25.6-25.6s25.6 11.946667 25.6 25.6v288.426666c0 13.653333-11.946667 23.893333-25.6 23.893334z"  /><path  d="M610.986667 493.226667H324.266667c-13.653333 0-25.6-11.946667-25.6-25.6s11.946667-25.6 25.6-25.6h288.426666c13.653333 0 25.6 11.946667 25.6 25.6s-11.946667 25.6-27.306666 25.6zM964.266667 989.866667c-6.826667 0-13.653333-1.706667-18.773334-6.826667l-203.093333-204.8c-10.24-10.24-10.24-25.6 0-35.84s25.6-10.24 35.84 0l203.093333 203.093333c10.24 10.24 10.24 25.6 0 35.84-3.413333 6.826667-10.24 8.533333-17.066666 8.533334z"  /></svg>