<?xml version="1.0" standalone="no"?><!DOCTYPE svg PUBLIC "-//W3C//DTD SVG 1.1//EN" "http://www.w3.org/Graphics/SVG/1.1/DTD/svg11.dtd"><svg class="icon" width="64px" height="64.00px" viewBox="0 0 1024 1024" version="1.1" xmlns="http://www.w3.org/2000/svg"><path  d="M588.8 989.866667H177.493333c-51.2 0-92.16-40.96-92.16-92.16V126.293333C85.333333 75.093333 126.293333 34.133333 177.493333 34.133333h670.72c51.2 0 92.16 40.96 92.16 92.16v421.546667c0 13.653333-11.946667 25.6-25.6 25.6s-25.6-11.946667-25.6-25.6V126.293333C889.173333 104.106667 870.4 85.333333 846.506667 85.333333H177.493333C153.6 85.333333 134.826667 104.106667 134.826667 126.293333v769.706667c0 22.186667 18.773333 40.96 40.96 40.96h411.306666c13.653333 0 25.6 11.946667 25.6 25.6s-10.24 27.306667-23.893333 27.306667z"  /><path  d="M703.146667 372.053333H266.24c-13.653333 0-25.6-11.946667-25.6-25.6s11.946667-25.6 25.6-25.6h435.2c13.653333 0 25.6 11.946667 25.6 25.6s-10.24 25.6-23.893333 25.6zM529.066667 633.173333H266.24c-13.653333 0-25.6-11.946667-25.6-25.6s11.946667-25.6 25.6-25.6H529.066667c13.653333 0 25.6 11.946667 25.6 25.6s-10.24 25.6-25.6 25.6z"  /><path  d="M914.773333 795.306667H612.693333c-13.653333 0-25.6-11.946667-25.6-25.6s11.946667-25.6 25.6-25.6h302.08c13.653333 0 25.6 11.946667 25.6 25.6s-11.946667 25.6-25.6 25.6z"  /><path  d="M762.88 947.2c-13.653333 0-25.6-11.946667-25.6-25.6V619.52c0-13.653333 11.946667-25.6 25.6-25.6s25.6 11.946667 25.6 25.6V921.6c0 13.653333-11.946667 25.6-25.6 25.6z"  /></svg>