<?xml version="1.0" standalone="no"?><!DOCTYPE svg PUBLIC "-//W3C//DTD SVG 1.1//EN" "http://www.w3.org/Graphics/SVG/1.1/DTD/svg11.dtd"><svg class="icon" width="64px" height="64.00px" viewBox="0 0 1024 1024" version="1.1" xmlns="http://www.w3.org/2000/svg"><path  d="M286.72 942.08c-20.48 0-39.253333-8.533333-54.613333-22.186667l-133.12-133.12c-30.72-30.72-30.72-78.506667 0-109.226666l286.72-288.426667c15.36-15.36 34.133333-22.186667 54.613333-22.186667 20.48 0 39.253333 8.533333 54.613333 22.186667l133.12 133.12c30.72 30.72 30.72 78.506667 0 109.226667L341.333333 919.893333c-15.36 15.36-34.133333 22.186667-54.613333 22.186667z m-18.773333-58.026667c10.24 10.24 27.306667 10.24 35.84 0l286.72-288.426666c10.24-10.24 10.24-27.306667 0-37.546667l-133.12-133.12c-5.12-5.12-11.946667-6.826667-18.773334-6.826667-6.826667 0-13.653333 3.413333-18.773333 6.826667L134.826667 713.386667c-10.24 10.24-10.24 27.306667 0 37.546666l133.12 133.12z"  /><path  d="M595.626667 964.266667c-6.826667 0-13.653333-3.413333-18.773334-6.826667l-153.6-155.306667c-10.24-10.24-10.24-25.6 0-35.84 10.24-10.24 25.6-10.24 35.84 0l136.533334 136.533334 117.76-119.466667-136.533334-136.533333c-10.24-10.24-10.24-25.6 0-35.84 10.24-10.24 25.6-10.24 35.84 0l153.6 155.306666c10.24 10.24 10.24 25.6 0 35.84l-153.6 155.306667c-3.413333 3.413333-10.24 6.826667-17.066666 6.826667zM235.52 602.453333c-6.826667 0-13.653333-1.706667-18.773333-6.826666l-153.6-155.306667c-10.24-10.24-10.24-25.6 0-35.84l153.6-155.306667c10.24-10.24 27.306667-10.24 35.84 0l153.6 155.306667c10.24 10.24 10.24 25.6 0 35.84-10.24 10.24-25.6 10.24-35.84 0l-136.533334-136.533333-117.76 119.466666 136.533334 136.533334c10.24 10.24 10.24 25.6 0 35.84-3.413333 5.12-10.24 6.826667-17.066667 6.826666zM544.426667 500.053333c-6.826667 0-13.653333-1.706667-18.773334-6.826666-10.24-10.24-10.24-25.6 0-35.84l76.8-76.8c10.24-10.24 25.6-10.24 35.84 0 10.24 10.24 10.24 25.6 0 35.84l-76.8 76.8c-5.12 3.413333-10.24 6.826667-17.066666 6.826666zM754.346667 421.546667c-13.653333 0-25.6-11.946667-25.6-25.6 0-56.32-46.08-104.106667-102.4-104.106667-13.653333 0-25.6-11.946667-25.6-25.6s11.946667-25.6 25.6-25.6c85.333333 0 153.6 69.973333 153.6 155.306667 0 13.653333-11.946667 25.6-25.6 25.6zM933.546667 421.546667c-13.653333 0-25.6-11.946667-25.6-25.6 0-157.013333-126.293333-285.013333-283.306667-285.013334-13.653333 0-25.6-11.946667-25.6-25.6s11.946667-25.6 25.6-25.6c184.32 0 334.506667 150.186667 334.506667 336.213334 0 13.653333-10.24 25.6-25.6 25.6z"  /></svg>