<?xml version="1.0" standalone="no"?><!DOCTYPE svg PUBLIC "-//W3C//DTD SVG 1.1//EN" "http://www.w3.org/Graphics/SVG/1.1/DTD/svg11.dtd"><svg class="icon" width="64px" height="64.00px" viewBox="0 0 1024 1024" version="1.1" xmlns="http://www.w3.org/2000/svg"><path  d="M674.304 893.098667l-614.4-4.266667a25.6 25.6 0 0 1-25.258667-25.6V170.666667a25.6 25.6 0 0 1 25.6-25.6h890.026667a25.6 25.6 0 0 1 25.6 25.6v421.546666a25.6 25.6 0 0 1-51.2 0V196.096H86.186667v641.706667l588.458666 4.096a25.6 25.6 0 0 1 0 51.2z"  /><path  d="M768 909.994667a225.792 225.792 0 1 1 224.938667-225.792A226.133333 226.133333 0 0 1 768 909.994667z m0-400.384a174.592 174.592 0 1 0 173.738667 174.592A174.762667 174.762667 0 0 0 768 509.610667z"  /><path  d="M833.877333 731.989333h-88.917333a25.6 25.6 0 0 1-25.6-25.6v-88.917333a25.6 25.6 0 0 1 51.2 0v63.317333h63.317333a25.6 25.6 0 0 1 0 51.2zM505.344 499.370667a25.6 25.6 0 0 1-13.824-4.437334L46.592 206.165333a25.6 25.6 0 0 1 27.818667-43.008L505.344 443.733333 936.448 163.157333a25.6 25.6 0 0 1 27.818667 43.008L519.338667 494.933333a25.770667 25.770667 0 0 1-13.994667 4.437334z"  /></svg>