<?xml version="1.0" standalone="no"?><!DOCTYPE svg PUBLIC "-//W3C//DTD SVG 1.1//EN" "http://www.w3.org/Graphics/SVG/1.1/DTD/svg11.dtd"><svg class="icon" width="64px" height="64.00px" viewBox="0 0 1024 1024" version="1.1" xmlns="http://www.w3.org/2000/svg"><path  d="M150.528 117.418667a34.133333 34.133333 0 0 0-34.133333 34.133333v722.432a34.133333 34.133333 0 0 0 34.133333 34.133333h722.944a34.133333 34.133333 0 0 0 34.133333-34.133333V151.04a34.133333 34.133333 0 0 0-34.133333-34.133333z m0-67.413334h722.944a100.864 100.864 0 0 1 100.864 101.034667v722.944a100.864 100.864 0 0 1-100.864 100.864H150.528a100.864 100.864 0 0 1-100.864-100.864V151.04a100.864 100.864 0 0 1 100.864-101.034667z"  /><path  d="M201.557333 294.741333h258.048v57.344h-189.44v133.12h161.109334v57.514667h-161.109334v187.733333h-68.266666zM744.96 730.282667l-98.986667-175.786667h-70.314666v175.786667h-68.266667V294.741333h142.677333c89.941333 0 157.525333 31.914667 157.525334 125.952A121.344 121.344 0 0 1 716.8 546.133333l106.496 184.661334z m-169.301333-230.912h65.706666c63.317333 0 97.621333-25.941333 97.621334-78.677334s-34.133333-70.997333-97.621334-70.997333h-65.706666z"  /></svg>