<?xml version="1.0" standalone="no"?><!DOCTYPE svg PUBLIC "-//W3C//DTD SVG 1.1//EN" "http://www.w3.org/Graphics/SVG/1.1/DTD/svg11.dtd"><svg class="icon" width="64px" height="64.00px" viewBox="0 0 1024 1024" version="1.1" xmlns="http://www.w3.org/2000/svg"><path  d="M513.365333 595.797333c-6.997333 0-13.824-0.512-20.821333-1.365333a161.4848 161.4848 0 0 1-107.861333-61.781333c-0.682667-1.024-1.365333-1.365333-1.877334-1.365334L108.714667 485.717333c-29.354667-3.072-51.2-29.184-48.810667-58.88 1.194667-14.506667 8.021333-27.818667 19.114667-37.205333 10.752-9.216 24.576-13.824 38.570666-12.970667h189.269334c0.682667 0 2.901333 0.170667 3.584 0.170667 11.434667 1.024 21.504 6.485333 28.672 15.018667 3.754667 4.608 6.485333 9.728 8.192 15.36h5.802666c0-0.512 0.170667-1.024 0.341334-1.536 0.170667-1.024 0.512-2.389333 0.853333-3.925334 0.170667-0.512 0.170667-0.170667 0.170667 0.512 0-1.877333 0.170667-3.925333 0.682666-5.802666 14.165333-60.757333 60.586667-107.349333 121.173334-121.514667 42.154667-9.898667 85.504-2.730667 122.368 20.138667a161.655467 161.655467 0 0 1 72.533333 101.205333c0.682667 2.901333 1.536 6.485333 1.877333 10.581333h5.461334c1.877333-6.656 5.461333-12.970667 10.581333-18.090666 7.850667-8.021333 18.432-12.458667 29.866667-12.458667H909.653333c2.730667 0 5.290667 0.341333 7.850667 1.194667 23.722667 3.072 43.008 21.674667 46.592 46.250666 4.266667 29.696-16.384 57.344-45.909333 61.610667l-275.114667 45.568-1.194667 1.365333c-8.362667 10.922667-18.261333 20.650667-29.013333 29.184-29.354667 22.528-63.829333 34.304-99.498667 34.304zM114.517333 427.861333c-1.536 0-3.413333 1.706667-3.413333 3.242667-0.170667 1.877333 1.194667 3.584 3.072 3.754667 0.682667 0 1.365333 0.170667 2.048 0.341333l275.456 45.738667c13.994667 2.56 25.770667 10.069333 33.962667 20.992a109.909333 109.909333 0 0 0 73.386666 41.813333c29.354667 3.754667 58.538667-4.266667 81.92-22.357333 7.509333-5.802667 14.165333-12.458667 19.968-19.968a53.418667 53.418667 0 0 1 32.768-20.48l276.309334-45.738667c2.218667-0.341333 3.413333-1.877333 3.072-3.754667a3.1232 3.1232 0 0 0-3.072-2.730666h-0.682667c-2.048 0-4.266667-0.341333-6.144-0.682667H728.064v4.949333c0 14.165333-11.434667 25.6-25.6 25.6h-52.736a25.6 25.6 0 0 1-25.6-25.258666c0-6.144-0.682667-12.288-1.877333-18.261334-0.341333-1.536-0.512-3.242667-0.512-4.778666l-0.341334-0.682667c-6.997333-30.208-24.746667-54.954667-50.005333-70.656a110.011733 110.011733 0 0 0-83.626667-13.824 110.6432 110.6432 0 0 0-82.432 81.237333c-0.341333 2.730667-0.853333 5.12-1.194666 6.826667 0 0.170667-0.341333 1.706667-0.341334 1.877333-1.024 5.973333-1.706667 12.117333-1.706666 18.090667-0.170667 13.994667-11.605333 25.429333-25.6 25.429333h-53.077334c-14.165333 0-25.6-11.434667-25.6-25.6v-5.12H114.517333z m208.725334-7.338666z"  /><path  d="M498.176 482.986667c-23.552 0-34.986667-5.802667-46.250667-16.213334-2.901333-2.56-3.584-3.242667-7.509333-4.437333a25.668267 25.668267 0 0 1-17.237333-31.914667c4.096-13.482667 18.432-21.162667 31.914666-17.237333 15.189333 4.608 22.869333 11.605333 27.477334 15.701333 0.682667 0.682667 1.365333 1.365333 2.048 1.877334 0 0 3.925333 1.365333 18.944 0.512 27.136-0.341333 31.061333-2.56 34.304-5.12 4.778667-3.584 11.776-9.045333 25.258666-13.141334s27.818667 3.584 31.914667 17.237334a25.6 25.6 0 0 1-17.237333 31.914666c-4.266667 1.365333-5.461333 2.218667-8.533334 4.608-13.653333 10.581333-26.624 15.701333-61.781333 15.701334h-2.389333c-4.096 0.341333-7.68 0.512-10.922667 0.512zM553.984 245.418667c-2.730667 0-5.461333-0.341333-8.192-1.024-10.922667-3.072-56.661333-3.072-67.413333 0a31.573333 31.573333 0 0 1-39.424-36.352c0.170667-0.853333 0.341333-1.706667 0.682666-2.389334l26.624-88.064C470.698667 99.157333 488.277333 85.333333 508.586667 85.333333h6.826666c20.138667 0 37.717333 13.824 42.496 33.450667l26.282667 86.698667c0.341333 0.853333 0.512 1.706667 0.682667 2.730666 0.853333 4.608 0.682667 9.557333-0.512 14.165334-3.754667 13.824-16.554667 23.04-30.378667 23.04z m-42.154667-54.613334c4.949333 0 9.898667 0.170667 14.677334 0.341334L512 143.189333l-14.336 47.786667c4.608-0.170667 9.386667-0.170667 14.165333-0.170667zM508.586667 136.533333z m6.826666 0z m-6.826666-4.266666c0 0.170667 0 0.170667 0.170666 0.341333l-0.170666-0.341333z m7.168-1.365334l-0.341334 0.853334c0.170667-0.341333 0.170667-0.512 0.341334-0.853334zM322.389333 735.061333h-18.432c-16.896 0-32.597333-8.192-43.178666-22.357333-18.773333-24.917333-17.066667-62.293333 3.754666-84.992 1.024-1.194667 1.536-2.048 1.706667-3.754667v-15.018666c0-25.941333 19.456-46.933333 43.349333-46.933334h6.144c23.893333 0 43.349333 20.992 43.349334 46.933334v14.165333c0 1.194667 0.682667 2.218667 0.853333 2.389333 12.458667 12.458667 19.114667 29.696 18.944 47.786667-0.170667 17.749333-7.168 34.645333-19.285333 46.250667-10.410667 10.069333-23.552 15.530667-37.205334 15.530666z m-0.512-51.2c1.024 0.341333 1.365333-0.341333 2.048-1.024 1.706667-1.706667 3.584-5.290667 3.754667-10.24 0-4.266667-1.365333-8.362667-3.584-10.581333-4.608-4.437333-8.362667-9.898667-11.093333-16.042667-2.730667 6.485333-6.656 12.458667-11.605334 17.237334-3.242667 3.584-3.584 13.312 0.512 18.602666 1.194667 1.536 2.218667 2.048 2.389334 2.048h17.578666zM720.042667 735.061333h-18.261334c-16.725333 0-32.597333-8.192-43.349333-22.357333-18.773333-24.917333-17.066667-62.293333 3.754667-84.992 1.024-1.194667 1.706667-2.048 1.706666-3.754667v-15.018666c0-25.941333 19.456-46.933333 43.349334-46.933334h6.144c23.893333 0 43.349333 20.992 43.349333 46.933334v14.165333c0 1.194667 0.682667 2.218667 0.853333 2.389333 12.288 12.458667 19.114667 29.525333 18.944 47.616-0.170667 17.749333-7.168 34.645333-19.114666 46.421334-10.410667 10.069333-23.552 15.530667-37.376 15.530666z m-9.557334-88.917333c-2.730667 6.485333-6.656 12.458667-11.605333 17.237333-3.242667 3.584-3.584 13.312 0.512 18.602667 1.194667 1.536 2.218667 2.048 2.389333 2.048h17.92c0.512 0 1.194667-0.341333 1.877334-1.024 1.706667-1.706667 3.584-5.290667 3.584-10.24 0-4.096-1.365333-8.362667-3.584-10.581333-4.608-4.437333-8.362667-9.898667-11.093334-16.042667zM908.288 904.533333H115.712c-29.866667 0-54.272-22.528-54.272-50.005333v-54.613333c0-27.648 24.405333-50.005333 54.272-50.005334h792.746667c29.866667 0 54.272 22.528 54.272 50.005334v54.613333C962.56 882.005333 938.325333 904.533333 908.288 904.533333zM112.64 852.650667c0.512 0.341333 1.536 0.682667 3.072 0.682666h792.746667a6.826667 6.826667 0 0 0 3.072-0.682666v-51.029334a6.826667 6.826667 0 0 0-3.072-0.682666H115.712a6.826667 6.826667 0 0 0-3.072 0.682666v51.029334zM912.042667 802.133333z"  /><path  d="M542.208 692.565333h-60.586667c-14.165333 0-25.6-11.434667-25.6-25.6s11.434667-25.6 25.6-25.6h60.586667c14.165333 0 25.6 11.434667 25.6 25.6s-11.434667 25.6-25.6 25.6z"  /></svg>