<?xml version="1.0" standalone="no"?><!DOCTYPE svg PUBLIC "-//W3C//DTD SVG 1.1//EN" "http://www.w3.org/Graphics/SVG/1.1/DTD/svg11.dtd"><svg class="icon" width="64px" height="64.00px" viewBox="0 0 1024 1024" version="1.1" xmlns="http://www.w3.org/2000/svg"><path  d="M261.12 626.858667a25.258667 25.258667 0 0 1-17.92-7.338667 25.429333 25.429333 0 0 1 0-36.181333l163.328-165.717334a25.770667 25.770667 0 0 1 36.010667 0L541.866667 512l124.757333-109.056a25.770667 25.770667 0 0 1 34.133333 0.853333l79.189334 77.312a25.6 25.6 0 0 1-35.669334 36.693334L682.666667 457.557333l-124.586667 108.885334a25.429333 25.429333 0 0 1-34.133333 0l-98.304-94.037334-145.749334 147.797334a25.770667 25.770667 0 0 1-18.773333 6.656z"  /><path  d="M512 987.989333a25.088 25.088 0 0 1-12.970667-3.413333L116.053333 759.296a25.941333 25.941333 0 0 1-12.629333-22.016V286.72a25.941333 25.941333 0 0 1 12.629333-22.016l382.976-225.28a26.112 26.112 0 0 1 25.941334 0l382.976 225.28a25.941333 25.941333 0 0 1 12.629333 22.016v450.56a25.941333 25.941333 0 0 1-12.629333 22.016l-382.976 225.28a25.088 25.088 0 0 1-12.970667 3.413333zM154.624 722.602667L512 932.693333l357.376-210.090666V301.397333L512 91.136 154.624 301.397333z"  /></svg>