<?xml version="1.0" standalone="no"?><!DOCTYPE svg PUBLIC "-//W3C//DTD SVG 1.1//EN" "http://www.w3.org/Graphics/SVG/1.1/DTD/svg11.dtd"><svg class="icon" width="64px" height="64.00px" viewBox="0 0 1024 1024" version="1.1" xmlns="http://www.w3.org/2000/svg"><path  d="M814.08 989.866667H203.093333c-47.786667 0-85.333333-40.96-85.333333-92.16V126.293333c0-51.2 37.546667-92.16 85.333333-92.16h447.146667c6.826667 0 13.653333 3.413333 18.773333 8.533334l230.4 235.52c5.12 5.12 6.826667 11.946667 6.826667 17.066666v600.746667c0 52.906667-40.96 93.866667-92.16 93.866667zM203.093333 85.333333c-18.773333 0-34.133333 18.773333-34.133333 40.96v769.706667c0 22.186667 15.36 40.96 34.133333 40.96h610.986667c22.186667 0 40.96-18.773333 40.96-40.96V307.2L638.293333 85.333333H203.093333z"  /><path  d="M877.226667 320.853333H733.866667c-58.026667 0-105.813333-51.2-105.813334-116.053333V63.146667c0-10.24 6.826667-20.48 15.36-23.893334 10.24-3.413333 20.48-1.706667 27.306667 6.826667l223.573333 232.106667c6.826667 6.826667 8.533333 18.773333 5.12 27.306666s-11.946667 15.36-22.186666 15.36zM679.253333 128v78.506667c0 35.84 23.893333 64.853333 54.613334 64.853333h83.626666l-138.24-143.36z"  /><path  d="M414.72 793.6c-32.426667 0-66.56-11.946667-92.16-37.546667-51.2-51.2-51.2-133.12 0-182.613333L494.933333 401.066667c10.24-10.24 25.6-10.24 35.84 0s10.24 25.6 0 35.84l-170.666666 172.373333c-30.72 30.72-30.72 80.213333 0 110.933333 30.72 30.72 80.213333 30.72 110.933333 0l204.8-204.8c17.066667-17.066667 17.066667-44.373333 0-61.44s-44.373333-17.066667-61.44 0l-204.8 204.8c-3.413333 3.413333-3.413333 8.533333 0 13.653334 3.413333 3.413333 8.533333 3.413333 13.653333 0l172.373334-172.373334c10.24-10.24 25.6-10.24 35.84 0s10.24 25.6 0 35.84l-174.08 170.666667c-23.893333 23.893333-61.44 23.893333-85.333334 0s-23.893333-61.44 0-85.333333l204.8-204.8c37.546667-37.546667 97.28-37.546667 134.826667 0 18.773333 17.066667 27.306667 40.96 27.306667 66.56s-10.24 49.493333-27.306667 66.56l-204.8 204.8c-25.6 27.306667-58.026667 39.253333-92.16 39.253333z"  /></svg>