<?xml version="1.0" standalone="no"?><!DOCTYPE svg PUBLIC "-//W3C//DTD SVG 1.1//EN" "http://www.w3.org/Graphics/SVG/1.1/DTD/svg11.dtd"><svg class="icon" width="64px" height="64.00px" viewBox="0 0 1024 1024" version="1.1" xmlns="http://www.w3.org/2000/svg"><path  d="M619.52 901.12c-32.426667 0-66.56-11.946667-92.16-37.546667-51.2-51.2-51.2-133.12 0-182.613333L699.733333 508.586667c10.24-10.24 25.6-10.24 35.84 0s10.24 25.6 0 35.84L563.2 716.8c-30.72 30.72-30.72 80.213333 0 110.933333s80.213333 30.72 110.933333 0l204.8-204.8c8.533333-8.533333 13.653333-18.773333 13.653334-30.72s-5.12-22.186667-13.653334-30.72c-17.066667-17.066667-44.373333-17.066667-61.44 0l-204.8 204.8c-3.413333 3.413333-3.413333 8.533333 0 13.653334 3.413333 3.413333 8.533333 3.413333 13.653334 0l172.373333-172.373334c10.24-10.24 25.6-10.24 35.84 0s10.24 25.6 0 35.84l-172.373333 170.666667c-22.186667 22.186667-63.146667 22.186667-85.333334 0-23.893333-23.893333-23.893333-61.44 0-85.333333l204.8-204.8c37.546667-37.546667 97.28-37.546667 134.826667 0 18.773333 17.066667 27.306667 40.96 27.306667 66.56s-10.24 49.493333-27.306667 66.56l-204.8 204.8c-25.6 27.306667-59.733333 39.253333-92.16 39.253333z"  /><path  d="M525.653333 989.866667h-358.4c-47.786667 0-85.333333-40.96-85.333333-92.16V126.293333c0-51.2 37.546667-92.16 85.333333-92.16H785.066667c47.786667 0 85.333333 40.96 85.333333 92.16v285.013334c0 13.653333-11.946667 25.6-25.6 25.6s-25.6-11.946667-25.6-25.6V126.293333c0-22.186667-15.36-40.96-34.133333-40.96H167.253333c-18.773333 0-34.133333 18.773333-34.133333 40.96v769.706667c0 22.186667 15.36 40.96 34.133333 40.96h360.106667c13.653333 0 25.6 11.946667 25.6 25.6s-11.946667 27.306667-27.306667 27.306667z"  /><path  d="M605.866667 310.613333H242.346667c-13.653333 0-25.6-11.946667-25.6-25.6s11.946667-25.6 25.6-25.6h363.52c13.653333 0 25.6 11.946667 25.6 25.6s-10.24 25.6-25.6 25.6zM457.386667 513.706667H242.346667c-13.653333 0-25.6-11.946667-25.6-25.6s11.946667-25.6 25.6-25.6h213.333333c13.653333 0 25.6 11.946667 25.6 25.6s-10.24 25.6-23.893333 25.6z"  /></svg>