<?xml version="1.0" standalone="no"?><!DOCTYPE svg PUBLIC "-//W3C//DTD SVG 1.1//EN" "http://www.w3.org/Graphics/SVG/1.1/DTD/svg11.dtd"><svg class="icon" width="64px" height="64.00px" viewBox="0 0 1024 1024" version="1.1" xmlns="http://www.w3.org/2000/svg"><path  d="M897.706667 965.973333H126.293333c-51.2 0-92.16-40.96-92.16-92.16V150.186667c0-51.2 40.96-92.16 92.16-92.16h250.88c17.066667 0 34.133333 8.533333 46.08 20.48l98.986667 119.466666c1.706667 1.706667 3.413333 3.413333 6.826667 3.413334h370.346666c51.2 0 92.16 40.96 92.16 92.16v580.266666c-1.706667 51.2-42.666667 92.16-93.866666 92.16zM126.293333 109.226667C104.106667 109.226667 85.333333 128 85.333333 150.186667v723.626666c0 22.186667 18.773333 40.96 40.96 40.96h769.706667c22.186667 0 40.96-18.773333 40.96-40.96v-580.266666c0-22.186667-18.773333-40.96-40.96-40.96H527.36c-17.066667 0-34.133333-8.533333-46.08-20.48l-98.986667-119.466667c-1.706667-1.706667-3.413333-3.413333-6.826666-3.413333H126.293333z"  /><path  d="M414.72 781.653333c-32.426667 0-66.56-11.946667-92.16-37.546666-51.2-51.2-51.2-133.12 0-182.613334L494.933333 389.12c10.24-10.24 25.6-10.24 35.84 0s10.24 25.6 0 35.84l-170.666666 170.666667c-30.72 30.72-30.72 80.213333 0 110.933333 30.72 30.72 80.213333 30.72 110.933333 0l204.8-204.8c17.066667-17.066667 17.066667-44.373333 0-61.44s-44.373333-17.066667-61.44 0l-204.8 204.8c-3.413333 3.413333-3.413333 8.533333 0 13.653333 3.413333 3.413333 8.533333 3.413333 13.653333 0l172.373334-172.373333c10.24-10.24 25.6-10.24 35.84 0s10.24 25.6 0 35.84L457.386667 694.613333c-23.893333 23.893333-61.44 23.893333-85.333334 0s-23.893333-61.44 0-85.333333l204.8-204.8c37.546667-37.546667 97.28-37.546667 134.826667 0s37.546667 97.28 0 134.826667l-204.8 204.8c-25.6 23.893333-58.026667 37.546667-92.16 37.546666z"  /></svg>