<?xml version="1.0" standalone="no"?><!DOCTYPE svg PUBLIC "-//W3C//DTD SVG 1.1//EN" "http://www.w3.org/Graphics/SVG/1.1/DTD/svg11.dtd"><svg class="icon" width="64px" height="64.00px" viewBox="0 0 1024 1024" version="1.1" xmlns="http://www.w3.org/2000/svg"><path  d="M972.8 793.6H680.96c-13.653333 0-25.6-11.946667-25.6-25.6s11.946667-25.6 25.6-25.6H972.8c13.653333 0 25.6 11.946667 25.6 25.6s-11.946667 25.6-25.6 25.6z"  /><path  d="M851.626667 919.893333c-6.826667 0-11.946667-1.706667-17.066667-6.826666-10.24-10.24-10.24-25.6-1.706667-35.84l104.106667-109.226667-104.106667-109.226667c-10.24-10.24-8.533333-27.306667 1.706667-35.84 10.24-10.24 25.6-8.533333 35.84 1.706667l121.173333 128c8.533333 10.24 8.533333 25.6 0 35.84L870.4 913.066667c-5.12 5.12-11.946667 6.826667-18.773333 6.826666z"  /><path  d="M621.226667 971.093333H124.586667c-54.613333 0-98.986667-46.08-98.986667-102.4V155.306667c0-56.32 44.373333-102.4 98.986667-102.4h776.533333c54.613333 0 98.986667 46.08 98.986667 102.4V563.2c0 13.653333-11.946667 25.6-25.6 25.6s-25.6-11.946667-25.6-25.6V155.306667c0-27.306667-20.48-51.2-47.786667-51.2H124.586667c-25.6 0-47.786667 22.186667-47.786667 51.2V870.4c0 27.306667 20.48 51.2 47.786667 51.2h496.64c13.653333 0 25.6 11.946667 25.6 25.6s-11.946667 23.893333-25.6 23.893333z"  /><path  d="M414.72 460.8c-8.533333 0-15.36-3.413333-20.48-10.24l-121.173333-153.6c-8.533333-10.24-6.826667-27.306667 3.413333-35.84 10.24-8.533333 27.306667-6.826667 35.84 3.413333l100.693333 128 100.693334-128c8.533333-10.24 25.6-13.653333 35.84-3.413333 10.24 8.533333 13.653333 25.6 3.413333 35.84l-121.173333 153.6c-1.706667 6.826667-8.533333 10.24-17.066667 10.24zM559.786667 614.4h-290.133334c-13.653333 0-25.6-11.946667-25.6-25.6S256 563.2 269.653333 563.2h291.84c13.653333 0 25.6 11.946667 25.6 25.6s-11.946667 25.6-27.306666 25.6z"  /><path  d="M559.786667 460.8h-290.133334c-13.653333 0-25.6-11.946667-25.6-25.6S256 409.6 269.653333 409.6h291.84c13.653333 0 25.6 11.946667 25.6 25.6s-11.946667 25.6-27.306666 25.6z"  /><path  d="M414.72 768c-13.653333 0-25.6-11.946667-25.6-25.6v-307.2c0-13.653333 11.946667-25.6 25.6-25.6s25.6 11.946667 25.6 25.6v307.2c0 13.653333-11.946667 25.6-25.6 25.6z"  /></svg>