<?xml version="1.0" standalone="no"?><!DOCTYPE svg PUBLIC "-//W3C//DTD SVG 1.1//EN" "http://www.w3.org/Graphics/SVG/1.1/DTD/svg11.dtd"><svg class="icon" width="64px" height="64.00px" viewBox="0 0 1024 1024" version="1.1" xmlns="http://www.w3.org/2000/svg"><path  d="M916.48 918.186667H107.52c-40.96 0-73.386667-32.426667-73.386667-73.386667V320.853333c0-40.96 32.426667-73.386667 73.386667-73.386666h808.96c40.96 0 73.386667 32.426667 73.386667 73.386666v523.946667c0 40.96-32.426667 73.386667-73.386667 73.386667zM107.52 300.373333c-11.946667 0-22.186667 10.24-22.186667 22.186667v523.946667c0 11.946667 10.24 22.186667 22.186667 22.186666h808.96c11.946667 0 22.186667-10.24 22.186667-22.186666V320.853333c0-11.946667-10.24-22.186667-22.186667-22.186666H107.52z"  /><path  d="M964.266667 728.746667H604.16c-51.2 0-93.866667-42.666667-93.866667-93.866667v-124.586667c0-51.2 42.666667-93.866667 93.866667-93.866666h360.106667c13.653333 0 25.6 11.946667 25.6 25.6v261.12c0 13.653333-11.946667 25.6-25.6 25.6zM604.16 465.92c-23.893333 0-42.666667 18.773333-42.666667 42.666667v124.586666c0 23.893333 18.773333 42.666667 42.666667 42.666667H938.666667V465.92H604.16z"  /><path  d="M964.266667 766.293333c-10.24 0-17.066667-6.826667-17.066667-17.066666V392.533333c0-10.24 6.826667-17.066667 17.066667-17.066666s17.066667 6.826667 17.066666 17.066666v356.693334c0 10.24-6.826667 17.066667-17.066666 17.066666zM703.146667 300.373333c-13.653333 0-25.6-11.946667-25.6-25.6 0-114.346667-83.626667-117.76-93.866667-117.76H238.933333c-80.213333 0-81.92 73.386667-81.92 76.8v40.96c0 13.653333-11.946667 25.6-25.6 25.6s-25.6-11.946667-25.6-25.6v-40.96c0-51.2 35.84-128 133.12-128h344.746667c49.493333 0 145.066667 35.84 145.066667 168.96 0 13.653333-11.946667 25.6-25.6 25.6z"  /><path  d="M737.28 571.733333m-35.84 0a35.84 35.84 0 1 0 71.68 0 35.84 35.84 0 1 0-71.68 0Z"  /></svg>