<?xml version="1.0" standalone="no"?><!DOCTYPE svg PUBLIC "-//W3C//DTD SVG 1.1//EN" "http://www.w3.org/Graphics/SVG/1.1/DTD/svg11.dtd"><svg class="icon" width="64px" height="64.00px" viewBox="0 0 1024 1024" version="1.1" xmlns="http://www.w3.org/2000/svg"><path  d="M805.546667 989.866667H218.453333c-51.2 0-93.866667-42.666667-93.866666-93.866667v-768c0-51.2 42.666667-93.866667 93.866666-93.866667H648.533333c6.826667 0 13.653333 3.413333 18.773334 6.826667l225.28 225.28c5.12 5.12 6.826667 11.946667 6.826666 18.773333v610.986667c0 51.2-42.666667 93.866667-93.866666 93.866667zM218.453333 85.333333c-23.893333 0-42.666667 18.773333-42.666666 42.666667v768c0 23.893333 18.773333 42.666667 42.666666 42.666667h587.093334c23.893333 0 42.666667-18.773333 42.666666-42.666667V296.96L636.586667 85.333333H218.453333z"  /><path  d="M617.813333 493.226667H406.186667c-13.653333 0-25.6-11.946667-25.6-25.6s11.946667-25.6 25.6-25.6h209.92c13.653333 0 25.6 11.946667 25.6 25.6s-10.24 25.6-23.893334 25.6zM617.813333 599.04H406.186667c-13.653333 0-25.6-11.946667-25.6-25.6s11.946667-25.6 25.6-25.6h209.92c13.653333 0 25.6 11.946667 25.6 25.6s-10.24 25.6-23.893334 25.6z"  /><path  d="M512 703.146667c-13.653333 0-25.6-11.946667-25.6-25.6V467.626667c0-13.653333 11.946667-25.6 25.6-25.6s25.6 11.946667 25.6 25.6v209.92c0 15.36-11.946667 25.6-25.6 25.6z"  /><path  d="M512 486.4l-122.88-122.88c-10.24-10.24-10.24-25.6 0-35.84s25.6-10.24 35.84 0l87.04 87.04 87.04-87.04c10.24-10.24 25.6-10.24 35.84 0s10.24 25.6 0 35.84L512 486.4z"  /></svg>