<?xml version="1.0" standalone="no"?><!DOCTYPE svg PUBLIC "-//W3C//DTD SVG 1.1//EN" "http://www.w3.org/Graphics/SVG/1.1/DTD/svg11.dtd"><svg class="icon" width="64px" height="64.00px" viewBox="0 0 1024 1024" version="1.1" xmlns="http://www.w3.org/2000/svg"><path  d="M500.053333 163.84h-59.733333a25.6 25.6 0 0 0 0 51.2h59.733333a25.6 25.6 0 0 0 0-51.2zM701.44 189.44a25.6 25.6 0 0 0-25.6-25.6h-58.026667a25.6 25.6 0 0 0 0 51.2h58.026667a25.6 25.6 0 0 0 25.6-25.6zM440.32 397.653333a25.6 25.6 0 0 0-25.6 25.6 25.6 25.6 0 0 0 25.6 25.6h59.733333a25.6 25.6 0 0 0 25.6-25.6 25.6 25.6 0 0 0-25.6-25.6z"  /><path  d="M440.32 515.413333H206.506667a87.04 87.04 0 0 1-64.853334-27.306666 90.453333 90.453333 0 0 1-27.306666-64.853334 88.746667 88.746667 0 0 1 27.306666-63.146666 87.04 87.04 0 0 1 64.853334-27.306667h469.333333a85.333333 85.333333 0 0 1 78.506667 46.08 27.306667 27.306667 0 0 0 35.84 8.533333 25.6 25.6 0 0 0 8.533333-34.133333 122.88 122.88 0 0 0-42.666667-46.08 98.986667 98.986667 0 0 0 20.48-17.066667 139.946667 139.946667 0 0 0 42.666667-100.693333 141.653333 141.653333 0 0 0-42.666667-100.693333 141.653333 141.653333 0 0 0-100.693333-42.666667H206.506667a141.653333 141.653333 0 0 0-100.693334 42.666667 141.653333 141.653333 0 0 0-42.666666 100.693333A139.946667 139.946667 0 0 0 105.813333 290.133333l18.773334 17.066667-18.773334 15.36a141.653333 141.653333 0 0 0 0 203.093333 148.48 148.48 0 0 0 100.693334 40.96h150.186666V750.933333h-121.173333a25.6 25.6 0 0 0-25.6 25.6 25.6 25.6 0 0 0 25.6 25.6h146.773333a25.6 25.6 0 0 0 25.6-25.6V566.613333h32.426667a25.6 25.6 0 1 0 0-51.2zM141.653333 254.293333a93.866667 93.866667 0 0 1-27.306666-64.853333 93.866667 93.866667 0 0 1 92.16-92.16h469.333333a93.866667 93.866667 0 0 1 92.16 92.16 93.866667 93.866667 0 0 1-92.16 92.16H206.506667a93.866667 93.866667 0 0 1-64.853334-27.306667z"  /><path  d="M969.386667 457.386667a25.6 25.6 0 0 0-25.6 25.6V563.2a259.413333 259.413333 0 0 0-52.906667-52.906667 254.293333 254.293333 0 0 0-162.133333-52.906666 261.12 261.12 0 0 0-249.173334 204.8 256 256 0 0 0 22.186667 170.666666 264.533333 264.533333 0 0 0 121.173333 119.466667 250.88 250.88 0 0 0 110.933334 25.6 356.693333 356.693333 0 0 0 59.733333-6.826667 259.413333 259.413333 0 0 0 143.36-92.16 27.306667 27.306667 0 0 0-3.413333-35.84 25.6 25.6 0 0 0-35.84 5.12 208.213333 208.213333 0 0 1-116.053334 71.68 197.973333 197.973333 0 0 1-136.533333-13.653333 206.506667 206.506667 0 0 1-97.28-97.28 194.56 194.56 0 0 1-17.066667-134.826667 206.506667 206.506667 0 0 1 199.68-165.546666 201.386667 201.386667 0 0 1 129.706667 42.666666 191.146667 191.146667 0 0 1 64.853333 81.92h-102.4a25.6 25.6 0 0 0 0 51.2h146.773334a25.6 25.6 0 0 0 25.6-25.6V482.986667a25.6 25.6 0 0 0-25.6-25.6zM235.52 150.186667a39.253333 39.253333 0 0 0-39.253333 39.253333 39.253333 39.253333 0 0 0 39.253333 40.96 40.96 40.96 0 0 0 40.96-40.96 39.253333 39.253333 0 0 0-40.96-39.253333z"  /><path  d="M235.52 423.253333m-40.96 0a40.96 40.96 0 1 0 81.92 0 40.96 40.96 0 1 0-81.92 0Z"  /><path  d="M104.106667 720.213333a40.96 40.96 0 0 0 0 81.92 40.96 40.96 0 1 0 0-81.92z"  /></svg>