<?xml version="1.0" standalone="no"?><!DOCTYPE svg PUBLIC "-//W3C//DTD SVG 1.1//EN" "http://www.w3.org/Graphics/SVG/1.1/DTD/svg11.dtd"><svg class="icon" width="64px" height="64.00px" viewBox="0 0 1024 1024" version="1.1" xmlns="http://www.w3.org/2000/svg"><path  d="M897.706667 798.72h-110.933334c-13.653333 0-25.6-11.946667-25.6-25.6s11.946667-25.6 25.6-25.6h110.933334c22.186667 0 40.96-18.773333 40.96-40.96v-580.266667C938.666667 104.106667 919.893333 85.333333 897.706667 85.333333h-580.266667c-22.186667 0-40.96 18.773333-40.96 40.96v109.226667c0 13.653333-11.946667 25.6-25.6 25.6s-25.6-11.946667-25.6-25.6V126.293333c0-51.2 40.96-92.16 92.16-92.16h580.266667c51.2 0 92.16 40.96 92.16 92.16v580.266667c0 51.2-40.96 92.16-92.16 92.16z"  /><path  d="M706.56 989.866667h-580.266667c-51.2 0-92.16-40.96-92.16-92.16v-580.266667c0-51.2 40.96-92.16 92.16-92.16h580.266667c51.2 0 92.16 40.96 92.16 92.16v580.266667c0 51.2-40.96 92.16-92.16 92.16z m-580.266667-713.386667c-22.186667 0-40.96 18.773333-40.96 40.96v580.266667C85.333333 919.893333 104.106667 938.666667 126.293333 938.666667h580.266667c22.186667 0 40.96-18.773333 40.96-40.96v-580.266667c0-22.186667-18.773333-40.96-40.96-40.96h-580.266667z"  /></svg>