<?xml version="1.0" standalone="no"?><!DOCTYPE svg PUBLIC "-//W3C//DTD SVG 1.1//EN" "http://www.w3.org/Graphics/SVG/1.1/DTD/svg11.dtd"><svg class="icon" width="64px" height="64.00px" viewBox="0 0 1024 1024" version="1.1" xmlns="http://www.w3.org/2000/svg"><path  d="M829.44 855.04H331.093333c-51.2 0-92.16-40.96-92.16-92.16V126.293333c0-51.2 40.96-92.16 92.16-92.16H648.533333c13.653333 0 25.6 11.946667 25.6 25.6v237.226667c0 5.12 3.413333 8.533333 8.533334 8.533333h215.04c13.653333 0 25.6 11.946667 25.6 25.6v430.08c-1.706667 51.2-42.666667 93.866667-93.866667 93.866667zM331.093333 85.333333C308.906667 85.333333 290.133333 104.106667 290.133333 126.293333v634.88c0 22.186667 18.773333 40.96 40.96 40.96h498.346667c22.186667 0 40.96-18.773333 40.96-40.96V356.693333H680.96c-32.426667 0-59.733333-27.306667-59.733333-59.733333V85.333333h-290.133334z"  /><path  d="M896 356.693333c-6.826667 0-13.653333-3.413333-18.773333-8.533333L628.053333 76.8c-10.24-10.24-8.533333-27.306667 1.706667-35.84 10.24-10.24 27.306667-8.533333 35.84 1.706667l249.173333 271.36c10.24 10.24 8.533333 27.306667-1.706666 35.84-3.413333 5.12-10.24 6.826667-17.066667 6.826666zM602.453333 989.866667H194.56c-51.2 0-92.16-40.96-92.16-92.16V421.546667c0-13.653333 11.946667-25.6 25.6-25.6s25.6 11.946667 25.6 25.6v476.16c0 22.186667 18.773333 40.96 40.96 40.96h407.893333c13.653333 0 25.6 11.946667 25.6 25.6s-11.946667 25.6-25.6 25.6zM489.813333 447.146667h-90.453333c-13.653333 0-25.6-11.946667-25.6-25.6s11.946667-25.6 25.6-25.6h90.453333c13.653333 0 25.6 11.946667 25.6 25.6s-11.946667 25.6-25.6 25.6zM670.72 628.053333H399.36c-13.653333 0-25.6-11.946667-25.6-25.6s11.946667-25.6 25.6-25.6h271.36c13.653333 0 25.6 11.946667 25.6 25.6s-11.946667 25.6-25.6 25.6z"  /></svg>