<?xml version="1.0" standalone="no"?><!DOCTYPE svg PUBLIC "-//W3C//DTD SVG 1.1//EN" "http://www.w3.org/Graphics/SVG/1.1/DTD/svg11.dtd"><svg class="icon" width="64px" height="64.00px" viewBox="0 0 1024 1024" version="1.1" xmlns="http://www.w3.org/2000/svg"><path  d="M897.706667 989.866667H261.12c-51.2 0-92.16-40.96-92.16-92.16V261.12c0-51.2 40.96-92.16 92.16-92.16h634.88c51.2 0 92.16 40.96 92.16 92.16v634.88c1.706667 52.906667-39.253333 93.866667-90.453333 93.866667zM261.12 220.16c-22.186667 0-40.96 18.773333-40.96 40.96v634.88c0 22.186667 18.773333 40.96 40.96 40.96h634.88c22.186667 0 40.96-18.773333 40.96-40.96V261.12c0-22.186667-18.773333-40.96-40.96-40.96H261.12z"  /><path  d="M194.56 855.04h-68.266667c-51.2 0-92.16-40.96-92.16-92.16V126.293333C34.133333 75.093333 75.093333 34.133333 126.293333 34.133333h634.88c51.2 0 92.16 40.96 92.16 92.16v68.266667h-51.2v-68.266667c1.706667-22.186667-17.066667-40.96-39.253333-40.96H126.293333C104.106667 85.333333 85.333333 104.106667 85.333333 126.293333v634.88C85.333333 783.36 104.106667 802.133333 126.293333 802.133333h68.266667v52.906667z"  /><path  d="M752.64 605.866667H406.186667c-13.653333 0-25.6-11.946667-25.6-25.6s11.946667-25.6 25.6-25.6h346.453333c13.653333 0 25.6 11.946667 25.6 25.6s-11.946667 25.6-25.6 25.6z"  /><path  d="M580.266667 778.24c-13.653333 0-25.6-11.946667-25.6-25.6V406.186667c0-13.653333 11.946667-25.6 25.6-25.6s25.6 11.946667 25.6 25.6v346.453333c0 13.653333-11.946667 25.6-25.6 25.6z"  /></svg>