<?xml version="1.0" standalone="no"?><!DOCTYPE svg PUBLIC "-//W3C//DTD SVG 1.1//EN" "http://www.w3.org/Graphics/SVG/1.1/DTD/svg11.dtd"><svg class="icon" width="64px" height="64.00px" viewBox="0 0 1024 1024" version="1.1" xmlns="http://www.w3.org/2000/svg"><path  d="M846.506667 798.72h-100.693334v-51.2h100.693334c22.186667 0 40.96-18.773333 40.96-40.96v-580.266667c1.706667-22.186667-17.066667-40.96-40.96-40.96H346.453333c-22.186667 0-40.96 18.773333-40.96 40.96v122.88h-51.2V126.293333c0-51.2 40.96-92.16 92.16-92.16h500.053334c51.2 0 92.16 40.96 92.16 92.16v580.266667c1.706667 51.2-40.96 92.16-92.16 92.16z"  /><path  d="M675.84 989.866667H177.493333c-51.2 0-93.866667-42.666667-93.866666-93.866667V319.146667c0-51.2 42.666667-93.866667 93.866666-93.866667h498.346667c51.2 0 93.866667 42.666667 93.866667 93.866667v576.853333c0 51.2-40.96 93.866667-93.866667 93.866667zM177.493333 276.48c-23.893333 0-42.666667 18.773333-42.666666 42.666667v576.853333c0 23.893333 18.773333 42.666667 42.666666 42.666667h498.346667c23.893333 0 42.666667-18.773333 42.666667-42.666667V319.146667c0-23.893333-18.773333-42.666667-42.666667-42.666667H177.493333z"  /><path  d="M578.56 501.76H233.813333c-13.653333 0-25.6-11.946667-25.6-25.6s11.946667-25.6 25.6-25.6h344.746667c13.653333 0 25.6 11.946667 25.6 25.6s-11.946667 25.6-25.6 25.6zM442.026667 708.266667H233.813333c-13.653333 0-25.6-11.946667-25.6-25.6s11.946667-25.6 25.6-25.6h208.213334c13.653333 0 25.6 11.946667 25.6 25.6s-11.946667 25.6-25.6 25.6z"  /></svg>