<?xml version="1.0" standalone="no"?><!DOCTYPE svg PUBLIC "-//W3C//DTD SVG 1.1//EN" "http://www.w3.org/Graphics/SVG/1.1/DTD/svg11.dtd"><svg class="icon" width="64px" height="64.00px" viewBox="0 0 1024 1024" version="1.1" xmlns="http://www.w3.org/2000/svg"><path  d="M914.773333 713.386667H687.786667c-13.653333 0-25.6-11.946667-25.6-25.6s11.946667-25.6 25.6-25.6h226.986666c13.653333 0 23.893333-10.24 23.893334-23.893334v-529.066666c0-13.653333-10.24-23.893333-23.893334-23.893334h-529.066666c-13.653333 0-23.893333 10.24-23.893334 23.893334v226.986666c0 13.653333-11.946667 25.6-25.6 25.6s-25.6-11.946667-25.6-25.6V109.226667c0-42.666667 34.133333-75.093333 75.093334-75.093334h527.36C955.733333 34.133333 989.866667 68.266667 989.866667 109.226667v527.36c0 42.666667-34.133333 76.8-75.093334 76.8z"  /><path  d="M638.293333 989.866667h-529.066666C68.266667 989.866667 34.133333 955.733333 34.133333 914.773333v-529.066666c0-42.666667 34.133333-75.093333 75.093334-75.093334h226.986666c13.653333 0 25.6 11.946667 25.6 25.6s-11.946667 25.6-25.6 25.6H109.226667c-13.653333 0-23.893333 10.24-23.893334 23.893334v527.36c0 15.36 10.24 25.6 23.893334 25.6h527.36c13.653333 0 23.893333-10.24 23.893333-23.893334V687.786667c0-13.653333 11.946667-25.6 25.6-25.6s25.6 11.946667 25.6 25.6v226.986666c1.706667 40.96-32.426667 75.093333-73.386667 75.093334z"  /><path  d="M650.24 727.04H373.76c-42.666667 0-75.093333-34.133333-75.093333-75.093333V373.76c0-42.666667 34.133333-75.093333 75.093333-75.093333h278.186667c42.666667 0 75.093333 34.133333 75.093333 75.093333v278.186667c0 40.96-34.133333 75.093333-76.8 75.093333zM373.76 348.16c-13.653333 0-23.893333 10.24-23.893333 23.893333v278.186667c0 13.653333 10.24 23.893333 23.893333 23.893333h278.186667c13.653333 0 23.893333-10.24 23.893333-23.893333V373.76c0-13.653333-10.24-23.893333-23.893333-23.893333H373.76z"  /></svg>