<?xml version="1.0" standalone="no"?><!DOCTYPE svg PUBLIC "-//W3C//DTD SVG 1.1//EN" "http://www.w3.org/Graphics/SVG/1.1/DTD/svg11.dtd"><svg class="icon" width="64px" height="64.00px" viewBox="0 0 1024 1024" version="1.1" xmlns="http://www.w3.org/2000/svg"><path  d="M897.706667 808.96h-68.266667v-51.2h68.266667c22.186667 0 40.96-18.773333 40.96-40.96V126.293333C938.666667 104.106667 919.893333 85.333333 897.706667 85.333333H307.2c-22.186667 0-40.96 18.773333-40.96 40.96v66.56h-51.2V126.293333C215.04 75.093333 256 34.133333 307.2 34.133333h588.8c51.2 0 92.16 40.96 92.16 92.16V716.8c1.706667 51.2-39.253333 92.16-90.453333 92.16z"  /><path  d="M761.173333 989.866667H126.293333c-51.2 0-92.16-40.96-92.16-92.16V262.826667c0-51.2 40.96-92.16 92.16-92.16h634.88c51.2 0 92.16 40.96 92.16 92.16v634.88c1.706667 51.2-40.96 92.16-92.16 92.16zM126.293333 220.16C104.106667 220.16 85.333333 238.933333 85.333333 262.826667v634.88C85.333333 919.893333 104.106667 938.666667 126.293333 938.666667h634.88c22.186667 0 40.96-18.773333 40.96-40.96V262.826667c0-22.186667-18.773333-40.96-40.96-40.96H126.293333z"  /><path  d="M585.386667 561.493333c-6.826667 0-11.946667-1.706667-17.066667-6.826666-10.24-10.24-10.24-25.6-1.706667-35.84l42.666667-46.08c11.946667-11.946667 17.066667-25.6 17.066667-42.666667 0-15.36-6.826667-30.72-18.773334-42.666667-23.893333-23.893333-61.44-23.893333-83.626666-1.706666l-119.466667 124.586666c-10.24 10.24-25.6 10.24-35.84 0s-10.24-25.6 0-35.84l119.466667-124.586666c42.666667-42.666667 112.64-42.666667 157.013333 1.706666 20.48 20.48 32.426667 49.493333 32.426667 78.506667 0 29.013333-10.24 58.026667-32.426667 78.506667l-42.666667 44.373333c-3.413333 5.12-10.24 8.533333-17.066666 8.533333zM300.373333 831.146667s-1.706667 0 0 0c-30.72 0-58.026667-11.946667-80.213333-34.133334-42.666667-42.666667-42.666667-117.76 0-160.426666 0 0 23.893333-23.893333 35.84-34.133334 10.24-10.24 25.6-10.24 35.84 0 10.24 10.24 10.24 25.6 0 35.84-11.946667 11.946667-35.84 34.133333-35.84 34.133334-22.186667 22.186667-22.186667 64.853333 0 88.746666 11.946667 11.946667 27.306667 18.773333 42.666667 18.773334 15.36 0 30.72-5.12 40.96-17.066667l117.76-107.52c10.24-10.24 27.306667-8.533333 35.84 1.706667s8.533333 27.306667-1.706667 35.84L375.466667 798.72c-18.773333 20.48-46.08 32.426667-75.093334 32.426667z"  /><path  d="M390.826667 634.88c-6.826667 0-13.653333-1.706667-18.773334-6.826667a111.786667 111.786667 0 0 1-32.426666-71.68c-1.706667-30.72 8.533333-61.44 30.72-83.626666 10.24-10.24 25.6-10.24 35.84 0 10.24 10.24 10.24 25.6 0 35.84-11.946667 11.946667-17.066667 27.306667-17.066667 44.373333 1.706667 15.36 6.826667 29.013333 18.773333 39.253333 10.24 10.24 10.24 25.6 0 35.84-3.413333 5.12-10.24 6.826667-17.066666 6.826667zM476.16 699.733333c-6.826667 0-13.653333-1.706667-18.773333-6.826666-10.24-10.24-10.24-25.6 0-35.84 10.24-10.24 17.066667-25.6 17.066666-40.96 0-15.36-6.826667-30.72-18.773333-42.666667-10.24-10.24-10.24-25.6 0-35.84s25.6-10.24 35.84 0c20.48 20.48 32.426667 49.493333 32.426667 78.506667 0 29.013333-10.24 58.026667-32.426667 78.506666-3.413333 3.413333-8.533333 5.12-15.36 5.12z"  /></svg>