<?xml version="1.0" standalone="no"?><!DOCTYPE svg PUBLIC "-//W3C//DTD SVG 1.1//EN" "http://www.w3.org/Graphics/SVG/1.1/DTD/svg11.dtd"><svg class="icon" width="64px" height="64.00px" viewBox="0 0 1024 1024" version="1.1" xmlns="http://www.w3.org/2000/svg"><path  d="M958.293333 358.4a35.328 35.328 0 0 0-32.256-24.576 27.306667 27.306667 0 0 0-26.112 35.498667A577.536 577.536 0 0 1 926.549333 512a414.549333 414.549333 0 0 1-796.501333 161.450667A415.061333 415.061333 0 0 1 673.450667 129.877333a415.914667 415.914667 0 0 1 75.434666 41.642667l4.608 3.242667a7.338667 7.338667 0 0 1 0 11.776l-45.226666 37.717333a7.338667 7.338667 0 0 0 2.048 12.629333L887.466667 303.616a14.848 14.848 0 0 0 19.797333-17.066667l-31.232-187.733333a7.338667 7.338667 0 0 0-11.946667-4.437333L812.714667 138.24a7.68 7.68 0 0 1-9.386667 0l-7.338667-5.632A473.941333 473.941333 0 1 0 985.770667 512a518.314667 518.314667 0 0 0-27.477334-153.6z"  /><path  d="M336.725333 842.24h358.4A57.344 57.344 0 0 0 751.786667 785.066667V541.696a119.466667 119.466667 0 0 0 72.704-110.08 26.965333 26.965333 0 0 0-1.365334-7.509333l-58.538666-147.456a25.770667 25.770667 0 0 0-19.456-15.189334 5.973333 5.973333 0 0 0-2.56 0H290.133333a22.869333 22.869333 0 0 0-5.973333 1.024 9.898667 9.898667 0 0 0-3.413333 0 51.2 51.2 0 0 0-5.973334 3.584l-2.218666 1.706667a17.066667 17.066667 0 0 0-4.266667 5.973333l-66.730667 147.114667v1.706667a29.184 29.184 0 0 0-1.194666 5.461333v3.584a119.466667 119.466667 0 0 0 79.872 112.981333V785.066667a57.514667 57.514667 0 0 0 56.490666 57.173333z m-6.314666-291.328a119.466667 119.466667 0 0 0 87.04-51.2 119.466667 119.466667 0 0 0 192.682666 4.949333 119.466667 119.466667 0 0 0 90.794667 46.08V785.066667a6.485333 6.485333 0 0 1-6.485333 6.314666h-358.4a6.485333 6.485333 0 0 1-6.314667-6.314666z m374.101333-51.2a68.266667 68.266667 0 0 1-68.266667-68.266667 25.6 25.6 0 1 0-51.2 0 68.266667 68.266667 0 0 1-137.898666 0 25.6 25.6 0 0 0-25.429334-25.6 28.330667 28.330667 0 0 0-3.754666 0 17.066667 17.066667 0 0 0-3.584 0 25.6 25.6 0 0 0-25.429334 25.6 68.266667 68.266667 0 0 1-137.557333 4.608L307.2 311.637333h416.426667l49.493333 123.904a68.266667 68.266667 0 0 1-68.608 65.024z m37.205333-233.301333z m-456.192 0.853333z"  /><path  d="M421.205333 653.141333h188.928a25.429333 25.429333 0 0 0 0-51.2H421.205333a25.429333 25.429333 0 1 0 0 51.2zM421.205333 740.522667h188.928a25.6 25.6 0 0 0 0-51.2H421.205333a25.6 25.6 0 1 0 0 51.2z"  /></svg>