<?xml version="1.0" standalone="no"?><!DOCTYPE svg PUBLIC "-//W3C//DTD SVG 1.1//EN" "http://www.w3.org/Graphics/SVG/1.1/DTD/svg11.dtd"><svg class="icon" width="64px" height="64.00px" viewBox="0 0 1024 1024" version="1.1" xmlns="http://www.w3.org/2000/svg"><path  d="M512 809.472a25.088 25.088 0 0 1-14.165333-4.266667C488.106667 798.72 262.485333 646.144 262.485333 460.8a249.514667 249.514667 0 1 1 499.029334 0c0 185.685333-225.792 338.261333-235.349334 344.746667a25.088 25.088 0 0 1-14.165333 3.925333z m0-547.328A198.144 198.144 0 0 0 313.685333 460.8c0 133.973333 150.698667 256 198.314667 292.010667C559.616 716.8 710.314667 594.432 710.314667 460.8A198.144 198.144 0 0 0 512 262.144z"  /><path  d="M512 560.64A100.181333 100.181333 0 1 1 612.181333 460.8 100.181333 100.181333 0 0 1 512 560.64z m0-149.162667A48.981333 48.981333 0 1 0 560.981333 460.8 48.981333 48.981333 0 0 0 512 411.477333z"  /><path  d="M959.829333 548.181333h-1.024a25.6 25.6 0 0 1-24.576-26.453333c0-12.458667 7.168-306.176-293.717333-409.6S161.962667 273.066667 160.256 275.456a25.770667 25.770667 0 0 1-35.498667 7.338667 25.429333 25.429333 0 0 1-7.338666-35.328C119.466667 244.394667 318.805333-54.101333 657.237333 62.976s328.362667 457.216 328.192 460.8a25.6 25.6 0 0 1-25.6 24.405333z"  /><path  d="M959.829333 535.722667a25.6 25.6 0 0 1-25.6-25.6V112.128a25.6 25.6 0 0 1 51.2 0v397.994667a25.6 25.6 0 0 1-25.6 25.6zM527.018667 988.16a530.773333 530.773333 0 0 1-133.461334-17.066667c-350.890667-90.965333-354.986667-456.533333-354.986666-460.8a25.6 25.6 0 0 1 51.2 0c0 13.482667 4.608 329.728 316.757333 410.624s450.389333-163.669333 456.192-174.08a25.6 25.6 0 0 1 44.885333 24.576c-1.365333 2.389333-121.685333 216.746667-380.586666 216.746667z"  /><path  d="M64.170667 933.888a25.6 25.6 0 0 1-25.6-25.6V510.122667a25.6 25.6 0 0 1 51.2 0v398.165333a25.6 25.6 0 0 1-25.6 25.6z"  /></svg>