<?xml version="1.0" standalone="no"?><!DOCTYPE svg PUBLIC "-//W3C//DTD SVG 1.1//EN" "http://www.w3.org/Graphics/SVG/1.1/DTD/svg11.dtd"><svg class="icon" width="64px" height="64.00px" viewBox="0 0 1024 1024" version="1.1" xmlns="http://www.w3.org/2000/svg"><path  d="M613.205333 972.8H106.154667A72.192 72.192 0 0 1 34.133333 900.778667v-477.866667a27.648 27.648 0 0 1 26.965334-26.965333h863.232a27.648 27.648 0 0 1 26.965333 26.965333v142.165333a26.965333 26.965333 0 0 1-53.930667 0v-115.712H88.064v449.706667a18.090667 18.090667 0 0 0 18.090667 17.066667h507.050666a27.648 27.648 0 0 1 26.965334 26.965333A29.184 29.184 0 0 1 613.205333 972.8z"  /><path  d="M924.330667 449.365333H61.098667A27.648 27.648 0 0 1 34.133333 422.4V194.048a72.192 72.192 0 0 1 72.021334-72.021333h773.290666a72.192 72.192 0 0 1 71.850667 72.021333v228.352a26.453333 26.453333 0 0 1-26.965333 26.965333z m-836.266667-53.930666h809.301333v-201.386667a17.066667 17.066667 0 0 0-17.066666-17.066667H106.154667a17.92 17.92 0 0 0-18.090667 17.066667z"  /><path  d="M311.125333 290.133333a27.648 27.648 0 0 1-26.965333-26.965333V80.725333a26.965333 26.965333 0 1 1 53.930667 0v181.589334A26.453333 26.453333 0 0 1 311.125333 290.133333zM674.474667 290.133333a27.477333 27.477333 0 0 1-26.965334-26.965333V80.725333a26.965333 26.965333 0 1 1 53.930667 0v181.589334A25.6 25.6 0 0 1 674.474667 290.133333zM828.416 972.8a168.277333 168.277333 0 0 1-115.370667-45.568v8.021333a23.04 23.04 0 0 1-46.08 0v-87.04a23.04 23.04 0 0 1 45.056-6.997333 122.026667 122.026667 0 0 0 232.789334 0 23.04 23.04 0 0 1 44.032 13.824 167.765333 167.765333 0 0 1-160.426667 117.76z m-138.410667-187.733333a23.04 23.04 0 0 1-23.04-23.04 23.893333 23.893333 0 0 1 1.024-6.997334A168.618667 168.618667 0 0 1 943.786667 682.666667v-8.021334a23.04 23.04 0 0 1 46.08 0v86.528a23.04 23.04 0 0 1-45.056 6.826667 122.026667 122.026667 0 0 0-232.789334 0 23.210667 23.210667 0 0 1-22.016 17.066667z"  /></svg>