<?xml version="1.0" standalone="no"?><!DOCTYPE svg PUBLIC "-//W3C//DTD SVG 1.1//EN" "http://www.w3.org/Graphics/SVG/1.1/DTD/svg11.dtd"><svg class="icon" width="64px" height="64.00px" viewBox="0 0 1024 1024" version="1.1" xmlns="http://www.w3.org/2000/svg"><path  d="M613.205333 972.8H106.154667A72.192 72.192 0 0 1 34.133333 900.778667v-477.866667a27.648 27.648 0 0 1 26.965334-26.965333h863.232a27.648 27.648 0 0 1 26.965333 26.965333v142.165333a26.965333 26.965333 0 0 1-53.930667 0v-115.712H88.064v449.706667a18.090667 18.090667 0 0 0 18.090667 17.066667h507.050666a27.648 27.648 0 0 1 26.965334 26.965333A29.184 29.184 0 0 1 613.205333 972.8z"  /><path  d="M924.330667 449.365333H61.098667A27.648 27.648 0 0 1 34.133333 422.4V194.048a72.192 72.192 0 0 1 72.021334-72.021333h773.290666a72.192 72.192 0 0 1 71.850667 72.021333v228.352a26.453333 26.453333 0 0 1-26.965333 26.965333z m-836.266667-53.930666h809.301333v-201.386667a17.066667 17.066667 0 0 0-17.066666-17.066667H106.154667a17.92 17.92 0 0 0-18.090667 17.066667z"  /><path  d="M311.125333 290.133333a27.648 27.648 0 0 1-26.965333-26.965333V80.725333a26.965333 26.965333 0 1 1 53.930667 0v181.589334A26.453333 26.453333 0 0 1 311.125333 290.133333zM674.474667 290.133333a27.477333 27.477333 0 0 1-26.965334-26.965333V80.725333a26.965333 26.965333 0 1 1 53.930667 0v181.589334A25.6 25.6 0 0 1 674.474667 290.133333z"  /><path  d="M810.325333 968.533333A156.330667 156.330667 0 0 1 699.733333 922.624a18.261333 18.261333 0 1 1 25.941334-25.941333 121.173333 121.173333 0 1 0 85.333333-206.848 116.906667 116.906667 0 0 0-85.333333 35.84c-12.288 12.458667-39.594667 43.349333-39.594667 43.349333a18.432 18.432 0 0 1-27.306667-24.746667c1.194667-1.194667 28.501333-32.256 42.154667-44.544a155.648 155.648 0 0 1 111.445333-45.909333 157.354667 157.354667 0 1 1-1.194666 314.709333z"  /><path  d="M732.330667 777.216h-61.952a18.944 18.944 0 0 1-18.602667-18.602667v-61.781333a18.602667 18.602667 0 0 1 37.205333 0v43.349333h43.349334A18.944 18.944 0 0 1 750.933333 758.613333a18.261333 18.261333 0 0 1-18.602666 18.602667z"  /></svg>