<?xml version="1.0" standalone="no"?><!DOCTYPE svg PUBLIC "-//W3C//DTD SVG 1.1//EN" "http://www.w3.org/Graphics/SVG/1.1/DTD/svg11.dtd"><svg class="icon" width="64px" height="64.00px" viewBox="0 0 1024 1024" version="1.1" xmlns="http://www.w3.org/2000/svg"><path  d="M447.829333 615.765333a29.696 29.696 0 0 1-12.117333-24.576 30.378667 30.378667 0 1 1 60.757333 0 29.696 29.696 0 0 1-12.117333 24.576l41.130667 146.090667a29.184 29.184 0 0 1-7.68 29.184l-41.130667 41.472a14.506667 14.506667 0 0 1-20.650667 0l-41.130666-41.472a29.184 29.184 0 0 1-7.68-29.184l41.130666-146.090667z"  /><path  d="M649.386667 904.533333H170.666667a76.117333 76.117333 0 0 1-58.026667-18.944c-34.133333-34.133333-18.090667-101.205333-5.973333-142.848a345.941333 345.941333 0 0 1 232.277333-233.130666 25.770667 25.770667 0 0 0 11.434667-42.837334 195.925333 195.925333 0 0 1-72.362667-174.762666A188.586667 188.586667 0 0 1 648.533333 267.434667a195.072 195.072 0 0 1-68.266666 199.338666 25.941333 25.941333 0 0 0 11.264 42.837334 366.592 366.592 0 0 1 109.568 54.784c26.624 19.456 52.224-24.917333 25.770666-44.202667A406.528 406.528 0 0 0 605.184 460.8l11.264 42.837333a245.76 245.76 0 0 0 86.186667-220.330666A238.933333 238.933333 0 0 0 232.789333 256a245.76 245.76 0 0 0 81.237334 247.125333l11.434666-42.325333a396.8 396.8 0 0 0-245.76 209.92C39.253333 757.077333 3.242667 927.061333 135.509333 953.856a249.514667 249.514667 0 0 0 51.2 2.56h462.677334a25.6 25.6 0 0 0 0-51.2z"  /><path  d="M609.28 756.736a189.44 189.44 0 0 0 123.392 175.616 186.709333 186.709333 0 1 0-123.392-175.616 19.456 19.456 0 0 0 38.912 0 147.797333 147.797333 0 1 1 121.856 145.578667A149.162667 149.162667 0 0 1 648.533333 756.736a19.456 19.456 0 0 0-39.253333 0z"  /><path  d="M897.024 792.917333a101.376 101.376 0 0 1-51.2 59.050667 99.328 99.328 0 0 1-76.8 4.949333A107.690667 107.690667 0 0 1 719.701333 819.2l-1.024 3.413333a12.117333 12.117333 0 0 1-6.144 7.168 11.605333 11.605333 0 0 1-9.557333 0 12.970667 12.970667 0 0 1-8.021333-16.042666l9.728-28.672a11.776 11.776 0 0 1 14.336-8.192l34.133333 8.021333a13.312 13.312 0 0 1 9.898667 15.189333 12.629333 12.629333 0 0 1-5.290667 7.850667 12.458667 12.458667 0 0 1-9.216 1.706667l-6.997333-1.706667a80.384 80.384 0 0 0 35.669333 25.770667 75.264 75.264 0 0 0 59.050667-4.608A76.8 76.8 0 0 0 873.472 785.066667a11.434667 11.434667 0 0 1 6.144-7.338667 11.605333 11.605333 0 0 1 9.557333 0 13.141333 13.141333 0 0 1 7.850667 15.189333z"  /><path  d="M802.133333 868.693333a108.032 108.032 0 0 1-34.133333-5.632 115.370667 115.370667 0 0 1-46.421333-31.744 17.066667 17.066667 0 0 1-5.632 4.437334 19.114667 19.114667 0 0 1-14.677334 0.853333 19.456 19.456 0 0 1-11.946666-24.064l9.728-30.208a18.261333 18.261333 0 0 1 22.016-12.458667l34.133333 8.021334a19.797333 19.797333 0 0 1 14.677333 22.698666 18.432 18.432 0 0 1-11.776 13.824 79.36 79.36 0 0 0 21.845334 12.629334 68.266667 68.266667 0 0 0 52.565333-3.754667 70.314667 70.314667 0 0 0 34.133333-40.789333 18.432 18.432 0 0 1 9.386667-11.093334 19.114667 19.114667 0 0 1 14.677333 0 19.456 19.456 0 0 1 11.776 24.064 108.202667 108.202667 0 0 1-53.930666 62.976 106.154667 106.154667 0 0 1-46.421334 10.24z m-85.333333-63.317333l7.68 10.24a102.4 102.4 0 0 0 46.933333 35.328 94.72 94.72 0 0 0 71.850667-4.608 95.914667 95.914667 0 0 0 47.445333-55.466667 6.997333 6.997333 0 0 0-4.096-8.192 5.461333 5.461333 0 0 0-4.608 0 5.802667 5.802667 0 0 0-2.901333 3.413334 82.944 82.944 0 0 1-41.130667 48.298666 81.578667 81.578667 0 0 1-62.634666 4.266667 89.088 89.088 0 0 1-38.741334-27.648l-11.264-14.336L750.933333 802.133333a5.632 5.632 0 0 0 6.826667-4.437333 6.656 6.656 0 0 0-5.12-7.850667l-34.133333-8.021333a5.461333 5.461333 0 0 0-6.826667 3.754667l-9.728 30.208a6.485333 6.485333 0 0 0 4.096 8.192 5.632 5.632 0 0 0 4.437333 0 5.802667 5.802667 0 0 0 2.901334-3.413334zM897.024 698.709333l-8.533333 30.208a12.288 12.288 0 0 1-14.506667 8.192l-34.133333-8.021333a13.312 13.312 0 0 1-9.898667-15.189333 12.629333 12.629333 0 0 1 5.290667-7.850667 12.458667 12.458667 0 0 1 9.216-1.706667l6.997333 1.536a81.237333 81.237333 0 0 0-35.669333-25.6 74.581333 74.581333 0 0 0-95.573334 48.298667 11.946667 11.946667 0 0 1-15.701333 7.850667 12.970667 12.970667 0 0 1-8.021333-15.701334 100.864 100.864 0 0 1 50.176-59.221333 99.669333 99.669333 0 0 1 76.629333-4.949333 109.226667 109.226667 0 0 1 50.005333 37.546666v-3.754666a11.093333 11.093333 0 0 1 6.144-7.168 11.946667 11.946667 0 0 1 9.386667 0 12.970667 12.970667 0 0 1 8.192 15.530666z"  /><path  d="M876.714667 743.936h-4.266667l-34.133333-8.192a19.626667 19.626667 0 0 1-14.677334-22.528 18.944 18.944 0 0 1 8.021334-11.946667 19.285333 19.285333 0 0 1 3.754666-1.877333 71.68 71.68 0 0 0-21.845333-12.629333 68.266667 68.266667 0 0 0-52.565333 3.413333 70.144 70.144 0 0 0-34.133334 40.96 17.92 17.92 0 0 1-9.386666 10.922667 18.602667 18.602667 0 0 1-14.506667 0 19.626667 19.626667 0 0 1-11.946667-23.552 108.714667 108.714667 0 0 1 53.418667-63.146667 107.008 107.008 0 0 1 81.749333-5.12A114.176 114.176 0 0 1 870.4 682.666667a15.872 15.872 0 0 1 5.632-4.437334 18.261333 18.261333 0 0 1 14.336 0 19.285333 19.285333 0 0 1 12.117333 24.064l-8.533333 30.037334a18.944 18.944 0 0 1-17.237333 11.605333z m-35.328-34.133333a5.12 5.12 0 0 0-3.072 1.024 5.461333 5.461333 0 0 0-2.56 3.584 6.656 6.656 0 0 0 5.12 7.68l34.133333 8.192a5.973333 5.973333 0 0 0 6.997333-3.925334l8.704-30.208a6.656 6.656 0 0 0-4.266666-8.192 5.802667 5.802667 0 0 0-4.437334 0 6.314667 6.314667 0 0 0-2.901333 3.413334l-2.56 18.090666-9.216-12.458666a102.4 102.4 0 0 0-47.104-35.328 93.696 93.696 0 0 0-71.509333 4.608 95.061333 95.061333 0 0 0-46.933334 55.466666 6.656 6.656 0 0 0 4.096 7.850667 5.802667 5.802667 0 0 0 7.338667-3.754667 81.066667 81.066667 0 0 1 104.277333-51.712 90.965333 90.965333 0 0 1 38.570667 27.818667l11.434667 14.336-24.917334-5.632z"  /></svg>