<?xml version="1.0" standalone="no"?><!DOCTYPE svg PUBLIC "-//W3C//DTD SVG 1.1//EN" "http://www.w3.org/Graphics/SVG/1.1/DTD/svg11.dtd"><svg class="icon" width="64px" height="64.00px" viewBox="0 0 1024 1024" version="1.1" xmlns="http://www.w3.org/2000/svg"><path  d="M479.573333 469.333333c-116.053333 0-211.626667-95.573333-211.626666-211.626666S361.813333 46.08 479.573333 46.08s211.626667 95.573333 211.626667 211.626667-95.573333 211.626667-211.626667 211.626666z m0-372.053333c-88.746667 0-160.426667 71.68-160.426666 160.426667s71.68 160.426667 160.426666 160.426666 160.426667-71.68 160.426667-160.426666-71.68-160.426667-160.426667-160.426667zM59.733333 977.92c-13.653333 0-25.6-11.946667-25.6-25.6 0-245.76 199.68-445.44 445.44-445.44 133.12 0 257.706667 58.026667 343.04 160.426667 8.533333 10.24 6.826667 27.306667-3.413333 35.84-10.24 8.533333-27.306667 6.826667-35.84-3.413334-75.093333-90.453333-186.026667-141.653333-303.786667-141.653333C262.826667 558.08 85.333333 735.573333 85.333333 952.32c0 13.653333-11.946667 25.6-25.6 25.6z"  /><path  d="M964.266667 814.08H687.786667c-13.653333 0-25.6-11.946667-25.6-25.6s11.946667-25.6 25.6-25.6h276.48c13.653333 0 25.6 11.946667 25.6 25.6s-11.946667 25.6-25.6 25.6zM964.266667 945.493333H687.786667c-13.653333 0-25.6-11.946667-25.6-25.6s11.946667-25.6 25.6-25.6h276.48c13.653333 0 25.6 11.946667 25.6 25.6s-11.946667 25.6-25.6 25.6z"  /></svg>