<?xml version="1.0" standalone="no"?><!DOCTYPE svg PUBLIC "-//W3C//DTD SVG 1.1//EN" "http://www.w3.org/Graphics/SVG/1.1/DTD/svg11.dtd"><svg class="icon" width="64px" height="64.00px" viewBox="0 0 1024 1024" version="1.1" xmlns="http://www.w3.org/2000/svg"><path  d="M512 464.213333c-119.466667 0-216.746667-97.28-216.746667-216.746666S392.533333 29.013333 512 29.013333s216.746667 97.28 216.746667 216.746667S631.466667 464.213333 512 464.213333z m0-384c-92.16 0-165.546667 75.093333-165.546667 165.546667 0 92.16 75.093333 165.546667 165.546667 165.546667s165.546667-75.093333 165.546667-165.546667c0-90.453333-73.386667-165.546667-165.546667-165.546667zM942.08 984.746667c-13.653333 0-25.6-11.946667-25.6-25.6 0-223.573333-180.906667-404.48-404.48-404.48S107.52 735.573333 107.52 959.146667c0 13.653333-11.946667 25.6-25.6 25.6s-25.6-11.946667-25.6-25.6c0-250.88 204.8-455.68 455.68-455.68s455.68 204.8 455.68 455.68c0 15.36-10.24 25.6-25.6 25.6z"  /></svg>