<?xml version="1.0" standalone="no"?><!DOCTYPE svg PUBLIC "-//W3C//DTD SVG 1.1//EN" "http://www.w3.org/Graphics/SVG/1.1/DTD/svg11.dtd"><svg class="icon" width="64px" height="64.00px" viewBox="0 0 1024 1024" version="1.1" xmlns="http://www.w3.org/2000/svg"><path  d="M512 515.413333h-1.706667c-133.12-1.706667-238.933333-110.933333-238.933333-244.053333s110.933333-238.933333 244.053333-238.933333c133.12 1.706667 238.933333 110.933333 238.933334 242.346666C750.933333 409.6 643.413333 515.413333 512 515.413333z m-1.706667-51.2c105.813333 0 191.146667-83.626667 191.146667-187.733333S617.813333 87.04 513.706667 85.333333H512c-104.106667 0-189.44 83.626667-189.44 187.733334-1.706667 104.106667 83.626667 191.146667 187.733333 191.146666z"  /><path  d="M706.56 989.866667H317.44c-112.64 0-204.8-92.16-204.8-204.8v-107.52c0-112.64 92.16-204.8 204.8-204.8h8.533333c8.533333 0 15.36 3.413333 20.48 10.24 40.96 49.493333 100.693333 78.506667 163.84 80.213333 64.853333 0 126.293333-29.013333 167.253334-80.213333 5.12-6.826667 11.946667-10.24 20.48-10.24h10.24c112.64 0 204.8 92.16 204.8 204.8V785.066667c-1.706667 112.64-92.16 204.8-206.506667 204.8z m-392.533333-465.92c-83.626667 1.706667-151.893333 69.973333-151.893334 153.6V785.066667c0 85.333333 68.266667 153.6 153.6 153.6h390.826667c85.333333 0 153.6-68.266667 153.6-153.6v-107.52c0-83.626667-68.266667-151.893333-151.893333-153.6-51.2 58.026667-122.88 90.453333-199.68 88.746666-75.093333-1.706667-145.066667-32.426667-194.56-88.746666z"  /></svg>