<?xml version="1.0" standalone="no"?><!DOCTYPE svg PUBLIC "-//W3C//DTD SVG 1.1//EN" "http://www.w3.org/Graphics/SVG/1.1/DTD/svg11.dtd"><svg class="icon" width="64px" height="64.00px" viewBox="0 0 1024 1024" version="1.1" xmlns="http://www.w3.org/2000/svg"><path  d="M512 453.973333c-110.933333 0-201.386667-90.453333-201.386667-201.386666C310.613333 141.653333 401.066667 51.2 512 51.2s201.386667 90.453333 201.386667 201.386667c0 110.933333-90.453333 201.386667-201.386667 201.386666zM512 102.4c-83.626667 0-150.186667 68.266667-150.186667 150.186667 0 83.626667 68.266667 150.186667 150.186667 150.186666s150.186667-68.266667 150.186667-150.186666C662.186667 170.666667 595.626667 102.4 512 102.4zM964.266667 972.8h-904.533334c-13.653333 0-25.6-11.946667-25.6-25.6v-30.72c0-116.053333 0-175.786667 23.893334-223.573333 22.186667-42.666667 56.32-76.8 98.986666-98.986667 47.786667-23.893333 107.52-23.893333 223.573334-23.893333h261.12c116.053333 0 175.786667 0 223.573333 23.893333 42.666667 22.186667 76.8 56.32 98.986667 98.986667C989.866667 742.4 989.866667 800.426667 989.866667 916.48v30.72c0 13.653333-11.946667 25.6-25.6 25.6zM85.333333 921.6h853.333334v-5.12c0-107.52 0-162.133333-18.773334-199.68-17.066667-32.426667-42.666667-59.733333-76.8-76.8-37.546667-18.773333-92.16-18.773333-199.68-18.773333H380.586667c-107.52 0-162.133333 0-199.68 18.773333-32.426667 17.066667-59.733333 42.666667-76.8 76.8C85.333333 754.346667 85.333333 808.96 85.333333 916.48v5.12z"  /><path  d="M506.88 819.2c-8.533333 0-15.36-3.413333-20.48-10.24l-148.48-197.973333c-5.12-8.533333-6.826667-18.773333-1.706667-27.306667 5.12-8.533333 13.653333-13.653333 22.186667-13.653333h307.2c10.24 0 18.773333 5.12 23.893333 15.36s3.413333 18.773333-3.413333 27.306666l-158.72 197.973334c-5.12 5.12-11.946667 8.533333-20.48 8.533333zM409.6 621.226667l98.986667 131.413333 105.813333-131.413333H409.6z"  /></svg>