<?xml version="1.0" standalone="no"?><!DOCTYPE svg PUBLIC "-//W3C//DTD SVG 1.1//EN" "http://www.w3.org/Graphics/SVG/1.1/DTD/svg11.dtd"><svg class="icon" width="64px" height="64.00px" viewBox="0 0 1024 1024" version="1.1" xmlns="http://www.w3.org/2000/svg"><path  d="M512 989.866667C249.173333 989.866667 34.133333 774.826667 34.133333 512S249.173333 34.133333 512 34.133333s477.866667 215.04 477.866667 477.866667-215.04 477.866667-477.866667 477.866667z m0-904.533334C276.48 85.333333 85.333333 276.48 85.333333 512s191.146667 426.666667 426.666667 426.666667 426.666667-191.146667 426.666667-426.666667S747.52 85.333333 512 85.333333z"  /><path  d="M512 515.413333c-76.8 0-138.24-61.44-138.24-138.24S435.2 238.933333 512 238.933333s138.24 61.44 138.24 138.24-61.44 138.24-138.24 138.24z m0-226.986666c-47.786667 0-87.04 39.253333-87.04 87.04s39.253333 87.04 87.04 87.04 87.04-39.253333 87.04-87.04-39.253333-87.04-87.04-87.04zM196.266667 861.866667h-1.706667c-13.653333-1.706667-25.6-13.653333-23.893333-27.306667 8.533333-131.413333 119.466667-235.52 250.88-235.52h180.906666c131.413333 0 242.346667 102.4 250.88 233.813333 1.706667 13.653333-10.24 25.6-23.893333 27.306667-13.653333 1.706667-25.6-10.24-27.306667-23.893333-6.826667-104.106667-95.573333-186.026667-199.68-186.026667H421.546667c-105.813333 0-192.853333 81.92-199.68 187.733333-1.706667 13.653333-11.946667 23.893333-25.6 23.893334z"  /></svg>