<?xml version="1.0" standalone="no"?><!DOCTYPE svg PUBLIC "-//W3C//DTD SVG 1.1//EN" "http://www.w3.org/Graphics/SVG/1.1/DTD/svg11.dtd"><svg class="icon" width="64px" height="64.00px" viewBox="0 0 1024 1024" version="1.1" xmlns="http://www.w3.org/2000/svg"><path  d="M855.04 923.306667c-37.546667 0-68.266667-30.72-68.266667-68.266667s30.72-68.266667 68.266667-68.266667 68.266667 30.72 68.266667 68.266667-30.72 68.266667-68.266667 68.266667z m0-85.333334c-10.24 0-17.066667 6.826667-17.066667 17.066667s6.826667 17.066667 17.066667 17.066667 17.066667-6.826667 17.066667-17.066667-6.826667-17.066667-17.066667-17.066667zM747.52 814.08c-17.066667 0-32.426667-6.826667-46.08-20.48-11.946667-11.946667-27.306667-27.306667-44.373333-42.666667-30.72-29.013333-64.853333-63.146667-88.746667-85.333333-54.613333 18.773333-107.52 6.826667-150.186667-34.133333-37.546667-35.84-52.906667-83.626667-42.666666-138.24 1.706667-6.826667 5.12-13.653333 11.946666-17.066667l5.12-3.413333c10.24-5.12 23.893333-3.413333 30.72 5.12l13.653334 13.653333c10.24 10.24 18.773333 20.48 29.013333 30.72 17.066667 17.066667 35.84 18.773333 52.906667 1.706667 5.12-5.12 11.946667-13.653333 11.946666-25.6s-6.826667-22.186667-13.653333-27.306667l-11.946667-11.946667c-10.24-10.24-22.186667-20.48-32.426666-34.133333-5.12-6.826667-6.826667-15.36-5.12-23.893333 1.706667-8.533333 8.533333-15.36 17.066666-17.066667 44.373333-13.653333 83.626667-6.826667 121.173334 18.773333 54.613333 39.253333 76.8 104.106667 56.32 168.96 15.36 13.653333 34.133333 32.426667 52.906666 51.2 29.013333 27.306667 58.026667 56.32 78.506667 76.8 15.36 15.36 22.186667 32.426667 22.186667 51.2s-8.533333 35.84-25.6 49.493334c-11.946667 8.533333-27.306667 13.653333-42.666667 13.653333zM571.733333 612.693333c11.946667 0 23.893333 5.12 34.133334 15.36 22.186667 22.186667 56.32 56.32 87.04 85.333334 17.066667 15.36 32.426667 30.72 44.373333 44.373333 8.533333 8.533333 15.36 5.12 20.48 1.706667 3.413333-1.706667 6.826667-6.826667 6.826667-11.946667 0-5.12-3.413333-10.24-6.826667-11.946667-20.48-20.48-49.493333-47.786667-76.8-75.093333-20.48-18.773333-40.96-39.253333-54.613333-52.906667-5.12-5.12-22.186667-22.186667-11.946667-49.493333 15.36-42.666667 1.706667-87.04-35.84-112.64-8.533333-5.12-15.36-10.24-23.893333-11.946667l1.706666 1.706667c18.773333 18.773333 29.013333 40.96 29.013334 64.853333 0 22.186667-10.24 44.373333-27.306667 61.44-35.84 35.84-87.04 34.133333-124.586667-3.413333l-1.706666-1.706667c5.12 15.36 13.653333 27.306667 25.6 39.253334 29.013333 27.306667 61.44 34.133333 97.28 22.186666 5.12-3.413333 10.24-5.12 17.066666-5.12z"  /><path  d="M554.666667 983.04h-83.626667c-30.72 0-56.32-25.6-56.32-56.32V836.266667c0-5.12-5.12-13.653333-10.24-15.36h-1.706667l-32.426666-13.653334h-1.706667c-5.12-1.706667-13.653333-1.706667-18.773333 3.413334l-64.853334 64.853333c-22.186667 22.186667-56.32 22.186667-78.506666 0l-59.733334-59.733333c-22.186667-22.186667-22.186667-56.32 0-78.506667l64.853334-64.853333c3.413333-3.413333 5.12-13.653333 3.413333-18.773334v-1.706666l-13.653333-30.72v-1.706667c-1.706667-5.12-10.24-10.24-15.36-10.24H93.866667c-30.72 0-56.32-25.6-56.32-56.32v-83.626667c0-30.72 25.6-56.32 56.32-56.32h92.16c5.12 0 13.653333-5.12 15.36-10.24v-1.706666l11.946666-30.72s0-1.706667 1.706667-1.706667c1.706667-5.12 1.706667-13.653333-3.413333-18.773333l-66.56-66.56c-22.186667-22.186667-22.186667-56.32 0-78.506667L204.8 145.066667c22.186667-22.186667 56.32-22.186667 78.506667 0l66.56 66.56c3.413333 3.413333 13.653333 5.12 18.773333 3.413333h1.706667l29.013333-11.946667h1.706667c5.12-1.706667 10.24-10.24 10.24-15.36V90.453333c0-30.72 25.6-56.32 56.32-56.32h83.626666c30.72 0 56.32 25.6 56.32 56.32v93.866667c0 5.12 5.12 13.653333 10.24 15.36h1.706667l29.013333 11.946667h1.706667c5.12 1.706667 15.36 1.706667 18.773333-3.413334l66.56-66.56c22.186667-22.186667 56.32-22.186667 78.506667 0l59.733333 59.733334c22.186667 22.186667 22.186667 56.32 0 78.506666l-66.56 66.56c-3.413333 3.413333-5.12 13.653333-3.413333 18.773334v1.706666l11.946667 30.72v1.706667c1.706667 5.12 10.24 11.946667 15.36 11.946667h93.866666c30.72 0 56.32 25.6 56.32 54.613333v83.626667c0 30.72-25.6 56.32-56.32 56.32h-92.16c-5.12 0-13.653333 5.12-15.36 10.24v1.706666l-10.24 23.893334c-3.413333 8.533333-10.24 13.653333-18.773333 15.36-8.533333 1.706667-17.066667-1.706667-23.893333-6.826667l-46.08-46.08c-6.826667-6.826667-8.533333-17.066667-6.826667-25.6 6.826667-22.186667 10.24-46.08 10.24-68.266667 0-58.026667-22.186667-112.64-64.853333-155.306666-40.96-40.96-95.573333-64.853333-155.306667-64.853334s-112.64 22.186667-155.306667 64.853334c-40.96 40.96-64.853333 95.573333-64.853333 155.306666 0 58.026667 22.186667 112.64 64.853333 155.306667 40.96 40.96 95.573333 64.853333 155.306667 64.853333 23.893333 0 47.786667-3.413333 69.973333-11.946666 8.533333-3.413333 18.773333 0 25.6 6.826666l46.08 46.08c6.826667 6.826667 8.533333 15.36 6.826667 23.893334-1.706667 8.533333-6.826667 15.36-15.36 18.773333l-23.893333 10.24h-1.706667c-5.12 1.706667-10.24 10.24-10.24 15.36v90.453333c10.24 29.013333-13.653333 52.906667-44.373333 52.906667z m-134.826667-208.213333c25.6 8.533333 44.373333 35.84 44.373333 63.146666v90.453334c0 1.706667 1.706667 5.12 5.12 5.12h83.626667c1.706667 0 5.12-1.706667 5.12-5.12v-90.453334c0-22.186667 13.653333-46.08 32.426667-58.026666l-8.533334-8.533334c-23.893333 6.826667-47.786667 10.24-71.68 10.24-71.68 0-139.946667-27.306667-191.146666-78.506666-51.2-51.2-78.506667-119.466667-78.506667-191.146667 0-71.68 27.306667-139.946667 78.506667-191.146667 51.2-51.2 119.466667-78.506667 191.146666-78.506666s139.946667 27.306667 191.146667 78.506666c51.2 51.2 78.506667 119.466667 78.506667 191.146667 0 23.893333-3.413333 47.786667-8.533334 69.973333l8.533334 8.533334c11.946667-18.773333 34.133333-32.426667 58.026666-32.426667h92.16c1.706667 0 5.12-1.706667 5.12-5.12v-83.626667c0-1.706667-1.706667-5.12-5.12-5.12H836.266667c-27.306667 0-54.613333-18.773333-63.146667-44.373333l-11.946667-29.013333c-11.946667-23.893333-6.826667-58.026667 11.946667-76.8l66.56-66.56c1.706667-1.706667 1.706667-5.12 0-6.826667l-59.733333-59.733333c-1.706667-1.706667-5.12-1.706667-6.826667 0l-66.56 66.56c-18.773333 18.773333-52.906667 25.6-76.8 13.653333l-27.306667-11.946667c-25.6-8.533333-44.373333-35.84-44.373333-63.146666V90.453333c0-1.706667-1.706667-5.12-5.12-5.12h-83.626667c-1.706667 0-5.12 1.706667-5.12 5.12v93.866667c0 27.306667-18.773333 54.613333-44.373333 63.146667l-27.306667 13.653333c-23.893333 11.946667-58.026667 6.826667-76.8-13.653333l-66.56-66.56c-1.706667-1.706667-5.12-1.706667-6.826666 0l-59.733334 59.733333c-1.706667 1.706667-1.706667 5.12 0 6.826667l66.56 66.56c18.773333 18.773333 25.6 52.906667 11.946667 76.8l-11.946667 29.013333c-8.533333 25.6-35.84 44.373333-63.146666 44.373333H93.866667c-1.706667 0-5.12 1.706667-5.12 5.12v83.626667c0 1.706667 1.706667 5.12 5.12 5.12h92.16c27.306667 0 54.613333 18.773333 63.146666 46.08l11.946667 29.013333c11.946667 23.893333 6.826667 58.026667-13.653333 76.8l-64.853334 64.853334c-1.706667 1.706667-1.706667 5.12 0 6.826666l59.733334 59.733334c1.706667 1.706667 5.12 1.706667 6.826666 0l64.853334-64.853334c18.773333-18.773333 52.906667-23.893333 76.8-11.946666l29.013333 10.24z"  /></svg>