<?xml version="1.0" standalone="no"?><!DOCTYPE svg PUBLIC "-//W3C//DTD SVG 1.1//EN" "http://www.w3.org/Graphics/SVG/1.1/DTD/svg11.dtd"><svg class="icon" width="64px" height="64.00px" viewBox="0 0 1024 1024" version="1.1" xmlns="http://www.w3.org/2000/svg"><path  d="M897.706667 749.226667H672.426667c-13.653333 0-25.6-11.946667-25.6-25.6s11.946667-25.6 25.6-25.6h225.28c22.186667 0 40.96-18.773333 40.96-40.96V187.733333c0-22.186667-18.773333-40.96-40.96-40.96H126.293333C104.106667 145.066667 85.333333 163.84 85.333333 187.733333v469.333334c0 22.186667 18.773333 40.96 40.96 40.96h223.573334c13.653333 0 25.6 11.946667 25.6 25.6s-11.946667 25.6-25.6 25.6H126.293333c-51.2 0-92.16-40.96-92.16-92.16V187.733333c0-51.2 40.96-92.16 92.16-92.16h769.706667c51.2 0 92.16 40.96 92.16 92.16v469.333334c1.706667 49.493333-39.253333 92.16-90.453333 92.16z"  /><path  d="M696.32 930.133333H327.68c-10.24 0-18.773333-5.12-23.893333-15.36-3.413333-8.533333-3.413333-18.773333 3.413333-27.306666l184.32-225.28c10.24-11.946667 29.013333-11.946667 39.253333 0L716.8 887.466667c6.826667 6.826667 6.826667 18.773333 3.413333 27.306666-5.12 8.533333-13.653333 15.36-23.893333 15.36z m-314.026667-51.2h261.12L512 720.213333l-129.706667 158.72z"  /></svg>