<?xml version="1.0" standalone="no"?><!DOCTYPE svg PUBLIC "-//W3C//DTD SVG 1.1//EN" "http://www.w3.org/Graphics/SVG/1.1/DTD/svg11.dtd"><svg class="icon" width="64px" height="64.00px" viewBox="0 0 1024 1024" version="1.1" xmlns="http://www.w3.org/2000/svg"><path  d="M897.706667 832.853333H358.4c-13.653333 0-25.6-11.946667-25.6-25.6s11.946667-25.6 25.6-25.6h539.306667c22.186667 0 40.96-18.773333 40.96-40.96V278.186667c0-22.186667-18.773333-40.96-40.96-40.96H358.4c-13.653333 0-25.6-11.946667-25.6-25.6s11.946667-25.6 25.6-25.6h539.306667c51.2 0 92.16 40.96 92.16 92.16v462.506666c0 51.2-40.96 92.16-92.16 92.16z"  /><path  d="M592.213333 967.68c-13.653333 0-25.6-11.946667-25.6-25.6v-134.826667c0-13.653333 11.946667-25.6 25.6-25.6s25.6 11.946667 25.6 25.6v134.826667c0 15.36-11.946667 25.6-25.6 25.6z"  /><path  d="M730.453333 967.68H453.973333c-13.653333 0-25.6-11.946667-25.6-25.6s11.946667-25.6 25.6-25.6h278.186667c13.653333 0 25.6 11.946667 25.6 25.6s-11.946667 25.6-27.306667 25.6zM964.266667 711.68H358.4c-13.653333 0-25.6-11.946667-25.6-25.6s11.946667-25.6 25.6-25.6h605.866667c13.653333 0 25.6 11.946667 25.6 25.6s-11.946667 25.6-25.6 25.6z"  /><path  d="M324.266667 967.68H93.866667c-32.426667 0-59.733333-27.306667-59.733334-59.733333V116.053333c0-32.426667 27.306667-59.733333 59.733334-59.733333H324.266667c32.426667 0 59.733333 27.306667 59.733333 59.733333v791.893334c0 32.426667-27.306667 59.733333-59.733333 59.733333zM93.866667 107.52c-5.12 0-8.533333 3.413333-8.533334 8.533333v791.893334c0 5.12 3.413333 8.533333 8.533334 8.533333H324.266667c5.12 0 8.533333-3.413333 8.533333-8.533333V116.053333c0-5.12-3.413333-8.533333-8.533333-8.533333H93.866667z"  /><path  d="M358.4 766.293333H59.733333c-13.653333 0-25.6-11.946667-25.6-25.6s11.946667-25.6 25.6-25.6H358.4c13.653333 0 25.6 11.946667 25.6 25.6s-11.946667 25.6-25.6 25.6z"  /><path  d="M209.92 839.68m-40.96 0a40.96 40.96 0 1 0 81.92 0 40.96 40.96 0 1 0-81.92 0Z"  /></svg>