<?xml version="1.0" standalone="no"?><!DOCTYPE svg PUBLIC "-//W3C//DTD SVG 1.1//EN" "http://www.w3.org/Graphics/SVG/1.1/DTD/svg11.dtd"><svg class="icon" width="64px" height="64.00px" viewBox="0 0 1024 1024" version="1.1" xmlns="http://www.w3.org/2000/svg"><path  d="M744.106667 952.32c-134.826667 0-245.76-110.933333-245.76-245.76S609.28 460.8 744.106667 460.8 989.866667 571.733333 989.866667 706.56s-110.933333 245.76-245.76 245.76z m0-440.32c-107.52 0-194.56 87.04-194.56 194.56s87.04 194.56 194.56 194.56c107.52 0 194.56-87.04 194.56-194.56S851.626667 512 744.106667 512z"  /><path  d="M703.146667 802.133333c-10.24 0-18.773333-3.413333-25.6-10.24L614.4 725.333333c-10.24-10.24-10.24-25.6 0-35.84 10.24-10.24 25.6-8.533333 35.84 0l51.2 54.613334 134.826667-126.293334c10.24-10.24 27.306667-8.533333 35.84 1.706667 10.24 10.24 8.533333 27.306667-1.706667 35.84l-146.773333 136.533333c-3.413333 6.826667-11.946667 10.24-20.48 10.24z"  /><path  d="M402.773333 426.666667c-97.28 0-177.493333-80.213333-177.493333-177.493334S305.493333 71.68 402.773333 71.68 580.266667 151.893333 580.266667 249.173333 500.053333 426.666667 402.773333 426.666667z m0-303.786667c-69.973333 0-126.293333 56.32-126.293333 126.293333 0 69.973333 56.32 126.293333 126.293333 126.293334s126.293333-56.32 126.293334-126.293334c0-69.973333-58.026667-126.293333-126.293334-126.293333z"  /><path  d="M527.36 769.706667H59.733333c-13.653333 0-25.6-11.946667-25.6-25.6C34.133333 541.013333 199.68 375.466667 402.773333 375.466667c102.4 0 196.266667 40.96 267.946667 114.346666 10.24 10.24 8.533333 27.306667-1.706667 35.84-10.24 10.24-27.306667 8.533333-35.84-1.706666-59.733333-63.146667-141.653333-98.986667-230.4-98.986667-165.546667 0-302.08 128-315.733333 291.84h440.32c13.653333 0 25.6 11.946667 25.6 25.6s-11.946667 27.306667-25.6 27.306667z"  /></svg>