<?xml version="1.0" standalone="no"?><!DOCTYPE svg PUBLIC "-//W3C//DTD SVG 1.1//EN" "http://www.w3.org/Graphics/SVG/1.1/DTD/svg11.dtd"><svg class="icon" width="64px" height="64.00px" viewBox="0 0 1024 1024" version="1.1" xmlns="http://www.w3.org/2000/svg"><path  d="M896 785.066667h-768c-51.2 0-93.866667-42.666667-93.866667-93.866667V191.146667c0-51.2 42.666667-93.866667 93.866667-93.866667h768c51.2 0 93.866667 42.666667 93.866667 93.866667v500.053333c0 52.906667-42.666667 93.866667-93.866667 93.866667zM128 148.48C104.106667 148.48 85.333333 167.253333 85.333333 191.146667v500.053333C85.333333 715.093333 104.106667 733.866667 128 733.866667h768c23.893333 0 42.666667-18.773333 42.666667-42.666667V191.146667c0-23.893333-18.773333-42.666667-42.666667-42.666667h-768z"  /><path  d="M512 926.72c-13.653333 0-25.6-11.946667-25.6-25.6v-136.533333c0-13.653333 11.946667-25.6 25.6-25.6s25.6 11.946667 25.6 25.6v136.533333c0 13.653333-10.24 25.6-25.6 25.6z"  /><path  d="M680.96 926.72H344.746667c-13.653333 0-25.6-11.946667-25.6-25.6s11.946667-25.6 25.6-25.6H682.666667c13.653333 0 25.6 11.946667 25.6 25.6s-11.946667 25.6-27.306667 25.6z"  /><path  d="M252.586667 593.92c-13.653333 0-25.6-11.946667-25.6-25.6V443.733333c0-13.653333 11.946667-25.6 25.6-25.6s25.6 11.946667 25.6 25.6v126.293334c0 13.653333-11.946667 23.893333-25.6 23.893333zM424.96 593.92c-13.653333 0-25.6-11.946667-25.6-25.6V339.626667c0-13.653333 11.946667-25.6 25.6-25.6s25.6 11.946667 25.6 25.6v228.693333c0 15.36-10.24 25.6-25.6 25.6zM771.413333 593.92c-13.653333 0-25.6-11.946667-25.6-25.6V298.666667c0-13.653333 11.946667-25.6 25.6-25.6s25.6 11.946667 25.6 25.6v271.36c0 13.653333-11.946667 23.893333-25.6 23.893333zM599.04 593.92c-13.653333 0-25.6-11.946667-25.6-25.6V368.64c0-13.653333 11.946667-25.6 25.6-25.6s25.6 11.946667 25.6 25.6v199.68c0 15.36-11.946667 25.6-25.6 25.6z"  /></svg>