<?xml version="1.0" standalone="no"?><!DOCTYPE svg PUBLIC "-//W3C//DTD SVG 1.1//EN" "http://www.w3.org/Graphics/SVG/1.1/DTD/svg11.dtd"><svg class="icon" width="64px" height="64.00px" viewBox="0 0 1024 1024" version="1.1" xmlns="http://www.w3.org/2000/svg"><path  d="M167.253333 723.626667H59.733333c-13.653333 0-25.6-11.946667-25.6-25.6V291.84c0-13.653333 11.946667-25.6 25.6-25.6h107.52c13.653333 0 25.6 11.946667 25.6 25.6v406.186667c0 13.653333-11.946667 25.6-25.6 25.6z m-81.92-51.2h56.32V317.44H85.333333v354.986667z"  /><path  d="M665.6 824.32c-8.533333 0-17.066667-1.706667-25.6-3.413333L160.426667 691.2c-11.946667-3.413333-18.773333-13.653333-18.773334-23.893333V356.693333c0-11.946667 6.826667-20.48 18.773334-23.893333l477.866666-143.36c29.013333-8.533333 61.44-3.413333 85.333334 15.36 25.6 18.773333 39.253333 46.08 39.253333 78.506667l1.706667 447.146666c0 30.72-13.653333 58.026667-37.546667 76.8-18.773333 10.24-39.253333 17.066667-61.44 17.066667zM192.853333 646.826667l460.8 124.586666c13.653333 3.413333 29.013333 1.706667 39.253334-8.533333 11.946667-8.533333 18.773333-22.186667 18.773333-35.84l-1.706667-447.146667c0-15.36-6.826667-27.306667-18.773333-37.546666s-27.306667-11.946667-40.96-6.826667L192.853333 375.466667v271.36z"  /><path  d="M344.746667 841.386667c-10.24 0-22.186667-1.706667-32.426667-5.12-66.56-18.773333-105.813333-87.04-88.746667-153.6 3.413333-13.653333 17.066667-22.186667 30.72-18.773334 13.653333 3.413333 22.186667 17.066667 18.773334 30.72-10.24 39.253333 11.946667 80.213333 52.906666 90.453334 39.253333 10.24 80.213333-11.946667 90.453334-52.906667 3.413333-13.653333 17.066667-22.186667 30.72-18.773333 13.653333 3.413333 22.186667 17.066667 18.773333 30.72-15.36 59.733333-66.56 97.28-121.173333 97.28z"  /><path  d="M797.013333 351.573333c-10.24 0-18.773333-5.12-23.893333-15.36-5.12-13.653333 0-27.306667 11.946667-34.133333l107.52-49.493333c13.653333-5.12 27.306667 0 34.133333 11.946666 5.12 13.653333 0 27.306667-11.946667 34.133334l-107.52 49.493333c-3.413333 1.706667-6.826667 3.413333-10.24 3.413333zM907.946667 750.933333c-3.413333 0-6.826667 0-8.533334-1.706666l-110.933333-40.96c-13.653333-5.12-20.48-20.48-15.36-32.426667 5.12-13.653333 20.48-20.48 32.426667-15.36l110.933333 40.96c13.653333 5.12 20.48 20.48 15.36 32.426667-3.413333 10.24-13.653333 17.066667-23.893333 17.066666zM964.266667 529.066667h-167.253334c-13.653333 0-25.6-11.946667-25.6-25.6s11.946667-25.6 25.6-25.6h167.253334c13.653333 0 25.6 11.946667 25.6 25.6s-11.946667 25.6-25.6 25.6z"  /></svg>