<?xml version="1.0" standalone="no"?><!DOCTYPE svg PUBLIC "-//W3C//DTD SVG 1.1//EN" "http://www.w3.org/Graphics/SVG/1.1/DTD/svg11.dtd"><svg class="icon" width="64px" height="64.00px" viewBox="0 0 1024 1024" version="1.1" xmlns="http://www.w3.org/2000/svg"><path  d="M829.44 989.866667H331.093333c-51.2 0-92.16-40.96-92.16-92.16V262.826667c0-51.2 40.96-92.16 92.16-92.16h498.346667c51.2 0 92.16 40.96 92.16 92.16v634.88c0 51.2-40.96 92.16-92.16 92.16zM331.093333 221.866667c-22.186667 0-40.96 18.773333-40.96 40.96v634.88c0 22.186667 18.773333 40.96 40.96 40.96h498.346667c22.186667 0 40.96-18.773333 40.96-40.96V262.826667c0-22.186667-18.773333-40.96-40.96-40.96H331.093333z"  /><path  d="M262.826667 855.04h-68.266667c-51.2 0-92.16-40.96-92.16-92.16V126.293333C102.4 75.093333 143.36 34.133333 194.56 34.133333h498.346667c51.2 0 92.16 40.96 92.16 92.16v68.266667c0 13.653333-11.946667 25.6-25.6 25.6s-25.6-11.946667-25.6-25.6v-68.266667c1.706667-22.186667-17.066667-40.96-40.96-40.96H194.56C172.373333 85.333333 153.6 104.106667 153.6 126.293333v634.88c0 22.186667 18.773333 40.96 40.96 40.96h68.266667c13.653333 0 25.6 11.946667 25.6 25.6s-10.24 27.306667-25.6 27.306667z"  /><path  d="M715.093333 491.52H443.733333c-13.653333 0-25.6-11.946667-25.6-25.6s11.946667-25.6 25.6-25.6h271.36c13.653333 0 25.6 11.946667 25.6 25.6s-10.24 25.6-25.6 25.6zM715.093333 674.133333H443.733333c-13.653333 0-25.6-11.946667-25.6-25.6s11.946667-25.6 25.6-25.6h271.36c13.653333 0 25.6 11.946667 25.6 25.6s-10.24 25.6-25.6 25.6z"  /></svg>