<?xml version="1.0" standalone="no"?><!DOCTYPE svg PUBLIC "-//W3C//DTD SVG 1.1//EN" "http://www.w3.org/Graphics/SVG/1.1/DTD/svg11.dtd"><svg class="icon" width="64px" height="64.00px" viewBox="0 0 1024 1024" version="1.1" xmlns="http://www.w3.org/2000/svg"><path  d="M558.08 948.906667H331.093333c-13.653333 0-25.6-11.946667-25.6-25.6V740.693333c0-13.653333 11.946667-25.6 25.6-25.6s25.6 11.946667 25.6 25.6v157.013334h175.786667V614.4L312.32 394.24c-10.24-10.24-10.24-25.6 0-35.84 10.24-10.24 25.6-10.24 35.84 0l226.986667 226.986667c5.12 5.12 6.826667 11.946667 6.826666 18.773333v319.146667c1.706667 13.653333-10.24 25.6-23.893333 25.6z"  /><path  d="M331.093333 948.906667H102.4c-13.653333 0-25.6-11.946667-25.6-25.6V604.16c0-6.826667 3.413333-13.653333 6.826667-18.773333L312.32 358.4c10.24-10.24 25.6-10.24 35.84 0s10.24 25.6 0 35.84L128 614.4v281.6h201.386667c13.653333 0 25.6 11.946667 25.6 25.6s-10.24 27.306667-23.893334 27.306667z"  /><path  d="M921.6 948.906667H558.08c-13.653333 0-25.6-11.946667-25.6-25.6s11.946667-25.6 25.6-25.6h337.92V148.48c0-10.24-8.533333-20.48-20.48-20.48H421.546667c-10.24 0-20.48 8.533333-20.48 20.48v273.066667c0 13.653333-11.946667 25.6-25.6 25.6s-25.6-11.946667-25.6-25.6v-273.066667c0-39.253333 32.426667-71.68 71.68-71.68h455.68c39.253333 0 71.68 32.426667 71.68 71.68V921.6c-1.706667 15.36-11.946667 27.306667-27.306667 27.306667z"  /><path  d="M558.08 344.746667c-13.653333 0-25.6-11.946667-25.6-25.6v-68.266667c0-13.653333 11.946667-25.6 25.6-25.6s25.6 11.946667 25.6 25.6v68.266667c0 15.36-11.946667 25.6-25.6 25.6zM740.693333 344.746667c-13.653333 0-25.6-11.946667-25.6-25.6v-68.266667c0-13.653333 11.946667-25.6 25.6-25.6s25.6 11.946667 25.6 25.6v68.266667c0 15.36-11.946667 25.6-25.6 25.6zM740.693333 527.36c-13.653333 0-25.6-11.946667-25.6-25.6v-68.266667c0-13.653333 11.946667-25.6 25.6-25.6s25.6 11.946667 25.6 25.6v68.266667c0 13.653333-11.946667 25.6-25.6 25.6zM740.693333 709.973333c-13.653333 0-25.6-11.946667-25.6-25.6v-68.266666c0-13.653333 11.946667-25.6 25.6-25.6s25.6 11.946667 25.6 25.6v68.266666c0 13.653333-11.946667 25.6-25.6 25.6z"  /></svg>