<?xml version="1.0" standalone="no"?><!DOCTYPE svg PUBLIC "-//W3C//DTD SVG 1.1//EN" "http://www.w3.org/Graphics/SVG/1.1/DTD/svg11.dtd"><svg class="icon" width="64px" height="64.00px" viewBox="0 0 1024 1024" version="1.1" xmlns="http://www.w3.org/2000/svg"><path  d="M938.666667 670.378667H452.266667V411.477333a82.602667 82.602667 0 0 0-82.432-82.432H296.96a82.432 82.432 0 0 0-78.165333 56.32l-38.4 115.029334a31.061333 31.061333 0 0 1-10.922667 15.018666l-76.8 57.685334a82.773333 82.773333 0 0 0-32.938667 66.048v113.664A82.602667 82.602667 0 0 0 142.165333 836.266667h17.066667a110.762667 110.762667 0 0 0 193.536 0h318.464a110.933333 110.933333 0 0 0 207.701333-54.954667 109.909333 109.909333 0 0 0-17.066666-59.733333H938.666667a25.6 25.6 0 0 0 0-51.2zM110.933333 639.146667A31.232 31.232 0 0 1 123.392 614.4l76.8-57.685333a82.090667 82.090667 0 0 0 28.842667-39.765334l38.229333-115.029333a31.232 31.232 0 0 1 29.696-21.333333h72.874667a31.232 31.232 0 0 1 31.232 31.232v258.56h-290.133334zM142.165333 785.066667a31.402667 31.402667 0 0 1-31.232-32.256v-31.232h51.2a109.909333 109.909333 0 0 0-17.066666 59.733333v2.901333zM256 841.045333a59.733333 59.733333 0 1 1 59.733333-59.733333 59.733333 59.733333 0 0 1-59.733333 59.733333zM366.762667 785.066667v-2.901334a109.909333 109.909333 0 0 0-17.066667-59.733333h324.949333a109.909333 109.909333 0 0 0-17.066666 59.733333V785.066667z m460.8-2.901334a59.733333 59.733333 0 1 1-59.733334-59.733333 59.733333 59.733333 0 0 1 59.904 58.88z"  /><path  d="M565.76 591.36L597.333333 614.4a193.365333 193.365333 0 0 0 229.205334-0.853333c102.4-79.530667 147.114667-202.24 128.682666-354.304a75.776 75.776 0 0 0-31.573333-52.394667l-86.016-61.44a75.605333 75.605333 0 0 0-60.245333-11.776c-149.333333 34.133333-249.173333 119.466667-289.109334 243.029333a193.024 193.024 0 0 0 77.482667 214.698667z m223.232-407.722667a19.968 19.968 0 0 1 5.461333 0 23.722667 23.722667 0 0 1 13.653334 4.437334l86.357333 60.416a23.722667 23.722667 0 0 1 10.069333 17.066666 426.666667 426.666667 0 0 1-4.096 136.533334l-238.08-167.936a422.229333 422.229333 0 0 1 126.634667-50.517334zM537.258667 392.533333a276.821333 276.821333 0 0 1 81.749333-125.44l266.069333 185.514667a276.821333 276.821333 0 0 1-89.258666 119.466667 142.336 142.336 0 0 1-168.618667 0l-32.426667-22.869334A141.653333 141.653333 0 0 1 537.258667 392.533333z"  /></svg>