<?xml version="1.0" standalone="no"?><!DOCTYPE svg PUBLIC "-//W3C//DTD SVG 1.1//EN" "http://www.w3.org/Graphics/SVG/1.1/DTD/svg11.dtd"><svg class="icon" width="64px" height="64.00px" viewBox="0 0 1024 1024" version="1.1" xmlns="http://www.w3.org/2000/svg"><path  d="M281.6 940.373333c-5.12 0-8.533333-1.706667-13.653333-3.413333-6.826667-5.12-11.946667-13.653333-11.946667-22.186667v-87.04H126.293333c-51.2 0-92.16-40.96-92.16-92.16V293.546667c0-51.2 40.96-92.16 92.16-92.16h651.946667c51.2 0 92.16 40.96 92.16 92.16v442.026666c0 51.2-40.96 92.16-92.16 92.16H512l-220.16 109.226667c-3.413333 3.413333-6.826667 3.413333-10.24 3.413333zM126.293333 250.88c-22.186667 0-40.96 18.773333-40.96 40.96V733.866667c0 22.186667 18.773333 40.96 40.96 40.96h155.306667c13.653333 0 25.6 11.946667 25.6 25.6v71.68l187.733333-93.866667c3.413333-1.706667 6.826667-3.413333 11.946667-3.413333h271.36c22.186667 0 40.96-18.773333 40.96-40.96V293.546667c0-22.186667-18.773333-40.96-40.96-40.96H126.293333z"  /><path  d="M660.48 459.093333H244.053333c-13.653333 0-25.6-11.946667-25.6-25.6s11.946667-25.6 25.6-25.6h416.426667c13.653333 0 25.6 11.946667 25.6 25.6s-11.946667 25.6-25.6 25.6zM498.346667 605.866667H244.053333c-13.653333 0-25.6-11.946667-25.6-25.6s11.946667-25.6 25.6-25.6h254.293334c13.653333 0 25.6 11.946667 25.6 25.6s-10.24 25.6-25.6 25.6z"  /><path  d="M897.706667 711.68h-52.906667c-13.653333 0-25.6-11.946667-25.6-25.6s11.946667-25.6 25.6-25.6h52.906667c22.186667 0 40.96-18.773333 40.96-40.96v-443.733333c0-22.186667-18.773333-40.96-40.96-40.96H245.76C223.573333 134.826667 204.8 153.6 204.8 175.786667v49.493333c0 13.653333-11.946667 25.6-25.6 25.6S153.6 240.64 153.6 225.28v-49.493333c0-51.2 40.96-92.16 92.16-92.16h651.946667c51.2 0 92.16 40.96 92.16 92.16v442.026666c0 51.2-40.96 93.866667-92.16 93.866667z"  /></svg>