<?xml version="1.0" standalone="no"?><!DOCTYPE svg PUBLIC "-//W3C//DTD SVG 1.1//EN" "http://www.w3.org/Graphics/SVG/1.1/DTD/svg11.dtd"><svg class="icon" width="64px" height="64.00px" viewBox="0 0 1024 1024" version="1.1" xmlns="http://www.w3.org/2000/svg"><path  d="M957.952 983.552H66.048a25.6 25.6 0 0 1-25.6-25.6V66.048a25.6 25.6 0 0 1 25.6-25.6h178.346667a25.6 25.6 0 0 1 25.6 25.6v315.392L589.824 221.866667a25.429333 25.429333 0 0 1 37.034667 22.869333v136.533333L946.517333 221.866667a25.429333 25.429333 0 0 1 37.034667 22.869333v713.216a25.6 25.6 0 0 1-25.6 25.6z m-866.304-51.2h840.704V285.866667L612.693333 445.781333a25.6 25.6 0 0 1-37.034666-23.04v-136.533333L256 445.781333a25.6 25.6 0 0 1-37.034667-23.04V91.648H91.648z"  /><path  d="M422.741333 805.205333H244.394667a25.6 25.6 0 0 1-25.6-25.6V601.258667a25.6 25.6 0 0 1 25.6-25.6h178.346666a25.6 25.6 0 0 1 25.6 25.6v178.346666a25.6 25.6 0 0 1-25.6 25.6z m-152.746666-51.2h127.146666v-127.146666h-127.146666zM779.605333 805.205333H601.258667a25.6 25.6 0 0 1-25.6-25.6V601.258667a25.6 25.6 0 0 1 25.6-25.6h178.346666a25.6 25.6 0 0 1 25.6 25.6v178.346666a25.6 25.6 0 0 1-25.6 25.6z m-153.6-51.2h127.146667v-127.146666h-126.293333z"  /></svg>