<?xml version="1.0" standalone="no"?><!DOCTYPE svg PUBLIC "-//W3C//DTD SVG 1.1//EN" "http://www.w3.org/Graphics/SVG/1.1/DTD/svg11.dtd"><svg class="icon" width="64px" height="64.00px" viewBox="0 0 1024 1024" version="1.1" xmlns="http://www.w3.org/2000/svg"><path  d="M897.706667 977.92H126.293333c-51.2 0-92.16-37.546667-92.16-85.333333V419.84c0-47.786667 40.96-85.333333 92.16-85.333333h769.706667c51.2 0 92.16 37.546667 92.16 85.333333v474.453333c1.706667 46.08-39.253333 83.626667-90.453333 83.626667zM126.293333 385.706667c-22.186667 0-40.96 15.36-40.96 34.133333v474.453333c0 18.773333 18.773333 34.133333 40.96 34.133334h769.706667c22.186667 0 40.96-15.36 40.96-34.133334V419.84c0-18.773333-18.773333-34.133333-40.96-34.133333H126.293333z"  /><path  d="M534.033067 181.1456l36.215466-36.1984 195.498667 195.498667-36.215467 36.1984zM257.8944 341.248L453.393067 145.749333l36.1984 36.1984-195.498667 195.498667z"  /><path  d="M512 199.68c-42.666667 0-76.8-34.133333-76.8-76.8s34.133333-76.8 76.8-76.8 76.8 34.133333 76.8 76.8-34.133333 76.8-76.8 76.8z m0-102.4c-13.653333 0-25.6 11.946667-25.6 25.6s11.946667 25.6 25.6 25.6 25.6-11.946667 25.6-25.6-11.946667-25.6-25.6-25.6z"  /><path  d="M814.08 544.426667H209.92c-13.653333 0-25.6-11.946667-25.6-25.6s11.946667-25.6 25.6-25.6h604.16c13.653333 0 25.6 11.946667 25.6 25.6s-11.946667 25.6-25.6 25.6zM814.08 680.96H209.92c-13.653333 0-25.6-11.946667-25.6-25.6s11.946667-25.6 25.6-25.6h604.16c13.653333 0 25.6 11.946667 25.6 25.6s-11.946667 25.6-25.6 25.6zM590.506667 819.2H209.92c-13.653333 0-25.6-11.946667-25.6-25.6s11.946667-25.6 25.6-25.6h380.586667c13.653333 0 25.6 11.946667 25.6 25.6s-11.946667 25.6-25.6 25.6z"  /></svg>