<?xml version="1.0" standalone="no"?><!DOCTYPE svg PUBLIC "-//W3C//DTD SVG 1.1//EN" "http://www.w3.org/Graphics/SVG/1.1/DTD/svg11.dtd"><svg class="icon" width="64px" height="64.00px" viewBox="0 0 1024 1024" version="1.1" xmlns="http://www.w3.org/2000/svg"><path  d="M471.04 913.066667c-18.773333 0-35.84-6.826667-49.493333-20.48L237.226667 708.266667c-3.413333-3.413333-6.826667-5.12-11.946667-5.12H59.733333c-13.653333 0-25.6-11.946667-25.6-25.6V346.453333c0-13.653333 11.946667-25.6 25.6-25.6h165.546667c3.413333 0 8.533333-1.706667 11.946667-5.12L421.546667 131.413333c20.48-20.48 49.493333-27.306667 76.8-15.36 27.306667 11.946667 44.373333 35.84 44.373333 64.853334v660.48c0 29.013333-17.066667 54.613333-44.373333 64.853333-8.533333 5.12-18.773333 6.826667-27.306667 6.826667zM85.333333 653.653333h139.946667c17.066667 0 35.84 6.826667 47.786667 20.48l184.32 184.32c8.533333 8.533333 18.773333 5.12 20.48 3.413334 3.413333-1.706667 11.946667-5.12 11.946666-18.773334V180.906667c0-11.946667-8.533333-17.066667-11.946666-18.773334-3.413333-1.706667-11.946667-5.12-20.48 3.413334L273.066667 351.573333c-11.946667 11.946667-29.013333 20.48-47.786667 20.48H85.333333v281.6zM675.84 732.16c-5.12 0-10.24-1.706667-15.36-5.12-11.946667-8.533333-13.653333-23.893333-5.12-35.84 42.666667-56.32 75.093333-102.4 75.093333-179.2 0-80.213333-29.013333-119.466667-69.973333-172.373333-8.533333-11.946667-6.826667-27.306667 5.12-35.84s27.306667-6.826667 35.84 5.12c42.666667 56.32 80.213333 105.813333 80.213333 203.093333 0 95.573333-40.96 150.186667-85.333333 209.92-5.12 6.826667-11.946667 10.24-20.48 10.24z"  /><path  d="M803.84 892.586667c-6.826667 0-11.946667-1.706667-17.066667-6.826667-10.24-8.533333-11.946667-25.6-1.706666-35.84 80.213333-92.16 153.6-196.266667 153.6-339.626667 0-143.36-73.386667-247.466667-153.6-337.92-8.533333-10.24-8.533333-27.306667 1.706666-35.84s27.306667-8.533333 35.84 1.706667C909.653333 238.933333 989.866667 351.573333 989.866667 512c0 160.426667-80.213333 273.066667-167.253334 372.053333-5.12 6.826667-11.946667 8.533333-18.773333 8.533334z"  /></svg>