<?xml version="1.0" standalone="no"?><!DOCTYPE svg PUBLIC "-//W3C//DTD SVG 1.1//EN" "http://www.w3.org/Graphics/SVG/1.1/DTD/svg11.dtd"><svg class="icon" width="64px" height="64.00px" viewBox="0 0 1024 1024" version="1.1" xmlns="http://www.w3.org/2000/svg"><path  d="M896 878.933333h-768C76.8 878.933333 34.133333 836.266667 34.133333 785.066667V238.933333c0-51.2 42.666667-93.866667 93.866667-93.866666h768c51.2 0 93.866667 42.666667 93.866667 93.866666v546.133334c0 51.2-42.666667 93.866667-93.866667 93.866666z m-768-682.666666C104.106667 196.266667 85.333333 215.04 85.333333 238.933333v546.133334c0 23.893333 18.773333 42.666667 42.666667 42.666666h768c23.893333 0 42.666667-18.773333 42.666667-42.666666V238.933333c0-23.893333-18.773333-42.666667-42.666667-42.666666h-768z"  /><path  d="M329.386667 525.653333c-54.613333 0-98.986667-44.373333-98.986667-98.986666s44.373333-98.986667 98.986667-98.986667c54.613333 0 98.986667 44.373333 98.986666 98.986667s-44.373333 98.986667-98.986666 98.986666z m0-146.773333c-27.306667 0-47.786667 22.186667-47.786667 47.786667s22.186667 47.786667 47.786667 47.786666 47.786667-22.186667 47.786666-47.786666-22.186667-47.786667-47.786666-47.786667z"  /><path  d="M494.933333 692.906667H162.133333c-13.653333 0-25.6-11.946667-25.6-25.6 0-105.813333 85.333333-191.146667 191.146667-191.146667 105.813333 0 191.146667 85.333333 191.146667 191.146667 1.706667 13.653333-10.24 25.6-23.893334 25.6z m-303.786666-51.2h276.48c-11.946667-64.853333-69.973333-114.346667-138.24-114.346667s-126.293333 47.786667-138.24 114.346667z"  /><path  d="M708.266667 459.093333c-8.533333 0-17.066667-3.413333-23.893334-10.24l-49.493333-52.906666c-10.24-10.24-10.24-25.6 0-35.84 10.24-10.24 25.6-10.24 35.84 0l37.546667 39.253333 104.106666-97.28c10.24-10.24 27.306667-8.533333 35.84 1.706667 10.24 10.24 8.533333 27.306667-1.706666 35.84l-117.76 109.226666c-3.413333 6.826667-11.946667 10.24-20.48 10.24zM844.8 593.92H653.653333c-13.653333 0-25.6-11.946667-25.6-25.6s11.946667-25.6 25.6-25.6h192.853334c13.653333 0 25.6 11.946667 25.6 25.6s-13.653333 25.6-27.306667 25.6zM844.8 694.613333H653.653333c-13.653333 0-25.6-11.946667-25.6-25.6s11.946667-25.6 25.6-25.6h192.853334c13.653333 0 25.6 11.946667 25.6 25.6s-13.653333 25.6-27.306667 25.6z"  /></svg>