<?xml version="1.0" standalone="no"?><!DOCTYPE svg PUBLIC "-//W3C//DTD SVG 1.1//EN" "http://www.w3.org/Graphics/SVG/1.1/DTD/svg11.dtd"><svg class="icon" width="64px" height="64.00px" viewBox="0 0 1024 1024" version="1.1" xmlns="http://www.w3.org/2000/svg"><path  d="M544.426667 933.546667h-64.853334c-32.426667 0-58.026667-25.6-58.026666-58.026667v-87.04H92.16h-3.413333c-3.413333 0-8.533333 0-11.946667-1.706667-1.706667-1.706667-3.413333-1.706667-5.12-1.706666-15.36-5.12-29.013333-18.773333-34.133333-34.133334 0-1.706667-1.706667-3.413333-1.706667-5.12-1.706667-6.826667-1.706667-10.24-1.706667-15.36V310.613333C34.133333 189.44 133.12 90.453333 254.293333 90.453333h517.12c121.173333 0 220.16 98.986667 220.16 220.16v419.84c0 32.426667-25.6 58.026667-58.026666 58.026667l-329.386667-1.706667v88.746667c-1.706667 32.426667-27.306667 58.026667-59.733333 58.026667zM92.16 737.28h354.986667c13.653333 0 25.6 11.946667 25.6 25.6v112.64c0 3.413333 3.413333 6.826667 6.826666 6.826667h64.853334c3.413333 0 6.826667-3.413333 6.826666-6.826667v-114.346667c0-6.826667 3.413333-13.653333 6.826667-18.773333 5.12-5.12 11.946667-6.826667 18.773333-6.826667l354.986667 1.706667c3.413333 0 6.826667-3.413333 6.826667-6.826667V310.613333c0-92.16-75.093333-168.96-168.96-168.96H254.293333C160.426667 141.653333 85.333333 216.746667 85.333333 310.613333v419.84l-23.893333 11.946667 23.893333-10.24c0 1.706667 1.706667 3.413333 3.413334 3.413333v25.6l3.413333-23.893333z"  /><path  d="M616.106667 786.773333h-168.96c-13.653333 0-25.6-11.946667-25.6-25.6V281.6c0-37.546667-13.653333-71.68-40.96-97.28-25.6-25.6-61.44-40.96-97.28-40.96-13.653333 0-25.6-11.946667-25.6-25.6s11.946667-25.6 25.6-25.6c51.2 0 98.986667 20.48 134.826666 56.32 35.84 35.84 56.32 83.626667 56.32 134.826667v453.973333h143.36c13.653333 0 25.6 11.946667 25.6 25.6s-11.946667 23.893333-27.306666 23.893333z"  /><path  d="M324.266667 389.12H163.84c-13.653333 0-25.6-11.946667-25.6-25.6s11.946667-25.6 25.6-25.6H324.266667c13.653333 0 25.6 11.946667 25.6 25.6s-11.946667 25.6-25.6 25.6zM831.146667 474.453333c-13.653333 0-25.6-11.946667-25.6-25.6v-59.733333H609.28c-13.653333 0-25.6-11.946667-25.6-25.6s11.946667-25.6 25.6-25.6h221.866667c13.653333 0 25.6 11.946667 25.6 25.6v85.333333c0 13.653333-11.946667 25.6-25.6 25.6z"  /></svg>