<?xml version="1.0" standalone="no"?><!DOCTYPE svg PUBLIC "-//W3C//DTD SVG 1.1//EN" "http://www.w3.org/Graphics/SVG/1.1/DTD/svg11.dtd"><svg class="icon" width="64px" height="64.00px" viewBox="0 0 1024 1024" version="1.1" xmlns="http://www.w3.org/2000/svg"><path  d="M501.76 522.24c-83.626667 0-150.186667-68.266667-150.186667-150.186667s68.266667-150.186667 150.186667-150.186666c83.626667 0 150.186667 68.266667 150.186667 150.186666s-66.56 150.186667-150.186667 150.186667z m0-250.88c-54.613333 0-98.986667 44.373333-98.986667 98.986667s44.373333 98.986667 98.986667 98.986666 98.986667-44.373333 98.986667-98.986666-44.373333-98.986667-98.986667-98.986667z"  /><path  d="M783.36 803.84h-563.2c-13.653333 0-25.6-11.946667-25.6-25.6 0-168.96 138.24-307.2 307.2-307.2s307.2 138.24 307.2 307.2c0 13.653333-11.946667 25.6-25.6 25.6z m-535.893333-51.2h508.586666c-13.653333-129.706667-122.88-230.4-254.293333-230.4s-240.64 100.693333-254.293333 230.4zM250.88 527.36c-61.44 0-110.933333-49.493333-110.933333-110.933333s49.493333-110.933333 110.933333-110.933334c13.653333 0 25.6 11.946667 25.6 25.6s-11.946667 27.306667-25.6 27.306667c-32.426667 0-59.733333 27.306667-59.733333 59.733333s27.306667 59.733333 59.733333 59.733334c13.653333 0 25.6 11.946667 25.6 25.6s-11.946667 23.893333-25.6 23.893333z"  /><path  d="M59.733333 716.8c-13.653333 0-25.6-10.24-25.6-25.6 0-119.466667 97.28-216.746667 216.746667-216.746667 13.653333 0 25.6 11.946667 25.6 25.6s-11.946667 25.6-25.6 25.6c-90.453333 0-165.546667 73.386667-165.546667 165.546667 0 15.36-11.946667 25.6-25.6 25.6z"  /><path  d="M773.12 527.36c-13.653333 0-25.6-11.946667-25.6-25.6s11.946667-25.6 25.6-25.6c32.426667 0 59.733333-27.306667 59.733333-59.733333S805.546667 358.4 773.12 358.4c-13.653333 0-25.6-11.946667-25.6-25.6s11.946667-25.6 25.6-25.6c61.44 0 110.933333 49.493333 110.933333 110.933333s-49.493333 109.226667-110.933333 109.226667z"  /><path  d="M964.266667 716.8c-13.653333 0-25.6-11.946667-25.6-25.6 0-90.453333-73.386667-165.546667-165.546667-165.546667-13.653333 0-25.6-11.946667-25.6-25.6s11.946667-25.6 25.6-25.6c119.466667 0 216.746667 97.28 216.746667 216.746667 0 15.36-11.946667 25.6-25.6 25.6z"  /></svg>