<?xml version="1.0" standalone="no"?><!DOCTYPE svg PUBLIC "-//W3C//DTD SVG 1.1//EN" "http://www.w3.org/Graphics/SVG/1.1/DTD/svg11.dtd"><svg class="icon" width="64px" height="64.00px" viewBox="0 0 1024 1024" version="1.1" xmlns="http://www.w3.org/2000/svg"><path  d="M341.333333 474.453333c-83.626667 0-150.186667-68.266667-150.186666-150.186666s68.266667-150.186667 150.186666-150.186667 150.186667 68.266667 150.186667 150.186667-68.266667 150.186667-150.186667 150.186666z m0-249.173333c-54.613333 0-98.986667 44.373333-98.986666 98.986667 0 54.613333 44.373333 98.986667 98.986666 98.986666 54.613333 0 98.986667-44.373333 98.986667-98.986666 0-54.613333-44.373333-98.986667-98.986667-98.986667zM622.933333 849.92c-13.653333 0-25.6-11.946667-25.6-25.6 0-141.653333-114.346667-256-256-256S85.333333 682.666667 85.333333 824.32c0 13.653333-11.946667 25.6-25.6 25.6S34.133333 837.973333 34.133333 824.32c0-168.96 138.24-307.2 307.2-307.2s307.2 138.24 307.2 307.2c0 13.653333-11.946667 25.6-25.6 25.6z"  /><path  d="M341.333333 768c-8.533333 0-15.36-3.413333-20.48-10.24l-44.373333-56.32c-5.12-6.826667-6.826667-15.36-5.12-23.893333l44.373333-145.066667c3.413333-10.24 13.653333-18.773333 23.893334-18.773333s20.48 6.826667 23.893333 18.773333l44.373333 145.066667c1.706667 8.533333 0 17.066667-5.12 23.893333L358.4 757.76c-1.706667 6.826667-10.24 10.24-17.066667 10.24z m-17.066666-85.333333l15.36 20.48 15.36-20.48-15.36-51.2-15.36 51.2z"  /><path  d="M716.8 481.28c-69.973333 0-128-58.026667-128-128s58.026667-128 128-128 128 58.026667 128 128-56.32 128-128 128z m0-204.8c-42.666667 0-76.8 34.133333-76.8 76.8s34.133333 76.8 76.8 76.8 76.8-34.133333 76.8-76.8-34.133333-76.8-76.8-76.8zM947.2 788.48c-13.653333 0-25.6-11.946667-25.6-25.6 0-112.64-92.16-204.8-204.8-204.8-34.133333 0-68.266667 8.533333-97.28 23.893333-11.946667 6.826667-27.306667 1.706667-34.133333-10.24-6.826667-11.946667-1.706667-27.306667 10.24-34.133333 37.546667-20.48 78.506667-30.72 121.173333-30.72 141.653333 0 256 114.346667 256 256 0 13.653333-10.24 25.6-25.6 25.6z"  /></svg>