<?xml version="1.0" standalone="no"?><!DOCTYPE svg PUBLIC "-//W3C//DTD SVG 1.1//EN" "http://www.w3.org/Graphics/SVG/1.1/DTD/svg11.dtd"><svg class="icon" width="64px" height="64.00px" viewBox="0 0 1024 1024" version="1.1" xmlns="http://www.w3.org/2000/svg"><path  d="M684.373333 119.466667c17.066667 0 34.133333 1.706667 51.2 6.826666 17.066667 3.413333 22.186667 25.6 10.24 37.546667l-105.813333 105.813333v114.346667h116.053333l105.813334-105.813333c5.12-5.12 10.24-6.826667 15.36-6.826667 10.24 0 18.773333 6.826667 22.186666 17.066667 8.533333 32.426667 8.533333 68.266667 0 104.106666-15.36 66.56-63.146667 121.173333-124.586666 148.48l-30.72-30.72c-30.72-30.72-71.68-47.786667-114.346667-47.786666-11.946667 0-25.6 1.706667-37.546667 5.12L464.213333 341.333333c0-11.946667 0-23.893333 1.706667-37.546666 13.653333-85.333333 80.213333-158.72 163.84-179.2C648.533333 121.173333 665.6 119.466667 684.373333 119.466667m0-51.2c-22.186667 0-44.373333 3.413333-64.853333 8.533333-104.106667 25.6-186.026667 114.346667-203.093333 220.16-3.413333 17.066667-3.413333 34.133333-3.413334 46.08 0 13.653333 5.12 25.6 15.36 35.84l126.293334 126.293333c10.24 10.24 22.186667 15.36 35.84 15.36 5.12 0 10.24-1.706667 17.066666-3.413333s13.653333-3.413333 22.186667-3.413333c29.013333 0 58.026667 11.946667 78.506667 32.426666l30.72 30.72c10.24 10.24 22.186667 15.36 35.84 15.36 6.826667 0 13.653333-1.706667 20.48-5.12 76.8-34.133333 134.826667-102.4 153.6-182.613333 10.24-42.666667 10.24-87.04 0-128-8.533333-32.426667-37.546667-56.32-71.68-56.32-18.773333 0-37.546667 6.826667-51.2 22.186667L733.866667 331.093333h-42.666667V290.133333l90.453333-90.453333c18.773333-18.773333 25.6-46.08 18.773334-71.68-6.826667-25.6-27.306667-44.373333-52.906667-51.2-20.48-6.826667-42.666667-8.533333-63.146667-8.533333z"  /><path  d="M216.746667 119.466667l194.56 146.773333v95.573333l165.546666 163.84c15.36-8.533333 34.133333-11.946667 51.2-11.946666 29.013333 0 58.026667 10.24 80.213334 32.426666L887.466667 723.626667c22.186667 22.186667 22.186667 58.026667 0 80.213333l-80.213334 80.213333c-11.946667 11.946667-25.6 17.066667-40.96 17.066667-15.36 0-29.013333-5.12-40.96-17.066667L546.133333 704.853333c-35.84-35.84-42.666667-88.746667-20.48-131.413333L361.813333 409.6h-95.573333L119.466667 216.746667 216.746667 119.466667m1.706666-51.2c-13.653333 0-25.6 5.12-35.84 15.36L85.333333 180.906667c-18.773333 18.773333-20.48 46.08-5.12 66.56l146.773334 194.56c10.24 13.653333 25.6 20.48 40.96 20.48H341.333333l126.293334 126.293333c-11.946667 54.613333 3.413333 112.64 44.373333 153.6L689.493333 921.6c20.48 20.48 47.786667 32.426667 76.8 32.426667 29.013333 0 56.32-11.946667 76.8-32.426667l80.213334-80.213333c42.666667-42.666667 42.666667-110.933333 0-153.6L744.106667 510.293333c-30.72-30.72-71.68-47.786667-116.053334-47.786666-11.946667 0-25.6 1.706667-37.546666 5.12L464.213333 341.333333v-73.386666c0-15.36-6.826667-30.72-20.48-40.96L249.173333 78.506667c-10.24-6.826667-20.48-10.24-30.72-10.24z"  /><path  d="M378.88 500.053333l90.453333 90.453334c-8.533333 34.133333-3.413333 69.973333 10.24 100.693333L296.96 873.813333c-20.48 20.48-46.08 30.72-73.386667 30.72-27.306667 0-52.906667-10.24-73.386666-30.72-40.96-40.96-40.96-105.813333 0-146.773333l228.693333-226.986667m0-51.2c-13.653333 0-25.6 5.12-35.84 15.36L114.346667 691.2c-59.733333 59.733333-59.733333 158.72 0 218.453333 29.013333 29.013333 68.266667 46.08 109.226666 46.08 40.96 0 80.213333-15.36 109.226667-46.08l182.613333-182.613333c15.36-15.36 18.773333-37.546667 10.24-56.32-10.24-23.893333-11.946667-47.786667-6.826666-69.973333 3.413333-17.066667-1.706667-35.84-13.653334-47.786667l-90.453333-90.453333c-10.24-8.533333-23.893333-13.653333-35.84-13.653334z"  /><path  d="M216.746667 788.48c10.24 0 17.066667 8.533333 17.066666 17.066667s-8.533333 17.066667-17.066666 17.066666-17.066667-8.533333-17.066667-17.066666 8.533333-17.066667 17.066667-17.066667m0-51.2c-37.546667 0-68.266667 30.72-68.266667 68.266667s30.72 68.266667 68.266667 68.266666 68.266667-30.72 68.266666-68.266666-29.013333-68.266667-68.266666-68.266667z"  /></svg>