<?xml version="1.0" standalone="no"?><!DOCTYPE svg PUBLIC "-//W3C//DTD SVG 1.1//EN" "http://www.w3.org/Graphics/SVG/1.1/DTD/svg11.dtd"><svg class="icon" width="64px" height="64.00px" viewBox="0 0 1024 1024" version="1.1" xmlns="http://www.w3.org/2000/svg"><path  d="M512 720.725333a165.717333 165.717333 0 1 1 165.546667-165.546666 165.717333 165.717333 0 0 1-165.546667 165.546666z m0-280.064a114.517333 114.517333 0 1 0 114.346667 114.517334 114.517333 114.517333 0 0 0-114.346667-114.517334zM630.272 219.477333a25.6 25.6 0 0 1-25.6-25.6V126.805333H419.328v67.072a25.6 25.6 0 0 1-51.2 0V101.205333a25.6 25.6 0 0 1 25.6-25.6h236.544a25.6 25.6 0 0 1 25.6 25.6v92.672a25.6 25.6 0 0 1-25.6 25.6zM178.005333 910.165333a25.6 25.6 0 0 1-22.186666-12.8l-118.272-204.8a25.6 25.6 0 0 1 9.386666-34.133333l80.384-46.421333A25.6 25.6 0 0 1 153.6 655.530667l-58.197333 34.133333L187.733333 849.578667l58.197334-34.133334a25.6 25.6 0 0 1 25.6 44.202667l-80.384 46.421333a24.917333 24.917333 0 0 1-13.141334 4.096zM845.994667 910.165333a24.917333 24.917333 0 0 1-12.8-3.413333l-80.384-46.421333a25.6 25.6 0 0 1 25.6-44.202667l58.197333 34.133333 92.672-160.597333-58.197333-34.133333a25.6 25.6 0 0 1 25.6-44.373334l80.384 46.421334a25.429333 25.429333 0 0 1 11.946666 15.530666 25.941333 25.941333 0 0 1-2.56 19.456l-118.272 204.8a25.6 25.6 0 0 1-22.186666 12.8z"  /><path  d="M512 948.565333a392.533333 392.533333 0 1 1 197.290667-733.866666A392.533333 392.533333 0 0 1 614.4 934.912a396.458667 396.458667 0 0 1-102.4 13.653333z m0-735.573333a341.333333 341.333333 0 0 0-170.666667 638.293333 341.333333 341.333333 0 0 0 341.333334-592.213333 341.333333 341.333333 0 0 0-170.666667-46.08z"  /><path  d="M167.765333 523.434667a25.6 25.6 0 0 1-6.656-51.2l142.506667-38.229334-38.229333-142.506666a25.6 25.6 0 0 1 49.493333-13.312l44.885333 167.253333a25.770667 25.770667 0 0 1-2.56 19.456A25.258667 25.258667 0 0 1 341.333333 477.866667l-167.424 44.885333a26.965333 26.965333 0 0 1-6.144 0.682667zM634.368 907.605333a26.112 26.112 0 0 1-18.090667-7.509333L512 795.818667l-104.277333 104.277333a25.6 25.6 0 0 1-36.352-36.181333l122.538666-122.538667a26.453333 26.453333 0 0 1 36.181334 0l122.538666 122.538667a25.770667 25.770667 0 0 1 0 36.181333 26.112 26.112 0 0 1-18.261333 7.509333zM856.234667 523.434667a29.696 29.696 0 0 1-6.656-0.853334L682.666667 477.866667a25.6 25.6 0 0 1-18.090667-31.402667l44.885333-167.253333a25.6 25.6 0 0 1 49.493334 13.312l-38.229334 142.506666 142.506667 38.229334a25.6 25.6 0 0 1-6.656 51.2z"  /></svg>