<?xml version="1.0" standalone="no"?><!DOCTYPE svg PUBLIC "-//W3C//DTD SVG 1.1//EN" "http://www.w3.org/Graphics/SVG/1.1/DTD/svg11.dtd"><svg class="icon" width="64px" height="64.00px" viewBox="0 0 1024 1024" version="1.1" xmlns="http://www.w3.org/2000/svg"><path  d="M100.693333 935.253333c-1.706667 0-5.12 0-6.826666-1.706666-13.653333-3.413333-22.186667-18.773333-17.066667-32.426667C139.946667 682.666667 170.666667 505.173333 170.666667 346.453333c0-13.653333 11.946667-25.6 25.6-25.6h285.013333c13.653333 0 25.6 11.946667 25.6 25.6 0 158.72 30.72 336.213333 93.866667 554.666667 3.413333 13.653333-3.413333 27.306667-17.066667 32.426667-13.653333 3.413333-27.306667-3.413333-32.426667-17.066667-61.44-211.626667-92.16-385.706667-95.573333-542.72H220.16c-3.413333 157.013333-34.133333 331.093333-95.573333 542.72-3.413333 11.946667-13.653333 18.773333-23.893334 18.773333z"  /><path  d="M814.08 935.253333c-10.24 0-18.773333-5.12-23.893333-15.36-44.373333-107.52-90.453333-232.106667-95.573334-358.4H505.173333c-13.653333 0-25.6-11.946667-25.6-25.6s11.946667-25.6 25.6-25.6h215.04c13.653333 0 25.6 11.946667 25.6 25.6 1.706667 126.293333 47.786667 256 93.866667 365.226667 5.12 13.653333 0 27.306667-13.653333 34.133333h-11.946667zM626.346667 233.813333h-3.413334c-44.373333 1.706667-88.746667-20.48-116.053333-58.026666-17.066667-23.893333-44.373333-37.546667-73.386667-35.84-30.72 0-58.026667 13.653333-75.093333 35.84-8.533333 11.946667-23.893333 13.653333-35.84 5.12-11.946667-8.533333-13.653333-23.893333-5.12-35.84 25.6-35.84 68.266667-58.026667 112.64-58.026667h3.413333c44.373333-1.706667 88.746667 20.48 116.053334 58.026667 17.066667 23.893333 44.373333 35.84 73.386666 35.84 30.72 0 58.026667-13.653333 75.093334-35.84 27.306667-37.546667 69.973333-58.026667 116.053333-58.026667 44.373333-1.706667 88.746667 20.48 116.053333 58.026667 8.533333 11.946667 5.12 27.306667-5.12 35.84-11.946667 8.533333-27.306667 5.12-35.84-5.12-17.066667-23.893333-44.373333-35.84-73.386666-35.84-30.72 0-58.026667 13.653333-75.093334 35.84-27.306667 35.84-69.973333 58.026667-114.346666 58.026666z"  /><path  d="M957.44 935.253333h-904.533333c-13.653333 0-25.6-11.946667-25.6-25.6s11.946667-25.6 25.6-25.6h904.533333c13.653333 0 25.6 11.946667 25.6 25.6s-11.946667 25.6-25.6 25.6z"  /></svg>