<?xml version="1.0" standalone="no"?><!DOCTYPE svg PUBLIC "-//W3C//DTD SVG 1.1//EN" "http://www.w3.org/Graphics/SVG/1.1/DTD/svg11.dtd"><svg class="icon" width="64px" height="64.00px" viewBox="0 0 1024 1024" version="1.1" xmlns="http://www.w3.org/2000/svg"><path  d="M285.013333 762.88c-76.8 0-138.24-61.44-138.24-138.24s61.44-138.24 138.24-138.24 138.24 61.44 138.24 138.24-61.44 138.24-138.24 138.24z m0-225.28c-47.786667 0-87.04 39.253333-87.04 87.04s39.253333 87.04 87.04 87.04 87.04-39.253333 87.04-87.04-37.546667-87.04-87.04-87.04zM737.28 762.88c-76.8 0-138.24-61.44-138.24-138.24s61.44-138.24 138.24-138.24 138.24 61.44 138.24 138.24-61.44 138.24-138.24 138.24z m0-225.28c-47.786667 0-87.04 39.253333-87.04 87.04s39.253333 87.04 87.04 87.04 87.04-39.253333 87.04-87.04-37.546667-87.04-87.04-87.04zM512 310.613333c-76.8 0-138.24-61.44-138.24-138.24S435.2 34.133333 512 34.133333s138.24 61.44 138.24 138.24-61.44 138.24-138.24 138.24zM512 85.333333c-47.786667 0-87.04 39.253333-87.04 87.04s39.253333 87.04 87.04 87.04 87.04-39.253333 87.04-87.04S559.786667 85.333333 512 85.333333z"  /><path  d="M512 989.866667c-13.653333 0-25.6-11.946667-25.6-25.6 0-110.933333-90.453333-201.386667-201.386667-201.386667S85.333333 853.333333 85.333333 964.266667c0 13.653333-11.946667 25.6-25.6 25.6S34.133333 977.92 34.133333 964.266667c0-138.24 112.64-252.586667 252.586667-252.586667s252.586667 112.64 252.586667 252.586667c-1.706667 13.653333-13.653333 25.6-27.306667 25.6z"  /><path  d="M964.266667 989.866667c-13.653333 0-25.6-11.946667-25.6-25.6 0-110.933333-90.453333-201.386667-201.386667-201.386667S537.6 853.333333 537.6 964.266667c0 13.653333-11.946667 25.6-25.6 25.6s-25.6-11.946667-25.6-25.6c0-138.24 112.64-252.586667 252.586667-252.586667S989.866667 826.026667 989.866667 964.266667c0 13.653333-11.946667 25.6-25.6 25.6zM737.28 537.6c-13.653333 0-25.6-11.946667-25.6-25.6 0-110.933333-90.453333-201.386667-201.386667-201.386667S310.613333 401.066667 310.613333 512c0 13.653333-11.946667 25.6-25.6 25.6s-25.6-11.946667-25.6-25.6c0-138.24 112.64-252.586667 252.586667-252.586667S762.88 373.76 762.88 512c0 13.653333-10.24 25.6-25.6 25.6z"  /></svg>