<?xml version="1.0" standalone="no"?><!DOCTYPE svg PUBLIC "-//W3C//DTD SVG 1.1//EN" "http://www.w3.org/Graphics/SVG/1.1/DTD/svg11.dtd"><svg class="icon" width="64px" height="64.00px" viewBox="0 0 1024 1024" version="1.1" xmlns="http://www.w3.org/2000/svg"><path  d="M907.776 716.8a133.973333 133.973333 0 0 0-15.189333-12.8v-164.864a80.384 80.384 0 0 0-80.213334-80.213333h-54.613333a29.013333 29.013333 0 0 1-20.48-8.533334 28.672 28.672 0 0 1-8.533333-20.48V375.466667a80.042667 80.042667 0 0 0-80.213334-80.213334h-85.333333l-354.474667-204.8a85.333333 85.333333 0 0 0-60.928-11.093333 86.528 86.528 0 0 0-43.008 147.797333l82.944 76.8v182.272H138.922667a62.122667 62.122667 0 0 0-61.952 62.122667v145.578667a62.122667 62.122667 0 0 0 61.952 62.122666h145.578666a62.122667 62.122667 0 0 0 61.952-62.122666v-145.578667a62.122667 62.122667 0 0 0-61.952-62.122667H238.933333V351.573333l165.546667 153.6v198.997334a132.437333 132.437333 0 0 0-15.018667 12.8A134.826667 134.826667 0 0 0 484.693333 947.2h327.68A134.997333 134.997333 0 0 0 907.776 716.8zM295.253333 548.352v145.578667a10.922667 10.922667 0 0 1-10.752 10.922666H138.922667a10.922667 10.922667 0 0 1-10.752-10.922666v-145.578667a10.922667 10.922667 0 0 1 10.752-10.922667h145.578666a10.922667 10.922667 0 0 1 10.752 10.922667zM138.922667 188.757333a35.157333 35.157333 0 0 1 42.837333-55.466666l283.306667 164.522666A79.701333 79.701333 0 0 0 404.48 375.466667v60.245333zM455.68 375.466667a29.013333 29.013333 0 0 1 8.533333-20.48 28.330667 28.330667 0 0 1 20.48-8.533334h68.266667a29.013333 29.013333 0 0 0 7.68 0H648.533333a27.989333 27.989333 0 0 1 20.48 8.533334 29.013333 29.013333 0 0 1 8.533334 20.48v54.613333a80.384 80.384 0 0 0 80.213333 80.213333h54.613333a29.184 29.184 0 0 1 29.013334 29.013334v141.482666a136.533333 136.533333 0 0 0-29.013334-3.072H484.693333a136.533333 136.533333 0 0 0-29.013333 3.072z m415.914667 495.957333a83.114667 83.114667 0 0 1-59.221334 24.576H484.693333a83.626667 83.626667 0 1 1 0-167.253333h327.68a83.626667 83.626667 0 0 1 59.221334 142.677333z"  /><path  d="M539.306667 455.509333h54.613333a25.6 25.6 0 0 0 0-51.2h-54.613333a25.6 25.6 0 0 0 0 51.2zM512 773.290667a39.253333 39.253333 0 1 0 39.253333 39.253333 39.253333 39.253333 0 0 0-39.253333-39.253333zM648.533333 773.290667a39.253333 39.253333 0 1 0 39.253334 39.253333 39.253333 39.253333 0 0 0-39.253334-39.253333zM785.066667 773.290667a39.253333 39.253333 0 1 0 39.253333 39.253333 39.253333 39.253333 0 0 0-39.253333-39.253333z"  /></svg>