<?xml version="1.0" standalone="no"?><!DOCTYPE svg PUBLIC "-//W3C//DTD SVG 1.1//EN" "http://www.w3.org/Graphics/SVG/1.1/DTD/svg11.dtd"><svg class="icon" width="64px" height="64.00px" viewBox="0 0 1024 1024" version="1.1" xmlns="http://www.w3.org/2000/svg"><path  d="M59.733333 491.52c-5.12 0-8.533333-1.706667-13.653333-3.413333-11.946667-6.826667-15.36-22.186667-8.533333-35.84l136.533333-226.986667c5.12-8.533333 13.653333-11.946667 22.186667-11.946667s17.066667 5.12 22.186666 11.946667l134.826667 226.986667c6.826667 11.946667 3.413333 27.306667-8.533333 35.84-11.946667 6.826667-27.306667 3.413333-35.84-8.533334L196.266667 290.133333 81.92 479.573333c-5.12 8.533333-13.653333 11.946667-22.186667 11.946667z"  /><path  d="M196.266667 628.053333c-88.746667 0-162.133333-71.68-162.133334-162.133333 0-13.653333 11.946667-25.6 25.6-25.6h271.36c13.653333 0 25.6 11.946667 25.6 25.6 0 90.453333-71.68 162.133333-160.426666 162.133333z m-107.52-136.533333c11.946667 47.786667 54.613333 85.333333 107.52 85.333333 51.2 0 95.573333-35.84 107.52-85.333333H88.746667zM964.266667 491.52c-8.533333 0-17.066667-5.12-22.186667-11.946667L827.733333 290.133333l-114.346666 189.44c-6.826667 11.946667-22.186667 15.36-35.84 8.533334-11.946667-6.826667-15.36-22.186667-8.533334-35.84l134.826667-226.986667c5.12-8.533333 13.653333-11.946667 22.186667-11.946667s17.066667 5.12 22.186666 11.946667l136.533334 226.986667c6.826667 11.946667 3.413333 27.306667-8.533334 35.84-3.413333 3.413333-6.826667 3.413333-11.946666 3.413333z"  /><path  d="M827.733333 628.053333c-88.746667 0-160.426667-71.68-160.426666-162.133333 0-13.653333 11.946667-25.6 25.6-25.6h271.36c13.653333 0 25.6 11.946667 25.6 25.6 0 90.453333-71.68 162.133333-162.133334 162.133333z m-105.813333-136.533333c11.946667 47.786667 54.613333 85.333333 107.52 85.333333 51.2 0 95.573333-35.84 107.52-85.333333H721.92zM512 930.133333c-13.653333 0-25.6-11.946667-25.6-25.6V119.466667c0-13.653333 11.946667-25.6 25.6-25.6s25.6 11.946667 25.6 25.6v785.066666c0 13.653333-11.946667 25.6-25.6 25.6z"  /><path  d="M827.733333 266.24h-631.466666c-13.653333 0-25.6-11.946667-25.6-25.6s11.946667-25.6 25.6-25.6h633.173333c13.653333 0 25.6 11.946667 25.6 25.6s-11.946667 25.6-27.306667 25.6zM827.733333 947.2h-631.466666c-13.653333 0-25.6-11.946667-25.6-25.6s11.946667-25.6 25.6-25.6h631.466666c13.653333 0 25.6 11.946667 25.6 25.6s-11.946667 25.6-25.6 25.6z"  /></svg>