<?xml version="1.0" standalone="no"?><!DOCTYPE svg PUBLIC "-//W3C//DTD SVG 1.1//EN" "http://www.w3.org/Graphics/SVG/1.1/DTD/svg11.dtd"><svg class="icon" width="64px" height="64.00px" viewBox="0 0 1024 1024" version="1.1" xmlns="http://www.w3.org/2000/svg"><path  d="M846.506667 529.066667c-13.653333 0-25.6-11.946667-25.6-25.6V126.293333C820.906667 104.106667 802.133333 85.333333 779.946667 85.333333H244.053333c-22.186667 0-40.96 18.773333-40.96 40.96v377.173334c0 13.653333-11.946667 25.6-25.6 25.6s-25.6-11.946667-25.6-25.6V126.293333c0-51.2 40.96-92.16 92.16-92.16h535.893334c51.2 0 92.16 40.96 92.16 92.16v377.173334c0 15.36-10.24 25.6-25.6 25.6z"  /><path  d="M897.706667 989.866667H126.293333c-51.2 0-92.16-40.96-92.16-92.16V460.8c0-8.533333 3.413333-15.36 10.24-20.48 6.826667-5.12 17.066667-6.826667 23.893334-3.413333l430.08 157.013333c8.533333 3.413333 18.773333 3.413333 29.013333 0L955.733333 436.906667c8.533333-3.413333 17.066667-1.706667 23.893334 3.413333s10.24 11.946667 10.24 20.48v436.906667c0 51.2-40.96 92.16-92.16 92.16zM85.333333 498.346667v399.36C85.333333 919.893333 104.106667 938.666667 126.293333 938.666667h769.706667c22.186667 0 40.96-18.773333 40.96-40.96V498.346667l-394.24 145.066666c-20.48 6.826667-42.666667 6.826667-63.146667 0L85.333333 498.346667z"  /><path  d="M964.266667 609.28c-13.653333 0-25.6-11.946667-25.6-25.6V365.226667c0-3.413333-3.413333-6.826667-6.826667-8.533334l-90.453333-17.066666c-13.653333-1.706667-23.893333-15.36-20.48-29.013334 1.706667-13.653333 15.36-23.893333 29.013333-20.48l90.453333 17.066667c27.306667 5.12 47.786667 29.013333 47.786667 58.026667v218.453333c1.706667 13.653333-10.24 25.6-23.893333 25.6zM59.733333 590.506667c-13.653333 0-25.6-10.24-25.6-25.6V365.226667c0-29.013333 20.48-52.906667 47.786667-58.026667l90.453333-17.066667c13.653333-1.706667 27.306667 6.826667 29.013334 20.48 1.706667 13.653333-6.826667 27.306667-20.48 29.013334l-90.453334 17.066666c-1.706667 1.706667-5.12 5.12-5.12 8.533334v199.68c0 15.36-11.946667 25.6-25.6 25.6zM677.546667 457.386667h-5.12L341.333333 384c-11.946667-3.413333-20.48-13.653333-20.48-25.6v-129.706667c0-11.946667 8.533333-22.186667 20.48-25.6l331.093334-64.853333c6.826667-1.706667 15.36 0 20.48 5.12 5.12 5.12 8.533333 11.946667 8.533333 20.48v266.24c0 8.533333-3.413333 15.36-10.24 20.48-1.706667 5.12-8.533333 6.826667-13.653333 6.826667z m-305.493334-119.466667l279.893334 61.44v-204.8l-279.893334 54.613333v88.746667z"  /><path  d="M459.093333 476.16c-8.533333 0-17.066667-1.706667-25.6-5.12-49.493333-18.773333-58.026667-88.746667-58.026666-95.573333-1.706667-13.653333 8.533333-27.306667 23.893333-27.306667 13.653333-1.706667 27.306667 8.533333 27.306667 23.893333 1.706667 15.36 10.24 46.08 25.6 52.906667 15.36 5.12 42.666667-8.533333 75.093333-39.253333 10.24-10.24 27.306667-8.533333 35.84 1.706666 10.24 10.24 8.533333 27.306667-1.706667 35.84-37.546667 34.133333-71.68 52.906667-102.4 52.906667z"  /></svg>