<?xml version="1.0" standalone="no"?><!DOCTYPE svg PUBLIC "-//W3C//DTD SVG 1.1//EN" "http://www.w3.org/Graphics/SVG/1.1/DTD/svg11.dtd"><svg class="icon" width="64px" height="64.00px" viewBox="0 0 1024 1024" version="1.1" xmlns="http://www.w3.org/2000/svg"><path  d="M836.266667 989.866667H187.733333c-51.2 0-93.866667-42.666667-93.866666-93.866667v-682.666667C93.866667 162.133333 136.533333 119.466667 187.733333 119.466667h471.04c13.653333 0 25.6 11.946667 25.6 25.6s-11.946667 25.6-25.6 25.6H187.733333c-23.893333 0-42.666667 18.773333-42.666666 42.666666v682.666667c0 23.893333 18.773333 42.666667 42.666666 42.666667h648.533334c23.893333 0 42.666667-18.773333 42.666666-42.666667V372.053333c0-13.653333 11.946667-25.6 25.6-25.6s25.6 11.946667 25.6 25.6v523.946667c0 51.2-42.666667 93.866667-93.866666 93.866667z"  /><path  d="M716.8 687.786667h-150.186667c-13.653333 0-25.6-11.946667-25.6-25.6v-148.48c0-13.653333 11.946667-25.6 25.6-25.6h73.386667c6.826667 0 11.946667 1.706667 17.066667 6.826666l78.506666 66.56c5.12 5.12 8.533333 11.946667 8.533334 18.773334v81.92c-1.706667 13.653333-13.653333 25.6-27.306667 25.6z m-126.293333-51.2h98.986666v-44.373334l-61.44-52.906666h-37.546666v97.28z"  /><path  d="M564.906667 687.786667H307.2c-13.653333 0-25.6-11.946667-25.6-25.6V489.813333c0-30.72 27.306667-54.613333 59.733333-54.613333h191.146667c32.426667 0 59.733333 25.6 59.733333 54.613333v172.373334c-1.706667 13.653333-11.946667 25.6-27.306666 25.6z m-232.106667-51.2h206.506667v-146.773334c0-1.706667-3.413333-3.413333-8.533334-3.413333H341.333333c-5.12 0-8.533333 3.413333-8.533333 3.413333v146.773334z"  /><path  d="M716.8 785.066667h-69.973333c-13.653333 0-25.6-11.946667-25.6-25.6S631.466667 733.866667 646.826667 733.866667h44.373333v-46.08h-358.4V733.866667H375.466667c13.653333 0 25.6 11.946667 25.6 25.6S389.12 785.066667 375.466667 785.066667h-68.266667c-13.653333 0-25.6-11.946667-25.6-25.6v-97.28c0-13.653333 11.946667-25.6 25.6-25.6h409.6c13.653333 0 25.6 11.946667 25.6 25.6v97.28c0 13.653333-11.946667 25.6-25.6 25.6z"  /><path  d="M568.32 785.066667h-114.346667c-13.653333 0-25.6-11.946667-25.6-25.6s11.946667-25.6 25.6-25.6h114.346667c13.653333 0 25.6 11.946667 25.6 25.6s-11.946667 25.6-25.6 25.6z"  /><path  d="M413.013333 827.733333c-34.133333 0-63.146667-27.306667-63.146666-63.146666 0-34.133333 27.306667-63.146667 63.146666-63.146667 34.133333 0 63.146667 27.306667 63.146667 63.146667s-29.013333 63.146667-63.146667 63.146666z m0-75.093333c-6.826667 0-11.946667 5.12-11.946666 11.946667s5.12 11.946667 11.946666 11.946666 11.946667-5.12 11.946667-11.946666-5.12-11.946667-11.946667-11.946667zM609.28 827.733333c-34.133333 0-63.146667-27.306667-63.146667-63.146666 0-34.133333 27.306667-63.146667 63.146667-63.146667 34.133333 0 63.146667 27.306667 63.146667 63.146667s-29.013333 63.146667-63.146667 63.146666z m0-75.093333c-6.826667 0-11.946667 5.12-11.946667 11.946667s5.12 11.946667 11.946667 11.946666 11.946667-5.12 11.946667-11.946666-5.12-11.946667-11.946667-11.946667z"  /><path  d="M897.706667 254.293333h-170.666667c-13.653333 0-25.6-11.946667-25.6-25.6s11.946667-25.6 25.6-25.6h170.666667c13.653333 0 25.6 11.946667 25.6 25.6s-10.24 25.6-25.6 25.6z"  /><path  d="M812.373333 339.626667c-13.653333 0-25.6-11.946667-25.6-25.6v-170.666667c0-13.653333 11.946667-25.6 25.6-25.6s25.6 11.946667 25.6 25.6v170.666667c0 15.36-10.24 25.6-25.6 25.6z"  /><path  d="M812.373333 424.96c-107.52 0-194.56-87.04-194.56-194.56S704.853333 34.133333 812.373333 34.133333 1006.933333 121.173333 1006.933333 228.693333s-87.04 196.266667-194.56 196.266667z m0-339.626667c-80.213333 0-143.36 64.853333-143.36 143.36s64.853333 143.36 143.36 143.36S955.733333 307.2 955.733333 228.693333 892.586667 85.333333 812.373333 85.333333z"  /></svg>