<?xml version="1.0" standalone="no"?><!DOCTYPE svg PUBLIC "-//W3C//DTD SVG 1.1//EN" "http://www.w3.org/Graphics/SVG/1.1/DTD/svg11.dtd"><svg class="icon" width="64px" height="64.00px" viewBox="0 0 1024 1024" version="1.1" xmlns="http://www.w3.org/2000/svg"><path  d="M832.853333 947.2c-49.493333 0-90.453333-40.96-90.453333-90.453333s40.96-90.453333 90.453333-90.453334 90.453333 40.96 90.453334 90.453334-42.666667 90.453333-90.453334 90.453333z m0-128c-20.48 0-39.253333 17.066667-39.253333 39.253333s17.066667 39.253333 39.253333 39.253334 39.253333-17.066667 39.253334-39.253334S853.333333 819.2 832.853333 819.2zM406.186667 947.2c-49.493333 0-90.453333-40.96-90.453334-90.453333s40.96-90.453333 90.453334-90.453334 90.453333 40.96 90.453333 90.453334-42.666667 90.453333-90.453333 90.453333z m0-128c-20.48 0-39.253333 17.066667-39.253334 39.253333s17.066667 39.253333 39.253334 39.253334 39.253333-17.066667 39.253333-39.253334S426.666667 819.2 406.186667 819.2zM662.186667 648.533333c-1.706667 0-1.706667 0 0 0H298.666667c-11.946667 0-22.186667-8.533333-25.6-20.48l-85.333334-435.2c-1.706667-6.826667 0-15.36 5.12-20.48 5.12-5.12 11.946667-8.533333 20.48-8.533333H938.666667c6.826667 0 15.36 3.413333 20.48 8.533333 5.12 5.12 6.826667 13.653333 5.12 20.48l-85.333334 435.2c-3.413333 11.946667-13.653333 20.48-25.6 20.48H662.186667z m27.306666-51.2h143.36l75.093334-384H727.04L689.493333 597.333333z m-175.786666 0h122.88l37.546666-384h-187.733333L513.706667 597.333333z m-194.56 0h143.36l-29.013334-384H244.053333L319.146667 597.333333z"  /><path  d="M213.333333 213.333333c-11.946667 0-22.186667-8.533333-25.6-18.773333 0 0-17.066667-66.56-102.4-66.56-13.653333 0-25.6-11.946667-25.6-25.6S71.68 76.8 85.333333 76.8c100.693333 0 143.36 68.266667 153.6 104.106667 3.413333 13.653333-5.12 27.306667-18.773333 30.72-3.413333 1.706667-5.12 1.706667-6.826667 1.706666zM832.853333 819.2H223.573333c-104.106667 0-141.653333-58.026667-141.653333-110.933333S117.76 597.333333 223.573333 597.333333H853.333333c13.653333 0 25.6 11.946667 25.6 25.6S866.986667 648.533333 853.333333 648.533333H223.573333c-34.133333 0-90.453333 8.533333-90.453333 59.733334s56.32 59.733333 90.453333 59.733333h609.28c13.653333 0 25.6 11.946667 25.6 25.6s-11.946667 25.6-25.6 25.6z"  /></svg>