<?xml version="1.0" standalone="no"?><!DOCTYPE svg PUBLIC "-//W3C//DTD SVG 1.1//EN" "http://www.w3.org/Graphics/SVG/1.1/DTD/svg11.dtd"><svg class="icon" width="64px" height="64.00px" viewBox="0 0 1024 1024" version="1.1" xmlns="http://www.w3.org/2000/svg"><path  d="M817.493333 737.28H238.933333c-11.946667 0-22.186667-6.826667-23.893333-18.773333l-167.253333-597.333334c-3.413333-13.653333 3.413333-27.306667 17.066666-30.72 13.653333-3.413333 27.306667 3.413333 30.72 17.066667l29.013334 100.693333h827.733333c8.533333 0 15.36 3.413333 20.48 10.24 5.12 6.826667 6.826667 15.36 3.413333 22.186667l-133.12 477.866667c-3.413333 11.946667-13.653333 18.773333-25.6 18.773333z m-559.786666-51.2h541.013333l119.466667-426.666667H139.946667l117.76 426.666667z"  /><path  d="M512 573.44c-13.653333 0-25.6-11.946667-25.6-25.6v-58.026667h-58.026667c-13.653333 0-25.6-11.946667-25.6-25.6s11.946667-25.6 25.6-25.6h58.026667v-58.026666c0-13.653333 11.946667-25.6 25.6-25.6s25.6 11.946667 25.6 25.6v58.026666h58.026667c13.653333 0 25.6 11.946667 25.6 25.6s-11.946667 25.6-25.6 25.6h-58.026667v58.026667c0 15.36-11.946667 25.6-25.6 25.6zM375.466667 909.653333c-51.2 0-93.866667-42.666667-93.866667-93.866666 0-13.653333 11.946667-25.6 25.6-25.6s25.6 11.946667 25.6 25.6c0 23.893333 18.773333 42.666667 42.666667 42.666666s42.666667-18.773333 42.666666-42.666666c0-13.653333 11.946667-25.6 25.6-25.6s25.6 11.946667 25.6 25.6c0 51.2-42.666667 93.866667-93.866666 93.866666zM648.533333 909.653333c-51.2 0-93.866667-42.666667-93.866666-93.866666 0-13.653333 11.946667-25.6 25.6-25.6s25.6 11.946667 25.6 25.6c0 23.893333 18.773333 42.666667 42.666666 42.666666s42.666667-18.773333 42.666667-42.666666c0-13.653333 11.946667-25.6 25.6-25.6s25.6 11.946667 25.6 25.6c0 51.2-42.666667 93.866667-93.866667 93.866666z"  /></svg>