<?xml version="1.0" standalone="no"?><!DOCTYPE svg PUBLIC "-//W3C//DTD SVG 1.1//EN" "http://www.w3.org/Graphics/SVG/1.1/DTD/svg11.dtd"><svg class="icon" width="64px" height="64.00px" viewBox="0 0 1024 1024" version="1.1" xmlns="http://www.w3.org/2000/svg"><path  d="M805.205333 535.893333a25.6 25.6 0 0 0-25.6 25.6V836.266667a25.770667 25.770667 0 0 1-25.941333 25.429333h-155.477333v-154.794667A75.434667 75.434667 0 0 0 522.410667 631.466667h-54.954667A75.434667 75.434667 0 0 0 392.533333 706.901333v154.965334h-156.501333a25.429333 25.429333 0 0 1-25.770667-25.6V561.493333a25.6 25.6 0 0 0-51.2 0V836.266667a76.8 76.8 0 0 0 76.970667 76.288h517.632A77.141333 77.141333 0 0 0 830.805333 836.266667V561.493333a25.6 25.6 0 0 0-25.6-25.6zM546.986667 861.866667H443.733333v-154.965334A24.405333 24.405333 0 0 1 467.456 682.666667h54.954667a24.405333 24.405333 0 0 1 24.576 23.893333zM802.986667 144.896a76.8 76.8 0 0 0-64-34.133333H251.392a77.653333 77.653333 0 0 0-64.682667 34.133333L42.496 358.4v8.192a144.384 144.384 0 0 0 144.042667 140.117333h4.437333a149.674667 149.674667 0 0 0 100.693333-38.741333 173.909333 173.909333 0 0 0 13.653334 10.922667A152.234667 152.234667 0 0 0 494.933333 468.309333a126.805333 126.805333 0 0 0 13.824 11.093334 152.234667 152.234667 0 0 0 189.269334-10.922667 148.821333 148.821333 0 0 0 100.010666 38.741333H802.133333a144.554667 144.554667 0 0 0 144.725334-140.117333V358.4zM802.133333 456.192h-2.048a99.498667 99.498667 0 0 1-80.725333-40.789333l-20.650667-28.842667-20.821333 28.842667a100.352 100.352 0 0 1-161.792 0L494.933333 386.730667l-20.650666 28.501333a100.352 100.352 0 0 1-161.792 0l-20.821334-28.842667-20.650666 28.842667a98.816 98.816 0 0 1-80.725334 40.96 17.066667 17.066667 0 0 0-2.901333 0 93.354667 93.354667 0 0 1-93.013333-82.432l134.826666-200.021333a26.794667 26.794667 0 0 1 22.186667-11.605334H738.986667a25.941333 25.941333 0 0 1 21.504 11.264l134.997333 200.362667A93.525333 93.525333 0 0 1 802.133333 456.192z"  /></svg>