<?xml version="1.0" standalone="no"?><!DOCTYPE svg PUBLIC "-//W3C//DTD SVG 1.1//EN" "http://www.w3.org/Graphics/SVG/1.1/DTD/svg11.dtd"><svg class="icon" width="64px" height="64.00px" viewBox="0 0 1024 1024" version="1.1" xmlns="http://www.w3.org/2000/svg"><path  d="M890.197333 613.376a105.301333 105.301333 0 0 1 21.674667-31.061333C928.426667 563.2 947.2 540.842667 947.2 512s-18.773333-51.2-35.328-70.314667a105.301333 105.301333 0 0 1-21.674667-31.061333 111.786667 111.786667 0 0 1 3.072-39.594667c4.437333-24.576 9.557333-52.565333-4.266666-76.629333s-41.130667-34.133333-65.024-42.496a107.178667 107.178667 0 0 1-35.157334-17.066667 107.178667 107.178667 0 0 1-17.066666-35.157333c-8.362667-23.893333-18.090667-51.2-42.496-64.853333s-51.2-8.874667-76.629334-4.437334a111.786667 111.786667 0 0 1-39.594666 3.072 105.301333 105.301333 0 0 1-31.061334-21.674666C563.2 95.573333 540.842667 76.8 512 76.8s-51.2 18.773333-70.314667 35.328a105.301333 105.301333 0 0 1-31.061333 21.674667 111.786667 111.786667 0 0 1-39.594667-3.072c-24.576-4.437333-52.565333-9.557333-76.629333 4.266666s-34.133333 41.130667-42.496 65.024a107.178667 107.178667 0 0 1-17.066667 35.157334 107.178667 107.178667 0 0 1-35.157333 17.066666c-23.893333 8.362667-51.2 18.090667-64.853333 42.496s-8.874667 51.2-4.437334 76.629334a111.786667 111.786667 0 0 1 3.072 39.594666 105.301333 105.301333 0 0 1-21.674666 31.061334C95.573333 460.8 76.8 483.157333 76.8 512s18.773333 51.2 35.328 70.314667a105.301333 105.301333 0 0 1 21.674667 31.061333 111.786667 111.786667 0 0 1-3.072 39.594667c-4.437333 24.576-9.557333 52.565333 4.266666 76.629333s41.130667 34.133333 65.024 42.496a107.178667 107.178667 0 0 1 35.157334 17.066667 107.178667 107.178667 0 0 1 17.066666 35.157333c8.362667 23.893333 18.090667 51.2 42.496 64.853333s51.2 8.874667 76.629334 4.437334a111.786667 111.786667 0 0 1 39.594666-3.072 105.301333 105.301333 0 0 1 31.061334 21.674666c18.773333 16.213333 41.130667 34.986667 69.973333 34.986667s51.2-18.773333 70.314667-35.328a105.301333 105.301333 0 0 1 31.061333-21.674667 111.786667 111.786667 0 0 1 39.594667 3.072c24.576 4.437333 52.565333 9.557333 76.629333-4.266666s34.133333-41.130667 42.496-65.024a107.178667 107.178667 0 0 1 17.066667-35.157334 107.178667 107.178667 0 0 1 35.157333-17.066666c23.893333-8.362667 51.2-18.090667 64.853333-42.496s8.874667-51.2 4.437334-76.629334a111.786667 111.786667 0 0 1-3.072-39.594666z m-17.066666-64.341333a136.533333 136.533333 0 0 0-31.914667 51.2 140.970667 140.970667 0 0 0 2.048 62.122666 82.773333 82.773333 0 0 1 1.706667 41.813334c-4.778667 8.192-22.357333 14.336-37.717334 19.797333a140.117333 140.117333 0 0 0-54.613333 28.672 140.117333 140.117333 0 0 0-28.842667 54.272c-5.461333 15.530667-11.605333 32.938667-19.797333 37.717333a83.456 83.456 0 0 1-41.984-1.706666 141.994667 141.994667 0 0 0-61.781333-2.048 134.997333 134.997333 0 0 0-51.2 31.914666c-12.8 10.922667-27.136 23.210667-37.034667 23.210667s-24.234667-12.288-37.034667-23.210667a136.533333 136.533333 0 0 0-51.2-31.914666 82.261333 82.261333 0 0 0-22.186666-2.730667 216.576 216.576 0 0 0-39.936 4.778667 82.773333 82.773333 0 0 1-41.813334 1.706666c-8.192-4.778667-14.336-22.357333-19.797333-37.717333a140.117333 140.117333 0 0 0-28.672-54.272 140.117333 140.117333 0 0 0-54.272-28.842667c-15.530667-5.461333-32.938667-11.605333-37.717333-19.797333a83.456 83.456 0 0 1 1.706666-41.984 141.994667 141.994667 0 0 0 2.048-61.781333 134.997333 134.997333 0 0 0-31.914666-51.2C140.288 536.234667 128 521.898667 128 512s12.288-24.234667 23.210667-37.034667a136.533333 136.533333 0 0 0 31.914666-51.2 140.970667 140.970667 0 0 0-2.048-62.122666 82.773333 82.773333 0 0 1-1.706666-41.813334c4.778667-8.192 22.357333-14.336 37.717333-19.797333a140.117333 140.117333 0 0 0 54.272-28.672 140.117333 140.117333 0 0 0 28.842667-54.272c5.461333-15.530667 11.605333-32.938667 19.797333-37.717333a83.456 83.456 0 0 1 41.984 1.706666 141.994667 141.994667 0 0 0 61.781333 2.048 134.997333 134.997333 0 0 0 51.2-31.914666c12.8-10.922667 27.136-23.210667 37.034667-23.210667s24.234667 12.288 37.034667 23.210667a136.533333 136.533333 0 0 0 51.2 31.914666 143.530667 143.530667 0 0 0 62.122666-2.048 82.773333 82.773333 0 0 1 41.813334-1.706666c8.192 4.778667 14.336 22.357333 19.797333 37.717333a140.117333 140.117333 0 0 0 28.672 54.272 140.117333 140.117333 0 0 0 54.272 28.842667c15.530667 5.461333 32.938667 11.605333 37.717333 19.797333a83.456 83.456 0 0 1-1.706666 41.984 141.994667 141.994667 0 0 0-2.048 61.781333 134.997333 134.997333 0 0 0 31.914666 51.2c10.922667 12.8 23.210667 27.136 23.210667 37.034667s-12.288 24.234667-23.210667 37.034667z"  /><path  d="M468.650667 422.912a93.866667 93.866667 0 1 0-93.866667 93.866667 93.866667 93.866667 0 0 0 93.866667-93.866667zM375.466667 465.578667a42.666667 42.666667 0 1 1 42.666666-42.666667 42.837333 42.837333 0 0 1-42.666666 42.666667zM648.533333 507.221333a93.866667 93.866667 0 1 0 93.866667 93.866667 94.037333 94.037333 0 0 0-93.866667-93.866667z m0 136.533334a42.666667 42.666667 0 1 1 42.666667-42.666667 42.666667 42.666667 0 0 1-42.666667 42.666667zM634.026667 333.994667a25.6 25.6 0 0 0-35.669334 5.802666L384 638.464a25.429333 25.429333 0 0 0 5.973333 35.669333 25.6 25.6 0 0 0 35.669334-5.802666l214.357333-298.666667a25.429333 25.429333 0 0 0-5.973333-35.669333z"  /></svg>