<?xml version="1.0" standalone="no"?><!DOCTYPE svg PUBLIC "-//W3C//DTD SVG 1.1//EN" "http://www.w3.org/Graphics/SVG/1.1/DTD/svg11.dtd"><svg class="icon" width="64px" height="64.00px" viewBox="0 0 1024 1024" version="1.1" xmlns="http://www.w3.org/2000/svg"><path  d="M512 583.68c-5.12 0-10.24-1.706667-13.653333-3.413333L213.333333 397.653333c-8.533333-5.12-11.946667-11.946667-11.946666-22.186666s5.12-17.066667 11.946666-22.186667l285.013334-180.906667c8.533333-5.12 18.773333-5.12 27.306666 0l285.013334 180.906667c6.826667 5.12 11.946667 13.653333 11.946666 22.186667s-5.12 17.066667-11.946666 22.186666L525.653333 578.56c-3.413333 3.413333-8.533333 5.12-13.653333 5.12zM274.773333 375.466667L512 527.36 749.226667 375.466667 512 225.28 274.773333 375.466667z"  /><path  d="M797.013333 401.066667c-5.12 0-10.24-1.706667-13.653333-3.413334L498.346667 216.746667c-6.826667-3.413333-10.24-11.946667-11.946667-18.773334 0-8.533333 1.706667-15.36 8.533333-20.48l143.36-134.826666c8.533333-8.533333 20.48-8.533333 30.72-3.413334l261.12 158.72c6.826667 3.413333 10.24 10.24 11.946667 17.066667 1.706667 6.826667 0 13.653333-5.12 20.48l-119.466667 158.72c-5.12 3.413333-11.946667 6.826667-20.48 6.826667zM552.96 191.146667l238.933333 150.186666 87.04-116.053333-220.16-133.12-105.813333 98.986667z"  /><path  d="M226.986667 401.066667c-8.533333 0-15.36-3.413333-20.48-10.24l-119.466667-158.72c-5.12-5.12-6.826667-13.653333-5.12-20.48s5.12-13.653333 11.946667-17.066667l261.12-158.72c10.24-6.826667 22.186667-5.12 30.72 3.413333l143.36 134.826667c5.12 5.12 8.533333 13.653333 8.533333 20.48 0 8.533333-5.12 15.36-11.946667 18.773333L240.64 397.653333c-5.12 3.413333-10.24 3.413333-13.653333 3.413334zM145.066667 225.28l87.04 116.053333 237.226666-150.186666-104.106666-98.986667-220.16 133.12zM679.253333 696.32c-5.12 0-10.24-1.706667-13.653333-5.12l-167.253333-112.64c-6.826667-5.12-11.946667-13.653333-11.946667-22.186667s5.12-17.066667 11.946667-20.48l285.013333-180.906666c8.533333-5.12 17.066667-5.12 25.6-1.706667l167.253333 90.453333c8.533333 3.413333 13.653333 11.946667 13.653334 20.48s-3.413333 17.066667-10.24 22.186667l-286.72 204.8c-3.413333 3.413333-8.533333 5.12-13.653334 5.12z m-121.173333-138.24l119.466667 81.92 237.226666-168.96-117.76-63.146667-238.933333 150.186667z"  /><path  d="M344.746667 696.32c-5.12 0-10.24-1.706667-15.36-5.12L44.373333 488.106667c-6.826667-5.12-10.24-13.653333-10.24-22.186667s5.12-17.066667 13.653334-20.48l167.253333-90.453333c8.533333-5.12 18.773333-3.413333 25.6 1.706666l285.013333 180.906667c6.826667 5.12 11.946667 11.946667 11.946667 20.48s-3.413333 17.066667-11.946667 22.186667L358.4 692.906667c-3.413333 1.706667-8.533333 3.413333-13.653333 3.413333zM107.52 469.333333l237.226667 168.96 119.466666-81.92-240.64-151.893333-116.053333 64.853333z"  /><path  d="M512 989.866667c-5.12 0-8.533333-1.706667-11.946667-3.413334l-285.013333-158.72c-8.533333-5.12-13.653333-13.653333-13.653333-22.186666V602.453333c0-13.653333 11.946667-25.6 25.6-25.6s25.6 11.946667 25.6 25.6v187.733334L512 935.253333l259.413333-143.36v-187.733333c0-13.653333 11.946667-25.6 25.6-25.6s25.6 11.946667 25.6 25.6v203.093333c0 8.533333-5.12 17.066667-13.653333 22.186667l-285.013333 158.72c-3.413333 0-6.826667 1.706667-11.946667 1.706667z"  /></svg>