<?xml version="1.0" standalone="no"?><!DOCTYPE svg PUBLIC "-//W3C//DTD SVG 1.1//EN" "http://www.w3.org/Graphics/SVG/1.1/DTD/svg11.dtd"><svg class="icon" width="64px" height="64.00px" viewBox="0 0 1024 1024" version="1.1" xmlns="http://www.w3.org/2000/svg"><path  d="M192.853333 856.746667c-6.826667 0-13.653333-1.706667-18.773333-6.826667C83.626667 759.466667 34.133333 640 34.133333 512s49.493333-247.466667 139.946667-337.92c10.24-10.24 25.6-10.24 35.84 0s10.24 25.6 0 35.84C129.706667 290.133333 85.333333 397.653333 85.333333 512c0 114.346667 44.373333 221.866667 124.586667 302.08 10.24 10.24 10.24 25.6 0 35.84-5.12 5.12-11.946667 6.826667-17.066667 6.826667zM831.146667 856.746667c-6.826667 0-13.653333-1.706667-18.773334-6.826667-10.24-10.24-10.24-25.6 0-35.84C894.293333 733.866667 938.666667 626.346667 938.666667 512c0-114.346667-44.373333-221.866667-124.586667-302.08-10.24-10.24-10.24-25.6 0-35.84s25.6-10.24 35.84 0C940.373333 264.533333 989.866667 384 989.866667 512s-49.493333 247.466667-139.946667 337.92c-5.12 5.12-11.946667 6.826667-18.773333 6.826667z"  /><path  d="M735.573333 761.173333c-6.826667 0-13.653333-1.706667-18.773333-6.826666-10.24-10.24-10.24-25.6 0-35.84 54.613333-54.613333 85.333333-128 85.333333-206.506667s-30.72-150.186667-85.333333-206.506667c-10.24-10.24-10.24-25.6 0-35.84 10.24-10.24 25.6-10.24 35.84 0C819.2 334.506667 853.333333 419.84 853.333333 512c0 92.16-35.84 177.493333-100.693333 242.346667-3.413333 5.12-10.24 6.826667-17.066667 6.826666zM288.426667 761.173333c-6.826667 0-13.653333-1.706667-18.773334-6.826666C204.8 689.493333 170.666667 604.16 170.666667 512c0-92.16 35.84-177.493333 100.693333-242.346667 10.24-10.24 25.6-10.24 35.84 0 10.24 10.24 10.24 25.6 0 35.84-54.613333 54.613333-85.333333 128-85.333333 206.506667s30.72 150.186667 85.333333 206.506667c10.24 10.24 10.24 25.6 0 35.84-5.12 5.12-11.946667 6.826667-18.773333 6.826666zM512 718.506667c-5.12 0-8.533333-1.706667-13.653333-3.413334-30.72-18.773333-56.32-37.546667-75.093334-58.026666l-5.12-5.12c-32.426667-30.72-88.746667-83.626667-88.746666-148.48 0-59.733333 49.493333-107.52 112.64-107.52 27.306667 0 51.2 8.533333 71.68 25.6 20.48-15.36 46.08-25.6 71.68-25.6 61.44 0 112.64 47.786667 112.64 107.52 0 13.653333-11.946667 25.6-25.6 25.6s-25.6-11.946667-25.6-25.6c0-30.72-27.306667-56.32-61.44-56.32-20.48 0-39.253333 10.24-51.2 25.6-10.24 13.653333-32.426667 13.653333-42.666667 0-11.946667-15.36-30.72-25.6-51.2-25.6-34.133333 0-61.44 25.6-61.44 56.32 0 44.373333 46.08 87.04 73.386667 112.64l5.12 5.12c17.066667 17.066667 40.96 34.133333 68.266666 51.2 11.946667 6.826667 15.36 23.893333 8.533334 35.84-5.12 6.826667-13.653333 10.24-22.186667 10.24z"  /><path  d="M617.813333 698.026667c-13.653333 0-25.6-11.946667-25.6-25.6v-121.173334c0-13.653333 11.946667-25.6 25.6-25.6s25.6 11.946667 25.6 25.6v121.173334c0 15.36-10.24 25.6-25.6 25.6z"  /><path  d="M679.253333 638.293333h-121.173333c-13.653333 0-25.6-11.946667-25.6-25.6s11.946667-25.6 25.6-25.6h121.173333c13.653333 0 25.6 11.946667 25.6 25.6s-11.946667 25.6-25.6 25.6z"  /></svg>