<?xml version="1.0" standalone="no"?><!DOCTYPE svg PUBLIC "-//W3C//DTD SVG 1.1//EN" "http://www.w3.org/Graphics/SVG/1.1/DTD/svg11.dtd"><svg class="icon" width="64px" height="64.00px" viewBox="0 0 1024 1024" version="1.1" xmlns="http://www.w3.org/2000/svg"><path  d="M394.24 491.52H128c-51.2 0-93.866667-42.666667-93.866667-93.866667V128C34.133333 76.8 76.8 34.133333 128 34.133333h266.24c51.2 0 93.866667 42.666667 93.866667 93.866667v269.653333c0 51.2-40.96 93.866667-93.866667 93.866667zM128 85.333333C104.106667 85.333333 85.333333 104.106667 85.333333 128v269.653333c0 23.893333 18.773333 42.666667 42.666667 42.666667h266.24c23.893333 0 42.666667-18.773333 42.666667-42.666667V128c0-23.893333-18.773333-42.666667-42.666667-42.666667H128zM394.24 989.866667H128c-51.2 0-93.866667-42.666667-93.866667-93.866667V626.346667c0-51.2 42.666667-93.866667 93.866667-93.866667h266.24c51.2 0 93.866667 42.666667 93.866667 93.866667v269.653333c0 51.2-40.96 93.866667-93.866667 93.866667zM128 583.68c-23.893333 0-42.666667 18.773333-42.666667 42.666667v269.653333C85.333333 919.893333 104.106667 938.666667 128 938.666667h266.24c23.893333 0 42.666667-18.773333 42.666667-42.666667V626.346667c0-23.893333-18.773333-42.666667-42.666667-42.666667H128zM762.88 491.52c-124.586667 0-226.986667-102.4-226.986667-226.986667v-3.413333C535.893333 136.533333 636.586667 34.133333 762.88 34.133333 887.466667 34.133333 989.866667 136.533333 989.866667 261.12v3.413333c0 124.586667-102.4 226.986667-226.986667 226.986667z m0-406.186667C665.6 85.333333 587.093333 163.84 587.093333 261.12v3.413333c0 97.28 78.506667 175.786667 175.786667 175.786667 97.28 0 175.786667-78.506667 175.786667-175.786667v-3.413333C938.666667 163.84 860.16 85.333333 762.88 85.333333zM896 989.866667H629.76c-51.2 0-93.866667-42.666667-93.866667-93.866667V626.346667c0-51.2 42.666667-93.866667 93.866667-93.866667h266.24c51.2 0 93.866667 42.666667 93.866667 93.866667v269.653333c0 51.2-42.666667 93.866667-93.866667 93.866667zM629.76 583.68c-23.893333 0-42.666667 18.773333-42.666667 42.666667v269.653333c0 23.893333 18.773333 42.666667 42.666667 42.666667h266.24c23.893333 0 42.666667-18.773333 42.666667-42.666667V626.346667c0-23.893333-18.773333-42.666667-42.666667-42.666667H629.76z"  /></svg>