<?xml version="1.0" standalone="no"?><!DOCTYPE svg PUBLIC "-//W3C//DTD SVG 1.1//EN" "http://www.w3.org/Graphics/SVG/1.1/DTD/svg11.dtd"><svg class="icon" width="64px" height="64.00px" viewBox="0 0 1024 1024" version="1.1" xmlns="http://www.w3.org/2000/svg"><path  d="M827.733333 989.866667h-631.466666c-51.2 0-93.866667-42.666667-93.866667-93.866667v-768C102.4 76.8 145.066667 34.133333 196.266667 34.133333h631.466666c51.2 0 93.866667 42.666667 93.866667 93.866667v768c0 51.2-42.666667 93.866667-93.866667 93.866667z m-631.466666-904.533334C172.373333 85.333333 153.6 104.106667 153.6 128v768c0 23.893333 18.773333 42.666667 42.666667 42.666667h631.466666c23.893333 0 42.666667-18.773333 42.666667-42.666667v-768C870.4 104.106667 851.626667 85.333333 827.733333 85.333333h-631.466666z"  /><path  d="M599.04 484.693333c-6.826667 0-13.653333-1.706667-18.773333-6.826666L406.186667 303.786667c-10.24-10.24-10.24-25.6 0-35.84 10.24-10.24 25.6-10.24 35.84 0l174.08 174.08c10.24 10.24 10.24 25.6 0 35.84-3.413333 5.12-10.24 6.826667-17.066667 6.826666z"  /><path  d="M424.96 484.693333c-6.826667 0-13.653333-1.706667-18.773333-6.826666-10.24-10.24-10.24-25.6 0-35.84L580.266667 267.946667c10.24-10.24 25.6-10.24 35.84 0s10.24 25.6 0 35.84L443.733333 477.866667c-5.12 5.12-11.946667 6.826667-18.773333 6.826666zM718.506667 672.426667H305.493333c-13.653333 0-25.6-11.946667-25.6-25.6s11.946667-25.6 25.6-25.6H716.8c13.653333 0 25.6 11.946667 25.6 25.6s-10.24 25.6-23.893333 25.6z"  /><path  d="M718.506667 808.96H305.493333c-13.653333 0-25.6-11.946667-25.6-25.6s11.946667-25.6 25.6-25.6H716.8c13.653333 0 25.6 11.946667 25.6 25.6s-10.24 25.6-23.893333 25.6z"  /></svg>