<?xml version="1.0" standalone="no"?><!DOCTYPE svg PUBLIC "-//W3C//DTD SVG 1.1//EN" "http://www.w3.org/Graphics/SVG/1.1/DTD/svg11.dtd"><svg class="icon" width="64px" height="64.00px" viewBox="0 0 1024 1024" version="1.1" xmlns="http://www.w3.org/2000/svg"><path  d="M863.573333 989.866667H160.426667C90.453333 989.866667 34.133333 933.546667 34.133333 863.573333v-150.186666c0-69.973333 56.32-126.293333 126.293334-126.293334h703.146666c69.973333 0 126.293333 56.32 126.293334 126.293334v150.186666c0 69.973333-56.32 126.293333-126.293334 126.293334zM160.426667 638.293333c-40.96 0-75.093333 34.133333-75.093334 75.093334v150.186666C85.333333 904.533333 119.466667 938.666667 160.426667 938.666667h703.146666c40.96 0 75.093333-34.133333 75.093334-75.093334v-150.186666c0-40.96-34.133333-75.093333-75.093334-75.093334H160.426667zM411.306667 462.506667H160.426667c-69.973333 0-126.293333-56.32-126.293334-126.293334v-150.186666c0-69.973333 56.32-126.293333 126.293334-126.293334h250.88c13.653333 0 25.6 11.946667 25.6 25.6s-11.946667 25.6-25.6 25.6H160.426667C119.466667 110.933333 85.333333 143.36 85.333333 186.026667v150.186666c0 40.96 34.133333 75.093333 75.093334 75.093334h250.88c13.653333 0 25.6 11.946667 25.6 25.6s-11.946667 25.6-25.6 25.6zM762.88 488.106667c-124.586667 0-226.986667-102.4-226.986667-226.986667S638.293333 34.133333 762.88 34.133333 989.866667 136.533333 989.866667 261.12s-102.4 226.986667-226.986667 226.986667z m0-402.773334C665.6 85.333333 587.093333 163.84 587.093333 261.12S665.6 436.906667 762.88 436.906667 938.666667 356.693333 938.666667 261.12 860.16 85.333333 762.88 85.333333z"  /><path  d="M762.88 261.12m-75.093333 0a75.093333 75.093333 0 1 0 150.186666 0 75.093333 75.093333 0 1 0-150.186666 0Z"  /></svg>