<?xml version="1.0" standalone="no"?><!DOCTYPE svg PUBLIC "-//W3C//DTD SVG 1.1//EN" "http://www.w3.org/Graphics/SVG/1.1/DTD/svg11.dtd"><svg class="icon" width="64px" height="64.00px" viewBox="0 0 1024 1024" version="1.1" xmlns="http://www.w3.org/2000/svg"><path  d="M500.053333 914.773333c-5.12 0-8.533333-1.706667-13.653333-3.413333-81.92-51.2-150.186667-102.4-204.8-153.6l-15.36-13.653333C179.2 662.186667 34.133333 525.653333 34.133333 361.813333 34.133333 221.866667 153.6 109.226667 300.373333 109.226667c76.8 0 150.186667 32.426667 199.68 85.333333 49.493333-54.613333 122.88-85.333333 199.68-85.333333 146.773333 0 266.24 112.64 266.24 252.586666 0 13.653333-11.946667 25.6-25.6 25.6s-25.6-11.946667-25.6-25.6C914.773333 250.88 819.2 160.426667 699.733333 160.426667c-71.68 0-139.946667 34.133333-179.2 90.453333-5.12 6.826667-11.946667 10.24-20.48 10.24s-15.36-3.413333-20.48-10.24c-39.253333-56.32-107.52-90.453333-179.2-90.453333-119.466667 0-215.04 90.453333-215.04 201.386666 0 141.653333 134.826667 267.946667 216.746667 344.746667l15.36 13.653333c51.2 49.493333 117.76 98.986667 196.266667 148.48 11.946667 6.826667 15.36 23.893333 8.533333 35.84-5.12 6.826667-13.653333 10.24-22.186667 10.24z"  /><path  d="M795.306667 860.16c-13.653333 0-25.6-11.946667-25.6-25.6V498.346667c0-13.653333 11.946667-25.6 25.6-25.6s25.6 11.946667 25.6 25.6v336.213333c0 13.653333-10.24 25.6-25.6 25.6z"  /><path  d="M964.266667 691.2H628.053333c-13.653333 0-25.6-11.946667-25.6-25.6s11.946667-25.6 25.6-25.6h336.213334c13.653333 0 25.6 11.946667 25.6 25.6s-11.946667 25.6-25.6 25.6z"  /></svg>