<?xml version="1.0" standalone="no"?><!DOCTYPE svg PUBLIC "-//W3C//DTD SVG 1.1//EN" "http://www.w3.org/Graphics/SVG/1.1/DTD/svg11.dtd"><svg class="icon" width="64px" height="64.00px" viewBox="0 0 1024 1024" version="1.1" xmlns="http://www.w3.org/2000/svg"><path  d="M805.546667 989.866667H218.453333c-51.2 0-93.866667-42.666667-93.866666-93.866667v-768c0-51.2 42.666667-93.866667 93.866666-93.866667h452.266667c6.826667 0 13.653333 3.413333 18.773333 8.533334l203.093334 225.28c3.413333 5.12 6.826667 10.24 6.826666 17.066666v610.986667c0 51.2-42.666667 93.866667-93.866666 93.866667zM218.453333 85.333333c-23.893333 0-42.666667 18.773333-42.666666 42.666667v768c0 23.893333 18.773333 42.666667 42.666666 42.666667h587.093334c23.893333 0 42.666667-18.773333 42.666666-42.666667V295.253333L658.773333 85.333333H218.453333z"  /><path  d="M648.533333 764.586667c-6.826667 0-13.653333-1.706667-18.773333-6.826667L358.4 484.693333c-10.24-10.24-10.24-25.6 0-35.84s25.6-10.24 35.84 0L665.6 720.213333c10.24 10.24 10.24 25.6 0 35.84-5.12 5.12-11.946667 8.533333-17.066667 8.533334z"  /><path  d="M375.466667 764.586667c-6.826667 0-13.653333-1.706667-18.773334-6.826667-10.24-10.24-10.24-25.6 0-35.84l271.36-271.36c10.24-10.24 25.6-10.24 35.84 0s10.24 25.6 0 35.84L394.24 756.053333c-5.12 5.12-11.946667 8.533333-18.773333 8.533334zM873.813333 312.32H648.533333c-13.653333 0-25.6-11.946667-25.6-25.6V59.733333c0-13.653333 10.24-25.6 25.6-25.6s25.6 11.946667 25.6 25.6v201.386667h201.386667c13.653333 0 25.6 11.946667 25.6 25.6s-13.653333 25.6-27.306667 25.6z"  /></svg>