<?xml version="1.0" standalone="no"?><!DOCTYPE svg PUBLIC "-//W3C//DTD SVG 1.1//EN" "http://www.w3.org/Graphics/SVG/1.1/DTD/svg11.dtd"><svg class="icon" width="64px" height="64.00px" viewBox="0 0 1024 1024" version="1.1" xmlns="http://www.w3.org/2000/svg"><path  d="M358.4 889.173333c-40.96 0-75.093333-34.133333-76.8-75.093333v-39.253333l-8.533333-3.413334s-1.706667 0-1.706667-1.706666c-5.12-3.413333-11.946667-6.826667-17.066667-10.24-13.653333-6.826667-27.306667-13.653333-40.96-25.6l-5.12-3.413334-34.133333 20.48c-17.066667 10.24-37.546667 13.653333-58.026667 8.533334-20.48-5.12-35.84-17.066667-46.08-35.84l-23.893333-42.666667c-20.48-35.84-8.533333-81.92 27.306667-104.106667l35.84-20.48v-5.12c-6.826667-13.653333-6.826667-25.6-6.826667-37.546666 0-5.12 1.706667-11.946667 1.706667-17.066667 0-5.12 1.706667-10.24 1.706666-13.653333v-3.413334l1.706667-8.533333-34.133333-20.48c-17.066667-10.24-30.72-27.306667-35.84-46.08-5.12-20.48-1.706667-40.96 8.533333-58.026667L68.266667 307.2c20.48-35.84 66.56-47.786667 104.106666-27.306667l35.84 20.48 5.12-3.413333c20.48-17.066667 40.96-29.013333 61.44-37.546667l6.826667-3.413333v-42.666667c0-42.666667 34.133333-76.8 75.093333-76.8h47.786667c18.773333 0 39.253333 8.533333 54.613333 22.186667 13.653333 13.653333 22.186667 34.133333 22.186667 52.906667v42.666666l8.533333 3.413334s1.706667 0 1.706667 1.706666c5.12 3.413333 11.946667 6.826667 17.066667 10.24 13.653333 6.826667 27.306667 13.653333 40.96 25.6l5.12 3.413334 34.133333-20.48c35.84-22.186667 81.92-10.24 104.106667 27.306666l23.893333 39.253334c10.24 17.066667 13.653333 37.546667 8.533333 58.026666-5.12 20.48-17.066667 35.84-34.133333 46.08L641.706667 477.866667c-11.946667 6.826667-27.306667 3.413333-35.84-8.533334-6.826667-11.946667-3.413333-27.306667 8.533333-35.84l49.493333-29.013333c5.12-3.413333 10.24-8.533333 11.946667-15.36 1.706667-6.826667 0-13.653333-3.413333-18.773333L648.533333 329.386667c-6.826667-11.946667-22.186667-15.36-34.133333-8.533334l-49.493333 29.013334c-8.533333 5.12-20.48 5.12-29.013334-1.706667l-18.773333-15.36c-10.24-8.533333-22.186667-13.653333-34.133333-20.48-6.826667-3.413333-11.946667-6.826667-18.773334-10.24l-20.48-10.24c-8.533333-5.12-13.653333-13.653333-13.653333-22.186667v-58.026666c0-6.826667-3.413333-13.653333-6.826667-17.066667-5.12-5.12-10.24-6.826667-17.066666-6.826667H358.4c-6.826667 0-13.653333 3.413333-17.066667 6.826667-5.12 5.12-6.826667 10.24-6.826666 17.066667v58.026666c0 10.24-5.12 18.773333-13.653334 22.186667l-22.186666 11.946667s-1.706667 0-1.706667 1.706666c-15.36 6.826667-32.426667 17.066667-49.493333 30.72l-18.773334 15.36c-8.533333 6.826667-18.773333 6.826667-29.013333 1.706667l-51.2-29.013333c-11.946667-6.826667-27.306667-3.413333-34.133333 8.533333l-23.893334 39.253333c-5.12 6.826667-6.826667 13.653333-3.413333 20.48 1.706667 6.826667 5.12 11.946667 11.946667 15.36l49.493333 27.306667c8.533333 5.12 13.653333 15.36 13.653333 25.6l-3.413333 23.893333c0 8.533333-1.706667 15.36-1.706667 20.48-3.413333 3.413333-3.413333 6.826667-3.413333 8.533334 0 5.12 0 15.36 1.706667 18.773333 1.706667 1.706667 1.706667 5.12 1.706666 6.826667l3.413334 25.6c1.706667 10.24-3.413333 20.48-11.946667 25.6l-49.493333 29.013333c-11.946667 6.826667-15.36 22.186667-8.533334 34.133333l23.893334 42.666667c3.413333 5.12 8.533333 10.24 15.36 11.946667 6.826667 1.706667 13.653333 0 18.773333-3.413334l49.493333-29.013333c8.533333-5.12 20.48-5.12 29.013334 1.706667l18.773333 15.36c10.24 8.533333 22.186667 13.653333 34.133333 20.48 6.826667 3.413333 11.946667 6.826667 18.773334 10.24l22.186666 10.24c8.533333 5.12 13.653333 13.653333 13.653334 22.186666v54.613334c0 6.826667 3.413333 13.653333 6.826666 17.066666 5.12 5.12 10.24 6.826667 17.066667 6.826667h47.786667c6.826667 0 13.653333-3.413333 17.066666-6.826667 5.12-5.12 6.826667-10.24 6.826667-17.066666v-58.026667c0-10.24 5.12-18.773333 13.653333-22.186667l22.186667-11.946666s1.706667 0 1.706667-1.706667c15.36-6.826667 32.426667-17.066667 49.493333-30.72 10.24-8.533333 27.306667-6.826667 35.84 3.413333 8.533333 10.24 6.826667 27.306667-3.413333 35.84-20.48 17.066667-40.96 29.013333-61.44 37.546667l-6.826667 3.413333v42.666667c0 20.48-8.533333 39.253333-22.186667 54.613333-13.653333 13.653333-34.133333 22.186667-52.906666 22.186667l-47.786667 3.413333z"  /><path  d="M380.586667 680.96c-92.16 0-168.96-75.093333-168.96-167.253333 0-44.373333 17.066667-87.04 49.493333-119.466667 32.426667-32.426667 73.386667-49.493333 119.466667-49.493333 44.373333 0 87.04 17.066667 119.466666 49.493333 32.426667 32.426667 49.493333 73.386667 49.493334 119.466667 1.706667 90.453333-75.093333 167.253333-168.96 167.253333 1.706667 0 1.706667 0 0 0z m0-286.72c-30.72 0-61.44 11.946667-83.626667 35.84-22.186667 22.186667-34.133333 51.2-34.133333 83.626667 0 64.853333 52.906667 116.053333 117.76 117.76 30.72 0 61.44-11.946667 83.626666-35.84 22.186667-22.186667 34.133333-51.2 34.133334-83.626667 0-30.72-11.946667-61.44-35.84-83.626667-20.48-22.186667-51.2-34.133333-81.92-34.133333z m0-25.6z"  /><path  d="M964.266667 578.56h-341.333334c-13.653333 0-25.6-11.946667-25.6-25.6s11.946667-25.6 25.6-25.6h341.333334c13.653333 0 25.6 11.946667 25.6 25.6s-11.946667 25.6-25.6 25.6zM964.266667 733.866667h-341.333334c-13.653333 0-25.6-11.946667-25.6-25.6s11.946667-25.6 25.6-25.6h341.333334c13.653333 0 25.6 11.946667 25.6 25.6s-11.946667 25.6-25.6 25.6zM964.266667 889.173333h-341.333334c-13.653333 0-25.6-11.946667-25.6-25.6s11.946667-25.6 25.6-25.6h341.333334c13.653333 0 25.6 11.946667 25.6 25.6s-11.946667 25.6-25.6 25.6z"  /></svg>