<?xml version="1.0" standalone="no"?><!DOCTYPE svg PUBLIC "-//W3C//DTD SVG 1.1//EN" "http://www.w3.org/Graphics/SVG/1.1/DTD/svg11.dtd"><svg class="icon" width="64px" height="64.00px" viewBox="0 0 1024 1024" version="1.1" xmlns="http://www.w3.org/2000/svg"><path  d="M502.272 424.277333A185.685333 185.685333 0 1 1 687.957333 238.933333a186.026667 186.026667 0 0 1-185.685333 185.344z m0-320.170666a134.485333 134.485333 0 1 0 134.485333 134.826666 134.826667 134.826667 0 0 0-134.485333-134.826666zM44.885333 950.272a25.6 25.6 0 0 1-25.6-25.6c0-215.893333 196.096-391.509333 437.248-391.509333a25.6 25.6 0 0 1 0 51.2c-212.992 0-386.048 152.746667-386.048 340.309333a25.6 25.6 0 0 1-25.6 25.6zM717.994667 916.138667c-92.842667 0-177.322667-45.738667-251.221334-136.533334a25.770667 25.770667 0 0 1 0-32.426666c73.898667-89.941333 158.378667-135.509333 251.221334-135.509334s177.322667 45.568 251.050666 135.509334a25.258667 25.258667 0 0 1 0 32.426666c-73.728 90.794667-158.208 136.533333-251.050666 136.533334z m-197.802667-151.893334c60.586667 68.266667 125.44 100.693333 197.802667 100.693334s136.533333-32.938667 197.632-100.693334c-60.586667-68.266667-125.44-100.522667-197.632-100.522666S580.266667 696.661333 520.192 764.245333z"  /><path  d="M717.994667 827.392a63.146667 63.146667 0 1 0-63.146667-63.146667 63.146667 63.146667 0 0 0 63.146667 63.146667z"  /></svg>