<?xml version="1.0" standalone="no"?><!DOCTYPE svg PUBLIC "-//W3C//DTD SVG 1.1//EN" "http://www.w3.org/Graphics/SVG/1.1/DTD/svg11.dtd"><svg class="icon" width="64px" height="64.00px" viewBox="0 0 1024 1024" version="1.1" xmlns="http://www.w3.org/2000/svg"><path  d="M896 798.72h-768c-51.2 0-93.866667-42.666667-93.866667-93.866667V201.386667c0-51.2 42.666667-93.866667 93.866667-93.866667h768c51.2 0 93.866667 42.666667 93.866667 93.866667v503.466666c0 51.2-42.666667 93.866667-93.866667 93.866667zM128 158.72C104.106667 158.72 85.333333 177.493333 85.333333 201.386667v503.466666c0 23.893333 18.773333 42.666667 42.666667 42.666667h768c23.893333 0 42.666667-18.773333 42.666667-42.666667V201.386667c0-23.893333-18.773333-42.666667-42.666667-42.666667h-768zM817.493333 916.48H206.506667c-13.653333 0-25.6-11.946667-25.6-25.6s11.946667-25.6 25.6-25.6H819.2c13.653333 0 25.6 11.946667 25.6 25.6s-11.946667 25.6-27.306667 25.6z"  /><path  d="M498.346667 684.373333c-30.72 0-54.613333-23.893333-54.613334-54.613333V614.4l-10.24-5.12c-6.826667-3.413333-15.36-8.533333-22.186666-13.653333l-13.653334 8.533333c-11.946667 6.826667-27.306667 10.24-42.666666 5.12-13.653333-3.413333-25.6-13.653333-34.133334-25.6l-13.653333-27.306667c-15.36-25.6-6.826667-59.733333 20.48-75.093333l13.653333-8.533333c-1.706667-6.826667-1.706667-13.653333-1.706666-18.773334 0-3.413333 0-6.826667 1.706666-11.946666v-5.12-1.706667l-15.36-8.533333c-13.653333-6.826667-22.186667-18.773333-25.6-34.133334-3.413333-13.653333-1.706667-29.013333 5.12-42.666666l13.653334-23.893334c15.36-25.6 49.493333-35.84 75.093333-20.48l13.653333 8.533334c10.24-8.533333 22.186667-15.36 32.426667-20.48v-18.773334c0-30.72 23.893333-54.613333 54.613333-54.613333h27.306667c30.72 0 54.613333 23.893333 54.613333 54.613333v18.773334l10.24 5.12c6.826667 3.413333 15.36 8.533333 22.186667 13.653333l13.653333-8.533333c25.6-15.36 59.733333-6.826667 75.093334 18.773333l13.653333 23.893333c6.826667 11.946667 10.24 27.306667 6.826667 40.96s-11.946667 25.6-25.6 34.133334l-13.653334 8.533333c1.706667 6.826667 1.706667 13.653333 1.706667 18.773333 0 3.413333 0 6.826667-1.706667 11.946667v6.826667l13.653334 8.533333c13.653333 6.826667 22.186667 18.773333 25.6 34.133333 3.413333 13.653333 1.706667 29.013333-5.12 42.666667l-13.653334 23.893333c-15.36 25.6-49.493333 35.84-75.093333 20.48l-10.24-6.826666c-10.24 8.533333-22.186667 15.36-32.426667 20.48v18.773333c0 15.36-5.12 29.013333-15.36 39.253333s-23.893333 17.066667-39.253333 17.066667l-29.013333-1.706667z m-30.72-116.053333l11.946666 6.826667c8.533333 5.12 13.653333 13.653333 13.653334 22.186666v32.426667c0 1.706667 0 1.706667 1.706666 3.413333s1.706667 1.706667 3.413334 1.706667h27.306666c1.706667 0 1.706667 0 3.413334-1.706667 0 0 1.706667-1.706667 1.706666-3.413333v-34.133333c0-10.24 5.12-18.773333 13.653334-22.186667l13.653333-6.826667s1.706667 0 1.706667-1.706666c8.533333-3.413333 17.066667-8.533333 25.6-15.36l10.24-8.533334c8.533333-6.826667 18.773333-6.826667 29.013333-1.706666l29.013333 17.066666c1.706667 1.706667 3.413333 0 5.12-1.706666l13.653334-23.893334v-3.413333c0-1.706667 0-1.706667-1.706667-1.706667l-29.013333-17.066666c-8.533333-5.12-13.653333-15.36-11.946667-25.6l1.706667-13.653334c0-5.12 1.706667-10.24 1.706666-13.653333v-3.413333-6.826667c0-1.706667-1.706667-3.413333-1.706666-6.826667l-1.706667-15.36c-1.706667-10.24 3.413333-20.48 11.946667-25.6l29.013333-17.066666c1.706667 0 1.706667-1.706667 1.706667-1.706667V375.466667l-13.653334-23.893334c-1.706667-1.706667-3.413333-1.706667-5.12-1.706666l-29.013333 17.066666c-8.533333 5.12-20.48 5.12-29.013333-1.706666l-10.24-8.533334c-5.12-5.12-11.946667-6.826667-17.066667-10.24-3.413333-1.706667-6.826667-3.413333-11.946667-6.826666l-11.946666-6.826667c-8.533333-5.12-13.653333-13.653333-13.653334-22.186667v-34.133333c0-1.706667-1.706667-3.413333-3.413333-3.413333h-27.306667c-1.706667 0-1.706667 0-3.413333 1.706666s-1.706667 1.706667-1.706667 3.413334v34.133333c0 10.24-5.12 18.773333-13.653333 22.186667l-15.36 6.826666s-1.706667 0-1.706667 1.706667c-8.533333 3.413333-17.066667 8.533333-25.6 15.36l-10.24 8.533333c-8.533333 6.826667-18.773333 6.826667-29.013333 1.706667l-29.013333-17.066667c-1.706667-1.706667-5.12 0-5.12 1.706667l-13.653334 23.893333v3.413334s0 1.706667 1.706667 1.706666l29.013333 17.066667c8.533333 5.12 13.653333 15.36 13.653334 25.6l-3.413334 13.653333c0 5.12-1.706667 10.24-1.706666 13.653334V462.506667c0 1.706667 1.706667 3.413333 1.706666 6.826666l1.706667 15.36c1.706667 10.24-3.413333 20.48-11.946667 25.6l-29.013333 17.066667c-1.706667 1.706667-1.706667 3.413333-1.706667 5.12l13.653334 25.6c0 1.706667 1.706667 1.706667 1.706666 1.706667h3.413334l29.013333-17.066667c8.533333-5.12 20.48-5.12 29.013333 1.706667l10.24 8.533333c5.12 5.12 11.946667 6.826667 17.066667 10.24 5.12 0 8.533333 3.413333 11.946667 5.12z m-76.8-105.813333z m-1.706667-3.413334z m245.76-11.946666z"  /><path  d="M512 556.373333c-56.32 0-102.4-46.08-102.4-102.4 0-27.306667 10.24-52.906667 29.013333-73.386666 18.773333-18.773333 44.373333-30.72 71.68-30.72 56.32 0 102.4 46.08 102.4 102.4 0 27.306667-10.24 52.906667-29.013333 73.386666-18.773333 18.773333-44.373333 30.72-71.68 30.72zM512 375.466667v25.6c-13.653333 0-27.306667 5.12-35.84 15.36-10.24 10.24-15.36 23.893333-15.36 37.546666 0 29.013333 22.186667 51.2 51.2 51.2s51.2-23.893333 51.2-51.2c0-29.013333-23.893333-51.2-51.2-51.2V375.466667z"  /></svg>