<?xml version="1.0" standalone="no"?><!DOCTYPE svg PUBLIC "-//W3C//DTD SVG 1.1//EN" "http://www.w3.org/Graphics/SVG/1.1/DTD/svg11.dtd"><svg class="icon" width="64px" height="64.00px" viewBox="0 0 1024 1024" version="1.1" xmlns="http://www.w3.org/2000/svg"><path  d="M964.266667 989.866667c-6.826667 0-13.653333-1.706667-18.773334-6.826667l-904.533333-904.533333c-8.533333-10.24-8.533333-27.306667 0-37.546667s25.6-10.24 35.84 0l904.533333 904.533333c10.24 10.24 10.24 25.6 0 35.84-3.413333 6.826667-10.24 8.533333-17.066666 8.533334z"  /><path  d="M59.733333 989.866667c-6.826667 0-13.653333-1.706667-18.773333-6.826667-10.24-10.24-10.24-25.6 0-35.84l904.533333-904.533333c10.24-10.24 25.6-10.24 35.84 0s10.24 25.6 0 35.84l-904.533333 904.533333c-3.413333 5.12-10.24 6.826667-17.066667 6.826667z"  /></svg>