<?xml version="1.0" standalone="no"?><!DOCTYPE svg PUBLIC "-//W3C//DTD SVG 1.1//EN" "http://www.w3.org/Graphics/SVG/1.1/DTD/svg11.dtd"><svg class="icon" width="64px" height="64.00px" viewBox="0 0 1024 1024" version="1.1" xmlns="http://www.w3.org/2000/svg"><path  d="M491.52 467.626667c-119.466667 0-218.453333-97.28-218.453333-218.453334 0-119.466667 97.28-218.453333 218.453333-218.453333s218.453333 97.28 218.453333 218.453333c0 121.173333-98.986667 218.453333-218.453333 218.453334z m0-385.706667c-92.16 0-167.253333 75.093333-167.253333 167.253333s75.093333 167.253333 167.253333 167.253334 167.253333-75.093333 167.253333-167.253334-75.093333-167.253333-167.253333-167.253333zM593.92 991.573333H93.866667c-17.066667 0-32.426667-6.826667-44.373334-18.773333-11.946667-11.946667-17.066667-29.013333-15.36-44.373333 20.48-235.52 220.16-419.84 457.386667-419.84 71.68 0 139.946667 15.36 204.8 47.786666 11.946667 6.826667 17.066667 22.186667 11.946667 34.133334-6.826667 11.946667-22.186667 17.066667-34.133334 11.946666-56.32-27.306667-117.76-42.666667-180.906666-42.666666C281.6 559.786667 102.4 723.626667 85.333333 931.84c0 3.413333 1.706667 5.12 1.706667 6.826667 1.706667 1.706667 3.413333 3.413333 6.826667 3.413333h500.053333c13.653333 0 25.6 11.946667 25.6 25.6s-11.946667 23.893333-25.6 23.893333z"  /><path  d="M779.946667 993.28c-13.653333 0-27.306667-5.12-37.546667-15.36-10.24-10.24-15.36-23.893333-15.36-37.546667v-13.653333c-3.413333-1.706667-5.12-3.413333-8.533333-5.12-6.826667-3.413333-13.653333-6.826667-20.48-11.946667l-11.946667 6.826667c-11.946667 6.826667-25.6 8.533333-39.253333 5.12-13.653333-3.413333-25.6-11.946667-32.426667-23.893333l-13.653333-22.186667c-13.653333-25.6-5.12-56.32 18.773333-71.68l11.946667-6.826667v-17.066666c0-3.413333 0-6.826667 1.706666-10.24v-5.12l-11.946666-6.826667c-11.946667-6.826667-20.48-18.773333-25.6-32.426667-3.413333-13.653333-1.706667-27.306667 5.12-39.253333l11.946666-20.48c13.653333-25.6 46.08-34.133333 71.68-18.773333l11.946667 6.826666c8.533333-6.826667 18.773333-13.653333 29.013333-17.066666v-15.36c0-29.013333 23.893333-52.906667 52.906667-52.906667h25.6c15.36 0 27.306667 5.12 37.546667 15.36 10.24 10.24 15.36 23.893333 15.36 37.546667v15.36c3.413333 1.706667 5.12 3.413333 8.533333 5.12 6.826667 3.413333 13.653333 6.826667 20.48 11.946666l11.946667-6.826666c25.6-15.36 58.026667-6.826667 71.68 18.773333l11.946666 20.48c6.826667 11.946667 8.533333 25.6 5.12 39.253333-3.413333 13.653333-11.946667 25.6-23.893333 32.426667l-11.946667 6.826667c1.706667 5.12 1.706667 11.946667 1.706667 17.066666 0 3.413333 0 6.826667-1.706667 10.24v5.12l11.946667 6.826667c11.946667 6.826667 20.48 18.773333 25.6 32.426667 3.413333 13.653333 1.706667 27.306667-5.12 40.96l-11.946667 20.48c-13.653333 25.6-46.08 34.133333-71.68 18.773333l-11.946666-8.533333c-8.533333 6.826667-18.773333 13.653333-29.013334 17.066666v15.36c0 29.013333-23.893333 52.906667-52.906666 52.906667h-25.6z m-27.306667-110.933333l11.946667 5.12c8.533333 5.12 13.653333 13.653333 13.653333 22.186666V938.666667s0 1.706667 1.706667 1.706666h25.6s1.706667 0 1.706666-1.706666v-30.72c0-10.24 5.12-18.773333 13.653334-22.186667l11.946666-6.826667s1.706667 0 1.706667-1.706666c6.826667-3.413333 15.36-8.533333 23.893333-13.653334l10.24-8.533333c8.533333-6.826667 18.773333-6.826667 29.013334-1.706667l27.306666 15.36h1.706667l11.946667-20.48 11.946666-23.893333-11.946666 22.186667-27.306667-15.36c-8.533333-5.12-13.653333-15.36-11.946667-25.6l1.706667-11.946667c0-5.12 1.706667-8.533333 1.706667-11.946667v-3.413333-5.12c0-1.706667-1.706667-3.413333-1.706667-6.826667l-1.706667-13.653333c-1.706667-10.24 3.413333-20.48 11.946667-25.6l27.306667-15.36 22.186666-15.36-22.186666 13.653333-11.946667-20.48s-1.706667-1.706667-1.706667 0l-27.306666 15.36c-8.533333 5.12-20.48 5.12-29.013334-1.706666l-10.24-8.533334-15.36-10.24-10.24-5.12-11.946666-5.12c-8.533333-5.12-13.653333-13.653333-13.653334-22.186666v-30.72s0-1.706667-1.706666-1.706667h-25.6s-1.706667 0-1.706667 1.706667v30.72c0 10.24-5.12 18.773333-13.653333 22.186666l-13.653334 5.12s-1.706667 0-1.706666 1.706667c-6.826667 3.413333-15.36 8.533333-23.893334 13.653333l-8.533333 6.826667c-8.533333 6.826667-18.773333 6.826667-29.013333 1.706667l-27.306667-15.36h-1.706667l-11.946666 20.48-11.946667 23.893333 11.946667-22.186667 27.306666 15.36c8.533333 5.12 13.653333 15.36 13.653334 25.6l-1.706667 11.946667c0 5.12-1.706667 8.533333-1.706667 11.946667v8.533333c0 1.706667 1.706667 3.413333 1.706667 6.826667l1.706667 13.653333c1.706667 10.24-3.413333 20.48-11.946667 25.6l-27.306667 15.36v1.706667l13.653334 22.186666 27.306666-15.36c8.533333-5.12 20.48-5.12 29.013334 1.706667l10.24 8.533333 15.36 10.24c1.706667 5.12 5.12 6.826667 8.533333 8.533334zM682.666667 786.773333z m0-1.706666z m220.16-10.24z m-1.706667-3.413334z"  /><path  d="M791.893333 882.346667c-27.306667 0-52.906667-10.24-71.68-29.013334s-30.72-44.373333-30.72-71.68 10.24-52.906667 29.013334-71.68 44.373333-30.72 71.68-30.72 52.906667 10.24 71.68 29.013334 30.72 44.373333 30.72 71.68-10.24 52.906667-29.013334 71.68c-17.066667 18.773333-42.666667 29.013333-71.68 30.72z m0-153.6c-29.013333 0-51.2 23.893333-51.2 51.2 0 29.013333 23.893333 51.2 51.2 51.2s51.2-23.893333 51.2-51.2c0-29.013333-22.186667-51.2-51.2-51.2z"  /></svg>