<?xml version="1.0" standalone="no"?><!DOCTYPE svg PUBLIC "-//W3C//DTD SVG 1.1//EN" "http://www.w3.org/Graphics/SVG/1.1/DTD/svg11.dtd"><svg class="icon" width="64px" height="64.00px" viewBox="0 0 1024 1024" version="1.1" xmlns="http://www.w3.org/2000/svg"><path  d="M512 578.730667c-6.485333 0-13.141333-2.56-18.090667-7.509334a25.429333 25.429333 0 0 1 0-36.181333l85.504-85.504c10.069333-10.069333 26.282667-10.069333 36.181334 0s10.069333 26.282667 0 36.181333l-85.504 85.504c-4.949333 5.12-11.605333 7.509333-18.090667 7.509334z"  /><path  d="M512 578.730667c-6.485333 0-13.141333-2.56-18.090667-7.509334l-85.504-85.504c-10.069333-10.069333-10.069333-26.282667 0-36.181333s26.282667-10.069333 36.181334 0l85.504 85.504c10.069333 10.069333 10.069333 26.282667 0 36.181333-4.949333 5.12-11.605333 7.509333-18.090667 7.509334z"  /><path  d="M512 774.144c-14.165333 0-25.6-11.434667-25.6-25.6V553.130667c0-14.165333 11.434667-25.6 25.6-25.6s25.6 11.434667 25.6 25.6v195.242666c0 14.165333-11.434667 25.770667-25.6 25.770667z"  /><path  d="M600.576 595.285333H423.424c-14.165333 0-25.6-11.434667-25.6-25.6s11.434667-25.6 25.6-25.6h176.981333c14.165333 0 25.6 11.434667 25.6 25.6s-11.264 25.6-25.429333 25.6zM600.576 683.349333H423.424c-14.165333 0-25.6-11.434667-25.6-25.6s11.434667-25.6 25.6-25.6h176.981333c14.165333 0 25.6 11.434667 25.6 25.6s-11.264 25.6-25.429333 25.6z"  /><path  d="M512 424.277333c-44.714667 0-89.088-2.389333-131.584-6.997333-41.301333-4.437333-80.896-11.093333-117.418667-19.626667-37.376-8.704-71.338667-19.285333-101.034666-31.744-30.549333-12.629333-56.149333-26.965333-75.946667-42.666666-16.042667-12.629333-28.501333-26.112-37.034667-40.106667-9.898667-15.872-14.848-32.597333-14.848-49.493333 0-55.637333 53.077333-105.642667 149.333334-140.8C271.701333 60.586667 388.437333 42.837333 512 42.837333s240.298667 17.749333 328.533333 50.005334C936.789333 128 989.866667 178.005333 989.866667 233.642667c0 17.066667-4.949333 33.792-14.677334 49.664-8.704 13.994667-21.162667 27.477333-37.205333 40.106666-19.797333 15.701333-45.397333 30.037333-75.946667 42.837334-29.525333 12.288-63.658667 23.04-101.034666 31.744-36.522667 8.533333-75.946667 15.018667-117.418667 19.626666-42.496 4.437333-86.869333 6.656-131.584 6.656z m0-330.24c-117.76 0-228.352 16.554667-311.125333 46.933334C128.512 167.424 85.333333 202.069333 85.333333 233.642667c0 7.509333 2.389333 15.018667 7.168 22.698666 5.461333 8.874667 13.824 17.749333 25.088 26.624 16.213333 12.8 37.717333 24.917333 64 35.84 26.965333 11.264 58.197333 20.992 92.842667 29.013334 34.645333 8.021333 72.021333 14.336 111.274667 18.602666 81.578667 8.874667 170.496 8.874667 252.245333 0 39.253333-4.266667 76.8-10.581333 111.274667-18.602666 34.645333-8.021333 65.877333-17.92 93.013333-29.013334 26.282667-10.922667 47.786667-23.04 64-35.84 11.264-8.874667 19.797333-17.92 25.258667-26.624 4.778667-7.850667 7.168-15.189333 7.168-22.698666 0-31.573333-43.178667-66.218667-115.541334-92.672C740.352 110.762667 629.930667 94.037333 512 94.037333zM755.370667 537.6c-11.605333 0-22.186667-8.021333-24.917334-19.797333-3.242667-13.824 5.290667-27.477333 19.114667-30.72 34.645333-8.021333 65.877333-17.92 92.672-29.013334 26.282667-10.922667 47.786667-22.869333 64-35.669333 11.093333-8.704 27.136-6.826667 36.010667 4.266667s6.826667 27.136-4.266667 36.010666c-19.968 15.701333-45.397333 30.037333-75.946667 42.666667-29.525333 12.288-63.317333 22.869333-100.864 31.744-1.877333 0.341333-3.925333 0.512-5.802666 0.512zM268.629333 537.6c-1.877333 0-3.925333-0.170667-5.802666-0.682667-37.376-8.704-71.338667-19.456-100.864-31.744-30.549333-12.8-55.978667-27.136-75.946667-42.666666-11.093333-8.704-13.141333-24.746667-4.266667-35.84s24.917333-12.970667 36.010667-4.266667c16.213333 12.8 37.717333 24.746667 64 35.669333 26.965333 11.264 58.026667 20.992 92.672 29.013334a25.582933 25.582933 0 0 1-5.802667 50.517333zM268.8 676.864l-5.973333-0.682667c-37.546667-8.704-71.509333-19.456-101.034667-31.744-30.549333-12.629333-56.149333-27.136-75.946667-42.666666-11.093333-8.704-12.970667-24.917333-4.266666-36.010667s24.917333-12.970667 36.010666-4.266667c16.213333 12.8 37.717333 24.746667 64 35.669334 26.794667 11.093333 57.856 20.821333 92.330667 29.013333 11.605333 2.389333 20.309333 12.8 20.309333 25.088 0.170667 14.165333-11.264 25.6-25.429333 25.6zM758.272 676.864h-2.901333c-14.165333 0-25.6-11.434667-25.6-25.6 0-12.629333 9.045333-23.04 20.992-25.258667 34.304-8.021333 65.194667-17.749333 91.648-28.842666 26.282667-10.922667 47.786667-22.869333 64-35.669334 11.093333-8.704 27.136-6.826667 36.010666 4.266667s6.826667 27.136-4.266666 36.010667c-19.968 15.701333-45.397333 30.037333-75.946667 42.666666-29.525333 12.288-63.488 22.869333-100.864 31.744l-3.072 0.682667zM512 841.898667c-89.770667 0-176.981333-9.386667-252.245333-27.306667-74.922667-17.749333-135.168-43.178667-173.909334-73.557333-11.093333-8.704-13.141333-24.746667-4.437333-36.010667 8.704-11.093333 24.746667-13.141333 36.010667-4.437333 32.597333 25.429333 87.210667 48.298667 154.112 64 71.338667 16.896 154.453333 25.941333 240.298666 25.941333s168.96-9.045333 240.298667-25.941333c66.901333-15.872 121.514667-38.570667 154.112-64.170667a25.6 25.6 0 0 1 36.010667 4.437333c8.704 11.093333 6.826667 27.136-4.437334 36.010667-38.741333 30.378667-98.816 55.808-173.738666 73.557333-75.093333 18.090667-162.304 27.477333-252.074667 27.477334z"  /><path  d="M512 981.162667c-123.733333 0-240.469333-17.749333-328.704-49.834667-96.085333-35.157333-149.162667-85.333333-149.162667-140.970667 0-17.066667 4.949333-33.621333 14.677334-49.664 8.533333-13.994667 21.162667-27.477333 37.205333-40.106666 11.093333-8.704 27.136-6.826667 36.010667 4.266666s6.826667 27.136-4.266667 36.010667c-11.264 8.874667-19.626667 17.749333-25.088 26.624-4.949333 8.021333-7.338667 15.36-7.338667 22.869333 0 31.573333 43.178667 66.218667 115.712 92.672 82.773333 30.208 193.194667 46.762667 311.125334 46.762667s228.352-16.554667 310.954666-46.762667C895.488 856.746667 938.666667 822.101333 938.666667 790.357333c0-7.509333-2.389333-15.018667-7.168-22.698666-5.461333-8.874667-13.994667-17.749333-25.088-26.624-11.093333-8.704-13.141333-24.746667-4.266667-36.010667s24.917333-13.141333 36.010667-4.266667c16.042667 12.629333 28.501333 26.112 37.205333 40.106667 9.728 15.872 14.677333 32.597333 14.677333 49.664 0 55.637333-53.077333 105.642667-149.162666 140.8-88.405333 32.085333-205.141333 49.834667-328.874667 49.834667zM755.370667 676.864c-14.165333 0-25.770667-11.434667-25.770667-25.6s11.434667-25.6 25.6-25.6 25.6 11.434667 25.6 25.6-11.434667 25.6-25.429333 25.6zM268.8 676.864c-14.165333 0-25.6-11.434667-25.6-25.6s11.434667-25.6 25.6-25.6 25.6 11.434667 25.6 25.6-11.434667 25.6-25.6 25.6z"  /></svg>