<?xml version="1.0" standalone="no"?><!DOCTYPE svg PUBLIC "-//W3C//DTD SVG 1.1//EN" "http://www.w3.org/Graphics/SVG/1.1/DTD/svg11.dtd"><svg class="icon" width="64px" height="64.00px" viewBox="0 0 1024 1024" version="1.1" xmlns="http://www.w3.org/2000/svg"><path  d="M512.170667 986.282667C248.490667 986.282667 34.133333 804.181333 34.133333 580.608c0-154.794667 106.154667-298.325333 270.336-365.568 13.141333-5.461333 27.989333 0.853333 33.450667 13.994667 5.290667 13.141333-0.853333 27.989333-13.994667 33.450666C176.810667 322.56 85.333333 444.586667 85.333333 580.608c0 195.413333 191.488 354.474667 426.837334 354.474667C747.349333 935.082667 938.666667 776.021333 938.666667 580.608c0-136.021333-91.306667-258.048-238.250667-318.293333a25.634133 25.634133 0 1 1 19.456-47.445334C883.882667 282.282667 989.866667 425.813333 989.866667 580.608c0 223.573333-214.357333 405.674667-477.696 405.674667z"  /><path  d="M512 602.453333c-6.485333 0-13.141333-2.56-18.090667-7.509333a25.429333 25.429333 0 0 1 0-36.181333l96.597334-96.597334c10.069333-10.069333 26.282667-10.069333 36.181333 0s10.069333 26.282667 0 36.181334l-96.597333 96.597333c-4.949333 4.949333-11.605333 7.509333-18.090667 7.509333z"  /><path  d="M512 602.453333c-6.485333 0-13.141333-2.56-18.090667-7.509333l-96.597333-96.597333c-10.069333-10.069333-10.069333-26.282667 0-36.181334s26.282667-10.069333 36.181333 0l96.597334 96.597334c10.069333 10.069333 10.069333 26.282667 0 36.181333-4.949333 4.949333-11.605333 7.509333-18.090667 7.509333z"  /><path  d="M512 823.125333c-14.165333 0-25.6-11.434667-25.6-25.6V576.853333c0-14.165333 11.434667-25.6 25.6-25.6s25.6 11.434667 25.6 25.6v220.672c0 13.994667-11.434667 25.6-25.6 25.6z"  /><path  d="M612.010667 621.056H411.989333c-14.165333 0-25.6-11.434667-25.6-25.6s11.434667-25.6 25.6-25.6h200.021334c14.165333 0 25.6 11.434667 25.6 25.6s-11.434667 25.6-25.6 25.6zM612.010667 720.554667H411.989333c-14.165333 0-25.6-11.434667-25.6-25.6s11.434667-25.6 25.6-25.6h200.021334c14.165333 0 25.6 11.434667 25.6 25.6s-11.434667 25.6-25.6 25.6zM589.653333 373.418667h-155.306666c-78.336 0-141.994667-63.658667-141.994667-141.994667v-51.541333c0-78.336 63.658667-141.994667 141.994667-141.994667h155.306666c78.336 0 141.994667 63.658667 141.994667 141.994667v51.541333c0 78.336-63.658667 141.994667-141.994667 141.994667z m-155.306666-284.501334a90.965333 90.965333 0 0 0-90.794667 90.794667v51.541333a90.965333 90.965333 0 0 0 90.794667 90.794667h155.306666a90.965333 90.965333 0 0 0 90.794667-90.794667v-51.541333a90.965333 90.965333 0 0 0-90.794667-90.794667h-155.306666z"  /><path  d="M722.261333 373.418667H301.738667c-14.165333 0-25.6-11.434667-25.6-25.6s11.434667-25.6 25.6-25.6h420.522666c14.165333 0 25.6 11.434667 25.6 25.6s-11.434667 25.6-25.6 25.6z"  /></svg>