<?xml version="1.0" standalone="no"?><!DOCTYPE svg PUBLIC "-//W3C//DTD SVG 1.1//EN" "http://www.w3.org/Graphics/SVG/1.1/DTD/svg11.dtd"><svg class="icon" width="64px" height="64.00px" viewBox="0 0 1024 1024" version="1.1" xmlns="http://www.w3.org/2000/svg"><path d="M512 512m-34.133333 0a34.133333 34.133333 0 1 0 68.266666 0 34.133333 34.133333 0 1 0-68.266666 0Z" fill="#212121" /><path d="M399.36 512m-34.133333 0a34.133333 34.133333 0 1 0 68.266666 0 34.133333 34.133333 0 1 0-68.266666 0Z" fill="#212121" /><path d="M624.64 512m-34.133333 0a34.133333 34.133333 0 1 0 68.266666 0 34.133333 34.133333 0 1 0-68.266666 0Z" fill="#212121" /><path d="M512 624.64m-34.133333 0a34.133333 34.133333 0 1 0 68.266666 0 34.133333 34.133333 0 1 0-68.266666 0Z" fill="#212121" /><path d="M512 399.36m-34.133333 0a34.133333 34.133333 0 1 0 68.266666 0 34.133333 34.133333 0 1 0-68.266666 0Z" fill="#212121" /><path d="M368.64 964.266667c-25.6 0-47.786667-10.24-66.56-27.306667L87.04 721.92c-35.84-35.84-35.84-95.573333 0-131.413333L590.506667 87.04c17.066667-17.066667 40.96-27.306667 66.56-27.306667s47.786667 10.24 66.56 27.306667L938.666667 302.08c35.84 35.84 35.84 95.573333 0 131.413333L433.493333 936.96c-17.066667 17.066667-40.96 27.306667-64.853333 27.306667z m286.72-853.333334c-11.946667 0-22.186667 5.12-29.013333 11.946667L122.88 626.346667c-17.066667 17.066667-17.066667 42.666667 0 59.733333l215.04 215.04c17.066667 17.066667 42.666667 17.066667 59.733333 0l503.466667-503.466667c17.066667-17.066667 17.066667-42.666667 0-59.733333L686.08 122.88c-8.533333-6.826667-18.773333-11.946667-30.72-11.946667z" fill="#333333" /><path d="M655.36 964.266667c-25.6 0-47.786667-10.24-66.56-27.306667L87.04 433.493333c-35.84-35.84-35.84-95.573333 0-131.413333L302.08 87.04c17.066667-17.066667 40.96-27.306667 66.56-27.306667s47.786667 10.24 66.56 27.306667L938.666667 590.506667c35.84 35.84 35.84 95.573333 0 131.413333L721.92 936.96c-17.066667 17.066667-40.96 27.306667-66.56 27.306667z m-286.72-853.333334c-11.946667 0-22.186667 5.12-29.013333 11.946667L122.88 337.92c-17.066667 17.066667-17.066667 42.666667 0 59.733333l503.466667 503.466667c17.066667 17.066667 42.666667 17.066667 59.733333 0l215.04-215.04c17.066667-17.066667 17.066667-42.666667 0-59.733333L397.653333 122.88c-6.826667-6.826667-18.773333-11.946667-29.013333-11.946667z m549.546667 592.213334z" fill="#333333" /></svg>