<?xml version="1.0" standalone="no"?><!DOCTYPE svg PUBLIC "-//W3C//DTD SVG 1.1//EN" "http://www.w3.org/Graphics/SVG/1.1/DTD/svg11.dtd"><svg class="icon" width="64px" height="64.00px" viewBox="0 0 1024 1024" version="1.1" xmlns="http://www.w3.org/2000/svg"><path  d="M298.666667 964.266667c-6.826667 0-13.653333-1.706667-18.773334-6.826667L66.56 744.106667c-10.24-10.24-10.24-25.6 0-35.84L706.56 66.56c10.24-10.24 25.6-10.24 35.84 0L955.733333 279.893333c10.24 10.24 10.24 25.6 0 35.84L315.733333 957.44c-5.12 5.12-11.946667 6.826667-17.066666 6.826667z m-177.493334-238.933334l177.493334 177.493334 604.16-604.16L725.333333 121.173333 121.173333 725.333333z"  /><path  d="M165.546667 670.72c-6.826667 0-13.653333-1.706667-18.773334-6.826667-10.24-10.24-10.24-25.6 0-35.84L626.346667 146.773333c10.24-10.24 25.6-10.24 35.84 0s10.24 25.6 0 35.84L182.613333 663.893333c-5.12 5.12-11.946667 6.826667-17.066666 6.826667z"  /><path  d="M276.48 730.453333c-6.826667 0-13.653333-1.706667-18.773333-6.826666l-85.333334-85.333334c-10.24-10.24-10.24-25.6 0-35.84s25.6-10.24 35.84 0l85.333334 85.333334c10.24 10.24 10.24 25.6 0 35.84-3.413333 3.413333-10.24 6.826667-17.066667 6.826666zM703.146667 303.786667c-6.826667 0-13.653333-1.706667-18.773334-6.826667l-85.333333-85.333333c-10.24-10.24-10.24-25.6 0-35.84s25.6-10.24 35.84 0l85.333333 85.333333c10.24 10.24 10.24 25.6 0 35.84-3.413333 3.413333-10.24 6.826667-17.066666 6.826667zM725.333333 964.266667c-6.826667 0-13.653333-1.706667-18.773333-6.826667L66.56 317.44c-10.24-10.24-10.24-25.6 0-35.84L279.893333 66.56c10.24-10.24 25.6-10.24 35.84 0L955.733333 706.56c10.24 10.24 10.24 25.6 0 35.84L742.4 957.44c-5.12 5.12-11.946667 6.826667-17.066667 6.826667z m-604.16-665.6l604.16 604.16 177.493334-177.493334L298.666667 121.173333 121.173333 298.666667z"  /><path  d="M617.813333 858.453333c-6.826667 0-13.653333-1.706667-18.773333-6.826666-10.24-10.24-10.24-25.6 0-35.84l85.333333-85.333334c10.24-10.24 25.6-10.24 35.84 0s10.24 25.6 0 35.84l-85.333333 85.333334c-3.413333 3.413333-10.24 6.826667-17.066667 6.826666zM404.48 645.12c-6.826667 0-13.653333-1.706667-18.773333-6.826667-10.24-10.24-10.24-25.6 0-35.84l85.333333-85.333333c10.24-10.24 25.6-10.24 35.84 0s10.24 25.6 0 35.84l-85.333333 85.333333c-3.413333 3.413333-10.24 6.826667-17.066667 6.826667zM191.146667 431.786667c-6.826667 0-13.653333-1.706667-18.773334-6.826667-10.24-10.24-10.24-25.6 0-35.84l85.333334-85.333333c10.24-10.24 25.6-10.24 35.84 0s10.24 25.6 0 35.84l-85.333334 85.333333c-3.413333 3.413333-10.24 6.826667-17.066666 6.826667z"  /></svg>