<?xml version="1.0" standalone="no"?><!DOCTYPE svg PUBLIC "-//W3C//DTD SVG 1.1//EN" "http://www.w3.org/Graphics/SVG/1.1/DTD/svg11.dtd"><svg class="icon" width="64px" height="64.00px" viewBox="0 0 1024 1024" version="1.1" xmlns="http://www.w3.org/2000/svg"><path  d="M875.690667 596.309333c-25.6-25.6-69.290667-26.965333-123.221334-3.754666a484.352 484.352 0 0 0-144.042666 102.4A564.053333 564.053333 0 0 0 534.698667 785.066667V596.138667A256 256 0 0 0 768 338.602667V105.301333A25.6 25.6 0 0 0 725.674667 85.333333l-97.109334 77.653334-100.522666-120.661334a26.453333 26.453333 0 0 0-39.424 0l-100.522667 120.661334L291.157333 85.333333a25.941333 25.941333 0 0 0-27.306666-3.072 25.258667 25.258667 0 0 0-14.336 23.210667l1.536 233.130667a251.562667 251.562667 0 0 0 232.448 257.536V785.066667a571.562667 571.562667 0 0 0-68.266667-81.749334c-90.965333-90.965333-211.968-153.6-267.264-98.986666-25.429333 25.429333-26.794667 69.290667-3.754667 123.050666a487.424 487.424 0 0 0 102.4 144.042667 487.424 487.424 0 0 0 144.042667 102.4 178.517333 178.517333 0 0 0 68.266667 17.066667 74.24 74.24 0 0 0 54.272-20.138667 26.965333 26.965333 0 0 0 2.048-2.56 75.946667 75.946667 0 0 0 47.957333 14.848c61.44 0 145.408-52.224 212.821333-119.466667a485.376 485.376 0 0 0 102.4-144.042666c24.064-53.930667 22.698667-97.792-2.730666-123.221334z m-573.44-257.877333l-1.194667-179.541333 74.410667 59.733333a25.429333 25.429333 0 0 0 35.498666-3.754667l97.109334-116.224 96.938666 116.224a25.6 25.6 0 0 0 35.669334 3.754667L716.8 158.549333v180.053334A203.093333 203.093333 0 0 1 508.416 546.133333a202.410667 202.410667 0 0 1-206.165333-207.701333zM477.866667 934.058667c-6.997333 6.997333-28.501333 9.386667-66.730667-6.997334a433.664 433.664 0 0 1-128-91.818666c-88.234667-88.405333-117.930667-175.616-98.816-194.730667a24.917333 24.917333 0 0 1 17.066667-5.461333c34.133333 0 105.301333 33.109333 176.64 104.448a434.005333 434.005333 0 0 1 91.989333 127.829333c17.408 38.229333 15.189333 59.904 7.850667 66.730667z m262.314666-106.837334c-87.893333 88.234667-175.274667 117.930667-194.048 98.986667s10.581333-106.496 98.986667-194.730667c71.338667-71.338667 141.994667-104.448 176.64-104.448a24.917333 24.917333 0 0 1 17.066667 5.461334c19.626667 19.114667-10.069333 106.496-98.304 194.730666z"  /></svg>