<?xml version="1.0" standalone="no"?><!DOCTYPE svg PUBLIC "-//W3C//DTD SVG 1.1//EN" "http://www.w3.org/Graphics/SVG/1.1/DTD/svg11.dtd"><svg class="icon" width="64px" height="64.00px" viewBox="0 0 1024 1024" version="1.1" xmlns="http://www.w3.org/2000/svg"><path  d="M397.994667 942.08a25.770667 25.770667 0 0 1-17.066667-5.973333L112.298667 711.68a25.6 25.6 0 0 1 32.768-39.253333l269.312 224.256a25.770667 25.770667 0 0 1-17.066667 45.397333zM667.306667 942.08a26.282667 26.282667 0 0 1-19.797334-9.216 25.770667 25.770667 0 0 1 3.242667-36.181333L920.064 672.426667a25.6 25.6 0 1 1 32.768 39.253333L683.52 936.106667a25.770667 25.770667 0 0 1-16.213333 5.973333zM532.650667 986.965333a25.6 25.6 0 0 1-25.6-25.6V692.053333a25.6 25.6 0 0 1 51.2 0v269.312a25.770667 25.770667 0 0 1-25.6 25.6z"  /><path  d="M532.650667 717.653333C386.56 717.653333 170.666667 602.453333 170.666667 355.498667a879.957333 879.957333 0 0 1 23.210666-162.986667A25.6 25.6 0 0 1 221.866667 173.056l144.384 20.48 148.138666-147.968a25.429333 25.429333 0 0 1 36.181334 0l147.968 147.968 144.384-20.48a25.429333 25.429333 0 0 1 28.501333 19.456 879.957333 879.957333 0 0 1 23.210667 162.986667c0.170667 246.954667-216.064 362.154667-361.984 362.154666zM238.933333 226.986667a733.866667 733.866667 0 0 0-17.066666 128.512c0 214.357333 181.930667 310.954667 311.125333 310.954666s310.954667-96.597333 310.954667-310.954666a733.866667 733.866667 0 0 0-17.066667-128.512l-133.461333 19.114666a26.112 26.112 0 0 1-21.845334-7.168l-138.922666-139.093333L393.557333 238.933333a25.941333 25.941333 0 0 1-21.674666 7.168z"  /></svg>