<?xml version="1.0" standalone="no"?><!DOCTYPE svg PUBLIC "-//W3C//DTD SVG 1.1//EN" "http://www.w3.org/Graphics/SVG/1.1/DTD/svg11.dtd"><svg class="icon" width="64px" height="64.00px" viewBox="0 0 1024 1024" version="1.1" xmlns="http://www.w3.org/2000/svg"><path  d="M406.186667 964.266667H107.52c-25.6 0-47.786667-20.48-47.786667-47.786667V105.813333c0-25.6 20.48-46.08 47.786667-46.08h298.666667c25.6 0 47.786667 20.48 47.786666 46.08v192.853334c0 13.653333-11.946667 25.6-25.6 25.6s-25.6-11.946667-25.6-25.6v-187.733334h-290.133333v802.133334h290.133333v-187.733334c0-13.653333 11.946667-25.6 25.6-25.6s25.6 11.946667 25.6 25.6v192.853334c-1.706667 25.6-22.186667 46.08-47.786666 46.08zM918.186667 964.266667H619.52c-25.6 0-47.786667-20.48-47.786667-47.786667V725.333333c0-13.653333 11.946667-25.6 25.6-25.6s25.6 11.946667 25.6 25.6v187.733334h290.133334v-802.133334h-290.133334v187.733334c0 13.653333-11.946667 25.6-25.6 25.6s-25.6-11.946667-25.6-25.6V105.813333c0-25.6 20.48-46.08 47.786667-46.08h298.666667c25.6 0 47.786667 20.48 47.786666 46.08v810.666667c-1.706667 27.306667-22.186667 47.786667-47.786666 47.786667z"  /><path  d="M938.666667 537.6H597.333333c-13.653333 0-25.6-11.946667-25.6-25.6s11.946667-25.6 25.6-25.6h341.333334c13.653333 0 25.6 11.946667 25.6 25.6s-11.946667 25.6-25.6 25.6zM426.666667 537.6H107.52c-13.653333 0-25.6-11.946667-25.6-25.6s11.946667-25.6 25.6-25.6H426.666667c13.653333 0 25.6 11.946667 25.6 25.6s-11.946667 25.6-25.6 25.6z"  /><path  d="M698.026667 640c-6.826667 0-13.653333-1.706667-18.773334-6.826667l-102.4-102.4c-10.24-10.24-10.24-25.6 0-35.84l102.4-102.4c10.24-10.24 25.6-10.24 35.84 0s10.24 25.6 0 35.84L631.466667 512l85.333333 85.333333c10.24 10.24 10.24 25.6 0 35.84-5.12 5.12-11.946667 6.826667-18.773333 6.826667zM327.68 640c-6.826667 0-13.653333-1.706667-18.773333-6.826667-10.24-10.24-10.24-25.6 0-35.84l83.626666-83.626666-83.626666-83.626667c-10.24-10.24-10.24-25.6 0-35.84s25.6-10.24 35.84 0l102.4 102.4c10.24 10.24 10.24 25.6 0 35.84l-102.4 102.4c-3.413333 3.413333-10.24 5.12-17.066667 5.12z"  /></svg>