<?xml version="1.0" standalone="no"?><!DOCTYPE svg PUBLIC "-//W3C//DTD SVG 1.1//EN" "http://www.w3.org/Graphics/SVG/1.1/DTD/svg11.dtd"><svg class="icon" width="64px" height="64.00px" viewBox="0 0 1024 1024" version="1.1" xmlns="http://www.w3.org/2000/svg"><path  d="M839.168 989.866667H184.832c-50.176 0-90.965333-45.226667-90.965333-101.034667V135.168C93.866667 79.36 134.656 34.133333 184.832 34.133333h654.165333c50.176 0 90.965333 45.226667 90.965334 101.034667v753.834667c0.170667 55.637333-40.618667 100.864-90.794667 100.864zM184.832 85.333333C162.986667 85.333333 145.066667 107.690667 145.066667 135.168v753.834667c0 27.477333 17.92 49.834667 39.765333 49.834666h654.165333c22.016 0 39.765333-22.357333 39.765334-49.834666V135.168C878.933333 107.690667 861.013333 85.333333 839.168 85.333333H184.832z"  /><path  d="M401.066667 537.6a25.770667 25.770667 0 0 1-25.258667-30.037333l19.285333-109.568-80.725333-78.848c-6.997333-6.826667-9.386667-16.896-6.485333-26.282667s11.093333-16.042667 20.650666-17.408l111.274667-16.213333 48.981333-100.010667c4.437333-8.533333 13.312-14.165333 23.210667-14.165333 9.728 0 18.602667 5.461333 22.869333 14.165333l49.664 100.010667 110.762667 16.213333c9.557333 1.365333 17.578667 8.192 20.650667 17.408s0.512 19.456-6.485334 26.282667l-80.554666 78.848 19.114666 109.568c1.706667 9.557333-2.218667 19.456-10.24 25.088-7.850667 5.802667-18.432 6.485333-26.965333 1.877333L512 481.962667l-98.816 52.736c-3.754667 1.877333-8.021333 2.901333-12.117333 2.901333z m110.933333-110.250667c4.096 0 8.362667 1.024 12.117333 3.072l64.682667 34.474667-12.458667-71.168c-1.365333-8.362667 1.365333-16.725333 7.338667-22.698667l53.248-52.224-72.874667-10.581333c-8.362667-1.194667-15.530667-6.485333-19.285333-13.994667l-32.597333-65.536-32.085334 65.536c-3.754667 7.509333-10.922667 12.8-19.285333 13.994667l-73.386667 10.581333 53.248 52.053334c5.973333 5.973333 8.704 14.336 7.338667 22.698666l-12.458667 71.168 64.512-34.304c3.584-2.048 7.850667-3.072 11.946667-3.072z m-54.954667-144.554666zM704 687.957333h-384c-14.165333 0-25.6-11.434667-25.6-25.6s11.434667-25.6 25.6-25.6h383.829333c14.165333 0 25.6 11.434667 25.6 25.6s-11.434667 25.6-25.429333 25.6zM704 840.704h-384c-14.165333 0-25.6-11.434667-25.6-25.6s11.434667-25.6 25.6-25.6h383.829333c14.165333 0 25.6 11.434667 25.6 25.6s-11.434667 25.6-25.429333 25.6z"  /></svg>