<?xml version="1.0" standalone="no"?><!DOCTYPE svg PUBLIC "-//W3C//DTD SVG 1.1//EN" "http://www.w3.org/Graphics/SVG/1.1/DTD/svg11.dtd"><svg class="icon" width="64px" height="64.00px" viewBox="0 0 1024 1024" version="1.1" xmlns="http://www.w3.org/2000/svg"><path  d="M827.733333 989.866667H331.093333c-51.2 0-93.866667-42.666667-93.866666-93.866667v-631.466667c0-51.2 42.666667-93.866667 93.866666-93.866666h496.64c51.2 0 93.866667 42.666667 93.866667 93.866666v631.466667c0 51.2-40.96 93.866667-93.866667 93.866667zM331.093333 221.866667c-23.893333 0-42.666667 18.773333-42.666666 42.666666v631.466667c0 23.893333 18.773333 42.666667 42.666666 42.666667h496.64c23.893333 0 42.666667-18.773333 42.666667-42.666667v-631.466667c0-23.893333-18.773333-42.666667-42.666667-42.666666H331.093333z"  /><path  d="M262.826667 855.04h-85.333334C136.533333 855.04 102.4 819.2 102.4 778.24v-648.533333C102.4 76.8 143.36 34.133333 196.266667 34.133333h496.64c51.2 0 93.866667 42.666667 93.866666 93.866667v68.266667c0 13.653333-11.946667 25.6-25.6 25.6s-25.6-11.946667-25.6-25.6v-68.266667C735.573333 104.106667 716.8 85.333333 692.906667 85.333333H196.266667C172.373333 85.333333 153.6 104.106667 153.6 128v648.533333c0 13.653333 11.946667 25.6 25.6 25.6h85.333333c13.653333 0 25.6 11.946667 25.6 25.6s-11.946667 27.306667-27.306666 27.306667z"  /><path  d="M580.266667 776.533333c-5.12 0-10.24-1.706667-15.36-5.12l-37.546667-27.306666h-47.786667c-11.946667 0-20.48-6.826667-23.893333-17.066667l-13.653333-44.373333-37.546667-27.306667c-8.533333-6.826667-11.946667-18.773333-8.533333-29.013333l15.36-44.373334-18.773334-46.08c-3.413333-10.24 0-22.186667 8.533334-29.013333l37.546666-27.306667 13.653334-44.373333c3.413333-10.24 13.653333-17.066667 23.893333-17.066667h47.786667l37.546666-27.306666c8.533333-6.826667 20.48-6.826667 30.72 0l37.546667 27.306666h47.786667c11.946667 0 20.48 6.826667 23.893333 17.066667l13.653333 44.373333 37.546667 27.306667c8.533333 6.826667 11.946667 18.773333 8.533333 29.013333l-8.533333 44.373334 15.36 44.373333c3.413333 10.24 0 22.186667-8.533333 29.013333l-37.546667 27.306667-13.653333 44.373333c-3.413333 10.24-13.653333 17.066667-23.893334 17.066667h-47.786666l-37.546667 27.306667c-8.533333 5.12-13.653333 6.826667-18.773333 6.826666z m-46.08-83.626666c5.12 0 10.24 1.706667 15.36 5.12l29.013333 22.186666 29.013333-22.186666c5.12-3.413333 10.24-5.12 15.36-5.12h37.546667l11.946667-35.84c1.706667-5.12 5.12-10.24 8.533333-13.653334l29.013333-22.186666-11.946666-34.133334c-1.706667-5.12-1.706667-10.24 0-15.36l11.946666-34.133333-27.306666-22.186667c-5.12-3.413333-6.826667-8.533333-8.533334-13.653333l-11.946666-35.84h-37.546667c-5.12 0-10.24-1.706667-15.36-5.12L580.266667 440.32l-29.013334 22.186667c-5.12 3.413333-10.24 5.12-15.36 5.12h-37.546666l-11.946667 35.84c-1.706667 5.12-5.12 10.24-8.533333 13.653333l-29.013334 22.186667 11.946667 34.133333c1.706667 5.12 1.706667 10.24 0 15.36l-11.946667 34.133333 29.013334 22.186667c5.12 3.413333 6.826667 8.533333 8.533333 13.653333l11.946667 35.84 35.84-1.706666z"  /><path  d="M563.2 648.533333c-6.826667 0-13.653333-1.706667-18.773333-6.826666L501.76 597.333333c-10.24-10.24-10.24-25.6 0-35.84s25.6-10.24 35.84 0l23.893333 23.893334 66.56-66.56c10.24-10.24 25.6-10.24 35.84 0s10.24 25.6 0 35.84l-85.333333 85.333333c-3.413333 5.12-8.533333 8.533333-15.36 8.533333z"  /></svg>