<?xml version="1.0" standalone="no"?><!DOCTYPE svg PUBLIC "-//W3C//DTD SVG 1.1//EN" "http://www.w3.org/Graphics/SVG/1.1/DTD/svg11.dtd"><svg class="icon" width="64px" height="64.00px" viewBox="0 0 1024 1024" version="1.1" xmlns="http://www.w3.org/2000/svg"><path  d="M510.293333 989.866667H153.6c-39.253333 0-71.68-32.426667-71.68-71.68V104.106667C83.626667 66.56 116.053333 34.133333 153.6 34.133333h633.173333c39.253333 0 71.68 32.426667 71.68 69.973334v430.08c0 13.653333-11.946667 25.6-25.6 25.6s-25.6-11.946667-25.6-25.6V104.106667c0-10.24-8.533333-18.773333-20.48-18.773334H153.6c-10.24 0-18.773333 8.533333-18.773333 18.773334v814.08c0 11.946667 8.533333 20.48 18.773333 20.48h354.986667c13.653333 0 25.6 11.946667 25.6 25.6s-10.24 25.6-23.893334 25.6z"  /><path  d="M452.266667 423.253333c-6.826667 0-13.653333-3.413333-18.773334-8.533333L341.333333 317.44l-92.16 97.28c-6.826667 6.826667-18.773333 10.24-27.306666 6.826667-10.24-3.413333-15.36-13.653333-15.36-23.893334V59.733333c-1.706667-13.653333 8.533333-25.6 23.893333-25.6h221.866667c13.653333 0 25.6 11.946667 25.6 25.6v337.92c0 10.24-6.826667 20.48-15.36 23.893334-5.12 0-8.533333 1.706667-10.24 1.706666zM341.333333 254.293333c6.826667 0 13.653333 3.413333 18.773334 8.533334l66.56 69.973333V85.333333H256v247.466667l66.56-69.973333c5.12-6.826667 10.24-8.533333 18.773333-8.533334zM899.413333 989.866667H640c-22.186667 0-40.96-18.773333-40.96-40.96v-83.626667c0-22.186667 18.773333-40.96 40.96-40.96h259.413333c22.186667 0 40.96 18.773333 40.96 40.96v83.626667c0 22.186667-18.773333 40.96-40.96 40.96z m-249.173333-51.2h238.933333v-63.146667h-238.933333V938.666667z"  /><path  d="M882.346667 875.52H657.066667l47.786666-136.533333c5.12-13.653333 17.066667-22.186667 30.72-22.186667H802.133333c13.653333 0 27.306667 8.533333 30.72 22.186667l49.493334 136.533333z m-151.893334-51.2h80.213334L790.186667 768h-40.96l-18.773334 56.32z m23.893334-68.266667z"  /><path  d="M797.013333 766.293333h-54.613333c-37.546667 0-66.56-30.72-66.56-66.56s30.72-66.56 66.56-66.56h54.613333c37.546667 0 66.56 30.72 66.56 66.56s-29.013333 66.56-66.56 66.56z m-54.613333-81.92c-8.533333 0-15.36 6.826667-15.36 15.36s6.826667 15.36 15.36 15.36h54.613333c8.533333 0 15.36-6.826667 15.36-15.36s-6.826667-15.36-15.36-15.36h-54.613333z"  /><path  d="M544.426667 571.733333H226.986667c-13.653333 0-25.6-11.946667-25.6-25.6s11.946667-25.6 25.6-25.6h317.44c13.653333 0 25.6 11.946667 25.6 25.6s-11.946667 25.6-25.6 25.6zM544.426667 686.08H226.986667c-13.653333 0-25.6-11.946667-25.6-25.6s11.946667-25.6 25.6-25.6h317.44c13.653333 0 25.6 11.946667 25.6 25.6s-11.946667 25.6-25.6 25.6z"  /></svg>