<?xml version="1.0" standalone="no"?><!DOCTYPE svg PUBLIC "-//W3C//DTD SVG 1.1//EN" "http://www.w3.org/Graphics/SVG/1.1/DTD/svg11.dtd"><svg class="icon" width="64px" height="64.00px" viewBox="0 0 1024 1024" version="1.1" xmlns="http://www.w3.org/2000/svg"><path  d="M424.96 921.6H197.973333c-13.653333 0-25.6-11.946667-25.6-25.6V696.32H63.146667c-8.533333 0-17.066667-5.12-22.186667-13.653333s-5.12-17.066667 0-25.6L356.693333 114.346667c5.12-6.826667 13.653333-11.946667 22.186667-11.946667s17.066667 5.12 22.186667 11.946667l136.533333 226.986666c5.12 8.533333 5.12 17.066667 0 25.6l-158.72 278.186667h46.08c13.653333 0 25.6 11.946667 25.6 25.6v226.986667c0 13.653333-11.946667 23.893333-25.6 23.893333z m-201.386667-51.2h174.08V696.32h-64.853333c-8.533333 0-17.066667-5.12-22.186667-11.946667-5.12-8.533333-5.12-17.066667 0-25.6l174.08-303.786666-105.813333-175.786667-273.066667 467.626667h90.453334c13.653333 0 25.6 11.946667 25.6 25.6V870.4z"  /><path  d="M831.146667 921.6H605.866667c-13.653333 0-25.6-11.946667-25.6-25.6V670.72c0-13.653333 11.946667-25.6 25.6-25.6h46.08l-158.72-278.186667c-5.12-8.533333-5.12-18.773333 0-25.6l136.533333-226.986666c3.413333-6.826667 11.946667-11.946667 20.48-11.946667s17.066667 5.12 22.186667 11.946667L989.866667 657.066667c5.12 8.533333 5.12 17.066667 0 25.6s-13.653333 13.653333-22.186667 13.653333h-110.933333v201.386667c0 13.653333-11.946667 23.893333-25.6 23.893333zM631.466667 870.4h175.786666V670.72c0-13.653333 11.946667-25.6 25.6-25.6H921.6L648.533333 177.493333l-105.813333 175.786667L716.8 657.066667c5.12 8.533333 5.12 17.066667 0 25.6s-13.653333 11.946667-22.186667 11.946666H631.466667V870.4z"  /></svg>