<?xml version="1.0" standalone="no"?><!DOCTYPE svg PUBLIC "-//W3C//DTD SVG 1.1//EN" "http://www.w3.org/Graphics/SVG/1.1/DTD/svg11.dtd"><svg class="icon" width="64px" height="64.00px" viewBox="0 0 1024 1024" version="1.1" xmlns="http://www.w3.org/2000/svg"><path  d="M740.693333 947.2c-5.12 0-8.533333-1.706667-13.653333-3.413333l-452.266667-273.066667c-6.826667-5.12-11.946667-13.653333-11.946666-22.186667V375.466667c0-8.533333 5.12-17.066667 13.653333-22.186667 8.533333-5.12 17.066667-5.12 25.6 0l413.013333 249.173333V389.12l-213.333333-129.706667c-6.826667-5.12-11.946667-13.653333-11.946667-22.186666s5.12-17.066667 11.946667-22.186667l226.986667-136.533333c8.533333-5.12 18.773333-5.12 27.306666 0l226.986667 136.533333c6.826667 5.12 11.946667 13.653333 11.946667 22.186667v546.133333c0 8.533333-5.12 17.066667-11.946667 22.186667l-226.986667 136.533333c-6.826667 3.413333-10.24 5.12-15.36 5.12z m-426.666666-312.32l426.666666 257.706667 201.386667-121.173334V252.586667l-201.386667-119.466667L564.906667 238.933333l189.44 114.346667c6.826667 5.12 11.946667 13.653333 11.946666 22.186667v273.066666c0 8.533333-5.12 17.066667-13.653333 22.186667-8.533333 5.12-17.066667 5.12-25.6 0L314.026667 421.546667v213.333333z"  /><path  d="M288.426667 947.2c-5.12 0-8.533333-1.706667-13.653334-3.413333l-225.28-136.533334c-8.533333-5.12-11.946667-13.653333-11.946666-22.186666V238.933333c0-8.533333 5.12-17.066667 11.946666-22.186666l225.28-136.533334c8.533333-5.12 18.773333-5.12 27.306667 0l226.986667 136.533334c11.946667 6.826667 15.36 23.893333 8.533333 35.84-6.826667 11.946667-23.893333 15.36-35.84 8.533333L288.426667 133.12l-199.68 119.466667v517.12l199.68 121.173333 199.68-133.12c11.946667-8.533333 27.306667-5.12 35.84 6.826667s5.12 27.306667-6.826667 35.84l-213.333333 141.653333c-5.12 3.413333-10.24 5.12-15.36 5.12z"  /></svg>