<?xml version="1.0" standalone="no"?><!DOCTYPE svg PUBLIC "-//W3C//DTD SVG 1.1//EN" "http://www.w3.org/Graphics/SVG/1.1/DTD/svg11.dtd"><svg class="icon" width="64px" height="64.00px" viewBox="0 0 1024 1024" version="1.1" xmlns="http://www.w3.org/2000/svg"><path  d="M894.634667 984.917333H129.365333a90.282667 90.282667 0 0 1-90.282666-90.282666V129.365333a90.282667 90.282667 0 0 1 90.282666-90.282666h765.269334a90.282667 90.282667 0 0 1 90.282666 90.282666v765.269334a90.282667 90.282667 0 0 1-90.282666 90.282666zM129.365333 90.282667a39.253333 39.253333 0 0 0-39.082666 39.082666v765.269334a39.082667 39.082667 0 0 0 39.082666 39.082666h765.269334a39.082667 39.082667 0 0 0 39.082666-39.082666V129.365333a39.253333 39.253333 0 0 0-39.082666-39.082666z"  /><path  d="M512 481.962667A122.88 122.88 0 1 1 634.88 358.4a123.050667 123.050667 0 0 1-122.88 123.562667z m0-194.389334A71.68 71.68 0 1 0 583.68 358.4a71.68 71.68 0 0 0-71.68-70.826667zM350.72 468.138667a25.429333 25.429333 0 0 1-13.312-3.754667 122.88 122.88 0 0 1-6.826667-205.994667 25.6 25.6 0 1 1 29.354667 41.984 71.68 71.68 0 0 0 3.925333 119.466667 25.6 25.6 0 0 1 8.704 35.157333 25.258667 25.258667 0 0 1-21.845333 13.141334zM678.741333 464.554667a25.6 25.6 0 0 1-14.677333-46.592 71.68 71.68 0 0 0 0-117.589334 25.6 25.6 0 1 1 29.354667-41.984 122.88 122.88 0 0 1 0 201.557334 25.770667 25.770667 0 0 1-14.677334 4.608zM678.741333 787.797333H345.258667a25.6 25.6 0 0 1-25.6-25.6V733.866667c0-55.125333 0-82.773333 10.410666-108.032a136.533333 136.533333 0 0 1 74.069334-73.898667c25.088-10.410667 52.736-10.410667 107.861333-10.410667s82.773333 0 107.861333 10.410667a136.533333 136.533333 0 0 1 74.069334 73.898667c10.410667 25.258667 10.410667 52.906667 10.410666 108.032v27.818666a25.6 25.6 0 0 1-25.6 26.112z m-307.2-51.2h281.6V733.866667c0-48.469333 0-72.704-6.485333-88.405334a85.333333 85.333333 0 0 0-46.421333-46.250666c-15.701333-6.485333-39.936-6.485333-88.234667-6.485334s-72.533333 0-88.405333 6.485334a85.333333 85.333333 0 0 0-46.250667 46.250666c-6.485333 15.701333-6.485333 39.936-6.485333 88.405334zM789.845333 787.797333a25.770667 25.770667 0 0 1-25.6-25.6v-17.066666c0-58.197333 0-87.210667-9.216-105.472a85.333333 85.333333 0 0 0-37.376-37.546667 25.429333 25.429333 0 0 1-11.264-34.133333 25.770667 25.770667 0 0 1 34.133334-11.264 134.826667 134.826667 0 0 1 59.733333 59.733333c14.848 29.354667 14.848 62.634667 14.848 128.853333v17.066667a25.6 25.6 0 0 1-25.258667 25.429333zM234.154667 787.797333a25.6 25.6 0 0 1-25.6-25.6v-17.066666c0-66.218667 0-99.498667 14.848-128.853334a134.826667 134.826667 0 0 1 59.733333-59.733333A25.6 25.6 0 1 1 307.2 602.453333a85.333333 85.333333 0 0 0-37.376 37.376c-9.216 18.432-9.216 47.445333-9.216 105.642667v17.066667a25.770667 25.770667 0 0 1-26.453333 25.258666z"  /></svg>