<?xml version="1.0" standalone="no"?><!DOCTYPE svg PUBLIC "-//W3C//DTD SVG 1.1//EN" "http://www.w3.org/Graphics/SVG/1.1/DTD/svg11.dtd"><svg class="icon" width="64px" height="64.00px" viewBox="0 0 1024 1024" version="1.1" xmlns="http://www.w3.org/2000/svg"><path  d="M907.946667 964.266667H107.52c-29.013333 0-52.906667-23.893333-52.906667-52.906667 0-58.026667 47.786667-105.813333 105.813334-105.813333H614.4c104.106667 0 187.733333-83.626667 187.733333-187.733334s-83.626667-187.733333-187.733333-187.733333c-13.653333 0-25.6-11.946667-25.6-25.6v-107.52c0-13.653333 11.946667-25.6 25.6-25.6 191.146667 0 346.453333 155.306667 346.453333 346.453333 0 69.973333-22.186667 139.946667-61.44 196.266667 35.84 17.066667 61.44 52.906667 61.44 95.573333-1.706667 30.72-23.893333 54.613333-52.906666 54.613334zM160.426667 858.453333c-30.72 0-54.613333 23.893333-54.613334 54.613334l800.426667 1.706666c1.706667-30.72-23.893333-56.32-52.906667-56.32h-1.706666c-10.24 0-18.773333-5.12-23.893334-15.36-3.413333-8.533333-1.706667-20.48 5.12-27.306666 49.493333-54.613333 75.093333-124.586667 75.093334-196.266667 0-153.6-117.76-279.893333-269.653334-293.546667v56.32C759.466667 394.24 853.333333 494.933333 853.333333 619.52c0 131.413333-107.52 238.933333-238.933333 238.933333H160.426667zM460.8 698.026667h-66.56c-29.013333 0-52.906667-23.893333-52.906667-52.906667v-1.706667c-40.96-3.413333-73.386667-37.546667-73.386666-78.506666V192.853333c0-34.133333 22.186667-64.853333 52.906666-75.093333v-5.12c0-29.013333 23.893333-52.906667 52.906667-52.906667h107.52c29.013333 0 52.906667 23.893333 52.906667 52.906667v5.12c30.72 10.24 52.906667 39.253333 52.906666 75.093333v373.76c0 40.96-32.426667 75.093333-73.386666 78.506667v1.706667c0 27.306667-23.893333 51.2-52.906667 51.2zM373.76 110.933333l-1.706667 27.306667c0 13.653333-11.946667 25.6-25.6 25.6-15.36 0-27.306667 11.946667-27.306666 27.306667v373.76c0 15.36 11.946667 27.306667 27.306666 27.306666h20.48c13.653333 0 25.6 11.946667 25.6 25.6v27.306667l68.266667 1.706667 1.706667-27.306667c0-13.653333 11.946667-25.6 25.6-25.6h20.48c15.36 0 27.306667-11.946667 27.306666-27.306667V192.853333c0-15.36-11.946667-27.306667-27.306666-27.306666-13.653333 0-25.6-11.946667-25.6-25.6V112.64l-109.226667-1.706667z"  /></svg>