<?xml version="1.0" standalone="no"?><!DOCTYPE svg PUBLIC "-//W3C//DTD SVG 1.1//EN" "http://www.w3.org/Graphics/SVG/1.1/DTD/svg11.dtd"><svg class="icon" width="64px" height="64.00px" viewBox="0 0 1024 1024" version="1.1" xmlns="http://www.w3.org/2000/svg"><path  d="M498.346667 989.866667h-341.333334c-52.906667 0-95.573333-42.666667-95.573333-95.573334V129.706667C61.44 76.8 104.106667 34.133333 157.013333 34.133333h648.533334c52.906667 0 95.573333 42.666667 95.573333 95.573334v278.186666c0 13.653333-11.946667 25.6-25.6 25.6s-25.6-11.946667-25.6-25.6V129.706667c0-23.893333-20.48-44.373333-44.373333-44.373334h-648.533334C133.12 85.333333 112.64 105.813333 112.64 129.706667v764.586666c0 23.893333 20.48 44.373333 44.373333 44.373334h341.333334c13.653333 0 25.6 11.946667 25.6 25.6S512 989.866667 498.346667 989.866667z"  /><path  d="M699.733333 325.973333H262.826667c-13.653333 0-25.6-11.946667-25.6-25.6s11.946667-25.6 25.6-25.6h375.466666l-35.84-34.133333c-10.24-10.24-10.24-25.6 0-35.84 10.24-10.24 25.6-10.24 35.84 0l80.213334 78.506667c6.826667 6.826667 10.24 18.773333 5.12 27.306666-3.413333 8.533333-11.946667 15.36-23.893334 15.36zM599.04 979.626667c-5.12 0-10.24-1.706667-13.653333-3.413334-6.826667-5.12-11.946667-13.653333-11.946667-22.186666l5.12-131.413334c0-5.12 1.706667-8.533333 3.413333-13.653333l218.453334-329.386667c3.413333-5.12 10.24-10.24 17.066666-10.24 6.826667-1.706667 13.653333 0 18.773334 3.413334l114.346666 76.8c11.946667 8.533333 15.36 23.893333 6.826667 35.84L740.693333 913.066667c-3.413333 3.413333-6.826667 6.826667-10.24 8.533333l-119.466666 56.32c-3.413333 1.706667-6.826667 1.706667-11.946667 1.706667z m30.72-148.48l-3.413333 81.92 75.093333-34.133334 199.68-302.08-71.68-47.786666-199.68 302.08z m88.746667 68.266666z"  /></svg>