<?xml version="1.0" standalone="no"?><!DOCTYPE svg PUBLIC "-//W3C//DTD SVG 1.1//EN" "http://www.w3.org/Graphics/SVG/1.1/DTD/svg11.dtd"><svg class="icon" width="64px" height="64.00px" viewBox="0 0 1024 1024" version="1.1" xmlns="http://www.w3.org/2000/svg"><path  d="M686.08 972.8a266.24 266.24 0 0 1-109.226667-22.186667 262.826667 262.826667 0 0 1-93.866666-61.44 288.426667 288.426667 0 0 1-61.44-93.866666 279.893333 279.893333 0 0 1 0-218.453334 288.426667 288.426667 0 0 1 61.44-93.866666 262.826667 262.826667 0 0 1 93.866666-61.44 285.013333 285.013333 0 0 1 218.453334 0 274.773333 274.773333 0 0 1 155.306666 155.306666 279.893333 279.893333 0 0 1 0 218.453334 274.773333 274.773333 0 0 1-155.306666 155.306666 266.24 266.24 0 0 1-109.226667 22.186667z m0-522.24a237.226667 237.226667 0 0 0-90.453333 17.066667 233.813333 233.813333 0 0 0-76.8 51.2 262.826667 262.826667 0 0 0-51.2 76.8 274.773333 274.773333 0 0 0-17.066667 90.453333 274.773333 274.773333 0 0 0 17.066667 90.453333 262.826667 262.826667 0 0 0 51.2 76.8 233.813333 233.813333 0 0 0 76.8 51.2 254.293333 254.293333 0 0 0 180.906666 0 235.52 235.52 0 0 0 128-128 247.466667 247.466667 0 0 0 0-180.906666 235.52 235.52 0 0 0-128-128 237.226667 237.226667 0 0 0-90.453333-17.066667z"  /><path  d="M931.84 798.72H440.32a25.6 25.6 0 1 1 0-51.2h491.52a25.6 25.6 0 1 1 0 51.2zM931.84 624.64H440.32a25.6 25.6 0 0 1 0-51.2h491.52a25.6 25.6 0 0 1 0 51.2z"  /><path  d="M650.24 971.093333a27.306667 27.306667 0 0 1-25.6-17.066666 868.693333 868.693333 0 0 1-18.773333-530.773334 23.893333 23.893333 0 0 1 30.72-17.066666 23.893333 23.893333 0 0 1 17.066666 30.72 827.733333 827.733333 0 0 0 20.48 498.346666 27.306667 27.306667 0 0 1-15.36 34.133334zM723.626667 971.093333h-8.533334a27.306667 27.306667 0 0 1-15.36-34.133333 808.96 808.96 0 0 0 47.786667-278.186667 875.52 875.52 0 0 0-29.013333-220.16 23.893333 23.893333 0 0 1 17.066666-30.72 27.306667 27.306667 0 0 1 32.426667 17.066667 906.24 906.24 0 0 1 30.72 233.813333 884.053333 884.053333 0 0 1-51.2 296.96 25.6 25.6 0 0 1-23.893333 15.36z"  /><path  d="M308.906667 827.733333h-170.666667A87.04 87.04 0 0 1 76.8 802.133333 87.04 87.04 0 0 1 51.2 738.986667V138.24a83.626667 83.626667 0 0 1 25.6-61.44A87.04 87.04 0 0 1 138.24 51.2h689.493333a87.04 87.04 0 0 1 87.04 87.04v199.68a25.6 25.6 0 1 1-51.2 0V138.24a37.546667 37.546667 0 0 0-10.24-25.6 39.253333 39.253333 0 0 0-27.306666-10.24H138.24a37.546667 37.546667 0 0 0-25.6 10.24A34.133333 34.133333 0 0 0 102.4 138.24v600.746667a39.253333 39.253333 0 0 0 10.24 27.306666 39.253333 39.253333 0 0 0 27.306667 10.24h168.96a25.6 25.6 0 0 1 0 51.2z"  /><path  d="M889.173333 276.48H76.8a25.6 25.6 0 0 1 0-51.2h812.373333a25.6 25.6 0 0 1 0 51.2z"  /><path  d="M308.906667 276.48a25.6 25.6 0 0 1-25.6-25.6V76.8a25.6 25.6 0 0 1 51.2 0v174.08a25.6 25.6 0 0 1-25.6 25.6zM482.986667 276.48a25.6 25.6 0 0 1-25.6-25.6V76.8a25.6 25.6 0 1 1 51.2 0v174.08a25.6 25.6 0 0 1-25.6 25.6z"  /></svg>