<?xml version="1.0" standalone="no"?><!DOCTYPE svg PUBLIC "-//W3C//DTD SVG 1.1//EN" "http://www.w3.org/Graphics/SVG/1.1/DTD/svg11.dtd"><svg class="icon" width="64px" height="64.00px" viewBox="0 0 1024 1024" version="1.1" xmlns="http://www.w3.org/2000/svg"><path  d="M366.933333 947.2H358.4A465.92 465.92 0 0 1 54.613333 575.146667a474.453333 474.453333 0 0 1 34.133334-247.466667 479.573333 479.573333 0 0 1 157.013333-192.853333A484.693333 484.693333 0 0 1 479.573333 51.2a464.213333 464.213333 0 0 1 426.666667 221.866667A450.56 450.56 0 0 1 972.8 512a25.6 25.6 0 0 1-51.2 0 411.306667 411.306667 0 0 0-59.733333-213.333333A404.48 404.48 0 0 0 699.733333 148.48 413.013333 413.013333 0 0 0 484.693333 102.4a406.186667 406.186667 0 0 0-209.92 75.093333 397.653333 397.653333 0 0 0-138.24 170.666667 406.186667 406.186667 0 0 0-30.72 220.16 411.306667 411.306667 0 0 0 88.746667 203.093333A397.653333 397.653333 0 0 0 375.466667 897.706667a27.306667 27.306667 0 0 1 15.36 34.133333 23.893333 23.893333 0 0 1-23.893334 15.36z"  /><path  d="M366.933333 884.053333a25.6 25.6 0 0 1-23.893333-17.066666A1008.64 1008.64 0 0 1 283.306667 512c0-179.2 37.546667-343.04 102.4-436.906667a25.6 25.6 0 1 1 42.666666 29.013334c-58.026667 85.333333-93.866667 240.64-93.866666 407.893333a950.613333 950.613333 0 0 0 56.32 337.92 25.6 25.6 0 0 1-13.653334 32.426667z"  /><path  d="M541.013333 508.586667H76.8a25.6 25.6 0 1 1 0-51.2h464.213333a25.6 25.6 0 1 1 0 51.2zM860.16 276.48H163.84a25.6 25.6 0 1 1 0-51.2h696.32a25.6 25.6 0 0 1 0 51.2zM424.96 740.693333H126.293333a25.6 25.6 0 1 1 0-51.2h298.666667a25.6 25.6 0 0 1 0 51.2z"  /><path  d="M706.56 390.826667a25.6 25.6 0 0 1-25.6-23.893334 634.88 634.88 0 0 0-85.333333-264.533333 25.6 25.6 0 0 1 8.533333-35.84 25.6 25.6 0 0 1 34.133333 10.24 686.08 686.08 0 0 1 93.866667 286.72 27.306667 27.306667 0 0 1-23.893333 27.306667zM715.093333 885.76a39.253333 39.253333 0 0 1-39.253333-39.253333 39.253333 39.253333 0 0 1 39.253333-40.96zM715.093333 885.76v-80.213333a40.96 40.96 0 0 1 40.96 40.96 39.253333 39.253333 0 0 1-40.96 39.253333zM715.093333 769.706667a25.6 25.6 0 0 1-25.6-25.6v-116.053334a25.6 25.6 0 0 1 51.2 0v116.053334a25.6 25.6 0 0 1-25.6 25.6z"  /><path  d="M878.933333 972.8H551.253333a92.16 92.16 0 0 1-46.08-11.946667 88.746667 88.746667 0 0 1-34.133333-32.426666 85.333333 85.333333 0 0 1-13.653333-46.08 112.64 112.64 0 0 1 10.24-46.08L631.466667 510.293333a85.333333 85.333333 0 0 1 34.133333-39.253333 93.866667 93.866667 0 0 1 98.986667 0 85.333333 85.333333 0 0 1 34.133333 39.253333L962.56 836.266667a76.8 76.8 0 0 1 10.24 46.08 85.333333 85.333333 0 0 1-13.653333 46.08 93.866667 93.866667 0 0 1-80.213334 44.373333z m-163.84-464.213333a34.133333 34.133333 0 0 0-22.186666 6.826666 54.613333 54.613333 0 0 0-17.066667 17.066667l-162.133333 327.68a40.96 40.96 0 0 0-5.12 20.48 42.666667 42.666667 0 0 0 6.826666 20.48 34.133333 34.133333 0 0 0 15.36 15.36 46.08 46.08 0 0 0 20.48 5.12h327.68a46.08 46.08 0 0 0 20.48-5.12 34.133333 34.133333 0 0 0 15.36-15.36 29.013333 29.013333 0 0 0 6.826667-20.48 40.96 40.96 0 0 0-5.12-20.48l-162.133333-327.68a40.96 40.96 0 0 0-17.066667-17.066667 34.133333 34.133333 0 0 0-22.186667-6.826666z"  /></svg>