<?xml version="1.0" standalone="no"?><!DOCTYPE svg PUBLIC "-//W3C//DTD SVG 1.1//EN" "http://www.w3.org/Graphics/SVG/1.1/DTD/svg11.dtd"><svg class="icon" width="64px" height="64.00px" viewBox="0 0 1024 1024" version="1.1" xmlns="http://www.w3.org/2000/svg"><path  d="M518.826667 972.8a459.093333 459.093333 0 0 1-426.666667-285.013333 471.04 471.04 0 0 1-25.6-266.24A462.506667 462.506667 0 0 1 428.373333 59.733333 471.04 471.04 0 0 1 694.613333 85.333333a459.093333 459.093333 0 0 1 285.013334 426.666667 25.6 25.6 0 1 1-51.2 0A409.6 409.6 0 0 0 675.84 133.12 407.893333 407.893333 0 0 0 228.693333 221.866667a407.893333 407.893333 0 0 0-88.746666 447.146666A409.6 409.6 0 0 0 518.826667 921.6a25.6 25.6 0 1 1 0 51.2z"  /><path  d="M413.013333 960.853333a29.013333 29.013333 0 0 1-20.48-11.946666c-64.853333-93.866667-102.4-257.706667-102.4-436.906667s37.546667-343.04 102.4-436.906667a25.6 25.6 0 0 1 42.666667 29.013334C377.173333 189.44 341.333333 344.746667 341.333333 512s35.84 322.56 93.866667 407.893333a25.6 25.6 0 0 1-6.826667 35.84 27.306667 27.306667 0 0 1-15.36 5.12z"  /><path  d="M402.773333 508.586667H83.626667a25.6 25.6 0 0 1 0-51.2h319.146666a25.6 25.6 0 0 1 0 51.2zM866.986667 276.48H170.666667a25.6 25.6 0 0 1 0-51.2h696.32a25.6 25.6 0 0 1 0 51.2zM332.8 740.693333H133.12a25.6 25.6 0 1 1 0-51.2h199.68a25.6 25.6 0 0 1 0 51.2z"  /><path  d="M708.266667 363.52A27.306667 27.306667 0 0 1 682.666667 341.333333a619.52 619.52 0 0 0-80.213334-238.933333 25.6 25.6 0 0 1 8.533334-35.84 23.893333 23.893333 0 0 1 34.133333 10.24A628.053333 628.053333 0 0 1 733.866667 334.506667a27.306667 27.306667 0 0 1-22.186667 29.013333zM954.026667 972.8a20.48 20.48 0 0 1-17.066667-6.826667L790.186667 819.2a25.6 25.6 0 0 1 35.84-35.84l146.773333 146.773333a23.893333 23.893333 0 0 1 0 35.84 25.6 25.6 0 0 1-18.773333 6.826667z"  /><path  d="M657.066667 880.64a223.573333 223.573333 0 1 1 223.573333-223.573333 223.573333 223.573333 0 0 1-223.573333 223.573333z m0-395.946667a172.373333 172.373333 0 1 0 172.373333 172.373334 172.373333 172.373333 0 0 0-172.373333-172.373334z"  /></svg>