<?xml version="1.0" standalone="no"?><!DOCTYPE svg PUBLIC "-//W3C//DTD SVG 1.1//EN" "http://www.w3.org/Graphics/SVG/1.1/DTD/svg11.dtd"><svg class="icon" width="64px" height="64.00px" viewBox="0 0 1024 1024" version="1.1" xmlns="http://www.w3.org/2000/svg"><path  d="M773.12 699.733333a39.253333 39.253333 0 0 1-39.253333-39.253333 39.253333 39.253333 0 0 1 39.253333-40.96zM773.12 699.733333v-80.213333a40.96 40.96 0 0 1 40.96 40.96 39.253333 39.253333 0 0 1-40.96 39.253333z"  /><path  d="M773.12 972.8a54.613333 54.613333 0 0 1-23.893333-5.12 52.906667 52.906667 0 0 1-18.773334-15.36c-71.68-92.16-157.013333-216.746667-157.013333-291.84a197.973333 197.973333 0 0 1 58.026667-141.653333 201.386667 201.386667 0 0 1 283.306666 0 197.973333 197.973333 0 0 1 58.026667 141.653333c0 78.506667-97.28 216.746667-157.013333 291.84a52.906667 52.906667 0 0 1-18.773334 15.36 54.613333 54.613333 0 0 1-23.893333 5.12z m0-460.8a148.48 148.48 0 0 0-148.48 148.48c0 46.08 54.613333 143.36 146.773333 259.413333h5.12c88.746667-114.346667 145.066667-215.04 145.066667-259.413333a151.893333 151.893333 0 0 0-42.666667-105.813333 153.6 153.6 0 0 0-105.813333-42.666667z"  /><path  d="M512 972.8a471.04 471.04 0 0 1-174.08-34.133333 448.853333 448.853333 0 0 1-208.213333-168.96A452.266667 452.266667 0 0 1 51.2 515.413333a472.746667 472.746667 0 0 1 75.093333-257.706666 469.333333 469.333333 0 0 1 206.506667-170.666667 457.386667 457.386667 0 0 1 266.24-27.306667 462.506667 462.506667 0 0 1 235.52 122.88 447.146667 447.146667 0 0 1 128 235.52 25.6 25.6 0 0 1-18.773333 30.72 27.306667 27.306667 0 0 1-30.72-20.48 406.186667 406.186667 0 0 0-114.346667-208.213333 399.36 399.36 0 0 0-209.92-110.933333 404.48 404.48 0 0 0-237.226667 25.6A406.186667 406.186667 0 0 0 102.4 515.413333a404.48 404.48 0 0 0 69.973333 226.986667 413.013333 413.013333 0 0 0 184.32 148.48 402.773333 402.773333 0 0 0 237.226667 22.186667 25.6 25.6 0 1 1 10.24 51.2 561.493333 561.493333 0 0 1-92.16 8.533333z"  /><path  d="M407.893333 959.146667a27.306667 27.306667 0 0 1-22.186666-10.24c-63.146667-93.866667-102.4-257.706667-102.4-436.906667s39.253333-343.04 102.4-436.906667a25.6 25.6 0 1 1 42.666666 29.013334C370.346667 187.733333 334.506667 344.746667 334.506667 512s35.84 322.56 93.866666 407.893333a25.6 25.6 0 0 1-6.826666 35.84 20.48 20.48 0 0 1-13.653334 3.413334z"  /><path  d="M541.013333 508.586667H78.506667a25.6 25.6 0 1 1 0-51.2h462.506666a25.6 25.6 0 1 1 0 51.2zM860.16 276.48H163.84a25.6 25.6 0 1 1 0-51.2h696.32a25.6 25.6 0 0 1 0 51.2zM482.986667 740.693333H126.293333a25.6 25.6 0 1 1 0-51.2h356.693334a25.6 25.6 0 1 1 0 51.2z"  /><path  d="M706.56 392.533333a25.6 25.6 0 0 1-25.6-23.893333 634.88 634.88 0 0 0-85.333333-266.24 25.6 25.6 0 0 1 8.533333-35.84 25.6 25.6 0 0 1 34.133333 10.24 662.186667 662.186667 0 0 1 93.866667 288.426667 25.6 25.6 0 0 1-23.893333 27.306666z"  /></svg>