<?xml version="1.0" standalone="no"?><!DOCTYPE svg PUBLIC "-//W3C//DTD SVG 1.1//EN" "http://www.w3.org/Graphics/SVG/1.1/DTD/svg11.dtd"><svg class="icon" width="64px" height="64.00px" viewBox="0 0 1024 1024" version="1.1" xmlns="http://www.w3.org/2000/svg"><path  d="M896.341333 797.696H127.658667C76.117333 797.696 34.133333 755.712 34.133333 704.170667V161.450667c0-51.541333 41.984-93.525333 93.525334-93.525334h768.853333c51.541333 0 93.525333 41.984 93.525333 93.525334v542.72c-0.170667 51.541333-42.154667 93.525333-93.696 93.525333zM127.658667 119.296C104.277333 119.296 85.333333 138.24 85.333333 161.450667v542.72c0 23.210667 18.944 42.154667 42.325334 42.154666h768.853333c23.210667 0 42.325333-18.944 42.325333-42.154666V161.450667a42.325333 42.325333 0 0 0-42.325333-42.325334H127.658667z"  /><path  d="M512 955.904c-14.165333 0-25.6-11.434667-25.6-25.6v-158.378667c0-14.165333 11.434667-25.6 25.6-25.6s25.6 11.434667 25.6 25.6v158.378667c0 14.165333-11.434667 25.6-25.6 25.6z"  /><path  d="M828.586667 955.904h-633.173334c-14.165333 0-25.6-11.434667-25.6-25.6s11.434667-25.6 25.6-25.6h633.173334c14.165333 0 25.6 11.434667 25.6 25.6s-11.434667 25.6-25.6 25.6zM346.965333 607.573333c-14.165333 0-25.6-11.434667-25.6-25.6V283.648c0-14.165333 11.434667-25.6 25.6-25.6s25.6 11.434667 25.6 25.6V581.973333c0 14.165333-11.605333 25.6-25.6 25.6zM570.538667 607.573333c-14.165333 0-25.6-11.434667-25.6-25.6V310.272c0-14.165333 11.434667-25.6 25.6-25.6s25.6 11.434667 25.6 25.6V581.973333c0 14.165333-11.434667 25.6-25.6 25.6z"  /><path  d="M677.034667 309.248H464.042667c-14.165333 0-25.6-11.434667-25.6-25.6s11.434667-25.6 25.6-25.6h212.992c14.165333 0 25.6 11.434667 25.6 25.6s-11.434667 25.6-25.6 25.6z"  /></svg>