<?xml version="1.0" standalone="no"?><!DOCTYPE svg PUBLIC "-//W3C//DTD SVG 1.1//EN" "http://www.w3.org/Graphics/SVG/1.1/DTD/svg11.dtd"><svg class="icon" width="64px" height="64.00px" viewBox="0 0 1024 1024" version="1.1" xmlns="http://www.w3.org/2000/svg"><path  d="M896 737.28h-768c-51.712 0-93.866667-41.642667-93.866667-93.013333v-445.44c0-51.2 42.154667-93.013333 93.866667-93.013334h768c51.712 0 93.866667 41.642667 93.866667 93.013334v445.610666c0 51.2-41.984 92.842667-93.866667 92.842667z m-768-580.266667C104.448 157.013333 85.333333 175.786667 85.333333 198.826667v445.610666c0 23.04 19.114667 41.813333 42.666667 41.813334h768c23.552 0 42.666667-18.773333 42.666667-41.813334V198.826667c0-23.04-19.114667-41.813333-42.666667-41.813334h-768z"  /><path  d="M512 893.952c-14.165333 0-25.6-11.434667-25.6-25.6v-152.746667c0-14.165333 11.434667-25.6 25.6-25.6s25.6 11.434667 25.6 25.6v152.746667c0 14.165333-11.434667 25.6-25.6 25.6z"  /><path  d="M783.36 922.112H240.64c-14.165333 0-25.6-11.434667-25.6-25.6s11.434667-25.6 25.6-25.6h542.72c14.165333 0 25.6 11.434667 25.6 25.6s-11.434667 25.6-25.6 25.6zM347.648 656.896c-6.485333 0-13.141333-2.56-18.090667-7.509333l-52.394666-52.394667a25.582933 25.582933 0 0 1 0-36.181333l169.984-169.984c-6.314667-16.896-9.557333-34.986667-9.557334-53.248 0-83.626667 67.925333-151.552 151.552-151.552 24.576 0 49.152 6.144 70.826667 17.578666 7.168 3.754667 12.117333 10.752 13.312 18.773334 1.194667 8.021333-1.536 16.213333-7.168 21.845333l-61.781333 61.781333 16.213333 16.213334 61.781333-61.781334c5.802667-5.802667 13.824-8.362667 21.845334-7.168s15.018667 6.144 18.773333 13.312a152.695467 152.695467 0 0 1 17.578667 70.826667c0 83.456-67.925333 151.552-151.552 151.552-18.261333 0-36.352-3.242667-53.248-9.557333l-169.984 169.984c-4.949333 5.12-11.434667 7.509333-18.090667 7.509333z m-16.213333-77.994667l16.213333 16.213334L512 430.762667c8.021333-7.850667 20.138667-9.728 30.037333-4.437334 14.506667 7.68 30.378667 11.605333 46.933334 11.605334a100.522667 100.522667 0 0 0 100.352-100.352c0-3.754667-0.170667-7.338667-0.512-11.093334l-50.176 50.176c-10.069333 10.069333-26.282667 10.069333-36.181334 0L549.888 324.266667a25.429333 25.429333 0 0 1 0-36.181334l50.176-50.176c-3.584-0.341333-7.338667-0.682667-11.093333-0.682666a100.522667 100.522667 0 0 0-100.352 100.352c0 16.554667 3.925333 32.426667 11.605333 46.933333 5.290667 9.898667 3.413333 22.186667-4.437333 30.037333l-164.352 164.352z"  /></svg>