<?xml version="1.0" standalone="no"?><!DOCTYPE svg PUBLIC "-//W3C//DTD SVG 1.1//EN" "http://www.w3.org/Graphics/SVG/1.1/DTD/svg11.dtd"><svg class="icon" width="64px" height="64.00px" viewBox="0 0 1024 1024" version="1.1" xmlns="http://www.w3.org/2000/svg"><path  d="M624.128 553.472c-53.418667 52.565333-106.154667 106.154667-123.392 181.76a326.144 326.144 0 0 0 34.986667 230.229333l22.186666-38.4H144.896a131.754667 131.754667 0 0 1-31.744 0c-13.824-4.266667-9.557333-39.936-8.192-51.2 5.973333-47.957333 63.146667-81.408 102.4-99.157333a530.090667 530.090667 0 0 1 153.6-40.106667A26.624 26.624 0 0 0 385.706667 716.8a136.533333 136.533333 0 0 0 0-40.106667c0-2.901333-1.194667-22.528-1.024-10.581333a99.498667 99.498667 0 0 0-2.56-29.184C375.466667 614.4 355.84 601.258667 341.333333 583.509333a264.533333 264.533333 0 0 1-23.552-33.109333c-8.704-13.994667-13.824-31.402667-23.04-44.714667-7.338667-10.410667-15.872-11.264-26.453333-16.042666a54.954667 54.954667 0 0 1-23.210667-22.186667 103.765333 103.765333 0 0 1-12.288-78.506667 52.224 52.224 0 0 1 14.677334-24.917333 40.277333 40.277333 0 0 0 14.506666-33.28 404.992 404.992 0 0 1 10.410667-88.405333 193.877333 193.877333 0 0 1 86.357333-119.466667 225.109333 225.109333 0 0 1 121.173334-27.818667 202.922667 202.922667 0 0 1 128.682666 46.250667 215.04 215.04 0 0 1 66.048 127.146667 325.973333 325.973333 0 0 1 4.608 48.298666c0 15.701333-1.877333 31.573333 9.557334 44.032a62.464 62.464 0 0 1 19.797333 29.013334 99.84 99.84 0 0 1 0 47.104 92.672 92.672 0 0 1-19.968 40.96c-9.386667 10.922667-18.944 10.752-30.549333 17.066666-20.48 11.264-24.576 46.250667-38.058667 64.682667a25.770667 25.770667 0 0 0 22.186667 37.717333 25.6 25.6 0 0 0 0-51.2l22.016 38.570667a161.962667 161.962667 0 0 0 17.066666-33.109333 157.696 157.696 0 0 0 6.997334-17.066667c4.266667-13.653333-1.194667 10.24-6.144 5.12 0 1.024 9.898667-3.584 10.922666-3.925333a112.128 112.128 0 0 0 54.954667-60.074667 158.549333 158.549333 0 0 0 10.069333-94.378667 107.52 107.52 0 0 0-14.336-35.84 89.429333 89.429333 0 0 0-12.288-15.530666 31.573333 31.573333 0 0 0-6.314666-5.290667c-3.754667-3.242667-3.584-2.56 0 1.877333s4.949333 5.290667 3.242666-3.413333a180.906667 180.906667 0 0 0-3.072-45.909333 364.032 364.032 0 0 0-9.045333-48.64A275.968 275.968 0 0 0 685.738667 153.6a235.861333 235.861333 0 0 0-135.509334-100.522667c-102.4-28.842667-221.866667-1.024-286.378666 86.528a301.568 301.568 0 0 0-53.077334 161.621334 79.872 79.872 0 0 0 0 25.429333c4.949333 10.410667 0-6.485333 6.826667-4.266667 0 0-7.509333 5.973333-9.045333 7.338667a99.498667 99.498667 0 0 0-21.333334 34.133333 148.992 148.992 0 0 0-2.048 92.501334A123.904 123.904 0 0 0 238.933333 532.650667a105.984 105.984 0 0 0 10.069334 4.437333 29.866667 29.866667 0 0 0 5.461333 2.048c-4.096-5.632 0.853333 5.973333 0.853333 5.802667a118.272 118.272 0 0 0 8.192 16.042666 327.850667 327.850667 0 0 0 30.208 45.909334 401.578667 401.578667 0 0 0 32.597334 35.669333 30.208 30.208 0 0 1 8.192 13.141333c2.56 6.485333 0-8.192 0 4.437334V699.050667c0 5.290667-2.389333 14.165333 0 4.437333l24.746666-18.773333c-99.157333 12.288-222.72 41.130667-283.477333 131.242666-31.744 47.274667-41.642667 159.061333 38.4 162.304 105.642667 4.096 212.309333 0 317.952 0h125.781333A25.770667 25.770667 0 0 0 580.266667 939.690667a270.848 270.848 0 0 1-28.672-197.290667c17.066667-63.658667 63.317333-108.032 108.714666-153.6 23.552-22.186667-11.776-58.368-36.181333-35.328z"  /><path  d="M781.482667 930.304a139.093333 139.093333 0 1 1 136.533333-114.346667 140.8 140.8 0 0 1-136.533333 114.346667c-32.938667 0-33.109333 51.2 0 51.2a190.293333 190.293333 0 1 0-186.88-153.6 193.194667 193.194667 0 0 0 186.88 153.6c32.938667 0.512 32.938667-50.688 0-51.2z"  /><path  d="M781.482667 692.736a21.845333 21.845333 0 0 0-21.845334 21.504v54.954667H704.853333a22.016 22.016 0 0 0-22.186666 21.674666 21.845333 21.845333 0 0 0 21.504 21.845334h55.125333v54.613333a22.016 22.016 0 0 0 21.504 22.016 21.845333 21.845333 0 0 0 21.845333-21.504v-54.784h54.613334a21.845333 21.845333 0 0 0 22.016-21.504 21.845333 21.845333 0 0 0-21.504-21.845333h-54.442667v-54.613334a21.845333 21.845333 0 0 0-21.504-21.845333z"  /></svg>