<?xml version="1.0" standalone="no"?><!DOCTYPE svg PUBLIC "-//W3C//DTD SVG 1.1//EN" "http://www.w3.org/Graphics/SVG/1.1/DTD/svg11.dtd"><svg class="icon" width="64px" height="64.00px" viewBox="0 0 1024 1024" version="1.1" xmlns="http://www.w3.org/2000/svg"><path  d="M839.68 989.866667H184.32c-49.493333 0-90.453333-42.666667-90.453333-93.866667v-768c0-51.2 40.96-93.866667 90.453333-93.866667h657.066667c49.493333 0 90.453333 42.666667 90.453333 93.866667v768c-1.706667 51.2-42.666667 93.866667-92.16 93.866667zM184.32 85.333333C162.133333 85.333333 145.066667 104.106667 145.066667 128v768c0 23.893333 17.066667 42.666667 39.253333 42.666667h657.066667c20.48 0 39.253333-18.773333 39.253333-42.666667v-768c0-23.893333-17.066667-42.666667-39.253333-42.666667H184.32z"  /><path  d="M745.813333 727.04H278.186667c-13.653333 0-25.6-11.946667-25.6-25.6s11.946667-25.6 25.6-25.6h469.333333c13.653333 0 25.6 11.946667 25.6 25.6s-11.946667 25.6-27.306667 25.6zM745.813333 863.573333H278.186667c-13.653333 0-25.6-11.946667-25.6-25.6s11.946667-25.6 25.6-25.6h469.333333c13.653333 0 25.6 11.946667 25.6 25.6s-11.946667 25.6-27.306667 25.6z"  /><path  d="M512 610.986667c-126.293333 0-230.4-104.106667-230.4-230.4S385.706667 150.186667 512 150.186667s230.4 104.106667 230.4 230.4S638.293333 610.986667 512 610.986667z m0-409.6c-98.986667 0-179.2 80.213333-179.2 179.2S413.013333 559.786667 512 559.786667s179.2-80.213333 179.2-179.2S610.986667 201.386667 512 201.386667z"  /><path  d="M573.44 385.706667h-122.88c-13.653333 0-25.6-11.946667-25.6-25.6s11.946667-25.6 25.6-25.6h122.88c13.653333 0 25.6 11.946667 25.6 25.6s-11.946667 25.6-25.6 25.6zM573.44 447.146667h-122.88c-13.653333 0-25.6-11.946667-25.6-25.6s11.946667-25.6 25.6-25.6h122.88c13.653333 0 25.6 11.946667 25.6 25.6s-11.946667 25.6-25.6 25.6z"  /><path  d="M512 508.586667c-13.653333 0-25.6-11.946667-25.6-25.6v-122.88c0-13.653333 11.946667-25.6 25.6-25.6s25.6 11.946667 25.6 25.6v122.88c0 15.36-11.946667 25.6-25.6 25.6z"  /><path  d="M512 385.706667L431.786667 307.2c-10.24-10.24-10.24-25.6 0-35.84 10.24-10.24 25.6-10.24 35.84 0l42.666666 42.666667 42.666667-42.666667c10.24-10.24 25.6-10.24 35.84 0s10.24 25.6 0 35.84L512 385.706667z"  /></svg>