<?xml version="1.0" standalone="no"?><!DOCTYPE svg PUBLIC "-//W3C//DTD SVG 1.1//EN" "http://www.w3.org/Graphics/SVG/1.1/DTD/svg11.dtd"><svg class="icon" width="64px" height="64.00px" viewBox="0 0 1024 1024" version="1.1" xmlns="http://www.w3.org/2000/svg"><path  d="M808.96 989.866667H215.04C162.133333 989.866667 119.466667 947.2 119.466667 896v-768C119.466667 76.8 162.133333 34.133333 215.04 34.133333h595.626667c51.2 0 93.866667 42.666667 93.866666 93.866667v768c0 51.2-42.666667 93.866667-95.573333 93.866667zM215.04 85.333333C189.44 85.333333 170.666667 104.106667 170.666667 128v768c0 23.893333 18.773333 42.666667 44.373333 42.666667h595.626667c23.893333 0 44.373333-18.773333 44.373333-42.666667v-768C853.333333 104.106667 834.56 85.333333 808.96 85.333333H215.04z"  /><path  d="M798.72 860.16H532.48v-66.56c0-23.893333 20.48-44.373333 44.373333-44.373333h23.893334c-8.533333-11.946667-20.48-32.426667-20.48-61.44 0-58.026667 44.373333-85.333333 87.04-85.333334 51.2 0 83.626667 32.426667 83.626666 85.333334 0 30.72-11.946667 49.493333-22.186666 63.146666h23.893333c23.893333 0 44.373333 20.48 44.373333 44.373334v64.853333z m-213.333333-51.2h162.133333v-8.533333H699.733333c-30.72 0-30.72-29.013333-30.72-44.373334 0-17.066667 10.24-27.306667 17.066667-34.133333 8.533333-8.533333 15.36-17.066667 15.36-34.133333s-3.413333-34.133333-32.426667-34.133334c-35.84 0-35.84 25.6-35.84 34.133334 0 20.48 8.533333 29.013333 17.066667 37.546666 6.826667 6.826667 15.36 17.066667 15.36 32.426667 0 8.533333 0 13.653333-1.706667 20.48-3.413333 13.653333-15.36 23.893333-30.72 23.893333h-47.786666v6.826667zM732.16 327.68h-143.36c-13.653333 0-25.6-11.946667-25.6-25.6s11.946667-25.6 25.6-25.6h143.36c13.653333 0 25.6 11.946667 25.6 25.6s-11.946667 25.6-25.6 25.6zM732.16 459.093333h-143.36c-13.653333 0-25.6-11.946667-25.6-25.6s11.946667-25.6 25.6-25.6h143.36c13.653333 0 25.6 11.946667 25.6 25.6s-11.946667 25.6-25.6 25.6zM436.906667 709.973333h-143.36c-13.653333 0-25.6-11.946667-25.6-25.6s11.946667-25.6 25.6-25.6h143.36c13.653333 0 25.6 11.946667 25.6 25.6s-11.946667 25.6-25.6 25.6zM436.906667 839.68h-143.36c-13.653333 0-25.6-11.946667-25.6-25.6s11.946667-25.6 25.6-25.6h143.36c13.653333 0 25.6 11.946667 25.6 25.6s-11.946667 25.6-25.6 25.6z"  /><path  d="M380.586667 343.04c-8.533333 0-15.36-3.413333-20.48-10.24l-73.386667-92.16c-8.533333-10.24-6.826667-27.306667 3.413333-35.84 10.24-8.533333 27.306667-6.826667 35.84 3.413333l52.906667 68.266667 52.906667-68.266667c8.533333-10.24 25.6-13.653333 35.84-3.413333 10.24 8.533333 13.653333 25.6 3.413333 35.84l-73.386667 92.16c-1.706667 6.826667-8.533333 10.24-17.066666 10.24zM469.333333 436.906667H291.84c-13.653333 0-25.6-11.946667-25.6-25.6s11.946667-25.6 25.6-25.6h175.786667c13.653333 0 25.6 11.946667 25.6 25.6s-10.24 25.6-23.893334 25.6z"  /><path  d="M469.333333 343.04H291.84c-13.653333 0-25.6-11.946667-25.6-25.6s11.946667-25.6 25.6-25.6h175.786667c13.653333 0 25.6 11.946667 25.6 25.6s-10.24 25.6-23.893334 25.6z"  /><path  d="M380.586667 529.066667c-13.653333 0-25.6-11.946667-25.6-25.6V317.44c0-13.653333 11.946667-25.6 25.6-25.6s25.6 11.946667 25.6 25.6v186.026667c0 15.36-11.946667 25.6-25.6 25.6z"  /></svg>