<?xml version="1.0" standalone="no"?><!DOCTYPE svg PUBLIC "-//W3C//DTD SVG 1.1//EN" "http://www.w3.org/Graphics/SVG/1.1/DTD/svg11.dtd"><svg class="icon" width="64px" height="64.00px" viewBox="0 0 1024 1024" version="1.1" xmlns="http://www.w3.org/2000/svg"><path  d="M896 757.76h-768c-51.2 0-93.866667-42.666667-93.866667-93.866667V213.333333C34.133333 160.426667 76.8 119.466667 128 119.466667h768c51.2 0 93.866667 42.666667 93.866667 93.866666v450.56c0 52.906667-42.666667 93.866667-93.866667 93.866667zM128 170.666667C104.106667 170.666667 85.333333 189.44 85.333333 213.333333v450.56c0 23.893333 18.773333 42.666667 42.666667 42.666667h768c23.893333 0 42.666667-18.773333 42.666667-42.666667V213.333333c0-23.893333-18.773333-42.666667-42.666667-42.666666h-768z"  /><path  d="M486.4 732.16h51.2v136.533333h-51.2z"  /><path  d="M783.36 904.533333H240.64c-13.653333 0-25.6-11.946667-25.6-25.6s11.946667-25.6 25.6-25.6h542.72c13.653333 0 25.6 11.946667 25.6 25.6s-11.946667 25.6-25.6 25.6zM512 435.2l-116.053333-116.053333c-10.24-10.24-10.24-25.6 0-35.84s25.6-10.24 35.84 0l78.506666 78.506666 78.506667-78.506666c10.24-10.24 25.6-10.24 35.84 0s10.24 25.6 0 35.84L512 435.2z"  /><path  d="M626.346667 421.546667H397.653333c-13.653333 0-25.6-11.946667-25.6-25.6s11.946667-25.6 25.6-25.6h226.986667c13.653333 0 25.6 11.946667 25.6 25.6s-10.24 25.6-23.893333 25.6zM626.346667 518.826667H397.653333c-13.653333 0-25.6-11.946667-25.6-25.6s11.946667-25.6 25.6-25.6h226.986667c13.653333 0 25.6 11.946667 25.6 25.6s-10.24 25.6-23.893333 25.6z"  /><path  d="M512 600.746667c-13.653333 0-25.6-11.946667-25.6-25.6V395.946667c0-13.653333 11.946667-25.6 25.6-25.6s25.6 11.946667 25.6 25.6v179.2c0 13.653333-11.946667 25.6-25.6 25.6z"  /></svg>