<?xml version="1.0" standalone="no"?><!DOCTYPE svg PUBLIC "-//W3C//DTD SVG 1.1//EN" "http://www.w3.org/Graphics/SVG/1.1/DTD/svg11.dtd"><svg class="icon" width="64px" height="64.00px" viewBox="0 0 1024 1024" version="1.1" xmlns="http://www.w3.org/2000/svg"><path  d="M339.626667 837.973333c-17.066667 0-34.133333-6.826667-47.786667-20.48L80.213333 605.866667c-11.946667-11.946667-18.773333-27.306667-20.48-44.373334-1.706667-17.066667 5.12-34.133333 17.066667-46.08L539.306667 51.2c11.946667-11.946667 27.306667-17.066667 44.373333-17.066667l208.213333 3.413334c35.84 0 66.56 32.426667 68.266667 68.266666l3.413333 208.213334c0 17.066667-5.12 32.426667-17.066666 44.373333l-107.52 107.52c-10.24 10.24-25.6 10.24-35.84 0s-10.24-25.6 0-35.84l107.52-107.52c1.706667-1.706667 1.706667-3.413333 1.706666-6.826667l-3.413333-208.213333c0-8.533333-8.533333-17.066667-17.066667-17.066667L581.973333 85.333333c-3.413333 0-5.12 0-6.826666 1.706667L112.64 551.253333c-1.706667 1.706667-1.706667 5.12-1.706667 6.826667 0 3.413333 1.706667 8.533333 5.12 11.946667l211.626667 211.626666c5.12 5.12 15.36 6.826667 18.773333 3.413334l56.32-56.32c10.24-10.24 25.6-10.24 35.84 0s10.24 25.6 0 35.84l-56.32 56.32c-10.24 11.946667-25.6 17.066667-42.666666 17.066666z"  /><path  d="M591.010652 305.99586a61.44 61.44 0 1 0 86.887765-86.890797 61.44 61.44 0 1 0-86.887765 86.890797Z"  /><path  d="M679.253333 989.866667C520.533333 989.866667 392.533333 861.866667 392.533333 703.146667s128-286.72 286.72-286.72S964.266667 546.133333 964.266667 703.146667 836.266667 989.866667 679.253333 989.866667z m0-520.533334c-129.706667 0-235.52 105.813333-235.52 235.52S549.546667 938.666667 679.253333 938.666667s235.52-105.813333 235.52-235.52-105.813333-233.813333-235.52-233.813334z"  /><path  d="M629.76 812.373333c-10.24 0-20.48-3.413333-27.306667-11.946666L529.066667 723.626667c-10.24-10.24-10.24-25.6 0-35.84 10.24-10.24 25.6-10.24 35.84 0l64.853333 68.266666 162.133333-151.893333c10.24-10.24 27.306667-8.533333 35.84 1.706667 10.24 10.24 8.533333 27.306667-1.706666 35.84l-170.666667 160.426666c-6.826667 6.826667-17.066667 10.24-25.6 10.24z"  /></svg>