<?xml version="1.0" standalone="no"?><!DOCTYPE svg PUBLIC "-//W3C//DTD SVG 1.1//EN" "http://www.w3.org/Graphics/SVG/1.1/DTD/svg11.dtd"><svg class="icon" width="64px" height="64.00px" viewBox="0 0 1024 1024" version="1.1" xmlns="http://www.w3.org/2000/svg"><path  d="M512 85.333333c235.349333 0 426.666667 191.317333 426.666667 426.666667S747.349333 938.666667 512 938.666667 85.333333 747.349333 85.333333 512 276.650667 85.333333 512 85.333333m0-51.2C248.149333 34.133333 34.133333 248.149333 34.133333 512s214.016 477.866667 477.866667 477.866667 477.866667-214.016 477.866667-477.866667S775.850667 34.133333 512 34.133333z"  /><path  d="M512 751.104c-111.445333 0-202.24-90.624-202.24-202.24v-154.453333h51.2v154.453333c0 83.285333 67.754667 151.04 151.04 151.04s151.04-67.754667 151.04-151.04v-154.453333h51.2v154.453333c0 111.445333-90.794667 202.24-202.24 202.24z"  /><path  d="M732.672 420.010667H291.328c-14.165333 0-25.6-11.434667-25.6-25.6s11.434667-25.6 25.6-25.6h441.344c14.165333 0 25.6 11.434667 25.6 25.6s-11.434667 25.6-25.6 25.6zM512 640.682667c-50.688 0-91.818667-41.130667-91.818667-91.818667 0-50.688 41.130667-91.818667 91.818667-91.818667 50.688 0 91.818667 41.130667 91.818667 91.818667 0 50.688-41.130667 91.818667-91.818667 91.818667z m0-132.437334c-22.357333 0-40.618667 18.261333-40.618667 40.618667 0 22.357333 18.261333 40.618667 40.618667 40.618667 22.357333 0 40.618667-18.261333 40.618667-40.618667 0-22.357333-18.261333-40.618667-40.618667-40.618667z"  /></svg>