<?xml version="1.0" standalone="no"?><!DOCTYPE svg PUBLIC "-//W3C//DTD SVG 1.1//EN" "http://www.w3.org/Graphics/SVG/1.1/DTD/svg11.dtd"><svg class="icon" width="64px" height="64.00px" viewBox="0 0 1024 1024" version="1.1" xmlns="http://www.w3.org/2000/svg"><path  d="M512 682.666667c-155.306667 0-281.6-126.293333-281.6-281.6V119.466667c0-13.653333 11.946667-25.6 25.6-25.6h512c13.653333 0 25.6 11.946667 25.6 25.6v281.6C793.6 556.373333 667.306667 682.666667 512 682.666667zM281.6 145.066667v256C281.6 527.36 385.706667 631.466667 512 631.466667s230.4-102.4 230.4-230.4v-256h-460.8z"  /><path  d="M256 496.64c-97.28 0-196.266667-80.213333-196.266667-232.106667 0-15.36 11.946667-25.6 25.6-25.6h170.666667c13.653333 0 25.6 11.946667 25.6 25.6v206.506667c0 13.653333-11.946667 25.6-25.6 25.6zM112.64 290.133333c8.533333 92.16 61.44 141.653333 117.76 153.6v-153.6H112.64zM768 496.64c-13.653333 0-25.6-11.946667-25.6-25.6V264.533333c0-13.653333 11.946667-25.6 25.6-25.6h170.666667c13.653333 0 25.6 11.946667 25.6 25.6 0 151.893333-98.986667 232.106667-196.266667 232.106667zM793.6 290.133333v153.6c56.32-11.946667 109.226667-59.733333 117.76-153.6h-117.76zM512 805.546667c-13.653333 0-25.6-11.946667-25.6-25.6v-81.92c0-13.653333 11.946667-25.6 25.6-25.6s25.6 11.946667 25.6 25.6v81.92c0 15.36-11.946667 25.6-25.6 25.6z"  /><path  d="M704.853333 930.133333H320.853333c-8.533333 0-18.773333-5.12-22.186666-13.653333s-3.413333-18.773333 0-25.6l78.506666-124.586667c5.12-6.826667 13.653333-11.946667 22.186667-11.946666h220.16c8.533333 0 17.066667 3.413333 20.48 11.946666l83.626667 124.586667c5.12 8.533333 5.12 18.773333 1.706666 25.6s-11.946667 13.653333-20.48 13.653333z m-337.92-51.2h288.426667l-49.493333-73.386666H413.013333l-46.08 73.386666z"  /></svg>