<?xml version="1.0" standalone="no"?><!DOCTYPE svg PUBLIC "-//W3C//DTD SVG 1.1//EN" "http://www.w3.org/Graphics/SVG/1.1/DTD/svg11.dtd"><svg class="icon" width="64px" height="64.00px" viewBox="0 0 1024 1024" version="1.1" xmlns="http://www.w3.org/2000/svg"><path  d="M677.717333 109.226667a441.173333 441.173333 0 0 0-330.581333 0 435.712 435.712 0 0 0-26.453333 793.941333 440.32 440.32 0 0 0 383.488 0A435.712 435.712 0 0 0 677.717333 109.226667z m2.56 301.568l76.117334 1.365333 123.904 2.389333a385.024 385.024 0 0 1 7.168 77.141334v20.138666a727.381333 727.381333 0 0 0-102.4 6.144 276.138667 276.138667 0 0 0-97.28 35.328 183.637333 183.637333 0 0 0 10.24-61.952 187.733333 187.733333 0 0 0-17.749334-80.554666zM366.421333 156.501333a384 384 0 0 1 499.712 206.506667l-108.885333-2.048c-55.296 0-107.690667-1.877333-122.368-2.56H631.466667a25.6 25.6 0 0 0-19.114667 42.496 134.997333 134.997333 0 1 1-201.898667 0 25.941333 25.941333 0 0 0 4.096-27.477333A25.6 25.6 0 0 0 392.533333 358.4h-4.096c-13.482667 0-65.706667 1.706667-121.002666 2.56l-108.885334 2.048a389.12 389.12 0 0 1 207.872-206.506667zM587.093333 749.056c-5.290667 32.768-9.045333 78.506667-12.117333 115.2 0 6.314667-1.024 12.458667-1.536 18.090667a371.2 371.2 0 0 1-122.88 0c0-5.632-1.024-11.605333-1.536-17.066667-3.072-36.864-6.997333-82.602667-12.117333-115.541333a464.896 464.896 0 0 0-25.258667-99.669334c5.973333 3.754667 12.117333 7.168 18.432 10.410667a186.709333 186.709333 0 0 0 164.181333 0c6.144-3.242667 12.288-6.656 18.090667-10.410667a466.602667 466.602667 0 0 0-25.258667 98.986667zM336.384 553.472A277.162667 277.162667 0 0 0 238.933333 518.144 695.808 695.808 0 0 0 136.533333 512v-20.992a374.272 374.272 0 0 1 7.168-76.288l123.904-2.389333 76.117334-1.365334a186.709333 186.709333 0 0 0-17.066667 80.384 189.269333 189.269333 0 0 0 9.728 62.122667zM131.413333 563.2a727.04 727.04 0 0 1 97.962667 5.290667c100.693333 19.285333 136.533333 63.317333 157.013333 188.586666 4.778667 31.232 8.533333 75.946667 11.605334 112.128 0 3.413333 0 6.656 0.853333 9.898667a372.736 372.736 0 0 1-55.978667-21.845333A380.757333 380.757333 0 0 1 131.413333 563.2z m549.717334 293.888a372.736 372.736 0 0 1-55.978667 21.845333v-10.410666c2.901333-35.84 6.656-80.554667 11.605333-111.616 19.626667-125.269333 56.32-169.301333 157.013334-188.586667a732.16 732.16 0 0 1 98.986666-5.12 383.829333 383.829333 0 0 1-211.626666 293.888z"  /><path  d="M463.189333 594.602667A110.933333 110.933333 0 1 0 554.325333 392.533333a112.128 112.128 0 0 0-84.48 0 110.933333 110.933333 0 0 0-6.485333 202.24z m26.112-154.965334a60.245333 60.245333 0 0 1 45.397334 0 59.904 59.904 0 0 1 3.584 109.056 60.416 60.416 0 0 1-52.565334 0 59.904 59.904 0 0 1 3.584-109.056z"  /></svg>