<?xml version="1.0" standalone="no"?><!DOCTYPE svg PUBLIC "-//W3C//DTD SVG 1.1//EN" "http://www.w3.org/Graphics/SVG/1.1/DTD/svg11.dtd"><svg class="icon" width="64px" height="64.00px" viewBox="0 0 1024 1024" version="1.1" xmlns="http://www.w3.org/2000/svg"><path  d="M656.042667 877.568l-597.333334-4.266667a25.429333 25.429333 0 0 1-25.429333-25.6V154.965333a25.6 25.6 0 0 1 25.6-25.6h889.514667a25.6 25.6 0 0 1 25.6 25.6v448.170667a25.6 25.6 0 0 1-51.2 0V180.565333H84.138667v641.706667l572.074666 4.096a25.429333 25.429333 0 0 1 25.429334 25.770667 25.770667 25.770667 0 0 1-25.6 25.429333z"  /><path  d="M765.269333 909.994667a225.792 225.792 0 1 1 225.792-225.792 226.133333 226.133333 0 0 1-225.792 225.792z m0-400.384a174.592 174.592 0 1 0 174.592 174.592 174.762667 174.762667 0 0 0-174.592-174.592z"  /><path  d="M765.269333 788.48a25.6 25.6 0 0 1-25.6-25.6v-157.525333a25.6 25.6 0 0 1 51.2 0v157.525333a25.6 25.6 0 0 1-25.6 25.6z"  /><path  d="M844.117333 709.802667h-157.525333a25.6 25.6 0 1 1 0-51.2h157.525333a25.6 25.6 0 1 1 0 51.2zM503.466667 484.010667a26.112 26.112 0 0 1-13.994667-4.096l-444.928-290.133334a25.6 25.6 0 1 1 27.989333-41.984L503.466667 427.861333 934.4 147.797333a25.6 25.6 0 1 1 27.989333 42.837334l-444.928 290.133333a26.112 26.112 0 0 1-13.994666 3.242667z"  /></svg>