<?xml version="1.0" standalone="no"?><!DOCTYPE svg PUBLIC "-//W3C//DTD SVG 1.1//EN" "http://www.w3.org/Graphics/SVG/1.1/DTD/svg11.dtd"><svg class="icon" width="64px" height="64.00px" viewBox="0 0 1024 1024" version="1.1" xmlns="http://www.w3.org/2000/svg"><path  d="M863.573333 634.88c-10.24 0-18.773333-5.12-23.893333-15.36-5.12-13.653333 0-27.306667 13.653333-34.133333 52.906667-22.186667 85.333333-49.493333 85.333334-73.386667 0-52.906667-162.133333-128-426.666667-128S85.333333 459.093333 85.333333 512c0 18.773333 20.48 40.96 56.32 59.733333 11.946667 6.826667 17.066667 22.186667 10.24 34.133334s-22.186667 17.066667-34.133333 10.24C49.493333 580.266667 34.133333 539.306667 34.133333 512c0-116.053333 245.76-179.2 477.866667-179.2S989.866667 395.946667 989.866667 512c0 32.426667-20.48 80.213333-116.053334 119.466667-3.413333 1.706667-6.826667 3.413333-10.24 3.413333z"  /><path  d="M332.8 954.026667c-15.36 0-27.306667-3.413333-37.546667-8.533334-102.4-52.906667-44.373333-303.786667 59.733334-513.706666 92.16-187.733333 211.626667-325.973333 302.08-354.986667 27.306667-8.533333 51.2-8.533333 71.68 3.413333 23.893333 11.946667 52.906667 44.373333 54.613333 126.293334 0 13.653333-11.946667 25.6-25.6 25.6s-25.6-11.946667-25.6-25.6c0-42.666667-10.24-71.68-25.6-80.213334-8.533333-3.413333-18.773333-3.413333-32.426667 0-61.44 20.48-174.08 131.413333-273.066666 329.386667-119.466667 240.64-128 421.546667-81.92 445.44 15.36 8.533333 44.373333 0 76.8-23.893333 11.946667-8.533333 27.306667-5.12 35.84 5.12 8.533333 11.946667 5.12 27.306667-5.12 35.84-39.253333 25.6-71.68 35.84-93.866667 35.84z"  /><path  d="M691.2 954.026667c-10.24 0-22.186667-1.706667-34.133333-5.12-90.453333-29.013333-209.92-168.96-302.08-354.986667-105.813333-209.92-162.133333-460.8-59.733334-513.706667 20.48-10.24 56.32-17.066667 109.226667 15.36 11.946667 6.826667 15.36 22.186667 8.533333 35.84-6.826667 11.946667-22.186667 15.36-35.84 8.533334-25.6-15.36-46.08-20.48-59.733333-13.653334-46.08 23.893333-37.546667 204.8 81.92 445.44 98.986667 197.973333 209.92 308.906667 273.066667 329.386667 13.653333 5.12 23.893333 5.12 32.426666 0 44.373333-22.186667 37.546667-170.666667-47.786666-372.053333-5.12-13.653333 0-27.306667 13.653333-34.133334 13.653333-5.12 27.306667 0 34.133333 13.653334 78.506667 184.32 116.053333 390.826667 23.893334 436.906666-10.24 5.12-23.893333 8.533333-37.546667 8.533334z"  /><path  d="M529.066667 583.68c-39.253333 0-71.68-32.426667-71.68-71.68s32.426667-71.68 71.68-71.68 71.68 32.426667 71.68 71.68-32.426667 71.68-71.68 71.68z m0-92.16c-11.946667 0-20.48 10.24-20.48 20.48s10.24 20.48 20.48 20.48 20.48-10.24 20.48-20.48-8.533333-20.48-20.48-20.48z"  /></svg>