<?xml version="1.0" standalone="no"?><!DOCTYPE svg PUBLIC "-//W3C//DTD SVG 1.1//EN" "http://www.w3.org/Graphics/SVG/1.1/DTD/svg11.dtd"><svg class="icon" width="64px" height="64.00px" viewBox="0 0 1024 1024" version="1.1" xmlns="http://www.w3.org/2000/svg"><path  d="M757.077333 746.325333a443.733333 443.733333 0 0 1-68.266666-17.066666 24.576 24.576 0 0 0-7.68-2.901334c-40.277333-17.066667-40.106667-32.768-39.765334-44.885333v-11.605333a256.853333 256.853333 0 0 0 65.706667-107.861334c41.301333-13.653333 55.808-68.266667 55.808-95.914666 0-13.482667 0-49.322667-22.016-71.509334a58.368 58.368 0 0 0-17.066667-11.946666v-33.28a100.864 100.864 0 0 0 23.381334-30.208H785.066667a25.6 25.6 0 0 0 25.6-25.6v-81.92a25.6 25.6 0 0 0-24.746667-25.6 243.882667 243.882667 0 0 1-98.645333-24.576 138.24 138.24 0 0 1-35.84-28.672C625.152 106.496 595.456 76.8 512 76.8c-79.701333 0-110.762667 31.402667-135.68 56.490667A93.525333 93.525333 0 0 1 341.333333 159.914667a912.896 912.896 0 0 1-106.325333 26.453333 25.770667 25.770667 0 0 0-21.674667 25.258667v81.92a25.6 25.6 0 0 0 25.6 25.6h38.229334a101.376 101.376 0 0 0 12.970666 19.285333v43.861333a54.784 54.784 0 0 0-17.066666 11.946667c-22.528 22.528-22.357333 58.197333-22.357334 72.704 0 26.794667 14.848 81.408 57.173334 94.890667a259.072 259.072 0 0 0 64.341333 106.325333v14.848c0 10.752 0 24.746667-31.744 39.594667a24.405333 24.405333 0 0 0-4.778667 2.218666A423.082667 423.082667 0 0 1 256 746.325333C121.856 771.925333 80.213333 870.4 76.8 919.893333a26.282667 26.282667 0 0 0 6.826667 18.773334 25.429333 25.429333 0 0 0 18.773333 8.533333h819.2a25.6 25.6 0 0 0 25.6-25.6c0-1.365333-2.218667-140.458667-190.122667-175.274667z m-156.16-18.261333A81.408 81.408 0 0 0 621.568 750.933333l-83.968 45.738667v-47.616zM512 349.866667c-79.018667 0-136.533333-10.752-167.082667-30.72h333.141334c-31.402667 19.797333-88.746667 30.72-166.058667 30.72z m-247.466667-81.92v-35.328c30.72-6.485333 61.44-14.506667 91.477334-23.893334a139.434667 139.434667 0 0 0 56.661333-39.253333C434.688 147.114667 453.632 128 512 128c62.293333 0 80.384 18.090667 102.4 41.130667a189.44 189.44 0 0 0 49.322667 38.229333 296.448 296.448 0 0 0 94.890666 27.989333v32.597334h-494.933333z m63.146667 245.76c-18.944 0-26.282667-38.912-26.282667-47.957334 0-24.234667 4.608-32.597333 7.338667-35.328s2.048-2.048 6.656-2.048A25.6 25.6 0 0 0 341.333333 402.773333V375.466667q60.928 26.453333 170.666667 26.453333a468.48 468.48 0 0 0 160.085333-22.357333v23.210666a25.6 25.6 0 0 0 25.6 25.6c4.778667 0 6.314667 1.365333 6.826667 2.048 3.413333 3.242667 7.168 12.117333 7.168 36.522667 0 9.557333-7.68 46.762667-24.917333 46.762667a25.6 25.6 0 0 0-24.917334 19.626666 208.213333 208.213333 0 0 1-87.552 125.269334 25.429333 25.429333 0 0 0-11.093333 27.818666l-52.224 17.066667-60.757333-18.090667a25.770667 25.770667 0 0 0-10.752-26.965333 208.213333 208.213333 0 0 1-87.552-125.269333 25.770667 25.770667 0 0 0-24.234667-19.456z m85.333333 214.016l73.216 21.845333v46.250667l-87.893333-50.005334a72.192 72.192 0 0 0 14.848-18.090666z m-147.626666 68.266666a507.562667 507.562667 0 0 0 80.896-21.162666l139.946666 79.189333v41.984H134.656c11.776-32.085333 44.032-82.773333 130.901333-99.498667zM701.44 896v-29.013333a25.6 25.6 0 0 0-51.2 0v29.013333h-112.64v-41.130667l139.946667-75.776a505.856 505.856 0 0 0 70.144 17.066667c99.157333 18.432 131.925333 68.266667 142.848 99.498667z"  /><path  d="M512 158.72a25.6 25.6 0 0 0-25.6 25.6v40.96a25.6 25.6 0 1 0 51.2 0v-40.96A25.6 25.6 0 0 0 512 158.72z"  /></svg>