<?xml version="1.0" standalone="no"?><!DOCTYPE svg PUBLIC "-//W3C//DTD SVG 1.1//EN" "http://www.w3.org/Graphics/SVG/1.1/DTD/svg11.dtd"><svg class="icon" width="64px" height="64.00px" viewBox="0 0 1024 1024" version="1.1" xmlns="http://www.w3.org/2000/svg"><path  d="M803.84 947.2H220.16c-69.973333 0-126.293333-58.026667-126.293333-128s56.32-126.293333 126.293333-126.293333h332.8l121.173333 1.706666h129.706667c69.973333 0 126.293333 56.32 126.293333 126.293334 0 69.973333-56.32 126.293333-126.293333 126.293333zM220.16 744.106667c-40.96 0-75.093333 34.133333-75.093333 75.093333 0 40.96 34.133333 76.8 75.093333 76.8h583.68c40.96 0 75.093333-34.133333 75.093333-75.093333s-34.133333-75.093333-75.093333-75.093334h-129.706667l-121.173333-1.706666H220.16zM397.653333 274.773333c-23.893333 0-42.666667-18.773333-42.666666-42.666666s18.773333-42.666667 42.666666-42.666667 42.666667 18.773333 42.666667 42.666667-20.48 42.666667-42.666667 42.666666z m0-51.2c-5.12 0-8.533333 3.413333-8.533333 8.533334s3.413333 8.533333 8.533333 8.533333 8.533333-3.413333 8.533334-8.533333-3.413333-8.533333-8.533334-8.533334zM626.346667 274.773333c-23.893333 0-42.666667-18.773333-42.666667-42.666666s18.773333-42.666667 42.666667-42.666667 42.666667 18.773333 42.666666 42.666667-18.773333 42.666667-42.666666 42.666666z m0-51.2c-5.12 0-8.533333 3.413333-8.533334 8.533334s3.413333 8.533333 8.533334 8.533333 8.533333-3.413333 8.533333-8.533333-3.413333-8.533333-8.533333-8.533334zM680.96 542.72c-6.826667 0-15.36-3.413333-20.48-8.533333l-122.88-146.773334c-8.533333-10.24-6.826667-27.306667 3.413333-35.84 10.24-8.533333 27.306667-6.826667 35.84 3.413334l122.88 146.773333c8.533333 10.24 6.826667 27.306667-3.413333 35.84-3.413333 3.413333-10.24 5.12-15.36 5.12z"  /><path  d="M670.72 558.08H356.693333c-13.653333 0-25.6-11.946667-25.6-25.6s11.946667-25.6 25.6-25.6h315.733334c13.653333 0 25.6 11.946667 25.6 25.6-1.706667 13.653333-13.653333 25.6-27.306667 25.6z"  /><path  d="M663.893333 745.813333c-5.12 0-8.533333-1.706667-13.653333-3.413333l-307.2-187.733333c-11.946667-6.826667-15.36-23.893333-8.533333-35.84s23.893333-15.36 35.84-8.533334l307.2 187.733334c11.946667 6.826667 15.36 23.893333 8.533333 35.84-5.12 6.826667-13.653333 11.946667-22.186667 11.946666z"  /><path  d="M264.533333 653.653333c-59.733333 0-107.52-47.786667-107.52-107.52s47.786667-107.52 107.52-107.52 107.52 47.786667 107.52 107.52-49.493333 107.52-107.52 107.52z m0-163.84c-30.72 0-56.32 25.6-56.32 56.32 0 30.72 25.6 56.32 56.32 56.32 30.72 0 56.32-25.6 56.32-56.32 0-30.72-25.6-56.32-56.32-56.32zM764.586667 653.653333c-59.733333 0-107.52-47.786667-107.52-107.52s47.786667-107.52 107.52-107.52 107.52 47.786667 107.52 107.52-47.786667 107.52-107.52 107.52z m0-163.84c-30.72 0-56.32 25.6-56.32 56.32 0 30.72 25.6 56.32 56.32 56.32 30.72 0 56.32-25.6 56.32-56.32 0-30.72-25.6-56.32-56.32-56.32zM662.186667 390.826667H366.933333c-87.04 0-157.013333-69.973333-157.013333-157.013334s69.973333-157.013333 157.013333-157.013333h293.546667c87.04 0 157.013333 69.973333 157.013333 157.013333 0 85.333333-69.973333 157.013333-155.306666 157.013334zM366.933333 128c-58.026667 0-105.813333 47.786667-105.813333 105.813333 0 58.026667 47.786667 105.813333 105.813333 105.813334h293.546667c58.026667 0 105.813333-47.786667 105.813333-105.813334 0-58.026667-47.786667-105.813333-105.813333-105.813333H366.933333z"  /><path  d="M303.786667 853.333333c-18.773333 0-34.133333-15.36-34.133334-34.133333s15.36-34.133333 34.133334-34.133333 34.133333 15.36 34.133333 34.133333-15.36 34.133333-34.133333 34.133333z m0-51.2c-10.24 0-17.066667 6.826667-17.066667 17.066667s6.826667 17.066667 17.066667 17.066667 17.066667-6.826667 17.066666-17.066667-8.533333-17.066667-17.066666-17.066667zM581.973333 853.333333c-18.773333 0-34.133333-15.36-34.133333-34.133333s15.36-34.133333 34.133333-34.133333 34.133333 15.36 34.133334 34.133333-15.36 34.133333-34.133334 34.133333z m0-51.2c-10.24 0-17.066667 6.826667-17.066666 17.066667s6.826667 17.066667 17.066666 17.066667 17.066667-6.826667 17.066667-17.066667-8.533333-17.066667-17.066667-17.066667zM442.026667 853.333333c-18.773333 0-34.133333-15.36-34.133334-34.133333s15.36-34.133333 34.133334-34.133333 34.133333 15.36 34.133333 34.133333-15.36 34.133333-34.133333 34.133333z m0-51.2c-10.24 0-17.066667 6.826667-17.066667 17.066667s6.826667 17.066667 17.066667 17.066667 17.066667-6.826667 17.066666-17.066667-6.826667-17.066667-17.066666-17.066667zM720.213333 853.333333c-18.773333 0-34.133333-15.36-34.133333-34.133333s15.36-34.133333 34.133333-34.133333 34.133333 15.36 34.133334 34.133333-15.36 34.133333-34.133334 34.133333z m0-51.2c-10.24 0-17.066667 6.826667-17.066666 17.066667s6.826667 17.066667 17.066666 17.066667 17.066667-6.826667 17.066667-17.066667-6.826667-17.066667-17.066667-17.066667z"  /></svg>