<?xml version="1.0" standalone="no"?><!DOCTYPE svg PUBLIC "-//W3C//DTD SVG 1.1//EN" "http://www.w3.org/Graphics/SVG/1.1/DTD/svg11.dtd"><svg class="icon" width="64px" height="64.00px" viewBox="0 0 1024 1024" version="1.1" xmlns="http://www.w3.org/2000/svg"><path  d="M819.2 964.266667H204.8c-51.2 0-93.866667-42.666667-93.866667-93.866667V153.6C110.933333 102.4 153.6 59.733333 204.8 59.733333h614.4c51.2 0 93.866667 42.666667 93.866667 93.866667v716.8c0 51.2-42.666667 93.866667-93.866667 93.866667z m-614.4-853.333334c-23.893333 0-42.666667 18.773333-42.666667 42.666667v716.8c0 23.893333 18.773333 42.666667 42.666667 42.666667h614.4c23.893333 0 42.666667-18.773333 42.666667-42.666667V153.6c0-23.893333-18.773333-42.666667-42.666667-42.666667H204.8z"  /><path  d="M699.733333 418.133333H324.266667c-51.2 0-93.866667-42.666667-93.866667-93.866666v-34.133334c0-51.2 42.666667-93.866667 93.866667-93.866666h375.466666c51.2 0 93.866667 42.666667 93.866667 93.866666v34.133334c0 51.2-42.666667 93.866667-93.866667 93.866666z m-375.466666-170.666666c-23.893333 0-42.666667 18.773333-42.666667 42.666666v34.133334c0 23.893333 18.773333 42.666667 42.666667 42.666666h375.466666c23.893333 0 42.666667-18.773333 42.666667-42.666666v-34.133334c0-23.893333-18.773333-42.666667-42.666667-42.666666H324.266667z"  /><path  d="M290.133333 564.906667m-52.906666 0a52.906667 52.906667 0 1 0 105.813333 0 52.906667 52.906667 0 1 0-105.813333 0Z"  /><path  d="M508.586667 564.906667m-52.906667 0a52.906667 52.906667 0 1 0 105.813333 0 52.906667 52.906667 0 1 0-105.813333 0Z"  /><path  d="M725.333333 564.906667m-52.906666 0a52.906667 52.906667 0 1 0 105.813333 0 52.906667 52.906667 0 1 0-105.813333 0Z"  /><path  d="M290.133333 742.4m-52.906666 0a52.906667 52.906667 0 1 0 105.813333 0 52.906667 52.906667 0 1 0-105.813333 0Z"  /><path  d="M508.586667 742.4m-52.906667 0a52.906667 52.906667 0 1 0 105.813333 0 52.906667 52.906667 0 1 0-105.813333 0Z"  /><path  d="M725.333333 742.4m-52.906666 0a52.906667 52.906667 0 1 0 105.813333 0 52.906667 52.906667 0 1 0-105.813333 0Z"  /></svg>