<?xml version="1.0" standalone="no"?><!DOCTYPE svg PUBLIC "-//W3C//DTD SVG 1.1//EN" "http://www.w3.org/Graphics/SVG/1.1/DTD/svg11.dtd"><svg class="icon" width="64px" height="64.00px" viewBox="0 0 1024 1024" version="1.1" xmlns="http://www.w3.org/2000/svg"><path  d="M539.306667 803.84H192.853333c-52.906667 0-93.866667-42.666667-93.866666-93.866667v-580.266666C97.28 76.8 139.946667 34.133333 192.853333 34.133333h486.4c52.906667 0 93.866667 42.666667 93.866667 93.866667v482.986667c0 13.653333-11.946667 25.6-25.6 25.6s-25.6-11.946667-25.6-25.6V128c0-23.893333-18.773333-42.666667-42.666667-42.666667H192.853333C168.96 85.333333 148.48 104.106667 148.48 128v580.266667c0 23.893333 18.773333 42.666667 42.666667 42.666666h348.16c13.653333 0 25.6 11.946667 25.6 25.6s-10.24 27.306667-25.6 27.306667z"  /><path  d="M442.026667 525.653333h-105.813334c-13.653333 0-25.6-11.946667-25.6-25.6V273.066667c0-8.533333 3.413333-15.36 10.24-20.48l105.813334-75.093334c8.533333-5.12 18.773333-6.826667 27.306666-1.706666 8.533333 5.12 13.653333 13.653333 13.653334 22.186666v302.08c0 13.653333-10.24 25.6-25.6 25.6z m-80.213334-51.2h54.613334V247.466667l-54.613334 39.253333v187.733333z"  /><path  d="M547.84 525.653333c-13.653333 0-25.6-11.946667-25.6-25.6v-145.066666l-95.573333-68.266667c-11.946667-8.533333-13.653333-23.893333-5.12-35.84 8.533333-11.946667 23.893333-13.653333 35.84-5.12l105.813333 75.093333c6.826667 5.12 10.24 11.946667 10.24 20.48v158.72c0 13.653333-10.24 25.6-25.6 25.6z"  /><path  d="M587.093333 525.653333H283.306667c-13.653333 0-25.6-11.946667-25.6-25.6s11.946667-25.6 25.6-25.6h302.08c13.653333 0 25.6 11.946667 25.6 25.6s-10.24 25.6-23.893334 25.6z"  /><path  d="M505.173333 631.466667H285.013333c-13.653333 0-25.6-11.946667-25.6-25.6s11.946667-25.6 25.6-25.6h220.16c13.653333 0 25.6 11.946667 25.6 25.6s-11.946667 25.6-25.6 25.6z"  /><path  d="M774.826667 892.586667c-5.12 0-8.533333-1.706667-11.946667-3.413334l-39.253333-22.186666-39.253334 22.186666c-8.533333 5.12-18.773333 5.12-27.306666-1.706666s-11.946667-15.36-10.24-25.6l8.533333-44.373334-32.426667-30.72c-6.826667-6.826667-10.24-17.066667-6.826666-27.306666s11.946667-17.066667 22.186666-17.066667l44.373334-5.12 18.773333-40.96c3.413333-8.533333 13.653333-15.36 23.893333-15.36s18.773333 5.12 23.893334 15.36l18.773333 40.96 44.373333 5.12c10.24 1.706667 18.773333 8.533333 22.186667 17.066667s0 20.48-6.826667 27.306666l-32.426666 30.72 8.533333 44.373334c1.706667 10.24-1.706667 20.48-10.24 25.6-8.533333 3.413333-13.653333 5.12-18.773333 5.12z m-51.2-80.213334c5.12 0 8.533333 1.706667 11.946666 3.413334l3.413334 1.706666v-3.413333c-1.706667-8.533333 1.706667-17.066667 8.533333-23.893333l1.706667-1.706667h-3.413334c-8.533333-1.706667-17.066667-6.826667-20.48-15.36l-1.706666-3.413333-1.706667 3.413333c-3.413333 8.533333-11.946667 13.653333-20.48 15.36h-3.413333l1.706666 1.706667c6.826667 6.826667 10.24 15.36 8.533334 23.893333v3.413333l3.413333-1.706666c3.413333-3.413333 6.826667-3.413333 11.946667-3.413334z"  /><path  d="M723.626667 989.866667c-112.64 0-203.093333-90.453333-203.093334-203.093334s90.453333-203.093333 203.093334-203.093333c112.64 0 203.093333 90.453333 203.093333 203.093333S834.56 989.866667 723.626667 989.866667z m0-354.986667c-83.626667 0-151.893333 68.266667-151.893334 151.893333s68.266667 151.893333 151.893334 151.893334 151.893333-68.266667 151.893333-151.893334-68.266667-151.893333-151.893333-151.893333z"  /></svg>