<?xml version="1.0" standalone="no"?><!DOCTYPE svg PUBLIC "-//W3C//DTD SVG 1.1//EN" "http://www.w3.org/Graphics/SVG/1.1/DTD/svg11.dtd"><svg class="icon" width="64px" height="64.00px" viewBox="0 0 1024 1024" version="1.1" xmlns="http://www.w3.org/2000/svg"><path  d="M919.210667 472.064l-155.818667-56.661333a40.789333 40.789333 0 0 1-26.794667-38.229334v-152.576a69.973333 69.973333 0 0 0-69.802666-69.802666H114.176a69.802667 69.802667 0 0 0-69.802667 69.802666v486.4a69.802667 69.802667 0 0 0 69.802667 69.802667h65.706667a113.834667 113.834667 0 0 0 221.866666 0h220.16a113.834667 113.834667 0 0 0 221.866667 0h65.877333a69.802667 69.802667 0 0 0 69.802667-69.802667v-152.576a92.16 92.16 0 0 0-60.245333-86.357333zM290.986667 818.005333a62.805333 62.805333 0 1 1 62.805333-62.805333 62.805333 62.805333 0 0 1-62.805333 62.805333z m442.026666 0a62.805333 62.805333 0 1 1 62.805334-62.805333A62.805333 62.805333 0 0 1 733.866667 818.005333z m195.413334-107.008a18.602667 18.602667 0 0 1-18.602667 18.602667h-65.877333a113.834667 113.834667 0 0 0-221.866667 0h-220.16a113.834667 113.834667 0 0 0-221.866667 0H114.176a18.602667 18.602667 0 0 1-18.602667-18.602667v-486.4a18.602667 18.602667 0 0 1 18.602667-18.602666h552.618667a18.602667 18.602667 0 0 1 18.602666 18.602666v152.576a92.16 92.16 0 0 0 60.416 86.357334l155.818667 56.661333a40.789333 40.789333 0 0 1 26.794667 38.229333z"  /><path  d="M423.594667 375.466667h-62.805334v-62.464a25.6 25.6 0 0 0-51.2 0V375.466667h-62.805333a25.6 25.6 0 0 0 0 51.2h62.805333v62.805333a25.6 25.6 0 0 0 51.2 0V426.666667h62.805334a25.6 25.6 0 0 0 0-51.2z"  /></svg>