<?xml version="1.0" standalone="no"?><!DOCTYPE svg PUBLIC "-//W3C//DTD SVG 1.1//EN" "http://www.w3.org/Graphics/SVG/1.1/DTD/svg11.dtd"><svg class="icon" width="64px" height="64.00px" viewBox="0 0 1024 1024" version="1.1" xmlns="http://www.w3.org/2000/svg"><path  d="M512 989.866667C249.173333 989.866667 34.133333 774.826667 34.133333 512S249.173333 34.133333 512 34.133333s477.866667 215.04 477.866667 477.866667-215.04 477.866667-477.866667 477.866667z m0-904.533334C276.48 85.333333 85.333333 276.48 85.333333 512s191.146667 426.666667 426.666667 426.666667 426.666667-191.146667 426.666667-426.666667S747.52 85.333333 512 85.333333z"  /><path  d="M672.426667 677.546667H351.573333c-83.626667 0-150.186667-68.266667-150.186666-150.186667s68.266667-150.186667 150.186666-150.186667h320.853334c83.626667 0 150.186667 68.266667 150.186666 150.186667s-66.56 150.186667-150.186666 150.186667zM351.573333 426.666667c-54.613333 0-98.986667 44.373333-98.986666 98.986666s44.373333 98.986667 98.986666 98.986667h320.853334c54.613333 0 98.986667-44.373333 98.986666-98.986667S727.04 426.666667 672.426667 426.666667H351.573333z"  /><path  d="M679.253333 677.546667c-80.213333 0-145.066667-64.853333-145.066666-145.066667s64.853333-145.066667 145.066666-145.066667 145.066667 64.853333 145.066667 145.066667c-1.706667 80.213333-66.56 145.066667-145.066667 145.066667z m0-238.933334c-51.2 0-93.866667 42.666667-93.866666 93.866667s42.666667 93.866667 93.866666 93.866667 93.866667-42.666667 93.866667-93.866667c-1.706667-51.2-42.666667-93.866667-93.866667-93.866667z"  /></svg>