<?xml version="1.0" standalone="no"?><!DOCTYPE svg PUBLIC "-//W3C//DTD SVG 1.1//EN" "http://www.w3.org/Graphics/SVG/1.1/DTD/svg11.dtd"><svg class="icon" width="64px" height="64.00px" viewBox="0 0 1024 1024" version="1.1" xmlns="http://www.w3.org/2000/svg"><path  d="M783.36 447.146667H240.64C126.293333 447.146667 34.133333 354.986667 34.133333 240.64S126.293333 34.133333 240.64 34.133333h542.72C897.706667 34.133333 989.866667 126.293333 989.866667 240.64s-92.16 206.506667-206.506667 206.506667zM240.64 85.333333C155.306667 85.333333 85.333333 155.306667 85.333333 240.64s69.973333 155.306667 155.306667 155.306667h542.72c85.333333 0 155.306667-69.973333 155.306667-155.306667S868.693333 85.333333 783.36 85.333333H240.64zM783.36 989.866667H240.64C126.293333 989.866667 34.133333 897.706667 34.133333 783.36s92.16-206.506667 206.506667-206.506667h542.72c114.346667 0 206.506667 92.16 206.506667 206.506667S897.706667 989.866667 783.36 989.866667zM240.64 628.053333c-85.333333 0-155.306667 69.973333-155.306667 155.306667S155.306667 938.666667 240.64 938.666667h542.72c85.333333 0 155.306667-69.973333 155.306667-155.306667s-69.973333-155.306667-155.306667-155.306667H240.64z"  /><path  d="M783.36 312.32c-39.253333 0-71.68-32.426667-71.68-69.973333s32.426667-69.973333 71.68-69.973334S853.333333 204.8 853.333333 242.346667s-30.72 69.973333-69.973333 69.973333z m0-90.453333c-10.24 0-20.48 8.533333-20.48 18.773333s8.533333 18.773333 20.48 18.773333c10.24 0 18.773333-8.533333 18.773333-18.773333s-8.533333-18.773333-18.773333-18.773333zM240.64 853.333333c-39.253333 0-69.973333-32.426667-69.973333-69.973333s32.426667-71.68 69.973333-71.68 71.68 32.426667 71.68 71.68-32.426667 69.973333-71.68 69.973333z m0-88.746666c-10.24 0-18.773333 8.533333-18.773333 20.48 0 10.24 8.533333 18.773333 18.773333 18.773333 10.24 0 20.48-8.533333 20.48-18.773333 0-11.946667-10.24-20.48-20.48-20.48z"  /></svg>