<?xml version="1.0" standalone="no"?><!DOCTYPE svg PUBLIC "-//W3C//DTD SVG 1.1//EN" "http://www.w3.org/Graphics/SVG/1.1/DTD/svg11.dtd"><svg class="icon" width="64px" height="64.00px" viewBox="0 0 1024 1024" version="1.1" xmlns="http://www.w3.org/2000/svg"><path  d="M896 930.133333h-768C76.8 930.133333 34.133333 887.466667 34.133333 836.266667V187.733333c0-51.2 42.666667-93.866667 93.866667-93.866666h768c51.2 0 93.866667 42.666667 93.866667 93.866666v648.533334c0 51.2-42.666667 93.866667-93.866667 93.866666z m-768-785.066666C104.106667 145.066667 85.333333 163.84 85.333333 187.733333v648.533334c0 23.893333 18.773333 42.666667 42.666667 42.666666h768c23.893333 0 42.666667-18.773333 42.666667-42.666666V187.733333c0-23.893333-18.773333-42.666667-42.666667-42.666666h-768z"  /><path  d="M817.493333 737.28H559.786667c-13.653333 0-25.6-11.946667-25.6-25.6s11.946667-25.6 25.6-25.6h257.706666c13.653333 0 25.6 11.946667 25.6 25.6s-10.24 25.6-25.6 25.6z"  /><path  d="M764.586667 814.08c-6.826667 0-13.653333-1.706667-18.773334-6.826667-10.24-10.24-10.24-25.6 0-35.84l58.026667-58.026666-58.026667-58.026667c-10.24-10.24-10.24-25.6 0-35.84s25.6-10.24 35.84 0l76.8 76.8c10.24 10.24 10.24 25.6 0 35.84l-76.8 76.8c-3.413333 3.413333-10.24 5.12-17.066666 5.12z"  /><path  d="M349.866667 602.453333C242.346667 602.453333 153.6 515.413333 153.6 406.186667s87.04-196.266667 196.266667-196.266667S546.133333 298.666667 546.133333 406.186667s-87.04 196.266667-196.266666 196.266666z m-141.653334-170.666666c11.946667 68.266667 71.68 119.466667 141.653334 119.466666s129.706667-51.2 141.653333-119.466666H208.213333z m0-51.2h285.013334c-11.946667-68.266667-71.68-119.466667-141.653334-119.466667s-131.413333 52.906667-143.36 119.466667z"  /><path  d="M349.866667 602.453333c-59.733333 0-90.453333-98.986667-90.453334-196.266666s30.72-196.266667 90.453334-196.266667 90.453333 98.986667 90.453333 196.266667-30.72 196.266667-90.453333 196.266666z m0-339.626666c-10.24 0-39.253333 49.493333-39.253334 145.066666s29.013333 145.066667 39.253334 145.066667 39.253333-49.493333 39.253333-145.066667-29.013333-145.066667-39.253333-145.066666z"  /><path  d="M520.533333 431.786667H180.906667c-13.653333 0-25.6-11.946667-25.6-25.6s11.946667-25.6 25.6-25.6h339.626666c13.653333 0 25.6 11.946667 25.6 25.6s-11.946667 25.6-25.6 25.6z"  /></svg>