<?xml version="1.0" standalone="no"?><!DOCTYPE svg PUBLIC "-//W3C//DTD SVG 1.1//EN" "http://www.w3.org/Graphics/SVG/1.1/DTD/svg11.dtd"><svg class="icon" width="64px" height="64.00px" viewBox="0 0 1024 1024" version="1.1" xmlns="http://www.w3.org/2000/svg"><path  d="M360.106667 981.333333H114.346667c-39.253333 0-69.973333-32.426667-69.973334-69.973333V104.106667C42.666667 66.56 75.093333 34.133333 114.346667 34.133333h626.346666c39.253333 0 69.973333 32.426667 69.973334 69.973334v250.88c0 13.653333-11.946667 25.6-25.6 25.6s-25.6-11.946667-25.6-25.6V104.106667c0-10.24-8.533333-18.773333-18.773334-18.773334H114.346667c-11.946667 0-20.48 8.533333-20.48 18.773334v805.546666c0 10.24 8.533333 18.773333 18.773333 18.773334H358.4c13.653333 0 25.6 11.946667 25.6 25.6s-10.24 27.306667-23.893333 27.306666z"  /><path  d="M600.746667 264.533333H220.16c-13.653333 0-25.6-11.946667-25.6-25.6s11.946667-25.6 25.6-25.6h380.586667c13.653333 0 25.6 11.946667 25.6 25.6s-11.946667 25.6-25.6 25.6zM600.746667 443.733333H220.16c-13.653333 0-25.6-11.946667-25.6-25.6s11.946667-25.6 25.6-25.6h380.586667c13.653333 0 25.6 11.946667 25.6 25.6S614.4 443.733333 600.746667 443.733333zM354.986667 622.933333h-134.826667c-13.653333 0-25.6-11.946667-25.6-25.6s11.946667-25.6 25.6-25.6h134.826667c13.653333 0 25.6 11.946667 25.6 25.6s-11.946667 25.6-25.6 25.6zM716.8 989.866667c-145.066667 0-264.533333-119.466667-264.533333-264.533334S570.026667 460.8 716.8 460.8s264.533333 119.466667 264.533333 264.533333c0 69.973333-27.306667 136.533333-76.8 187.733334-51.2 49.493333-117.76 76.8-187.733333 76.8z m0-477.866667c-117.76 0-213.333333 95.573333-213.333333 213.333333S599.04 938.666667 716.8 938.666667c56.32 0 110.933333-22.186667 150.186667-63.146667 40.96-40.96 63.146667-93.866667 63.146666-150.186667C930.133333 607.573333 834.56 512 716.8 512z"  /><path  d="M831.146667 793.6h-138.24c-13.653333 0-25.6-11.946667-25.6-25.6v-128c0-13.653333 11.946667-25.6 25.6-25.6s25.6 11.946667 25.6 25.6v102.4h112.64c13.653333 0 25.6 11.946667 25.6 25.6s-11.946667 25.6-25.6 25.6z"  /></svg>