<?xml version="1.0" standalone="no"?><!DOCTYPE svg PUBLIC "-//W3C//DTD SVG 1.1//EN" "http://www.w3.org/Graphics/SVG/1.1/DTD/svg11.dtd"><svg class="icon" width="64px" height="64.00px" viewBox="0 0 1024 1024" version="1.1" xmlns="http://www.w3.org/2000/svg"><path  d="M512 989.866667c-56.32 0-107.52-23.893333-145.066667-64.853334H170.666667c-75.093333 0-136.533333-61.44-136.533334-136.533333V172.373333c0-75.093333 61.44-136.533333 136.533334-136.533333h249.173333c34.133333 0 66.56 11.946667 92.16 35.84C537.6 47.786667 570.026667 34.133333 604.16 34.133333H853.333333c37.546667 0 71.68 15.36 97.28 40.96S989.866667 136.533333 989.866667 172.373333v616.106667c0 75.093333-61.44 136.533333-136.533334 136.533333H657.066667C619.52 965.973333 566.613333 989.866667 512 989.866667zM170.666667 85.333333c-47.786667 0-85.333333 39.253333-85.333334 85.333334v616.106666c0 47.786667 39.253333 85.333333 85.333334 85.333334h221.866666l8.533334 10.24c27.306667 34.133333 68.266667 54.613333 112.64 54.613333 44.373333 0 85.333333-20.48 112.64-54.613333l8.533333-10.24H853.333333c47.786667 0 85.333333-39.253333 85.333334-85.333334v-614.4c0-22.186667-8.533333-44.373333-23.893334-59.733333-17.066667-17.066667-37.546667-25.6-61.44-25.6H604.16c-27.306667 0-54.613333 13.653333-69.973333 37.546667L512 151.893333l-20.48-30.72c-17.066667-23.893333-42.666667-37.546667-69.973333-37.546666H170.666667z"  /><path  d="M512 634.88c-13.653333 0-25.6-11.946667-25.6-25.6V100.693333c0-13.653333 11.946667-25.6 25.6-25.6s25.6 11.946667 25.6 25.6v510.293334c0 13.653333-11.946667 23.893333-25.6 23.893333zM358.4 312.32h-129.706667c-13.653333 0-25.6-11.946667-25.6-25.6s11.946667-25.6 25.6-25.6H358.4c13.653333 0 25.6 11.946667 25.6 25.6s-11.946667 25.6-25.6 25.6zM808.96 312.32h-129.706667c-13.653333 0-25.6-11.946667-25.6-25.6s11.946667-25.6 25.6-25.6h129.706667c13.653333 0 25.6 11.946667 25.6 25.6s-11.946667 25.6-25.6 25.6zM358.4 484.693333h-129.706667c-13.653333 0-25.6-11.946667-25.6-25.6s11.946667-25.6 25.6-25.6H358.4c13.653333 0 25.6 11.946667 25.6 25.6s-11.946667 25.6-25.6 25.6zM808.96 484.693333h-129.706667c-13.653333 0-25.6-11.946667-25.6-25.6s11.946667-25.6 25.6-25.6h129.706667c13.653333 0 25.6 11.946667 25.6 25.6s-11.946667 25.6-25.6 25.6zM358.4 672.426667h-129.706667c-13.653333 0-25.6-11.946667-25.6-25.6s11.946667-25.6 25.6-25.6H358.4c13.653333 0 25.6 11.946667 25.6 25.6s-11.946667 25.6-25.6 25.6zM808.96 672.426667h-129.706667c-13.653333 0-25.6-11.946667-25.6-25.6s11.946667-25.6 25.6-25.6h129.706667c13.653333 0 25.6 11.946667 25.6 25.6s-11.946667 25.6-25.6 25.6z"  /></svg>