<?xml version="1.0" standalone="no"?><!DOCTYPE svg PUBLIC "-//W3C//DTD SVG 1.1//EN" "http://www.w3.org/Graphics/SVG/1.1/DTD/svg11.dtd"><svg class="icon" width="64px" height="64.00px" viewBox="0 0 1024 1024" version="1.1" xmlns="http://www.w3.org/2000/svg"><path  d="M720.213333 983.04a25.6 25.6 0 0 1-25.6-25.6v-167.253333a27.306667 27.306667 0 0 1 13.653334-22.186667 337.92 337.92 0 0 0 155.306666-203.093333 334.506667 334.506667 0 0 0-35.84-252.586667 329.386667 329.386667 0 0 0-203.093333-153.6 25.6 25.6 0 0 1 11.946667-49.493333 384 384 0 0 1 276.48 467.626666 397.653333 397.653333 0 0 1-167.253334 228.693334v151.893333a25.6 25.6 0 0 1-25.6 25.6z"  /><path  d="M541.013333 655.36A175.786667 175.786667 0 1 1 716.8 479.573333a175.786667 175.786667 0 0 1-175.786667 175.786667z m0-298.666667a122.88 122.88 0 0 0-122.88 122.88 124.586667 124.586667 0 0 0 122.88 124.586667 124.586667 124.586667 0 0 0 124.586667-124.586667 124.586667 124.586667 0 0 0-124.586667-122.88z"  /><path  d="M631.466667 385.706667a23.893333 23.893333 0 0 1-25.6-25.6V92.16c0-1.706667-3.413333-3.413333-5.12-3.413333h-119.466667a3.413333 3.413333 0 0 0-3.413333 3.413333v267.946667a25.6 25.6 0 0 1-25.6 25.6 23.893333 23.893333 0 0 1-25.6-25.6V92.16a54.613333 54.613333 0 0 1 54.613333-54.613333h119.466667a56.32 56.32 0 0 1 56.32 54.613333v267.946667a25.6 25.6 0 0 1-25.6 25.6z"  /><path  d="M145.066667 675.84h-5.12a95.573333 95.573333 0 0 1-52.906667-39.253333 78.506667 78.506667 0 0 1-8.533333-64.853334 88.746667 88.746667 0 0 1 10.24-27.306666L155.306667 443.733333v-22.186666c0-151.893333 119.466667-281.6 290.133333-315.733334a25.6 25.6 0 1 1 10.24 49.493334c-146.773333 30.72-249.173333 139.946667-249.173333 266.24v29.013333a18.773333 18.773333 0 0 1-3.413334 13.653333l-69.973333 109.226667a15.36 15.36 0 0 0-5.12 10.24 30.72 30.72 0 0 0 3.413333 27.306667 46.08 46.08 0 0 0 20.48 15.36 25.6 25.6 0 0 1-6.826666 49.493333zM361.813333 983.04a25.6 25.6 0 0 1-25.6-25.6v-59.733333a25.6 25.6 0 0 1 25.6-25.6 25.6 25.6 0 0 1 25.6 25.6v59.733333a25.6 25.6 0 0 1-25.6 25.6zM240.64 803.84h-59.733333a25.6 25.6 0 0 1-25.6-25.6 25.6 25.6 0 0 1 25.6-25.6h59.733333a271.36 271.36 0 0 0 273.066667-273.066667 25.6 25.6 0 0 1 25.6-25.6 25.6 25.6 0 0 1 25.6 25.6 324.266667 324.266667 0 0 1-324.266667 324.266667z"  /></svg>