<?xml version="1.0" standalone="no"?><!DOCTYPE svg PUBLIC "-//W3C//DTD SVG 1.1//EN" "http://www.w3.org/Graphics/SVG/1.1/DTD/svg11.dtd"><svg class="icon" width="64px" height="64.00px" viewBox="0 0 1024 1024" version="1.1" xmlns="http://www.w3.org/2000/svg"><path  d="M415.402667 580.266667c-128.853333 0-233.813333-111.274667-233.813334-247.978667s104.789333-247.978667 233.813334-247.978667c128.853333 0 233.813333 111.274667 233.813333 247.978667S544.426667 580.266667 415.402667 580.266667z m0-444.586667c-100.693333 0-182.613333 88.234667-182.613334 196.778667S314.88 529.066667 415.402667 529.066667s182.613333-88.234667 182.613333-196.778667-81.92-196.608-182.613333-196.608zM688.298667 934.741333H136.874667l-3.242667-0.853333c-37.205333-10.24-66.048-38.570667-83.285333-81.92-14.336-36.181333-20.821333-87.210667-6.997334-110.08C141.824 580.266667 243.2 556.373333 247.466667 555.52l12.970666-2.901333 9.728 8.874666c10.922667 9.898667 25.088 19.114667 42.325334 26.965334 63.658667 29.525333 136.533333 29.525333 200.192 0 17.066667-8.021333 31.232-17.066667 42.154666-26.965334l9.728-8.874666 12.970667 2.901333c4.437333 0.853333 105.813333 24.746667 204.288 186.197333 13.994667 22.869333 7.338667 73.898667-6.997333 110.08-17.237333 43.52-46.08 71.850667-83.285334 81.92l-3.242666 1.024z m-544.256-51.2h537.088c16.213333-5.461333 29.525333-17.92 39.936-37.034666 16.725333-31.232 18.944-69.12 16.384-79.189334-67.584-110.250667-134.314667-147.114667-159.914667-157.866666-12.458667 9.386667-26.965333 18.090667-43.178667 25.6a287.624533 287.624533 0 0 1-243.370666 0c-16.213333-7.509333-30.72-16.213333-43.178667-25.6-25.429333 10.752-92.330667 47.445333-159.914667 157.866666-2.730667 10.069333-0.341333 47.957333 16.384 79.189334 10.24 19.114667 23.722667 31.573333 39.765334 37.034666z m593.237333-116.906666z m-649.216 0M920.917333 131.925333c9.386667 0 17.066667 7.68 17.066667 17.066667v28.16c0 9.386667-7.68 17.066667-17.066667 17.066667H778.24c-9.386667 0-17.066667-7.68-17.066667-17.066667V148.992c0-9.386667 7.68-17.066667 17.066667-17.066667h142.677333m0-51.2H778.24c-37.717333 0-68.266667 30.549333-68.266667 68.266667v28.16c0 37.717333 30.549333 68.266667 68.266667 68.266667h142.677333c37.717333 0 68.266667-30.549333 68.266667-68.266667V148.992c0-37.546667-30.549333-68.266667-68.266667-68.266667zM920.917333 364.373333c9.386667 0 17.066667 7.68 17.066667 17.066667V409.6c0 9.386667-7.68 17.066667-17.066667 17.066667h-96.085333c-9.386667 0-17.066667-7.68-17.066667-17.066667v-28.16c0-9.386667 7.68-17.066667 17.066667-17.066667h96.085333m0-51.2h-96.085333c-37.717333 0-68.266667 30.549333-68.266667 68.266667V409.6c0 37.717333 30.549333 68.266667 68.266667 68.266667h96.085333c37.717333 0 68.266667-30.549333 68.266667-68.266667v-28.16c0-37.717333-30.549333-68.266667-68.266667-68.266667zM920.917333 587.264c9.386667 0 17.066667 7.68 17.066667 17.066667v28.16c0 9.386667-7.68 17.066667-17.066667 17.066666h-38.4c-9.386667 0-17.066667-7.68-17.066666-17.066666v-28.16c0-9.386667 7.68-17.066667 17.066666-17.066667h38.4m0-51.2h-38.4c-37.717333 0-68.266667 30.549333-68.266666 68.266667v28.16c0 37.717333 30.549333 68.266667 68.266666 68.266666h38.4c37.717333 0 68.266667-30.549333 68.266667-68.266666v-28.16c0-37.717333-30.549333-68.266667-68.266667-68.266667z" /></svg>