<?xml version="1.0" standalone="no"?><!DOCTYPE svg PUBLIC "-//W3C//DTD SVG 1.1//EN" "http://www.w3.org/Graphics/SVG/1.1/DTD/svg11.dtd"><svg class="icon" width="64px" height="64.00px" viewBox="0 0 1024 1024" version="1.1" xmlns="http://www.w3.org/2000/svg"><path  d="M506.88 964.266667C261.12 964.266667 59.733333 761.173333 59.733333 512S261.12 59.733333 506.88 59.733333c247.466667 0 447.146667 203.093333 447.146667 452.266667 0 13.653333-11.946667 25.6-25.6 25.6s-25.6-11.946667-25.6-25.6c0-221.866667-177.493333-401.066667-395.946667-401.066667C288.426667 110.933333 110.933333 290.133333 110.933333 512s177.493333 401.066667 395.946667 401.066667c13.653333 0 25.6 11.946667 25.6 25.6s-11.946667 25.6-25.6 25.6z"  /><path  d="M675.84 537.6c-13.653333 0-25.6-11.946667-25.6-25.6 0-244.053333-119.466667-407.893333-121.173333-409.6-8.533333-11.946667-6.826667-27.306667 5.12-35.84s27.306667-6.826667 35.84 5.12c5.12 6.826667 131.413333 179.2 131.413333 440.32 0 13.653333-11.946667 25.6-25.6 25.6zM464.213333 962.56c-8.533333 0-15.36-3.413333-20.48-10.24-5.12-6.826667-131.413333-179.2-131.413333-440.32S438.613333 78.506667 443.733333 71.68c8.533333-11.946667 23.893333-13.653333 35.84-5.12 11.946667 8.533333 13.653333 23.893333 5.12 35.84-1.706667 1.706667-121.173333 165.546667-121.173333 409.6s119.466667 407.893333 121.173333 409.6c8.533333 11.946667 6.826667 27.306667-5.12 35.84-3.413333 3.413333-8.533333 5.12-15.36 5.12z"  /><path  d="M506.88 687.786667H112.64c-13.653333 0-25.6-11.946667-25.6-25.6s11.946667-25.6 25.6-25.6h395.946667c13.653333 0 25.6 11.946667 25.6 25.6s-13.653333 25.6-27.306667 25.6zM902.826667 389.12H112.64c-13.653333 0-25.6-11.946667-25.6-25.6s11.946667-25.6 25.6-25.6h790.186667c13.653333 0 25.6 11.946667 25.6 25.6s-11.946667 25.6-25.6 25.6zM749.226667 959.146667h-6.826667c-22.186667-3.413333-42.666667-22.186667-46.08-44.373334l-52.906667-261.12c-3.413333-20.48 3.413333-39.253333 18.773334-49.493333 15.36-10.24 35.84-10.24 51.2 0l223.573333 139.946667c20.48 11.946667 30.72 37.546667 25.6 59.733333-5.12 18.773333-18.773333 32.426667-37.546667 34.133333l-93.866666 10.24-42.666667 85.333334c-8.533333 15.36-22.186667 25.6-39.253333 25.6z m-54.613334-307.2l51.2 250.88 44.373334-90.453334c3.413333-8.533333 11.946667-13.653333 20.48-13.653333l100.693333-11.946667h-1.706667l-215.04-134.826666z"  /></svg>