<?xml version="1.0" standalone="no"?><!DOCTYPE svg PUBLIC "-//W3C//DTD SVG 1.1//EN" "http://www.w3.org/Graphics/SVG/1.1/DTD/svg11.dtd"><svg class="icon" width="64px" height="64.00px" viewBox="0 0 1024 1024" version="1.1" xmlns="http://www.w3.org/2000/svg"><path  d="M512 985.6a470.357333 470.357333 0 0 1-182.101333-36.181333 458.752 458.752 0 0 1-77.824-41.130667c-9.216 0-39.765333 4.437333-138.410667 31.402667a25.770667 25.770667 0 0 1-24.917333-6.656 25.6 25.6 0 0 1-6.656-24.746667c26.965333-98.816 31.061333-129.365333 31.402666-138.410667a484.522667 484.522667 0 0 1-41.130666-77.824A475.818667 475.818667 0 1 1 512 985.6z m-257.024-128.512a31.573333 31.573333 0 0 1 21.162667 5.802667 426.666667 426.666667 0 1 0-117.248-117.248c7.168 10.752 13.312 19.968-15.872 133.290666a539.989333 539.989333 0 0 1 111.957333-21.845333z"  /><path  d="M739.84 570.538667H471.381333a25.6 25.6 0 0 1-25.6-25.6V276.48a25.6 25.6 0 0 1 51.2 0v242.858667h242.858667a25.6 25.6 0 0 1 0 51.2z"  /></svg>