<?xml version="1.0" standalone="no"?><!DOCTYPE svg PUBLIC "-//W3C//DTD SVG 1.1//EN" "http://www.w3.org/Graphics/SVG/1.1/DTD/svg11.dtd"><svg class="icon" width="64px" height="64.00px" viewBox="0 0 1024 1024" version="1.1" xmlns="http://www.w3.org/2000/svg"><path  d="M736.768 807.253333h-75.434667a25.6 25.6 0 0 1-25.6-25.6v-75.264a25.6 25.6 0 0 1 7.509334-18.090666l226.133333-226.133334a25.429333 25.429333 0 0 1 36.181333 0l75.264 75.264a25.6 25.6 0 0 1 0 36.352L754.858667 799.744a25.6 25.6 0 0 1-18.090667 7.509333z m-49.834667-51.2h39.253334l200.362666-200.533333L887.466667 516.437333 686.933333 716.8z"  /><path  d="M217.941333 932.522667a25.429333 25.429333 0 0 1-25.6-25.6V819.2H59.904A25.6 25.6 0 0 1 34.133333 794.112V117.077333a25.6 25.6 0 0 1 25.6-25.6h902.826667a25.6 25.6 0 0 1 25.6 25.6V365.226667a25.6 25.6 0 1 1-51.2 0v-221.866667H85.333333V768h132.437334a25.6 25.6 0 0 1 25.6 25.6v71.509333l188.586666-94.378666A26.965333 26.965333 0 0 1 443.733333 768h102.4a25.6 25.6 0 1 1 0 51.2h-95.573333l-221.184 110.762667a26.624 26.624 0 0 1-11.434667 2.56z"  /><path  d="M375.466667 323.242667h-134.997334a25.6 25.6 0 0 1 0-51.2H375.466667a25.6 25.6 0 0 1 0 51.2zM512 458.581333H240.469333a25.6 25.6 0 0 1 0-51.2H512a25.6 25.6 0 0 1 0 51.2zM590.677333 606.72H247.296a25.6 25.6 0 0 1 0-51.2h343.381333a25.6 25.6 0 0 1 0 51.2z"  /></svg>