<?xml version="1.0" standalone="no"?><!DOCTYPE svg PUBLIC "-//W3C//DTD SVG 1.1//EN" "http://www.w3.org/Graphics/SVG/1.1/DTD/svg11.dtd"><svg class="icon" width="64px" height="64.00px" viewBox="0 0 1024 1024" version="1.1" xmlns="http://www.w3.org/2000/svg"><path  d="M796.330667 989.866667h-570.026667c-54.784 0-99.498667-44.544-99.498667-99.498667V207.36c0-54.784 44.544-99.498667 99.498667-99.498667h70.144v51.2h-70.144c-26.624 0-48.298667 21.674667-48.298667 48.298667v683.008c0 26.624 21.674667 48.298667 48.298667 48.298667h570.026667c26.624 0 48.298667-21.674667 48.298666-48.298667V207.36c0-26.624-21.674667-48.298667-48.298666-48.298667h-80.554667v-51.2h80.554667c54.784 0 99.498667 44.544 99.498666 99.498667v683.008c-0.170667 54.954667-44.714667 99.498667-99.498666 99.498667z"  /><path  d="M666.112 232.96H356.522667a94.037333 94.037333 0 0 1-93.866667-93.866667V128c0-51.712 42.154667-93.866667 93.866667-93.866667h309.589333c51.712 0 93.866667 42.154667 93.866667 93.866667v11.093333c0 51.712-42.154667 93.866667-93.866667 93.866667zM356.522667 85.333333a42.666667 42.666667 0 0 0-42.666667 42.666667v11.093333a42.666667 42.666667 0 0 0 42.666667 42.666667h309.589333a42.666667 42.666667 0 0 0 42.666667-42.666667V128a42.666667 42.666667 0 0 0-42.666667-42.666667H356.522667zM791.552 993.792h-164.352c-59.562667 0-108.032-48.469333-108.032-108.032v-114.346667c0-59.562667 48.469333-108.032 108.032-108.032h164.352c59.562667 0 108.032 48.469333 108.032 108.032v114.176c0 59.733333-48.469333 108.202667-108.032 108.202667z m-164.352-271.36a49.152 49.152 0 0 0-49.152 49.152v114.176a49.152 49.152 0 0 0 49.152 49.152h164.352a49.152 49.152 0 0 0 49.152-49.152v-114.346667a49.152 49.152 0 0 0-49.152-49.152h-164.352zM681.984 401.749333h-341.333333c-14.165333 0-25.6-11.434667-25.6-25.6s11.434667-25.6 25.6-25.6h341.333333c14.165333 0 25.6 11.434667 25.6 25.6s-11.434667 25.6-25.6 25.6zM681.984 506.026667h-341.333333c-14.165333 0-25.6-11.434667-25.6-25.6s11.434667-25.6 25.6-25.6h341.333333c14.165333 0 25.6 11.434667 25.6 25.6s-11.434667 25.6-25.6 25.6z"  /><path  d="M652.117333 754.005333c-14.165333 0-25.6-11.434667-25.6-25.6v-70.997333c0-14.165333 11.434667-25.6 25.6-25.6s25.6 11.434667 25.6 25.6v70.997333c0 14.165333-11.605333 25.6-25.6 25.6zM693.930667 888.832c-6.485333 0-13.141333-2.56-18.090667-7.509333l-38.058667-38.058667c-10.069333-10.069333-10.069333-26.282667 0-36.181333s26.282667-10.069333 36.181334 0l38.058666 38.058666c10.069333 10.069333 10.069333 26.282667 0 36.181334-5.12 4.949333-11.605333 7.509333-18.090666 7.509333z"  /><path  d="M693.930667 888.832c-6.485333 0-13.141333-2.56-18.090667-7.509333a25.429333 25.429333 0 0 1 0-36.181334l69.12-69.12c9.898667-10.069333 26.282667-10.069333 36.181333 0s10.069333 26.282667 0 36.181334l-69.12 69.12c-5.12 4.949333-11.605333 7.509333-18.090666 7.509333zM766.805333 754.005333c-14.165333 0-25.6-11.434667-25.6-25.6v-70.997333c0-14.165333 11.434667-25.6 25.6-25.6s25.6 11.434667 25.6 25.6v70.997333c0 14.165333-11.434667 25.6-25.6 25.6z"  /></svg>