<?xml version="1.0" standalone="no"?><!DOCTYPE svg PUBLIC "-//W3C//DTD SVG 1.1//EN" "http://www.w3.org/Graphics/SVG/1.1/DTD/svg11.dtd"><svg class="icon" width="64px" height="64.00px" viewBox="0 0 1024 1024" version="1.1" xmlns="http://www.w3.org/2000/svg"><path  d="M887.466667 787.968H136.533333a68.266667 68.266667 0 0 1-67.242666-67.242667V178.176A68.266667 68.266667 0 0 1 136.533333 110.762667h750.933334a68.266667 68.266667 0 0 1 68.266666 67.413333v542.549333a68.266667 68.266667 0 0 1-68.266666 67.242667zM136.533333 161.962667a17.066667 17.066667 0 0 0-16.042666 16.213333v542.549333a16.042667 16.042667 0 0 0 16.042666 16.042667h750.933334a16.042667 16.042667 0 0 0 16.042666-16.042667V178.176a17.066667 17.066667 0 0 0-16.042666-16.213333zM595.456 913.237333h-166.912a25.6 25.6 0 0 1 0-51.2h166.912a25.6 25.6 0 0 1 0 51.2zM762.368 913.237333h-41.642667a25.6 25.6 0 0 1 0-51.2h41.642667a25.6 25.6 0 0 1 0 51.2zM136.533333 913.237333H94.72a25.6 25.6 0 1 1 0-51.2H136.533333a25.6 25.6 0 1 1 0 51.2zM929.28 913.237333H887.466667a25.6 25.6 0 0 1 0-51.2h41.642666a25.6 25.6 0 0 1 0 51.2zM303.274667 913.237333h-41.642667a25.6 25.6 0 0 1 0-51.2h41.642667a25.6 25.6 0 1 1 0 51.2z"  /></svg>