<?xml version="1.0" standalone="no"?><!DOCTYPE svg PUBLIC "-//W3C//DTD SVG 1.1//EN" "http://www.w3.org/Graphics/SVG/1.1/DTD/svg11.dtd"><svg class="icon" width="64px" height="64.00px" viewBox="0 0 1024 1024" version="1.1" xmlns="http://www.w3.org/2000/svg"><path  d="M426.666667 793.6C223.573333 793.6 59.733333 629.76 59.733333 426.666667S223.573333 59.733333 426.666667 59.733333 793.6 223.573333 793.6 426.666667 629.76 793.6 426.666667 793.6z m0-682.666667C252.586667 110.933333 110.933333 252.586667 110.933333 426.666667S252.586667 742.4 426.666667 742.4 742.4 600.746667 742.4 426.666667 600.746667 110.933333 426.666667 110.933333zM947.2 435.2H887.466667V375.466667h59.733333v59.733333z m-42.666667-17.066667h25.6V392.533333H904.533333v25.6z"  /><path  d="M607.573333 885.76c-10.24 0-18.773333-5.12-23.893333-15.36-5.12-13.653333 0-27.306667 13.653333-34.133333 165.546667-69.973333 273.066667-230.4 273.066667-409.6v-42.666667c0-13.653333 11.946667-25.6 25.6-25.6H938.666667c13.653333 0 25.6 11.946667 25.6 25.6V426.666667c0 13.653333-11.946667 25.6-25.6 25.6h-17.066667c-10.24 189.44-126.293333 356.693333-303.786667 431.786666-3.413333 0-6.826667 1.706667-10.24 1.706667z"  /><path  d="M640 964.266667h-426.666667c-8.533333 0-17.066667-5.12-22.186666-11.946667-5.12-6.826667-5.12-17.066667-1.706667-23.893333l85.333333-192.853334c5.12-13.653333 20.48-18.773333 34.133334-13.653333 13.653333 5.12 18.773333 20.48 13.653333 34.133333l-69.973333 155.306667h348.16l-69.973334-155.306667c-5.12-13.653333 0-27.306667 13.653334-34.133333 13.653333-5.12 27.306667 0 34.133333 13.653333l85.333333 192.853334c3.413333 8.533333 3.413333 17.066667-1.706666 23.893333-5.12 6.826667-13.653333 11.946667-22.186667 11.946667zM426.666667 537.6c-61.44 0-110.933333-49.493333-110.933334-110.933333s49.493333-110.933333 110.933334-110.933334 110.933333 49.493333 110.933333 110.933334-49.493333 110.933333-110.933333 110.933333z m0-170.666667c-32.426667 0-59.733333 27.306667-59.733334 59.733334s27.306667 59.733333 59.733334 59.733333 59.733333-27.306667 59.733333-59.733333-27.306667-59.733333-59.733333-59.733334zM213.333333 452.266667c-13.653333 0-25.6-11.946667-25.6-25.6 0-131.413333 107.52-238.933333 238.933334-238.933334 13.653333 0 25.6 11.946667 25.6 25.6S440.32 238.933333 426.666667 238.933333c-104.106667 0-187.733333 83.626667-187.733334 187.733334 0 13.653333-11.946667 25.6-25.6 25.6z"  /></svg>