<?xml version="1.0" standalone="no"?><!DOCTYPE svg PUBLIC "-//W3C//DTD SVG 1.1//EN" "http://www.w3.org/Graphics/SVG/1.1/DTD/svg11.dtd"><svg class="icon" width="64px" height="64.00px" viewBox="0 0 1024 1024" version="1.1" xmlns="http://www.w3.org/2000/svg"><path  d="M830.583467 34.133333c48.247467 0 88.3712 38.980267 88.712533 86.852267l-0.034133 3.601067v384c0 13.653333-11.946667 25.6-25.6 25.6-12.834133 0-24.149333-10.581333-25.429334-23.210667l-0.136533-2.389333V124.586667c0-19.626667-15.6672-37.6832-36.471467-39.150934L828.8768 85.333333H209.851733c-19.626667 0-37.666133 15.6672-39.133866 36.522667l-0.085334 2.730667v774.826666c0 19.626667 15.650133 37.6832 36.471467 39.150934l2.730667 0.1024h187.5968c13.653333 0 23.876267 10.24 23.876266 23.893333 0 12.8512-10.581333 24.183467-23.1936 25.480533l-2.389333 0.119467H209.851733c-48.213333 0-88.337067-38.946133-90.3168-86.749867L119.466667 897.706667V124.586667c0-48.247467 38.912-88.405333 86.698666-90.385067L209.834667 34.133333h620.714666z m3.072 597.333334c28.091733 0 52.292267 16.8448 58.88 41.0624l19.626666 73.028266C938.666667 757.4528 955.733333 781.6704 955.733333 807.8848v77.704533c0 24.8832-22.596267 45.226667-50.432 45.226667h-1.467733C897.774933 954.88 873.5744 972.8 844.8 972.8c-28.7744 0-52.974933-17.92-59.0336-41.864533H681.984C675.908267 954.88 651.707733 972.8 622.933333 972.8c-28.7744 0-52.974933-17.92-59.0336-41.864533h-1.467733c-27.835733 0-50.432-20.189867-50.432-45.2096v-77.704534c0-26.2144 17.066667-50.568533 43.690667-62.464l20.718933-73.557333C583.133867 648.192 607.197867 631.466667 635.170133 631.466667h198.485334z m0.119466 40.260266H635.0336c-10.888533 0-18.2784 5.751467-19.899733 11.229867l-23.261867 82.7904a19.968 19.968 0 0 1-11.690667 13.1072l-6.8608 2.816c-12.919467 5.341867-20.992 15.5136-20.992 26.350933v77.704534c0 1.467733 3.771733 5.085867 10.103467 5.085866h20.155733c11.1616 0 20.1728 8.96 20.1728 20.053334v8.430933c0 6.2976 8.3456 13.380267 20.1728 13.380267s20.1728-7.082667 20.1728-13.380267v-8.430933c0-11.093333 9.0112-20.053333 20.1728-20.053334h141.175467c11.1616 0 20.1728 8.96 20.1728 20.053334v8.430933c0 6.2976 8.3456 13.380267 20.1728 13.380267s20.1728-7.082667 20.1728-13.380267v-8.430933c0-11.093333 9.0112-20.053333 20.1728-20.053334h20.155733c6.314667 0 10.0864-3.4816 10.0864-5.085866v-77.704534c0-10.837333-8.055467-20.992-20.974933-26.350933l-6.8608-2.816a20.1216 20.1216 0 0 1-11.690667-13.3632l-22.186666-82.5344c-1.4848-5.614933-9.284267-11.229867-19.899734-11.229867zM618.769067 827.392c11.554133 0 20.974933 9.3696 20.974933 20.872533s-9.4208 20.855467-20.992 20.855467a20.770133 20.770133 0 0 1-20.957867-20.855467c0-11.502933 9.403733-20.872533 20.974934-20.872533z m230.1952 0c11.5712 0 20.992 9.3696 20.992 20.872533s-9.4208 20.855467-20.992 20.855467c-11.554133 0-20.974933-9.352533-20.974934-20.855467 0-11.502933 9.4208-20.872533 20.992-20.872533z m-50.688-137.216c18.688 0 34.696533 11.485867 39.133866 27.938133l16.674134 62.208a20.138667 20.138667 0 0 1-19.370667 25.258667H633.019733a20.104533 20.104533 0 0 1-19.5072-25.258667l16.674134-62.208c4.437333-16.452267 20.5824-27.9552 39.133866-27.9552h128.955734z m0.802133 40.2432h-130.286933l-9.557334 35.054933h149.265067l-9.4208-35.054933zM545.826133 387.413333c13.653333 0 25.6 11.946667 25.6 25.6 0 12.8512-10.581333 24.183467-23.210666 25.480534l-2.389334 0.119466h-221.696c-13.636267 0-25.565867-11.946667-25.565866-25.6 0-12.8512 10.581333-24.183467 23.1936-25.480533l2.389333-0.119467h221.696z m187.5968-155.306666c13.653333 0 25.565867 11.946667 25.565867 25.6 0 12.8512-10.581333 24.183467-23.176533 25.480533l-2.389334 0.119467H324.1472c-13.653333 0-25.582933-11.946667-25.582933-25.6 0-12.8512 10.581333-24.183467 23.1936-25.480534l2.389333-0.119466h409.258667z"  /></svg>