<?xml version="1.0" standalone="no"?><!DOCTYPE svg PUBLIC "-//W3C//DTD SVG 1.1//EN" "http://www.w3.org/Graphics/SVG/1.1/DTD/svg11.dtd"><svg class="icon" width="64px" height="64.00px" viewBox="0 0 1024 1024" version="1.1" xmlns="http://www.w3.org/2000/svg"><path  d="M923.477333 903.68H527.189333c-15.872-0.170667-31.232-3.242667-45.738666-9.045333a126.0544 126.0544 0 0 1-69.461334-67.584 125.952 125.952 0 0 1-1.365333-96.768 99.84 99.84 0 0 1 74.752-61.44l48.469333-9.216a143.4112 143.4112 0 0 0 77.653334-42.325334c31.744-33.450667 49.322667-77.141333 49.664-123.221333 0-26.282667 5.290667-52.736 15.189333-77.312l-122.709333 5.802667a162.798933 162.798933 0 0 0-88.234667 39.424 172.885333 172.885333 0 0 0-57.344 112.298666l2.218667-2.389333c26.282667-29.525333 59.904-52.906667 96.938666-67.413333l33.962667-13.482667c11.605333-4.608 24.746667-0.170667 31.232 10.581333s4.437333 24.405333-4.949333 32.597334l-44.032 38.570666c-15.018667 14.165333-29.866667 30.037333-43.349334 46.762667a626.978133 626.978133 0 0 0-71.68 110.762667c-5.632 10.922667-15.189333 33.962667-21.845333 50.346666-29.866667 74.410667-101.205333 122.538667-181.418667 122.709334H100.522667a40.789333 40.789333 0 1 1 0-81.578667h67.072c7.68 0 13.994667-6.314667 13.994666-13.994667V447.488c0-1.877333-0.341333-3.413333-1.194666-4.608a8.618667 8.618667 0 0 0-11.776-3.072l-24.917334 14.336-4.778666 2.389333c-13.482667 6.144-28.842667 6.656-42.837334 1.365334-13.994667-5.290667-25.088-15.701333-31.232-29.354667-11.093333-27.136-0.853333-57.344 23.381334-71.68l339.797333-247.466667c0.682667-0.512 1.536-1.024 2.218667-1.536a163.157333 163.157333 0 0 1 162.816 0c0.853333 0.512 1.536 0.853333 2.218666 1.536l340.138667 247.466667a57.344 57.344 0 0 1 23.552 71.850667c-1.024 2.218667-1.877333 3.754667-2.730667 5.290666a56.149333 56.149333 0 0 1-76.458666 20.48l-24.746667-14.336c-5.12-2.901333-12.8 1.194667-12.8 7.509334v360.448c0 7.68 6.314667 13.994667 13.994667 13.994666h67.072c22.528 0 40.789333 18.261333 40.789333 40.789334s-18.090667 40.789333-40.618667 40.789333z m0-30.549333zM700.416 364.714667c8.021333 0 16.384 3.072 23.04 8.704a36.573867 36.573867 0 0 1 10.410667 41.813333c-0.170667 0.512-0.512 1.024-0.682667 1.706667l-5.290667 10.922666a155.2384 155.2384 0 0 0-15.189333 66.730667 231.082667 231.082667 0 0 1-63.658667 158.208 193.706667 193.706667 0 0 1-105.301333 57.344l-48.810667 9.216c-16.725333 3.072-30.378667 14.336-36.522666 30.037333-15.36 38.570667 3.584 82.432 41.984 97.792 8.704 3.413333 17.749333 5.290667 27.136 5.290667h281.258666c-10.922667-11.605333-17.578667-27.306667-17.578666-44.544V447.488c0-32.938667 26.794667-59.733333 59.733333-59.733333 10.410667 0 20.650667 2.730667 29.866667 8.021333l24.746666 14.336c2.218667 1.194667 5.290667 0.512 6.485334-1.877333 1.194667-2.56 0-5.802667-2.901334-7.338667-0.853333-0.512-1.877333-1.024-2.730666-1.706667L566.442667 151.722667a112.059733 112.059733 0 0 0-109.226667 0L117.418667 399.018667c-0.853333 0.682667-1.877333 1.194667-2.730667 1.706666-2.730667 1.365333-3.754667 4.608-2.730667 7.509334 0.341333 0.682667 1.536 1.365333 2.389334 1.706666 0.853333 0.341333 2.218667 0.512 3.754666-0.170666l24.746667-14.336c13.482667-8.021333 29.696-10.24 45.056-6.314667 15.530667 3.925333 28.501333 13.653333 36.522667 27.477333 5.461333 9.386667 8.362667 20.138667 8.362666 31.061334v360.277333c0 17.066667-6.485333 32.426667-17.237333 44.032a143.6672 143.6672 0 0 0 123.562667-90.282667c11.434667-28.16 18.773333-44.885333 23.722666-54.613333 10.069333-19.797333 21.162667-39.253333 33.28-58.197333h-0.512a35.9936 35.9936 0 0 1-37.888-31.232c-8.533333-73.045333 19.114667-145.408 73.898667-193.877334 32.938667-29.013333 73.386667-46.933333 117.077333-51.882666 0.512 0 1.194667-0.170667 1.706667-0.170667l147.114667-6.997333c1.024 0.170667 1.877333 0 2.901333 0zM382.634667 602.794667l-0.341334 0.341333 0.341334-0.341333z m318.464-186.88h-1.194667c0.341333 0.170667 0.682667 0 1.194667 0z"  /></svg>