<?xml version="1.0" standalone="no"?><!DOCTYPE svg PUBLIC "-//W3C//DTD SVG 1.1//EN" "http://www.w3.org/Graphics/SVG/1.1/DTD/svg11.dtd"><svg class="icon" width="64px" height="64.00px" viewBox="0 0 1024 1024" version="1.1" xmlns="http://www.w3.org/2000/svg"><path  d="M829.610667 294.4H194.389333c-36.522667 0-66.389333-29.696-66.389333-66.389333v-6.485334c0-51.541333 41.984-93.525333 93.525333-93.525333h145.92A67.925333 67.925333 0 0 1 434.858667 68.266667h154.453333c34.645333 0 63.317333 26.112 67.413333 59.733333h145.92c51.541333 0 93.525333 41.984 93.525334 93.525333v6.485334a66.6112 66.6112 0 0 1-66.56 66.389333zM221.525333 179.2a42.325333 42.325333 0 0 0-42.325333 42.325333v6.485334c0 8.362667 6.826667 15.189333 15.189333 15.189333h635.221334c8.362667 0 15.189333-6.826667 15.189333-15.189333v-6.485334a42.325333 42.325333 0 0 0-42.325333-42.325333h-153.6c-23.722667 0-43.008-19.285333-43.008-43.008 0-9.216-7.509333-16.725333-16.725334-16.725333h-154.453333c-9.216 0-16.725333 7.509333-16.725333 16.725333 0 23.722667-19.285333 43.008-43.008 43.008h-153.429334zM441.344 955.733333a75.656533 75.656533 0 0 1-69.12-44.373333 75.229867 75.229867 0 0 1-2.048-58.026667 111.5648 111.5648 0 0 1 83.968-70.314666l51.029333-9.557334c38.4-6.826667 73.728-26.282667 100.010667-54.613333 35.498667-39.253333 55.296-90.282667 55.466667-143.530667 0-32.768 6.997333-65.877333 20.309333-96.085333l-128.853333 6.826667c-13.824 0.682667-27.648 2.730667-40.96 6.144-88.746667 21.845333-149.333333 99.669333-151.381334 188.074666l10.581334-11.946666c30.037333-34.133333 68.437333-61.098667 110.592-77.824l39.594666-15.018667a25.668267 25.668267 0 0 1 26.112 43.178667l-50.858666 44.714666a540.672 540.672 0 0 0-50.688 55.125334 743.936 743.936 0 0 0-83.285334 129.877333c-5.632 11.776-14.506667 32.256-23.381333 54.613333a56.763733 56.763733 0 0 1-90.282667 20.992 129.041067 129.041067 0 0 1-38.058666-58.368c-32.085333-100.693333-52.053333-248.32-52.053334-385.194666 0-33.962667 1.365333-68.437333 3.925334-102.4 1.365333-21.504 19.626667-38.570667 41.472-38.570667h617.301333c21.674667 0 39.765333 16.896 41.472 38.4 2.56 33.962667 3.925333 68.437333 3.925333 102.4 0 136.533333-19.797333 284.16-51.882666 385.194667a129.809067 129.809067 0 0 1-122.88 90.453333H441.344z m259.925333-529.066666c20.48 0 37.546667 16.042667 38.570667 36.693333 0.341333 6.485333-1.024 12.8-3.584 18.432l-6.314667 13.141333c-11.776 24.917333-18.090667 52.736-18.090666 80.384-0.341333 65.877333-24.746667 129.024-68.949334 178.005334a230.382933 230.382933 0 0 1-128.512 70.485333l-50.688 9.557333a60.2112 60.2112 0 0 0-45.568 38.229334 24.576 24.576 0 0 0 23.210667 33.109333H691.2a79.138133 79.138133 0 0 0 74.410667-54.784c30.037333-94.890667 49.322667-239.957333 49.322666-369.664 0-29.866667-1.024-59.904-3.072-89.770667H212.309333c-2.048 30.037333-3.242667 60.245333-3.242666 89.770667 0 129.877333 19.456 275.114667 49.664 369.664 4.437333 13.653333 12.288 25.941333 23.210666 35.498667 2.389333 2.218667 5.973333 1.877333 8.021334-0.341334 0.341333-0.512 0.682667-1.024 1.024-1.706666 9.386667-23.381333 18.602667-44.544 24.917333-57.856 13.141333-26.112 27.648-51.541333 43.52-75.946667-2.901333 0.853333-5.802667 1.365333-8.874667 1.536a37.205333 37.205333 0 0 1-27.306666-9.386667c-6.826667-5.973333-11.264-14.506667-12.458667-23.722666-17.237333-126.464 63.488-245.077333 187.733333-275.626667 16.384-4.266667 33.621333-6.826667 50.858667-7.68l150.016-8.021333h1.877333zM361.472 711.168v0.341333c0.170667-0.170667 0.170667-0.170667 0-0.341333z m459.264-320.853333z m-617.472 0z m9.557333-9.045334v0z"  /></svg>