<?xml version="1.0" standalone="no"?><!DOCTYPE svg PUBLIC "-//W3C//DTD SVG 1.1//EN" "http://www.w3.org/Graphics/SVG/1.1/DTD/svg11.dtd"><svg class="icon" width="64px" height="64.00px" viewBox="0 0 1024 1024" version="1.1" xmlns="http://www.w3.org/2000/svg"><path  d="M483.498667 672.256h57.002666a25.6 25.6 0 0 0 0-51.2h-57.002666a25.6 25.6 0 0 0 0 51.2z"  /><path  d="M907.434667 548.693333V426.666667a68.266667 68.266667 0 0 0-68.266667-68.266667H793.6v-110.421333a68.266667 68.266667 0 0 0-68.266667-68.266667h-426.666666a68.266667 68.266667 0 0 0-68.266667 68.266667v109.056h-45.568a68.266667 68.266667 0 0 0-68.266667 68.266666v122.88a169.472 169.472 0 0 0 110.933334 296.106667h569.002666a169.472 169.472 0 0 0 110.933334-296.106667zM281.6 247.978667a17.066667 17.066667 0 0 1 17.066667-17.066667h426.666666a17.066667 17.066667 0 0 1 17.066667 17.066667v109.056h-460.8zM167.765333 426.666667a17.066667 17.066667 0 0 1 17.066667-17.066667h654.336a17.066667 17.066667 0 0 1 17.066667 17.066667v91.648a165.888 165.888 0 0 0-59.733334-11.264H227.498667a165.888 165.888 0 0 0-59.733334 11.264z m508.586667 131.584a170.666667 170.666667 0 0 0 0 236.202666H347.648a170.666667 170.666667 0 0 0 0-236.202666zM110.933333 675.498667a119.466667 119.466667 0 0 1 41.130667-89.941334 23.722667 23.722667 0 0 0 10.24-8.021333 115.541333 115.541333 0 0 1 65.194667-20.138667 118.101333 118.101333 0 1 1-116.565334 118.101334z m685.568 118.101333a118.101333 118.101333 0 0 1 0-236.202667 115.541333 115.541333 0 0 1 65.194667 20.138667 23.722667 23.722667 0 0 0 10.24 8.021333 118.442667 118.442667 0 0 1-75.434667 208.042667z"  /><path  d="M281.6 675.498667a54.101333 54.101333 0 1 0-54.101333 54.272 54.272 54.272 0 0 0 54.101333-54.272z m-56.832 0a3.072 3.072 0 0 1 2.730667-3.242667 3.242667 3.242667 0 0 1 2.901333 3.242667 2.901333 2.901333 0 0 1-5.632 0zM796.501333 621.056a54.442667 54.442667 0 1 0 53.930667 54.442667 54.272 54.272 0 0 0-53.930667-54.442667z m-2.901333 54.442667a3.242667 3.242667 0 0 1 2.901333-3.242667 3.072 3.072 0 0 1 2.730667 3.242667 2.901333 2.901333 0 0 1-5.632 0z"  /></svg>