<?xml version="1.0" standalone="no"?><!DOCTYPE svg PUBLIC "-//W3C//DTD SVG 1.1//EN" "http://www.w3.org/Graphics/SVG/1.1/DTD/svg11.dtd"><svg class="icon" width="64px" height="64.00px" viewBox="0 0 1024 1024" version="1.1" xmlns="http://www.w3.org/2000/svg"><path  d="M434.346667 472.917333a39.082667 39.082667 0 1 0 39.253333 39.082667 39.253333 39.253333 0 0 0-39.253333-39.082667z m0 51.2a12.117333 12.117333 0 1 1 11.946666-12.117333 11.946667 11.946667 0 0 1-11.946666 12.117333z"  /><path  d="M898.56 162.133333h-54.613333a52.736 52.736 0 0 0-52.906667 52.565334v108.202666a52.736 52.736 0 0 0 52.906667 52.565334h3.072v47.957333a60.928 60.928 0 0 1 0 10.069333l-59.562667 34.133334a358.4 358.4 0 1 0 2.389333 57.685333l87.210667-50.005333a57.002667 57.002667 0 0 0 21.845333-50.176v-8.021334a11.264 11.264 0 0 0 0-2.389333V375.466667a52.736 52.736 0 0 0 52.906667-52.565334v-108.202666a52.736 52.736 0 0 0-53.248-52.565334zM430.933333 819.2a307.2 307.2 0 1 1 307.2-323.413333L648.533333 546.133333l-1.365333-2.048a53.077333 53.077333 0 0 0-71.850667-18.090666l-7.850666 4.778666a144.554667 144.554667 0 0 0 1.706666-18.773333 134.826667 134.826667 0 1 0-158.208 131.584A51.2 51.2 0 0 0 416.426667 682.666667l27.306666 45.397333a52.565333 52.565333 0 0 0 44.885334 25.258667 55.978667 55.978667 0 0 0 26.965333-7.168l139.776-83.285334a52.565333 52.565333 0 0 0 21.162667-71.168v-1.365333l58.709333-34.133333A307.2 307.2 0 0 1 430.933333 819.2z m3.413334-224.768a82.432 82.432 0 1 1 83.626666-82.432 83.114667 83.114667 0 0 1-83.626666 82.432z m26.453333 59.733333l140.117333-83.456h0.853334a1.877333 1.877333 0 0 1 1.706666 1.024L631.466667 616.277333s0 1.365333-1.706667 2.048l-140.117333 83.456a1.706667 1.706667 0 0 1-2.218667 0L460.8 655.872a1.194667 1.194667 0 0 1 0-1.706667z m439.466667-331.264a1.536 1.536 0 0 1-1.706667 1.365334h-54.613333a1.536 1.536 0 0 1-1.706667-1.365334v-108.202666a1.536 1.536 0 0 1 1.706667-1.365334h54.613333a1.536 1.536 0 0 1 1.706667 1.365334z"  /></svg>