<?xml version="1.0" standalone="no"?><!DOCTYPE svg PUBLIC "-//W3C//DTD SVG 1.1//EN" "http://www.w3.org/Graphics/SVG/1.1/DTD/svg11.dtd"><svg class="icon" width="64px" height="64.00px" viewBox="0 0 1024 1024" version="1.1" xmlns="http://www.w3.org/2000/svg"><path  d="M895.317333 989.866667h-768a94.037333 94.037333 0 0 1-93.866666-93.866667v-768c0-51.712 42.154667-93.866667 93.866666-93.866667h603.989334v233.472a42.666667 42.666667 0 0 0 42.666666 42.666667h215.210667V896c0 51.712-42.154667 93.866667-93.866667 93.866667z m-768-904.533334a42.666667 42.666667 0 0 0-42.666666 42.666667v768a42.666667 42.666667 0 0 0 42.666666 42.666667h768a42.666667 42.666667 0 0 0 42.666667-42.666667V361.472h-164.010667a94.037333 94.037333 0 0 1-93.866666-93.866667V85.333333H127.317333z"  /><path  d="M976.554667 281.088H757.077333V61.610667l219.477334 219.477333z m-168.277334-51.2h44.714667l-44.714667-44.714667v44.714667zM448.512 716.458667c-15.36 0-30.549333-5.802667-42.154667-17.408l-164.693333-164.693334a59.426133 59.426133 0 0 1-17.578667-42.154666c0-15.872 6.144-30.890667 17.578667-42.154667l34.474667-34.474667a59.9552 59.9552 0 0 1 84.48 0L525.312 580.266667c11.264 11.264 17.578667 26.282667 17.578667 42.154666 0 15.872-6.144 30.890667-17.578667 42.154667l-34.474667 34.474667c-11.776 11.605333-26.965333 17.408-42.325333 17.408z m-5.973333-53.589334c3.413333 3.413333 8.704 3.242667 12.117333 0l34.474667-34.474666c2.218667-2.218667 2.56-4.778667 2.56-5.973334s-0.341333-3.925333-2.56-5.973333l-164.693334-164.693333a8.7552 8.7552 0 0 0-12.117333 0l-34.474667 34.474666c-2.218667 2.218667-2.56 4.778667-2.56 5.973334s0.341333 3.925333 2.56 5.973333l164.693334 164.693333zM647.850667 517.290667c-15.36 0-30.549333-5.802667-42.325334-17.408l-164.693333-164.693334a59.9552 59.9552 0 0 1 0-84.48l34.474667-34.474666a59.648 59.648 0 0 1 84.48 0l164.693333 164.693333a59.648 59.648 0 0 1 0 84.48l-34.474667 34.474667a59.562667 59.562667 0 0 1-42.154666 17.408z m-130.218667-267.434667a8.021333 8.021333 0 0 0-5.973333 2.56l-34.474667 34.474667c-3.242667 3.413333-3.242667 8.704 0 12.117333l164.693333 164.693333c3.413333 3.242667 8.704 3.413333 12.117334 0l34.474666-34.474666c3.413333-3.413333 3.413333-8.704 0-12.117334l-164.693333-164.693333a8.96 8.96 0 0 0-6.144-2.56z"  /><path  d="M483.157333 592.725333c-10.922667 0-21.845333-4.096-30.208-12.458666l-92.501333-92.501334c-16.554667-16.554667-16.554667-43.690667 0-60.416l92.501333-92.501333c16.554667-16.554667 43.690667-16.554667 60.416 0l92.501334 92.501333c16.554667 16.554667 16.554667 43.690667 0 60.416L513.194667 580.266667c-8.192 8.192-19.114667 12.458667-30.037334 12.458666z m-80.384-135.168l80.384 80.384 80.384-80.384-80.384-80.384-80.384 80.384z"  /><path  d="M772.778667 772.949333c-6.485333 0-13.141333-2.56-18.090667-7.509333L529.749333 540.501333c-10.069333-10.069333-10.069333-26.282667 0-36.181333s26.282667-10.069333 36.181334 0l224.938666 224.938667c10.069333 10.069333 10.069333 26.282667 0 36.181333-4.949333 5.12-11.434667 7.509333-18.090666 7.509333zM601.258667 825.344H283.136c-14.165333 0-25.6-11.434667-25.6-25.6s11.434667-25.6 25.6-25.6h318.122667c14.165333 0 25.6 11.434667 25.6 25.6s-11.434667 25.6-25.6 25.6z"  /></svg>