<?xml version="1.0" standalone="no"?><!DOCTYPE svg PUBLIC "-//W3C//DTD SVG 1.1//EN" "http://www.w3.org/Graphics/SVG/1.1/DTD/svg11.dtd"><svg class="icon" width="64px" height="64.00px" viewBox="0 0 1024 1024" version="1.1" xmlns="http://www.w3.org/2000/svg"><path  d="M896 348.16c-13.653333 0-25.6-11.946667-25.6-25.6V187.733333c0-13.653333 11.946667-25.6 25.6-25.6s25.6 11.946667 25.6 25.6v134.826667c0 13.653333-11.946667 25.6-25.6 25.6zM896 861.866667c-13.653333 0-25.6-11.946667-25.6-25.6v-134.826667c0-13.653333 11.946667-25.6 25.6-25.6s25.6 11.946667 25.6 25.6V836.266667c0 13.653333-11.946667 25.6-25.6 25.6zM896 629.76c-13.653333 0-25.6-11.946667-25.6-25.6v-187.733333c0-13.653333 11.946667-25.6 25.6-25.6s25.6 11.946667 25.6 25.6v187.733333c0 13.653333-11.946667 25.6-25.6 25.6zM745.813333 964.266667H196.266667C143.36 964.266667 102.4 921.6 102.4 870.4V153.6c0-51.2 42.666667-93.866667 93.866667-93.866667h551.253333c51.2 0 93.866667 42.666667 93.866667 93.866667v716.8c-1.706667 51.2-44.373333 93.866667-95.573334 93.866667z m-549.546666-853.333334C172.373333 110.933333 153.6 129.706667 153.6 153.6v716.8c0 23.893333 18.773333 42.666667 42.666667 42.666667h551.253333c23.893333 0 42.666667-18.773333 42.666667-42.666667V153.6c0-23.893333-18.773333-42.666667-42.666667-42.666667H196.266667z"  /><path  d="M621.226667 750.933333h-307.2c-29.013333 0-51.2-22.186667-51.2-51.2 0-85.333333 68.266667-153.6 153.6-153.6h102.4c85.333333 0 153.6 68.266667 153.6 153.6 0 27.306667-22.186667 51.2-51.2 51.2z m-203.093334-153.6c-56.32 0-102.4 46.08-102.4 102.4h307.2c0-56.32-46.08-102.4-102.4-102.4h-102.4z"  /><path  d="M469.333333 529.066667c-69.973333 0-128-58.026667-128-128s58.026667-128 128-128 128 58.026667 128 128c-1.706667 69.973333-58.026667 128-128 128z m0-204.8C426.666667 324.266667 392.533333 358.4 392.533333 401.066667s34.133333 76.8 76.8 76.8 76.8-34.133333 76.8-76.8c-1.706667-42.666667-35.84-76.8-76.8-76.8z"  /></svg>