<?xml version="1.0" standalone="no"?><!DOCTYPE svg PUBLIC "-//W3C//DTD SVG 1.1//EN" "http://www.w3.org/Graphics/SVG/1.1/DTD/svg11.dtd"><svg class="icon" width="64px" height="64.00px" viewBox="0 0 1024 1024" version="1.1" xmlns="http://www.w3.org/2000/svg"><path  d="M916.650667 897.194667H107.349333a70.485333 70.485333 0 0 1-70.485333-70.485334V197.290667a70.485333 70.485333 0 0 1 70.485333-70.485334h809.301334a70.485333 70.485333 0 0 1 70.485333 70.485334v629.418666a70.485333 70.485333 0 0 1-70.485333 70.485334zM107.349333 178.005333a19.456 19.456 0 0 0-19.285333 19.285334v629.418666a19.456 19.456 0 0 0 19.285333 19.285334h809.301334a19.456 19.456 0 0 0 19.285333-19.285334V197.290667a19.456 19.456 0 0 0-19.285333-19.285334z"  /><path  d="M354.645333 560.128a115.541333 115.541333 0 1 1 115.541334-115.541333 115.712 115.712 0 0 1-115.541334 115.541333z m0-179.882667a64.341333 64.341333 0 1 0 64.341334 64.341334 64.341333 64.341333 0 0 0-64.341334-64.341334z"  /><path  d="M489.472 694.954667a25.6 25.6 0 0 1-25.6-25.6 109.226667 109.226667 0 0 0-218.453333 0 25.6 25.6 0 0 1-51.2 0 160.426667 160.426667 0 0 1 320.853333 0 25.6 25.6 0 0 1-25.6 25.6zM781.824 447.658667H601.941333a25.6 25.6 0 0 1 0-51.2h179.882667a25.6 25.6 0 0 1 0 51.2zM781.824 627.541333H646.826667a25.6 25.6 0 0 1 0-51.2h134.997333a25.6 25.6 0 0 1 0 51.2z"  /></svg>