<?xml version="1.0" standalone="no"?><!DOCTYPE svg PUBLIC "-//W3C//DTD SVG 1.1//EN" "http://www.w3.org/Graphics/SVG/1.1/DTD/svg11.dtd"><svg class="icon" width="64px" height="64.00px" viewBox="0 0 1024 1024" version="1.1" xmlns="http://www.w3.org/2000/svg"><path  d="M957.098667 957.952H264.704a25.6 25.6 0 0 1-25.6-25.6V635.562667a25.6 25.6 0 0 1 25.6-25.6h692.394667a25.6 25.6 0 0 1 25.6 25.6v296.789333a25.6 25.6 0 0 1-25.6 25.6z m-666.965334-51.2h641.365334V661.162667H290.133333zM957.098667 414.037333H264.704a25.6 25.6 0 0 1-25.6-25.6V91.648a25.6 25.6 0 0 1 25.6-25.6h692.394667a25.6 25.6 0 0 1 25.6 25.6v296.789333a25.6 25.6 0 0 1-25.6 25.6z m-666.965334-51.2h641.365334V117.248H290.133333z"  /><path  d="M957.098667 957.952H264.704a25.6 25.6 0 0 1-25.6-25.6v-122.709333H66.901333a25.6 25.6 0 0 1-25.6-25.6V239.957333a25.6 25.6 0 0 1 25.6-25.6H238.933333V91.648a25.6 25.6 0 0 1 25.6-25.6h692.565334a25.6 25.6 0 0 1 25.6 25.6v296.789333a25.6 25.6 0 0 1-25.6 25.6H264.704a25.6 25.6 0 0 1-25.6-25.6v-122.88H92.501333v492.885334H238.933333v-122.88a25.6 25.6 0 0 1 25.6-25.6h692.565334a25.6 25.6 0 0 1 25.6 25.6v296.789333a25.6 25.6 0 0 1-25.6 25.6z m-666.965334-51.2h641.365334V661.162667H290.133333z m0-543.914667h641.365334V117.248H290.133333z"  /><path  d="M264.704 809.642667H66.901333a25.6 25.6 0 0 1-25.6-25.6V239.957333a25.6 25.6 0 0 1 25.6-25.6h197.802667a25.6 25.6 0 1 1 0 51.2H92.501333v492.885334h172.202667a25.6 25.6 0 1 1 0 51.2z"  /><path  d="M957.098667 957.952H264.704a25.6 25.6 0 0 1-25.6-25.6V635.562667a25.6 25.6 0 0 1 25.6-25.6h692.394667a25.6 25.6 0 0 1 25.6 25.6v296.789333a25.6 25.6 0 0 1-25.6 25.6z m-666.965334-51.2h641.365334V661.162667H290.133333zM957.098667 414.037333H264.704a25.6 25.6 0 0 1-25.6-25.6V91.648a25.6 25.6 0 0 1 25.6-25.6h692.394667a25.6 25.6 0 0 1 25.6 25.6v296.789333a25.6 25.6 0 0 1-25.6 25.6z m-666.965334-51.2h641.365334V117.248H290.133333z"  /></svg>