<?xml version="1.0" standalone="no"?><!DOCTYPE svg PUBLIC "-//W3C//DTD SVG 1.1//EN" "http://www.w3.org/Graphics/SVG/1.1/DTD/svg11.dtd"><svg class="icon" width="64px" height="64.00px" viewBox="0 0 1024 1024" version="1.1" xmlns="http://www.w3.org/2000/svg"><path  d="M423.936 939.690667H86.357333a47.786667 47.786667 0 0 1-46.762666-48.64V132.949333a47.786667 47.786667 0 0 1 46.762666-48.64h337.578667a47.616 47.616 0 0 1 46.592 48.64v133.461334a25.6 25.6 0 0 1-51.2 0V135.509333H90.794667v752.981334h328.533333v-130.901334a25.6 25.6 0 0 1 51.2 0v133.461334a47.616 47.616 0 0 1-46.592 48.64zM937.642667 939.690667H600.064a47.616 47.616 0 0 1-46.592-48.64v-133.461334a25.6 25.6 0 0 1 51.2 0v130.901334h328.533333V135.509333H604.672v130.901334a25.6 25.6 0 0 1-51.2 0V132.949333a47.616 47.616 0 0 1 46.592-48.64h337.578667a47.786667 47.786667 0 0 1 46.762666 48.64v758.101334a47.786667 47.786667 0 0 1-46.762666 48.64z"  /><path  d="M256 850.432a70.314667 70.314667 0 1 1 70.314667-70.314667A70.485333 70.485333 0 0 1 256 850.432z m0-89.429333a19.114667 19.114667 0 0 0 0 38.229333 19.114667 19.114667 0 1 0 0-38.229333zM768.853333 850.432a70.314667 70.314667 0 1 1 70.314667-70.314667 70.485333 70.485333 0 0 1-70.314667 70.314667z m0-89.429333a19.114667 19.114667 0 1 0 19.114667 19.114666 19.114667 19.114667 0 0 0-19.114667-19.114666zM690.688 526.506667H333.312a25.6 25.6 0 0 1 0-51.2h357.376a25.6 25.6 0 0 1 0 51.2z"  /><path  d="M584.021333 633.002667a25.088 25.088 0 0 1-18.090666-7.509334 25.429333 25.429333 0 0 1 0-36.181333l88.576-88.405333-88.576-88.576A25.6 25.6 0 0 1 602.112 375.466667l106.666667 106.496a25.941333 25.941333 0 0 1 0 36.352l-106.666667 106.496a25.088 25.088 0 0 1-18.090667 8.192z"  /></svg>