<?xml version="1.0" standalone="no"?><!DOCTYPE svg PUBLIC "-//W3C//DTD SVG 1.1//EN" "http://www.w3.org/Graphics/SVG/1.1/DTD/svg11.dtd"><svg class="icon" width="64px" height="64.00px" viewBox="0 0 1024 1024" version="1.1" xmlns="http://www.w3.org/2000/svg"><path  d="M512 543.061333c-140.288 0-254.464-114.176-254.464-254.464C257.536 148.309333 371.712 34.133333 512 34.133333c140.288 0 254.464 114.176 254.464 254.464 0 140.288-114.176 254.464-254.464 254.464zM512 85.333333c-112.128 0-203.264 91.136-203.264 203.264S399.872 491.861333 512 491.861333s203.264-91.136 203.264-203.264S624.128 85.333333 512 85.333333z"  /><path  d="M65.194667 989.866667c-14.165333 0-25.6-11.434667-25.6-25.6 0-260.437333 211.968-472.405333 472.405333-472.405334 14.165333 0 25.6 11.434667 25.6 25.6s-11.434667 25.6-25.6 25.6c-232.277333 0-421.205333 188.928-421.205333 421.205334 0 14.165333-11.434667 25.6-25.6 25.6zM920.917333 630.954667c9.386667 0 17.066667 7.68 17.066667 17.066666V921.6c0 9.386667-7.68 17.066667-17.066667 17.066667H543.232c-9.386667 0-17.066667-7.68-17.066667-17.066667V648.021333c0-9.386667 7.68-17.066667 17.066667-17.066666h377.685333m0-51.2H543.232c-37.717333 0-68.266667 30.549333-68.266667 68.266666V921.6c0 37.717333 30.549333 68.266667 68.266667 68.266667h377.685333c37.717333 0 68.266667-30.549333 68.266667-68.266667V648.021333c0-37.546667-30.549333-68.266667-68.266667-68.266666z"  /><path  d="M775.509333 718.677333h-156.842666c-14.165333 0-25.6-11.434667-25.6-25.6s11.434667-25.6 25.6-25.6h156.842666c14.165333 0 25.6 11.434667 25.6 25.6s-11.434667 25.6-25.6 25.6zM722.773333 806.912h-104.106666c-14.165333 0-25.6-11.434667-25.6-25.6s11.434667-25.6 25.6-25.6h104.106666c14.165333 0 25.6 11.434667 25.6 25.6s-11.434667 25.6-25.6 25.6zM678.058667 895.146667h-59.392c-14.165333 0-25.6-11.434667-25.6-25.6s11.434667-25.6 25.6-25.6h59.392c14.165333 0 25.6 11.434667 25.6 25.6s-11.434667 25.6-25.6 25.6z"  /></svg>