<?xml version="1.0" standalone="no"?><!DOCTYPE svg PUBLIC "-//W3C//DTD SVG 1.1//EN" "http://www.w3.org/Graphics/SVG/1.1/DTD/svg11.dtd"><svg class="icon" width="64px" height="64.00px" viewBox="0 0 1024 1024" version="1.1" xmlns="http://www.w3.org/2000/svg"><path  d="M194.56 955.733333c-13.653333 0-25.6-11.946667-25.6-25.6s11.946667-25.6 25.6-25.6l291.84-0.017066v-107.52l-358.4 0.017066c-51.2 0-93.866667-42.666667-93.866667-93.866666V162.133333C34.133333 110.933333 76.8 68.266667 128 68.266667h768c51.2 0 93.866667 42.666667 93.866667 93.866666v542.72c0 51.2-42.666667 92.16-93.866667 92.16l-358.4-0.017066v107.52l290.133333 0.017066c13.653333 0 25.6 11.946667 25.6 25.6s-10.24 25.6-25.6 25.6H194.56zM896 119.466667h-768C104.106667 119.466667 85.333333 138.24 85.333333 162.133333v542.72c0 23.893333 18.773333 42.666667 42.666667 42.666667h375.159467a24.149333 24.149333 0 0 1 17.681066 0H896c23.893333 0 42.666667-18.773333 42.666667-42.666667V162.133333C938.666667 138.24 919.893333 119.466667 896 119.466667z m-353.8944 119.466666c87.944533 0 165.922133 56.610133 192.477867 139.861334C786.0224 402.107733 819.2 452.061867 819.2 510.327467c0 19.985067-4.983467 39.970133-13.277867 58.282666A138.171733 138.171733 0 0 1 704.7168 648.533333H362.9056a157.559467 157.559467 0 0 1-121.122133-78.250666C228.5056 546.9696 221.866667 520.328533 221.866667 492.014933a157.866667 157.866667 0 0 1 46.455466-111.547733c26.555733-26.641067 63.061333-43.298133 101.205334-44.9536C406.0672 275.5584 470.766933 238.933333 542.122667 238.933333z m1.655467 48.298667c-58.077867 0-109.5168 31.624533-136.055467 83.234133-4.983467 8.328533-13.277867 13.312-21.572267 13.312h-4.983466c-28.194133 0-54.749867 11.6736-76.322134 31.6416a107.093333 107.093333 0 0 0-31.522133 76.5952c0 19.985067 4.983467 36.642133 13.277867 53.282134 16.5888 29.969067 48.128 51.626667 82.944 53.282133h328.533333c28.228267-6.656 51.456-24.968533 64.7168-51.6096 4.983467-11.656533 8.311467-24.9856 8.311467-38.2976 0-39.970133-24.900267-74.922667-63.061334-88.234667-8.2944-3.345067-14.933333-10.001067-16.5888-18.3296-16.5888-68.266667-77.994667-114.8928-147.677866-114.8928z m-9.949867 39.936c39.816533 0 73.0112 33.314133 73.0112 73.2672l-0.017067 13.312h3.328c18.261333 0 34.850133 15.0016 34.850134 34.986667v88.234666c0 18.3296-14.933333 34.986667-34.850134 34.986667h-155.972266c-18.261333 0-34.850133-15.0016-34.850134-34.986667v-88.234666c0-18.312533 14.933333-34.986667 34.850134-34.986667H460.8v-13.312c0-39.953067 33.1776-73.250133 73.0112-73.250133z m61.3888 138.205867h-124.450133v56.610133h124.450133v-56.610133z m-61.3888-88.234667c-13.277867 0-23.227733 9.984-23.227733 23.296l-0.017067 13.312h46.455467v-13.312c0-13.312-9.9328-23.296-23.210667-23.296z"  /></svg>