<?xml version="1.0" standalone="no"?><!DOCTYPE svg PUBLIC "-//W3C//DTD SVG 1.1//EN" "http://www.w3.org/Graphics/SVG/1.1/DTD/svg11.dtd"><svg class="icon" width="64px" height="64.00px" viewBox="0 0 1024 1024" version="1.1" xmlns="http://www.w3.org/2000/svg"><path  d="M496.128 254.293333a59.392 59.392 0 0 0 53.76 8.021334 417.109333 417.109333 0 0 1 0 41.984 26.112 26.112 0 0 0 6.656 18.090666c4.096 4.608 40.96 44.373333 82.261333 50.176a55.466667 55.466667 0 0 0 7.509334 0c36.693333 0 75.776-36.010667 93.354666-54.272a699.733333 699.733333 0 0 0 86.186667-26.965333 383.146667 383.146667 0 0 1 34.133333 60.586667 25.6 25.6 0 1 0 46.421334-21.333334A435.029333 435.029333 0 1 0 221.866667 836.266667a21.333333 21.333333 0 0 0 5.12 4.437333 431.616 431.616 0 0 0 166.741333 90.112 24.746667 24.746667 0 0 0 6.997333 1.024 25.6 25.6 0 0 0 6.997334-51.2 379.904 379.904 0 0 1-132.437334-67.242667l18.432-27.477333a70.144 70.144 0 0 0 37.376-26.624c20.650667-37.205333-1.024-87.210667-10.752-105.642667a194.56 194.56 0 0 0-6.656-38.4s0-1.877333-0.853333-2.730666a93.354667 93.354667 0 0 0-42.837333-37.376A175.957333 175.957333 0 0 1 245.76 512a21.333333 21.333333 0 0 1 20.138667-22.186667 14.165333 14.165333 0 0 0 3.754666 0 101.205333 101.205333 0 0 0 60.928-39.082666 99.669333 99.669333 0 0 0 54.954667-36.010667c11.605333-20.138667 3.584-58.026667-6.314667-88.576a121.344 121.344 0 0 0-2.048-51.2 22.869333 22.869333 0 0 0-1.536-4.437333 115.029333 115.029333 0 0 0-31.573333-40.789334 215.552 215.552 0 0 0-27.989333-46.250666 368.64 368.64 0 0 1 36.352-19.114667 383.488 383.488 0 0 1 85.333333-27.477333 47.104 47.104 0 0 0 0 29.866666 64.341333 64.341333 0 0 0 38.229333 32.768 65.194667 65.194667 0 0 0 20.138667 54.784z m-196.778667 0a25.770667 25.770667 0 0 0 9.045334 11.434667 63.829333 63.829333 0 0 1 19.797333 22.869333 70.314667 70.314667 0 0 1 0 32.085334 27.306667 27.306667 0 0 0 0 14.336 197.802667 197.802667 0 0 1 11.605333 53.930666 105.642667 105.642667 0 0 1-32.256 13.994667 25.941333 25.941333 0 0 0-15.530666 11.946667 51.2 51.2 0 0 1-31.744 23.552A72.533333 72.533333 0 0 0 194.56 512c0 36.693333 29.354667 86.357333 35.157333 95.914667a25.941333 25.941333 0 0 0 10.581334 9.557333 130.901333 130.901333 0 0 1 24.917333 15.530667 152.576 152.576 0 0 1 4.266667 29.013333 27.477333 27.477333 0 0 0 3.242666 11.434667c9.557333 17.066667 19.285333 45.909333 14.336 59.050666a72.704 72.704 0 0 1-17.066666 7.168A26.794667 26.794667 0 0 0 256 750.933333l-19.114667 28.672a382.464 382.464 0 0 1 37.376-567.978666 168.618667 168.618667 0 0 1 25.088 42.325333z m492.885334-4.096a641.365333 641.365333 0 0 1-71.168 20.821334 25.770667 25.770667 0 0 0-13.482667 7.850666c-20.821333 23.210667-51.2 44.202667-61.098667 43.349334a101.205333 101.205333 0 0 1-44.544-26.794667c1.194667-70.997333-11.434667-81.408-25.770666-85.333333a53.077333 53.077333 0 0 0-32.256 2.048 124.245333 124.245333 0 0 1-15.530667 3.072A63.317333 63.317333 0 0 1 529.066667 187.733333a25.770667 25.770667 0 0 0-17.066667-30.72 137.898667 137.898667 0 0 1-23.893333-10.069333c2.048-5.632 5.802667-13.482667 8.021333-17.066667a385.536 385.536 0 0 1 296.106667 119.978667z"  /><path  d="M502.442667 567.466667a25.6 25.6 0 0 0 5.802666-32.426667 320.341333 320.341333 0 0 1 44.714667-68.266667 165.717333 165.717333 0 0 1 40.789333-7.68 126.634667 126.634667 0 0 1 21.674667 10.410667 25.6 25.6 0 1 0 26.453333-43.861333 189.44 189.44 0 0 0-36.352-17.066667 27.136 27.136 0 0 0-9.045333-1.365333 232.789333 232.789333 0 0 0-68.266667 13.141333 26.965333 26.965333 0 0 0-11.093333 7.850667c-23.04 27.818667-61.610667 79.018667-61.610667 109.397333a15.701333 15.701333 0 0 0 0 2.730667 42.325333 42.325333 0 0 0 9.898667 23.381333 25.088 25.088 0 0 0 19.626667 9.216 25.6 25.6 0 0 0 17.408-5.461333zM929.621333 413.013333a25.6 25.6 0 0 0-28.501333 9.045334 254.293333 254.293333 0 0 1-202.922667 102.4A174.250667 174.250667 0 0 0 591.36 836.266667c-23.722667 39.594667-47.616 60.074667-97.792 60.074666a25.6 25.6 0 0 0 0 51.2c76.970667 0 114.517333-39.082667 142.506667-85.333333a174.592 174.592 0 0 0 62.122666 11.605333A249.173333 249.173333 0 0 0 947.2 623.957333V437.418667a25.6 25.6 0 0 0-17.578667-24.405334z m-34.133333 210.944a197.973333 197.973333 0 0 1-197.290667 197.632 119.466667 119.466667 0 0 1-37.546666-5.973333c29.525333-57.173333 60.928-115.882667 145.237333-145.92a25.6 25.6 0 0 0-17.066667-48.298667c-102.4 36.352-141.482667 108.714667-172.373333 168.618667a122.88 122.88 0 0 1 81.92-214.869333 305.834667 305.834667 0 0 0 197.632-73.216z"  /></svg>