<?xml version="1.0" standalone="no"?><!DOCTYPE svg PUBLIC "-//W3C//DTD SVG 1.1//EN" "http://www.w3.org/Graphics/SVG/1.1/DTD/svg11.dtd"><svg class="icon" width="64px" height="64.00px" viewBox="0 0 1024 1024" version="1.1" xmlns="http://www.w3.org/2000/svg"><path  d="M853.333333 398.165333a341.333333 341.333333 0 0 0-682.666666 0 351.914667 351.914667 0 0 0 229.546666 330.922667V853.333333a111.786667 111.786667 0 0 0 223.573334 0v-124.245333A351.914667 351.914667 0 0 0 853.333333 398.165333z m-424.277333 2.901334h-31.914667a31.402667 31.402667 0 1 1 31.914667-31.232z m51.2 51.2h63.488v233.301333h-63.488z m-28.842667 284.501333h121.173334v62.464h-121.173334zM512 913.066667a60.245333 60.245333 0 0 1-60.586667-59.733334v-2.901333h121.173334V853.333333A60.245333 60.245333 0 0 1 512 913.066667z m82.944-228.010667V452.266667h31.914667a82.602667 82.602667 0 1 0-83.114667-82.432v31.232h-63.488v-31.232a83.114667 83.114667 0 1 0-83.114667 82.432h31.914667v232.789333A301.397333 301.397333 0 0 1 221.866667 398.165333a290.133333 290.133333 0 0 1 580.266666 0 301.397333 301.397333 0 0 1-207.189333 286.890667z m0-283.989333v-31.232a31.914667 31.914667 0 1 1 31.914667 31.232z"  /></svg>