<?xml version="1.0" standalone="no"?><!DOCTYPE svg PUBLIC "-//W3C//DTD SVG 1.1//EN" "http://www.w3.org/Graphics/SVG/1.1/DTD/svg11.dtd"><svg class="icon" width="64px" height="64.00px" viewBox="0 0 1024 1024" version="1.1" xmlns="http://www.w3.org/2000/svg"><path  d="M975.189333 924.672l-51.2-53.077333a160.597333 160.597333 0 0 0-74.069333-236.202667 161.962667 161.962667 0 0 0-59.733333-10.410667 155.648 155.648 0 0 0-57.856 10.24A157.184 157.184 0 0 0 631.466667 785.066667v2.730666a139.434667 139.434667 0 0 0 5.802666 41.984 157.013333 157.013333 0 0 0 153.6 112.64 160.256 160.256 0 0 0 88.576-23.893333l51.2 50.176a31.061333 31.061333 0 0 0 44.202667 0 30.208 30.208 0 0 0 0.341333-44.032zM791.893333 897.536a114.346667 114.346667 0 1 1 0-228.352 112.469333 112.469333 0 0 1 114.688 114.346667 117.418667 117.418667 0 0 1-114.688 114.005333zM406.016 832.341333a107.008 107.008 0 0 0-47.786667-4.437333h-53.76a37.034667 37.034667 0 0 0-36.181333 36.522667v83.456a37.205333 37.205333 0 0 0 34.133333 36.352c12.970667 1.024 26.453333 0 39.594667 0h45.226667a36.864 36.864 0 0 0 35.669333-26.282667 69.12 69.12 0 0 0 1.365333-18.773333v-53.930667-19.114667a37.546667 37.546667 0 0 0-18.261333-33.792z m-23.04 113.493334H307.2v-79.530667h79.701333v79.530667zM396.970667 656.554667a86.698667 86.698667 0 0 0-17.066667 0h-74.24a36.693333 36.693333 0 0 0-34.133333 19.456 115.029333 115.029333 0 0 0-4.096 48.298666v48.810667a38.058667 38.058667 0 0 0 14.336 31.573333 41.301333 41.301333 0 0 0 26.965333 7.68h52.053333c17.066667 0 37.376 2.901333 51.2-9.557333a36.864 36.864 0 0 0 11.776-26.794667c0-27.818667 0.853333-55.637333 0-83.456a36.693333 36.693333 0 0 0-26.794666-36.010666z m-9.728 37.546666zM307.2 775.850667z m60.757333-1.877334H307.2c1.024-13.824 0-27.989333 0-41.813333v-25.088a82.261333 82.261333 0 0 0 0-12.970667 82.261333 82.261333 0 0 0 12.970667 0h67.072v79.872h-19.797334zM575.658667 832.341333a107.008 107.008 0 0 0-47.786667-4.437333h-53.589333a37.376 37.376 0 0 0-36.352 36.522667v83.456a37.205333 37.205333 0 0 0 34.133333 36.352c12.970667 1.024 26.453333 0 39.594667 0h45.226666a37.205333 37.205333 0 0 0 35.84-26.282667 69.12 69.12 0 0 0 1.365334-18.773333v-73.045334a38.058667 38.058667 0 0 0-18.432-33.792z m-23.04 113.493334h-76.288v-79.530667h79.872v75.434667a32.768 32.768 0 0 0 0 4.096zM566.613333 656.554667a85.333333 85.333333 0 0 0-17.066666 0h-73.045334a36.864 36.864 0 0 0-34.133333 19.456 115.029333 115.029333 0 0 0-4.096 48.298666v48.810667a38.058667 38.058667 0 0 0 14.336 31.573333 41.301333 41.301333 0 0 0 26.965333 7.68h52.053334c17.066667 0 37.376 2.901333 51.2-9.557333a37.546667 37.546667 0 0 0 11.776-26.794667v-83.456a37.034667 37.034667 0 0 0-27.989334-36.010666z m-9.728 37.546666z m-80.554666 81.749334z m60.928-1.877334h-60.928c1.024-13.824 0-27.989333 0-41.813333v-25.088a109.226667 109.226667 0 0 0 0-12.970667 82.261333 82.261333 0 0 0 12.970666 0h67.242667v79.872h-19.285333zM365.226667 632.490667a42.154667 42.154667 0 0 0 27.306666 7.509333h51.2c17.066667 0 37.376 2.901333 51.2-9.557333a37.376 37.376 0 0 0 11.776-26.624v-83.626667a36.864 36.864 0 0 0-27.989333-35.84 75.605333 75.605333 0 0 0-17.066667-1.024h-72.874666a37.376 37.376 0 0 0-34.133334 19.626667 114.005333 114.005333 0 0 0-4.096 48.128v49.664a38.4 38.4 0 0 0 14.677334 31.744z m24.064-28.842667z m80.554666-81.92z m-68.266666 0h67.242666v79.872h-79.530666c1.024-13.653333 0-27.989333 0-41.642667v-25.088a112.128 112.128 0 0 0 0-13.141333 82.261333 82.261333 0 0 0 13.141333 0z"  /><path  d="M283.648 419.84h464.384a54.954667 54.954667 0 0 1 12.970667 0c10.410667 3.072 7.68 13.312 7.68 22.528a170.666667 170.666667 0 0 0 2.901333 50.346667 59.392 59.392 0 0 0 55.978667 39.936c27.989333 1.194667 57.002667 1.024 85.333333 0a70.144 70.144 0 0 0 68.266667-74.581334v-100.181333c0-30.378667 3.584-62.976-12.117334-90.453333a109.397333 109.397333 0 0 0-53.589333-43.178667l-348.16-163.157333-31.061333-14.506667h-2.56a11.605333 11.605333 0 0 0-3.584-1.706667c-51.2-17.066667-104.106667 19.968-148.650667 41.813334l-197.461333 97.28-73.557334 35.157333a136.533333 136.533333 0 0 0-49.152 34.133333c-27.818667 34.133333-20.650667 83.797333-20.650666 124.928v419.328c0 40.106667-1.536 80.725333 0 120.832a60.416 60.416 0 0 0 63.488 60.245334c29.696 0 59.904 1.194667 89.6 0 67.072-3.072 59.050667-69.973333 59.050666-117.077334V460.8a128.170667 128.170667 0 0 1 0-34.133333c3.242667-10.752 21.674667-6.826667 30.890667-6.826667z m-48.298667-45.738667c-44.714667 20.821333-34.133333 81.578667-34.133333 121.856v389.12a134.656 134.656 0 0 1 0 35.157334c-3.072 9.045333-10.752 7.168-18.773333 7.168h-51.2c-12.8 0-38.058667 6.144-40.106667-10.24a347.477333 347.477333 0 0 1 0-42.154667v-546.133333a85.333333 85.333333 0 0 1 3.413333-35.498667C102.4 277.333333 121.173333 270.848 136.533333 263.338667l329.045334-161.962667a58.88 58.88 0 0 1 49.322666-8.533333l294.058667 137.898666 71.338667 34.133334a143.018667 143.018667 0 0 1 37.376 19.968c18.602667 17.066667 12.117333 54.442667 12.117333 77.653333v95.232c0 29.184-24.576 24.405333-47.274667 24.405333h-48.64c-11.776 0-13.824-3.584-13.994666-15.189333v-42.496a58.368 58.368 0 0 0-48.469334-54.101333 217.258667 217.258667 0 0 0-37.546666-1.706667H280.917333a105.301333 105.301333 0 0 0-45.568 5.461333z"  /></svg>