<?xml version="1.0" standalone="no"?><!DOCTYPE svg PUBLIC "-//W3C//DTD SVG 1.1//EN" "http://www.w3.org/Graphics/SVG/1.1/DTD/svg11.dtd"><svg class="icon" width="64px" height="64.00px" viewBox="0 0 1024 1024" version="1.1" xmlns="http://www.w3.org/2000/svg"><path  d="M292.864 742.912a29.696 29.696 0 0 0-19.797333 37.546667l20.821333 66.389333A402.602667 402.602667 0 0 1 501.418667 99.84a30.72 30.72 0 0 0 30.890666-26.794667 30.037333 30.037333 0 0 0-29.866666-32.938666A460.8 460.8 0 0 0 40.277333 502.272a460.8 460.8 0 0 0 230.570667 400.213333l-71.850667 22.698667a30.72 30.72 0 0 0-21.333333 34.133333 29.866667 29.866667 0 0 0 29.354667 23.893334 27.136 27.136 0 0 0 9.045333-1.365334l127.488-40.277333a41.472 41.472 0 0 0 27.136-52.224l-40.277333-127.658667a29.866667 29.866667 0 0 0-37.546667-19.456zM753.152 121.514667l71.338667-22.528a30.890667 30.890667 0 0 0 21.674666-35.498667 29.696 29.696 0 0 0-38.229333-22.016l-128 40.448a40.96 40.96 0 0 0-26.794667 51.2l40.448 128.170667a29.866667 29.866667 0 0 0 28.501334 20.992 30.72 30.72 0 0 0 22.357333-9.216 31.232 31.232 0 0 0 6.485333-30.72l-20.309333-64.341334a402.432 402.432 0 0 1-207.872 745.984 31.061333 31.061333 0 0 0-31.061333 27.136 29.866667 29.866667 0 0 0 29.866666 32.768 460.8 460.8 0 0 0 462.165334-462.165333A460.8 460.8 0 0 0 753.152 121.514667z"  /><path  d="M618.154667 567.125333a179.029333 179.029333 0 0 0 29.354666-98.645333 176.981333 176.981333 0 0 0-112.981333-168.106667 181.248 181.248 0 0 0-67.413333-11.946666A175.957333 175.957333 0 0 0 288.426667 468.48v3.242667a159.232 159.232 0 0 0 6.485333 47.445333 176.981333 176.981333 0 0 0 173.909333 127.146667 180.394667 180.394667 0 0 0 99.498667-26.453334 1.024 1.024 0 0 1 1.365333 0l105.130667 105.130667a35.669333 35.669333 0 0 0 51.2 0 34.133333 34.133333 0 0 0 0-48.128zM469.162667 597.333333a129.365333 129.365333 0 1 1 0-258.048 127.317333 127.317333 0 0 1 129.536 129.194667A132.778667 132.778667 0 0 1 469.162667 597.333333z"  /></svg>