<?xml version="1.0" standalone="no"?><!DOCTYPE svg PUBLIC "-//W3C//DTD SVG 1.1//EN" "http://www.w3.org/Graphics/SVG/1.1/DTD/svg11.dtd"><svg class="icon" width="64px" height="64.00px" viewBox="0 0 1024 1024" version="1.1" xmlns="http://www.w3.org/2000/svg"><path  d="M962.56 266.24h-112.64c-13.653333 0-25.6-11.946667-25.6-25.6V133.12c0-13.653333 11.946667-25.6 25.6-25.6h47.786667c49.493333 0 90.453333 42.666667 90.453333 97.28v35.84c0 13.653333-11.946667 25.6-25.6 25.6z m-87.04-51.2h61.44V204.8c0-25.6-17.066667-46.08-39.253333-46.08h-22.186667v56.32zM728.746667 931.84H136.533333c-51.2 0-92.16-51.2-92.16-112.64v-44.373333c0-13.653333 11.946667-25.6 25.6-25.6h592.213334c13.653333 0 25.6 11.946667 25.6 25.6V819.2c0 34.133333 18.773333 61.44 40.96 61.44 13.653333 0 25.6 11.946667 25.6 25.6 0 15.36-11.946667 25.6-25.6 25.6zM95.573333 802.133333v17.066667c0 34.133333 18.773333 61.44 40.96 61.44h515.413334c-10.24-17.066667-15.36-39.253333-15.36-61.44v-17.066667H95.573333z"  /><path  d="M733.866667 931.84H141.653333c-59.733333 0-107.52-47.786667-107.52-107.52v-32.426667c0-23.893333 18.773333-42.666667 42.666667-42.666666h56.32V232.106667c0-76.8 63.146667-139.946667 139.946667-139.946667h609.28c59.733333 0 107.52 47.786667 107.52 107.52v32.426667c0 23.893333-18.773333 42.666667-42.666667 42.666666h-73.386667v517.12c1.706667 76.8-61.44 139.946667-139.946666 139.946667zM85.333333 800.426667v23.893333c0 30.72 25.6 56.32 56.32 56.32H733.866667c49.493333 0 88.746667-40.96 88.746666-88.746667V223.573333H938.666667v-23.893333c0-30.72-25.6-56.32-56.32-56.32H273.066667c-49.493333 0-88.746667 40.96-88.746667 88.746667v568.32H85.333333z"  /><path  d="M561.493333 298.666667H256c-13.653333 0-25.6-11.946667-25.6-25.6s11.946667-25.6 25.6-25.6h305.493333c13.653333 0 25.6 11.946667 25.6 25.6s-11.946667 25.6-25.6 25.6zM747.52 428.373333H256c-13.653333 0-25.6-11.946667-25.6-25.6s11.946667-25.6 25.6-25.6h491.52c13.653333 0 25.6 11.946667 25.6 25.6s-11.946667 25.6-25.6 25.6zM747.52 684.373333H256c-13.653333 0-25.6-11.946667-25.6-25.6s11.946667-25.6 25.6-25.6h491.52c13.653333 0 25.6 11.946667 25.6 25.6s-11.946667 25.6-25.6 25.6zM561.493333 556.373333H256c-13.653333 0-25.6-11.946667-25.6-25.6s11.946667-25.6 25.6-25.6h305.493333c13.653333 0 25.6 11.946667 25.6 25.6s-11.946667 25.6-25.6 25.6z"  /></svg>