<?xml version="1.0" standalone="no"?><!DOCTYPE svg PUBLIC "-//W3C//DTD SVG 1.1//EN" "http://www.w3.org/Graphics/SVG/1.1/DTD/svg11.dtd"><svg class="icon" width="64px" height="64.00px" viewBox="0 0 1024 1024" version="1.1" xmlns="http://www.w3.org/2000/svg"><path  d="M805.546667 34.133333H218.453333a94.037333 94.037333 0 0 0-93.866666 93.866667v768c0 51.712 42.154667 93.866667 93.866666 93.866667h216.576c14.165333 0 25.6-11.434667 25.6-25.6s-11.434667-25.6-25.6-25.6H218.453333a42.666667 42.666667 0 0 1-42.666666-42.666667v-768A42.666667 42.666667 0 0 1 218.453333 85.333333h587.093334a42.666667 42.666667 0 0 1 42.666666 42.666667V494.933333c0 14.165333 11.434667 25.6 25.6 25.6s25.6-11.434667 25.6-25.6V128c0-51.712-42.154667-93.866667-93.866666-93.866667z"  /><path  d="M662.016 514.901333c-130.901333 0-237.397333 106.496-237.397333 237.397334S530.944 989.866667 662.016 989.866667 899.413333 883.370667 899.413333 752.469333s-106.496-237.568-237.397333-237.568z m0 423.765334c-102.741333 0-186.197333-83.626667-186.197333-186.197334s83.626667-186.197333 186.197333-186.197333 186.197333 83.626667 186.197333 186.197333S764.586667 938.666667 662.016 938.666667z"  /><path  d="M743.594667 638.976a25.429333 25.429333 0 0 0-36.181334 0l-45.397333 45.397333-45.397333-45.397333c-10.069333-10.069333-26.282667-10.069333-36.181334 0s-10.069333 26.282667 0 36.181333l30.378667 30.378667h-12.288c-14.165333 0-25.6 11.434667-25.6 25.6s11.434667 25.6 25.6 25.6h38.058667v12.288h-38.058667c-14.165333 0-25.6 11.434667-25.6 25.6s11.434667 25.6 25.6 25.6h38.058667v37.888c0 14.165333 11.434667 25.6 25.6 25.6s25.6-11.434667 25.6-25.6v-37.888h37.888c14.165333 0 25.6-11.434667 25.6-25.6s-11.434667-25.6-25.6-25.6H687.786667v-12.288h37.888c14.165333 0 25.6-11.434667 25.6-25.6s-11.434667-25.6-25.6-25.6h-12.288l30.378666-30.378667a25.6 25.6 0 0 0-0.170666-36.181333zM300.885333 239.445333h353.109334c14.165333 0 25.6-11.434667 25.6-25.6s-11.434667-25.6-25.6-25.6H300.885333c-14.165333 0-25.6 11.434667-25.6 25.6s11.605333 25.6 25.6 25.6zM300.885333 398.165333h233.984c14.165333 0 25.6-11.434667 25.6-25.6s-11.434667-25.6-25.6-25.6H300.885333c-14.165333 0-25.6 11.434667-25.6 25.6s11.605333 25.6 25.6 25.6z"  /></svg>