<?xml version="1.0" standalone="no"?><!DOCTYPE svg PUBLIC "-//W3C//DTD SVG 1.1//EN" "http://www.w3.org/Graphics/SVG/1.1/DTD/svg11.dtd"><svg class="icon" width="64px" height="64.00px" viewBox="0 0 1024 1024" version="1.1" xmlns="http://www.w3.org/2000/svg"><path  d="M223.573333 836.266667C119.466667 836.266667 34.133333 750.933333 34.133333 645.12s85.333333-191.146667 189.44-191.146667 189.44 85.333333 189.44 191.146667S329.386667 836.266667 223.573333 836.266667z m0-329.386667c-76.8 0-138.24 63.146667-138.24 139.946667S148.48 785.066667 223.573333 785.066667s138.24-63.146667 138.24-139.946667-61.44-138.24-138.24-138.24zM800.426667 670.72c-8.533333 0-18.773333-5.12-22.186667-13.653333l-157.013333-295.253334H368.64c-13.653333 0-25.6-11.946667-25.6-25.6s11.946667-25.6 25.6-25.6h233.813333L648.533333 238.933333h-54.613333c-13.653333 0-25.6-11.946667-25.6-25.6S580.266667 187.733333 593.92 187.733333h184.32c13.653333 0 25.6 11.946667 25.6 25.6s-10.24 25.6-23.893333 25.6h-68.266667l-54.613333 81.92c0 1.706667 1.706667 1.706667 1.706666 3.413334l163.84 308.906666c6.826667 11.946667 1.706667 27.306667-10.24 34.133334-5.12 3.413333-8.533333 3.413333-11.946666 3.413333z"  /><path  d="M223.573333 670.72c-3.413333 0-6.826667 0-10.24-1.706667-13.653333-5.12-18.773333-20.48-11.946666-34.133333l143.36-308.906667c3.413333-8.533333 11.946667-13.653333 22.186666-15.36 10.24 0 18.773333 5.12 22.186667 13.653334l136.533333 254.293333h107.52c13.653333 0 25.6 11.946667 25.6 25.6s-11.946667 25.6-25.6 25.6H512c-10.24 0-18.773333-5.12-22.186667-13.653333l-119.466666-223.573334-122.88 262.826667c-5.12 10.24-13.653333 15.36-23.893334 15.36z"  /><path  d="M368.64 361.813333c-10.24 0-20.48-6.826667-23.893333-17.066666-10.24-29.013333-51.2-105.813333-119.466667-105.813334-13.653333 0-25.6-11.946667-25.6-25.6s11.946667-25.6 25.6-25.6c95.573333 0 151.893333 92.16 168.96 141.653334 5.12 13.653333-3.413333 27.306667-17.066667 32.426666h-8.533333zM800.426667 836.266667c-104.106667 0-189.44-85.333333-189.44-191.146667s85.333333-191.146667 189.44-191.146667S989.866667 541.013333 989.866667 645.12 904.533333 836.266667 800.426667 836.266667z m0-329.386667c-76.8 0-138.24 63.146667-138.24 139.946667s61.44 139.946667 138.24 139.946666 138.24-63.146667 138.24-139.946666-63.146667-139.946667-138.24-139.946667z"  /></svg>