<?xml version="1.0" standalone="no"?><!DOCTYPE svg PUBLIC "-//W3C//DTD SVG 1.1//EN" "http://www.w3.org/Graphics/SVG/1.1/DTD/svg11.dtd"><svg class="icon" width="64px" height="64.00px" viewBox="0 0 1024 1024" version="1.1" xmlns="http://www.w3.org/2000/svg"><path  d="M387.925333 154.112c3.242667 0 6.656 0.170667 10.069334 0.341333h5.461333l3.925333-0.170666L648.533333 154.794667l58.88 103.765333 13.482667 3.584-34.304 59.733333c-2.048 3.754667-5.973333 6.144-9.728 6.144h-68.949333l3.072-11.093333-46.250667-81.578667c-6.314667-10.752-15.36-19.797333-26.112-26.112-10.922667-6.485333-23.552-9.728-36.181333-9.728-25.6 0-49.493333 13.824-62.293334 35.84l-64.512 110.421334-1.024 0.853333-97.28-55.978667-0.853333-1.365333 63.317333-109.397333 1.365334-2.218667c12.117333-18.090667 22.869333-23.552 46.762666-23.552m273.578667-51.541333c-1.877333 0-3.754667 0.341333-5.461333 1.024L406.186667 103.082667l-4.949334 0.170666c-4.608-0.341333-9.045333-0.512-13.482666-0.512-41.301333 0-67.925333 14.336-90.282667 47.445334l-2.218667 3.925333-63.658666 109.909333a51.336533 51.336533 0 0 0 19.626666 71.338667l97.28 55.978667c8.192 4.778667 17.066667 6.997333 25.770667 6.997333 17.749333 0 34.986667-9.216 44.544-25.6 0 0 0-0.170667 0.170667-0.170667l64.853333-111.104c3.925333-6.656 10.922667-10.410667 18.090667-10.410666a21.111467 21.111467 0 0 1 18.090666 10.410666l46.08 81.066667-6.144 3.584c-8.704 4.778667-11.776 15.701333-6.997333 24.234667 2.901333 5.290667 8.362667 8.704 14.336 9.216h109.397333c22.698667-0.170667 43.52-12.629333 54.442667-32.426667l54.101333-94.208a17.8688 17.8688 0 0 0-15.36-27.136c-3.242667 0-6.314667 0.853333-9.216 2.56l-8.874666 5.12-61.269334-108.202667c-5.632-13.994667-18.944-22.698667-29.013333-22.698666zM239.104 468.650667c4.266667 0 8.192 2.218667 10.24 5.802666l35.157333 60.416-12.8 3.413334-47.104 81.749333c-5.973333 10.581333-9.045333 22.698667-9.216 34.816a71.338667 71.338667 0 0 0 20.821334 51.029333c13.482667 13.653333 31.573333 21.333333 51.2 21.333334l130.048 0.341333-0.170667 111.957333h-129.194667c-36.693333-3.242667-43.690667-24.746667-46.08-31.744l-2.56-6.144-1.536-3.242666-1.877333-3.584-122.026667-209.578667 59.392-104.789333-3.242666-11.776h68.949333m-109.226667-51.2c-9.728 0-17.578667 7.68-17.749333 17.578666-0.170667 6.656 3.584 12.970667 9.386667 16.042667l7.338666 4.266667-61.610666 108.714666c-10.752 14.165333-9.728 33.962667 2.389333 46.933334l122.197333 209.92 1.536 3.242666c13.824 41.813333 48.810667 63.829333 92.672 66.901334h131.242667c28.330667 0 51.370667-23.04 51.370667-51.370667v-111.786667a51.319467 51.319467 0 0 0-51.2-51.541333H287.573333c-11.605333 0-20.821333-9.386667-20.821333-20.992 0-3.584 0.853333-6.997333 2.730667-10.069333l46.762666-81.066667 8.192 4.778667a17.92 17.92 0 0 0 24.917334-4.437334c4.437333-6.314667 4.266667-14.677333-0.341334-20.821333l-54.954666-94.549333a62.839467 62.839467 0 0 0-54.442667-31.232H130.389333c-0.170667-0.512-0.341333-0.512-0.512-0.512zM844.288 401.749333v51.029334l60.928 105.642666 1.877333 5.12c10.24 20.992 6.997333 45.738667-8.362666 63.146667l-0.170667 0.170667-7.338667 10.752-0.682666 1.365333 20.48 10.410667-20.48-10.410667-1.024 2.048-114.517334 201.557333h-119.466666l-9.386667 9.386667-34.474667-59.221333a12.288 12.288 0 0 1 0.170667-12.117334l34.645333-60.416 8.704 8.704h94.208c12.458667 0 24.917333-3.242667 35.84-9.557333 16.896-9.557333 28.842667-25.088 33.962667-43.690667 5.12-18.602667 2.56-38.058667-7.168-55.125333l-64.512-111.104-0.170667-1.024 97.109334-55.637333-0.170667-51.029334m0 0c-8.533333 0-17.237333 2.218667-25.258667 6.656l-97.28 55.808c-24.576 14.165333-33.28 45.568-19.114666 70.144l0.170666 0.170667 64.853334 111.786667c5.802667 10.069333 2.218667 22.869333-7.850667 28.501333-3.242667 1.877333-6.656 2.730667-10.410667 2.730667H655.36v-8.362667c0.170667-9.898667-7.850667-17.92-17.578667-18.090667h-0.170666c-6.485333 0-12.458667 3.413333-15.530667 9.216l-54.272 94.890667a63.232 63.232 0 0 0 0 63.146667l54.613333 93.866666a17.851733 17.851733 0 0 0 24.234667 6.997334c5.802667-3.242667 9.216-9.386667 9.216-16.042667v-9.386667h125.098667c1.365333 0.170667 2.730667 0.170667 4.096 0.170667 15.530667 0 29.696-10.24 34.304-25.429333l115.541333-203.434667 1.536-3.072c-3.754667 3.754667-8.192 6.826667-12.8 9.386667 4.608-2.56 9.045333-5.802667 12.8-9.386667l0.682667-1.365333a108.4928 108.4928 0 0 0 16.213333-119.808l-1.024-3.754667-63.488-109.909333a51.575467 51.575467 0 0 0-44.544-25.429334z m92.842667 259.413334l-0.853334 0.853333c0.341333-0.170667 0.512-0.512 0.853334-0.853333zM541.184 649.898667H482.986667a44.032 44.032 0 0 1-44.032-44.032c0-14.336 6.826667-27.136 17.408-35.157334-4.608-1.706667-9.216-3.754667-13.653334-6.144a106.888533 106.888533 0 0 1-47.786666-50.688c-8.874667-19.456-11.434667-40.96-7.509334-62.122666 3.242667-15.36 15.701333-26.794667 30.72-28.672 5.802667-1.024 11.605333-1.536 17.578667-1.706667 30.037333 0 57.856 12.8 77.482667 33.621333a106.461867 106.461867 0 0 1 77.141333-33.621333c6.485333 0 12.8 0.682667 18.944 1.877333 14.506667 2.730667 25.6 13.994667 28.501333 28.501334 4.096 21.162667 1.536 42.666667-7.338666 62.122666a107.127467 107.127467 0 0 1-47.786667 50.858667c-4.608 2.56-9.386667 4.608-14.506667 6.314667 10.410667 8.021333 17.066667 20.650667 17.066667 34.816 0 24.234667-19.797333 44.032-44.032 44.032z m12.288-74.922667z m-4.949333-25.088z m-111.786667-77.482667c0.170667 6.826667 1.706667 13.653333 4.778667 20.138667 5.12 11.434667 14.165333 20.992 25.088 26.624 5.12 2.730667 10.410667 4.778667 15.701333 5.802667 12.629333 2.730667 23.210667 10.24 30.208 20.138666 7.168-10.24 18.090667-17.749333 31.061333-20.309333 5.290667-1.024 10.410667-2.901333 15.189334-5.461333 11.093333-5.802667 19.968-15.36 25.088-26.624 2.901333-6.485333 4.437333-13.312 4.608-20.309334-23.210667 0.682667-44.032 16.725333-50.688 39.594667h-49.152c-6.826667-23.04-27.989333-39.253333-51.882667-39.594667z m-11.264 1.024l-1.706667 0.170667c0.682667 0 1.194667 0 1.706667-0.170667z"  /></svg>