<?xml version="1.0" standalone="no"?><!DOCTYPE svg PUBLIC "-//W3C//DTD SVG 1.1//EN" "http://www.w3.org/Graphics/SVG/1.1/DTD/svg11.dtd"><svg class="icon" width="64px" height="64.00px" viewBox="0 0 1024 1024" version="1.1" xmlns="http://www.w3.org/2000/svg"><path  d="M718.336 460.8a59.392 59.392 0 1 0 29.354667 51.2 58.88 58.88 0 0 0-29.354667-51.2z"  /><path  d="M957.781333 370.688a457.386667 457.386667 0 0 0-39.594666-90.282667 29.013333 29.013333 0 0 0-49.493334-3.242666 30.378667 30.378667 0 0 0 0 34.133333 400.725333 400.725333 0 0 1 36.693334 313.344A409.6 409.6 0 1 1 591.530667 109.738667a413.525333 413.525333 0 0 1 120.832 45.226666 32.085333 32.085333 0 0 0 21.504 4.949334 29.354667 29.354667 0 0 0 8.704-55.637334 459.776 459.776 0 0 0-334.506667-49.152 468.650667 468.650667 0 1 0 569.514667 503.125334 462.677333 462.677333 0 0 0-19.797334-187.562667z"  /><path  d="M482.474667 460.8a59.050667 59.050667 0 1 0 58.88 0 59.050667 59.050667 0 0 0-58.88 0zM305.664 460.8a58.88 58.88 0 1 0 59.050667 0 59.050667 59.050667 0 0 0-59.050667 0z"  /></svg>