<?xml version="1.0" standalone="no"?><!DOCTYPE svg PUBLIC "-//W3C//DTD SVG 1.1//EN" "http://www.w3.org/Graphics/SVG/1.1/DTD/svg11.dtd"><svg class="icon" width="64px" height="64.00px" viewBox="0 0 1024 1024" version="1.1" xmlns="http://www.w3.org/2000/svg"><path  d="M773.461333 39.082667a211.456 211.456 0 0 0-211.285333 211.456v211.285333h211.285333a211.456 211.456 0 1 0 0-422.741333z m0 370.176H614.4v-158.72a158.72 158.72 0 1 1 158.72 158.72z m-522.922666 153.6a211.456 211.456 0 1 0 211.285333 210.602666V562.176zM409.6 773.632A158.72 158.72 0 1 1 250.538667 614.4H409.6z m363.861333-211.456H562.176v211.285333a211.456 211.456 0 1 0 211.285333-211.285333z m0 370.176A159.061333 159.061333 0 0 1 614.4 773.461333V614.4h158.72a158.890667 158.890667 0 0 1 0 317.610667zM250.538667 39.082667a211.456 211.456 0 1 0 0 422.741333h211.285333V250.538667A211.456 211.456 0 0 0 250.538667 39.082667zM409.6 409.6h-158.72a158.890667 158.890667 0 1 1 158.72-158.72z"  /></svg>