<?xml version="1.0" standalone="no"?><!DOCTYPE svg PUBLIC "-//W3C//DTD SVG 1.1//EN" "http://www.w3.org/Graphics/SVG/1.1/DTD/svg11.dtd"><svg class="icon" width="64px" height="64.00px" viewBox="0 0 1024 1024" version="1.1" xmlns="http://www.w3.org/2000/svg"><path  d="M704.682667 96.597333a59.733333 59.733333 0 0 1 3.4304 16.2304l0.1536 4.164267v278.016l144.0256 118.016 1.262933 0.853333a59.733333 59.733333 0 0 1 25.258667 45.2096l0.119466 3.6352V938.666667l85.333334 0.017066a25.6 25.6 0 0 1 0 51.2h-904.533334a25.6 25.6 0 1 1 0-51.2h85.333334V228.693333a59.733333 59.733333 0 0 1 36.1472-54.869333l3.1744-1.245867 2.491733-0.768 442.897067-111.496533 1.450666-0.494933A59.733333 59.733333 0 0 1 704.682667 96.597333z m-57.582934 11.9808l-1.4848 0.4096-2.491733 0.750934L201.216 221.013333l-0.699733 0.341334a8.533333 8.533333 0 0 0-4.113067 5.853866l-0.136533 1.518934v709.9392h460.8V116.992a8.533333 8.533333 0 0 0-9.966934-8.413867z m61.166934 352.597334V938.666667h119.466666V562.722133a8.533333 8.533333 0 0 0-2.884266-6.382933l-3.9936-2.884267-112.5888-92.2624zM426.666667 603.409067a162.133333 162.133333 0 0 1 162.065066 157.525333l0.068267 4.608h-51.2a110.933333 110.933333 0 0 0-221.7984-3.976533l-0.068267 3.976533h-51.2a162.133333 162.133333 0 0 1 162.133334-162.133333z m0-204.8a93.866667 93.866667 0 1 1 0 187.733333 93.866667 93.866667 0 0 1 0-187.733333z m0 51.2a42.666667 42.666667 0 1 0 0 85.333333 42.666667 42.666667 0 0 0 0-85.333333z"  /></svg>