<?xml version="1.0" standalone="no"?><!DOCTYPE svg PUBLIC "-//W3C//DTD SVG 1.1//EN" "http://www.w3.org/Graphics/SVG/1.1/DTD/svg11.dtd"><svg class="icon" width="64px" height="64.00px" viewBox="0 0 1024 1024" version="1.1" xmlns="http://www.w3.org/2000/svg"><path  d="M59.733333 989.866667a25.6 25.6 0 1 1 0-51.2h68.266667V402.1248a59.733333 59.733333 0 0 1 42.0864-57.070933l3.157333-0.887467L298.666667 312.832v-81.3568a59.733333 59.733333 0 0 1 42.0864-57.070933l3.157333-0.887467 477.866667-119.466667a59.733333 59.733333 0 0 1 74.103466 54.289067l0.119467 3.669333V938.666667h68.266667a25.6 25.6 0 0 1 0 51.2h-904.533334z m605.320534-715.741867l-1.536 0.238933-477.866667 119.466667a8.533333 8.533333 0 0 0-6.314667 6.843733l-0.136533 1.450667V938.666667h494.933333V282.658133a8.533333 8.533333 0 0 0-9.079466-8.533333z m170.666666-170.666667l-1.536 0.238934-477.866666 119.466666a8.533333 8.533333 0 0 0-6.314667 6.843734l-0.136533 1.450666v68.5568l301.243733-75.3152a59.733333 59.733333 0 0 1 74.103467 54.289067l0.119466 3.669333V938.666667h119.466667V111.991467a8.533333 8.533333 0 0 0-9.079467-8.533334zM596.5312 804.283733a25.6 25.6 0 0 1-16.059733 30.446934l-2.3552 0.733866-298.666667 76.8a25.6 25.6 0 0 1-15.121067-48.861866l2.3552-0.733867 298.666667-76.8a25.6 25.6 0 0 1 31.1808 18.432z m0-179.2a25.6 25.6 0 0 1-16.059733 30.446934l-2.3552 0.733866-298.666667 76.8a25.6 25.6 0 0 1-15.121067-48.861866l2.3552-0.733867 298.666667-76.8a25.6 25.6 0 0 1 31.1808 18.432z m0-179.2a25.6 25.6 0 0 1-16.059733 30.446934l-2.3552 0.733866-298.666667 76.8a25.6 25.6 0 0 1-15.121067-48.861866l2.3552-0.733867 298.666667-76.8a25.6 25.6 0 0 1 31.1808 18.432z"  /></svg>