<?xml version="1.0" standalone="no"?><!DOCTYPE svg PUBLIC "-//W3C//DTD SVG 1.1//EN" "http://www.w3.org/Graphics/SVG/1.1/DTD/svg11.dtd"><svg class="icon" width="64px" height="64.00px" viewBox="0 0 1024 1024" version="1.1" xmlns="http://www.w3.org/2000/svg"><path  d="M568.149333 96.580267a59.733333 59.733333 0 0 1 3.4304 16.247466l0.1536 4.164267v217.719467a59.460267 59.460267 0 0 1 32.785067 4.5568l238.933333 106.1888 3.191467 1.536a59.733333 59.733333 0 0 1 32.290133 53.0432v438.613333h85.333334a25.6 25.6 0 0 1 0 51.2h-904.533334a25.6 25.6 0 1 1 0-51.2h85.333334V228.693333a59.733333 59.733333 0 0 1 36.1472-54.869333l3.1744-1.262933 307.2-111.701334a59.733333 59.733333 0 0 1 76.544 35.720534z m14.1312 288.9728a8.533333 8.533333 0 0 0-10.5472 8.2944v544.802133h256v-438.613333l-0.119466-1.416534a8.533333 8.533333 0 0 0-4.949334-6.382933l-238.933333-106.1888zM520.533333 116.992a8.533333 8.533333 0 0 0-9.966933-8.413867l-1.4848 0.392534-307.2 111.7184a8.533333 8.533333 0 0 0-5.4784 6.485333l-0.136533 1.536v709.9392h324.266666V116.992z"  /><path  d="M273.066667 392.533333m25.6 0l119.466666 0q25.6 0 25.6 25.6l0 0q0 25.6-25.6 25.6l-119.466666 0q-25.6 0-25.6-25.6l0 0q0-25.6 25.6-25.6Z"  /><path  d="M614.4 563.2m25.6 0l119.466667 0q25.6 0 25.6 25.6l0 0q0 25.6-25.6 25.6l-119.466667 0q-25.6 0-25.6-25.6l0 0q0-25.6 25.6-25.6Z"  /><path  d="M614.4 682.666667m25.6 0l119.466667 0q25.6 0 25.6 25.6l0 0q0 25.6-25.6 25.6l-119.466667 0q-25.6 0-25.6-25.6l0 0q0-25.6 25.6-25.6Z"  /><path  d="M273.066667 682.666667m25.6 0l119.466666 0q25.6 0 25.6 25.6l0 0q0 25.6-25.6 25.6l-119.466666 0q-25.6 0-25.6-25.6l0 0q0-25.6 25.6-25.6Z"  /></svg>