<?xml version="1.0" standalone="no"?><!DOCTYPE svg PUBLIC "-//W3C//DTD SVG 1.1//EN" "http://www.w3.org/Graphics/SVG/1.1/DTD/svg11.dtd"><svg class="icon" width="64px" height="64.00px" viewBox="0 0 1024 1024" version="1.1" xmlns="http://www.w3.org/2000/svg"><path  d="M310.613333 334.506667c-6.826667 0-13.653333-1.706667-18.773333-6.826667L40.96 78.506667c-8.533333-10.24-8.533333-27.306667 0-37.546667 10.24-8.533333 27.306667-8.533333 37.546667 0L329.386667 290.133333c10.24 10.24 10.24 25.6 0 35.84-5.12 5.12-11.946667 8.533333-18.773334 8.533334zM59.733333 988.16c-6.826667 0-13.653333-1.706667-18.773333-6.826667-10.24-10.24-10.24-25.6 0-35.84l250.88-249.173333c10.24-10.24 25.6-10.24 35.84 0 10.24 10.24 10.24 25.6 0 35.84L78.506667 979.626667c-5.12 5.12-11.946667 8.533333-18.773334 8.533333zM964.266667 988.16c-6.826667 0-13.653333-1.706667-18.773334-6.826667L698.026667 730.453333c-10.24-10.24-10.24-25.6 0-35.84s25.6-10.24 35.84 0l249.173333 249.173334c10.24 10.24 10.24 25.6 0 35.84-5.12 5.12-11.946667 8.533333-18.773333 8.533333zM713.386667 334.506667c-6.826667 0-13.653333-1.706667-18.773334-6.826667-10.24-10.24-10.24-25.6 0-35.84L943.786667 40.96c10.24-10.24 25.6-10.24 35.84 0s10.24 25.6 0 35.84L730.453333 325.973333c-5.12 5.12-10.24 8.533333-17.066666 8.533334z"  /><path  d="M964.266667 312.32c-13.653333 0-25.6-11.946667-25.6-25.6V85.333333H738.986667c-13.653333 0-25.6-11.946667-25.6-25.6S723.626667 34.133333 738.986667 34.133333h226.986666c11.946667 0 23.893333 11.946667 23.893334 25.6v226.986667c0 13.653333-11.946667 25.6-25.6 25.6zM964.266667 989.866667H738.986667c-13.653333 0-25.6-11.946667-25.6-25.6s11.946667-25.6 25.6-25.6H938.666667V738.986667c0-13.653333 11.946667-25.6 25.6-25.6s25.6 11.946667 25.6 25.6v226.986666c0 11.946667-11.946667 23.893333-25.6 23.893334zM286.72 989.866667H59.733333c-13.653333 0-25.6-11.946667-25.6-25.6V738.986667c0-13.653333 11.946667-25.6 25.6-25.6s25.6 10.24 25.6 25.6V938.666667h199.68c13.653333 0 25.6 11.946667 25.6 25.6s-10.24 25.6-23.893333 25.6zM59.733333 312.32c-13.653333 0-25.6-11.946667-25.6-25.6V59.733333C34.133333 46.08 46.08 34.133333 59.733333 34.133333h225.28c13.653333 0 25.6 11.946667 25.6 25.6S300.373333 85.333333 286.72 85.333333H85.333333v201.386667c0 13.653333-11.946667 25.6-25.6 25.6z"  /></svg>