<?xml version="1.0" standalone="no"?><!DOCTYPE svg PUBLIC "-//W3C//DTD SVG 1.1//EN" "http://www.w3.org/Graphics/SVG/1.1/DTD/svg11.dtd"><svg class="icon" width="64px" height="64.00px" viewBox="0 0 1024 1024" version="1.1" xmlns="http://www.w3.org/2000/svg"><path  d="M964.266667 310.613333c-13.653333 0-25.6-11.946667-25.6-25.6V126.293333C938.666667 104.106667 919.893333 85.333333 897.706667 85.333333h-158.72c-13.653333 0-25.6-11.946667-25.6-25.6S723.626667 34.133333 738.986667 34.133333h158.72c51.2 0 92.16 40.96 92.16 92.16v158.72c0 15.36-11.946667 25.6-25.6 25.6zM897.706667 989.866667h-158.72c-13.653333 0-25.6-11.946667-25.6-25.6s11.946667-25.6 25.6-25.6h158.72c22.186667 0 40.96-18.773333 40.96-40.96v-158.72c0-13.653333 11.946667-25.6 25.6-25.6s25.6 11.946667 25.6 25.6v158.72c0 51.2-40.96 92.16-92.16 92.16zM286.72 989.866667H126.293333c-51.2 0-92.16-40.96-92.16-92.16v-158.72c0-13.653333 11.946667-25.6 25.6-25.6s25.6 10.24 25.6 23.893333v158.72C85.333333 919.893333 104.106667 938.666667 126.293333 938.666667h158.72c13.653333 0 25.6 11.946667 25.6 25.6s-10.24 25.6-23.893333 25.6zM59.733333 310.613333c-13.653333 0-25.6-11.946667-25.6-25.6V126.293333C34.133333 75.093333 75.093333 34.133333 126.293333 34.133333h158.72c13.653333 0 25.6 11.946667 25.6 25.6S300.373333 85.333333 286.72 85.333333H126.293333C104.106667 85.333333 85.333333 104.106667 85.333333 126.293333v158.72c0 15.36-11.946667 25.6-25.6 25.6z"  /><path  d="M512 752.64c-133.12 0-240.64-107.52-240.64-240.64S378.88 271.36 512 271.36 752.64 378.88 752.64 512 645.12 752.64 512 752.64z m0-430.08c-104.106667 0-189.44 85.333333-189.44 189.44s85.333333 189.44 189.44 189.44 189.44-85.333333 189.44-189.44-85.333333-189.44-189.44-189.44z"  /></svg>