<?xml version="1.0" standalone="no"?><!DOCTYPE svg PUBLIC "-//W3C//DTD SVG 1.1//EN" "http://www.w3.org/Graphics/SVG/1.1/DTD/svg11.dtd"><svg class="icon" width="64px" height="64.00px" viewBox="0 0 1024 1024" version="1.1" xmlns="http://www.w3.org/2000/svg"><path  d="M254.293333 911.36H126.293333C75.093333 911.36 34.133333 870.4 34.133333 819.2V206.506667c0-51.2 40.96-92.16 92.16-92.16h769.706667c51.2 0 92.16 40.96 92.16 92.16v158.72c0 13.653333-11.946667 25.6-25.6 25.6s-23.893333-11.946667-23.893333-25.6v-158.72c0-22.186667-18.773333-40.96-40.96-40.96H126.293333c-22.186667-1.706667-40.96 17.066667-40.96 40.96V819.2c0 22.186667 18.773333 40.96 40.96 40.96h126.293334c13.653333 0 25.6 11.946667 25.6 25.6s-10.24 25.6-23.893334 25.6z"  /><path  d="M896 911.36H462.506667c-51.2 0-93.866667-42.666667-93.866667-93.866667V551.253333c0-51.2 42.666667-93.866667 93.866667-93.866666h433.493333c51.2 0 93.866667 42.666667 93.866667 93.866666v266.24c0 51.2-42.666667 93.866667-93.866667 93.866667zM462.506667 508.586667c-23.893333 0-42.666667 18.773333-42.666667 42.666666v266.24c0 23.893333 18.773333 42.666667 42.666667 42.666667h433.493333c23.893333 0 42.666667-18.773333 42.666667-42.666667V551.253333c0-23.893333-18.773333-42.666667-42.666667-42.666666H462.506667z"  /></svg>