<?xml version="1.0" standalone="no"?><!DOCTYPE svg PUBLIC "-//W3C//DTD SVG 1.1//EN" "http://www.w3.org/Graphics/SVG/1.1/DTD/svg11.dtd"><svg class="icon" width="64px" height="64.00px" viewBox="0 0 1024 1024" version="1.1" xmlns="http://www.w3.org/2000/svg"><path  d="M964.266667 310.613333c-13.653333 0-25.6-11.946667-25.6-25.6V126.293333C938.666667 104.106667 919.893333 85.333333 897.706667 85.333333h-158.72c-13.653333 0-25.6-11.946667-25.6-25.6S723.626667 34.133333 738.986667 34.133333h158.72c51.2 0 92.16 40.96 92.16 92.16v158.72c0 15.36-11.946667 25.6-25.6 25.6zM897.706667 989.866667h-158.72c-13.653333 0-25.6-11.946667-25.6-25.6s11.946667-25.6 25.6-25.6h158.72c22.186667 0 40.96-18.773333 40.96-40.96v-158.72c0-13.653333 11.946667-25.6 25.6-25.6s25.6 11.946667 25.6 25.6v158.72c0 51.2-40.96 92.16-92.16 92.16zM286.72 989.866667H126.293333c-51.2 0-92.16-40.96-92.16-92.16v-158.72c0-13.653333 11.946667-25.6 25.6-25.6s25.6 10.24 25.6 23.893333v158.72C85.333333 919.893333 104.106667 938.666667 126.293333 938.666667h158.72c13.653333 0 25.6 11.946667 25.6 25.6s-10.24 25.6-23.893333 25.6zM59.733333 310.613333c-13.653333 0-25.6-11.946667-25.6-25.6V126.293333C34.133333 75.093333 75.093333 34.133333 126.293333 34.133333h158.72c13.653333 0 25.6 11.946667 25.6 25.6S300.373333 85.333333 286.72 85.333333H126.293333C104.106667 85.333333 85.333333 104.106667 85.333333 126.293333v158.72c0 15.36-11.946667 25.6-25.6 25.6z"  /><path  d="M744.106667 738.986667H279.893333c-51.2 0-93.866667-42.666667-93.866666-93.866667V378.88c0-51.2 42.666667-93.866667 93.866666-93.866667h465.92c51.2 0 93.866667 42.666667 93.866667 93.866667v266.24c-1.706667 51.2-42.666667 93.866667-95.573333 93.866667zM279.893333 336.213333c-23.893333 0-42.666667 18.773333-42.666666 42.666667v266.24c0 23.893333 18.773333 42.666667 42.666666 42.666667h465.92c23.893333 0 42.666667-18.773333 42.666667-42.666667V378.88c0-23.893333-18.773333-42.666667-42.666667-42.666667H279.893333z"  /></svg>