<?xml version="1.0" standalone="no"?><!DOCTYPE svg PUBLIC "-//W3C//DTD SVG 1.1//EN" "http://www.w3.org/Graphics/SVG/1.1/DTD/svg11.dtd"><svg class="icon" width="64px" height="64.00px" viewBox="0 0 1024 1024" version="1.1" xmlns="http://www.w3.org/2000/svg"><path  d="M535.893333 989.866667H175.786667c-47.786667 0-85.333333-40.96-85.333334-92.16V126.293333c0-51.2 37.546667-92.16 85.333334-92.16h617.813333c47.786667 0 85.333333 40.96 85.333333 92.16v285.013334c0 13.653333-11.946667 25.6-25.6 25.6s-25.6-11.946667-25.6-25.6V126.293333c0-22.186667-15.36-40.96-34.133333-40.96H175.786667c-18.773333 0-34.133333 18.773333-34.133334 40.96v769.706667c0 22.186667 15.36 40.96 34.133334 40.96h360.106666c13.653333 0 25.6 11.946667 25.6 25.6s-11.946667 27.306667-25.6 27.306667z"  /><path  d="M616.106667 310.613333H252.586667c-13.653333 0-25.6-11.946667-25.6-25.6s11.946667-25.6 25.6-25.6h363.52c13.653333 0 25.6 11.946667 25.6 25.6s-11.946667 25.6-25.6 25.6zM465.92 513.706667H252.586667c-13.653333 0-25.6-11.946667-25.6-25.6s11.946667-25.6 25.6-25.6h213.333333c13.653333 0 25.6 11.946667 25.6 25.6s-11.946667 25.6-25.6 25.6z"  /><path  d="M790.186667 812.373333c-6.826667 0-13.653333-1.706667-18.773334-6.826666l-167.253333-167.253334c-10.24-10.24-10.24-25.6 0-35.84s25.6-10.24 35.84 0l167.253333 167.253334c10.24 10.24 10.24 25.6 0 35.84-3.413333 5.12-10.24 6.826667-17.066666 6.826666z"  /><path  d="M622.933333 812.373333c-6.826667 0-13.653333-1.706667-18.773333-6.826666-10.24-10.24-10.24-25.6 0-35.84l167.253333-167.253334c10.24-10.24 25.6-10.24 35.84 0s10.24 25.6 0 35.84l-167.253333 167.253334c-3.413333 5.12-10.24 6.826667-17.066667 6.826666z"  /><path  d="M706.56 930.133333c-124.586667 0-226.986667-102.4-226.986667-226.986666s102.4-226.986667 226.986667-226.986667 226.986667 102.4 226.986667 226.986667-102.4 226.986667-226.986667 226.986666z m0-402.773333c-97.28 0-175.786667 78.506667-175.786667 175.786667 0 97.28 78.506667 175.786667 175.786667 175.786666 97.28 0 175.786667-78.506667 175.786667-175.786666 0-95.573333-78.506667-175.786667-175.786667-175.786667z"  /></svg>