<?xml version="1.0" standalone="no"?><!DOCTYPE svg PUBLIC "-//W3C//DTD SVG 1.1//EN" "http://www.w3.org/Graphics/SVG/1.1/DTD/svg11.dtd"><svg class="icon" width="64px" height="64.00px" viewBox="0 0 1024 1024" version="1.1" xmlns="http://www.w3.org/2000/svg"><path  d="M512 989.866667H165.546667c-51.2 0-92.16-40.96-92.16-92.16V126.293333c0-51.2 40.96-92.16 92.16-92.16h501.76c6.826667 0 11.946667 1.706667 17.066666 6.826667l259.413334 235.52c5.12 5.12 8.533333 11.946667 8.533333 18.773333v203.093334c0 13.653333-11.946667 25.6-25.6 25.6s-25.6-11.946667-25.6-25.6V307.2L657.066667 85.333333H165.546667C141.653333 85.333333 122.88 104.106667 122.88 126.293333v769.706667c0 22.186667 18.773333 40.96 40.96 40.96H512c13.653333 0 25.6 11.946667 25.6 25.6S525.653333 989.866667 512 989.866667z"  /><path  d="M909.653333 940.373333c-6.826667 0-13.653333-1.706667-18.773333-6.826666L607.573333 648.533333c-10.24-10.24-10.24-25.6 0-35.84s25.6-10.24 35.84 0l285.013334 285.013334c10.24 10.24 10.24 25.6 0 35.84-6.826667 3.413333-11.946667 6.826667-18.773334 6.826666z"  /><path  d="M624.64 940.373333c-6.826667 0-13.653333-1.706667-18.773333-6.826666-10.24-10.24-10.24-25.6 0-35.84l285.013333-285.013334c10.24-10.24 25.6-10.24 35.84 0s10.24 25.6 0 35.84L643.413333 931.84c-5.12 5.12-11.946667 8.533333-18.773333 8.533333z"  /><path  d="M921.6 320.853333h-162.133333c-63.146667 0-116.053333-51.2-116.053334-116.053333V63.146667c0-10.24 6.826667-18.773333 15.36-23.893334 8.533333-3.413333 20.48-1.706667 27.306667 5.12L938.666667 276.48c8.533333 6.826667 10.24 18.773333 6.826666 27.306667-3.413333 11.946667-13.653333 17.066667-23.893333 17.066666zM696.32 122.88v83.626667c0 35.84 29.013333 64.853333 64.853333 64.853333h95.573334l-160.426667-148.48z"  /></svg>