<?xml version="1.0" standalone="no"?><!DOCTYPE svg PUBLIC "-//W3C//DTD SVG 1.1//EN" "http://www.w3.org/Graphics/SVG/1.1/DTD/svg11.dtd"><svg class="icon" width="64px" height="64.00px" viewBox="0 0 1024 1024" version="1.1" xmlns="http://www.w3.org/2000/svg"><path  d="M887.466667 976.896H136.533333A89.088 89.088 0 0 1 47.104 887.466667V136.533333A89.088 89.088 0 0 1 136.533333 47.104h750.933334A89.088 89.088 0 0 1 976.896 136.533333v750.933334A89.088 89.088 0 0 1 887.466667 976.896zM136.533333 98.304A38.058667 38.058667 0 0 0 98.304 136.533333v750.933334A38.058667 38.058667 0 0 0 136.533333 925.696h750.933334A38.058667 38.058667 0 0 0 925.696 887.466667V136.533333A38.058667 38.058667 0 0 0 887.466667 98.304z"  /><path  d="M309.418667 586.922667A54.101333 54.101333 0 1 1 256 640.853333a53.930667 53.930667 0 0 1 53.418667-53.930666z m0-49.152a102.4 102.4 0 1 0 102.4 102.4 102.4 102.4 0 0 0-102.4-102.4zM829.952 608.938667H545.109333a31.914667 31.914667 0 1 0 0 63.829333h284.842667a31.914667 31.914667 0 0 0 0-63.829333zM430.08 264.704a24.064 24.064 0 0 0-34.133333-1.024l-101.205334 96.085333-51.2-51.2a24.405333 24.405333 0 1 0-34.133333 34.133334L273.066667 406.357333a29.525333 29.525333 0 0 0 3.584 2.901334l1.194666 1.536a24.234667 24.234667 0 0 0 34.133334 0.853333l117.930666-111.786667a25.088 25.088 0 0 0 1.194667-34.986666zM829.952 307.2H545.109333a31.914667 31.914667 0 0 0 0 63.829333h284.842667a31.914667 31.914667 0 0 0 0-63.829333z"  /></svg>