<?xml version="1.0" standalone="no"?><!DOCTYPE svg PUBLIC "-//W3C//DTD SVG 1.1//EN" "http://www.w3.org/Graphics/SVG/1.1/DTD/svg11.dtd"><svg class="icon" width="64px" height="64.00px" viewBox="0 0 1024 1024" version="1.1" xmlns="http://www.w3.org/2000/svg"><path  d="M621.397333 995.328H127.317333a94.037333 94.037333 0 0 1-93.866666-93.866667v-768c0-51.712 42.154667-93.866667 93.866666-93.866666h768c51.712 0 93.866667 42.154667 93.866667 93.866666v432.64l-39.936-26.794666a277.845333 277.845333 0 0 0-154.965333-47.104c-153.429333 0-278.357333 124.928-278.357334 278.357333 0 66.901333 24.234667 131.584 68.437334 182.272l37.034666 42.496z m-494.08-904.533333a42.666667 42.666667 0 0 0-42.666666 42.666666v768a42.666667 42.666667 0 0 0 42.666666 42.666667h387.242667a328.8064 328.8064 0 0 1-49.664-173.568c0-181.76 147.797333-329.557333 329.557333-329.557333 50.176 0 98.986667 11.264 143.530667 32.938666V133.461333a42.666667 42.666667 0 0 0-42.666667-42.666666h-768z"  /><path  d="M773.12 728.576c-48.298667 0-87.552-39.253333-87.552-87.552s39.253333-87.552 87.552-87.552 87.552 39.253333 87.552 87.552-39.253333 87.552-87.552 87.552z m0-123.904c-19.968 0-36.352 16.384-36.352 36.352s16.384 36.352 36.352 36.352 36.352-16.384 36.352-36.352-16.384-36.352-36.352-36.352zM932.352 923.136H613.888c-14.165333 0-25.6-11.434667-25.6-25.6v-10.581333c0-42.325333 0-65.536 10.581333-86.186667 9.216-18.261333 23.893333-32.768 42.154667-42.154667 20.650667-10.581333 43.861333-10.581333 86.186667-10.581333H819.2c42.325333 0 65.536 0 86.186667 10.581333 18.261333 9.216 32.768 23.893333 42.154666 42.154667 10.581333 20.650667 10.581333 44.032 10.581334 86.186667v10.581333c-0.170667 14.165333-11.605333 25.6-25.770667 25.6z m-292.864-51.2h267.264c-0.170667-25.088-0.682667-39.765333-4.949333-47.957333-4.437333-8.533333-11.264-15.36-19.797334-19.797334-9.728-4.949333-28.672-4.949333-62.976-4.949333H727.04c-34.304 0-53.248 0-62.976 4.949333-8.533333 4.437333-15.36 11.264-19.797333 19.797334-4.096 8.192-4.608 23.04-4.778667 47.957333zM460.117333 483.84h-170.666666c-14.165333 0-25.6-11.434667-25.6-25.6s11.434667-25.6 25.6-25.6h145.066666v-196.266667c0-14.165333 11.434667-25.6 25.6-25.6s25.6 11.434667 25.6 25.6v221.866667c0 13.994667-11.434667 25.6-25.6 25.6z"  /><path  d="M221.184 586.24c-14.165333 0-25.6-11.434667-25.6-25.6v-187.733333c0-14.165333 11.434667-25.6 25.6-25.6h170.666667c14.165333 0 25.6 11.434667 25.6 25.6s-11.434667 25.6-25.6 25.6h-145.066667v162.133333c0 13.994667-11.434667 25.6-25.6 25.6zM511.317333 313.173333c-6.485333 0-13.141333-2.56-18.090666-7.509333l-33.109334-33.109333-33.109333 33.109333c-10.069333 10.069333-26.282667 10.069333-36.181333 0s-10.069333-26.282667 0-36.181333l51.2-51.2a25.429333 25.429333 0 0 1 36.181333 0l51.2 51.2c10.069333 10.069333 10.069333 26.282667 0 36.181333-5.12 4.949333-11.605333 7.509333-18.090667 7.509333z"  /><path  d="M221.184 586.24c-6.485333 0-13.141333-2.56-18.090667-7.509333l-51.2-51.2c-10.069333-10.069333-10.069333-26.282667 0-36.181334s26.282667-10.069333 36.181334 0l33.109333 33.109334 33.109333-33.109334c10.069333-10.069333 26.282667-10.069333 36.181334 0s10.069333 26.282667 0 36.181334l-51.2 51.2c-5.12 4.949333-11.605333 7.509333-18.090667 7.509333z"  /></svg>