<?xml version="1.0" standalone="no"?><!DOCTYPE svg PUBLIC "-//W3C//DTD SVG 1.1//EN" "http://www.w3.org/Graphics/SVG/1.1/DTD/svg11.dtd"><svg class="icon" width="64px" height="64.00px" viewBox="0 0 1024 1024" version="1.1" xmlns="http://www.w3.org/2000/svg"><path  d="M579.584 508.416c197.973333 0 359.082667 161.109333 359.082667 359.253333A71.168 71.168 0 0 1 867.669333 938.666667H156.330667A71.168 71.168 0 0 1 85.333333 867.669333c0-197.973333 161.109333-359.253333 359.253334-359.253333h134.997333m0-51.2h-134.997333C217.941333 457.216 34.133333 641.024 34.133333 867.669333 34.133333 935.082667 88.917333 989.866667 156.330667 989.866667h711.338666A122.197333 122.197333 0 0 0 989.866667 867.669333c0-226.645333-183.808-410.453333-410.282667-410.453333z"  /><path  d="M507.562667 85.333333c91.648 0 166.058667 74.581333 166.058666 166.058667s-74.581333 166.058667-166.058666 166.058667c-91.648 0-166.058667-74.581333-166.058667-166.058667S416.085333 85.333333 507.562667 85.333333m0-51.2c-119.978667 0-217.258667 97.28-217.258667 217.258667s97.28 217.258667 217.258667 217.258667 217.258667-97.28 217.258666-217.258667S627.712 34.133333 507.562667 34.133333zM642.56 710.997333H372.736c-14.165333 0-25.6-11.434667-25.6-25.6s11.434667-25.6 25.6-25.6h269.824c14.165333 0 25.6 11.434667 25.6 25.6s-11.434667 25.6-25.6 25.6z"  /><path  d="M642.56 710.997333c-6.485333 0-13.141333-2.56-18.090667-7.509333l-71.850666-71.850667a25.429333 25.429333 0 0 1 0-36.181333 25.429333 25.429333 0 0 1 36.181333 0l71.850667 71.850667c10.069333 10.069333 10.069333 26.282667 0 36.181333-4.949333 5.12-11.605333 7.509333-18.090667 7.509333zM642.56 787.285333H372.736c-14.165333 0-25.6-11.434667-25.6-25.6s11.434667-25.6 25.6-25.6h269.824c14.165333 0 25.6 11.434667 25.6 25.6s-11.434667 25.6-25.6 25.6z"  /><path  d="M444.586667 859.136c-6.485333 0-13.141333-2.56-18.090667-7.509333l-71.850667-71.850667c-10.069333-10.069333-10.069333-26.282667 0-36.181333s26.282667-10.069333 36.181334 0l71.850666 71.850666c10.069333 10.069333 10.069333 26.282667 0 36.181334-4.949333 4.949333-11.605333 7.509333-18.090666 7.509333z"  /></svg>