<?xml version="1.0" standalone="no"?><!DOCTYPE svg PUBLIC "-//W3C//DTD SVG 1.1//EN" "http://www.w3.org/Graphics/SVG/1.1/DTD/svg11.dtd"><svg class="icon" width="64px" height="64.00px" viewBox="0 0 1024 1024" version="1.1" xmlns="http://www.w3.org/2000/svg"><path  d="M830.805333 85.333333c9.386667 0 17.066667 7.68 17.066667 17.066667v819.2c0 9.386667-7.68 17.066667-17.066667 17.066667H193.194667c-9.386667 0-17.066667-7.68-17.066667-17.066667V102.4c0-9.386667 7.68-17.066667 17.066667-17.066667h637.610666m0-51.2H193.194667c-37.717333 0-68.266667 30.549333-68.266667 68.266667v819.2c0 37.717333 30.549333 68.266667 68.266667 68.266667h637.781333c37.717333 0 68.266667-30.549333 68.266667-68.266667V102.4c-0.170667-37.717333-30.72-68.266667-68.437334-68.266667z"  /><path  d="M512 233.984c14.677333 0 26.794667 11.946667 26.794667 26.794667s-11.946667 26.794667-26.794667 26.794666-26.794667-11.946667-26.794667-26.794666 12.117333-26.794667 26.794667-26.794667m0-51.2c-43.008 0-77.994667 34.816-77.994667 77.994667 0 43.008 34.816 77.994667 77.994667 77.994666 43.008 0 77.994667-34.816 77.994667-77.994666 0-43.008-34.986667-77.994667-77.994667-77.994667z"  /><path  d="M512 389.802667c67.754667 0 123.733333 51.712 130.389333 117.76H381.610667c6.656-66.048 62.634667-117.76 130.389333-117.76m0-51.2c-100.693333 0-182.272 81.578667-182.272 182.272 0 20.992 16.896 37.888 37.888 37.888h288.597333c20.992 0 37.888-16.896 37.888-37.888 0.170667-100.693333-81.408-182.272-182.101333-182.272zM646.826667 708.949333H377.173333c-14.165333 0-25.6-11.434667-25.6-25.6s11.434667-25.6 25.6-25.6h269.653334c14.165333 0 25.6 11.434667 25.6 25.6s-11.434667 25.6-25.6 25.6z"  /><path  d="M646.826667 708.949333c-6.485333 0-13.141333-2.56-18.090667-7.509333l-71.850667-71.850667c-10.069333-10.069333-10.069333-26.282667 0-36.181333s26.282667-10.069333 36.181334 0l71.850666 71.850667c10.069333 10.069333 10.069333 26.282667 0 36.181333-4.949333 5.12-11.434667 7.509333-18.090666 7.509333zM646.826667 785.237333H377.173333c-14.165333 0-25.6-11.434667-25.6-25.6s11.434667-25.6 25.6-25.6h269.653334c14.165333 0 25.6 11.434667 25.6 25.6s-11.434667 25.6-25.6 25.6z"  /><path  d="M449.024 857.088c-6.485333 0-13.141333-2.56-18.090667-7.509333l-71.850666-71.850667c-10.069333-10.069333-10.069333-26.282667 0-36.181333s26.282667-10.069333 36.181333 0l71.850667 71.850666c10.069333 10.069333 10.069333 26.282667 0 36.181334-5.12 4.949333-11.605333 7.509333-18.090667 7.509333z"  /></svg>