<?xml version="1.0" standalone="no"?><!DOCTYPE svg PUBLIC "-//W3C//DTD SVG 1.1//EN" "http://www.w3.org/Graphics/SVG/1.1/DTD/svg11.dtd"><svg class="icon" width="64px" height="64.00px" viewBox="0 0 1024 1024" version="1.1" xmlns="http://www.w3.org/2000/svg"><path  d="M667.306667 184.32H365.226667c-13.653333 0-25.6-11.946667-25.6-25.6s11.946667-25.6 25.6-25.6H665.6c13.653333 0 25.6 11.946667 25.6 25.6s-10.24 25.6-23.893333 25.6z"  /><path  d="M919.893333 981.333333H104.106667c-39.253333 0-69.973333-35.84-69.973334-78.506666V211.626667c0-42.666667 32.426667-78.506667 69.973334-78.506667h102.4c13.653333 0 25.6 11.946667 25.6 25.6s-11.946667 25.6-25.6 25.6h-102.4c-10.24 0-18.773333 11.946667-18.773334 27.306667v689.493333c0 15.36 8.533333 27.306667 18.773334 27.306667h814.08c10.24 0 18.773333-11.946667 18.773333-27.306667V211.626667c0-15.36-8.533333-27.306667-18.773333-27.306667h-102.4c-13.653333 0-25.6-11.946667-25.6-25.6s11.946667-25.6 25.6-25.6h102.4c39.253333 0 69.973333 35.84 69.973333 78.506667v689.493333c1.706667 44.373333-30.72 80.213333-68.266667 80.213333z"  /><path  d="M285.013333 274.773333c-13.653333 0-25.6-11.946667-25.6-25.6V68.266667c0-13.653333 11.946667-25.6 25.6-25.6s25.6 11.946667 25.6 25.6v180.906666c0 13.653333-10.24 25.6-25.6 25.6zM817.493333 409.6H211.626667c-13.653333 0-25.6-11.946667-25.6-25.6s11.946667-25.6 25.6-25.6H819.2c13.653333 0 25.6 11.946667 25.6 25.6s-11.946667 25.6-27.306667 25.6zM737.28 274.773333c-13.653333 0-25.6-11.946667-25.6-25.6V68.266667c0-13.653333 11.946667-25.6 25.6-25.6s25.6 11.946667 25.6 25.6v180.906666c0 13.653333-10.24 25.6-25.6 25.6z"  /><path  d="M247.466667 544.426667m-49.493334 0a49.493333 49.493333 0 1 0 98.986667 0 49.493333 49.493333 0 1 0-98.986667 0Z"  /><path  d="M515.413333 544.426667m-49.493333 0a49.493333 49.493333 0 1 0 98.986667 0 49.493333 49.493333 0 1 0-98.986667 0Z"  /><path  d="M781.653333 544.426667m-49.493333 0a49.493333 49.493333 0 1 0 98.986667 0 49.493333 49.493333 0 1 0-98.986667 0Z"  /><path  d="M247.466667 762.88m-49.493334 0a49.493333 49.493333 0 1 0 98.986667 0 49.493333 49.493333 0 1 0-98.986667 0Z"  /><path  d="M515.413333 762.88m-49.493333 0a49.493333 49.493333 0 1 0 98.986667 0 49.493333 49.493333 0 1 0-98.986667 0Z"  /><path  d="M781.653333 762.88m-49.493333 0a49.493333 49.493333 0 1 0 98.986667 0 49.493333 49.493333 0 1 0-98.986667 0Z"  /></svg>