<?xml version="1.0" standalone="no"?><!DOCTYPE svg PUBLIC "-//W3C//DTD SVG 1.1//EN" "http://www.w3.org/Graphics/SVG/1.1/DTD/svg11.dtd"><svg class="icon" width="64px" height="64.00px" viewBox="0 0 1024 1024" version="1.1" xmlns="http://www.w3.org/2000/svg"><path  d="M919.893333 921.6H104.106667C66.56 921.6 34.133333 890.88 34.133333 851.626667V262.826667c0-39.253333 32.426667-69.973333 69.973334-69.973334h814.08c39.253333 0 69.973333 32.426667 69.973333 69.973334v587.093333c1.706667 40.96-30.72 71.68-68.266667 71.68zM104.106667 244.053333c-10.24 0-18.773333 8.533333-18.773334 18.773334v587.093333c0 11.946667 8.533333 20.48 18.773334 20.48h814.08c10.24 0 18.773333-8.533333 18.773333-20.48V262.826667c0-10.24-8.533333-18.773333-18.773333-18.773334H104.106667z"  /><path  d="M285.013333 334.506667c-13.653333 0-25.6-11.946667-25.6-25.6V128c0-13.653333 11.946667-25.6 25.6-25.6s25.6 11.946667 25.6 25.6v180.906667c0 13.653333-10.24 25.6-25.6 25.6zM534.186667 537.6H285.013333c-13.653333 0-25.6-11.946667-25.6-25.6s11.946667-25.6 25.6-25.6h249.173334c13.653333 0 25.6 11.946667 25.6 25.6s-10.24 25.6-25.6 25.6zM737.28 718.506667H285.013333c-13.653333 0-25.6-11.946667-25.6-25.6s11.946667-25.6 25.6-25.6h452.266667c13.653333 0 25.6 11.946667 25.6 25.6s-10.24 25.6-25.6 25.6zM737.28 334.506667c-13.653333 0-25.6-11.946667-25.6-25.6V128c0-13.653333 11.946667-25.6 25.6-25.6s25.6 11.946667 25.6 25.6v180.906667c0 13.653333-10.24 25.6-25.6 25.6z"  /></svg>