<?xml version="1.0" standalone="no"?><!DOCTYPE svg PUBLIC "-//W3C//DTD SVG 1.1//EN" "http://www.w3.org/Graphics/SVG/1.1/DTD/svg11.dtd"><svg class="icon" width="64px" height="64.00px" viewBox="0 0 1024 1024" version="1.1" xmlns="http://www.w3.org/2000/svg"><path  d="M896 933.546667h-768c-51.2 0-93.866667-42.666667-93.866667-93.866667V373.76c0-51.2 42.666667-93.866667 93.866667-93.866667h768c51.2 0 93.866667 42.666667 93.866667 93.866667v465.92c0 51.2-42.666667 93.866667-93.866667 93.866667z m-768-602.453334c-23.893333 0-42.666667 18.773333-42.666667 42.666667v465.92c0 23.893333 18.773333 42.666667 42.666667 42.666667h768c23.893333 0 42.666667-18.773333 42.666667-42.666667V373.76c0-23.893333-18.773333-42.666667-42.666667-42.666667h-768zM793.6 237.226667h-563.2c-13.653333 0-25.6-11.946667-25.6-25.6s11.946667-25.6 25.6-25.6h563.2c13.653333 0 25.6 11.946667 25.6 25.6s-10.24 25.6-25.6 25.6zM679.253333 141.653333H344.746667c-13.653333 0-25.6-11.946667-25.6-25.6s11.946667-25.6 25.6-25.6h334.506666c13.653333 0 25.6 11.946667 25.6 25.6s-11.946667 25.6-25.6 25.6z"  /><path  d="M786.773333 764.586667c-6.826667 0-15.36-3.413333-20.48-10.24l-145.066666-182.613334L460.8 756.053333c-5.12 5.12-11.946667 8.533333-18.773333 8.533334-8.533333 0-13.653333-3.413333-18.773334-8.533334L230.4 549.546667c-10.24-10.24-8.533333-27.306667 1.706667-35.84 10.24-10.24 27.306667-8.533333 35.84 1.706666L440.32 699.733333l163.84-186.026666c5.12-5.12 11.946667-8.533333 20.48-8.533334 6.826667 0 15.36 3.413333 18.773333 10.24l163.84 206.506667c8.533333 10.24 6.826667 27.306667-3.413333 35.84-5.12 5.12-11.946667 6.826667-17.066667 6.826667z"  /><path  d="M237.226667 517.12m-49.493334 0a49.493333 49.493333 0 1 0 98.986667 0 49.493333 49.493333 0 1 0-98.986667 0Z"  /><path  d="M443.733333 740.693333m-49.493333 0a49.493333 49.493333 0 1 0 98.986667 0 49.493333 49.493333 0 1 0-98.986667 0Z"  /><path  d="M622.933333 517.12m-49.493333 0a49.493333 49.493333 0 1 0 98.986667 0 49.493333 49.493333 0 1 0-98.986667 0Z"  /><path  d="M786.773333 740.693333m-49.493333 0a49.493333 49.493333 0 1 0 98.986667 0 49.493333 49.493333 0 1 0-98.986667 0Z"  /></svg>