<?xml version="1.0" standalone="no"?><!DOCTYPE svg PUBLIC "-//W3C//DTD SVG 1.1//EN" "http://www.w3.org/Graphics/SVG/1.1/DTD/svg11.dtd"><svg class="icon" width="64px" height="64.00px" viewBox="0 0 1024 1024" version="1.1" xmlns="http://www.w3.org/2000/svg"><path  d="M863.573333 926.72c-13.653333 0-25.6-11.946667-25.6-25.6V126.293333C837.973333 104.106667 819.2 85.333333 797.013333 85.333333H226.986667c-22.186667 0-40.96 18.773333-40.96 40.96v774.826667c0 13.653333-11.946667 25.6-25.6 25.6s-25.6-11.946667-25.6-25.6V126.293333c0-51.2 40.96-92.16 92.16-92.16h570.026666c51.2 0 92.16 40.96 92.16 92.16v774.826667c0 15.36-11.946667 25.6-25.6 25.6z"  /><path  d="M863.573333 989.866667H223.573333c-47.786667 0-88.746667-39.253333-88.746666-88.746667s39.253333-88.746667 88.746666-88.746667h641.706667c13.653333 0 25.6 11.946667 25.6 25.6v124.586667c-1.706667 15.36-13.653333 27.306667-27.306667 27.306667z m-640-124.586667c-20.48 0-37.546667 17.066667-37.546666 37.546667 0 20.48 17.066667 37.546667 37.546666 37.546666h616.106667v-73.386666H223.573333zM699.733333 365.226667c-6.826667 0-13.653333-3.413333-18.773333-8.533334l-90.453333-95.573333-104.106667 97.28c-6.826667 6.826667-18.773333 8.533333-27.306667 5.12s-15.36-13.653333-15.36-23.893333V59.733333c0-13.653333 11.946667-25.6 25.6-25.6s25.6 11.946667 25.6 25.6v221.866667l80.213334-73.386667c10.24-10.24 25.6-8.533333 35.84 1.706667l63.146666 66.56V59.733333c0-13.653333 11.946667-25.6 25.6-25.6s25.6 11.946667 25.6 25.6v279.893334c0 10.24-6.826667 20.48-15.36 23.893333-3.413333 1.706667-6.826667 1.706667-10.24 1.706667z"  /></svg>