<?xml version="1.0" standalone="no"?><!DOCTYPE svg PUBLIC "-//W3C//DTD SVG 1.1//EN" "http://www.w3.org/Graphics/SVG/1.1/DTD/svg11.dtd"><svg class="icon" width="64px" height="64.00px" viewBox="0 0 1024 1024" version="1.1" xmlns="http://www.w3.org/2000/svg"><path  d="M916.48 972.8H107.52C66.56 972.8 34.133333 940.373333 34.133333 899.413333V399.36h51.2v500.053333c0 11.946667 10.24 22.186667 22.186667 22.186667h808.96c11.946667 0 22.186667-10.24 22.186667-22.186667V399.36h51.2v500.053333c0 40.96-32.426667 73.386667-73.386667 73.386667zM651.946667 139.946667H375.466667c-13.653333 0-25.6-11.946667-25.6-25.6s11.946667-25.6 25.6-25.6h278.186666c13.653333 0 25.6 11.946667 25.6 25.6s-11.946667 25.6-27.306666 25.6z"  /><path  d="M59.733333 424.96c-13.653333 0-25.6-11.946667-25.6-25.6V162.133333c0-40.96 32.426667-73.386667 73.386667-73.386666h157.013333c13.653333 0 25.6 11.946667 25.6 25.6s-11.946667 25.6-25.6 25.6H107.52c-11.946667 0-22.186667 10.24-22.186667 22.186666v237.226667c0 15.36-11.946667 25.6-25.6 25.6zM964.266667 424.96c-13.653333 0-25.6-11.946667-25.6-25.6V162.133333c0-11.946667-10.24-22.186667-22.186667-22.186666h-155.306667c-13.653333 0-25.6-11.946667-25.6-25.6s11.946667-25.6 25.6-25.6h155.306667c40.96 0 73.386667 32.426667 73.386667 73.386666v237.226667c0 15.36-11.946667 25.6-25.6 25.6zM320.853333 225.28c-13.653333 0-25.6-11.946667-25.6-25.6V76.8c0-13.653333 11.946667-25.6 25.6-25.6s25.6 11.946667 25.6 25.6v122.88c0 13.653333-10.24 25.6-25.6 25.6zM703.146667 225.28c-13.653333 0-25.6-11.946667-25.6-25.6V76.8c0-13.653333 11.946667-25.6 25.6-25.6s25.6 11.946667 25.6 25.6v122.88c0 13.653333-11.946667 25.6-25.6 25.6zM501.76 815.786667c-3.413333 0-5.12 0-8.533333-1.706667-13.653333-5.12-20.48-18.773333-15.36-32.426667l117.76-332.8c11.946667-32.426667 8.533333-46.08 6.826666-47.786666-1.706667-1.706667-5.12-1.706667-6.826666-1.706667H366.933333c-13.653333 0-25.6-11.946667-25.6-25.6s11.946667-25.6 25.6-25.6h223.573334c8.533333 0 34.133333 0 51.2 20.48 17.066667 22.186667 17.066667 52.906667 1.706666 97.28l-117.76 332.8c-3.413333 10.24-13.653333 17.066667-23.893333 17.066667z"  /></svg>