<?xml version="1.0" standalone="no"?><!DOCTYPE svg PUBLIC "-//W3C//DTD SVG 1.1//EN" "http://www.w3.org/Graphics/SVG/1.1/DTD/svg11.dtd"><svg class="icon" width="64px" height="64.00px" viewBox="0 0 1024 1024" version="1.1" xmlns="http://www.w3.org/2000/svg"><path  d="M407.552 85.333333c9.386667 0 17.066667 7.68 17.066667 17.066667v305.834667c0 9.386667-7.68 17.066667-17.066667 17.066666H101.717333c-9.386667 0-17.066667-7.68-17.066666-17.066666V102.4c0-9.386667 7.68-17.066667 17.066666-17.066667h305.834667m0-51.2H101.717333c-37.717333 0-68.266667 30.549333-68.266666 68.266667v305.834667c0 37.717333 30.549333 68.266667 68.266666 68.266666h305.834667c37.717333 0 68.266667-30.549333 68.266667-68.266666V102.4c0-37.717333-30.549333-68.266667-68.266667-68.266667zM920.917333 85.333333c9.386667 0 17.066667 7.68 17.066667 17.066667v305.834667c0 9.386667-7.68 17.066667-17.066667 17.066666H615.082667c-9.386667 0-17.066667-7.68-17.066667-17.066666V102.4c0-9.386667 7.68-17.066667 17.066667-17.066667h305.834666m0-51.2H615.082667c-37.717333 0-68.266667 30.549333-68.266667 68.266667v305.834667c0 37.717333 30.549333 68.266667 68.266667 68.266666h305.834666c37.717333 0 68.266667-30.549333 68.266667-68.266666V102.4c0-37.717333-30.549333-68.266667-68.266667-68.266667zM407.552 598.698667c9.386667 0 17.066667 7.68 17.066667 17.066666V921.6c0 9.386667-7.68 17.066667-17.066667 17.066667H101.717333c-9.386667 0-17.066667-7.68-17.066666-17.066667V615.765333c0-9.386667 7.68-17.066667 17.066666-17.066666h305.834667m0-51.2H101.717333c-37.717333 0-68.266667 30.549333-68.266666 68.266666V921.6c0 37.717333 30.549333 68.266667 68.266666 68.266667h305.834667c37.717333 0 68.266667-30.549333 68.266667-68.266667V615.765333c0-37.717333-30.549333-68.266667-68.266667-68.266666zM920.917333 598.698667c9.386667 0 17.066667 7.68 17.066667 17.066666V921.6c0 9.386667-7.68 17.066667-17.066667 17.066667H615.082667c-9.386667 0-17.066667-7.68-17.066667-17.066667V615.765333c0-9.386667 7.68-17.066667 17.066667-17.066666h305.834666m0-51.2H615.082667c-37.717333 0-68.266667 30.549333-68.266667 68.266666V921.6c0 37.717333 30.549333 68.266667 68.266667 68.266667h305.834666c37.717333 0 68.266667-30.549333 68.266667-68.266667V615.765333c0-37.717333-30.549333-68.266667-68.266667-68.266666z"  /></svg>