<?xml version="1.0" standalone="no"?><!DOCTYPE svg PUBLIC "-//W3C//DTD SVG 1.1//EN" "http://www.w3.org/Graphics/SVG/1.1/DTD/svg11.dtd"><svg class="icon" width="64px" height="64.00px" viewBox="0 0 1024 1024" version="1.1" xmlns="http://www.w3.org/2000/svg"><path  d="M757.418667 537.6H400.384a25.6 25.6 0 0 1 0-51.2h357.034667a25.6 25.6 0 0 1 0 51.2z"  /><path  d="M534.357333 671.402667a24.746667 24.746667 0 0 1-18.090666-7.509334l-133.973334-133.802666a25.6 25.6 0 0 1 0-36.181334l133.973334-133.802666a25.429333 25.429333 0 0 1 36.181333 0 25.770667 25.770667 0 0 1 0 36.181333L436.565333 512l115.882667 115.712a25.770667 25.770667 0 0 1 0 36.181333 25.258667 25.258667 0 0 1-18.090667 7.509334zM846.677333 626.858667A114.858667 114.858667 0 1 1 961.536 512a115.029333 115.029333 0 0 1-114.858667 114.858667z m0-178.517334A63.658667 63.658667 0 1 0 910.336 512a63.658667 63.658667 0 0 0-63.658667-63.658667z"  /><path  d="M534.357333 983.893333a471.893333 471.893333 0 1 1 330.24-808.789333 477.866667 477.866667 0 0 1 63.829334 77.312 25.6 25.6 0 0 1-42.837334 28.330667 423.765333 423.765333 0 0 0-56.832-68.266667 420.693333 420.693333 0 1 0 0 600.746667 423.765333 423.765333 0 0 0 56.832-69.12 25.6 25.6 0 0 1 42.837334 28.330666 477.866667 477.866667 0 0 1-63.829334 77.312 468.992 468.992 0 0 1-330.24 134.144z"  /></svg>