<?xml version="1.0" standalone="no"?><!DOCTYPE svg PUBLIC "-//W3C//DTD SVG 1.1//EN" "http://www.w3.org/Graphics/SVG/1.1/DTD/svg11.dtd"><svg class="icon" width="64px" height="64.00px" viewBox="0 0 1024 1024" version="1.1" xmlns="http://www.w3.org/2000/svg"><path  d="M957.952 563.2H660.650667a25.6 25.6 0 0 1 0-51.2h297.301333a25.6 25.6 0 0 1 0 51.2z"  /><path  d="M809.301333 711.338667a25.770667 25.770667 0 0 1-18.090666-7.509334l-148.650667-148.650666a25.429333 25.429333 0 0 1 0-36.181334l148.650667-148.650666a25.6 25.6 0 1 1 36.181333 36.181333l-130.56 130.56 130.56 130.56a25.429333 25.429333 0 0 1 0 36.181333 25.770667 25.770667 0 0 1-18.090667 7.509334z"  /><path  d="M883.541333 983.722667H140.458667a100.010667 100.010667 0 0 1-100.010667-99.84V140.629333a100.010667 100.010667 0 0 1 100.010667-99.84h743.082666a100.010667 100.010667 0 0 1 100.010667 99.84v123.904a25.6 25.6 0 0 1-51.2 0V140.629333a48.810667 48.810667 0 0 0-48.810667-48.64H140.458667a48.810667 48.810667 0 0 0-48.810667 48.64v743.253334a48.810667 48.810667 0 0 0 48.810667 48.64h743.082666a48.810667 48.810667 0 0 0 48.810667-48.64v-86.698667a25.6 25.6 0 0 1 51.2 0v86.698667a100.010667 100.010667 0 0 1-100.010667 99.84z"  /></svg>