<?xml version="1.0" standalone="no"?><!DOCTYPE svg PUBLIC "-//W3C//DTD SVG 1.1//EN" "http://www.w3.org/Graphics/SVG/1.1/DTD/svg11.dtd"><svg class="icon" width="64px" height="64.00px" viewBox="0 0 1024 1024" version="1.1" xmlns="http://www.w3.org/2000/svg"><path  d="M963.925333 626.176c-14.165333 0-25.6-11.434667-25.6-25.6V245.930667a42.666667 42.666667 0 0 0-42.666666-42.666667H721.066667c-14.165333 0-25.6-11.434667-25.6-25.6s11.434667-25.6 25.6-25.6h174.592c51.712 0 93.866667 42.154667 93.866666 93.866667v354.645333c0 14.165333-11.434667 25.6-25.6 25.6zM895.658667 989.525333H128.341333c-51.712 0-93.866667-43.008-93.866666-95.914666V223.573333c0-52.906667 42.154667-96.085333 93.866666-96.085333h165.034667c14.165333 0 25.6 11.434667 25.6 25.6s-11.434667 25.6-25.6 25.6H128.341333c-23.552 0-42.666667 20.138667-42.666666 44.885333v670.037334c0 24.746667 19.114667 44.714667 42.666666 44.714666h767.488c23.552 0 42.666667-20.138667 42.666667-44.714666v-69.973334c0-14.165333 11.434667-25.6 25.6-25.6s25.6 11.434667 25.6 25.6v69.973334c-0.170667 52.906667-42.154667 95.914667-94.037333 95.914666zM652.117333 271.872H370.346667a94.037333 94.037333 0 0 1-93.866667-93.866667V128.341333c0-51.712 42.154667-93.866667 93.866667-93.866666h281.770666c51.712 0 93.866667 42.154667 93.866667 93.866666v49.664c0 51.712-42.154667 93.866667-93.866667 93.866667zM370.346667 85.674667a42.666667 42.666667 0 0 0-42.666667 42.666666v49.664a42.666667 42.666667 0 0 0 42.666667 42.666667h281.770666a42.666667 42.666667 0 0 0 42.666667-42.666667V128.341333a42.666667 42.666667 0 0 0-42.666667-42.666666H370.346667zM515.584 684.885333c-14.165333 0-25.6-11.434667-25.6-25.6V370.005333c0-14.165333 11.434667-25.6 25.6-25.6s25.6 11.434667 25.6 25.6v289.28c0 14.165333-11.434667 25.6-25.6 25.6zM508.416 683.690667c-6.144 0-12.117333-2.218667-17.066667-6.485334l-115.712-103.594666a25.634133 25.634133 0 0 1 34.133334-38.229334l115.712 103.594667a25.634133 25.634133 0 0 1-17.066667 44.714667zM515.584 683.690667a25.634133 25.634133 0 0 1-17.066667-44.714667l115.712-103.594667a25.6512 25.6512 0 0 1 34.133334 38.229334l-115.712 103.594666c-4.949333 4.266667-10.922667 6.485333-17.066667 6.485334zM676.522667 792.405333H354.645333c-14.165333 0-25.6-11.434667-25.6-25.6s11.434667-25.6 25.6-25.6h321.877334c14.165333 0 25.6 11.434667 25.6 25.6s-11.434667 25.6-25.6 25.6z" /></svg>