<?xml version="1.0" standalone="no"?><!DOCTYPE svg PUBLIC "-//W3C//DTD SVG 1.1//EN" "http://www.w3.org/Graphics/SVG/1.1/DTD/svg11.dtd"><svg class="icon" width="64px" height="64.00px" viewBox="0 0 1024 1024" version="1.1" xmlns="http://www.w3.org/2000/svg"><path  d="M863.573333 989.866667h-126.293333c-13.653333 0-25.6-11.946667-25.6-25.6s11.946667-25.6 25.6-25.6h126.293333c40.96 0 75.093333-34.133333 75.093334-75.093334v-126.293333c0-13.653333 11.946667-25.6 25.6-25.6s25.6 11.946667 25.6 25.6v126.293333c0 69.973333-56.32 126.293333-126.293334 126.293334z m-578.56 0H160.426667C90.453333 989.866667 34.133333 933.546667 34.133333 863.573333v-126.293333c0-13.653333 11.946667-25.6 25.6-25.6s25.6 11.946667 25.6 25.6v126.293333C85.333333 904.533333 119.466667 938.666667 160.426667 938.666667h126.293333c13.653333 0 25.6 11.946667 25.6 25.6s-11.946667 25.6-27.306667 25.6z m679.253334-679.253334c-13.653333 0-25.6-11.946667-25.6-25.6V160.426667C938.666667 119.466667 904.533333 85.333333 863.573333 85.333333h-126.293333c-13.653333 0-25.6-11.946667-25.6-25.6S723.626667 34.133333 737.28 34.133333h126.293333C933.546667 34.133333 989.866667 90.453333 989.866667 160.426667v126.293333c0 13.653333-11.946667 23.893333-25.6 23.893333z m-904.533334 0c-13.653333 0-25.6-11.946667-25.6-25.6V160.426667C34.133333 90.453333 90.453333 34.133333 160.426667 34.133333h126.293333c13.653333 0 25.6 11.946667 25.6 25.6S300.373333 85.333333 285.013333 85.333333H160.426667C119.466667 85.333333 85.333333 119.466667 85.333333 160.426667v126.293333c0 13.653333-11.946667 23.893333-25.6 23.893333zM863.573333 537.6H160.426667c-13.653333 0-25.6-11.946667-25.6-25.6s11.946667-25.6 25.6-25.6h703.146666c13.653333 0 25.6 11.946667 25.6 25.6s-11.946667 25.6-25.6 25.6z"  /></svg>