<?xml version="1.0" standalone="no"?><!DOCTYPE svg PUBLIC "-//W3C//DTD SVG 1.1//EN" "http://www.w3.org/Graphics/SVG/1.1/DTD/svg11.dtd"><svg class="icon" width="64px" height="64.00px" viewBox="0 0 1024 1024" version="1.1" xmlns="http://www.w3.org/2000/svg"><path  d="M964.266667 447.146667h-904.533334c-13.653333 0-25.6-11.946667-25.6-25.6s11.946667-25.6 25.6-25.6h904.533334c13.653333 0 25.6 11.946667 25.6 25.6s-11.946667 25.6-25.6 25.6zM105.813333 310.613333c-13.653333 0-25.6-11.946667-25.6-25.6V105.813333c0-13.653333 11.946667-25.6 25.6-25.6s25.6 11.946667 25.6 25.6v180.906667c0 13.653333-11.946667 23.893333-25.6 23.893333zM105.813333 853.333333c-13.653333 0-25.6-11.946667-25.6-25.6V556.373333c0-13.653333 11.946667-25.6 25.6-25.6s25.6 11.946667 25.6 25.6v271.36c0 15.36-11.946667 25.6-25.6 25.6zM430.08 310.613333c-13.653333 0-25.6-11.946667-25.6-25.6V105.813333c0-13.653333 11.946667-25.6 25.6-25.6s25.6 11.946667 25.6 25.6v180.906667c0 13.653333-10.24 23.893333-25.6 23.893333zM430.08 943.786667c-13.653333 0-25.6-11.946667-25.6-25.6V558.08c0-13.653333 11.946667-25.6 25.6-25.6s25.6 11.946667 25.6 25.6v361.813333c0 13.653333-10.24 23.893333-25.6 23.893334zM756.053333 310.613333c-13.653333 0-25.6-11.946667-25.6-25.6V105.813333c0-13.653333 11.946667-25.6 25.6-25.6s25.6 11.946667 25.6 25.6v180.906667c0 13.653333-11.946667 23.893333-25.6 23.893333zM919.893333 310.613333c-13.653333 0-25.6-11.946667-25.6-25.6V105.813333c0-13.653333 11.946667-25.6 25.6-25.6s25.6 11.946667 25.6 25.6v180.906667c0 13.653333-11.946667 23.893333-25.6 23.893333zM756.053333 762.88c-13.653333 0-25.6-11.946667-25.6-25.6V558.08c0-13.653333 11.946667-25.6 25.6-25.6s25.6 11.946667 25.6 25.6v180.906667c0 13.653333-11.946667 23.893333-25.6 23.893333zM267.946667 310.613333c-13.653333 0-25.6-11.946667-25.6-25.6V105.813333c0-13.653333 11.946667-25.6 25.6-25.6s25.6 11.946667 25.6 25.6v180.906667c0 13.653333-11.946667 23.893333-25.6 23.893333zM267.946667 762.88c-13.653333 0-25.6-11.946667-25.6-25.6V558.08c0-13.653333 11.946667-25.6 25.6-25.6s25.6 11.946667 25.6 25.6v180.906667c0 13.653333-11.946667 23.893333-25.6 23.893333zM593.92 310.613333c-13.653333 0-25.6-11.946667-25.6-25.6V105.813333c0-13.653333 11.946667-25.6 25.6-25.6s25.6 11.946667 25.6 25.6v180.906667c0 13.653333-11.946667 23.893333-25.6 23.893333zM593.92 762.88c-13.653333 0-25.6-11.946667-25.6-25.6V558.08c0-13.653333 11.946667-25.6 25.6-25.6s25.6 11.946667 25.6 25.6v180.906667c0 13.653333-11.946667 23.893333-25.6 23.893333zM919.893333 853.333333c-13.653333 0-25.6-11.946667-25.6-25.6V558.08c0-13.653333 11.946667-25.6 25.6-25.6s25.6 11.946667 25.6 25.6v271.36c0 13.653333-11.946667 23.893333-25.6 23.893333z"  /></svg>