<?xml version="1.0" standalone="no"?><!DOCTYPE svg PUBLIC "-//W3C//DTD SVG 1.1//EN" "http://www.w3.org/Graphics/SVG/1.1/DTD/svg11.dtd"><svg class="icon" width="64px" height="64.00px" viewBox="0 0 1024 1024" version="1.1" xmlns="http://www.w3.org/2000/svg"><path  d="M59.733333 336.213333c-13.653333 0-25.6-11.946667-25.6-25.6V126.293333C34.133333 75.093333 75.093333 34.133333 126.293333 34.133333h184.32c13.653333 0 25.6 11.946667 25.6 25.6S325.973333 85.333333 310.613333 85.333333H126.293333C104.106667 85.333333 85.333333 104.106667 85.333333 126.293333v184.32c0 15.36-11.946667 25.6-25.6 25.6zM310.613333 989.866667H126.293333c-51.2 0-92.16-40.96-92.16-92.16V713.386667c0-13.653333 11.946667-25.6 25.6-25.6s25.6 10.24 25.6 25.6v184.32C85.333333 919.893333 104.106667 938.666667 126.293333 938.666667h184.32c13.653333 0 25.6 11.946667 25.6 25.6s-10.24 25.6-25.6 25.6zM897.706667 989.866667H713.386667c-13.653333 0-25.6-11.946667-25.6-25.6S699.733333 938.666667 713.386667 938.666667h184.32c22.186667 0 40.96-18.773333 40.96-40.96V713.386667c0-13.653333 11.946667-25.6 25.6-25.6s25.6 11.946667 25.6 25.6v184.32c0 51.2-40.96 92.16-92.16 92.16zM964.266667 336.213333c-13.653333 0-25.6-11.946667-25.6-25.6V126.293333C938.666667 104.106667 919.893333 85.333333 897.706667 85.333333H713.386667c-13.653333 0-25.6-11.946667-25.6-25.6S699.733333 34.133333 713.386667 34.133333h184.32c51.2 0 92.16 40.96 92.16 92.16v184.32c0 15.36-11.946667 25.6-25.6 25.6zM762.88 537.6H261.12c-13.653333 0-25.6-11.946667-25.6-25.6s11.946667-25.6 25.6-25.6h501.76c13.653333 0 25.6 11.946667 25.6 25.6s-10.24 25.6-25.6 25.6zM587.093333 336.213333h-150.186666c-13.653333 0-25.6-11.946667-25.6-25.6s11.946667-25.6 25.6-25.6h150.186666c13.653333 0 25.6 11.946667 25.6 25.6s-11.946667 25.6-25.6 25.6zM587.093333 738.986667h-150.186666c-13.653333 0-25.6-11.946667-25.6-25.6s11.946667-25.6 25.6-25.6h150.186666c13.653333 0 25.6 11.946667 25.6 25.6s-11.946667 25.6-25.6 25.6z"  /></svg>