<?xml version="1.0" standalone="no"?><!DOCTYPE svg PUBLIC "-//W3C//DTD SVG 1.1//EN" "http://www.w3.org/Graphics/SVG/1.1/DTD/svg11.dtd"><svg class="icon" width="64px" height="64.00px" viewBox="0 0 1024 1024" version="1.1" xmlns="http://www.w3.org/2000/svg"><path  d="M501.589333 982.186667H190.293333a70.144 70.144 0 0 1-69.973333-69.973334V111.786667a70.144 70.144 0 0 1 69.973333-69.973334h622.592a70.144 70.144 0 0 1 69.973334 69.973334V512a25.6 25.6 0 0 1-51.2 0V111.786667a18.773333 18.773333 0 0 0-18.773334-18.773334H190.293333a18.773333 18.773333 0 0 0-18.773333 18.773334v800.426666a18.773333 18.773333 0 0 0 18.773333 18.773334h311.296a25.6 25.6 0 0 1 0 51.2z"  /><path  d="M679.424 359.765333H324.266667a25.6 25.6 0 0 1 0-51.2h355.157333a25.6 25.6 0 0 1 0 51.2zM501.589333 537.6H324.266667a25.6 25.6 0 0 1 0-51.2h177.322666a25.6 25.6 0 0 1 0 51.2zM755.2 957.098667a26.112 26.112 0 0 1-11.264-2.730667L682.666667 923.989333a25.6 25.6 0 0 1-14.336-22.869333V802.133333l-116.736-136.533333a25.6 25.6 0 0 1 19.456-42.154667h307.2A25.6 25.6 0 0 1 897.706667 665.6l-116.736 136.533333v128.682667a25.770667 25.770667 0 0 1-25.6 25.6z m-35.84-71.850667l10.24 4.949333v-96.938666a25.770667 25.770667 0 0 1 6.144-17.066667l86.698667-101.205333H626.517333l86.698667 101.205333a25.770667 25.770667 0 0 1 6.144 17.066667z"  /></svg>