<?xml version="1.0" standalone="no"?><!DOCTYPE svg PUBLIC "-//W3C//DTD SVG 1.1//EN" "http://www.w3.org/Graphics/SVG/1.1/DTD/svg11.dtd"><svg class="icon" width="64px" height="64.00px" viewBox="0 0 1024 1024" version="1.1" xmlns="http://www.w3.org/2000/svg"><path  d="M831.829333 978.090667a11.946667 11.946667 0 0 1-4.608-1.365334l-67.072-32.768a10.581333 10.581333 0 0 1-5.290666-8.704v-113.834666l-131.242667-153.6a9.045333 9.045333 0 0 1-1.365333-10.752 10.581333 10.581333 0 0 1 9.386666-5.973334h334.848a10.24 10.24 0 0 1 8.021334 17.066667l-132.608 153.6v146.602667a11.434667 11.434667 0 0 1-4.608 8.704 7.338667 7.338667 0 0 1-5.461334 1.365333z m-56.832-48.810667l46.762667 23.381333v-134.656a8.704 8.704 0 0 1 2.730667-6.656l119.466666-139.946666H653.141333l119.466667 139.946666a12.117333 12.117333 0 0 1 2.730667 6.656v107.349334z"  /><path  d="M831.829333 990.890667a25.088 25.088 0 0 1-10.410666-2.730667L754.517333 955.733333a23.722667 23.722667 0 0 1-12.458666-20.138666v-109.397334L614.4 676.352a22.357333 22.357333 0 0 1-3.072-24.746667 23.210667 23.210667 0 0 1 20.138667-13.141333h335.018666a23.04 23.04 0 0 1 17.066667 38.570667l-128.853333 149.162666v141.824a24.064 24.064 0 0 1-9.216 18.602667 19.797333 19.797333 0 0 1-13.653334 4.266667zM787.968 921.6l20.992 10.581333v-114.176a21.162667 21.162667 0 0 1 6.485333-15.701333l101.205334-118.101333H680.96l102.4 119.466666a25.429333 25.429333 0 0 1 5.802667 15.018667z"  /><path  d="M637.44 989.866667H109.397333A75.093333 75.093333 0 0 1 34.133333 915.114667V416.938667a28.842667 28.842667 0 0 1 28.16-28.16h899.072A28.842667 28.842667 0 0 1 989.866667 416.938667v147.968a28.16 28.16 0 0 1-56.149334 0v-119.466667H90.624v467.797333a18.773333 18.773333 0 0 0 18.773333 18.602667h528.042667A28.842667 28.842667 0 0 1 665.6 960 30.378667 30.378667 0 0 1 637.44 989.866667z"  /><path  d="M961.365333 445.098667H62.634667A28.842667 28.842667 0 0 1 34.133333 416.938667V179.2a75.093333 75.093333 0 0 1 75.264-74.922667h805.205334A75.093333 75.093333 0 0 1 989.866667 179.2v237.738667a27.648 27.648 0 0 1-28.501334 28.16z m-870.4-56.32h842.410667V179.2a18.773333 18.773333 0 0 0-18.773333-18.773333H109.397333a18.773333 18.773333 0 0 0-18.773333 18.773333z"  /><path  d="M322.901333 278.357333a28.842667 28.842667 0 0 1-28.16-27.989333V61.098667a28.16 28.16 0 0 1 56.149334 0v189.269333a27.477333 27.477333 0 0 1-27.989334 27.989333zM701.098667 278.357333a28.672 28.672 0 0 1-27.989334-27.989333V61.098667a28.16 28.16 0 0 1 56.149334 0v189.269333a26.624 26.624 0 0 1-28.16 27.989333z"  /></svg>