<?xml version="1.0" standalone="no"?><!DOCTYPE svg PUBLIC "-//W3C//DTD SVG 1.1//EN" "http://www.w3.org/Graphics/SVG/1.1/DTD/svg11.dtd"><svg class="icon" width="64px" height="64.00px" viewBox="0 0 1024 1024" version="1.1" xmlns="http://www.w3.org/2000/svg"><path  d="M783.36 989.866667H240.64c-51.2 0-92.16-40.96-92.16-92.16V196.266667c0-13.653333 11.946667-25.6 25.6-25.6H853.333333c13.653333 0 25.6 11.946667 25.6 25.6v701.44c-1.706667 51.2-44.373333 92.16-95.573333 92.16zM197.973333 221.866667v675.84c0 22.186667 18.773333 40.96 40.96 40.96h544.426667c22.186667 0 40.96-18.773333 40.96-40.96V221.866667H197.973333z"  /><path  d="M421.546667 740.693333c-13.653333 0-25.6-11.946667-25.6-25.6V421.546667c0-13.653333 11.946667-25.6 25.6-25.6s25.6 11.946667 25.6 25.6v293.546666c0 15.36-11.946667 25.6-25.6 25.6zM602.453333 740.693333c-13.653333 0-25.6-11.946667-25.6-25.6V421.546667c0-13.653333 11.946667-25.6 25.6-25.6s25.6 11.946667 25.6 25.6v293.546666c0 15.36-11.946667 25.6-25.6 25.6zM964.266667 221.866667h-904.533334c-13.653333 0-25.6-11.946667-25.6-25.6S46.08 170.666667 59.733333 170.666667h904.533334c13.653333 0 25.6 11.946667 25.6 25.6s-11.946667 25.6-25.6 25.6z"  /><path  d="M692.906667 221.866667H331.093333c-8.533333 0-17.066667-5.12-22.186666-11.946667-5.12-8.533333-5.12-17.066667 0-25.6l75.093333-136.533333c3.413333-8.533333 11.946667-13.653333 22.186667-13.653334h215.04c10.24 0 18.773333 5.12 22.186666 13.653334l73.386667 136.533333c5.12 8.533333 3.413333 17.066667 0 25.6-6.826667 6.826667-15.36 11.946667-23.893333 11.946667z m-319.146667-51.2h276.48l-46.08-85.333334H419.84l-46.08 85.333334z"  /></svg>