<?xml version="1.0" standalone="no"?><!DOCTYPE svg PUBLIC "-//W3C//DTD SVG 1.1//EN" "http://www.w3.org/Graphics/SVG/1.1/DTD/svg11.dtd"><svg class="icon" width="64px" height="64.00px" viewBox="0 0 1024 1024" version="1.1" xmlns="http://www.w3.org/2000/svg"><path  d="M826.026667 989.866667H180.906667c-46.08 0-81.92-40.96-81.92-92.16v-699.733334c0-51.2 37.546667-92.16 81.92-92.16h119.466666c13.653333 0 25.6 11.946667 25.6 25.6s-11.946667 25.6-25.6 25.6h-119.466666c-17.066667 0-30.72 18.773333-30.72 40.96v699.733334c0 22.186667 13.653333 40.96 30.72 40.96h645.12c10.24 0 22.186667-5.12 29.013333-11.946667 8.533333-8.533333 11.946667-18.773333 11.946667-29.013333v-699.733334c0-22.186667-13.653333-40.96-30.72-40.96h-124.586667c-13.653333 0-25.6-11.946667-25.6-25.6s11.946667-25.6 25.6-25.6H836.266667c46.08 0 81.92 40.96 81.92 92.16v699.733334c0 23.893333-10.24 47.786667-27.306667 64.853333S851.626667 989.866667 826.026667 989.866667z"  /><path  d="M674.133333 218.453333H344.746667c-32.426667 0-59.733333-27.306667-59.733334-59.733333V93.866667c0-32.426667 27.306667-59.733333 59.733334-59.733334h329.386666C706.56 34.133333 733.866667 61.44 733.866667 93.866667v64.853333c0 34.133333-27.306667 59.733333-59.733334 59.733333zM344.746667 85.333333c-5.12 0-8.533333 3.413333-8.533334 8.533334v64.853333c0 5.12 3.413333 8.533333 8.533334 8.533333h329.386666c5.12 0 8.533333-3.413333 8.533334-8.533333V93.866667c0-5.12-5.12-8.533333-8.533334-8.533334H344.746667zM327.68 773.12l5.12-27.306667H238.933333l11.946667-80.213333h136.533333l-5.12 39.253333h-46.08l1.706667-15.36h-44.373333l-6.826667 34.133334h92.16l-6.826667 61.44c0 1.706667 0 5.12-1.706666 6.826666-1.706667 1.706667-1.706667 3.413333-3.413334 5.12-1.706667 1.706667-3.413333 3.413333-5.12 3.413334-1.706667 0-5.12 1.706667-6.826666 1.706666h-121.173334l5.12-37.546666 6.826667 10.24h81.92zM477.866667 663.893333l25.6 85.333334 47.786666-85.333334h49.493334l-18.773334 136.533334h-40.96l11.946667-71.68-37.546667 63.146666H477.866667l-17.066667-59.733333-8.533333 69.973333H409.6l18.773333-128-10.24-8.533333H477.866667zM631.466667 800.426667c-1.706667 0-3.413333-1.706667-5.12-3.413334-1.706667-1.706667-1.706667-3.413333-3.413334-5.12V785.066667l15.36-121.173334H785.066667l-1.706667 23.893334h-102.4l-11.946667 90.453333h90.453334l11.946666-8.533333-3.413333 30.72h-136.533333z"  /><path  d="M512 535.893333c-13.653333 0-25.6-11.946667-25.6-25.6v-141.653333c0-13.653333 11.946667-25.6 25.6-25.6s25.6 11.946667 25.6 25.6v141.653333c0 13.653333-11.946667 25.6-25.6 25.6z"  /><path  d="M593.92 448.853333c-6.826667 0-13.653333-1.706667-18.773333-6.826666L512 377.173333l-64.853333 64.853334c-10.24 10.24-25.6 10.24-35.84 0s-10.24-25.6 0-35.84l81.92-81.92c10.24-10.24 25.6-10.24 35.84 0l81.92 81.92c10.24 10.24 10.24 25.6 0 35.84-3.413333 5.12-10.24 6.826667-17.066667 6.826666z"  /></svg>