<?xml version="1.0" standalone="no"?><!DOCTYPE svg PUBLIC "-//W3C//DTD SVG 1.1//EN" "http://www.w3.org/Graphics/SVG/1.1/DTD/svg11.dtd"><svg class="icon" width="64px" height="64.00px" viewBox="0 0 1024 1024" version="1.1" xmlns="http://www.w3.org/2000/svg"><path  d="M897.706667 989.866667H126.293333c-51.2 0-92.16-40.96-92.16-92.16V126.293333C34.133333 75.093333 75.093333 34.133333 126.293333 34.133333h769.706667c51.2 0 92.16 40.96 92.16 92.16v769.706667c1.706667 52.906667-39.253333 93.866667-90.453333 93.866667zM126.293333 85.333333C104.106667 85.333333 85.333333 104.106667 85.333333 126.293333v769.706667C85.333333 919.893333 104.106667 938.666667 126.293333 938.666667h769.706667c22.186667 0 40.96-18.773333 40.96-40.96V126.293333c1.706667-22.186667-17.066667-40.96-39.253333-40.96H126.293333z"  /><path  d="M713.386667 638.293333c-6.826667 0-13.653333-1.706667-18.773334-6.826666L512 447.146667 329.386667 629.76c-10.24 10.24-25.6 10.24-35.84 0s-10.24-25.6 0-35.84L494.933333 392.533333c10.24-10.24 25.6-10.24 35.84 0l201.386667 201.386667c10.24 10.24 10.24 25.6 0 35.84-6.826667 5.12-11.946667 8.533333-18.773333 8.533333z"  /><path  d="M512 839.68c-13.653333 0-25.6-11.946667-25.6-25.6V423.253333c0-13.653333 11.946667-25.6 25.6-25.6s25.6 11.946667 25.6 25.6v389.12c0 15.36-11.946667 27.306667-25.6 27.306667zM713.386667 286.72H310.613333c-13.653333 0-25.6-11.946667-25.6-25.6s11.946667-25.6 25.6-25.6h402.773334c13.653333 0 25.6 11.946667 25.6 25.6s-11.946667 25.6-25.6 25.6z"  /></svg>