<?xml version="1.0" standalone="no"?><!DOCTYPE svg PUBLIC "-//W3C//DTD SVG 1.1//EN" "http://www.w3.org/Graphics/SVG/1.1/DTD/svg11.dtd"><svg class="icon" width="64px" height="64.00px" viewBox="0 0 1024 1024" version="1.1" xmlns="http://www.w3.org/2000/svg"><path  d="M929.28 215.04H111.786667a25.6 25.6 0 1 1 0-51.2h817.493333a25.6 25.6 0 0 1 0 51.2z"  /><path  d="M684.032 215.04H357.034667a25.6 25.6 0 0 1-22.528-37.717333l67.242666-123.904a25.429333 25.429333 0 0 1 22.357334-13.312h194.048a25.6 25.6 0 0 1 22.528 13.653333l65.877333 123.733333a25.6 25.6 0 0 1-22.528 37.546667z m-283.989333-51.2h241.322666l-38.741333-72.533333h-163.157333zM741.034667 985.258667H300.032a99.157333 99.157333 0 0 1-99.157333-99.157334v-563.2a25.6 25.6 0 0 1 25.6-25.6h587.946666a25.6 25.6 0 0 1 25.6 25.6v563.2a99.157333 99.157333 0 0 1-98.986666 99.157334zM252.074667 348.330667v537.770666a47.957333 47.957333 0 0 0 47.957333 47.957334h441.002667a47.957333 47.957333 0 0 0 47.786666-47.957334V348.330667z"  /><path  d="M618.496 740.352a25.429333 25.429333 0 0 1-18.090667-7.509333L404.309333 536.746667a25.6 25.6 0 0 1 36.181334-36.181334L636.586667 696.661333a25.6 25.6 0 0 1-18.090667 43.690667z"  /><path  d="M422.4 740.352a26.112 26.112 0 0 1-18.090667-7.509333 25.770667 25.770667 0 0 1 0-36.181334l196.096-196.096a25.6 25.6 0 0 1 36.181334 36.181334L440.490667 732.842667a25.429333 25.429333 0 0 1-18.090667 7.509333z"  /></svg>