<?xml version="1.0" standalone="no"?><!DOCTYPE svg PUBLIC "-//W3C//DTD SVG 1.1//EN" "http://www.w3.org/Graphics/SVG/1.1/DTD/svg11.dtd"><svg class="icon" width="64px" height="64.00px" viewBox="0 0 1024 1024" version="1.1" xmlns="http://www.w3.org/2000/svg"><path  d="M897.706667 911.36H126.293333C75.093333 911.36 34.133333 870.4 34.133333 819.2V206.506667c0-51.2 40.96-92.16 92.16-92.16H392.533333c17.066667 0 32.426667 6.826667 42.666667 18.773333l85.333333 92.16c1.706667 1.706667 3.413333 1.706667 5.12 1.706667h370.346667c51.2 0 92.16 40.96 92.16 92.16v498.346666c1.706667 51.2-39.253333 93.866667-90.453333 93.866667zM126.293333 163.84C104.106667 163.84 85.333333 182.613333 85.333333 206.506667V819.2c0 22.186667 18.773333 40.96 40.96 40.96h769.706667c22.186667 0 40.96-18.773333 40.96-40.96V319.146667c0-22.186667-18.773333-40.96-40.96-40.96H527.36c-17.066667 0-32.426667-6.826667-42.666667-18.773334l-85.333333-92.16c-1.706667-1.706667-3.413333-1.706667-5.12-1.706666H126.293333z"  /><path  d="M512 757.76c-13.653333 0-25.6-11.946667-25.6-25.6V426.666667c0-13.653333 11.946667-25.6 25.6-25.6s25.6 11.946667 25.6 25.6v305.493333c0 15.36-11.946667 25.6-25.6 25.6z"  /><path  d="M380.586667 581.973333c-6.826667 0-13.653333-1.706667-18.773334-6.826666-10.24-10.24-10.24-25.6 0-35.84l131.413334-131.413334c10.24-10.24 25.6-10.24 35.84 0l131.413333 131.413334c10.24 10.24 10.24 25.6 0 35.84s-25.6 10.24-35.84 0L512 460.8l-114.346667 114.346667c-3.413333 5.12-10.24 6.826667-17.066666 6.826666z"  /></svg>