<?xml version="1.0" standalone="no"?><!DOCTYPE svg PUBLIC "-//W3C//DTD SVG 1.1//EN" "http://www.w3.org/Graphics/SVG/1.1/DTD/svg11.dtd"><svg class="icon" width="64px" height="64.00px" viewBox="0 0 1024 1024" version="1.1" xmlns="http://www.w3.org/2000/svg"><path  d="M512 754.346667c-13.653333 0-25.6-11.946667-25.6-25.6V296.96c0-13.653333 11.946667-25.6 25.6-25.6s25.6 11.946667 25.6 25.6v430.08c0 15.36-11.946667 27.306667-25.6 27.306667z"  /><path  d="M679.253333 489.813333c-6.826667 0-13.653333-1.706667-18.773333-6.826666L512 332.8l-150.186667 150.186667c-10.24 10.24-25.6 10.24-35.84 0s-10.24-25.6 0-35.84l167.253334-167.253334c10.24-10.24 25.6-10.24 35.84 0l167.253333 167.253334c10.24 10.24 10.24 25.6 0 35.84-3.413333 3.413333-10.24 6.826667-17.066667 6.826666z"  /><path  d="M512 989.866667C249.173333 989.866667 34.133333 774.826667 34.133333 512S249.173333 34.133333 512 34.133333s477.866667 215.04 477.866667 477.866667-215.04 477.866667-477.866667 477.866667z m0-904.533334C276.48 85.333333 85.333333 276.48 85.333333 512s191.146667 426.666667 426.666667 426.666667 426.666667-191.146667 426.666667-426.666667S747.52 85.333333 512 85.333333z"  /></svg>