<?xml version="1.0" standalone="no"?><!DOCTYPE svg PUBLIC "-//W3C//DTD SVG 1.1//EN" "http://www.w3.org/Graphics/SVG/1.1/DTD/svg11.dtd"><svg class="icon" width="64px" height="64.00px" viewBox="0 0 1024 1024" version="1.1" xmlns="http://www.w3.org/2000/svg"><path  d="M512 989.866667C249.173333 989.866667 34.133333 774.826667 34.133333 512S249.173333 34.133333 512 34.133333s477.866667 215.04 477.866667 477.866667-215.04 477.866667-477.866667 477.866667z m0-904.533334C276.48 85.333333 85.333333 276.48 85.333333 512s191.146667 426.666667 426.666667 426.666667 426.666667-191.146667 426.666667-426.666667S747.52 85.333333 512 85.333333z"  /><path  d="M384 665.6c-6.826667 0-13.653333-1.706667-18.773333-6.826667-10.24-10.24-10.24-25.6 0-35.84l256-256c10.24-10.24 25.6-10.24 35.84 0 10.24 10.24 10.24 25.6 0 35.84l-256 256c-3.413333 3.413333-10.24 6.826667-17.066667 6.826667z"  /><path  d="M640 665.6c-6.826667 0-13.653333-1.706667-18.773333-6.826667l-256-256c-10.24-10.24-10.24-25.6 0-35.84 10.24-10.24 25.6-10.24 35.84 0l256 256c10.24 10.24 10.24 25.6 0 35.84-3.413333 3.413333-10.24 6.826667-17.066667 6.826667z"  /></svg>