<?xml version="1.0" standalone="no"?><!DOCTYPE svg PUBLIC "-//W3C//DTD SVG 1.1//EN" "http://www.w3.org/Graphics/SVG/1.1/DTD/svg11.dtd"><svg class="icon" width="64px" height="64.00px" viewBox="0 0 1024 1024" version="1.1" xmlns="http://www.w3.org/2000/svg"><path  d="M511.317333 989.013333C248.32 989.013333 34.304 774.997333 34.304 512S248.32 34.986667 511.317333 34.986667 988.330667 249.002667 988.330667 512 774.314667 989.013333 511.317333 989.013333z m0-902.826666C276.48 86.186667 85.504 277.162667 85.504 512S276.48 937.813333 511.317333 937.813333 937.130667 746.837333 937.130667 512 745.984 86.186667 511.317333 86.186667zM254.634667 794.112c-6.656 0-13.312-2.56-18.090667-7.509333a25.6 25.6 0 0 1-6.826667-24.064l88.405334-366.421334a104.277333 104.277333 0 0 1 77.312-77.312l366.421333-88.405333a25.6 25.6 0 0 1 24.064 6.826667c6.314667 6.314667 8.874667 15.36 6.826667 24.064l-88.405334 366.421333a104.277333 104.277333 0 0 1-77.312 77.312l-366.421333 88.405333c-1.877333 0.512-3.925333 0.682667-5.973333 0.682667zM733.184 290.133333l-325.632 78.506667a53.7088 53.7088 0 0 0-39.594667 39.594667L289.450667 733.866667l325.632-78.506667a53.7088 53.7088 0 0 0 39.594666-39.594667L733.184 290.133333zM527.36 617.472c-66.730667 0-121.173333-54.272-121.173333-121.173333 0-66.730667 54.272-121.173333 121.173333-121.173334 66.730667 0 121.173333 54.272 121.173333 121.173334-0.170667 66.901333-54.442667 121.173333-121.173333 121.173333z m0-190.976c-38.570667 0-69.973333 31.402667-69.973333 69.973333s31.402667 69.973333 69.973333 69.973334 69.973333-31.402667 69.973333-69.973334c-0.170667-38.570667-31.573333-69.973333-69.973333-69.973333z" /></svg>