<?xml version="1.0" standalone="no"?><!DOCTYPE svg PUBLIC "-//W3C//DTD SVG 1.1//EN" "http://www.w3.org/Graphics/SVG/1.1/DTD/svg11.dtd"><svg class="icon" width="64px" height="64.00px" viewBox="0 0 1024 1024" version="1.1" xmlns="http://www.w3.org/2000/svg"><path  d="M392.533333 85.333333c18.773333 0 34.133333 15.36 34.133334 34.133334v785.066666c0 18.773333-15.36 34.133333-34.133334 34.133334H119.466667c-18.773333 0-34.133333-15.36-34.133334-34.133334V119.466667c0-18.773333 15.36-34.133333 34.133334-34.133334h273.066666m0-51.2H119.466667C72.362667 34.133333 34.133333 72.362667 34.133333 119.466667v785.066666c0 47.104 38.229333 85.333333 85.333334 85.333334h273.066666c47.104 0 85.333333-38.229333 85.333334-85.333334V119.466667c0-47.104-38.229333-85.333333-85.333334-85.333334zM904.533333 85.333333c18.773333 0 34.133333 15.36 34.133334 34.133334v785.066666c0 18.773333-15.36 34.133333-34.133334 34.133334H631.466667c-18.773333 0-34.133333-15.36-34.133334-34.133334V119.466667c0-18.773333 15.36-34.133333 34.133334-34.133334h273.066666m0-51.2H631.466667c-47.104 0-85.333333 38.229333-85.333334 85.333334v785.066666c0 47.104 38.229333 85.333333 85.333334 85.333334h273.066666c47.104 0 85.333333-38.229333 85.333334-85.333334V119.466667c0-47.104-38.229333-85.333333-85.333334-85.333334zM342.528 341.504H169.472c-14.165333 0-25.6-11.434667-25.6-25.6s11.434667-25.6 25.6-25.6h173.226667c14.165333 0 25.6 11.434667 25.6 25.6s-11.605333 25.6-25.770667 25.6zM342.528 468.309333H169.472c-14.165333 0-25.6-11.434667-25.6-25.6s11.434667-25.6 25.6-25.6h173.226667c14.165333 0 25.6 11.434667 25.6 25.6s-11.605333 25.6-25.770667 25.6zM342.528 595.114667H169.472c-14.165333 0-25.6-11.434667-25.6-25.6s11.434667-25.6 25.6-25.6h173.226667c14.165333 0 25.6 11.434667 25.6 25.6s-11.605333 25.6-25.770667 25.6zM253.098667 733.696c-3.413333 0-6.656-0.682667-9.898667-2.048-3.072-1.194667-5.802667-3.072-8.192-5.461333-2.389333-2.389333-4.266667-5.290667-5.632-8.362667a26.658133 26.658133 0 0 1-1.365333-14.848c0.341333-1.536 0.853333-3.242667 1.365333-4.778667 0.682667-1.536 1.536-2.901333 2.389333-4.266666 1.024-1.536 2.048-2.730667 3.242667-3.925334s2.389333-2.389333 3.925333-3.242666c1.365333-0.853333 2.730667-1.706667 4.266667-2.389334 1.536-0.682667 3.242667-1.024 4.949333-1.365333 3.242667-0.682667 6.656-0.682667 9.898667 0 1.706667 0.341333 3.242667 0.682667 4.778667 1.365333s3.072 1.536 4.437333 2.389334c1.365333 0.853333 2.730667 2.048 3.925333 3.242666s2.218667 2.389333 3.242667 3.925334c0.853333 1.365333 1.706667 2.730667 2.218667 4.266666 0.682667 1.536 1.194667 3.242667 1.536 4.778667 0.341333 1.706667 0.512 3.413333 0.512 5.12 0 3.413333-0.682667 6.656-2.048 9.728a25.275733 25.275733 0 0 1-23.552 15.872zM768 733.696c-3.413333 0-6.826667-0.682667-9.898667-2.048-3.072-1.194667-5.802667-3.072-8.362666-5.461333-2.389333-2.389333-4.266667-5.290667-5.461334-8.362667-1.365333-3.072-2.048-6.314667-2.048-9.728a25.873067 25.873067 0 0 1 15.872-23.722667c1.536-0.682667 3.242667-1.024 4.778667-1.365333 3.242667-0.682667 6.656-0.682667 10.069333 0 1.536 0.341333 3.242667 0.682667 4.778667 1.365333s3.072 1.536 4.437333 2.389334a25.873067 25.873067 0 0 1 11.434667 21.333333c0 3.413333-0.682667 6.656-2.048 9.728a25.275733 25.275733 0 0 1-23.552 15.872zM854.698667 341.504H681.472c-14.165333 0-25.6-11.434667-25.6-25.6s11.434667-25.6 25.6-25.6h173.226667c14.165333 0 25.6 11.434667 25.6 25.6s-11.605333 25.6-25.6 25.6zM854.698667 468.309333H681.472c-14.165333 0-25.6-11.434667-25.6-25.6s11.434667-25.6 25.6-25.6h173.226667c14.165333 0 25.6 11.434667 25.6 25.6s-11.605333 25.6-25.6 25.6zM854.698667 595.114667H681.472c-14.165333 0-25.6-11.434667-25.6-25.6s11.434667-25.6 25.6-25.6h173.226667c14.165333 0 25.6 11.434667 25.6 25.6s-11.605333 25.6-25.6 25.6z" /></svg>