<?xml version="1.0" standalone="no"?><!DOCTYPE svg PUBLIC "-//W3C//DTD SVG 1.1//EN" "http://www.w3.org/Graphics/SVG/1.1/DTD/svg11.dtd"><svg class="icon" width="64px" height="64.00px" viewBox="0 0 1024 1024" version="1.1" xmlns="http://www.w3.org/2000/svg"><path  d="M556.885333 980.309333a25.6 25.6 0 0 1-14.677333-46.592c90.624-62.805333 139.434667-125.269333 145.066667-186.026666s-11.434667-102.4-51.2-130.901334A25.6 25.6 0 0 1 665.6 574.805333c55.808 39.594667 80.384 99.328 73.216 177.664S674.986667 904.533333 571.392 975.701333a25.6 25.6 0 0 1-14.506667 4.608z"  /><path  d="M593.92 626.346667a126.464 126.464 0 1 1 126.634667-126.464 126.634667 126.634667 0 0 1-126.634667 126.464z m0-201.728a75.264 75.264 0 1 0 75.434667 75.264 75.434667 75.434667 0 0 0-75.434667-75.264z"  /><path  d="M394.922667 734.72L152.576 492.202667 601.088 43.690667l242.346667 242.346666L686.592 443.733333a25.6 25.6 0 0 1-36.181333-36.352l120.661333-120.661333-170.666667-170.666667-375.466666 375.466667 170.666666 170.666667 105.472-106.837334a25.6 25.6 0 0 1 36.522667 36.010667zM297.130667 796.672a25.258667 25.258667 0 0 1-17.92-7.338667L102.4 617.130667A25.6 25.6 0 1 1 138.581333 580.266667l176.469334 172.544a25.6 25.6 0 0 1 0 36.181333 25.258667 25.258667 0 0 1-17.92 7.68zM915.797333 980.309333H108.202667a25.6 25.6 0 0 1 0-51.2h807.594666a25.6 25.6 0 0 1 0 51.2z"  /></svg>