<?xml version="1.0" standalone="no"?><!DOCTYPE svg PUBLIC "-//W3C//DTD SVG 1.1//EN" "http://www.w3.org/Graphics/SVG/1.1/DTD/svg11.dtd"><svg class="icon" width="64px" height="64.00px" viewBox="0 0 1024 1024" version="1.1" xmlns="http://www.w3.org/2000/svg"><path  d="M827.733333 989.866667H331.093333c-51.2 0-93.866667-42.666667-93.866666-93.866667v-631.466667c0-51.2 42.666667-93.866667 93.866666-93.866666h496.64c51.2 0 93.866667 42.666667 93.866667 93.866666v631.466667c0 51.2-40.96 93.866667-93.866667 93.866667zM331.093333 221.866667c-23.893333 0-42.666667 18.773333-42.666666 42.666666v631.466667c0 23.893333 18.773333 42.666667 42.666666 42.666667h496.64c23.893333 0 42.666667-18.773333 42.666667-42.666667v-631.466667c0-23.893333-18.773333-42.666667-42.666667-42.666666H331.093333z"  /><path  d="M262.826667 855.04h-68.266667c-51.2 0-93.866667-42.666667-93.866667-93.866667v-631.466666C102.4 76.8 143.36 34.133333 196.266667 34.133333h496.64c51.2 0 93.866667 42.666667 93.866666 93.866667v68.266667c0 13.653333-11.946667 25.6-25.6 25.6s-25.6-11.946667-25.6-25.6v-68.266667C735.573333 104.106667 716.8 85.333333 692.906667 85.333333H196.266667C172.373333 85.333333 153.6 104.106667 153.6 128v631.466667c0 23.893333 18.773333 42.666667 42.666667 42.666666h68.266666c13.653333 0 25.6 11.946667 25.6 25.6s-11.946667 27.306667-27.306666 27.306667zM715.093333 744.106667H443.733333c-13.653333 0-25.6-11.946667-25.6-25.6s11.946667-25.6 25.6-25.6h271.36c13.653333 0 25.6 11.946667 25.6 25.6s-10.24 25.6-25.6 25.6zM715.093333 844.8H443.733333c-13.653333 0-25.6-11.946667-25.6-25.6s11.946667-25.6 25.6-25.6h271.36c13.653333 0 25.6 11.946667 25.6 25.6s-10.24 25.6-25.6 25.6z"  /><path  d="M735.573333 595.626667H424.96v-75.093334c0-27.306667 22.186667-47.786667 47.786667-47.786666h40.96c-13.653333-15.36-32.426667-37.546667-32.426667-81.92 0-71.68 54.613333-97.28 100.693333-97.28s97.28 25.6 97.28 97.28c0 44.373333-20.48 66.56-34.133333 80.213333h40.96c27.306667 0 47.786667 22.186667 47.786667 47.786667v76.8z m-259.413333-51.2h208.213333v-20.48h-63.146666c-32.426667 0-32.426667-30.72-32.426667-47.786667 0-17.066667 10.24-29.013333 18.773333-39.253333 10.24-10.24 20.48-22.186667 20.48-46.08 0-20.48-5.12-46.08-46.08-46.08-32.426667 0-49.493333 15.36-49.493333 46.08 0 25.6 10.24 37.546667 22.186667 49.493333 8.533333 8.533333 17.066667 18.773333 17.066666 34.133333 0 10.24 0 17.066667-1.706666 23.893334-3.413333 15.36-15.36 23.893333-30.72 23.893333h-63.146667v22.186667z"  /></svg>