<?xml version="1.0" standalone="no"?><!DOCTYPE svg PUBLIC "-//W3C//DTD SVG 1.1//EN" "http://www.w3.org/Graphics/SVG/1.1/DTD/svg11.dtd"><svg class="icon" width="64px" height="64.00px" viewBox="0 0 1024 1024" version="1.1" xmlns="http://www.w3.org/2000/svg"><path  d="M779.946667 989.866667H116.053333c-46.08 0-85.333333-37.546667-85.333333-85.333334V240.64c0-46.08 37.546667-85.333333 85.333333-85.333333h663.893334c46.08 0 85.333333 37.546667 85.333333 85.333333V904.533333c0 47.786667-37.546667 85.333333-85.333333 85.333334zM116.053333 206.506667c-18.773333 0-34.133333 15.36-34.133333 34.133333V904.533333c0 18.773333 15.36 34.133333 34.133333 34.133334h663.893334c18.773333 0 34.133333-15.36 34.133333-34.133334V240.64c0-18.773333-15.36-34.133333-34.133333-34.133333H116.053333z"  /><path  d="M967.68 894.293333c-13.653333 0-25.6-11.946667-25.6-25.6v-750.933333c0-17.066667-15.36-32.426667-32.426667-32.426667h-750.933333c-13.653333 0-25.6-11.946667-25.6-25.6S145.066667 34.133333 158.72 34.133333h750.933333c46.08 0 83.626667 37.546667 83.626667 83.626667v750.933333c0 13.653333-11.946667 25.6-25.6 25.6z"  /><path  d="M285.013333 822.613333c-5.12 0-10.24-1.706667-13.653333-3.413333-6.826667-5.12-11.946667-13.653333-11.946667-22.186667l5.12-128c0-5.12 1.706667-8.533333 3.413334-13.653333l211.626666-320.853333c8.533333-11.946667 23.893333-15.36 35.84-6.826667l110.933334 73.386667c5.12 3.413333 10.24 10.24 10.24 17.066666 1.706667 6.826667 0 13.653333-3.413334 18.773334L421.546667 757.76c-3.413333 3.413333-6.826667 6.826667-10.24 8.533333l-116.053334 54.613334c-3.413333 1.706667-6.826667 1.706667-10.24 1.706666z m29.013334-145.066666l-3.413334 78.506666 71.68-34.133333 194.56-293.546667-68.266666-46.08-194.56 295.253334z m87.04 64.853333z"  /><path  d="M556.373333 534.186667c-5.12 0-10.24-1.706667-13.653333-3.413334l-112.64-73.386666c-11.946667-8.533333-15.36-23.893333-6.826667-35.84 8.533333-11.946667 23.893333-15.36 35.84-6.826667l112.64 73.386667c11.946667 8.533333 15.36 23.893333 6.826667 35.84-5.12 5.12-13.653333 10.24-22.186667 10.24z"  /></svg>