<?xml version="1.0" standalone="no"?><!DOCTYPE svg PUBLIC "-//W3C//DTD SVG 1.1//EN" "http://www.w3.org/Graphics/SVG/1.1/DTD/svg11.dtd"><svg class="icon" width="64px" height="64.00px" viewBox="0 0 1024 1024" version="1.1" xmlns="http://www.w3.org/2000/svg"><path  d="M832.853333 989.866667H191.146667c-44.373333 0-81.92-40.96-81.92-92.16V126.293333c0-51.2 35.84-92.16 81.92-92.16h530.773333c6.826667 0 15.36 3.413333 18.773333 8.533334L907.946667 238.933333c3.413333 5.12 6.826667 10.24 6.826666 17.066667v640c0 52.906667-37.546667 93.866667-81.92 93.866667zM191.146667 85.333333c-17.066667 0-30.72 18.773333-30.72 40.96v769.706667c0 22.186667 13.653333 40.96 30.72 40.96h641.706666c17.066667 0 30.72-18.773333 30.72-40.96v-631.466667L709.973333 85.333333H191.146667z"  /><path  d="M889.173333 298.666667h-162.133333c-23.893333 0-42.666667-18.773333-42.666667-42.666667V59.733333c0-13.653333 11.946667-25.6 25.6-25.6s25.6 11.946667 25.6 25.6v187.733334h153.6c13.653333 0 25.6 11.946667 25.6 25.6s-11.946667 25.6-25.6 25.6z"  /><path  d="M532.48 368.64H305.493333c-13.653333 0-25.6-11.946667-25.6-25.6s11.946667-25.6 25.6-25.6h225.28c13.653333 0 25.6 11.946667 25.6 25.6s-10.24 25.6-23.893333 25.6zM675.84 546.133333H305.493333c-13.653333 0-25.6-11.946667-25.6-25.6s11.946667-25.6 25.6-25.6h368.64c13.653333 0 25.6 11.946667 25.6 25.6s-10.24 25.6-23.893333 25.6zM675.84 723.626667H305.493333c-13.653333 0-25.6-11.946667-25.6-25.6s11.946667-25.6 25.6-25.6h368.64c13.653333 0 25.6 11.946667 25.6 25.6s-10.24 25.6-23.893333 25.6z"  /></svg>