<?xml version="1.0" standalone="no"?><!DOCTYPE svg PUBLIC "-//W3C//DTD SVG 1.1//EN" "http://www.w3.org/Graphics/SVG/1.1/DTD/svg11.dtd"><svg class="icon" width="64px" height="64.00px" viewBox="0 0 1024 1024" version="1.1" xmlns="http://www.w3.org/2000/svg"><path  d="M430.08 989.866667H163.84c-51.2 0-93.866667-42.666667-93.866667-93.866667v-768c0-51.2 42.666667-93.866667 93.866667-93.866667h698.026667c51.2 0 93.866667 42.666667 93.866666 93.866667v341.333333c0 13.653333-11.946667 25.6-25.6 25.6s-25.6-11.946667-25.6-25.6v-341.333333C904.533333 104.106667 885.76 85.333333 861.866667 85.333333H163.84C139.946667 85.333333 121.173333 104.106667 121.173333 128v768c0 23.893333 18.773333 42.666667 42.666667 42.666667h267.946667c13.653333 0 25.6 11.946667 25.6 25.6s-11.946667 25.6-27.306667 25.6z"  /><path  d="M703.146667 278.186667H256c-13.653333 0-25.6-11.946667-25.6-25.6s11.946667-25.6 25.6-25.6h447.146667c13.653333 0 25.6 11.946667 25.6 25.6s-11.946667 25.6-25.6 25.6zM703.146667 448.853333H256c-13.653333 0-25.6-11.946667-25.6-25.6s11.946667-25.6 25.6-25.6h447.146667c13.653333 0 25.6 11.946667 25.6 25.6s-11.946667 25.6-25.6 25.6zM389.12 617.813333H256c-13.653333 0-25.6-11.946667-25.6-25.6s11.946667-25.6 25.6-25.6h133.12c13.653333 0 25.6 11.946667 25.6 25.6s-11.946667 25.6-25.6 25.6z"  /><path  d="M909.653333 989.866667H575.146667c-25.6 0-46.08-20.48-46.08-44.373334V836.266667c0-25.6 20.48-46.08 46.08-46.08h332.8c25.6 0 46.08 20.48 46.08 46.08v107.52c0 25.6-18.773333 46.08-44.373334 46.08z m-327.68-51.2H904.533333v-95.573334H581.973333V938.666667z"  /><path  d="M877.226667 843.093333H607.573333l59.733334-165.546666c5.12-13.653333 18.773333-23.893333 34.133333-23.893334H785.066667c15.36 0 29.013333 10.24 34.133333 23.893334l58.026667 165.546666z m-196.266667-51.2h122.88l-30.72-85.333333h-61.44l-30.72 85.333333z m10.24-105.813333z"  /><path  d="M778.24 703.146667h-69.973333c-42.666667 0-78.506667-35.84-78.506667-78.506667S665.6 546.133333 708.266667 546.133333h69.973333c42.666667 0 78.506667 35.84 78.506667 78.506667s-35.84 78.506667-78.506667 78.506667zM708.266667 597.333333c-15.36 0-27.306667 11.946667-27.306667 27.306667 0 15.36 11.946667 27.306667 27.306667 27.306667h69.973333c15.36 0 27.306667-11.946667 27.306667-27.306667 0-15.36-11.946667-27.306667-27.306667-27.306667h-69.973333z"  /></svg>