<?xml version="1.0" standalone="no"?><!DOCTYPE svg PUBLIC "-//W3C//DTD SVG 1.1//EN" "http://www.w3.org/Graphics/SVG/1.1/DTD/svg11.dtd"><svg class="icon" width="64px" height="64.00px" viewBox="0 0 1024 1024" version="1.1" xmlns="http://www.w3.org/2000/svg"><path  d="M390.826667 989.866667h-187.733334c-51.2 0-93.866667-42.666667-93.866666-93.866667v-768c0-51.2 42.666667-93.866667 93.866666-93.866667h614.4c51.2 0 93.866667 42.666667 93.866667 93.866667v331.093333c0 13.653333-11.946667 25.6-25.6 25.6s-25.6-11.946667-25.6-25.6V128c0-23.893333-18.773333-42.666667-42.666667-42.666667h-614.4c-23.893333 0-42.666667 18.773333-42.666666 42.666667v768c0 23.893333 18.773333 42.666667 42.666666 42.666667H392.533333c13.653333 0 25.6 11.946667 25.6 25.6s-11.946667 25.6-27.306666 25.6z"  /><path  d="M684.373333 279.893333H271.36c-13.653333 0-25.6-11.946667-25.6-25.6s11.946667-25.6 25.6-25.6h413.013333c13.653333 0 25.6 11.946667 25.6 25.6s-11.946667 25.6-25.6 25.6zM684.373333 411.306667H271.36c-13.653333 0-25.6-11.946667-25.6-25.6s11.946667-25.6 25.6-25.6h413.013333c13.653333 0 25.6 11.946667 25.6 25.6s-11.946667 25.6-25.6 25.6zM513.706667 541.013333H271.36c-13.653333 0-25.6-11.946667-25.6-25.6s11.946667-25.6 25.6-25.6h242.346667c13.653333 0 25.6 11.946667 25.6 25.6s-11.946667 25.6-25.6 25.6zM541.013333 989.866667c-6.826667 0-13.653333-3.413333-18.773333-6.826667-5.12-5.12-8.533333-13.653333-6.826667-22.186667l15.36-117.76c0-5.12 3.413333-10.24 6.826667-15.36L771.413333 597.333333c10.24-10.24 25.6-10.24 35.84 0l100.693334 100.693334c10.24 10.24 10.24 25.6 0 35.84L675.84 965.973333c-3.413333 3.413333-8.533333 6.826667-15.36 6.826667l-116.053333 17.066667h-3.413334z m117.76-40.96z m-76.8-88.746667l-10.24 75.093333 75.093334-10.24L853.333333 716.8l-64.853333-64.853333-206.506667 208.213333z"  /></svg>