<?xml version="1.0" standalone="no"?><!DOCTYPE svg PUBLIC "-//W3C//DTD SVG 1.1//EN" "http://www.w3.org/Graphics/SVG/1.1/DTD/svg11.dtd"><svg class="icon" width="64px" height="64.00px" viewBox="0 0 1024 1024" version="1.1" xmlns="http://www.w3.org/2000/svg"><path  d="M897.706667 965.973333H126.293333c-51.2 0-92.16-40.96-92.16-92.16V150.186667c0-51.2 40.96-92.16 92.16-92.16h250.88c17.066667 0 34.133333 8.533333 46.08 20.48l98.986667 119.466666c1.706667 1.706667 3.413333 3.413333 6.826667 3.413334h370.346666c51.2 0 92.16 40.96 92.16 92.16v580.266666c-1.706667 51.2-42.666667 92.16-93.866666 92.16zM126.293333 109.226667C104.106667 109.226667 85.333333 128 85.333333 150.186667v723.626666c0 22.186667 18.773333 40.96 40.96 40.96h769.706667c22.186667 0 40.96-18.773333 40.96-40.96v-580.266666c0-22.186667-18.773333-40.96-40.96-40.96H527.36c-17.066667 0-34.133333-8.533333-46.08-20.48l-98.986667-119.466667c-1.706667-1.706667-3.413333-3.413333-6.826666-3.413333H126.293333z"  /><path  d="M512 728.746667c-66.56 0-121.173333-54.613333-121.173333-121.173334s54.613333-121.173333 121.173333-121.173333 121.173333 54.613333 121.173333 121.173333-54.613333 121.173333-121.173333 121.173334z m0-191.146667c-37.546667 0-69.973333 30.72-69.973333 69.973333s30.72 69.973333 69.973333 69.973334 69.973333-30.72 69.973333-69.973334-32.426667-69.973333-69.973333-69.973333z"  /><path  d="M512 537.6c-13.653333 0-25.6-11.946667-25.6-25.6v-71.68c0-13.653333 11.946667-25.6 25.6-25.6s25.6 11.946667 25.6 25.6V512c0 13.653333-11.946667 25.6-25.6 25.6zM512 798.72c-13.653333 0-25.6-11.946667-25.6-25.6v-71.68c0-13.653333 11.946667-25.6 25.6-25.6s25.6 11.946667 25.6 25.6v71.68c0 15.36-11.946667 25.6-25.6 25.6zM576.853333 564.906667c-6.826667 0-13.653333-1.706667-18.773333-6.826667-10.24-10.24-10.24-25.6 0-35.84l51.2-51.2c10.24-10.24 25.6-10.24 35.84 0s10.24 25.6 0 35.84l-51.2 51.2c-5.12 3.413333-10.24 6.826667-17.066667 6.826667zM385.706667 754.346667c-6.826667 0-13.653333-1.706667-18.773334-6.826667-10.24-10.24-10.24-25.6 0-35.84l51.2-51.2c10.24-10.24 25.6-10.24 35.84 0s10.24 25.6 0 35.84l-51.2 51.2c-3.413333 5.12-10.24 6.826667-17.066666 6.826667zM443.733333 564.906667c-6.826667 0-13.653333-1.706667-18.773333-6.826667l-51.2-51.2c-10.24-10.24-10.24-25.6 0-35.84s25.6-10.24 35.84 0l51.2 51.2c10.24 10.24 10.24 25.6 0 35.84-3.413333 3.413333-10.24 6.826667-17.066667 6.826667zM633.173333 754.346667c-6.826667 0-13.653333-1.706667-18.773333-6.826667l-51.2-51.2c-10.24-10.24-10.24-25.6 0-35.84 10.24-10.24 25.6-10.24 35.84 0l51.2 51.2c10.24 10.24 10.24 25.6 0 35.84-3.413333 5.12-10.24 6.826667-17.066667 6.826667zM416.426667 633.173333h-71.68c-13.653333 0-25.6-11.946667-25.6-25.6s11.946667-25.6 25.6-25.6h71.68c13.653333 0 25.6 11.946667 25.6 25.6s-11.946667 25.6-25.6 25.6zM679.253333 633.173333h-71.68c-13.653333 0-25.6-11.946667-25.6-25.6s11.946667-25.6 25.6-25.6h71.68c13.653333 0 25.6 11.946667 25.6 25.6s-11.946667 25.6-25.6 25.6z"  /></svg>