<?xml version="1.0" standalone="no"?><!DOCTYPE svg PUBLIC "-//W3C//DTD SVG 1.1//EN" "http://www.w3.org/Graphics/SVG/1.1/DTD/svg11.dtd"><svg class="icon" width="64px" height="64.00px" viewBox="0 0 1024 1024" version="1.1" xmlns="http://www.w3.org/2000/svg"><path  d="M541.013333 989.866667h-56.32c-32.426667 0-59.733333-27.306667-59.733333-59.733334v-47.786666c0-3.413333-1.706667-6.826667-5.12-6.826667-34.133333-8.533333-68.266667-22.186667-98.986667-40.96-3.413333-1.706667-6.826667-1.706667-8.533333 1.706667l-34.133333 34.133333c-23.893333 22.186667-59.733333 22.186667-83.626667 0L153.6 829.44c-23.893333-23.893333-23.893333-59.733333 0-83.626667l34.133333-34.133333c1.706667-1.706667 3.413333-6.826667 1.706667-8.533333-18.773333-30.72-32.426667-63.146667-40.96-98.986667 0-3.413333-3.413333-5.12-6.826667-5.12H93.866667c-32.426667 0-59.733333-27.306667-59.733334-59.733333v-56.32c0-32.426667 27.306667-59.733333 59.733334-59.733334h47.786666c3.413333 0 6.826667-1.706667 6.826667-5.12 8.533333-34.133333 22.186667-68.266667 40.96-98.986666 1.706667-3.413333 1.706667-6.826667-1.706667-8.533334l-34.133333-34.133333c-23.893333-22.186667-23.893333-59.733333 0-83.626667L194.56 153.6c22.186667-22.186667 59.733333-22.186667 83.626667 0l34.133333 34.133333c1.706667 1.706667 6.826667 3.413333 8.533333 1.706667 30.72-18.773333 63.146667-32.426667 98.986667-40.96 3.413333-1.706667 5.12-3.413333 5.12-6.826667V93.866667c0-32.426667 27.306667-59.733333 59.733333-59.733334h56.32c32.426667 0 59.733333 27.306667 59.733334 59.733334v47.786666c0 3.413333 1.706667 6.826667 5.12 6.826667 34.133333 8.533333 68.266667 22.186667 98.986666 40.96 3.413333 1.706667 6.826667 1.706667 8.533334-1.706667l34.133333-34.133333c23.893333-22.186667 59.733333-22.186667 83.626667 0l39.253333 39.253333c23.893333 23.893333 22.186667 59.733333 0 83.626667l-34.133333 34.133333c-1.706667 1.706667-3.413333 6.826667-1.706667 8.533334 18.773333 30.72 32.426667 63.146667 40.96 98.986666 0 3.413333 3.413333 5.12 6.826667 5.12h47.786666c32.426667 0 59.733333 27.306667 59.733334 59.733334v56.32c0 32.426667-27.306667 59.733333-59.733334 59.733333h-47.786666c-3.413333 0-6.826667 1.706667-6.826667 5.12-8.533333 34.133333-22.186667 68.266667-40.96 98.986667-1.706667 3.413333-1.706667 6.826667 1.706667 8.533333l34.133333 34.133333c23.893333 22.186667 23.893333 59.733333 0 83.626667L829.44 870.4c-22.186667 22.186667-59.733333 23.893333-83.626667 0l-34.133333-34.133333c-1.706667-1.706667-6.826667-3.413333-8.533333-1.706667-30.72 18.773333-63.146667 32.426667-98.986667 40.96-3.413333 1.706667-5.12 3.413333-5.12 6.826667v47.786666c0 32.426667-25.6 59.733333-58.026667 59.733334zM317.44 781.653333c10.24 0 20.48 3.413333 30.72 8.533334 27.306667 15.36 54.613333 27.306667 85.333333 35.84 25.6 6.826667 44.373333 30.72 44.373334 56.32v47.786666c0 5.12 3.413333 8.533333 8.533333 8.533334h56.32c5.12 0 8.533333-3.413333 8.533333-8.533334v-47.786666c0-27.306667 18.773333-51.2 44.373334-56.32 29.013333-6.826667 58.026667-18.773333 85.333333-35.84 23.893333-13.653333 52.906667-10.24 71.68 8.533333l34.133333 34.133333c3.413333 3.413333 8.533333 3.413333 11.946667 0l39.253333-39.253333c3.413333-3.413333 3.413333-8.533333 0-11.946667l-34.133333-34.133333c-18.773333-18.773333-22.186667-47.786667-8.533333-71.68 15.36-27.306667 27.306667-54.613333 35.84-85.333333 6.826667-25.6 30.72-44.373333 56.32-44.373334h47.786666c5.12 0 8.533333-3.413333 8.533334-8.533333v-56.32c0-5.12-3.413333-8.533333-8.533334-8.533333H887.466667c-27.306667 0-51.2-18.773333-56.32-44.373334-6.826667-29.013333-18.773333-58.026667-35.84-85.333333-13.653333-23.893333-10.24-52.906667 8.533333-71.68l34.133333-34.133333c3.413333-3.413333 3.413333-8.533333 0-11.946667l-39.253333-39.253333c-3.413333-3.413333-8.533333-3.413333-11.946667 0l-34.133333 34.133333c-18.773333 18.773333-47.786667 22.186667-71.68 8.533333-25.6-15.36-54.613333-27.306667-85.333333-35.84-25.6-6.826667-44.373333-30.72-44.373334-56.32V93.866667c0-5.12-3.413333-8.533333-8.533333-8.533334h-56.32c-5.12 0-8.533333 3.413333-8.533333 8.533334v47.786666c0 27.306667-18.773333 51.2-44.373334 56.32-29.013333 6.826667-58.026667 18.773333-85.333333 35.84-23.893333 13.653333-52.906667 10.24-71.68-8.533333l-34.133333-34.133333c-3.413333-3.413333-8.533333-3.413333-11.946667 0l-39.253333 39.253333c-3.413333 3.413333-3.413333 8.533333 0 11.946667l34.133333 34.133333c18.773333 18.773333 22.186667 47.786667 8.533333 71.68-15.36 25.6-27.306667 54.613333-35.84 85.333333-6.826667 25.6-30.72 44.373333-56.32 44.373334H93.866667c-5.12 0-8.533333 3.413333-8.533334 8.533333v56.32c0 5.12 3.413333 8.533333 8.533334 8.533333h47.786666c27.306667 0 51.2 18.773333 56.32 44.373334 6.826667 29.013333 18.773333 58.026667 35.84 85.333333 13.653333 23.893333 10.24 52.906667-8.533333 71.68l-34.133333 34.133333c-3.413333 3.413333-3.413333 8.533333 0 11.946667l39.253333 39.253333c3.413333 3.413333 8.533333 3.413333 11.946667 0l34.133333-34.133333c10.24-15.36 25.6-22.186667 40.96-22.186667z"  /><path  d="M512 650.24c-76.8 0-138.24-61.44-138.24-138.24s61.44-138.24 138.24-138.24 138.24 61.44 138.24 138.24-61.44 138.24-138.24 138.24z m0-225.28c-47.786667 0-87.04 39.253333-87.04 87.04s39.253333 87.04 87.04 87.04 87.04-39.253333 87.04-87.04-39.253333-87.04-87.04-87.04z"  /></svg>