<?xml version="1.0" standalone="no"?><!DOCTYPE svg PUBLIC "-//W3C//DTD SVG 1.1//EN" "http://www.w3.org/Graphics/SVG/1.1/DTD/svg11.dtd"><svg class="icon" width="64px" height="64.00px" viewBox="0 0 1024 1024" version="1.1" xmlns="http://www.w3.org/2000/svg"><path  d="M704.853333 931.84H319.146667c-32.426667 0-64.853333-17.066667-81.92-46.08l-191.146667-324.266667c-17.066667-29.013333-17.066667-66.56 0-95.573333L238.933333 138.24c17.066667-29.013333 47.786667-46.08 81.92-46.08h384c32.426667 0 64.853333 17.066667 81.92 46.08l191.146667 325.973333c17.066667 29.013333 17.066667 66.56 0 95.573334L785.066667 885.76c-17.066667 27.306667-47.786667 46.08-80.213334 46.08zM319.146667 143.36c-15.36 0-29.013333 8.533333-37.546667 20.48L90.453333 489.813333c-8.533333 13.653333-8.533333 30.72 0 44.373334l191.146667 325.973333c8.533333 13.653333 22.186667 20.48 37.546667 20.48h384c15.36 0 29.013333-8.533333 37.546666-20.48l191.146667-325.973333c8.533333-13.653333 8.533333-30.72 0-44.373334l-191.146667-324.266666c-8.533333-13.653333-22.186667-20.48-37.546666-20.48H319.146667z"  /><path  d="M512 653.653333c-78.506667 0-141.653333-63.146667-141.653333-141.653333s63.146667-141.653333 141.653333-141.653333 141.653333 63.146667 141.653333 141.653333-63.146667 141.653333-141.653333 141.653333z m0-232.106666c-49.493333 0-90.453333 40.96-90.453333 90.453333s40.96 90.453333 90.453333 90.453333 90.453333-40.96 90.453333-90.453333-40.96-90.453333-90.453333-90.453333z"  /></svg>