<?xml version="1.0" standalone="no"?><!DOCTYPE svg PUBLIC "-//W3C//DTD SVG 1.1//EN" "http://www.w3.org/Graphics/SVG/1.1/DTD/svg11.dtd"><svg class="icon" width="64px" height="64.00px" viewBox="0 0 1024 1024" version="1.1" xmlns="http://www.w3.org/2000/svg"><path  d="M807.253333 989.866667H216.746667c-51.2 0-92.16-40.96-92.16-92.16V126.293333c0-51.2 40.96-92.16 92.16-92.16h464.213333l218.453333 242.346667v621.226667c0 51.2-40.96 92.16-92.16 92.16zM216.746667 85.333333c-22.186667 0-40.96 18.773333-40.96 40.96v769.706667c0 22.186667 18.773333 40.96 40.96 40.96h588.8c22.186667 0 40.96-18.773333 40.96-40.96V295.253333L658.773333 85.333333H216.746667z"  /><path  d="M512 718.506667c-76.8 0-138.24-61.44-138.24-138.24s61.44-138.24 138.24-138.24 138.24 61.44 138.24 138.24-61.44 138.24-138.24 138.24z m0-226.986667c-47.786667 0-87.04 39.253333-87.04 87.04S464.213333 665.6 512 665.6s87.04-39.253333 87.04-87.04-39.253333-87.04-87.04-87.04z"  /><path  d="M512 491.52c-13.653333 0-25.6-11.946667-25.6-25.6v-68.266667c0-13.653333 11.946667-25.6 25.6-25.6s25.6 11.946667 25.6 25.6v68.266667c0 15.36-11.946667 25.6-25.6 25.6zM512 786.773333c-13.653333 0-25.6-11.946667-25.6-25.6v-68.266666c0-13.653333 11.946667-25.6 25.6-25.6s25.6 11.946667 25.6 25.6v68.266666c0 13.653333-11.946667 25.6-25.6 25.6zM595.626667 517.12c-6.826667 0-13.653333-1.706667-18.773334-6.826667-10.24-10.24-10.24-25.6 0-35.84l47.786667-47.786666c10.24-10.24 25.6-10.24 35.84 0s10.24 25.6 0 35.84L614.4 510.293333c-5.12 5.12-11.946667 6.826667-18.773333 6.826667zM370.346667 744.106667c-6.826667 0-13.653333-1.706667-18.773334-6.826667-10.24-10.24-10.24-25.6 0-35.84l47.786667-47.786667c10.24-10.24 25.6-10.24 35.84 0s10.24 25.6 0 35.84l-47.786667 47.786667c-5.12 3.413333-11.946667 6.826667-17.066666 6.826667zM424.96 517.12c-6.826667 0-13.653333-1.706667-18.773333-6.826667L358.4 462.506667c-10.24-10.24-10.24-25.6 0-35.84 10.24-10.24 25.6-10.24 35.84 0l47.786667 47.786666c10.24 10.24 10.24 25.6 0 35.84-5.12 5.12-11.946667 6.826667-17.066667 6.826667zM650.24 744.106667c-6.826667 0-13.653333-1.706667-18.773333-6.826667l-47.786667-47.786667c-10.24-10.24-10.24-25.6 0-35.84 10.24-10.24 25.6-10.24 35.84 0l47.786667 47.786667c10.24 10.24 10.24 25.6 0 35.84-3.413333 3.413333-10.24 6.826667-17.066667 6.826667zM399.36 605.866667h-68.266667c-13.653333 0-25.6-11.946667-25.6-25.6s11.946667-25.6 25.6-25.6h68.266667c13.653333 0 25.6 11.946667 25.6 25.6s-11.946667 25.6-25.6 25.6zM692.906667 605.866667h-68.266667c-13.653333 0-25.6-11.946667-25.6-25.6s11.946667-25.6 25.6-25.6h68.266667c13.653333 0 25.6 11.946667 25.6 25.6s-11.946667 25.6-25.6 25.6z"  /><path  d="M873.813333 312.32h-158.72c-51.2 0-92.16-40.96-92.16-92.16V59.733333h51.2v158.72c0 22.186667 18.773333 40.96 40.96 40.96h158.72v52.906667z"  /></svg>