<?xml version="1.0" standalone="no"?><!DOCTYPE svg PUBLIC "-//W3C//DTD SVG 1.1//EN" "http://www.w3.org/Graphics/SVG/1.1/DTD/svg11.dtd"><svg class="icon" width="64px" height="64.00px" viewBox="0 0 1024 1024" version="1.1" xmlns="http://www.w3.org/2000/svg"><path  d="M506.88 877.909333H59.904A25.6 25.6 0 0 1 34.133333 852.309333V181.930667a25.6 25.6 0 0 1 25.6-25.6h894.122667a25.6 25.6 0 0 1 25.6 25.6V517.12a25.6 25.6 0 0 1-51.2 0V207.530667H85.333333v619.178666h421.546667a25.6 25.6 0 1 1 0 51.2z"  /><path  d="M506.88 542.72a25.941333 25.941333 0 0 1-15.36-5.12L44.544 202.410667a25.6 25.6 0 0 1 30.72-41.130667l431.616 324.266667 431.786667-324.266667a25.6 25.6 0 0 1 30.72 41.130667L522.24 537.6a25.258667 25.258667 0 0 1-15.36 5.12zM807.594667 863.061333a115.029333 115.029333 0 1 1 115.029333-115.029333 115.029333 115.029333 0 0 1-115.029333 115.029333z m0-178.858666a63.829333 63.829333 0 1 0 63.829333 63.829333 63.829333 63.829333 0 0 0-63.829333-63.829333z"  /><path  d="M807.594667 684.202667a25.6 25.6 0 0 1-25.6-25.6v-66.901334a25.6 25.6 0 0 1 51.2 0v66.901334a25.6 25.6 0 0 1-25.6 25.6zM807.594667 930.133333a25.6 25.6 0 0 1-25.6-25.6v-67.072a25.6 25.6 0 0 1 51.2 0V904.533333a25.6 25.6 0 0 1-25.6 25.6zM868.181333 709.290667a24.746667 24.746667 0 0 1-18.090666-7.509334 25.429333 25.429333 0 0 1 0-36.181333l47.445333-47.445333a25.6 25.6 0 1 1 36.181333 36.352l-47.445333 47.274666a25.088 25.088 0 0 1-18.090667 7.509334zM689.322667 887.466667a25.6 25.6 0 0 1-18.090667-43.690667l47.445333-47.445333a25.6 25.6 0 0 1 36.181334 36.181333l-47.445334 48.128a25.429333 25.429333 0 0 1-18.090666 6.826667zM743.253333 709.290667a25.258667 25.258667 0 0 1-18.090666-7.509334l-47.274667-47.274666a25.6 25.6 0 1 1 36.181333-36.352L761.344 665.6a25.429333 25.429333 0 0 1 0 36.181333 24.746667 24.746667 0 0 1-18.090667 7.509334zM921.6 887.466667a25.770667 25.770667 0 0 1-17.066667-6.826667l-47.445333-47.445333a25.770667 25.770667 0 0 1 0-36.181334 25.429333 25.429333 0 0 1 36.181333 0l47.445334 47.445334a25.429333 25.429333 0 0 1 0 36.181333A25.770667 25.770667 0 0 1 921.6 887.466667zM718.336 773.632h-67.072a25.6 25.6 0 0 1 0-51.2h67.072a25.6 25.6 0 0 1 0 51.2zM964.096 773.632h-67.072a25.6 25.6 0 0 1 0-51.2h67.072a25.6 25.6 0 0 1 0 51.2z"  /></svg>