<?xml version="1.0" standalone="no"?><!DOCTYPE svg PUBLIC "-//W3C//DTD SVG 1.1//EN" "http://www.w3.org/Graphics/SVG/1.1/DTD/svg11.dtd"><svg class="icon" width="64px" height="64.00px" viewBox="0 0 1024 1024" version="1.1" xmlns="http://www.w3.org/2000/svg"><path  d="M512 989.866667c-15.36 0-30.72-5.12-42.666667-17.066667l-105.813333-105.813333c-1.706667-1.706667-3.413333-3.413333-6.826667-3.413334h-136.533333c-32.426667 0-59.733333-27.306667-59.733333-59.733333V665.6c0-1.706667-1.706667-5.12-3.413334-6.826667L51.2 554.666667c-23.893333-23.893333-23.893333-61.44 0-85.333334l105.813333-105.813333c1.706667-1.706667 3.413333-3.413333 3.413334-6.826667v-136.533333c0-32.426667 27.306667-59.733333 59.733333-59.733333H358.4c1.706667 0 5.12-1.706667 6.826667-3.413334L469.333333 51.2c23.893333-23.893333 61.44-23.893333 85.333334 0l105.813333 105.813333c1.706667 1.706667 3.413333 3.413333 6.826667 3.413334h138.24c32.426667 0 59.733333 27.306667 59.733333 59.733333V358.4c0 1.706667 1.706667 5.12 3.413333 6.826667l105.813334 105.813333c23.893333 23.893333 23.893333 61.44 0 85.333333l-105.813334 105.813334c-1.706667 1.706667-3.413333 3.413333-3.413333 6.826666v138.24c0 32.426667-27.306667 59.733333-59.733333 59.733334H665.6c-1.706667 0-5.12 1.706667-6.826667 3.413333l-104.106666 102.4c-11.946667 11.946667-27.306667 17.066667-42.666667 17.066667zM220.16 211.626667c-5.12 0-8.533333 3.413333-8.533333 8.533333V358.4c0 15.36-6.826667 30.72-17.066667 42.666667l-105.813333 105.813333c-3.413333 3.413333-3.413333 8.533333 0 11.946667l105.813333 105.813333c11.946667 11.946667 17.066667 27.306667 17.066667 42.666667v138.24c0 5.12 3.413333 8.533333 8.533333 8.533333H358.4c15.36 0 30.72 6.826667 42.666667 17.066667l105.813333 105.813333c3.413333 3.413333 8.533333 3.413333 11.946667 0l105.813333-105.813333c11.946667-11.946667 27.306667-17.066667 42.666667-17.066667h138.24c5.12 0 8.533333-3.413333 8.533333-8.533333V665.6c0-15.36 6.826667-30.72 17.066667-42.666667l105.813333-105.813333c3.413333-3.413333 3.413333-8.533333 0-11.946667l-105.813333-105.813333c-11.946667-11.946667-17.066667-27.306667-17.066667-42.666667v-136.533333c0-5.12-3.413333-8.533333-8.533333-8.533333H665.6c-15.36 0-30.72-6.826667-42.666667-17.066667l-105.813333-105.813333c-3.413333-3.413333-8.533333-3.413333-11.946667 0l-105.813333 105.813333c-11.946667 11.946667-27.306667 17.066667-42.666667 17.066667h-136.533333z"  /><path  d="M512 677.546667c-90.453333 0-165.546667-75.093333-165.546667-165.546667s75.093333-165.546667 165.546667-165.546667 165.546667 75.093333 165.546667 165.546667-75.093333 165.546667-165.546667 165.546667z m0-279.893334a114.346667 114.346667 0 1 0 0 228.693334 114.346667 114.346667 0 0 0 0-228.693334z"  /></svg>