<?xml version="1.0" standalone="no"?><!DOCTYPE svg PUBLIC "-//W3C//DTD SVG 1.1//EN" "http://www.w3.org/Graphics/SVG/1.1/DTD/svg11.dtd"><svg class="icon" width="64px" height="64.00px" viewBox="0 0 1024 1024" version="1.1" xmlns="http://www.w3.org/2000/svg"><path  d="M443.733333 989.866667H194.56c-51.2 0-92.16-40.96-92.16-92.16V126.293333C102.4 75.093333 143.36 34.133333 194.56 34.133333H648.533333c6.826667 0 13.653333 3.413333 18.773334 8.533334L870.4 267.946667c3.413333 5.12 6.826667 10.24 6.826667 17.066666v203.093334c0 13.653333-11.946667 25.6-25.6 25.6s-25.6-11.946667-25.6-25.6V295.253333L636.586667 85.333333H194.56C172.373333 85.333333 153.6 104.106667 153.6 126.293333v769.706667c0 22.186667 18.773333 40.96 40.96 40.96H443.733333c13.653333 0 25.6 11.946667 25.6 25.6S459.093333 989.866667 443.733333 989.866667z"  /><path  d="M715.093333 921.6c-76.8 0-138.24-61.44-138.24-138.24s61.44-138.24 138.24-138.24 138.24 61.44 138.24 138.24-61.44 138.24-138.24 138.24z m0-225.28c-47.786667 0-87.04 39.253333-87.04 87.04s39.253333 87.04 87.04 87.04 87.04-39.253333 87.04-87.04-37.546667-87.04-87.04-87.04z"  /><path  d="M715.093333 696.32c-13.653333 0-25.6-11.946667-25.6-25.6v-68.266667c0-13.653333 11.946667-25.6 25.6-25.6s25.6 11.946667 25.6 25.6v68.266667c0 13.653333-10.24 25.6-25.6 25.6zM715.093333 989.866667c-13.653333 0-25.6-11.946667-25.6-25.6v-68.266667c0-13.653333 11.946667-25.6 25.6-25.6s25.6 11.946667 25.6 25.6v68.266667c0 13.653333-10.24 25.6-25.6 25.6zM798.72 721.92c-6.826667 0-13.653333-1.706667-18.773333-6.826667-10.24-10.24-10.24-25.6 0-35.84l47.786666-47.786666c10.24-10.24 25.6-10.24 35.84 0 10.24 10.24 10.24 25.6 0 35.84l-47.786666 47.786666c-3.413333 3.413333-10.24 6.826667-17.066667 6.826667zM573.44 947.2c-6.826667 0-13.653333-1.706667-18.773333-6.826667-10.24-10.24-10.24-25.6 0-35.84l47.786666-47.786666c10.24-10.24 25.6-10.24 35.84 0 10.24 10.24 10.24 25.6 0 35.84l-47.786666 47.786666c-3.413333 5.12-10.24 6.826667-17.066667 6.826667zM628.053333 721.92c-6.826667 0-13.653333-1.706667-18.773333-6.826667L561.493333 665.6c-10.24-10.24-10.24-25.6 0-35.84s25.6-10.24 35.84 0l47.786667 47.786667c10.24 10.24 10.24 25.6 0 35.84-3.413333 5.12-10.24 8.533333-17.066667 8.533333zM853.333333 947.2c-6.826667 0-13.653333-1.706667-18.773333-6.826667l-47.786667-47.786666c-10.24-10.24-10.24-25.6 0-35.84s25.6-10.24 35.84 0L870.4 904.533333c10.24 10.24 10.24 25.6 0 35.84-3.413333 5.12-10.24 6.826667-17.066667 6.826667zM602.453333 808.96h-68.266666c-13.653333 0-25.6-11.946667-25.6-25.6s11.946667-25.6 25.6-25.6h68.266666c13.653333 0 25.6 11.946667 25.6 25.6s-11.946667 25.6-25.6 25.6zM896 808.96h-68.266667c-13.653333 0-25.6-11.946667-25.6-25.6s11.946667-25.6 25.6-25.6h68.266667c13.653333 0 25.6 11.946667 25.6 25.6s-10.24 25.6-25.6 25.6zM851.626667 312.32h-158.72c-51.2 0-92.16-40.96-92.16-92.16V59.733333c0-13.653333 11.946667-25.6 25.6-25.6s25.6 11.946667 25.6 25.6v158.72c0 22.186667 18.773333 40.96 40.96 40.96h158.72c13.653333 0 25.6 11.946667 25.6 25.6s-11.946667 27.306667-25.6 27.306667z"  /></svg>