<?xml version="1.0" standalone="no"?><!DOCTYPE svg PUBLIC "-//W3C//DTD SVG 1.1//EN" "http://www.w3.org/Graphics/SVG/1.1/DTD/svg11.dtd"><svg class="icon" width="64px" height="64.00px" viewBox="0 0 1024 1024" version="1.1" xmlns="http://www.w3.org/2000/svg"><path  d="M624.64 977.92l-6.826667-23.893333c-15.36-46.08-56.32-76.8-104.106666-76.8s-90.453333 30.72-104.106667 76.8l-6.826667 23.893333-27.306666-6.826667c-78.506667-23.893333-150.186667-66.56-208.213334-126.293333l-15.36-17.066667 15.36-17.066666c17.066667-20.48 25.6-44.373333 25.6-71.68 0-61.44-49.493333-109.226667-109.226666-109.226667h-10.24l-25.6 1.706667-5.12-22.186667C37.546667 578.56 34.133333 546.133333 34.133333 513.706667c0-49.493333 6.826667-97.28 22.186667-143.36l5.12-18.773334h20.48c61.44 0 109.226667-49.493333 109.226667-110.933333 0-17.066667-3.413333-34.133333-11.946667-47.786667l-8.533333-17.066666 13.653333-13.653334c56.32-51.2 124.586667-90.453333 197.973333-110.933333l20.48-5.12 10.24 18.773333C433.493333 102.4 471.04 126.293333 512 126.293333s78.506667-23.893333 98.986667-59.733333l10.24-18.773333 20.48 5.12c73.386667 20.48 141.653333 58.026667 197.973333 110.933333l13.653333 13.653333-8.533333 17.066667c-6.826667 15.36-11.946667 30.72-11.946667 47.786667 0 61.44 49.493333 110.933333 109.226667 110.933333h18.773333l6.826667 17.066667c15.36 46.08 22.186667 93.866667 22.186667 143.36 0 32.426667-3.413333 64.853333-10.24 95.573333l-3.413334 22.186667-22.186666-1.706667h-10.24c-61.44 0-109.226667 49.493333-109.226667 109.226667 0 25.6 8.533333 51.2 25.6 71.68l15.36 17.066666-15.36 17.066667c-58.026667 59.733333-129.706667 104.106667-208.213333 126.293333l-27.306667 6.826667zM512 826.026667c61.44 0 116.053333 34.133333 143.36 88.746666 54.613333-20.48 105.813333-51.2 148.48-90.453333-15.36-25.6-23.893333-54.613333-23.893333-85.333333 0-87.04 68.266667-157.013333 153.6-160.426667 3.413333-22.186667 5.12-42.666667 5.12-64.853333 0-37.546667-5.12-75.093333-15.36-110.933334-80.213333-8.533333-143.36-76.8-143.36-160.426666 0-18.773333 3.413333-35.84 8.533333-52.906667-42.666667-35.84-92.16-64.853333-145.066667-81.92-30.72 42.666667-78.506667 69.973333-133.12 69.973333s-102.4-25.6-133.12-69.973333c-52.906667 17.066667-102.4 44.373333-145.066666 81.92 5.12 17.066667 8.533333 34.133333 8.533333 52.906667 0 83.626667-63.146667 151.893333-143.36 160.426666-6.826667 35.84-11.946667 73.386667-11.946667 110.933334 0 22.186667 1.706667 44.373333 5.12 64.853333 85.333333 3.413333 153.6 75.093333 153.6 160.426667 0 30.72-8.533333 59.733333-23.893333 85.333333 42.666667 40.96 93.866667 71.68 148.48 90.453333 27.306667-52.906667 81.92-88.746667 143.36-88.746666z"  /><path  d="M512 696.32c-100.693333 0-184.32-81.92-184.32-184.32S411.306667 329.386667 512 329.386667s184.32 81.92 184.32 184.32S612.693333 696.32 512 696.32z m0-315.733333c-73.386667 0-133.12 59.733333-133.12 133.12s59.733333 133.12 133.12 133.12 133.12-59.733333 133.12-133.12-59.733333-133.12-133.12-133.12z"  /></svg>