<?xml version="1.0" standalone="no"?><!DOCTYPE svg PUBLIC "-//W3C//DTD SVG 1.1//EN" "http://www.w3.org/Graphics/SVG/1.1/DTD/svg11.dtd"><svg class="icon" width="64px" height="64.00px" viewBox="0 0 1024 1024" version="1.1" xmlns="http://www.w3.org/2000/svg"><path  d="M938.666667 145.066667a59.733333 59.733333 0 0 1 59.648 56.456533L998.4 204.8v614.4a59.733333 59.733333 0 0 1-56.456533 59.648L938.666667 878.933333H85.333333a59.733333 59.733333 0 0 1-59.648-56.456533L25.6 819.2V204.8a59.733333 59.733333 0 0 1 56.456533-59.648L85.333333 145.066667h853.333334z m0 51.2H85.333333a8.533333 8.533333 0 0 0-8.3968 6.997333L76.8 204.8v614.4a8.533333 8.533333 0 0 0 6.997333 8.3968L85.333333 827.733333h853.333334a8.533333 8.533333 0 0 0 8.3968-6.997333L947.2 819.2V204.8a8.533333 8.533333 0 0 0-8.533333-8.533333zM827.733333 682.666667a25.6 25.6 0 0 1 0 51.2h-631.466666a25.6 25.6 0 0 1 0-51.2h631.466666zM397.175467 325.2224c10.376533 0 15.5648 5.188267 15.5648 15.5648v1.092267c0 10.376533-5.188267 15.5648-15.5648 15.5648h-90.385067l-0.017067 27.306666h59.272534c9.642667 0 16.930133 2.4576 21.845333 7.3728 4.9152 4.9152 7.3728 12.202667 7.3728 21.845334v72.0896c0 9.642667-2.4576 16.930133-7.3728 21.845333-4.9152 4.9152-12.202667 7.3728-21.845333 7.3728h-10.376534c-10.376533 0-15.5648-5.188267-15.5648-15.5648v-1.092267c0-10.376533 5.188267-15.5648 15.5648-15.5648h6.826667v-66.082133h-55.722667l0.017067 109.226667c0 10.752-5.376 16.110933-16.110933 16.110933h-1.092267c-10.752 0-16.110933-5.376-16.110933-16.110933v-109.226667H217.770667v82.7392c0 10.564267-5.290667 15.837867-15.837867 15.837867h-1.092267c-10.564267 0-15.837867-5.290667-15.837866-15.837867v-85.742933c0-9.642667 2.4576-16.930133 7.3728-21.845334 4.9152-4.9152 12.202667-7.3728 21.845333-7.3728h59.255467v-27.306666h-90.385067c-10.376533 0-15.5648-5.188267-15.5648-15.5648v-1.092267c0-10.376533 5.188267-15.5648 15.5648-15.5648h214.084267zM657.066667 460.8a25.6 25.6 0 0 1 0 51.2h-119.466667a25.6 25.6 0 0 1 0-51.2h119.466667z m170.666666-153.6a25.6 25.6 0 0 1 0 51.2h-290.133333a25.6 25.6 0 0 1 0-51.2h290.133333z m-536.507733-19.6608c10.376533 0 15.5648 5.188267 15.5648 15.5648v1.365333c0 10.376533-5.188267 15.5648-15.5648 15.5648h-1.911467c-10.564267 0-15.837867-5.290667-15.837866-15.837866v-0.8192c0-10.564267 5.290667-15.837867 15.837866-15.837867h1.911467z"  /></svg>