<?xml version="1.0" standalone="no"?><!DOCTYPE svg PUBLIC "-//W3C//DTD SVG 1.1//EN" "http://www.w3.org/Graphics/SVG/1.1/DTD/svg11.dtd"><svg class="icon" width="64px" height="64.00px" viewBox="0 0 1024 1024" version="1.1" xmlns="http://www.w3.org/2000/svg"><path  d="M102.4 42.666667a59.733333 59.733333 0 0 0-59.648 56.456533L42.666667 102.4v819.2a59.733333 59.733333 0 0 0 56.456533 59.648L102.4 981.333333h819.2a59.733333 59.733333 0 0 0 59.648-56.456533L981.333333 921.6V443.733333a59.733333 59.733333 0 0 0-56.456533-59.648L921.6 384h-59.733333V102.4a59.733333 59.733333 0 0 0-56.456534-59.648L802.133333 42.666667H102.4z m0 51.2h699.733333a8.533333 8.533333 0 0 1 8.3968 6.997333L810.666667 102.4v733.866667a25.6 25.6 0 0 0 51.080533 2.4576L861.866667 836.266667V435.2H921.6a8.533333 8.533333 0 0 1 8.3968 6.997333l0.136533 1.536v477.866667a8.533333 8.533333 0 0 1-6.997333 8.3968L921.6 930.133333H102.4a8.533333 8.533333 0 0 1-8.3968-6.997333L93.866667 921.6V102.4a8.533333 8.533333 0 0 1 6.997333-8.3968L102.4 93.866667zM605.866667 768a25.6 25.6 0 0 0 0 51.2h119.466666a25.6 25.6 0 0 0 0-51.2h-119.466666zM204.8 341.333333a34.133333 34.133333 0 0 0-34.133333 34.133334v409.6a34.133333 34.133333 0 0 0 34.133333 34.133333h290.133333a34.133333 34.133333 0 0 0 34.133334-34.133333V375.466667a34.133333 34.133333 0 0 0-34.133334-34.133334z m17.066667 51.2h256v375.466667H221.866667V392.533333z m384 238.933334a25.6 25.6 0 0 0 0 51.2h119.466666a25.6 25.6 0 0 0 0-51.2h-119.466666z m0-136.533334a25.6 25.6 0 0 0 0 51.2h119.466666a25.6 25.6 0 0 0 0-51.2h-119.466666z m0-136.533333a25.6 25.6 0 0 0 0 51.2h119.466666a25.6 25.6 0 0 0 0-51.2h-119.466666z m-409.6-136.533333a25.6 25.6 0 0 0 0 51.2h529.066666a25.6 25.6 0 0 0 0-51.2h-529.066666z"  /></svg>