<?xml version="1.0" standalone="no"?><!DOCTYPE svg PUBLIC "-//W3C//DTD SVG 1.1//EN" "http://www.w3.org/Graphics/SVG/1.1/DTD/svg11.dtd"><svg class="icon" width="64px" height="64.00px" viewBox="0 0 1024 1024" version="1.1" xmlns="http://www.w3.org/2000/svg"><path  d="M793.429333 795.989333a25.770667 25.770667 0 0 1-24.576-18.261333l-140.117333-469.504a542.72 542.72 0 0 1-12.458667-56.490667l-1.024-5.461333a104.96 104.96 0 0 0-206.506666 0l-1.024 5.461333a542.72 542.72 0 0 1-12.458667 56.490667L256 777.728a25.6 25.6 0 1 1-49.152-14.677333l139.434667-469.504a494.933333 494.933333 0 0 0 11.093333-51.2l1.024-5.632a156.16 156.16 0 0 1 307.2 0l1.024 5.632a494.933333 494.933333 0 0 0 11.093333 51.2l140.288 469.504a25.941333 25.941333 0 0 1-17.066666 31.914666 27.136 27.136 0 0 1-7.509334 1.024z"  /><path  d="M930.133333 915.114667h-836.266666a59.733333 59.733333 0 0 1-59.733334-59.733334v-38.229333a59.733333 59.733333 0 0 1 59.733334-59.733333h836.266666a59.733333 59.733333 0 0 1 59.733334 59.733333v38.229333a59.733333 59.733333 0 0 1-59.733334 59.733334z m-836.266666-106.496a8.533333 8.533333 0 0 0-8.533334 8.533333v38.229333a8.533333 8.533333 0 0 0 8.533334 8.533334h836.266666a8.533333 8.533333 0 0 0 8.533334-8.533334v-38.229333a8.533333 8.533333 0 0 0-8.533334-8.533333zM744.96 671.573333H273.066667a25.6 25.6 0 1 1 0-51.2h471.893333a25.6 25.6 0 0 1 0 51.2zM679.424 446.464H343.381333a25.6 25.6 0 0 1 0-51.2h336.042667a25.6 25.6 0 0 1 0 51.2zM639.658667 297.472H382.122667a25.6 25.6 0 0 1 0-51.2h257.536a25.6 25.6 0 0 1 0 51.2z"  /></svg>