<?xml version="1.0" standalone="no"?><!DOCTYPE svg PUBLIC "-//W3C//DTD SVG 1.1//EN" "http://www.w3.org/Graphics/SVG/1.1/DTD/svg11.dtd"><svg class="icon" width="64px" height="64.00px" viewBox="0 0 1024 1024" version="1.1" xmlns="http://www.w3.org/2000/svg"><path  d="M481.28 989.866667H163.84c-51.2 0-93.866667-42.666667-93.866667-93.866667v-768c0-51.2 42.666667-93.866667 93.866667-93.866667h698.026667c51.2 0 93.866667 42.666667 93.866666 93.866667v324.266667c0 13.653333-11.946667 25.6-25.6 25.6s-25.6-11.946667-25.6-25.6v-324.266667C904.533333 104.106667 885.76 85.333333 861.866667 85.333333H163.84C139.946667 85.333333 121.173333 104.106667 121.173333 128v768c0 23.893333 18.773333 42.666667 42.666667 42.666667h319.146667c13.653333 0 25.6 11.946667 25.6 25.6s-11.946667 25.6-27.306667 25.6z"  /><path  d="M691.2 278.186667H221.866667c-13.653333 0-25.6-11.946667-25.6-25.6s11.946667-25.6 25.6-25.6h469.333333c13.653333 0 25.6 11.946667 25.6 25.6s-11.946667 25.6-25.6 25.6zM691.2 448.853333H221.866667c-13.653333 0-25.6-11.946667-25.6-25.6s11.946667-25.6 25.6-25.6h469.333333c13.653333 0 25.6 11.946667 25.6 25.6s-11.946667 25.6-25.6 25.6zM380.586667 617.813333H221.866667c-13.653333 0-25.6-11.946667-25.6-25.6s11.946667-25.6 25.6-25.6h158.72c13.653333 0 25.6 11.946667 25.6 25.6s-11.946667 25.6-25.6 25.6z"  /><path  d="M897.706667 989.866667H689.493333c-10.24 0-18.773333-5.12-23.893333-13.653334l-100.693333-162.133333c-18.773333-29.013333-11.946667-66.56 13.653333-88.746667 15.36-13.653333 35.84-18.773333 56.32-15.36 10.24 1.706667 18.773333 5.12 27.306667 10.24V580.266667c0-37.546667 30.72-68.266667 68.266666-68.266667s68.266667 30.72 68.266667 68.266667v85.333333l110.933333 3.413333c27.306667 1.706667 47.786667 22.186667 47.786667 49.493334v213.333333c-3.413333 32.426667-29.013333 58.026667-59.733333 58.026667z m-196.266667-51.2h196.266667c3.413333 0 6.826667-3.413333 6.826666-6.826667V720.213333l-122.88-3.413333c-20.48 0-35.84-17.066667-35.84-37.546667V580.266667c0-8.533333-6.826667-17.066667-17.066666-17.066667s-17.066667 6.826667-17.066667 17.066667v221.866666c0 11.946667-8.533333 22.186667-18.773333 23.893334-11.946667 3.413333-22.186667-1.706667-29.013334-11.946667l-25.6-44.373333c-3.413333-6.826667-10.24-8.533333-11.946666-8.533334-3.413333 0-8.533333 0-15.36 3.413334-6.826667 5.12-8.533333 15.36-3.413334 23.893333l93.866667 150.186667z"  /></svg>