<?xml version="1.0" standalone="no"?><!DOCTYPE svg PUBLIC "-//W3C//DTD SVG 1.1//EN" "http://www.w3.org/Graphics/SVG/1.1/DTD/svg11.dtd"><svg class="icon" width="64px" height="64.00px" viewBox="0 0 1024 1024" version="1.1" xmlns="http://www.w3.org/2000/svg"><path  d="M512 989.866667c-6.826667 0-13.653333-3.413333-18.773333-6.826667L61.44 551.253333c-10.24-10.24-10.24-25.6 0-35.84s25.6-10.24 35.84 0L512 928.426667l413.013333-413.013334c10.24-10.24 25.6-10.24 35.84 0s10.24 25.6 0 35.84L530.773333 983.04c-5.12 3.413333-11.946667 6.826667-18.773333 6.826667z"  /><path  d="M512 517.12c-6.826667 0-13.653333-1.706667-18.773333-6.826667L61.44 78.506667C51.2 68.266667 51.2 51.2 61.44 40.96s25.6-10.24 35.84 0L512 455.68 925.013333 40.96c10.24-10.24 25.6-10.24 35.84 0s10.24 25.6 0 35.84L530.773333 510.293333c-5.12 5.12-11.946667 6.826667-18.773333 6.826667z"  /></svg>