<?xml version="1.0" standalone="no"?><!DOCTYPE svg PUBLIC "-//W3C//DTD SVG 1.1//EN" "http://www.w3.org/Graphics/SVG/1.1/DTD/svg11.dtd"><svg class="icon" width="64px" height="64.00px" viewBox="0 0 1024 1024" version="1.1" xmlns="http://www.w3.org/2000/svg"><path  d="M808.96 971.093333h-155.306667c-13.653333 0-25.6-11.946667-25.6-25.6V674.133333c0-27.306667-22.186667-47.786667-47.786666-47.786666h-124.586667c-27.306667 0-47.786667 22.186667-47.786667 47.786666v271.36c0 13.653333-11.946667 25.6-25.6 25.6h-165.546666c-54.613333 0-98.986667-44.373333-98.986667-98.986666V539.306667l-54.613333-39.253334C44.373333 488.106667 34.133333 471.04 34.133333 452.266667c0-20.48 6.826667-37.546667 22.186667-51.2l392.533333-325.973334c37.546667-30.72 90.453333-30.72 128 0l390.826667 325.973334c15.36 11.946667 23.893333 30.72 22.186667 51.2s-10.24 37.546667-25.6 49.493333l-54.613334 39.253333v332.8c-1.706667 52.906667-46.08 97.28-100.693333 97.28z m-129.706667-51.2h129.706667c27.306667 0 47.786667-22.186667 47.786667-47.786666V525.653333c0-8.533333 3.413333-15.36 10.24-20.48l64.853333-46.08c3.413333-3.413333 5.12-6.826667 5.12-8.533333 0-1.706667 0-6.826667-3.413333-8.533333L542.72 114.346667c-18.773333-15.36-44.373333-15.36-61.44 0l-392.533333 325.973333c-3.413333 3.413333-3.413333 6.826667-3.413334 8.533333s0 6.826667 5.12 8.533334l64.853334 46.08c6.826667 5.12 10.24 11.946667 10.24 20.48V870.4c0 27.306667 22.186667 47.786667 47.786666 47.786667h139.946667V674.133333c0-54.613333 44.373333-98.986667 98.986667-98.986666H580.266667c54.613333 0 98.986667 44.373333 98.986666 98.986666v245.76z"  /><path  d="M604.16 484.693333H419.84c-13.653333 0-25.6-11.946667-25.6-25.6s11.946667-25.6 25.6-25.6h186.026667c13.653333 0 25.6 11.946667 25.6 25.6s-11.946667 25.6-27.306667 25.6z"  /></svg>