<?xml version="1.0" standalone="no"?><!DOCTYPE svg PUBLIC "-//W3C//DTD SVG 1.1//EN" "http://www.w3.org/Graphics/SVG/1.1/DTD/svg11.dtd"><svg class="icon" width="64px" height="64.00px" viewBox="0 0 1024 1024" version="1.1" xmlns="http://www.w3.org/2000/svg"><path  d="M964.266667 160.426667h-904.533334C46.08 160.426667 34.133333 148.48 34.133333 134.826667s11.946667-25.6 25.6-25.6h904.533334c13.653333 0 25.6 11.946667 25.6 25.6s-11.946667 25.6-25.6 25.6zM964.266667 411.306667h-904.533334c-13.653333 0-25.6-11.946667-25.6-25.6s11.946667-25.6 25.6-25.6h904.533334c13.653333 0 25.6 11.946667 25.6 25.6s-11.946667 25.6-25.6 25.6zM964.266667 914.773333c-5.12 0-10.24-1.706667-15.36-5.12L512 570.026667 75.093333 909.653333c-11.946667 8.533333-27.306667 6.826667-35.84-5.12s-6.826667-27.306667 5.12-35.84l452.266667-351.573333c8.533333-6.826667 22.186667-6.826667 30.72 0l452.266667 351.573333c11.946667 8.533333 13.653333 25.6 5.12 35.84-5.12 6.826667-13.653333 10.24-20.48 10.24z"  /></svg>