<?xml version="1.0" standalone="no"?><!DOCTYPE svg PUBLIC "-//W3C//DTD SVG 1.1//EN" "http://www.w3.org/Graphics/SVG/1.1/DTD/svg11.dtd"><svg class="icon" width="64px" height="64.00px" viewBox="0 0 1024 1024" version="1.1" xmlns="http://www.w3.org/2000/svg"><path  d="M897.706667 965.973333H126.293333c-51.2 0-92.16-40.96-92.16-92.16V150.186667c0-51.2 40.96-92.16 92.16-92.16h250.88c17.066667 0 34.133333 8.533333 46.08 20.48l98.986667 119.466666c1.706667 1.706667 3.413333 3.413333 6.826667 3.413334h370.346666c51.2 0 92.16 40.96 92.16 92.16v580.266666c-1.706667 51.2-42.666667 92.16-93.866666 92.16zM126.293333 109.226667C104.106667 109.226667 85.333333 128 85.333333 150.186667v723.626666c0 22.186667 18.773333 40.96 40.96 40.96h769.706667c22.186667 0 40.96-18.773333 40.96-40.96v-580.266666c0-22.186667-18.773333-40.96-40.96-40.96H527.36c-17.066667 0-34.133333-8.533333-46.08-20.48l-98.986667-119.466667c-1.706667-1.706667-3.413333-3.413333-6.826666-3.413333H126.293333z"  /><path  d="M512 768l-13.653333-8.533333c-34.133333-22.186667-64.853333-44.373333-87.04-66.56l-6.826667-5.12c-37.546667-35.84-102.4-95.573333-102.4-170.666667 0-66.56 56.32-121.173333 126.293333-121.173333 30.72 0 61.44 10.24 83.626667 30.72 22.186667-18.773333 52.906667-30.72 83.626667-30.72 69.973333 0 126.293333 54.613333 126.293333 121.173333 0 75.093333-63.146667 134.826667-102.4 170.666667l-6.826667 5.12c-23.893333 22.186667-52.906667 44.373333-87.04 66.56l-13.653333 8.533333z m-83.626667-320.853333c-40.96 0-75.093333 30.72-75.093333 69.973333 0 52.906667 54.613333 102.4 85.333333 133.12l6.826667 6.826667c18.773333 17.066667 40.96 34.133333 66.56 51.2 25.6-17.066667 47.786667-34.133333 66.56-51.2l6.826667-6.826667c32.426667-30.72 85.333333-80.213333 85.333333-133.12 0-37.546667-34.133333-69.973333-75.093333-69.973333-25.6 0-49.493333 11.946667-63.146667 30.72L512 508.586667 491.52 477.866667c-13.653333-18.773333-37.546667-30.72-63.146667-30.72z"  /></svg>