<?xml version="1.0" standalone="no"?><!DOCTYPE svg PUBLIC "-//W3C//DTD SVG 1.1//EN" "http://www.w3.org/Graphics/SVG/1.1/DTD/svg11.dtd"><svg class="icon" width="64px" height="64.00px" viewBox="0 0 1024 1024" version="1.1" xmlns="http://www.w3.org/2000/svg"><path  d="M896 979.626667H692.906667c-13.653333 0-25.6-11.946667-25.6-25.6V621.226667c0-27.306667-22.186667-49.493333-49.493334-49.493334H406.186667c-27.306667 0-49.493333 22.186667-49.493334 49.493334v331.093333c0 13.653333-11.946667 25.6-25.6 25.6H128c-51.2 0-93.866667-42.666667-93.866667-93.866667V447.146667c0-30.72 13.653333-59.733333 37.546667-78.506667L448.853333 66.56c37.546667-29.013333 88.746667-29.013333 126.293334 0l377.173333 302.08c23.893333 18.773333 37.546667 47.786667 37.546667 78.506667v438.613333c0 51.2-42.666667 93.866667-93.866667 93.866667z m-177.493333-51.2h177.493333c23.893333 0 42.666667-18.773333 42.666667-42.666667V447.146667c0-15.36-6.826667-29.013333-18.773334-39.253334L542.72 107.52c-18.773333-15.36-44.373333-15.36-61.44 0L104.106667 407.893333c-11.946667 10.24-18.773333 23.893333-18.773334 39.253334v438.613333c0 23.893333 18.773333 42.666667 42.666667 42.666667h177.493333v-307.2c0-56.32 46.08-100.693333 100.693334-100.693334h211.626666c56.32 0 100.693333 46.08 100.693334 100.693334v307.2z"  /><path  d="M512 979.626667c-13.653333 0-25.6-11.946667-25.6-25.6V727.04c0-13.653333 11.946667-25.6 25.6-25.6s25.6 11.946667 25.6 25.6v226.986667c0 13.653333-11.946667 25.6-25.6 25.6z"  /></svg>