<?xml version="1.0" standalone="no"?><!DOCTYPE svg PUBLIC "-//W3C//DTD SVG 1.1//EN" "http://www.w3.org/Graphics/SVG/1.1/DTD/svg11.dtd"><svg class="icon" width="64px" height="64.00px" viewBox="0 0 1024 1024" version="1.1" xmlns="http://www.w3.org/2000/svg"><path  d="M802.133333 977.92h-145.066666c-13.653333 0-25.6-11.946667-25.6-25.6s11.946667-25.6 25.6-25.6H802.133333c23.893333 0 42.666667-18.773333 42.666667-42.666667V469.333333c0-13.653333 11.946667-25.6 25.6-25.6h56.32L542.72 107.52c-18.773333-15.36-44.373333-15.36-63.146667 0L97.28 443.733333H153.6c13.653333 0 25.6 11.946667 25.6 25.6v414.72c0 23.893333 18.773333 42.666667 42.666667 42.666667h157.013333c13.653333 0 25.6 11.946667 25.6 25.6s-11.946667 25.6-25.6 25.6H221.866667c-51.2 0-93.866667-42.666667-93.866667-93.866667V494.933333H78.506667c-18.773333 0-35.84-11.946667-40.96-29.013333-6.826667-17.066667-1.706667-37.546667 11.946666-49.493333L447.146667 69.973333c37.546667-30.72 92.16-30.72 129.706666 0l397.653334 348.16c13.653333 11.946667 18.773333 30.72 11.946666 49.493334-6.826667 17.066667-22.186667 29.013333-40.96 29.013333h-49.493333v389.12c0 51.2-42.666667 92.16-93.866667 92.16z"  /><path  d="M512 977.92c-13.653333 0-25.6-11.946667-25.6-25.6V626.346667c0-13.653333 11.946667-25.6 25.6-25.6s25.6 11.946667 25.6 25.6v325.973333c0 15.36-11.946667 25.6-25.6 25.6z"  /></svg>