<?xml version="1.0" standalone="no"?><!DOCTYPE svg PUBLIC "-//W3C//DTD SVG 1.1//EN" "http://www.w3.org/Graphics/SVG/1.1/DTD/svg11.dtd"><svg class="icon" width="64px" height="64.00px" viewBox="0 0 1024 1024" version="1.1" xmlns="http://www.w3.org/2000/svg"><path  d="M288.426667 735.573333c-10.24 0-20.48-3.413333-29.013334-10.24L47.786667 546.133333c-8.533333-8.533333-13.653333-18.773333-13.653334-30.72s5.12-22.186667 13.653334-30.72l211.626666-179.2c13.653333-11.946667 32.426667-13.653333 49.493334-6.826666 15.36 6.826667 23.893333 20.48 23.893333 37.546666v360.106667c0 15.36-8.533333 30.72-23.893333 37.546667-6.826667 1.706667-13.653333 1.706667-20.48 1.706666z m5.12-49.493333z m-201.386667-170.666667l189.44 162.133334v-324.266667L92.16 515.413333zM964.266667 95.573333h-904.533334C46.08 95.573333 34.133333 83.626667 34.133333 69.973333s11.946667-25.6 25.6-25.6h904.533334c13.653333 0 25.6 11.946667 25.6 25.6s-11.946667 25.6-25.6 25.6zM964.266667 389.12H476.16c-13.653333 0-25.6-11.946667-25.6-25.6s11.946667-25.6 25.6-25.6h488.106667c13.653333 0 25.6 11.946667 25.6 25.6s-11.946667 25.6-25.6 25.6zM964.266667 684.373333H476.16c-13.653333 0-25.6-11.946667-25.6-25.6s11.946667-25.6 25.6-25.6h488.106667c13.653333 0 25.6 11.946667 25.6 25.6s-11.946667 25.6-25.6 25.6zM964.266667 979.626667h-904.533334c-13.653333 0-25.6-11.946667-25.6-25.6s11.946667-25.6 25.6-25.6h904.533334c13.653333 0 25.6 11.946667 25.6 25.6s-11.946667 25.6-25.6 25.6z"  /></svg>