<?xml version="1.0" standalone="no"?><!DOCTYPE svg PUBLIC "-//W3C//DTD SVG 1.1//EN" "http://www.w3.org/Graphics/SVG/1.1/DTD/svg11.dtd"><svg class="icon" width="64px" height="64.00px" viewBox="0 0 1024 1024" version="1.1" xmlns="http://www.w3.org/2000/svg"><path  d="M563.2 93.866667a128.341333 128.341333 0 0 0-125.44 102.4h-90.453333a128 128 0 1 0-125.44 153.6 104.448 104.448 0 0 0 12.629333 0l86.698667 237.397333a74.410667 74.410667 0 0 0 11.605333 75.434667V870.4a59.733333 59.733333 0 0 0 119.466667 0V662.016a74.410667 74.410667 0 0 0 11.605333-75.434667l86.698667-237.397333a104.448 104.448 0 0 0 12.629333 0 128 128 0 0 0 0-256z m-341.333333 204.8a76.8 76.8 0 1 1 76.8-76.8 76.970667 76.970667 0 0 1-76.8 76.8zM401.066667 870.4a8.533333 8.533333 0 0 1-17.066667 0V690.346667a72.192 72.192 0 0 0 8.533333 0 72.192 72.192 0 0 0 8.533334 0zM392.533333 640a25.6 25.6 0 1 1 25.6-25.6 25.6 25.6 0 0 1-25.6 25.6z m32.085334-95.061333a73.728 73.728 0 0 0-64.170667 0l-76.970667-210.944a128.512 128.512 0 0 0 63.829334-86.528h90.453333a128.512 128.512 0 0 0 63.829333 86.528zM563.2 298.666667a76.8 76.8 0 1 1 76.8-76.8 76.970667 76.970667 0 0 1-76.8 76.8zM930.133333 307.2c0-117.589333-72.704-213.333333-162.133333-213.333333A25.6 25.6 0 0 0 742.4 119.466667v716.8a93.866667 93.866667 0 0 0 187.733333 0V426.666667a59.221333 59.221333 0 0 0-10.752-34.133334 59.221333 59.221333 0 0 0 10.752-34.133333z m-51.2 529.066667a42.666667 42.666667 0 0 1-85.333333 0V418.133333H870.4a8.533333 8.533333 0 0 1 8.533333 8.533334z m0-477.866667a8.533333 8.533333 0 0 1-8.533333 8.533333h-76.8V149.674667c48.298667 17.066667 85.333333 82.432 85.333333 157.525333z"  /></svg>