<?xml version="1.0" standalone="no"?><!DOCTYPE svg PUBLIC "-//W3C//DTD SVG 1.1//EN" "http://www.w3.org/Graphics/SVG/1.1/DTD/svg11.dtd"><svg class="icon" width="64px" height="64.00px" viewBox="0 0 1024 1024" version="1.1" xmlns="http://www.w3.org/2000/svg"><path  d="M848.213333 578.56c-46.08 0-87.04-22.186667-114.346666-58.026667-20.48 27.306667-56.32 58.026667-110.933334 58.026667-46.08 0-88.746667-22.186667-114.346666-58.026667-20.48 27.306667-56.32 58.026667-110.933334 58.026667-46.08 0-88.746667-22.186667-114.346666-58.026667-20.48 29.013333-58.026667 59.733333-116.053334 58.026667-73.386667-1.706667-133.12-64.853333-133.12-139.946667v-64.853333c0-13.653333 3.413333-27.306667 11.946667-39.253333l170.666667-256C238.933333 51.2 269.653333 34.133333 303.786667 34.133333h416.426666c34.133333 0 64.853333 17.066667 83.626667 44.373334l170.666667 256c8.533333 11.946667 11.946667 25.6 11.946666 39.253333v63.146667c0 68.266667-46.08 128-110.933333 139.946666-8.533333 1.706667-18.773333 1.706667-27.306667 1.706667zM512 438.613333c11.946667 0 22.186667 8.533333 25.6 20.48 8.533333 39.253333 46.08 69.973333 87.04 69.973334 63.146667 0 85.333333-64.853333 87.04-71.68 3.413333-10.24 13.653333-18.773333 23.893333-18.773334 11.946667 0 22.186667 8.533333 25.6 20.48 8.533333 46.08 56.32 76.8 104.106667 68.266667 40.96-8.533333 69.973333-46.08 69.973333-88.746667V375.466667c0-3.413333-1.706667-6.826667-3.413333-10.24l-170.666667-256c-8.533333-15.36-23.893333-23.893333-40.96-23.893334H303.786667c-17.066667 0-32.426667 8.533333-40.96 22.186667l-170.666667 256c-1.706667 3.413333-3.413333 6.826667-3.413333 10.24v64.853333c0 47.786667 37.546667 87.04 83.626666 88.746667 66.56 1.706667 88.746667-64.853333 90.453334-71.68 3.413333-10.24 13.653333-18.773333 23.893333-18.773333 11.946667 0 22.186667 8.533333 25.6 20.48 8.533333 39.253333 46.08 69.973333 87.04 69.973333 63.146667 0 85.333333-64.853333 87.04-71.68 5.12-10.24 13.653333-17.066667 25.6-17.066667zM797.013333 989.866667H235.52c-51.2 0-93.866667-42.666667-93.866667-93.866667V665.6c0-13.653333 11.946667-25.6 25.6-25.6s25.6 11.946667 25.6 25.6v230.4c0 23.893333 18.773333 42.666667 42.666667 42.666667h561.493333c23.893333 0 42.666667-18.773333 42.666667-42.666667V665.6c0-13.653333 11.946667-25.6 25.6-25.6s25.6 11.946667 25.6 25.6v230.4c0 51.2-42.666667 93.866667-93.866667 93.866667z"  /></svg>