<?xml version="1.0" standalone="no"?><!DOCTYPE svg PUBLIC "-//W3C//DTD SVG 1.1//EN" "http://www.w3.org/Graphics/SVG/1.1/DTD/svg11.dtd"><svg class="icon" width="64px" height="64.00px" viewBox="0 0 1024 1024" version="1.1" xmlns="http://www.w3.org/2000/svg"><path  d="M771.413333 967.68c-8.533333 0-18.773333-1.706667-27.306666-6.826667l-228.693334-121.173333c-1.706667-1.706667-3.413333-1.706667-6.826666 0l-228.693334 121.173333c-20.48 10.24-42.666667 8.533333-61.44-3.413333-18.773333-13.653333-27.306667-34.133333-22.186666-56.32L240.64 648.533333c0-1.706667 0-3.413333-1.706667-5.12L51.2 459.093333c-15.36-15.36-22.186667-37.546667-13.653333-59.733333 6.826667-20.48 23.893333-35.84 46.08-39.253333L341.333333 322.56c1.706667 0 3.413333-1.706667 5.12-3.413333L460.8 88.746667c10.24-20.48 29.013333-32.426667 51.2-32.426667s42.666667 11.946667 51.2 32.426667l114.346667 232.106666c1.706667 1.706667 3.413333 3.413333 5.12 3.413334l257.706666 37.546666c22.186667 3.413333 39.253333 18.773333 46.08 39.253334 6.826667 20.48 1.706667 44.373333-13.653333 59.733333L785.066667 641.706667c-1.706667 1.706667-1.706667 3.413333-1.706667 5.12l44.373333 252.586666c3.413333 22.186667-5.12 44.373333-22.186666 56.32-10.24 8.533333-22.186667 11.946667-34.133334 11.946667zM512 786.773333c8.533333 0 18.773333 1.706667 27.306667 6.826667L768 916.48c3.413333 1.706667 5.12 0 6.826667 0 1.706667-1.706667 3.413333-3.413333 3.413333-6.826667L733.866667 657.066667c-3.413333-18.773333 3.413333-37.546667 17.066666-51.2l187.733334-182.613334c1.706667-1.706667 1.706667-5.12 1.706666-6.826666 0-1.706667-1.706667-3.413333-5.12-5.12l-256-37.546667c-18.773333-3.413333-34.133333-13.653333-42.666666-30.72l-119.466667-232.106667c-1.706667-3.413333-3.413333-3.413333-5.12-3.413333-1.706667 0-5.12 0-5.12 3.413333L392.533333 341.333333c-8.533333 17.066667-23.893333 29.013333-42.666666 32.426667L90.453333 411.306667c-3.413333 0-5.12 3.413333-5.12 5.12 0 1.706667 0 5.12 1.706667 6.826666l187.733333 182.613334c13.653333 13.653333 20.48 32.426667 17.066667 51.2l-44.373333 252.586666c0 3.413333 1.706667 5.12 3.413333 6.826667 1.706667 1.706667 3.413333 1.706667 6.826667 0l228.693333-121.173333c6.826667-5.12 15.36-8.533333 25.6-8.533334z"  /></svg>