<?xml version="1.0" standalone="no"?><!DOCTYPE svg PUBLIC "-//W3C//DTD SVG 1.1//EN" "http://www.w3.org/Graphics/SVG/1.1/DTD/svg11.dtd"><svg class="icon" width="64px" height="64.00px" viewBox="0 0 1024 1024" version="1.1" xmlns="http://www.w3.org/2000/svg"><path  d="M486.4 989.866667H151.893333c-51.2 0-92.16-40.96-92.16-92.16V126.293333c0-51.2 40.96-92.16 92.16-92.16h670.72c51.2 0 92.16 40.96 92.16 92.16v271.36c0 13.653333-11.946667 25.6-25.6 25.6s-25.6-11.946667-25.6-25.6V126.293333c0-22.186667-18.773333-40.96-40.96-40.96H151.893333C129.706667 85.333333 110.933333 104.106667 110.933333 126.293333v769.706667c0 22.186667 18.773333 40.96 40.96 40.96h334.506667c13.653333 0 25.6 11.946667 25.6 25.6s-10.24 27.306667-25.6 27.306667z"  /><path  d="M737.28 964.266667c-5.12 0-10.24-1.706667-13.653333-3.413334-37.546667-23.893333-69.973333-49.493333-95.573334-73.386666l-6.826666-6.826667c-40.96-39.253333-110.933333-105.813333-110.933334-187.733333 0-71.68 61.44-131.413333 134.826667-131.413334 34.133333 0 66.56 11.946667 92.16 34.133334 23.893333-22.186667 56.32-34.133333 92.16-34.133334 75.093333 0 134.826667 58.026667 134.826667 131.413334 0 81.92-69.973333 148.48-110.933334 187.733333l-6.826666 6.826667c-25.6 23.893333-58.026667 49.493333-95.573334 73.386666-3.413333 1.706667-8.533333 3.413333-13.653333 3.413334z m-90.453333-351.573334c-46.08 0-83.626667 35.84-83.626667 80.213334 0 59.733333 59.733333 116.053333 93.866667 150.186666l6.826666 6.826667c20.48 18.773333 44.373333 39.253333 73.386667 58.026667 29.013333-18.773333 52.906667-39.253333 73.386667-58.026667l6.826666-6.826667c35.84-34.133333 93.866667-90.453333 93.866667-150.186666 0-44.373333-37.546667-80.213333-83.626667-80.213334-29.013333 0-54.613333 13.653333-69.973333 35.84-5.12 6.826667-11.946667 10.24-20.48 10.24s-17.066667-3.413333-20.48-10.24c-15.36-22.186667-40.96-35.84-69.973333-35.84zM687.786667 286.72H285.013333c-13.653333 0-25.6-11.946667-25.6-25.6s11.946667-25.6 25.6-25.6h402.773334c13.653333 0 25.6 11.946667 25.6 25.6s-11.946667 25.6-25.6 25.6z"  /></svg>