<?xml version="1.0" standalone="no"?><!DOCTYPE svg PUBLIC "-//W3C//DTD SVG 1.1//EN" "http://www.w3.org/Graphics/SVG/1.1/DTD/svg11.dtd"><svg class="icon" width="64px" height="64.00px" viewBox="0 0 1024 1024" version="1.1" xmlns="http://www.w3.org/2000/svg"><path  d="M783.36 942.08H240.64c-51.2 0-93.866667-42.666667-93.866667-93.866667V426.666667l-71.68 58.026666c-10.24 8.533333-27.306667 6.826667-35.84-3.413333-8.533333-10.24-6.826667-27.306667 3.413334-35.84L496.64 81.92c8.533333-6.826667 22.186667-6.826667 32.426667 0L979.626667 443.733333c10.24 8.533333 13.653333 25.6 3.413333 35.84-8.533333 10.24-25.6 13.653333-35.84 3.413334L875.52 426.666667v421.546666c1.706667 51.2-40.96 93.866667-92.16 93.866667zM197.973333 385.706667v462.506666c0 23.893333 18.773333 42.666667 42.666667 42.666667h542.72c23.893333 0 42.666667-18.773333 42.666667-42.666667V385.706667L512 134.826667 197.973333 385.706667z"  /><path  d="M624.64 942.08H399.36c-13.653333 0-25.6-11.946667-25.6-25.6V689.493333c0-51.2 42.666667-93.866667 93.866667-93.866666h90.453333c51.2 0 93.866667 42.666667 93.866667 93.866666v226.986667c-1.706667 13.653333-11.946667 25.6-27.306667 25.6z m-199.68-51.2h174.08V689.493333c0-23.893333-18.773333-42.666667-42.666667-42.666666h-90.453333c-23.893333 0-42.666667 18.773333-42.666667 42.666666v201.386667z"  /></svg>