<?xml version="1.0" standalone="no"?><!DOCTYPE svg PUBLIC "-//W3C//DTD SVG 1.1//EN" "http://www.w3.org/Graphics/SVG/1.1/DTD/svg11.dtd"><svg class="icon" width="64px" height="64.00px" viewBox="0 0 1024 1024" version="1.1" xmlns="http://www.w3.org/2000/svg"><path  d="M914.773333 336.213333c-10.24 0-18.773333-5.12-22.186666-13.653333C819.2 175.786667 674.133333 85.333333 510.293333 85.333333 349.866667 85.333333 204.8 175.786667 131.413333 322.56c-6.826667 11.946667-22.186667 17.066667-34.133333 11.946667-11.946667-6.826667-17.066667-22.186667-11.946667-34.133334C167.253333 136.533333 329.386667 34.133333 510.293333 34.133333 692.906667 34.133333 856.746667 136.533333 938.666667 300.373333c6.826667 11.946667 1.706667 27.306667-11.946667 34.133334-3.413333 1.706667-6.826667 1.706667-11.946667 1.706666z"  /><path  d="M109.226667 336.213333c-13.653333 0-25.6-11.946667-25.6-25.6V109.226667c0-13.653333 11.946667-25.6 25.6-25.6s25.6 11.946667 25.6 25.6v201.386666c0 13.653333-11.946667 25.6-25.6 25.6z"  /><path  d="M278.186667 336.213333h-170.666667c-13.653333 0-25.6-11.946667-25.6-25.6s11.946667-25.6 25.6-25.6h170.666667c13.653333 0 25.6 11.946667 25.6 25.6s-10.24 25.6-25.6 25.6zM513.706667 989.866667C331.093333 989.866667 167.253333 887.466667 85.333333 723.626667c-6.826667-11.946667-1.706667-27.306667 11.946667-34.133334 11.946667-6.826667 27.306667-1.706667 34.133333 11.946667C204.8 848.213333 349.866667 938.666667 513.706667 938.666667c160.426667 0 305.493333-90.453333 378.88-237.226667 6.826667-11.946667 22.186667-17.066667 34.133333-11.946667 11.946667 6.826667 17.066667 22.186667 11.946667 34.133334C856.746667 887.466667 694.613333 989.866667 513.706667 989.866667z"  /><path  d="M914.773333 940.373333c-13.653333 0-25.6-11.946667-25.6-25.6V713.386667c0-13.653333 11.946667-25.6 25.6-25.6s25.6 11.946667 25.6 25.6v201.386666c0 13.653333-10.24 25.6-25.6 25.6z"  /><path  d="M914.773333 738.986667h-170.666666c-13.653333 0-25.6-11.946667-25.6-25.6s11.946667-25.6 25.6-25.6h170.666666c13.653333 0 25.6 11.946667 25.6 25.6s-10.24 25.6-25.6 25.6z"  /></svg>