<?xml version="1.0" standalone="no"?><!DOCTYPE svg PUBLIC "-//W3C//DTD SVG 1.1//EN" "http://www.w3.org/Graphics/SVG/1.1/DTD/svg11.dtd"><svg class="icon" width="64px" height="64.00px" viewBox="0 0 1024 1024" version="1.1" xmlns="http://www.w3.org/2000/svg"><path  d="M512 337.237333a25.6 25.6 0 0 1-25.6-25.6v-133.461333a25.6 25.6 0 1 1 51.2 0v133.461333a25.6 25.6 0 0 1-25.6 25.6zM653.653333 395.946667a24.746667 24.746667 0 0 1-18.090666-7.509334 25.429333 25.429333 0 0 1 0-36.181333l94.378666-94.378667a25.6 25.6 0 0 1 36.181334 36.181334l-94.378667 94.378666a25.088 25.088 0 0 1-18.090667 7.509334zM845.824 537.6h-133.461333a25.6 25.6 0 0 1 0-51.2h133.461333a25.6 25.6 0 0 1 0 51.2zM748.032 773.632a25.770667 25.770667 0 0 1-18.090667-7.509333l-94.378666-94.378667a25.6 25.6 0 1 1 36.181333-36.181333l94.378667 94.378666a25.429333 25.429333 0 0 1 0 36.181334 25.770667 25.770667 0 0 1-18.090667 7.509333zM512 871.424a25.6 25.6 0 0 1-25.6-25.6v-133.461333a25.6 25.6 0 0 1 51.2 0v133.461333a25.6 25.6 0 0 1-25.6 25.6zM275.968 773.632a25.770667 25.770667 0 0 1-18.090667-7.509333 25.429333 25.429333 0 0 1 0-36.181334l94.378667-94.378666a25.6 25.6 0 1 1 36.181333 36.181333l-94.378666 94.378667a25.770667 25.770667 0 0 1-18.090667 7.509333zM311.637333 537.6h-133.461333a25.6 25.6 0 1 1 0-51.2h133.461333a25.6 25.6 0 1 1 0 51.2zM370.346667 395.946667a25.088 25.088 0 0 1-18.090667-7.509334l-94.378667-94.378666a25.6 25.6 0 0 1 36.181334-36.181334l94.378666 94.378667a25.429333 25.429333 0 0 1 0 36.181333 24.746667 24.746667 0 0 1-18.090666 7.509334zM409.6 290.133333a25.258667 25.258667 0 0 1-23.552-15.701333l-25.6-61.781333a25.6 25.6 0 1 1 47.274667-19.456L433.493333 256a25.6 25.6 0 0 1-13.824 34.133333 24.917333 24.917333 0 0 1-10.069333 0zM265.216 435.370667a24.576 24.576 0 0 1-9.216-1.877334l-61.610667-25.6a25.6 25.6 0 1 1 19.456-47.274666l61.781334 25.6a25.6 25.6 0 0 1-9.898667 49.152zM203.605333 665.6a25.6 25.6 0 0 1-9.728-49.322667L256 590.506667a25.6 25.6 0 1 1 19.626667 47.274666l-61.781334 25.6a24.234667 24.234667 0 0 1-10.24 2.218667zM384.170667 845.994667a28.16 28.16 0 0 1-9.728-1.877334 25.6 25.6 0 0 1-13.824-34.133333l25.6-61.781333A25.6 25.6 0 0 1 433.493333 768l-25.6 61.610667a25.6 25.6 0 0 1-23.722666 16.384zM639.829333 845.994667a25.6 25.6 0 0 1-23.722666-15.872L590.506667 768a25.6 25.6 0 0 1 47.274666-19.626667l25.6 61.781334a25.6 25.6 0 0 1-13.824 34.133333 28.16 28.16 0 0 1-9.728 1.706667zM820.394667 665.6a24.234667 24.234667 0 0 1-9.728-2.048l-61.781334-25.6A25.6 25.6 0 0 1 768 590.506667l61.610667 25.6a25.6 25.6 0 0 1-9.216 49.493333zM758.784 435.370667a25.6 25.6 0 0 1-9.898667-49.152l61.781334-25.6a25.6 25.6 0 1 1 19.456 47.274666L768 433.493333a24.576 24.576 0 0 1-9.216 1.877334zM614.4 290.133333a24.917333 24.917333 0 0 1-9.898667-1.877333 25.6 25.6 0 0 1-13.824-34.133333l25.6-61.610667a25.6 25.6 0 1 1 47.274667 19.456l-25.6 61.781333A25.258667 25.258667 0 0 1 614.4 290.133333z"  /></svg>