<?xml version="1.0" standalone="no"?><!DOCTYPE svg PUBLIC "-//W3C//DTD SVG 1.1//EN" "http://www.w3.org/Graphics/SVG/1.1/DTD/svg11.dtd"><svg class="icon" width="64px" height="64.00px" viewBox="0 0 1024 1024" version="1.1" xmlns="http://www.w3.org/2000/svg"><path  d="M459.264 356.010667L354.645333 460.8a75.093333 75.093333 0 0 0 0 105.984l104.618667 104.618667a75.264 75.264 0 0 0 105.984 0l104.618667-104.618667a74.752 74.752 0 0 0 0-105.984l-104.618667-104.789333a75.093333 75.093333 0 0 0-105.984 0z m174.421333 174.592L529.066667 635.221333a23.893333 23.893333 0 0 1-34.133334 0l-104.106666-104.618666a23.893333 23.893333 0 0 1 0-34.133334L494.933333 392.533333a23.210667 23.210667 0 0 1 17.066667-6.997333 23.552 23.552 0 0 1 17.066667 6.826667l104.618666 104.789333a23.552 23.552 0 0 1 0 33.450667z"  /><path  d="M90.624 318.976v4.608l1.024 2.389333a12.8 12.8 0 0 1 1.194667 2.048l1.365333 2.048 1.706667 2.048 1.706666 1.536a21.674667 21.674667 0 0 0 2.048 1.706667l2.048 1.365333 1.536 0.853334 2.389334 0.853333h175.616a25.6 25.6 0 0 0 0-51.2H159.744A411.989333 411.989333 0 0 1 510.293333 93.525333a416.256 416.256 0 0 1 375.466667 232.448 25.941333 25.941333 0 0 0 23.04 14.336 24.405333 24.405333 0 0 0 11.264-2.730666 25.429333 25.429333 0 0 0 11.605333-34.133334A467.456 467.456 0 0 0 510.293333 42.325333 462.506667 462.506667 0 0 0 141.312 225.450667V117.248a25.6 25.6 0 1 0-51.2 0v198.826667c0 1.365333 0.341333 1.877333 0.512 2.901333zM933.717333 707.925333V702.805333v-2.389333l-1.024-2.389333a12.8 12.8 0 0 1-1.194666-2.048 14.165333 14.165333 0 0 1-1.365334-2.048 8.874667 8.874667 0 0 0-1.706666-1.877334l-1.706667-1.706666a14.848 14.848 0 0 0-1.877333-1.536l-3.242667-1.536-1.365333-0.853334a8.874667 8.874667 0 0 0-2.56-1.024H740.864a25.6 25.6 0 0 0 0 51.2h123.392A411.989333 411.989333 0 0 1 513.706667 930.474667a416.256 416.256 0 0 1-375.466667-232.448 25.6 25.6 0 1 0-45.909333 22.698666A467.456 467.456 0 0 0 513.706667 981.674667a462.506667 462.506667 0 0 0 368.981333-183.125334v108.202667a25.6 25.6 0 0 0 51.2 0V709.290667s-0.170667-0.853333-0.170667-1.365334z"  /></svg>