<?xml version="1.0" standalone="no"?><!DOCTYPE svg PUBLIC "-//W3C//DTD SVG 1.1//EN" "http://www.w3.org/Graphics/SVG/1.1/DTD/svg11.dtd"><svg class="icon" width="64px" height="64.00px" viewBox="0 0 1024 1024" version="1.1" xmlns="http://www.w3.org/2000/svg"><path  d="M807.253333 989.866667H216.746667c-51.2 0-92.16-40.96-92.16-92.16V126.293333c0-51.2 40.96-92.16 92.16-92.16h452.266666c6.826667 0 15.36 3.413333 18.773334 8.533334l203.093333 237.226666c3.413333 5.12 6.826667 10.24 6.826667 17.066667v600.746667c1.706667 51.2-39.253333 92.16-90.453334 92.16zM216.746667 85.333333c-22.186667 0-40.96 18.773333-40.96 40.96v771.413334c0 22.186667 18.773333 40.96 40.96 40.96h588.8c22.186667 0 40.96-18.773333 40.96-40.96V307.2l-187.733334-221.866667H216.746667z"  /><path  d="M443.733333 853.333333h-136.533333c-13.653333 0-25.6-11.946667-25.6-25.6v-158.72c0-13.653333 11.946667-25.6 25.6-25.6h136.533333c13.653333 0 25.6 11.946667 25.6 25.6v158.72c0 13.653333-10.24 25.6-25.6 25.6z m-109.226666-51.2h85.333333v-107.52h-85.333333V802.133333z"  /><path  d="M737.28 853.333333H285.013333c-13.653333 0-25.6-11.946667-25.6-25.6s11.946667-25.6 25.6-25.6h452.266667c13.653333 0 25.6 11.946667 25.6 25.6s-10.24 25.6-25.6 25.6z"  /><path  d="M580.266667 853.333333h-136.533334c-13.653333 0-25.6-11.946667-25.6-25.6V556.373333c0-13.653333 11.946667-25.6 25.6-25.6h136.533334c13.653333 0 25.6 11.946667 25.6 25.6v271.36c0 13.653333-11.946667 25.6-25.6 25.6z m-110.933334-51.2h85.333334V581.973333h-85.333334V802.133333z"  /><path  d="M715.093333 853.333333h-136.533333c-13.653333 0-25.6-11.946667-25.6-25.6V443.733333c0-13.653333 11.946667-25.6 25.6-25.6h136.533333c13.653333 0 25.6 11.946667 25.6 25.6v384c0 13.653333-10.24 25.6-25.6 25.6z m-109.226666-51.2h85.333333V469.333333h-85.333333V802.133333z"  /><path  d="M431.786667 348.16h-143.36c-13.653333 0-25.6-11.946667-25.6-25.6s11.946667-25.6 25.6-25.6h143.36c13.653333 0 25.6 11.946667 25.6 25.6s-11.946667 25.6-25.6 25.6zM431.786667 419.84h-143.36c-13.653333 0-25.6-11.946667-25.6-25.6s11.946667-25.6 25.6-25.6h143.36c13.653333 0 25.6 11.946667 25.6 25.6s-11.946667 25.6-25.6 25.6z"  /><path  d="M360.106667 491.52c-13.653333 0-25.6-11.946667-25.6-25.6v-143.36c0-13.653333 11.946667-25.6 25.6-25.6s25.6 11.946667 25.6 25.6v143.36c0 13.653333-11.946667 25.6-25.6 25.6z"  /><path  d="M360.106667 348.16l-90.453334-90.453333c-10.24-10.24-10.24-25.6 0-35.84 10.24-10.24 25.6-10.24 35.84 0l52.906667 52.906666 52.906667-52.906666c10.24-10.24 25.6-10.24 35.84 0s10.24 25.6 0 35.84l-87.04 90.453333z"  /></svg>