<?xml version="1.0" standalone="no"?><!DOCTYPE svg PUBLIC "-//W3C//DTD SVG 1.1//EN" "http://www.w3.org/Graphics/SVG/1.1/DTD/svg11.dtd"><svg class="icon" width="64px" height="64.00px" viewBox="0 0 1024 1024" version="1.1" xmlns="http://www.w3.org/2000/svg"><path  d="M512 448.853333c-121.173333 0-237.226667-18.773333-324.266667-54.613333s-146.773333-90.453333-146.773333-148.48S93.866667 133.12 187.733333 95.573333a919.893333 919.893333 0 0 1 324.266667-54.613333 919.893333 919.893333 0 0 1 324.266667 54.613333c93.866667 37.546667 146.773333 90.453333 146.773333 150.186667s-52.906667 110.933333-146.773333 148.48-203.093333 54.613333-324.266667 54.613333z m0-356.693333a853.333333 853.333333 0 0 0-305.493333 51.2c-71.68 29.013333-114.346667 66.56-114.346667 102.4s42.666667 73.386667 114.346667 100.693333a853.333333 853.333333 0 0 0 305.493333 51.2 853.333333 853.333333 0 0 0 305.493333-51.2c71.68-27.306667 114.346667-66.56 114.346667-100.693333s-42.666667-73.386667-114.346667-102.4a853.333333 853.333333 0 0 0-305.493333-51.2z"  /><path  d="M363.52 675.84h-3.413333C167.253333 648.533333 40.96 571.733333 40.96 482.986667V245.76a25.6 25.6 0 0 1 25.6-25.6 23.893333 23.893333 0 0 1 25.6 25.6v237.226667c0 59.733333 116.053333 119.466667 274.773333 141.653333a27.306667 27.306667 0 0 1 22.186667 29.013333 27.306667 27.306667 0 0 1-25.6 22.186667z"  /><path  d="M421.546667 918.186667h-3.413334c-225.28-17.066667-377.173333-97.28-377.173333-197.973334V482.986667a25.6 25.6 0 0 1 25.6-25.6 23.893333 23.893333 0 0 1 25.6 25.6v237.226666c0 59.733333 124.586667 131.413333 331.093333 148.48a25.6 25.6 0 0 1 23.893334 27.306667 25.6 25.6 0 0 1-25.6 22.186667zM571.733333 863.573333a114.346667 114.346667 0 0 1-81.92-34.133333 114.346667 114.346667 0 0 1-32.426666-80.213333 121.173333 121.173333 0 0 1 32.426666-81.92 121.173333 121.173333 0 0 1 81.92-32.426667 110.933333 110.933333 0 0 1 80.213334 34.133333 110.933333 110.933333 0 0 1 0 160.426667 110.933333 110.933333 0 0 1-80.213334 34.133333z m0-177.493333a66.56 66.56 0 0 0-46.08 18.773333 66.56 66.56 0 0 0 0 88.746667 66.56 66.56 0 0 0 90.453334 0 63.146667 63.146667 0 0 0-44.373334-107.52zM866.986667 983.04a117.76 117.76 0 0 1-80.213334-34.133333 112.64 112.64 0 0 1 0-162.133334 110.933333 110.933333 0 0 1 80.213334-34.133333 116.053333 116.053333 0 1 1 0 230.4z m0-179.2a64.853333 64.853333 0 0 0-63.146667 63.146667 66.56 66.56 0 0 0 18.773333 46.08 64.853333 64.853333 0 0 0 44.373334 18.773333 64.853333 64.853333 0 0 0 64.853333-64.853333 64.853333 64.853333 0 0 0-18.773333-44.373334 66.56 66.56 0 0 0-46.08-18.773333zM866.986667 686.08a110.933333 110.933333 0 0 1-80.213334-34.133333 107.52 107.52 0 0 1-34.133333-80.213334 114.346667 114.346667 0 0 1 34.133333-81.92 116.053333 116.053333 0 0 1 80.213334-32.426666 121.173333 121.173333 0 0 1 81.92 32.426666 114.346667 114.346667 0 0 1 34.133333 81.92 107.52 107.52 0 0 1-34.133333 80.213334 114.346667 114.346667 0 0 1-81.92 34.133333z m0-177.493333a71.68 71.68 0 0 0-44.373334 17.066666 68.266667 68.266667 0 0 0-18.773333 46.08 61.44 61.44 0 0 0 18.773333 44.373334 64.853333 64.853333 0 0 0 44.373334 18.773333 66.56 66.56 0 0 0 46.08-18.773333 61.44 61.44 0 0 0 18.773333-44.373334 66.56 66.56 0 0 0-18.773333-46.08 64.853333 64.853333 0 0 0-46.08-17.066666z"  /><path  d="M646.826667 728.746667a25.6 25.6 0 0 1-22.186667-11.946667 25.6 25.6 0 0 1 10.24-35.84l143.36-85.333333a25.6 25.6 0 0 1 35.84 8.533333 25.6 25.6 0 0 1-8.533333 34.133333l-145.066667 87.04a18.773333 18.773333 0 0 1-13.653333 3.413334zM785.066667 860.16h-10.24l-131.413334-52.906667a25.6 25.6 0 0 1-13.653333-32.426666 27.306667 27.306667 0 0 1 34.133333-15.36l131.413334 52.906666a27.306667 27.306667 0 0 1 13.653333 34.133334 23.893333 23.893333 0 0 1-23.893333 13.653333z"  /></svg>