<?xml version="1.0" standalone="no"?><!DOCTYPE svg PUBLIC "-//W3C//DTD SVG 1.1//EN" "http://www.w3.org/Graphics/SVG/1.1/DTD/svg11.dtd"><svg class="icon" width="64px" height="64.00px" viewBox="0 0 1024 1024" version="1.1" xmlns="http://www.w3.org/2000/svg"><path  d="M512 983.04a25.6 25.6 0 0 1-25.6-25.6V660.48a25.6 25.6 0 0 1 51.2 0v296.96a25.6 25.6 0 0 1-25.6 25.6z"  /><path  d="M808.96 983.04H215.04a25.6 25.6 0 0 1-25.6-25.6 25.6 25.6 0 0 1 25.6-25.6h593.92a25.6 25.6 0 0 1 25.6 25.6 25.6 25.6 0 0 1-25.6 25.6zM81.92 983.04a40.96 40.96 0 0 1 0-81.92zM81.92 983.04v-81.92a40.96 40.96 0 0 1 0 81.92zM942.08 983.04a40.96 40.96 0 0 1 0-81.92zM942.08 983.04v-81.92a40.96 40.96 0 0 1 0 81.92zM512 329.386667c-167.253333 0-291.84-61.44-291.84-143.36S344.746667 40.96 512 40.96s291.84 63.146667 291.84 145.066667-124.586667 143.36-291.84 143.36z m0-237.226667c-138.24 0-240.64 49.493333-240.64 93.866667s102.4 92.16 240.64 92.16 240.64-47.786667 240.64-92.16-102.4-93.866667-240.64-93.866667z"  /><path  d="M512 508.586667c-167.253333 0-291.84-63.146667-291.84-145.066667V186.026667a25.6 25.6 0 0 1 25.6-25.6 25.6 25.6 0 0 1 25.6 25.6v177.493333c0 44.373333 102.4 93.866667 240.64 93.866667s240.64-49.493333 240.64-93.866667V186.026667a25.6 25.6 0 0 1 25.6-25.6 25.6 25.6 0 0 1 25.6 25.6v177.493333c0 81.92-124.586667 145.066667-291.84 145.066667z"  /><path  d="M512 686.08c-167.253333 0-291.84-61.44-291.84-145.066667V363.52a25.6 25.6 0 0 1 25.6-25.6 25.6 25.6 0 0 1 25.6 25.6v177.493333c0 44.373333 102.4 93.866667 240.64 93.866667s240.64-49.493333 240.64-93.866667V363.52a25.6 25.6 0 0 1 25.6-25.6 25.6 25.6 0 0 1 25.6 25.6v177.493333c0 83.626667-124.586667 145.066667-291.84 145.066667z"  /></svg>