<?xml version="1.0" standalone="no"?><!DOCTYPE svg PUBLIC "-//W3C//DTD SVG 1.1//EN" "http://www.w3.org/Graphics/SVG/1.1/DTD/svg11.dtd"><svg class="icon" width="64px" height="64.00px" viewBox="0 0 1024 1024" version="1.1" xmlns="http://www.w3.org/2000/svg"><path  d="M853.333333 742.4h-25.6V665.6a25.6 25.6 0 0 0-7.509333-18.090667l-68.266667-68.266666a25.6 25.6 0 0 0-36.181333 36.181333l60.757333 60.757333v66.218667H750.933333a25.6 25.6 0 0 0-25.6 25.6v102.4a25.6 25.6 0 0 0 25.6 25.6h102.4a25.6 25.6 0 0 0 25.6-25.6v-102.4a25.6 25.6 0 0 0-25.6-25.6z m-25.6 102.4h-51.2v-51.2h51.2zM460.8 247.466667h25.6V273.066667a25.6 25.6 0 0 0 51.2 0v-25.6H563.2a25.6 25.6 0 0 0 25.6-25.6V119.466667A25.6 25.6 0 0 0 563.2 93.866667h-102.4A25.6 25.6 0 0 0 435.2 119.466667v102.4a25.6 25.6 0 0 0 25.6 25.6z m25.6-102.4h51.2v51.2h-51.2zM733.866667 418.133333a25.770667 25.770667 0 0 0 18.090666-7.509333l68.266667-68.266667A25.6 25.6 0 0 0 827.733333 324.266667v-81.578667a76.8 76.8 0 1 0-51.2 0v70.997333l-60.757333 60.757334a25.429333 25.429333 0 0 0 0 36.181333 25.770667 25.770667 0 0 0 18.090667 7.509333z m68.266666-273.066666a25.6 25.6 0 1 1-25.6 25.6A25.6 25.6 0 0 1 802.133333 145.066667zM247.466667 313.685333v-70.997333a76.8 76.8 0 1 0-51.2 0V324.266667a25.6 25.6 0 0 0 7.509333 18.090666l68.266667 68.266667a25.6 25.6 0 0 0 36.181333 0 25.429333 25.429333 0 0 0 0-36.181333zM221.866667 145.066667a25.6 25.6 0 1 1-25.6 25.6A25.6 25.6 0 0 1 221.866667 145.066667zM537.6 747.178667V716.8a25.6 25.6 0 0 0-51.2 0v30.378667a76.8 76.8 0 1 0 51.2 0zM512 844.8a25.6 25.6 0 1 1 25.6-25.6 25.6 25.6 0 0 1-25.6 25.6zM272.042667 579.242667l-68.266667 68.266666A25.6 25.6 0 0 0 196.266667 665.6v76.8H170.666667A25.6 25.6 0 0 0 145.066667 768v102.4a25.6 25.6 0 0 0 25.6 25.6h102.4a25.6 25.6 0 0 0 25.6-25.6v-102.4a25.6 25.6 0 0 0-25.6-25.6h-25.6v-66.218667l60.757333-60.757333a25.6 25.6 0 1 0-36.181333-36.181333zM247.466667 844.8h-51.2v-51.2h51.2zM648.533333 469.333333h-28.672a111.616 111.616 0 0 0-13.482666-32.597333l20.309333-20.309333a25.6 25.6 0 0 0-36.181333-36.181334l-20.309334 20.309334a111.616 111.616 0 0 0-32.597333-13.482667V358.4a25.6 25.6 0 0 0-51.2 0v28.672a111.616 111.616 0 0 0-32.597333 13.482667l-20.309334-20.309334a25.6 25.6 0 0 0-36.181333 36.181334l20.309333 20.309333a111.616 111.616 0 0 0-13.482666 32.597333H375.466667a25.6 25.6 0 0 0 0 51.2h28.672a111.616 111.616 0 0 0 13.482666 32.597334l-20.309333 20.309333a25.770667 25.770667 0 0 0 0 36.181333 26.112 26.112 0 0 0 18.090667 7.509334 25.429333 25.429333 0 0 0 18.090666-7.509334l20.309334-20.309333a111.616 111.616 0 0 0 32.597333 13.482667V631.466667a25.6 25.6 0 0 0 51.2 0v-28.672a111.616 111.616 0 0 0 32.597333-13.482667l20.309334 20.309333a25.429333 25.429333 0 0 0 18.090666 7.509334 26.112 26.112 0 0 0 18.090667-7.509334 25.770667 25.770667 0 0 0 0-36.181333l-20.309333-20.309333a111.616 111.616 0 0 0 13.482666-32.597334H648.533333a25.6 25.6 0 0 0 0-51.2z m-136.533333 85.333334a59.733333 59.733333 0 1 1 59.733333-59.733334 59.733333 59.733333 0 0 1-59.733333 59.733334z"  /></svg>