<?xml version="1.0" standalone="no"?><!DOCTYPE svg PUBLIC "-//W3C//DTD SVG 1.1//EN" "http://www.w3.org/Graphics/SVG/1.1/DTD/svg11.dtd"><svg class="icon" width="64px" height="64.00px" viewBox="0 0 1024 1024" version="1.1" xmlns="http://www.w3.org/2000/svg"><path  d="M896 797.013333h-768c-51.2 0-93.866667-42.666667-93.866667-93.866666V162.133333C34.133333 109.226667 76.8 68.266667 128 68.266667h768c51.2 0 93.866667 42.666667 93.866667 93.866666v542.72c0 51.2-42.666667 92.16-93.866667 92.16zM128 119.466667C104.106667 119.466667 85.333333 138.24 85.333333 162.133333v542.72c0 23.893333 18.773333 42.666667 42.666667 42.666667h768c23.893333 0 42.666667-18.773333 42.666667-42.666667V162.133333C938.666667 138.24 919.893333 119.466667 896 119.466667h-768z"  /><path  d="M512 955.733333c-13.653333 0-25.6-11.946667-25.6-25.6v-158.72c0-13.653333 11.946667-25.6 25.6-25.6s25.6 11.946667 25.6 25.6v158.72c0 13.653333-11.946667 25.6-25.6 25.6z"  /><path  d="M827.733333 955.733333h-631.466666c-13.653333 0-25.6-11.946667-25.6-25.6s11.946667-25.6 25.6-25.6h633.173333c13.653333 0 25.6 11.946667 25.6 25.6s-11.946667 25.6-27.306667 25.6zM245.76 653.653333c-42.666667 0-76.8-34.133333-76.8-76.8s34.133333-76.8 76.8-76.8 76.8 34.133333 76.8 76.8-34.133333 76.8-76.8 76.8z m0-102.4c-13.653333 0-25.6 11.946667-25.6 25.6s11.946667 25.6 25.6 25.6 25.6-11.946667 25.6-25.6-10.24-25.6-25.6-25.6zM544.426667 679.253333c-47.786667 0-85.333333-37.546667-85.333334-85.333333s37.546667-85.333333 85.333334-85.333333 85.333333 37.546667 85.333333 85.333333-37.546667 85.333333-85.333333 85.333333z m0-119.466666c-18.773333 0-34.133333 15.36-34.133334 34.133333s15.36 34.133333 34.133334 34.133333 34.133333-15.36 34.133333-34.133333-15.36-34.133333-34.133333-34.133333zM389.12 455.68c-42.666667 0-76.8-34.133333-76.8-76.8s34.133333-76.8 76.8-76.8 76.8 34.133333 76.8 76.8-35.84 76.8-76.8 76.8z m0-102.4c-13.653333 0-25.6 11.946667-25.6 25.6s11.946667 25.6 25.6 25.6 25.6-11.946667 25.6-25.6-11.946667-25.6-25.6-25.6zM761.173333 361.813333c-51.2 0-93.866667-42.666667-93.866666-93.866666s42.666667-93.866667 93.866666-93.866667 93.866667 42.666667 93.866667 93.866667-42.666667 93.866667-93.866667 93.866666z m0-136.533333c-23.893333 0-42.666667 18.773333-42.666666 42.666667s18.773333 42.666667 42.666666 42.666666 42.666667-18.773333 42.666667-42.666666-20.48-42.666667-42.666667-42.666667z"  /><path  d="M587.093333 549.546667c-5.12 0-10.24-1.706667-15.36-5.12-11.946667-8.533333-13.653333-23.893333-5.12-35.84l138.24-192.853334c8.533333-11.946667 23.893333-13.653333 35.84-5.12 11.946667 8.533333 13.653333 23.893333 5.12 35.84l-138.24 192.853334c-3.413333 6.826667-11.946667 10.24-20.48 10.24zM496.64 556.373333c-8.533333 0-15.36-3.413333-20.48-11.946666L409.6 447.146667c-8.533333-11.946667-5.12-27.306667 6.826667-35.84s27.306667-5.12 35.84 6.826666l66.56 97.28c8.533333 11.946667 5.12 27.306667-6.826667 35.84-5.12 3.413333-10.24 5.12-15.36 5.12zM267.946667 554.666667c-5.12 0-11.946667-1.706667-15.36-5.12-10.24-8.533333-13.653333-25.6-3.413334-35.84l75.093334-93.866667c8.533333-10.24 25.6-13.653333 35.84-3.413333 10.24 8.533333 13.653333 25.6 3.413333 35.84L288.426667 546.133333c-6.826667 5.12-13.653333 8.533333-20.48 8.533334z"  /></svg>