<?xml version="1.0" standalone="no"?><!DOCTYPE svg PUBLIC "-//W3C//DTD SVG 1.1//EN" "http://www.w3.org/Graphics/SVG/1.1/DTD/svg11.dtd"><svg class="icon" width="64px" height="64.00px" viewBox="0 0 1024 1024" version="1.1" xmlns="http://www.w3.org/2000/svg"><path  d="M399.36 919.893333c-180.906667 0-361.813333-47.786667-361.813333-138.24V242.346667c0-13.653333 11.946667-25.6 25.6-25.6s25.6 11.946667 25.6 25.6v539.306666c0 34.133333 124.586667 87.04 310.613333 87.04 39.253333 0 78.506667-1.706667 116.053333-6.826666 13.653333-1.706667 27.306667 8.533333 29.013334 22.186666 1.706667 13.653333-8.533333 27.306667-22.186667 29.013334-39.253333 3.413333-80.213333 6.826667-122.88 6.826666zM737.28 471.04c-13.653333 0-25.6-11.946667-25.6-25.6V242.346667c0-13.653333 11.946667-25.6 25.6-25.6s25.6 11.946667 25.6 25.6V443.733333c0 15.36-11.946667 27.306667-25.6 27.306667z"  /><path  d="M399.36 380.586667c-180.906667 0-361.813333-47.786667-361.813333-138.24s182.613333-138.24 361.813333-138.24 361.813333 47.786667 361.813333 138.24-180.906667 138.24-361.813333 138.24z m0-225.28c-187.733333 0-310.613333 52.906667-310.613333 87.04s124.586667 87.04 310.613333 87.04c187.733333 0 310.613333-52.906667 310.613333-87.04s-122.88-87.04-310.613333-87.04zM399.36 738.986667c-180.906667 0-361.813333-47.786667-361.813333-138.24 0-13.653333 11.946667-25.6 25.6-25.6s25.6 11.946667 25.6 25.6c0 34.133333 124.586667 87.04 310.613333 87.04 39.253333 0 76.8-1.706667 112.64-6.826667 13.653333-1.706667 27.306667 8.533333 29.013333 22.186667 1.706667 13.653333-8.533333 27.306667-22.186666 29.013333-39.253333 5.12-78.506667 6.826667-119.466667 6.826667zM399.36 559.786667c-180.906667 0-361.813333-47.786667-361.813333-138.24 0-13.653333 11.946667-25.6 25.6-25.6s25.6 11.946667 25.6 25.6c0 34.133333 124.586667 87.04 310.613333 87.04 58.026667 0 114.346667-5.12 165.546667-15.36 13.653333-3.413333 27.306667 6.826667 30.72 20.48 3.413333 13.653333-6.826667 27.306667-20.48 30.72-52.906667 10.24-114.346667 15.36-175.786667 15.36z"  /><path  d="M728.746667 918.186667c-1.706667 0-5.12 0-6.826667-1.706667-34.133333-10.24-66.56-29.013333-92.16-56.32-8.533333-10.24-10.24-23.893333-1.706667-34.133333 3.413333-3.413333 6.826667-10.24 6.826667-18.773334 0-17.066667-17.066667-32.426667-34.133333-30.72-13.653333 1.706667-25.6-6.826667-27.306667-20.48-3.413333-13.653333-5.12-29.013333-5.12-42.666666 0-22.186667 3.413333-42.666667 10.24-63.146667 3.413333-11.946667 13.653333-18.773333 25.6-17.066667 15.36 0 29.013333-13.653333 29.013333-30.72 0-5.12-1.706667-8.533333-3.413333-13.653333-5.12-10.24-3.413333-22.186667 5.12-30.72 25.6-23.893333 54.613333-39.253333 87.04-49.493333 11.946667-3.413333 23.893333 1.706667 29.013333 13.653333 5.12 10.24 15.36 17.066667 27.306667 17.066667s22.186667-6.826667 27.306667-17.066667c5.12-10.24 17.066667-17.066667 29.013333-13.653333 32.426667 8.533333 63.146667 25.6 87.04 49.493333 8.533333 8.533333 10.24 20.48 5.12 30.72-1.706667 3.413333-3.413333 8.533333-3.413333 13.653333 0 17.066667 13.653333 30.72 30.72 30.72 11.946667 0 22.186667 6.826667 25.6 17.066667 6.826667 20.48 10.24 42.666667 10.24 63.146667 0 13.653333-1.706667 29.013333-5.12 42.666666-3.413333 11.946667-13.653333 22.186667-27.306667 20.48-17.066667-1.706667-34.133333 11.946667-34.133333 30.72 0 8.533333 3.413333 15.36 6.826666 18.773334 8.533333 10.24 8.533333 25.6-1.706666 34.133333-25.6 25.6-58.026667 46.08-92.16 56.32-13.653333 3.413333-27.306667-3.413333-32.426667-17.066667-3.413333-11.946667-15.36-20.48-29.013333-20.48s-25.6 8.533333-29.013334 20.48c3.413333 11.946667-6.826667 18.773333-17.066666 18.773334z m52.906666-90.453334c25.6 0 49.493333 11.946667 64.853334 32.426667 13.653333-5.12 25.6-13.653333 35.84-22.186667-3.413333-10.24-6.826667-20.48-6.826667-30.72 0-39.253333 27.306667-71.68 64.853333-80.213333v-13.653333c0-10.24-1.706667-22.186667-3.413333-32.426667-35.84-8.533333-61.44-40.96-61.44-78.506667 0-5.12 0-10.24 1.706667-17.066666-11.946667-8.533333-23.893333-15.36-37.546667-20.48-15.36 17.066667-35.84 25.6-59.733333 25.6s-44.373333-10.24-59.733334-25.6c-13.653333 5.12-25.6 11.946667-37.546666 20.48 1.706667 5.12 1.706667 10.24 1.706666 17.066666 0 37.546667-25.6 69.973333-61.44 78.506667-1.706667 10.24-3.413333 22.186667-3.413333 32.426667v13.653333c37.546667 8.533333 64.853333 40.96 64.853333 80.213333 0 10.24-1.706667 22.186667-6.826666 30.72 11.946667 8.533333 23.893333 17.066667 35.84 22.186667 17.066667-18.773333 40.96-32.426667 68.266666-32.426667z"  /><path  d="M781.653333 805.546667c-49.493333 0-90.453333-40.96-90.453333-90.453334s40.96-90.453333 90.453333-90.453333 90.453333 40.96 90.453334 90.453333-40.96 90.453333-90.453334 90.453334z m0-131.413334c-22.186667 0-39.253333 17.066667-39.253333 39.253334s17.066667 39.253333 39.253333 39.253333 39.253333-17.066667 39.253334-39.253333-17.066667-39.253333-39.253334-39.253334z"  /></svg>