<?xml version="1.0" standalone="no"?><!DOCTYPE svg PUBLIC "-//W3C//DTD SVG 1.1//EN" "http://www.w3.org/Graphics/SVG/1.1/DTD/svg11.dtd"><svg class="icon" width="64px" height="64.00px" viewBox="0 0 1024 1024" version="1.1" xmlns="http://www.w3.org/2000/svg"><path  d="M512 448.853333c-121.173333 0-237.226667-18.773333-324.266667-54.613333s-146.773333-90.453333-146.773333-148.48S93.866667 133.12 187.733333 95.573333a919.893333 919.893333 0 0 1 324.266667-54.613333 919.893333 919.893333 0 0 1 324.266667 54.613333c93.866667 37.546667 146.773333 90.453333 146.773333 150.186667s-52.906667 110.933333-146.773333 148.48-203.093333 54.613333-324.266667 54.613333z m0-356.693333a853.333333 853.333333 0 0 0-305.493333 51.2c-71.68 29.013333-114.346667 66.56-114.346667 102.4s42.666667 73.386667 114.346667 100.693333a853.333333 853.333333 0 0 0 305.493333 51.2 853.333333 853.333333 0 0 0 305.493333-51.2c71.68-27.306667 114.346667-66.56 114.346667-100.693333s-42.666667-73.386667-114.346667-102.4a853.333333 853.333333 0 0 0-305.493333-51.2z"  /><path  d="M512 715.093333C244.053333 715.093333 40.96 628.053333 40.96 512V245.76a25.6 25.6 0 0 1 25.6-25.6 23.893333 23.893333 0 0 1 25.6 25.6V512c0 71.68 172.373333 151.893333 419.84 151.893333s419.84-80.213333 419.84-151.893333V245.76a23.893333 23.893333 0 0 1 25.6-25.6 25.6 25.6 0 0 1 25.6 25.6V512c0 116.053333-203.093333 203.093333-471.04 203.093333z"  /><path  d="M512 983.04c-267.946667 0-471.04-88.746667-471.04-204.8V512a25.6 25.6 0 0 1 25.6-25.6A25.6 25.6 0 0 1 92.16 512v266.24c0 71.68 172.373333 153.6 419.84 153.6s419.84-81.92 419.84-153.6V512a25.6 25.6 0 0 1 25.6-25.6 25.6 25.6 0 0 1 25.6 25.6v266.24c0 116.053333-203.093333 204.8-471.04 204.8z"  /></svg>