<?xml version="1.0" standalone="no"?><!DOCTYPE svg PUBLIC "-//W3C//DTD SVG 1.1//EN" "http://www.w3.org/Graphics/SVG/1.1/DTD/svg11.dtd"><svg class="icon" width="64px" height="64.00px" viewBox="0 0 1024 1024" version="1.1" xmlns="http://www.w3.org/2000/svg"><path  d="M896 933.546667h-768c-51.2 0-93.866667-42.666667-93.866667-93.866667V373.76c0-51.2 42.666667-93.866667 93.866667-93.866667h768c51.2 0 93.866667 42.666667 93.866667 93.866667v465.92c0 51.2-42.666667 93.866667-93.866667 93.866667z m-768-602.453334c-23.893333 0-42.666667 18.773333-42.666667 42.666667v465.92c0 23.893333 18.773333 42.666667 42.666667 42.666667h768c23.893333 0 42.666667-18.773333 42.666667-42.666667V373.76c0-23.893333-18.773333-42.666667-42.666667-42.666667h-768zM793.6 237.226667h-563.2c-13.653333 0-25.6-11.946667-25.6-25.6s11.946667-25.6 25.6-25.6h563.2c13.653333 0 25.6 11.946667 25.6 25.6s-10.24 25.6-25.6 25.6zM679.253333 141.653333H344.746667c-13.653333 0-25.6-11.946667-25.6-25.6s11.946667-25.6 25.6-25.6h334.506666c13.653333 0 25.6 11.946667 25.6 25.6s-11.946667 25.6-25.6 25.6z"  /><path  d="M285.013333 657.066667l5.12-34.133334h-116.053333l13.653333-100.693333h170.666667l-5.12 49.493333h-58.026667l3.413334-20.48h-54.613334l-8.533333 42.666667h116.053333l-11.946666 78.506667c0 3.413333 0 5.12-1.706667 8.533333-1.706667 1.706667-3.413333 5.12-5.12 6.826667-1.706667 1.706667-5.12 3.413333-6.826667 3.413333-3.413333 1.706667-5.12 1.706667-8.533333 1.706667H165.546667l5.12-46.08 8.533333 11.946666h105.813333zM474.453333 520.533333l32.426667 107.52 61.44-107.52h61.44l-23.893333 170.666667h-52.906667l13.653333-90.453333-46.08 78.506666h-46.08l-23.893333-75.093333-11.946667 87.04h-52.906666l23.893333-158.72-11.946667-11.946667h76.8zM663.893333 689.493333c-1.706667-1.706667-5.12-1.706667-6.826666-3.413333-1.706667-1.706667-3.413333-3.413333-3.413334-6.826667v-8.533333l20.48-150.186667h182.613334l-3.413334 29.013334h-128l-13.653333 112.64h112.64l13.653333-11.946667-5.12 40.96h-162.133333c-1.706667 0-3.413333 0-6.826667-1.706667z"  /></svg>