<?xml version="1.0" standalone="no"?><!DOCTYPE svg PUBLIC "-//W3C//DTD SVG 1.1//EN" "http://www.w3.org/Graphics/SVG/1.1/DTD/svg11.dtd"><svg class="icon" width="64px" height="64.00px" viewBox="0 0 1024 1024" version="1.1" xmlns="http://www.w3.org/2000/svg"><path  d="M455.68 989.866667H228.693333c-63.146667 0-116.053333-52.906667-116.053333-116.053334V150.186667C112.64 87.04 165.546667 34.133333 228.693333 34.133333h430.08c6.826667 0 13.653333 3.413333 18.773334 8.533334l203.093333 226.986666c3.413333 5.12 6.826667 10.24 6.826667 17.066667v203.093333c0 13.653333-11.946667 25.6-25.6 25.6s-25.6-11.946667-25.6-25.6V295.253333L646.826667 85.333333H228.693333c-35.84 0-64.853333 29.013333-64.853333 64.853334v723.626666c0 35.84 29.013333 64.853333 64.853333 64.853334h226.986667c13.653333 0 25.6 11.946667 25.6 25.6s-11.946667 25.6-25.6 25.6z"  /><path  d="M658.773333 899.413333c-88.746667 0-160.426667-71.68-160.426666-160.426666s71.68-162.133333 160.426666-162.133334 162.133333 71.68 162.133334 162.133334c0 88.746667-73.386667 160.426667-162.133334 160.426666z m0-271.36c-61.44 0-109.226667 49.493333-109.226666 110.933334s49.493333 109.226667 109.226666 109.226666c61.44 0 110.933333-49.493333 110.933334-109.226666 0-61.44-49.493333-110.933333-110.933334-110.933334z"  /><path  d="M885.76 945.493333c-5.12 0-11.946667-1.706667-15.36-5.12l-112.64-90.453333c-10.24-8.533333-13.653333-25.6-3.413333-35.84 8.533333-10.24 25.6-13.653333 35.84-3.413333l112.64 90.453333c10.24 8.533333 13.653333 25.6 3.413333 35.84-6.826667 5.12-13.653333 8.533333-20.48 8.533333z"  /><path  d="M861.866667 312.32h-136.533334c-63.146667 0-116.053333-52.906667-116.053333-116.053333v-136.533334c0-13.653333 11.946667-25.6 25.6-25.6s25.6 11.946667 25.6 25.6v134.826667c0 35.84 29.013333 64.853333 64.853333 64.853333h136.533334c13.653333 0 25.6 11.946667 25.6 25.6s-10.24 27.306667-25.6 27.306667z"  /></svg>