<?xml version="1.0" standalone="no"?><!DOCTYPE svg PUBLIC "-//W3C//DTD SVG 1.1//EN" "http://www.w3.org/Graphics/SVG/1.1/DTD/svg11.dtd"><svg class="icon" width="64px" height="64.00px" viewBox="0 0 1024 1024" version="1.1" xmlns="http://www.w3.org/2000/svg"><path  d="M964.266667 175.786667h-904.533334c-13.653333 0-25.6-11.946667-25.6-25.6s11.946667-25.6 25.6-25.6h904.533334c13.653333 0 25.6 11.946667 25.6 25.6s-11.946667 25.6-25.6 25.6zM308.906667 537.6H59.733333c-13.653333 0-25.6-11.946667-25.6-25.6s11.946667-25.6 25.6-25.6h249.173334c13.653333 0 25.6 11.946667 25.6 25.6s-11.946667 25.6-25.6 25.6zM308.906667 899.413333H59.733333c-13.653333 0-25.6-11.946667-25.6-25.6s11.946667-25.6 25.6-25.6h249.173334c13.653333 0 25.6 11.946667 25.6 25.6s-11.946667 25.6-25.6 25.6zM680.96 785.066667c-119.466667 0-218.453333-97.28-218.453333-218.453334s97.28-218.453333 218.453333-218.453333 218.453333 97.28 218.453333 218.453333S802.133333 785.066667 680.96 785.066667z m0-384c-92.16 0-167.253333 75.093333-167.253333 167.253333s75.093333 167.253333 167.253333 167.253333 167.253333-75.093333 167.253333-167.253333-75.093333-167.253333-167.253333-167.253333z"  /><path  d="M964.266667 899.413333c-6.826667 0-13.653333-1.706667-18.773334-6.826666L786.773333 733.866667c-10.24-10.24-10.24-25.6 0-35.84 10.24-10.24 25.6-10.24 35.84 0l158.72 158.72c10.24 10.24 10.24 25.6 0 35.84-3.413333 5.12-10.24 6.826667-17.066666 6.826666z"  /></svg>