<?xml version="1.0" standalone="no"?><!DOCTYPE svg PUBLIC "-//W3C//DTD SVG 1.1//EN" "http://www.w3.org/Graphics/SVG/1.1/DTD/svg11.dtd"><svg class="icon" width="64px" height="64.00px" viewBox="0 0 1024 1024" version="1.1" xmlns="http://www.w3.org/2000/svg"><path  d="M530.773333 989.866667H170.666667c-47.786667 0-85.333333-40.96-85.333334-92.16V126.293333C85.333333 75.093333 122.88 34.133333 170.666667 34.133333h617.813333c47.786667 0 85.333333 40.96 85.333333 92.16v285.013334c0 13.653333-11.946667 25.6-25.6 25.6s-25.6-11.946667-25.6-25.6V126.293333c0-22.186667-15.36-40.96-34.133333-40.96H170.666667C151.893333 85.333333 136.533333 104.106667 136.533333 126.293333v769.706667c0 22.186667 15.36 40.96 34.133334 40.96h360.106666c13.653333 0 25.6 11.946667 25.6 25.6S546.133333 989.866667 530.773333 989.866667z"  /><path  d="M610.986667 310.613333H247.466667c-13.653333 0-25.6-11.946667-25.6-25.6s11.946667-25.6 25.6-25.6h363.52c13.653333 0 25.6 11.946667 25.6 25.6s-10.24 25.6-25.6 25.6zM462.506667 513.706667H247.466667c-13.653333 0-25.6-11.946667-25.6-25.6s11.946667-25.6 25.6-25.6H460.8c13.653333 0 25.6 11.946667 25.6 25.6s-10.24 25.6-23.893333 25.6z"  /><path  d="M686.08 899.413333c-88.746667 0-162.133333-71.68-162.133333-162.133333s71.68-162.133333 162.133333-162.133333 162.133333 71.68 162.133333 162.133333-73.386667 162.133333-162.133333 162.133333z m0-271.36c-61.44 0-110.933333 49.493333-110.933333 110.933334s49.493333 110.933333 110.933333 110.933333 110.933333-49.493333 110.933333-110.933333-49.493333-110.933333-110.933333-110.933334z"  /><path  d="M911.36 943.786667c-5.12 0-11.946667-1.706667-15.36-5.12l-112.64-90.453334c-10.24-8.533333-13.653333-25.6-3.413333-35.84s25.6-13.653333 35.84-3.413333l112.64 90.453333c10.24 8.533333 13.653333 25.6 3.413333 35.84-5.12 6.826667-11.946667 8.533333-20.48 8.533334z"  /></svg>