<?xml version="1.0" standalone="no"?><!DOCTYPE svg PUBLIC "-//W3C//DTD SVG 1.1//EN" "http://www.w3.org/Graphics/SVG/1.1/DTD/svg11.dtd"><svg class="icon" width="64px" height="64.00px" viewBox="0 0 1024 1024" version="1.1" xmlns="http://www.w3.org/2000/svg"><path  d="M658.773333 752.64H365.226667c-51.2 0-92.16-40.96-92.16-92.16V365.226667c0-51.2 40.96-92.16 92.16-92.16h295.253333c51.2 0 92.16 40.96 92.16 92.16v295.253333c0 49.493333-42.666667 92.16-93.866667 92.16zM365.226667 322.56c-22.186667 0-40.96 18.773333-40.96 40.96v295.253333c0 22.186667 18.773333 40.96 40.96 40.96h295.253333c22.186667 0 40.96-18.773333 40.96-40.96V365.226667c0-22.186667-18.773333-40.96-40.96-40.96H365.226667zM203.093333 989.866667c-13.653333 0-25.6-11.946667-25.6-25.6v-117.76H59.733333c-13.653333 0-25.6-10.24-25.6-25.6s11.946667-25.6 25.6-25.6h143.36c13.653333 0 25.6 11.946667 25.6 25.6v143.36c0 13.653333-11.946667 25.6-25.6 25.6zM820.906667 989.866667c-13.653333 0-25.6-11.946667-25.6-25.6v-143.36c0-13.653333 11.946667-25.6 25.6-25.6h143.36c13.653333 0 25.6 11.946667 25.6 25.6s-11.946667 25.6-25.6 25.6h-117.76v117.76c0 13.653333-10.24 25.6-25.6 25.6zM203.093333 228.693333H59.733333c-13.653333 0-25.6-11.946667-25.6-25.6s11.946667-25.6 25.6-25.6h117.76V59.733333c0-13.653333 10.24-25.6 25.6-25.6s25.6 11.946667 25.6 25.6v143.36c0 13.653333-11.946667 25.6-25.6 25.6zM964.266667 228.693333h-143.36c-13.653333 0-25.6-11.946667-25.6-25.6V59.733333c0-13.653333 11.946667-25.6 25.6-25.6s25.6 11.946667 25.6 25.6v117.76h117.76c13.653333 0 25.6 11.946667 25.6 25.6s-11.946667 25.6-25.6 25.6z"  /></svg>