<?xml version="1.0" standalone="no"?><!DOCTYPE svg PUBLIC "-//W3C//DTD SVG 1.1//EN" "http://www.w3.org/Graphics/SVG/1.1/DTD/svg11.dtd"><svg class="icon" width="64px" height="64.00px" viewBox="0 0 1024 1024" version="1.1" xmlns="http://www.w3.org/2000/svg"><path  d="M913.578667 894.634667H110.421333a70.485333 70.485333 0 0 1-70.314666-70.314667V199.509333a70.314667 70.314667 0 0 1 70.314666-70.144h803.157334a70.314667 70.314667 0 0 1 70.314666 70.144V824.32a70.485333 70.485333 0 0 1-70.314666 70.314667zM110.421333 180.565333a19.114667 19.114667 0 0 0-19.114666 18.944V824.32a19.114667 19.114667 0 0 0 19.114666 19.114667h803.157334a19.114667 19.114667 0 0 0 19.114666-19.114667V199.509333a19.114667 19.114667 0 0 0-19.114666-18.944z"  /><path  d="M358.4 559.957333a114.858667 114.858667 0 1 1 114.858667-114.858666A115.029333 115.029333 0 0 1 358.4 559.957333z m0-178.517333a63.658667 63.658667 0 1 0 63.658667 63.658667A63.658667 63.658667 0 0 0 358.4 381.44z"  /><path  d="M492.202667 693.76a25.6 25.6 0 0 1-25.6-25.6 108.202667 108.202667 0 0 0-216.405334 0 25.6 25.6 0 0 1-51.2 0 159.402667 159.402667 0 0 1 318.805334 0 25.6 25.6 0 0 1-25.6 25.6zM728.576 614.4a25.6 25.6 0 0 1-25.6-25.6v-151.893333a25.6 25.6 0 1 1 51.2 0v151.893333a25.770667 25.770667 0 0 1-25.6 25.6z"  /><path  d="M804.352 537.6h-151.722667a25.6 25.6 0 0 1 0-51.2h151.722667a25.6 25.6 0 0 1 0 51.2z"  /></svg>