<?xml version="1.0" standalone="no"?><!DOCTYPE svg PUBLIC "-//W3C//DTD SVG 1.1//EN" "http://www.w3.org/Graphics/SVG/1.1/DTD/svg11.dtd"><svg class="icon" width="64px" height="64.00px" viewBox="0 0 1024 1024" version="1.1" xmlns="http://www.w3.org/2000/svg"><path  d="M839.168 930.133333H184.832a90.965333 90.965333 0 0 1-90.965333-90.965333V184.832a90.965333 90.965333 0 0 1 90.965333-90.965333h654.336a90.965333 90.965333 0 0 1 90.965333 90.965333v654.336a90.965333 90.965333 0 0 1-90.965333 90.965333z m-654.336-785.066666a39.936 39.936 0 0 0-39.765333 39.765333v654.336a39.936 39.936 0 0 0 39.765333 39.765333h654.336a39.936 39.936 0 0 0 39.765333-39.765333V184.832a39.936 39.936 0 0 0-39.765333-39.765333z"  /><path  d="M512 459.093333h-130.901333a25.6 25.6 0 0 1-21.845334-12.458666l-117.76-196.266667a25.6 25.6 0 0 1 10.922667-36.181333 566.442667 566.442667 0 0 1 254.293333-54.954667c107.861333 0 194.901333 18.090667 265.728 55.296a25.6 25.6 0 0 1 12.629334 15.872 24.917333 24.917333 0 0 1-2.730667 19.968L665.6 446.634667a25.6 25.6 0 0 1-21.845333 12.458666H512z m34.133333-51.2h81.749334l95.744-159.744a506.197333 506.197333 0 0 0-186.026667-37.205333v26.282667a25.6 25.6 0 0 1-51.2 0v-26.794667a518.485333 518.485333 0 0 0-186.197333 38.4l95.402666 159.061333h97.450667l46.762667-151.893333a25.6 25.6 0 1 1 48.981333 15.189333zM381.269333 865.28a117.418667 117.418667 0 0 1-115.712-98.986667L238.933333 608.085333a117.248 117.248 0 0 1 231.594667-36.352l26.112 155.648v2.730667a117.077333 117.077333 0 0 1-97.621333 133.802667 133.461333 133.461333 0 0 1-17.749334 1.365333z m-26.453333-341.333333a68.266667 68.266667 0 0 0-10.24 0.853333A66.048 66.048 0 0 0 290.133333 600.234667v2.048l26.112 155.818666a66.218667 66.218667 0 0 0 75.434667 55.125334 65.706667 65.706667 0 0 0 54.954667-75.434667 10.24 10.24 0 0 0 0-2.048L420.010667 580.266667a66.048 66.048 0 0 0-65.194667-56.32z m287.232 341.333333a133.632 133.632 0 0 1-20.138667-1.706667 118.442667 118.442667 0 0 1-94.378666-136.533333l27.306666-155.648a117.077333 117.077333 0 0 1 135.168-95.232 119.466667 119.466667 0 0 1 93.866667 136.533333L756.906667 768a117.248 117.248 0 0 1-114.858667 97.109333z m27.989333-339.968a65.706667 65.706667 0 0 0-64.682666 54.613333l-27.477334 155.818667a67.072 67.072 0 0 0 53.589334 76.8 66.048 66.048 0 0 0 75.434666-53.76L733.866667 602.965333a67.242667 67.242667 0 0 0-52.906667-77.482666 60.757333 60.757333 0 0 0-10.922667-0.853334z"  /></svg>