<?xml version="1.0" standalone="no"?><!DOCTYPE svg PUBLIC "-//W3C//DTD SVG 1.1//EN" "http://www.w3.org/Graphics/SVG/1.1/DTD/svg11.dtd"><svg class="icon" width="64px" height="64.00px" viewBox="0 0 1024 1024" version="1.1" xmlns="http://www.w3.org/2000/svg"><path  d="M686.08 989.866667H165.546667c-51.2 0-92.16-40.96-92.16-92.16V126.293333c0-51.2 40.96-92.16 92.16-92.16h573.44c6.826667 0 11.946667 1.706667 17.066666 6.826667l187.733334 174.08c5.12 5.12 8.533333 11.946667 8.533333 18.773333v256c0 13.653333-11.946667 25.6-25.6 25.6s-25.6-11.946667-25.6-25.6V244.053333L728.746667 85.333333h-563.2C141.653333 85.333333 122.88 104.106667 122.88 126.293333v769.706667c0 22.186667 18.773333 40.96 40.96 40.96h520.533333c13.653333 0 25.6 11.946667 25.6 25.6S699.733333 989.866667 686.08 989.866667z"  /><path  d="M919.893333 259.413333h-121.173333c-51.2 0-92.16-40.96-92.16-92.16V59.733333c0-13.653333 11.946667-25.6 25.6-25.6s25.6 11.946667 25.6 25.6v105.813334c0 22.186667 18.773333 40.96 40.96 40.96h121.173333c13.653333 0 25.6 11.946667 25.6 25.6s-11.946667 27.306667-25.6 27.306666zM465.92 329.386667H208.213333c-13.653333 0-25.6-11.946667-25.6-25.6s11.946667-25.6 25.6-25.6h257.706667c13.653333 0 25.6 11.946667 25.6 25.6s-11.946667 25.6-25.6 25.6zM564.906667 537.6H208.213333c-13.653333 0-25.6-11.946667-25.6-25.6s11.946667-25.6 25.6-25.6h356.693334c13.653333 0 25.6 11.946667 25.6 25.6s-10.24 25.6-25.6 25.6zM802.133333 926.72c-13.653333 0-25.6-11.946667-25.6-25.6V602.453333c0-13.653333 11.946667-25.6 25.6-25.6s25.6 11.946667 25.6 25.6v298.666667c0 13.653333-10.24 25.6-25.6 25.6z"  /><path  d="M919.893333 733.866667c-6.826667 0-13.653333-1.706667-18.773333-6.826667L802.133333 626.346667l-98.986666 98.986666c-10.24 10.24-25.6 10.24-35.84 0s-10.24-25.6 0-35.84l117.76-117.76c10.24-10.24 25.6-10.24 35.84 0l117.76 117.76c10.24 10.24 10.24 25.6 0 35.84-5.12 5.12-11.946667 8.533333-18.773334 8.533334z"  /></svg>