<?xml version="1.0" standalone="no"?><!DOCTYPE svg PUBLIC "-//W3C//DTD SVG 1.1//EN" "http://www.w3.org/Graphics/SVG/1.1/DTD/svg11.dtd"><svg class="icon" width="64px" height="64.00px" viewBox="0 0 1024 1024" version="1.1" xmlns="http://www.w3.org/2000/svg"><path  d="M827.733333 989.866667H194.56c-51.2 0-92.16-40.96-92.16-92.16V126.293333C102.4 75.093333 143.36 34.133333 194.56 34.133333h634.88c51.2 0 92.16 40.96 92.16 92.16v298.666667c0 13.653333-11.946667 25.6-25.6 25.6s-25.6-10.24-25.6-25.6V126.293333C870.4 104.106667 851.626667 85.333333 827.733333 85.333333H194.56C170.666667 85.333333 151.893333 104.106667 151.893333 126.293333v769.706667c0 22.186667 18.773333 40.96 40.96 40.96h634.88c22.186667 0 40.96-18.773333 40.96-40.96v-69.973333c0-13.653333 11.946667-25.6 25.6-25.6s25.6 11.946667 25.6 25.6v69.973333c1.706667 52.906667-40.96 93.866667-92.16 93.866667z"  /><path  d="M744.106667 298.666667H278.186667c-13.653333 0-25.6-11.946667-25.6-25.6s11.946667-25.6 25.6-25.6h465.92c13.653333 0 25.6 11.946667 25.6 25.6s-11.946667 25.6-25.6 25.6zM552.96 474.453333H278.186667c-13.653333 0-25.6-11.946667-25.6-25.6s11.946667-25.6 25.6-25.6h274.773333c13.653333 0 25.6 11.946667 25.6 25.6s-11.946667 25.6-25.6 25.6zM679.253333 793.6c-6.826667 0-13.653333-3.413333-18.773333-6.826667l-88.746667-88.746666c-10.24-10.24-10.24-25.6 0-35.84s25.6-10.24 35.84 0l71.68 71.68 199.68-199.68c10.24-10.24 25.6-10.24 35.84 0s10.24 25.6 0 35.84L698.026667 786.773333c-5.12 5.12-11.946667 6.826667-18.773334 6.826667z"  /></svg>