<?xml version="1.0" standalone="no"?><!DOCTYPE svg PUBLIC "-//W3C//DTD SVG 1.1//EN" "http://www.w3.org/Graphics/SVG/1.1/DTD/svg11.dtd"><svg class="icon" width="64px" height="64.00px" viewBox="0 0 1024 1024" version="1.1" xmlns="http://www.w3.org/2000/svg"><path  d="M813.226667 989.866667h-602.453334a94.037333 94.037333 0 0 1-93.866666-93.866667v-768c0-51.712 42.154667-93.866667 93.866666-93.866667h602.453334c51.712 0 93.866667 42.154667 93.866666 93.866667v768c0 51.712-42.154667 93.866667-93.866666 93.866667zM210.773333 85.333333a42.666667 42.666667 0 0 0-42.666666 42.666667v768a42.666667 42.666667 0 0 0 42.666666 42.666667h602.453334a42.666667 42.666667 0 0 0 42.666666-42.666667v-768a42.666667 42.666667 0 0 0-42.666666-42.666667h-602.453334z"  /><path  d="M586.752 779.776h-149.504a94.037333 94.037333 0 0 1-93.866667-93.866667V405.162667c0-51.712 42.154667-93.866667 93.866667-93.866667h149.504c51.712 0 93.866667 42.154667 93.866667 93.866667v280.576c0 51.882667-42.154667 94.037333-93.866667 94.037333z m-149.504-417.28a42.666667 42.666667 0 0 0-42.666667 42.666667v280.576a42.666667 42.666667 0 0 0 42.666667 42.666666h149.504a42.666667 42.666667 0 0 0 42.666667-42.666666V405.162667a42.666667 42.666667 0 0 0-42.666667-42.666667h-149.504zM665.941333 236.373333H358.058667a94.037333 94.037333 0 0 1-93.866667-93.866666V128c0-51.712 42.154667-93.866667 93.866667-93.866667h307.882666c51.712 0 93.866667 42.154667 93.866667 93.866667v14.506667c0 51.712-42.154667 93.866667-93.866667 93.866666zM358.058667 85.333333a42.666667 42.666667 0 0 0-42.666667 42.666667v14.506667a42.666667 42.666667 0 0 0 42.666667 42.666666h307.882666a42.666667 42.666667 0 0 0 42.666667-42.666666V128a42.666667 42.666667 0 0 0-42.666667-42.666667H358.058667z"  /><path  d="M552.789333 475.648H471.04c-14.165333 0-25.6-11.434667-25.6-25.6s11.434667-25.6 25.6-25.6h81.749333c14.165333 0 25.6 11.434667 25.6 25.6s-11.434667 25.6-25.6 25.6zM552.789333 571.221333H471.04c-14.165333 0-25.6-11.434667-25.6-25.6s11.434667-25.6 25.6-25.6h81.749333c14.165333 0 25.6 11.434667 25.6 25.6s-11.434667 25.6-25.6 25.6zM552.789333 666.624H471.04c-14.165333 0-25.6-11.434667-25.6-25.6s11.434667-25.6 25.6-25.6h81.749333c14.165333 0 25.6 11.434667 25.6 25.6s-11.434667 25.6-25.6 25.6zM638.122667 888.661333H385.877333c-14.165333 0-25.6-11.434667-25.6-25.6s11.434667-25.6 25.6-25.6H638.293333c14.165333 0 25.6 11.434667 25.6 25.6s-11.605333 25.6-25.770666 25.6z"  /></svg>