<?xml version="1.0" standalone="no"?><!DOCTYPE svg PUBLIC "-//W3C//DTD SVG 1.1//EN" "http://www.w3.org/Graphics/SVG/1.1/DTD/svg11.dtd"><svg class="icon" width="64px" height="64.00px" viewBox="0 0 1024 1024" version="1.1" xmlns="http://www.w3.org/2000/svg"><path  d="M445.44 692.906667H68.266667a25.6 25.6 0 0 1-25.6-25.6V357.034667a25.6 25.6 0 0 1 25.6-25.6h307.2V135.509333a25.6 25.6 0 0 1 25.429333-25.6h243.882667a25.6 25.6 0 0 1 0 51.2H426.666667v195.925334a25.6 25.6 0 0 1-25.6 25.6h-307.2V641.706667h351.573333a25.6 25.6 0 0 1 0 51.2zM423.424 914.602667a25.6 25.6 0 0 1 0-51.2H641.706667v-204.8a25.6 25.6 0 0 1 25.6-25.6h262.314666V382.634667H652.629333a25.6 25.6 0 0 1 0-51.2H955.733333a25.6 25.6 0 0 1 25.6 25.6v301.056a25.6 25.6 0 0 1-25.6 25.6H692.736v204.8a25.6 25.6 0 0 1-25.6 25.6H423.424z"  /></svg>