<?xml version="1.0" standalone="no"?><!DOCTYPE svg PUBLIC "-//W3C//DTD SVG 1.1//EN" "http://www.w3.org/Graphics/SVG/1.1/DTD/svg11.dtd"><svg class="icon" width="64px" height="64.00px" viewBox="0 0 1024 1024" version="1.1" xmlns="http://www.w3.org/2000/svg"><path  d="M836.266667 989.866667H187.733333c-51.2 0-93.866667-42.666667-93.866666-93.866667v-768C93.866667 76.8 136.533333 34.133333 187.733333 34.133333h648.533334c51.2 0 93.866667 42.666667 93.866666 93.866667v768c0 51.2-42.666667 93.866667-93.866666 93.866667zM187.733333 85.333333C163.84 85.333333 145.066667 104.106667 145.066667 128v768c0 23.893333 18.773333 42.666667 42.666666 42.666667h648.533334c23.893333 0 42.666667-18.773333 42.666666-42.666667v-768C878.933333 104.106667 860.16 85.333333 836.266667 85.333333H187.733333z"  /><path  d="M745.813333 708.266667H278.186667c-13.653333 0-25.6-11.946667-25.6-25.6s11.946667-25.6 25.6-25.6h467.626666c13.653333 0 25.6 11.946667 25.6 25.6s-11.946667 25.6-25.6 25.6zM745.813333 827.733333H278.186667c-13.653333 0-25.6-11.946667-25.6-25.6s11.946667-25.6 25.6-25.6h467.626666c13.653333 0 25.6 11.946667 25.6 25.6s-11.946667 25.6-25.6 25.6z"  /><path  d="M370.346667 571.733333h-22.186667c-23.893333 0-42.666667-17.066667-44.373333-40.96l-17.066667-187.733333c-1.706667-11.946667 3.413333-25.6 11.946667-34.133333 8.533333-8.533333 20.48-15.36 34.133333-15.36h37.546667c25.6 0 46.08 20.48 46.08 46.08v187.733333c0 23.893333-20.48 44.373333-46.08 44.373333z m-15.36-51.2h10.24V344.746667h-25.6l15.36 175.786666zM638.293333 571.733333h-167.253333c-25.6 0-46.08-20.48-46.08-46.08V332.8c0-17.066667 10.24-34.133333 27.306667-42.666667 22.186667-10.24 39.253333-23.893333 46.08-34.133333 10.24-15.36 15.36-49.493333 15.36-75.093333v-6.826667c1.706667-15.36 11.946667-25.6 25.6-29.013333 27.306667-5.12 61.44 23.893333 75.093333 46.08 8.533333 15.36 13.653333 34.133333 11.946667 58.026666-1.706667 15.36-5.12 30.72-8.533334 42.666667h73.386667c13.653333 0 27.306667 6.826667 35.84 18.773333s11.946667 25.6 6.826667 39.253334l-52.906667 187.733333c-5.12 20.48-23.893333 34.133333-42.666667 34.133333z m-162.133333-51.2h157.013333L682.666667 344.746667h-98.986667c-8.533333 0-15.36-3.413333-20.48-10.24-5.12-6.826667-6.826667-15.36-3.413333-22.186667l8.533333-29.013333c3.413333-13.653333 6.826667-23.893333 8.533333-35.84 0-11.946667 0-22.186667-5.12-29.013334-1.706667-3.413333-5.12-6.826667-8.533333-10.24-3.413333 22.186667-8.533333 52.906667-22.186667 75.093334-15.36 23.893333-42.666667 42.666667-64.853333 52.906666v184.32z"  /></svg>