<?xml version="1.0" standalone="no"?><!DOCTYPE svg PUBLIC "-//W3C//DTD SVG 1.1//EN" "http://www.w3.org/Graphics/SVG/1.1/DTD/svg11.dtd"><svg class="icon" width="64px" height="64.00px" viewBox="0 0 1024 1024" version="1.1" xmlns="http://www.w3.org/2000/svg"><path  d="M512 911.189333a47.445333 47.445333 0 0 1-35.84-17.066666L58.538667 421.717333a66.389333 66.389333 0 0 1 0-91.648L237.056 136.533333A72.533333 72.533333 0 0 1 290.133333 112.810667h443.733334A73.728 73.728 0 0 1 787.114667 136.533333L965.973333 330.069333a66.389333 66.389333 0 0 1-1.365333 92.501334L548.010667 894.976a48.128 48.128 0 0 1-36.010667 17.066667z m2.56-50.005333zM95.914667 364.714667a15.530667 15.530667 0 0 0 0 22.186666L512 858.282667l415.061333-470.357334a16.042667 16.042667 0 0 0 1.194667-23.210666L749.397333 170.666667a21.674667 21.674667 0 0 0-15.530666-6.656H290.133333a22.016 22.016 0 0 0-16.213333 6.656z"  /><path  d="M512 654.848a25.6 25.6 0 0 1-19.114667-8.533333L314.368 445.44a25.6 25.6 0 0 1 38.4-34.133333L512 590.677333l159.402667-179.2a25.6 25.6 0 1 1 38.229333 34.133334L531.114667 646.314667a25.429333 25.429333 0 0 1-19.114667 8.533333z"  /></svg>