<?xml version="1.0" standalone="no"?><!DOCTYPE svg PUBLIC "-//W3C//DTD SVG 1.1//EN" "http://www.w3.org/Graphics/SVG/1.1/DTD/svg11.dtd"><svg class="icon" width="64px" height="64.00px" viewBox="0 0 1024 1024" version="1.1" xmlns="http://www.w3.org/2000/svg"><path  d="M759.978667 331.093333a24.064 24.064 0 0 1-10.24-2.218666L379.221333 165.205333a18.944 18.944 0 0 0-23.381333 6.485334l-103.936 148.48A25.6 25.6 0 1 1 209.92 290.133333l104.106667-148.48a70.314667 70.314667 0 0 1 85.333333-24.064l370.517333 163.84a25.6 25.6 0 0 1-10.410666 48.981334z"  /><path  d="M937.301333 911.701333H88.917333a47.957333 47.957333 0 0 1-47.786666-47.957333v-535.893333a47.957333 47.957333 0 0 1 47.786666-47.957334h848.384a47.957333 47.957333 0 0 1 47.957334 47.957334v535.893333a47.957333 47.957333 0 0 1-47.957334 47.957333z m-844.970666-51.2h841.728v-529.066666H92.330667z m844.970666-529.066666z"  /><path  d="M515.413333 733.866667a25.429333 25.429333 0 0 1-22.698666-13.994667l-114.005334-224.085333a25.6 25.6 0 1 1 45.568-23.210667l90.794667 177.493333 86.698667-177.152A25.6 25.6 0 0 1 648.533333 494.933333l-110.08 223.744a25.770667 25.770667 0 0 1-22.698666 14.336z"  /></svg>