<?xml version="1.0" standalone="no"?><!DOCTYPE svg PUBLIC "-//W3C//DTD SVG 1.1//EN" "http://www.w3.org/Graphics/SVG/1.1/DTD/svg11.dtd"><svg class="icon" width="64px" height="64.00px" viewBox="0 0 1024 1024" version="1.1" xmlns="http://www.w3.org/2000/svg"><path  d="M466.773333 930.986667H155.477333A18.944 18.944 0 0 1 136.533333 912.213333V111.786667a18.944 18.944 0 0 1 18.944-18.773334h622.421334a18.944 18.944 0 0 1 18.944 18.773334V512a25.6 25.6 0 0 0 51.2 0V111.786667a70.144 70.144 0 0 0-70.144-69.973334H155.477333A70.144 70.144 0 0 0 85.333333 111.786667v800.426666a70.144 70.144 0 0 0 70.144 69.973334h311.296a25.6 25.6 0 1 0 0-51.2z"  /><path  d="M670.208 334.165333a25.6 25.6 0 0 0-25.6-25.6H288.938667a25.6 25.6 0 0 0 0 51.2h355.669333a25.6 25.6 0 0 0 25.6-25.6zM466.773333 486.4H288.938667a25.6 25.6 0 0 0 0 51.2h177.834666a25.6 25.6 0 0 0 0-51.2zM611.498667 628.906667a25.6 25.6 0 0 0-25.6 25.6v238.933333a25.6 25.6 0 1 0 51.2 0v-238.933333a25.6 25.6 0 0 0-25.6-25.6zM877.568 713.216a25.429333 25.429333 0 0 0-36.864 35.157333h-160.938667a25.6 25.6 0 0 0 0 51.2h161.450667A25.6 25.6 0 1 0 877.738667 836.266667L938.666667 773.973333z"  /></svg>