<?xml version="1.0" standalone="no"?><!DOCTYPE svg PUBLIC "-//W3C//DTD SVG 1.1//EN" "http://www.w3.org/Graphics/SVG/1.1/DTD/svg11.dtd"><svg class="icon" width="64px" height="64.00px" viewBox="0 0 1024 1024" version="1.1" xmlns="http://www.w3.org/2000/svg"><path  d="M502.954667 929.28a25.6 25.6 0 0 1-18.090667-7.68l-102.4-102.4H65.706667a25.6 25.6 0 0 1-25.6-25.6V138.410667a25.6 25.6 0 0 1 25.6-25.6h655.872a25.6 25.6 0 1 1 0 51.2H91.306667v604.842666h302.250666a24.917333 24.917333 0 0 1 18.090667 7.509334l91.306667 91.136 91.136-91.136a25.429333 25.429333 0 0 1 18.090666-7.509334h302.421334V357.034667a25.6 25.6 0 0 1 51.2 0v437.418666a25.6 25.6 0 0 1-25.6 25.6H622.933333l-102.4 102.4a25.6 25.6 0 0 1-17.578666 6.826667z"  /><path  d="M524.8 470.186667h-43.690667a25.6 25.6 0 0 1 0-51.2h43.690667a25.6 25.6 0 0 1 0 51.2zM743.424 470.186667H699.733333a25.6 25.6 0 0 1 0-51.2h43.690667a25.6 25.6 0 0 1 0 51.2zM306.176 470.186667h-43.690667a25.6 25.6 0 1 1 0-51.2h43.690667a25.6 25.6 0 0 1 0 51.2z"  /><path  d="M918.357333 160.256m-65.536 0a65.536 65.536 0 1 0 131.072 0 65.536 65.536 0 1 0-131.072 0Z"  /></svg>