<?xml version="1.0" standalone="no"?><!DOCTYPE svg PUBLIC "-//W3C//DTD SVG 1.1//EN" "http://www.w3.org/Graphics/SVG/1.1/DTD/svg11.dtd"><svg class="icon" width="64px" height="64.00px" viewBox="0 0 1024 1024" version="1.1" xmlns="http://www.w3.org/2000/svg"><path  d="M224.256 924.842667a25.429333 25.429333 0 0 1-25.6-25.6v-85.333334H69.290667a25.6 25.6 0 0 1-25.6-25.6V124.757333a25.6 25.6 0 0 1 25.6-25.6h885.418666a25.6 25.6 0 0 1 25.6 25.6v379.904a25.6 25.6 0 0 1-51.2 0V150.357333H94.890667v612.693334h129.365333a25.6 25.6 0 0 1 25.6 25.6v69.290666l184.32-92.16a26.794667 26.794667 0 0 1 11.434667-2.730666H614.4a25.6 25.6 0 0 1 0 51.2h-162.816L235.690667 921.6a26.624 26.624 0 0 1-11.434667 3.242667z"  /><path  d="M379.221333 327.338667h-132.778666a25.6 25.6 0 1 1 0-51.2h132.778666a25.6 25.6 0 0 1 0 51.2zM512 460.8H246.442667a25.6 25.6 0 1 1 0-51.2H512a25.6 25.6 0 0 1 0 51.2z"  /><path  d="M802.816 652.970667m-77.141333 0a77.141333 77.141333 0 1 0 154.282666 0 77.141333 77.141333 0 1 0-154.282666 0Z"  /></svg>