<?xml version="1.0" standalone="no"?><!DOCTYPE svg PUBLIC "-//W3C//DTD SVG 1.1//EN" "http://www.w3.org/Graphics/SVG/1.1/DTD/svg11.dtd"><svg class="icon" width="64px" height="64.00px" viewBox="0 0 1024 1024" version="1.1" xmlns="http://www.w3.org/2000/svg"><path  d="M407.04 89.770667c10.24 0 18.432 8.192 18.432 18.432v227.669333c0 10.24-8.192 18.432-18.432 18.432H152.064c-9.216 0-13.994667-5.802667-15.872-9.216-2.048-3.413333-4.608-10.410667 0-18.432L266.24 98.986667c3.242667-5.802667 9.386667-9.216 16.042667-9.216h124.757333m0-55.637334h-124.928c-26.624 0-51.2 14.336-64.341333 37.376L87.722667 299.178667c-28.16 49.493333 7.509333 110.933333 64.341333 110.933333h254.976c40.96 0 74.069333-33.109333 74.069333-74.069333V108.202667C481.28 67.242667 448 34.133333 407.04 34.133333zM741.888 89.770667c6.656 0 12.8 3.584 16.042667 9.216l130.048 227.669333c4.608 8.021333 1.877333 15.018667 0 18.432-2.048 3.413333-6.656 9.216-15.872 9.216H616.96c-10.24 0-18.432-8.192-18.432-18.432V108.202667c0-10.24 8.192-18.432 18.432-18.432h124.928m0-55.637334h-124.928c-40.96 0-74.069333 33.109333-74.069333 74.069334v227.669333c0 40.96 33.109333 74.069333 74.069333 74.069333h254.976c56.832 0 92.672-61.44 64.341333-110.933333L806.4 71.509333A74.615467 74.615467 0 0 0 741.888 34.133333zM921.6 498.176c9.386667 0 17.066667 7.68 17.066667 17.066667V921.6c0 9.386667-7.68 17.066667-17.066667 17.066667H102.4c-9.386667 0-17.066667-7.68-17.066667-17.066667V515.242667c0-9.386667 7.68-17.066667 17.066667-17.066667h819.2m0-51.2H102.4c-37.717333 0-68.266667 30.549333-68.266667 68.266667V921.6c0 37.717333 30.549333 68.266667 68.266667 68.266667h819.2c37.717333 0 68.266667-30.549333 68.266667-68.266667V515.242667c0-37.717333-30.549333-68.266667-68.266667-68.266667zM303.786667 662.016c9.386667 0 17.066667 7.68 17.066666 17.066667v78.677333c0 9.386667-7.68 17.066667-17.066666 17.066667h-78.677334c-9.386667 0-17.066667-7.68-17.066666-17.066667v-78.677333c0-9.386667 7.68-17.066667 17.066666-17.066667h78.677334m0-51.2h-78.677334c-37.717333 0-68.266667 30.549333-68.266666 68.266667v78.677333c0 37.717333 30.549333 68.266667 68.266666 68.266667h78.677334c37.717333 0 68.266667-30.549333 68.266666-68.266667v-78.677333c0-37.717333-30.549333-68.266667-68.266666-68.266667zM612.181333 821.248c-14.165333 0-25.6-11.434667-25.6-25.6v-154.624c0-14.165333 11.434667-25.6 25.6-25.6s25.6 11.434667 25.6 25.6v154.624c0 14.165333-11.434667 25.6-25.6 25.6zM727.04 821.248c-14.165333 0-25.6-11.434667-25.6-25.6v-154.624c0-14.165333 11.434667-25.6 25.6-25.6s25.6 11.434667 25.6 25.6v154.624c0 14.165333-11.605333 25.6-25.6 25.6zM841.728 821.248c-14.165333 0-25.6-11.434667-25.6-25.6v-154.624c0-14.165333 11.434667-25.6 25.6-25.6s25.6 11.434667 25.6 25.6v154.624c0 14.165333-11.434667 25.6-25.6 25.6z" /></svg>