<?xml version="1.0" standalone="no"?><!DOCTYPE svg PUBLIC "-//W3C//DTD SVG 1.1//EN" "http://www.w3.org/Graphics/SVG/1.1/DTD/svg11.dtd"><svg class="icon" width="64px" height="64.00px" viewBox="0 0 1024 1024" version="1.1" xmlns="http://www.w3.org/2000/svg"><path  d="M85.333333 324.266667c-13.653333 0-25.6-11.946667-25.6-25.6v-107.52c0-73.386667 59.733333-133.12 133.12-133.12h107.52c11.946667 1.706667 23.893333 13.653333 23.893334 27.306666s-11.946667 25.6-25.6 25.6h-107.52c-44.373333 0-80.213333 35.84-80.213334 81.92v107.52c0 11.946667-11.946667 23.893333-25.6 23.893334zM298.666667 964.266667h-107.52c-73.386667 0-133.12-59.733333-133.12-133.12v-107.52c1.706667-11.946667 11.946667-23.893333 27.306666-23.893334s25.6 11.946667 25.6 25.6v107.52c0 44.373333 35.84 81.92 80.213334 81.92h107.52c13.653333 0 25.6 11.946667 25.6 25.6s-11.946667 23.893333-25.6 23.893334zM938.666667 324.266667c-13.653333 0-25.6-11.946667-25.6-25.6v-107.52c0-44.373333-35.84-81.92-81.92-81.92h-107.52c-13.653333 1.706667-23.893333-10.24-23.893334-23.893334s11.946667-25.6 25.6-25.6h107.52c73.386667 0 133.12 59.733333 133.12 133.12v107.52c-1.706667 11.946667-13.653333 23.893333-27.306666 23.893334zM831.146667 964.266667h-107.52c-13.653333 0-25.6-11.946667-25.6-25.6s11.946667-25.6 25.6-25.6h107.52c44.373333 0 81.92-35.84 81.92-81.92v-107.52c0-13.653333 11.946667-25.6 25.6-25.6s25.6 11.946667 25.6 25.6v107.52c0 73.386667-59.733333 133.12-133.12 133.12zM512 858.453333c-8.533333 0-15.36-3.413333-20.48-10.24L303.786667 580.266667l-1.706667-1.706667c-63.146667-116.053333-22.186667-261.12 93.866667-324.266667 116.053333-63.146667 261.12-22.186667 324.266666 93.866667 39.253333 71.68 39.253333 158.72 0 232.106667l-1.706666 1.706666-186.026667 264.533334c-5.12 6.826667-11.946667 11.946667-20.48 11.946666z m-165.546667-307.2L512 786.773333l165.546667-235.52c30.72-56.32 30.72-124.586667 0-180.906666-49.493333-90.453333-163.84-122.88-256-73.386667-90.453333 51.2-124.586667 163.84-75.093334 254.293333z"  /><path  d="M512 554.666667c-51.2 0-93.866667-42.666667-93.866667-93.866667s42.666667-93.866667 93.866667-93.866667 93.866667 42.666667 93.866667 93.866667-42.666667 93.866667-93.866667 93.866667z m0-136.533334c-23.893333 0-42.666667 18.773333-42.666667 42.666667s18.773333 42.666667 42.666667 42.666667 42.666667-18.773333 42.666667-42.666667-20.48-42.666667-42.666667-42.666667z"  /></svg>