<?xml version="1.0" standalone="no"?><!DOCTYPE svg PUBLIC "-//W3C//DTD SVG 1.1//EN" "http://www.w3.org/Graphics/SVG/1.1/DTD/svg11.dtd"><svg class="icon" width="64px" height="64.00px" viewBox="0 0 1024 1024" version="1.1" xmlns="http://www.w3.org/2000/svg"><path  d="M576.853333 452.266667c-5.12 0-10.24-1.706667-15.36-5.12-17.066667-13.653333-39.253333-18.773333-59.733333-15.36-13.653333 1.706667-25.6-6.826667-29.013333-18.773334-13.653333-49.493333-46.08-102.4-92.16-146.773333-8.533333-8.533333-17.066667-15.36-23.893334-22.186667-6.826667-5.12-10.24-13.653333-8.533333-22.186666 1.706667-8.533333 6.826667-15.36 13.653333-20.48 46.08-22.186667 98.986667-34.133333 150.186667-34.133334 39.253333 0 76.8 6.826667 114.346667 18.773334 10.24 3.413333 17.066667 11.946667 17.066666 22.186666 1.706667 11.946667 1.706667 25.6 1.706667 37.546667 0 71.68-17.066667 139.946667-46.08 194.56-3.413333 6.826667-10.24 10.24-17.066667 11.946667h-5.12z m-61.44-71.68c17.066667 0 34.133333 3.413333 49.493334 11.946666 18.773333-42.666667 27.306667-92.16 27.306666-145.066666v-17.066667c-25.6-6.826667-52.906667-11.946667-81.92-11.946667-30.72 0-63.146667 5.12-92.16 15.36 44.373333 42.666667 78.506667 95.573333 97.28 146.773334z"  /><path  d="M617.813333 549.546667c-6.826667 0-13.653333-3.413333-18.773333-8.533334-5.12-5.12-6.826667-11.946667-6.826667-20.48V512c0-18.773333-6.826667-35.84-17.066666-51.2-8.533333-10.24-6.826667-23.893333 1.706666-34.133333 35.84-37.546667 64.853333-92.16 81.92-153.6 3.413333-10.24 5.12-22.186667 6.826667-32.426667 1.706667-8.533333 6.826667-15.36 15.36-18.773333s17.066667-1.706667 23.893333 1.706666c76.8 51.2 128 129.706667 145.066667 220.16 1.706667 10.24-1.706667 20.48-10.24 25.6-10.24 6.826667-20.48 13.653333-32.426667 20.48-59.733333 37.546667-128 58.026667-189.44 59.733334z m10.24-102.4c8.533333 15.36 13.653333 32.426667 15.36 49.493333 46.08-5.12 93.866667-22.186667 139.946667-47.786667 5.12-3.413333 10.24-5.12 13.653333-8.533333-15.36-58.026667-46.08-109.226667-90.453333-148.48-15.36 59.733333-44.373333 114.346667-78.506667 155.306667z"  /><path  d="M721.92 779.946667c-3.413333 0-6.826667 0-10.24-1.706667-11.946667-5.12-22.186667-11.946667-34.133333-18.773333-61.44-35.84-112.64-83.626667-145.066667-136.533334-3.413333-6.826667-5.12-13.653333-1.706667-20.48s6.826667-11.946667 13.653334-15.36c20.48-8.533333 35.84-23.893333 42.666666-44.373333 5.12-11.946667 17.066667-18.773333 29.013334-15.36h3.413333c51.2 11.946667 110.933333 10.24 170.666667-6.826667 10.24-3.413333 20.48-6.826667 32.426666-10.24 8.533333-3.413333 17.066667-1.706667 23.893334 3.413334 6.826667 5.12 10.24 13.653333 10.24 22.186666-6.826667 90.453333-49.493333 177.493333-117.76 237.226667-5.12 3.413333-11.946667 6.826667-17.066667 6.826667z m-131.413333-162.133334c27.306667 35.84 66.56 69.973333 110.933333 95.573334 5.12 3.413333 10.24 5.12 15.36 8.533333 42.666667-40.96 71.68-95.573333 83.626667-151.893333-59.733333 15.36-121.173333 18.773333-175.786667 10.24-8.533333 15.36-20.48 27.306667-34.133333 37.546666z"  /><path  d="M512 858.453333c-39.253333 0-76.8-6.826667-112.64-18.773333-10.24-3.413333-17.066667-11.946667-17.066667-22.186667-1.706667-13.653333-1.706667-25.6-1.706666-37.546666 0-71.68 17.066667-139.946667 46.08-192.853334 3.413333-6.826667 10.24-10.24 17.066666-11.946666 6.826667-1.706667 15.36 0 20.48 5.12 17.066667 13.653333 39.253333 18.773333 61.44 15.36 11.946667-1.706667 23.893333 6.826667 27.306667 18.773333 13.653333 49.493333 46.08 102.4 92.16 146.773333 8.533333 8.533333 17.066667 15.36 25.6 22.186667 6.826667 5.12 10.24 13.653333 8.533333 22.186667s-6.826667 15.36-13.653333 20.48c-49.493333 20.48-100.693333 32.426667-153.6 32.426666z m-80.213333-63.146666c25.6 6.826667 52.906667 10.24 80.213333 11.946666 32.426667 0 63.146667-5.12 93.866667-15.36-44.373333-44.373333-76.8-95.573333-95.573334-146.773333-17.066667 0-34.133333-3.413333-49.493333-10.24-18.773333 40.96-27.306667 92.16-27.306667 145.066667-1.706667 3.413333-1.706667 10.24-1.706666 15.36z"  /><path  d="M332.8 802.133333c-5.12 0-10.24-1.706667-13.653333-5.12-76.8-51.2-128-129.706667-145.066667-221.866666-1.706667-10.24 1.706667-20.48 10.24-25.6 10.24-6.826667 20.48-13.653333 32.426667-20.48 61.44-35.84 129.706667-56.32 191.146666-56.32 8.533333 0 13.653333 3.413333 18.773334 8.533333 5.12 5.12 6.826667 13.653333 6.826666 20.48v10.24c0 18.773333 6.826667 35.84 17.066667 49.493333 8.533333 10.24 6.826667 23.893333-1.706667 34.133334-35.84 37.546667-64.853333 92.16-81.92 153.6-3.413333 10.24-5.12 22.186667-6.826666 32.426666-1.706667 8.533333-6.826667 15.36-15.36 18.773334-5.12 1.706667-8.533333 1.706667-11.946667 1.706666z m-105.813333-218.453333c13.653333 58.026667 46.08 109.226667 90.453333 148.48 17.066667-59.733333 44.373333-114.346667 80.213333-157.013333-8.533333-15.36-13.653333-32.426667-15.36-49.493334-46.08 5.12-93.866667 22.186667-139.946666 47.786667-6.826667 5.12-11.946667 6.826667-15.36 10.24z"  /><path  d="M192.853333 513.706667c-5.12 0-10.24-1.706667-15.36-5.12-6.826667-5.12-10.24-13.653333-10.24-22.186667 6.826667-90.453333 49.493333-177.493333 119.466667-237.226667 8.533333-6.826667 18.773333-8.533333 27.306667-3.413333 11.946667 5.12 22.186667 11.946667 34.133333 17.066667 61.44 35.84 112.64 83.626667 145.066667 136.533333 3.413333 6.826667 5.12 13.653333 1.706666 20.48-1.706667 6.826667-6.826667 11.946667-13.653333 15.36-20.48 8.533333-35.84 25.6-42.666667 44.373333-5.12 11.946667-17.066667 18.773333-30.72 15.36-51.2-11.946667-112.64-10.24-172.373333 5.12-11.946667 3.413333-22.186667 6.826667-32.426667 10.24-5.12 3.413333-6.826667 3.413333-10.24 3.413334zM307.2 300.373333c-42.666667 40.96-71.68 93.866667-83.626667 151.893334 59.733333-15.36 121.173333-18.773333 175.786667-8.533334 8.533333-15.36 20.48-27.306667 34.133333-37.546666-27.306667-35.84-66.56-69.973333-112.64-97.28-3.413333-3.413333-8.533333-5.12-13.653333-8.533334zM512 554.666667c-23.893333 0-42.666667-18.773333-42.666667-42.666667s18.773333-42.666667 42.666667-42.666667 42.666667 18.773333 42.666667 42.666667-18.773333 42.666667-42.666667 42.666667z m0-51.2c-5.12 0-8.533333 3.413333-8.533333 8.533333s3.413333 8.533333 8.533333 8.533333 8.533333-3.413333 8.533333-8.533333-3.413333-8.533333-8.533333-8.533333z"  /><path  d="M512 964.266667C262.826667 964.266667 59.733333 761.173333 59.733333 512S262.826667 59.733333 512 59.733333 964.266667 262.826667 964.266667 512 761.173333 964.266667 512 964.266667z m0-853.333334C290.133333 110.933333 110.933333 290.133333 110.933333 512S290.133333 913.066667 512 913.066667 913.066667 733.866667 913.066667 512 733.866667 110.933333 512 110.933333z"  /></svg>