<?xml version="1.0" standalone="no"?><!DOCTYPE svg PUBLIC "-//W3C//DTD SVG 1.1//EN" "http://www.w3.org/Graphics/SVG/1.1/DTD/svg11.dtd"><svg class="icon" width="64px" height="64.00px" viewBox="0 0 1024 1024" version="1.1" xmlns="http://www.w3.org/2000/svg"><path  d="M827.733333 989.866667h-631.466666c-39.253333 0-71.68-32.426667-71.68-71.68V104.106667C124.586667 66.56 157.013333 34.133333 196.266667 34.133333h633.173333c39.253333 0 71.68 32.426667 71.68 69.973334v814.08c-1.706667 39.253333-34.133333 71.68-73.386667 71.68z m-631.466666-904.533334c-10.24 0-20.48 8.533333-20.48 18.773334v814.08c0 10.24 8.533333 20.48 20.48 20.48h633.173333c10.24 0 20.48-8.533333 20.48-20.48V104.106667c0-10.24-8.533333-18.773333-20.48-18.773334H196.266667z"  /><path  d="M670.72 674.133333H353.28c-13.653333 0-25.6-11.946667-25.6-25.6s11.946667-25.6 25.6-25.6h315.733333c13.653333 0 25.6 11.946667 25.6 25.6s-10.24 25.6-23.893333 25.6zM512 808.96h-158.72c-13.653333 0-25.6-11.946667-25.6-25.6s11.946667-25.6 25.6-25.6H512c13.653333 0 25.6 11.946667 25.6 25.6s-11.946667 25.6-25.6 25.6zM406.186667 537.6c-32.426667 0-64.853333-11.946667-90.453334-37.546667-49.493333-49.493333-49.493333-129.706667 0-179.2L484.693333 153.6c10.24-10.24 25.6-10.24 35.84 0 10.24 10.24 10.24 25.6 0 35.84l-167.253333 167.253333c-29.013333 29.013333-29.013333 76.8 0 107.52 29.013333 29.013333 76.8 29.013333 107.52 0l199.68-199.68c17.066667-17.066667 17.066667-42.666667 0-59.733333s-42.666667-17.066667-59.733333 0L401.066667 404.48c-3.413333 3.413333-3.413333 8.533333 0 11.946667s8.533333 3.413333 11.946666 0l167.253334-167.253334c10.24-10.24 25.6-10.24 35.84 0 10.24 10.24 10.24 25.6 0 35.84l-167.253334 167.253334c-23.893333 23.893333-61.44 23.893333-83.626666 0-23.893333-23.893333-23.893333-61.44 0-83.626667L563.2 168.96c17.066667-17.066667 40.96-27.306667 66.56-27.306667s47.786667 10.24 66.56 27.306667c17.066667 17.066667 27.306667 40.96 27.306667 66.56s-10.24 47.786667-27.306667 66.56L496.64 500.053333c-25.6 23.893333-58.026667 37.546667-90.453333 37.546667z"  /></svg>