<?xml version="1.0" standalone="no"?><!DOCTYPE svg PUBLIC "-//W3C//DTD SVG 1.1//EN" "http://www.w3.org/Graphics/SVG/1.1/DTD/svg11.dtd"><svg class="icon" width="64px" height="64.00px" viewBox="0 0 1024 1024" version="1.1" xmlns="http://www.w3.org/2000/svg"><path  d="M827.733333 989.866667h-631.466666c-39.253333 0-71.68-32.426667-71.68-69.973334V105.813333C124.586667 66.56 157.013333 34.133333 196.266667 34.133333h633.173333c39.253333 0 71.68 32.426667 71.68 71.68v814.08c-1.706667 37.546667-34.133333 69.973333-73.386667 69.973334z m-631.466666-904.533334c-10.24 0-20.48 8.533333-20.48 20.48v814.08c0 10.24 8.533333 18.773333 20.48 18.773334h633.173333c10.24 0 20.48-8.533333 20.48-18.773334V105.813333c0-10.24-8.533333-20.48-20.48-20.48H196.266667z"  /><path  d="M670.72 674.133333H353.28c-13.653333 0-25.6-11.946667-25.6-25.6s11.946667-25.6 25.6-25.6h315.733333c13.653333 0 25.6 11.946667 25.6 25.6s-10.24 25.6-23.893333 25.6zM512 808.96h-158.72c-13.653333 0-25.6-11.946667-25.6-25.6s11.946667-25.6 25.6-25.6H512c13.653333 0 25.6 11.946667 25.6 25.6s-11.946667 25.6-25.6 25.6zM421.546667 469.333333c-6.826667 0-13.653333-1.706667-18.773334-6.826666-10.24-10.24-10.24-25.6 0-35.84l180.906667-180.906667c10.24-10.24 25.6-10.24 35.84 0 10.24 10.24 10.24 25.6 0 35.84L440.32 462.506667c-5.12 5.12-11.946667 6.826667-18.773333 6.826666z"  /><path  d="M602.453333 469.333333c-6.826667 0-13.653333-1.706667-18.773333-6.826666L402.773333 281.6c-10.24-10.24-10.24-25.6 0-35.84 10.24-10.24 25.6-10.24 35.84 0L621.226667 426.666667c10.24 10.24 10.24 25.6 0 35.84-5.12 5.12-11.946667 6.826667-18.773334 6.826666z"  /></svg>