<?xml version="1.0" standalone="no"?><!DOCTYPE svg PUBLIC "-//W3C//DTD SVG 1.1//EN" "http://www.w3.org/Graphics/SVG/1.1/DTD/svg11.dtd"><svg class="icon" width="64px" height="64.00px" viewBox="0 0 1024 1024" version="1.1" xmlns="http://www.w3.org/2000/svg"><path  d="M896 808.96h-768c-51.2 0-93.866667-42.666667-93.866667-93.866667V179.2C34.133333 128 76.8 85.333333 128 85.333333h768c51.2 0 93.866667 42.666667 93.866667 93.866667v535.893333c0 52.906667-42.666667 93.866667-93.866667 93.866667zM128 136.533333C104.106667 136.533333 85.333333 157.013333 85.333333 179.2v535.893333c0 23.893333 18.773333 42.666667 42.666667 42.666667h768c23.893333 0 42.666667-18.773333 42.666667-42.666667V179.2C938.666667 157.013333 919.893333 136.533333 896 136.533333h-768zM781.653333 938.666667H242.346667c-13.653333 0-25.6-11.946667-25.6-25.6s11.946667-25.6 25.6-25.6h539.306666c13.653333 0 25.6 11.946667 25.6 25.6s-11.946667 25.6-25.6 25.6z"  /><path  d="M694.613333 703.146667H329.386667c-32.426667 0-59.733333-27.306667-59.733334-59.733334V245.76c0-32.426667 27.306667-59.733333 59.733334-59.733333h365.226666c32.426667 0 59.733333 27.306667 59.733334 59.733333v397.653333c0 34.133333-27.306667 59.733333-59.733334 59.733334zM329.386667 237.226667c-5.12 0-8.533333 3.413333-8.533334 8.533333v397.653333c0 5.12 3.413333 8.533333 8.533334 8.533334h365.226666c5.12 0 8.533333-3.413333 8.533334-8.533334V245.76c0-5.12-3.413333-8.533333-8.533334-8.533333H329.386667z"  /><path  d="M617.813333 363.52H406.186667c-13.653333 0-25.6-11.946667-25.6-25.6s11.946667-25.6 25.6-25.6h209.92c13.653333 0 25.6 11.946667 25.6 25.6s-10.24 25.6-23.893334 25.6zM617.813333 471.04H406.186667c-13.653333 0-25.6-11.946667-25.6-25.6s11.946667-25.6 25.6-25.6h209.92c13.653333 0 25.6 11.946667 25.6 25.6s-10.24 25.6-23.893334 25.6zM617.813333 578.56H406.186667c-13.653333 0-25.6-11.946667-25.6-25.6s11.946667-25.6 25.6-25.6h209.92c13.653333 0 25.6 11.946667 25.6 25.6 1.706667 13.653333-10.24 25.6-23.893334 25.6z"  /></svg>