<?xml version="1.0" standalone="no"?><!DOCTYPE svg PUBLIC "-//W3C//DTD SVG 1.1//EN" "http://www.w3.org/Graphics/SVG/1.1/DTD/svg11.dtd"><svg class="icon" width="64px" height="64.00px" viewBox="0 0 1024 1024" version="1.1" xmlns="http://www.w3.org/2000/svg"><path  d="M916.48 991.573333H107.52c-40.96 0-73.386667-32.426667-73.386667-73.386666V413.013333c0-40.96 32.426667-73.386667 73.386667-73.386666H392.533333c6.826667 0 15.36 3.413333 20.48 8.533333l110.933334 133.12h392.533333c40.96 0 73.386667 32.426667 73.386667 73.386667v363.52c0 40.96-32.426667 73.386667-73.386667 73.386666zM107.52 390.826667c-11.946667 0-22.186667 10.24-22.186667 22.186666v505.173334c0 11.946667 10.24 22.186667 22.186667 22.186666h808.96c11.946667 0 22.186667-10.24 22.186667-22.186666V556.373333c0-11.946667-10.24-22.186667-22.186667-22.186666H512c-6.826667 0-15.36-3.413333-20.48-8.533334L380.586667 392.533333h-273.066667z"  /><path  d="M810.666667 508.586667h-51.2V136.533333c0-23.893333-18.773333-42.666667-42.666667-42.666666H307.2c-23.893333 0-42.666667 18.773333-42.666667 42.666666v230.4h-51.2V136.533333c0-51.2 42.666667-93.866667 93.866667-93.866666h409.6c51.2 0 93.866667 42.666667 93.866667 93.866666v372.053334z"  /><path  d="M696.32 204.8H348.16c-13.653333 0-25.6-11.946667-25.6-25.6S332.8 153.6 348.16 153.6h349.866667c13.653333 0 25.6 11.946667 25.6 25.6s-11.946667 25.6-27.306667 25.6zM696.32 307.2H450.56c-13.653333 0-25.6-11.946667-25.6-25.6s11.946667-25.6 25.6-25.6h247.466667c13.653333 0 25.6 11.946667 25.6 25.6-1.706667 15.36-11.946667 25.6-27.306667 25.6zM696.32 409.6h-93.866667c-13.653333 0-25.6-11.946667-25.6-25.6s11.946667-25.6 25.6-25.6h93.866667c13.653333 0 25.6 11.946667 25.6 25.6s-10.24 25.6-25.6 25.6z"  /></svg>