<?xml version="1.0" standalone="no"?><!DOCTYPE svg PUBLIC "-//W3C//DTD SVG 1.1//EN" "http://www.w3.org/Graphics/SVG/1.1/DTD/svg11.dtd"><svg class="icon" width="64px" height="64.00px" viewBox="0 0 1024 1024" version="1.1" xmlns="http://www.w3.org/2000/svg"><path  d="M410.453333 554.666667H226.304c-14.165333 0-25.6-11.434667-25.6-25.6v-151.722667c0-14.165333 11.434667-25.6 25.6-25.6h184.149333c14.165333 0 25.6 11.434667 25.6 25.6V529.066667c0 14.165333-11.434667 25.6-25.6 25.6z m-158.549333-51.2h132.949333v-100.522667h-132.949333v100.522667zM616.277333 792.917333H432.128c-14.165333 0-25.6-11.434667-25.6-25.6v-151.722666c0-14.165333 11.434667-25.6 25.6-25.6h184.149333c14.165333 0 25.6 11.434667 25.6 25.6v151.722666c0 14.165333-11.434667 25.6-25.6 25.6z m-158.549333-51.2h132.949333v-100.522666h-132.949333v100.522666zM616.277333 554.666667h-119.125333c-14.165333 0-25.6-11.434667-25.6-25.6v-151.722667c0-14.165333 11.434667-25.6 25.6-25.6h119.125333c14.165333 0 25.6 11.434667 25.6 25.6V529.066667c0 14.165333-11.434667 25.6-25.6 25.6z m-93.525333-51.2h67.925333v-100.522667h-67.925333v100.522667zM345.429333 792.917333h-119.125333c-14.165333 0-25.6-11.434667-25.6-25.6v-151.722666c0-14.165333 11.434667-25.6 25.6-25.6h119.125333c14.165333 0 25.6 11.434667 25.6 25.6v151.722666c0 14.165333-11.434667 25.6-25.6 25.6z m-93.525333-51.2h67.925333v-100.522666h-67.925333v100.522666z"  /><path  d="M292.693333 532.650667h51.2v69.632h-51.2zM531.114667 532.650667h51.2v69.632h-51.2zM350.378667 665.941333h69.632v51.2h-69.632z"  /><path  d="M707.072 206.165333c9.386667 0 17.066667 7.68 17.066667 17.066667V921.6c0 9.386667-7.68 17.066667-17.066667 17.066667H135.509333c-9.386667 0-17.066667-7.68-17.066666-17.066667V223.232c0-9.386667 7.68-17.066667 17.066666-17.066667h571.562667m0-51.2H135.509333c-37.717333 0-68.266667 30.549333-68.266666 68.266667V921.6c0 37.717333 30.549333 68.266667 68.266666 68.266667h571.562667c37.717333 0 68.266667-30.549333 68.266667-68.266667V223.232c0-37.717333-30.549333-68.266667-68.266667-68.266667z"  /><path  d="M862.890667 990.549333h-148.309334v-51.2h148.309334c21.162667 0 38.4-21.674667 38.4-48.469333V133.973333c0-26.624-17.237333-48.469333-38.4-48.469333H327.509333c-21.162667 0-38.4 21.674667-38.4 48.469333v44.885334h-51.2V133.973333c0-54.954667 40.106667-99.669333 89.6-99.669333h535.381334c49.322667 0 89.6 44.714667 89.6 99.669333V890.88c0 54.954667-40.277333 99.669333-89.6 99.669333z"  /></svg>