<?xml version="1.0" standalone="no"?><!DOCTYPE svg PUBLIC "-//W3C//DTD SVG 1.1//EN" "http://www.w3.org/Graphics/SVG/1.1/DTD/svg11.dtd"><svg class="icon" width="64px" height="64.00px" viewBox="0 0 1024 1024" version="1.1" xmlns="http://www.w3.org/2000/svg"><path  d="M896 966.144h-768a94.037333 94.037333 0 0 1-93.866667-93.866667V151.722667c0-51.712 42.154667-93.866667 93.866667-93.866667h265.045333c7.68 0 14.848 3.413333 19.626667 9.216l111.274667 133.632h372.053333c51.712 0 93.866667 42.154667 93.866667 93.866667V872.106667c0 51.882667-42.154667 94.037333-93.866667 94.037333zM128 109.056C104.448 109.056 85.333333 128.341333 85.333333 151.722667V872.106667a42.666667 42.666667 0 0 0 42.666667 42.666666h768a42.666667 42.666667 0 0 0 42.666667-42.666666V294.570667a42.666667 42.666667 0 0 0-42.666667-42.666667H512c-7.68 0-14.848-3.413333-19.626667-9.216l-111.274666-133.632H128z"  /><path  d="M722.090667 733.013333H301.909333v-96.768c0-31.914667 25.941333-57.685333 57.856-57.685333h79.701334v-3.413333c-1.877333-2.56-5.802667-6.826667-8.874667-10.24-17.749333-19.285333-47.616-51.370667-47.616-112.810667 0-94.208 71.509333-127.658667 132.778667-127.658667 61.44 0 127.317333 33.621333 127.317333 127.658667 0 59.221333-27.136 88.405333-45.226667 107.690667-4.266667 4.608-10.24 11.093333-11.093333 13.482666v5.290667h77.653333c31.914667 0 57.856 25.941333 57.856 57.856v96.597333z m-368.981334-51.2h317.781334v-45.568a6.656 6.656 0 0 0-6.656-6.656H570.026667c-34.645333 0-34.645333-29.184-34.645334-57.514666 0-20.992 13.141333-34.986667 24.746667-47.445334 15.530667-16.554667 31.402667-33.621333 31.402667-72.704 0-50.688-25.6-76.458667-76.117334-76.458666-30.549333 0-81.578667 9.898667-81.578666 76.458666 0 41.472 18.090667 60.928 33.962666 77.994667 11.093333 11.946667 22.528 24.405333 22.528 42.154667 0 13.312 0 22.698667-2.218666 30.890666-4.266667 16.384-17.237333 26.624-33.962667 26.624h-94.72a6.656 6.656 0 0 0-6.656 6.656l0.341333 45.568zM696.490667 836.266667H327.509333c-14.165333 0-25.6-11.434667-25.6-25.6s11.434667-25.6 25.6-25.6h368.981334c14.165333 0 25.6 11.434667 25.6 25.6s-11.434667 25.6-25.6 25.6z"  /></svg>