<?xml version="1.0" standalone="no"?><!DOCTYPE svg PUBLIC "-//W3C//DTD SVG 1.1//EN" "http://www.w3.org/Graphics/SVG/1.1/DTD/svg11.dtd"><svg class="icon" width="64px" height="64.00px" viewBox="0 0 1024 1024" version="1.1" xmlns="http://www.w3.org/2000/svg"><path  d="M386.56 85.333333l85.162667 115.712 15.36 20.821334h435.541333c9.386667 0 17.066667 7.68 17.066667 17.066666v682.666667c0 9.386667-7.68 17.066667-17.066667 17.066667h-819.2c-9.386667 0-17.066667-7.68-17.066667-17.066667V102.4c0-9.386667 7.68-17.066667 17.066667-17.066667h283.136m25.941333-51.2H103.253333c-37.717333 0-68.266667 30.549333-68.266666 68.266667v819.2c0 37.717333 30.549333 68.266667 68.266666 68.266667h819.2c37.717333 0 68.266667-30.549333 68.266667-68.266667V238.933333c0-37.717333-30.549333-68.266667-68.266667-68.266666h-409.6l-100.352-136.533334z"  /><path  d="M718.848 767.488H307.712c-14.165333 0-25.6-11.434667-25.6-25.6s11.434667-25.6 25.6-25.6h411.136c14.165333 0 25.6 11.434667 25.6 25.6s-11.434667 25.6-25.6 25.6zM718.848 863.573333H307.712c-14.165333 0-25.6-11.434667-25.6-25.6s11.434667-25.6 25.6-25.6h411.136c14.165333 0 25.6 11.434667 25.6 25.6s-11.434667 25.6-25.6 25.6zM512.853333 339.456c24.917333 0 45.056 20.138667 45.056 45.056s-20.138667 45.056-45.056 45.056-45.056-20.138667-45.056-45.056 20.309333-45.056 45.056-45.056m0-51.2c-53.077333 0-96.256 43.178667-96.256 96.256s43.178667 96.256 96.256 96.256 96.256-43.178667 96.256-96.256-43.008-96.256-96.256-96.256zM570.538667 552.448c24.234667 0 28.16 0 33.792 1.194667 37.546667 7.338667 68.778667 34.304 82.090666 69.461333H339.456c13.312-35.157333 44.373333-62.293333 82.090667-69.461333 5.632-1.024 9.557333-1.194667 33.792-1.194667h115.2m0-51.2h-115.370667c-25.258667 0-32.597333 0-43.52 2.048a161.877333 161.877333 0 0 0-127.488 127.488c-2.048 10.922667-2.048 18.261333-2.048 43.52h461.482667c0-25.258667 0-32.597333-2.048-43.52a161.877333 161.877333 0 0 0-127.488-127.488c-10.752-2.048-18.261333-2.048-43.52-2.048z"  /></svg>