<?xml version="1.0" standalone="no"?><!DOCTYPE svg PUBLIC "-//W3C//DTD SVG 1.1//EN" "http://www.w3.org/Graphics/SVG/1.1/DTD/svg11.dtd"><svg class="icon" width="64px" height="64.00px" viewBox="0 0 1024 1024" version="1.1" xmlns="http://www.w3.org/2000/svg"><path  d="M853.333333 921.6H170.666667c-61.44 0-110.933333-49.493333-110.933334-110.933333v-426.666667c0-61.44 49.493333-110.933333 110.933334-110.933333h682.666666c61.44 0 110.933333 49.493333 110.933334 110.933333v426.666667c0 61.44-49.493333 110.933333-110.933334 110.933333zM170.666667 324.266667c-32.426667 0-59.733333 27.306667-59.733334 59.733333v426.666667c0 32.426667 27.306667 59.733333 59.733334 59.733333h682.666666c32.426667 0 59.733333-27.306667 59.733334-59.733333v-426.666667c0-32.426667-27.306667-59.733333-59.733334-59.733333H170.666667z"  /><path  d="M682.666667 921.6c-13.653333 0-25.6-11.946667-25.6-25.6v-682.666667c0-32.426667-27.306667-59.733333-59.733334-59.733333H426.666667c-32.426667 0-59.733333 27.306667-59.733334 59.733333v682.666667c0 13.653333-11.946667 25.6-25.6 25.6s-25.6-11.946667-25.6-25.6v-682.666667C315.733333 151.893333 365.226667 102.4 426.666667 102.4h170.666666c61.44 0 110.933333 49.493333 110.933334 110.933333v682.666667c0 13.653333-11.946667 25.6-25.6 25.6z"  /><path  d="M512 747.52c-44.373333 0-81.92-35.84-81.92-81.92s35.84-81.92 81.92-81.92 81.92 35.84 81.92 81.92-37.546667 81.92-81.92 81.92z m0-110.933333c-17.066667 0-30.72 13.653333-30.72 30.72s13.653333 30.72 30.72 30.72 30.72-13.653333 30.72-30.72-13.653333-30.72-30.72-30.72z"  /></svg>