<?xml version="1.0" standalone="no"?><!DOCTYPE svg PUBLIC "-//W3C//DTD SVG 1.1//EN" "http://www.w3.org/Graphics/SVG/1.1/DTD/svg11.dtd"><svg class="icon" width="64px" height="64.00px" viewBox="0 0 1024 1024" version="1.1" xmlns="http://www.w3.org/2000/svg"><path  d="M887.466667 380.586667H136.533333c-42.666667 0-76.8-34.133333-76.8-76.8v-119.466667c0-42.666667 34.133333-76.8 76.8-76.8h750.933334c42.666667 0 76.8 34.133333 76.8 76.8v119.466667c0 42.666667-34.133333 76.8-76.8 76.8zM136.533333 158.72c-13.653333 0-25.6 11.946667-25.6 25.6v119.466667c0 13.653333 11.946667 25.6 25.6 25.6h750.933334c13.653333 0 25.6-11.946667 25.6-25.6v-119.466667c0-13.653333-11.946667-25.6-25.6-25.6H136.533333z"  /><path  d="M447.146667 262.826667h-273.066667c-13.653333 0-25.6-11.946667-25.6-25.6s11.946667-25.6 25.6-25.6h273.066667c13.653333 0 25.6 11.946667 25.6 25.6s-11.946667 25.6-25.6 25.6zM887.466667 916.48H136.533333c-42.666667 0-76.8-34.133333-76.8-76.8V508.586667c0-42.666667 34.133333-76.8 76.8-76.8h750.933334c42.666667 0 76.8 34.133333 76.8 76.8v331.093333c0 42.666667-34.133333 76.8-76.8 76.8zM136.533333 482.986667c-13.653333 0-25.6 11.946667-25.6 25.6v331.093333c0 13.653333 11.946667 25.6 25.6 25.6h750.933334c13.653333 0 25.6-11.946667 25.6-25.6V508.586667c0-13.653333-11.946667-25.6-25.6-25.6H136.533333z"  /><path  d="M447.146667 588.8h-273.066667c-13.653333 0-25.6-11.946667-25.6-25.6s11.946667-25.6 25.6-25.6h273.066667c13.653333 0 25.6 11.946667 25.6 25.6s-11.946667 25.6-25.6 25.6zM933.546667 723.626667h-836.266667c-13.653333 0-25.6-11.946667-25.6-25.6s11.946667-25.6 25.6-25.6h836.266667c13.653333 0 25.6 11.946667 25.6 25.6s-11.946667 25.6-25.6 25.6z"  /></svg>