<?xml version="1.0" standalone="no"?><!DOCTYPE svg PUBLIC "-//W3C//DTD SVG 1.1//EN" "http://www.w3.org/Graphics/SVG/1.1/DTD/svg11.dtd"><svg class="icon" width="64px" height="64.00px" viewBox="0 0 1024 1024" version="1.1" xmlns="http://www.w3.org/2000/svg"><path  d="M649.216 929.621333H128a94.037333 94.037333 0 0 1-93.866667-93.866666V454.314667c0-34.645333 18.944-66.389333 49.664-82.773334s67.584-14.506667 96.426667 4.778667l305.664 204.288c14.336 9.557333 32.938667 9.557333 47.445333 0l305.834667-204.288a93.696 93.696 0 0 1 96.426667-4.778667c30.549333 16.384 49.664 48.128 49.664 82.773334v127.317333c0 14.165333-11.434667 25.6-25.6 25.6s-25.6-11.434667-25.6-25.6v-127.317333c0-16.042667-8.362667-30.037333-22.528-37.717334-14.165333-7.509333-30.549333-6.656-43.861334 2.218667L561.664 622.933333a93.576533 93.576533 0 0 1-104.277333 0L151.722667 418.816c-13.312-8.874667-29.696-9.728-43.861334-2.218667-14.165333 7.509333-22.528 21.674667-22.528 37.717334v381.610666a42.666667 42.666667 0 0 0 42.666667 42.666667h521.216c14.165333 0 25.6 11.434667 25.6 25.6s-11.434667 25.429333-25.6 25.429333z"  /><path  d="M811.690667 450.901333c-14.165333 0-25.6-11.434667-25.6-25.6V188.245333a42.666667 42.666667 0 0 0-42.666667-42.666666h-467.626667a42.666667 42.666667 0 0 0-42.666666 42.666666v237.056c0 14.165333-11.434667 25.6-25.6 25.6s-25.6-11.434667-25.6-25.6V188.245333c0-51.712 42.154667-93.866667 93.866666-93.866666h467.626667c51.712 0 93.866667 42.154667 93.866667 93.866666v237.056c0 14.165333-11.434667 25.6-25.6 25.6z"  /><path  d="M640.853333 267.946667H378.368c-14.165333 0-25.6-11.434667-25.6-25.6s11.434667-25.6 25.6-25.6h262.485333c14.165333 0 25.6 11.434667 25.6 25.6s-11.434667 25.6-25.6 25.6zM509.610667 404.650667h-131.242667c-14.165333 0-25.6-11.434667-25.6-25.6s11.434667-25.6 25.6-25.6h131.242667c14.165333 0 25.6 11.434667 25.6 25.6s-11.434667 25.6-25.6 25.6zM811.52 894.976c-6.485333 0-13.141333-2.56-18.090667-7.509333l-87.210666-87.210667c-10.069333-10.069333-10.069333-26.282667 0-36.181333s26.282667-10.069333 36.181333 0l87.210667 87.210666c10.069333 10.069333 10.069333 26.282667 0 36.181334-4.949333 4.949333-11.434667 7.509333-18.090667 7.509333z"  /><path  d="M811.52 894.976c-6.485333 0-13.141333-2.56-18.090667-7.509333a25.429333 25.429333 0 0 1 0-36.181334l152.746667-152.746666c10.069333-10.069333 26.282667-10.069333 36.181333 0s10.069333 26.282667 0 36.181333L829.610667 887.466667c-4.949333 4.949333-11.434667 7.509333-18.090667 7.509333z"  /></svg>