<?xml version="1.0" standalone="no"?><!DOCTYPE svg PUBLIC "-//W3C//DTD SVG 1.1//EN" "http://www.w3.org/Graphics/SVG/1.1/DTD/svg11.dtd"><svg class="icon" width="64px" height="64.00px" viewBox="0 0 1024 1024" version="1.1" xmlns="http://www.w3.org/2000/svg"><path  d="M823.637333 386.56c13.994667 0 26.794667 5.802667 36.010667 16.554667 9.216 10.581333 13.141333 24.234667 10.922667 38.058666l-68.949334 457.898667a47.2576 47.2576 0 0 1-46.933333 40.448H269.312c-23.722667 0-43.52-17.066667-46.933333-40.448L153.429333 441.173333c-2.048-13.824 1.877333-27.477333 10.922667-38.058666a47.274667 47.274667 0 0 1 36.010667-16.554667h623.274666m0-51.2H200.362667c-60.416 0-106.666667 53.76-97.621334 113.322667l68.949334 457.728a98.747733 98.747733 0 0 0 97.621333 83.968h485.376c48.810667 0 90.282667-35.669333 97.621333-83.968l68.949334-457.728c9.045333-59.562667-37.205333-113.322667-97.621334-113.322667z"  /><path  d="M923.136 388.437333H100.864c-14.165333 0-25.6-11.434667-25.6-25.6s11.434667-25.6 25.6-25.6h822.101333c14.165333 0 25.6 11.434667 25.6 25.6s-11.264 25.6-25.429333 25.6zM686.592 627.370667H337.408c-14.165333 0-25.6-11.434667-25.6-25.6s11.434667-25.6 25.6-25.6h349.184c14.165333 0 25.6 11.434667 25.6 25.6s-11.434667 25.6-25.6 25.6zM634.88 749.909333H389.12c-14.165333 0-25.6-11.434667-25.6-25.6s11.434667-25.6 25.6-25.6h245.76c14.165333 0 25.6 11.434667 25.6 25.6s-11.434667 25.6-25.6 25.6zM219.818667 269.653333c-6.485333 0-13.141333-2.56-18.090667-7.509333a25.429333 25.429333 0 0 1 0-36.181333L385.194667 42.496c10.069333-10.069333 26.282667-10.069333 36.181333 0s10.069333 26.282667 0 36.181333L237.909333 262.144c-5.12 4.949333-11.605333 7.509333-18.090666 7.509333zM804.181333 269.653333c-6.485333 0-13.141333-2.56-18.090666-7.509333L602.624 78.677333c-10.069333-10.069333-10.069333-26.282667 0-36.181333s26.282667-10.069333 36.181333 0l183.466667 183.466667c10.069333 10.069333 10.069333 26.282667 0 36.181333-4.949333 4.949333-11.434667 7.509333-18.090667 7.509333z"  /></svg>