<?xml version="1.0" standalone="no"?><!DOCTYPE svg PUBLIC "-//W3C//DTD SVG 1.1//EN" "http://www.w3.org/Graphics/SVG/1.1/DTD/svg11.dtd"><svg class="icon" width="64px" height="64.00px" viewBox="0 0 1024 1024" version="1.1" xmlns="http://www.w3.org/2000/svg"><path  d="M963.925333 989.354667H60.074667c-14.848 0-26.794667-11.946667-26.794667-26.794667V328.362667c0-14.848 12.117333-26.794667 26.794667-26.794667h903.850666c14.848 0 26.794667 11.946667 26.794667 26.794667V962.56c0 14.848-12.117333 26.794667-26.794667 26.794667z m-879.445333-51.2h855.04v-585.386667H84.48v585.386667z"  /><path  d="M965.12 352.768H58.88c-9.386667 0-18.090667-5.12-22.528-13.482667s-4.096-18.432 1.194667-26.282666l155.136-235.861334a93.696 93.696 0 0 1 78.336-42.325333h481.962666c31.744 0 60.928 15.872 78.336 42.325333l155.136 235.861334c5.12 7.850667 5.632 17.92 1.194667 26.282666s-13.141333 13.482667-22.528 13.482667z m-858.794667-51.2h811.349334l-129.024-196.266667a42.24 42.24 0 0 0-35.669334-19.285333H271.018667c-14.336 0-27.818667 7.168-35.669334 19.285333l-129.024 196.266667zM402.432 500.906667h-215.04c-14.165333 0-25.6-11.434667-25.6-25.6s11.434667-25.6 25.6-25.6h215.04c14.165333 0 25.6 11.434667 25.6 25.6s-11.434667 25.6-25.6 25.6zM317.098667 645.461333h-129.706667c-14.165333 0-25.6-11.434667-25.6-25.6s11.434667-25.6 25.6-25.6h129.706667c14.165333 0 25.6 11.434667 25.6 25.6s-11.434667 25.6-25.6 25.6zM847.872 752.981333H455.168c-14.165333 0-25.6-11.434667-25.6-25.6s11.434667-25.6 25.6-25.6h392.704c14.165333 0 25.6 11.434667 25.6 25.6s-11.434667 25.6-25.6 25.6z"  /><path  d="M847.872 752.981333c-6.485333 0-13.141333-2.56-18.090667-7.509333l-102.4-102.4c-10.069333-10.069333-10.069333-26.282667 0-36.181333s26.282667-10.069333 36.181334 0l102.4 102.4c10.069333 10.069333 10.069333 26.282667 0 36.181333-4.949333 4.949333-11.605333 7.509333-18.090667 7.509333z"  /><path  d="M745.472 855.381333c-6.485333 0-13.141333-2.56-18.090667-7.509333a25.429333 25.429333 0 0 1 0-36.181333l102.4-102.4c10.069333-10.069333 26.282667-10.069333 36.181334 0s10.069333 26.282667 0 36.181333l-102.4 102.4c-4.949333 4.949333-11.434667 7.509333-18.090667 7.509333zM486.4 60.586667h51.2v266.581333h-51.2z"  /></svg>