<?xml version="1.0" standalone="no"?><!DOCTYPE svg PUBLIC "-//W3C//DTD SVG 1.1//EN" "http://www.w3.org/Graphics/SVG/1.1/DTD/svg11.dtd"><svg class="icon" width="64px" height="64.00px" viewBox="0 0 1024 1024" version="1.1" xmlns="http://www.w3.org/2000/svg"><path d="M921.6 85.333333c9.386667 0 17.066667 7.68 17.066667 17.066667v819.2c0 9.386667-7.68 17.066667-17.066667 17.066667H102.4c-9.386667 0-17.066667-7.68-17.066667-17.066667V102.4c0-9.386667 7.68-17.066667 17.066667-17.066667h819.2m0-51.2H102.4C64.682667 34.133333 34.133333 64.682667 34.133333 102.4v819.2c0 37.717333 30.549333 68.266667 68.266667 68.266667h819.2c37.717333 0 68.266667-30.549333 68.266667-68.266667V102.4c0-37.717333-30.549333-68.266667-68.266667-68.266667z" /><path d="M573.269333 213.504c9.386667 0 17.066667 7.68 17.066667 17.066667v143.36H279.893333c-9.386667 0-17.066667-7.68-17.066666-17.066667v-126.293333c0-9.386667 7.68-17.066667 17.066666-17.066667h293.376m0-51.2H279.893333c-37.717333 0-68.266667 30.549333-68.266666 68.266667v126.293333c0 37.717333 30.549333 68.266667 68.266666 68.266667h361.642667v-194.56c0-37.717333-30.549333-68.266667-68.266667-68.266667z" /><path d="M744.106667 306.346667c9.386667 0 17.066667 7.68 17.066666 17.066666v33.450667c0 9.386667-7.68 17.066667-17.066666 17.066667h-102.058667v-67.584h102.058667m0-51.2h-153.258667v169.984h153.258667c37.717333 0 68.266667-30.549333 68.266666-68.266667v-33.450667c0-37.717333-30.549333-68.266667-68.266666-68.266666z" /><path d="M357.546667 399.701333m-45.397334 0a45.397333 45.397333 0 1 0 90.794667 0 45.397333 45.397333 0 1 0-90.794667 0Z" /><path d="M357.546667 457.898667c-32.085333 0-58.197333-26.112-58.197334-58.197334 0-32.085333 26.112-58.197333 58.197334-58.197333 32.085333 0 58.197333 26.112 58.197333 58.197333 0 32.085333-26.112 58.197333-58.197333 58.197334z m0-90.794667c-17.92 0-32.597333 14.677333-32.597334 32.597333 0 17.92 14.677333 32.597333 32.597334 32.597334 17.92 0 32.597333-14.677333 32.597333-32.597334 0-17.92-14.677333-32.597333-32.597333-32.597333z" /><path d="M663.04 399.701333m-45.397333 0a45.397333 45.397333 0 1 0 90.794666 0 45.397333 45.397333 0 1 0-90.794666 0Z" /><path d="M663.04 457.898667c-32.085333 0-58.197333-26.112-58.197333-58.197334 0-32.085333 26.112-58.197333 58.197333-58.197333s58.197333 26.112 58.197333 58.197333c-0.170667 32.085333-26.282667 58.197333-58.197333 58.197334z m0-90.794667c-17.92 0-32.597333 14.677333-32.597333 32.597333 0 17.92 14.677333 32.597333 32.597333 32.597334s32.597333-14.677333 32.597333-32.597334a32.8192 32.8192 0 0 0-32.597333-32.597333z" /><path d="M425.472 666.453333h-215.04c-14.165333 0-25.6-11.434667-25.6-25.6s11.434667-25.6 25.6-25.6h215.04c14.165333 0 25.6 11.434667 25.6 25.6s-11.605333 25.6-25.6 25.6zM340.138667 786.261333h-129.706667c-14.165333 0-25.6-11.434667-25.6-25.6s11.434667-25.6 25.6-25.6h129.706667c14.165333 0 25.6 11.434667 25.6 25.6s-11.605333 25.6-25.6 25.6zM813.568 725.333333H600.746667c-14.165333 0-25.6-11.434667-25.6-25.6s11.434667-25.6 25.6-25.6h212.821333c14.165333 0 25.6 11.434667 25.6 25.6s-11.434667 25.6-25.6 25.6z" /><path d="M813.568 725.333333c-6.485333 0-13.141333-2.56-18.090667-7.509333l-55.466666-55.466667c-10.069333-10.069333-10.069333-26.282667 0-36.181333s26.282667-10.069333 36.181333 0l55.466667 55.466667c10.069333 10.069333 10.069333 26.282667 0 36.181333-4.949333 4.949333-11.605333 7.509333-18.090667 7.509333z" /><path d="M758.101333 780.8c-6.485333 0-13.141333-2.56-18.090666-7.509333a25.429333 25.429333 0 0 1 0-36.181334l55.466666-55.466666c10.069333-10.069333 26.282667-10.069333 36.181334 0s10.069333 26.282667 0 36.181333l-55.466667 55.466667c-4.949333 4.949333-11.605333 7.509333-18.090667 7.509333z" /></svg>