<?xml version="1.0" standalone="no"?><!DOCTYPE svg PUBLIC "-//W3C//DTD SVG 1.1//EN" "http://www.w3.org/Graphics/SVG/1.1/DTD/svg11.dtd"><svg class="icon" width="64px" height="64.00px" viewBox="0 0 1024 1024" version="1.1" xmlns="http://www.w3.org/2000/svg"><path  d="M265.557333 927.402667a25.429333 25.429333 0 0 1-25.6-25.6v-86.357334H64a25.6 25.6 0 0 1-25.6-25.6V117.930667a25.6 25.6 0 0 1 25.6-25.6h896a25.6 25.6 0 0 1 25.6 25.6v671.914666a25.6 25.6 0 0 1-25.6 25.6H494.933333l-217.941333 109.397334a26.624 26.624 0 0 1-11.434667 2.56zM89.6 764.245333h175.957333a25.6 25.6 0 0 1 25.6 25.6v70.656l187.733334-93.525333a26.282667 26.282667 0 0 1 11.434666-2.730667h444.074667V143.530667H89.6z"  /><path  d="M736.085333 479.402667H288.085333a25.6 25.6 0 1 1 0-51.2h448a25.6 25.6 0 0 1 0 51.2z"  /></svg>