<?xml version="1.0" standalone="no"?><!DOCTYPE svg PUBLIC "-//W3C//DTD SVG 1.1//EN" "http://www.w3.org/Graphics/SVG/1.1/DTD/svg11.dtd"><svg class="icon" width="64px" height="64.00px" viewBox="0 0 1024 1024" version="1.1" xmlns="http://www.w3.org/2000/svg"><path  d="M512 980.821333a471.552 471.552 0 1 1 471.381333-471.381333A471.893333 471.893333 0 0 1 512 980.821333z m0-891.733333a420.352 420.352 0 1 0 420.181333 420.352A420.864 420.864 0 0 0 512 89.088z"  /><path  d="M464.725333 582.314667a26.112 26.112 0 0 1-18.090666-7.509334 25.770667 25.770667 0 0 1 0-36.181333L541.184 443.733333a25.770667 25.770667 0 1 1 36.352 36.352l-94.72 94.549334a25.429333 25.429333 0 0 1-18.090667 7.68z"  /><path  d="M701.269333 597.333333a26.112 26.112 0 0 1-18.602666-6.826666 25.770667 25.770667 0 0 1 0-36.181334l31.573333-31.573333a63.829333 63.829333 0 0 0 0-89.941333L588.458667 307.2a63.488 63.488 0 0 0-89.770667 0l-31.573333 31.402667a25.6 25.6 0 0 1-36.181334-36.181334l31.573334-31.402666a114.858667 114.858667 0 0 1 162.304 0L750.933333 396.629333a115.029333 115.029333 0 0 1 0 162.304l-31.573333 31.573334a26.112 26.112 0 0 1-18.090667 6.826666zM480.597333 781.653333a114.346667 114.346667 0 0 1-81.237333-34.133333L273.066667 622.08a115.029333 115.029333 0 0 1 0-162.304l31.573333-31.573333A25.6 25.6 0 1 1 341.333333 464.384l-31.573333 31.573333a63.829333 63.829333 0 0 0 0 89.941334l126.122667 125.952a63.488 63.488 0 0 0 89.941333 0l31.573333-31.402667a25.429333 25.429333 0 0 1 36.181334 0 25.770667 25.770667 0 0 1 0 36.181333l-31.573334 31.573334a114.176 114.176 0 0 1-81.408 33.450666z"  /></svg>