<?xml version="1.0" standalone="no"?><!DOCTYPE svg PUBLIC "-//W3C//DTD SVG 1.1//EN" "http://www.w3.org/Graphics/SVG/1.1/DTD/svg11.dtd"><svg class="icon" width="64px" height="64.00px" viewBox="0 0 1024 1024" version="1.1" xmlns="http://www.w3.org/2000/svg"><path  d="M938.666667 411.306667H638.293333c-13.653333 0-25.6-11.946667-25.6-25.6V85.333333c0-13.653333 11.946667-25.6 25.6-25.6s25.6 11.946667 25.6 25.6v276.48H938.666667c13.653333 0 25.6 11.946667 25.6 25.6s-10.24 23.893333-25.6 23.893334zM59.733333 387.413333c-13.653333 0-25.6-11.946667-25.6-25.6V59.733333C34.133333 46.08 46.08 34.133333 59.733333 34.133333h302.08c13.653333 0 25.6 11.946667 25.6 25.6S375.466667 85.333333 361.813333 85.333333H85.333333v276.48c0 13.653333-11.946667 25.6-25.6 25.6zM964.266667 989.866667H662.186667c-13.653333 0-25.6-11.946667-25.6-25.6S648.533333 938.666667 662.186667 938.666667H938.666667V662.186667c0-13.653333 11.946667-25.6 25.6-25.6s25.6 11.946667 25.6 25.6v302.08c0 13.653333-11.946667 25.6-25.6 25.6zM385.706667 964.266667c-13.653333 0-25.6-11.946667-25.6-25.6V663.893333H85.333333c-13.653333 0-25.6-11.946667-25.6-25.6s11.946667-25.6 25.6-25.6h302.08c13.653333 0 25.6 11.946667 25.6 25.6V938.666667c-1.706667 15.36-11.946667 25.6-27.306666 25.6z"  /><path  d="M638.293333 411.306667c-6.826667 0-13.653333-1.706667-18.773333-6.826667-10.24-10.24-10.24-25.6 0-35.84L945.493333 40.96c10.24-10.24 25.6-10.24 35.84 0s10.24 25.6 0 35.84L655.36 404.48c-5.12 5.12-11.946667 6.826667-17.066667 6.826667zM59.733333 989.866667c-6.826667 0-13.653333-1.706667-18.773333-6.826667-10.24-10.24-10.24-25.6 0-35.84l325.973333-325.973333c10.24-10.24 25.6-10.24 35.84 0s10.24 25.6 0 35.84l-324.266666 325.973333c-5.12 5.12-11.946667 6.826667-18.773334 6.826667z"  /></svg>