<?xml version="1.0" standalone="no"?><!DOCTYPE svg PUBLIC "-//W3C//DTD SVG 1.1//EN" "http://www.w3.org/Graphics/SVG/1.1/DTD/svg11.dtd"><svg class="icon" width="64px" height="64.00px" viewBox="0 0 1024 1024" version="1.1" xmlns="http://www.w3.org/2000/svg"><path  d="M512 982.869333A470.698667 470.698667 0 1 1 982.186667 512 471.210667 471.210667 0 0 1 512 982.869333z m0-890.026666A419.498667 419.498667 0 1 0 930.986667 512 419.84 419.84 0 0 0 512 92.842667z"  /><path  d="M400.384 760.32a141.141333 141.141333 0 0 1-26.794667-2.56 136.533333 136.533333 0 0 1 26.624-271.189333 25.6 25.6 0 0 1 0 51.2 85.333333 85.333333 0 0 0-79.189333 52.906666 85.333333 85.333333 0 0 0 18.602667 93.354667 85.333333 85.333333 0 0 0 146.261333-60.586667v-221.866666A136.533333 136.533333 0 0 1 508.928 324.266667a136.533333 136.533333 0 0 1 140.629333-58.197334 136.533333 136.533333 0 0 1-26.794666 271.018667 25.6 25.6 0 0 1 0-51.2 85.333333 85.333333 0 1 0-85.333334-85.333333v221.866666a136.533333 136.533333 0 0 1-84.48 126.464 135.168 135.168 0 0 1-52.565333 11.434667z"  /></svg>