<?xml version="1.0" standalone="no"?><!DOCTYPE svg PUBLIC "-//W3C//DTD SVG 1.1//EN" "http://www.w3.org/Graphics/SVG/1.1/DTD/svg11.dtd"><svg class="icon" width="64px" height="64.00px" viewBox="0 0 1024 1024" version="1.1" xmlns="http://www.w3.org/2000/svg"><path  d="M780.970667 932.181333a25.6 25.6 0 0 1-18.090667-7.509333l-59.733333-59.733333H467.114667a25.6 25.6 0 0 1-25.6-25.6v-179.2a25.6 25.6 0 0 1 25.6-25.6h288.256v-153.6a25.6 25.6 0 0 1 25.6-25.6h179.370666a25.6 25.6 0 0 1 25.6 25.6v358.4a25.6 25.6 0 0 1-25.6 25.6h-102.4l-59.733333 59.733333a25.6 25.6 0 0 1-17.237333 7.509333z m-288.256-118.442666h221.866666a25.6 25.6 0 0 1 18.090667 7.509333L780.970667 870.4l49.152-49.152a25.6 25.6 0 0 1 18.090666-7.509333h86.528v-307.2h-128.170666v153.6a25.6 25.6 0 0 1-25.6 25.6H492.714667z"  /><path  d="M265.386667 775.338667a26.112 26.112 0 0 1-18.090667-7.338667l-82.090667-82.261333H63.658667a25.6 25.6 0 0 1-25.6-25.6V122.026667a25.6 25.6 0 0 1 25.6-25.6h716.8a25.6 25.6 0 0 1 25.6 25.6v538.112a25.6 25.6 0 0 1-25.6 25.6h-414.72L283.477333 768a25.429333 25.429333 0 0 1-18.090666 7.338667zM89.258667 634.538667h86.528a24.917333 24.917333 0 0 1 18.090666 7.509333l71.509334 71.509333 71.68-71.509333a24.917333 24.917333 0 0 1 18.090666-7.509333h400.213334V147.626667h-665.6z"  /><path  d="M377.514667 506.368h-134.485334a25.6 25.6 0 0 1 0-51.2h134.485334a25.6 25.6 0 1 1 0 51.2zM512 326.997333H243.029333a25.6 25.6 0 1 1 0-51.2H512a25.6 25.6 0 0 1 0 51.2z"  /></svg>