<?xml version="1.0" standalone="no"?><!DOCTYPE svg PUBLIC "-//W3C//DTD SVG 1.1//EN" "http://www.w3.org/Graphics/SVG/1.1/DTD/svg11.dtd"><svg class="icon" width="64px" height="64.00px" viewBox="0 0 1024 1024" version="1.1" xmlns="http://www.w3.org/2000/svg"><path  d="M512 447.317333a25.6 25.6 0 0 1-25.6-25.6V105.984a25.6 25.6 0 0 1 51.2 0v315.733333a25.6 25.6 0 0 1-25.6 25.6z"  /><path  d="M512 447.317333a25.088 25.088 0 0 1-18.090667-7.509333L358.4 304.469333a25.429333 25.429333 0 0 1 0-36.181333 25.770667 25.770667 0 0 1 36.181333 0L512 385.536l117.248-117.248a25.770667 25.770667 0 0 1 36.181333 0 25.429333 25.429333 0 0 1 0 36.181333l-135.338666 135.338667a25.088 25.088 0 0 1-18.090667 7.509333z"  /><path  d="M963.242667 943.616H60.757333a25.6 25.6 0 0 1-25.6-25.6V331.605333a25.6 25.6 0 0 1 25.6-25.6h180.565334a25.6 25.6 0 0 1 0 51.2H86.357333v535.210667h851.285334V357.205333h-154.965334a25.6 25.6 0 0 1 0-51.2h180.565334a25.6 25.6 0 0 1 25.6 25.6v586.410667a25.6 25.6 0 0 1-25.6 25.6z"  /><path  d="M512 695.466667a25.6 25.6 0 0 1-15.36-5.12L45.397333 352.085333a25.770667 25.770667 0 0 1-5.12-35.84 25.429333 25.429333 0 0 1 35.84-5.12L512 637.952l435.882667-326.826667a25.429333 25.429333 0 0 1 35.84 5.12 25.770667 25.770667 0 0 1-5.12 35.84L527.36 690.346667a25.6 25.6 0 0 1-15.36 5.12z"  /></svg>