<?xml version="1.0" standalone="no"?><!DOCTYPE svg PUBLIC "-//W3C//DTD SVG 1.1//EN" "http://www.w3.org/Graphics/SVG/1.1/DTD/svg11.dtd"><svg class="icon" width="64px" height="64.00px" viewBox="0 0 1024 1024" version="1.1" xmlns="http://www.w3.org/2000/svg"><path  d="M897.706667 989.866667H126.293333c-51.2 0-92.16-40.96-92.16-92.16V126.293333C34.133333 75.093333 75.093333 34.133333 126.293333 34.133333h769.706667c51.2 0 92.16 40.96 92.16 92.16v769.706667c1.706667 52.906667-39.253333 93.866667-90.453333 93.866667zM126.293333 85.333333C104.106667 85.333333 85.333333 104.106667 85.333333 126.293333v769.706667C85.333333 919.893333 104.106667 938.666667 126.293333 938.666667h769.706667c22.186667 0 40.96-18.773333 40.96-40.96V126.293333c1.706667-22.186667-17.066667-40.96-39.253333-40.96H126.293333z"  /><path  d="M721.92 814.08H353.28c-22.186667 0-42.666667-18.773333-42.666667-40.96l-1.706666-58.026667H64.853333c-13.653333 0-25.6-11.946667-25.6-25.6s11.946667-25.6 25.6-25.6h252.586667c22.186667 0 42.666667 18.773333 42.666667 40.96l1.706666 58.026667h351.573334v-58.026667c0-23.893333 18.773333-42.666667 42.666666-42.666666h209.92c13.653333 0 25.6 11.946667 25.6 25.6s-11.946667 25.6-25.6 25.6H764.586667v58.026666c0 23.893333-20.48 42.666667-42.666667 42.666667z m-404.48-100.693333z"  /><path  d="M964.266667 839.68c-13.653333 0-25.6-11.946667-25.6-25.6V561.493333c0-13.653333 11.946667-25.6 25.6-25.6s25.6 11.946667 25.6 25.6v250.88c0 15.36-11.946667 27.306667-25.6 27.306667zM512 638.293333c-6.826667 0-13.653333-1.706667-18.773333-6.826666l-150.186667-150.186667c-10.24-10.24-10.24-25.6 0-35.84 10.24-10.24 25.6-10.24 35.84 0l133.12 133.12 133.12-133.12c10.24-10.24 25.6-10.24 35.84 0 10.24 10.24 10.24 25.6 0 35.84L530.773333 631.466667c-5.12 3.413333-11.946667 6.826667-18.773333 6.826666z"  /><path  d="M512 638.293333c-13.653333 0-25.6-11.946667-25.6-25.6V209.92c0-13.653333 11.946667-25.6 25.6-25.6s25.6 11.946667 25.6 25.6v402.773333c0 13.653333-11.946667 25.6-25.6 25.6zM59.733333 839.68c-13.653333 0-25.6-11.946667-25.6-25.6V561.493333c0-13.653333 11.946667-25.6 25.6-25.6s25.6 11.946667 25.6 25.6v250.88c0 15.36-11.946667 27.306667-25.6 27.306667z"  /></svg>