<?xml version="1.0" standalone="no"?><!DOCTYPE svg PUBLIC "-//W3C//DTD SVG 1.1//EN" "http://www.w3.org/Graphics/SVG/1.1/DTD/svg11.dtd"><svg class="icon" width="64px" height="64.00px" viewBox="0 0 1024 1024" version="1.1" xmlns="http://www.w3.org/2000/svg"><path  d="M361.813333 989.866667h-204.8c-51.2 0-92.16-40.96-92.16-92.16v-750.933334c0-13.653333 11.946667-25.6 25.6-25.6s25.6 11.946667 25.6 25.6v750.933334c0 22.186667 18.773333 40.96 40.96 40.96h204.8c13.653333 0 25.6 11.946667 25.6 25.6S375.466667 989.866667 361.813333 989.866667z"  /><path  d="M894.293333 387.413333c-13.653333 0-25.6-11.946667-25.6-25.6v-102.4H175.786667c-61.44 0-112.64-51.2-112.64-112.64S114.346667 34.133333 175.786667 34.133333h716.8c13.653333 0 25.6 11.946667 25.6 25.6S907.946667 85.333333 894.293333 85.333333h-716.8c-34.133333 0-61.44 27.306667-61.44 61.44s27.306667 61.44 61.44 61.44h716.8c13.653333 0 25.6 11.946667 25.6 25.6v128c0 13.653333-11.946667 25.6-25.6 25.6z"  /><path  d="M884.053333 168.96H192.853333c-13.653333 0-25.6-11.946667-25.6-25.6s11.946667-25.6 25.6-25.6h692.906667c13.653333 0 25.6 11.946667 25.6 25.6s-11.946667 25.6-27.306667 25.6z"  /><path  d="M682.666667 989.866667c-151.893333 0-276.48-124.586667-276.48-276.48 0-151.893333 124.586667-276.48 276.48-276.48 151.893333 0 276.48 124.586667 276.48 276.48C960.853333 865.28 836.266667 989.866667 682.666667 989.866667z m0-501.76c-124.586667 0-225.28 100.693333-225.28 225.28C457.386667 837.973333 558.08 938.666667 682.666667 938.666667c124.586667 0 225.28-100.693333 225.28-225.28 1.706667-124.586667-100.693333-225.28-225.28-225.28z"  /><path  d="M682.666667 849.92c-6.826667 0-13.653333-1.706667-18.773334-6.826667L580.266667 759.466667c-10.24-10.24-10.24-25.6 0-35.84s25.6-10.24 35.84 0l64.853333 64.853333 64.853333-64.853333c10.24-10.24 25.6-10.24 35.84 0s10.24 25.6 0 35.84l-83.626666 83.626666c-1.706667 5.12-8.533333 6.826667-15.36 6.826667z"  /><path  d="M682.666667 849.92c-13.653333 0-25.6-11.946667-25.6-25.6V581.973333c0-13.653333 11.946667-25.6 25.6-25.6s25.6 11.946667 25.6 25.6v242.346667c0 13.653333-10.24 25.6-25.6 25.6z"  /></svg>