<?xml version="1.0" standalone="no"?><!DOCTYPE svg PUBLIC "-//W3C//DTD SVG 1.1//EN" "http://www.w3.org/Graphics/SVG/1.1/DTD/svg11.dtd"><svg class="icon" width="64px" height="64.00px" viewBox="0 0 1024 1024" version="1.1" xmlns="http://www.w3.org/2000/svg"><path  d="M512 633.173333c-6.826667 0-13.653333-3.413333-18.773333-6.826666L208.213333 339.626667c-6.826667-6.826667-10.24-18.773333-5.12-27.306667s13.653333-15.36 23.893334-15.36H392.533333V59.733333c0-13.653333 11.946667-25.6 25.6-25.6h191.146667c13.653333 0 25.6 11.946667 25.6 25.6v235.52h165.546667c10.24 0 20.48 6.826667 23.893333 15.36s1.706667 20.48-5.12 27.306667L530.773333 624.64c-5.12 5.12-11.946667 8.533333-18.773333 8.533333zM288.426667 346.453333L512 571.733333l223.573333-223.573333h-128c-13.653333 0-25.6-11.946667-25.6-25.6V85.333333h-139.946666v235.52c0 13.653333-11.946667 25.6-25.6 25.6h-128zM940.373333 822.613333H83.626667c-13.653333 0-25.6-11.946667-25.6-25.6s11.946667-25.6 25.6-25.6h856.746666c13.653333 0 25.6 11.946667 25.6 25.6s-11.946667 25.6-25.6 25.6zM749.226667 989.866667H274.773333c-13.653333 0-25.6-11.946667-25.6-25.6s11.946667-25.6 25.6-25.6H750.933333c13.653333 0 25.6 11.946667 25.6 25.6s-11.946667 25.6-27.306666 25.6z"  /></svg>