<?xml version="1.0" standalone="no"?><!DOCTYPE svg PUBLIC "-//W3C//DTD SVG 1.1//EN" "http://www.w3.org/Graphics/SVG/1.1/DTD/svg11.dtd"><svg class="icon" width="64px" height="64.00px" viewBox="0 0 1024 1024" version="1.1" xmlns="http://www.w3.org/2000/svg"><path  d="M916.48 965.973333H107.52c-40.96 0-73.386667-32.426667-73.386667-73.386666V131.413333c0-40.96 32.426667-73.386667 73.386667-73.386666h278.186667c11.946667 0 23.893333 5.12 32.426666 15.36l105.813334 128h392.533333c40.96 0 73.386667 32.426667 73.386667 73.386666v619.52c0 39.253333-32.426667 71.68-73.386667 71.68zM107.52 109.226667C95.573333 109.226667 85.333333 119.466667 85.333333 131.413333v761.173334c0 11.946667 10.24 22.186667 22.186667 22.186666h808.96c11.946667 0 22.186667-10.24 22.186667-22.186666V274.773333c0-11.946667-10.24-22.186667-22.186667-22.186666H520.533333c-11.946667 0-23.893333-5.12-32.426666-15.36l-105.813334-128H107.52z"  /><path  d="M512 774.826667c-6.826667 0-13.653333-1.706667-18.773333-6.826667l-143.36-141.653333c-10.24-10.24-10.24-25.6 0-35.84 10.24-10.24 25.6-10.24 35.84 0l124.586666 124.586666 124.586667-124.586666c10.24-10.24 25.6-10.24 35.84 0 10.24 10.24 10.24 25.6 0 35.84L529.066667 768c-3.413333 5.12-10.24 6.826667-17.066667 6.826667z"  /><path  d="M512 774.826667c-13.653333 0-25.6-11.946667-25.6-25.6V416.426667c0-13.653333 11.946667-25.6 25.6-25.6s25.6 11.946667 25.6 25.6v332.8c0 15.36-11.946667 25.6-25.6 25.6z"  /></svg>