<?xml version="1.0" standalone="no"?><!DOCTYPE svg PUBLIC "-//W3C//DTD SVG 1.1//EN" "http://www.w3.org/Graphics/SVG/1.1/DTD/svg11.dtd"><svg class="icon" width="64px" height="64.00px" viewBox="0 0 1024 1024" version="1.1" xmlns="http://www.w3.org/2000/svg"><path  d="M964.266667 669.013333c-11.946667 0-22.186667-8.533333-25.6-20.48L824.32 97.28H199.68L85.333333 648.533333c-3.413333 13.653333-17.066667 22.186667-30.72 20.48-13.653333-3.413333-22.186667-17.066667-20.48-30.72L150.186667 80.213333c3.413333-18.773333 22.186667-34.133333 40.96-34.133333h640c20.48 0 37.546667 13.653333 40.96 34.133333L989.866667 638.293333c3.413333 13.653333-6.826667 27.306667-20.48 30.72h-5.12z"  /><path  d="M897.706667 977.92H126.293333c-51.2 0-92.16-40.96-92.16-92.16V643.413333c0-13.653333 11.946667-25.6 25.6-25.6h223.573334c18.773333 0 35.84 11.946667 40.96 30.72l34.133333 112.64h307.2l34.133333-112.64c5.12-18.773333 22.186667-30.72 40.96-30.72h223.573334c13.653333 0 25.6 11.946667 25.6 25.6v242.346667c0 51.2-40.96 92.16-92.16 92.16zM85.333333 669.013333v216.746667c0 22.186667 18.773333 40.96 40.96 40.96h769.706667c22.186667 0 40.96-18.773333 40.96-40.96V669.013333H747.52l-34.133333 112.64c-5.12 18.773333-22.186667 30.72-40.96 30.72H351.573333c-18.773333 0-35.84-11.946667-40.96-30.72l-34.133333-112.64H85.333333zM512 573.44c-6.826667 0-13.653333-1.706667-18.773333-6.826667l-143.36-143.36c-10.24-10.24-10.24-25.6 0-35.84 10.24-10.24 25.6-10.24 35.84 0L512 512l124.586667-124.586667c10.24-10.24 25.6-10.24 35.84 0 10.24 10.24 10.24 25.6 0 35.84L529.066667 566.613333c-3.413333 3.413333-10.24 6.826667-17.066667 6.826667z"  /><path  d="M512 573.44c-13.653333 0-25.6-11.946667-25.6-25.6V262.826667c0-13.653333 11.946667-25.6 25.6-25.6s25.6 11.946667 25.6 25.6v285.013333c0 13.653333-11.946667 25.6-25.6 25.6z"  /></svg>