<?xml version="1.0" standalone="no"?><!DOCTYPE svg PUBLIC "-//W3C//DTD SVG 1.1//EN" "http://www.w3.org/Graphics/SVG/1.1/DTD/svg11.dtd"><svg class="icon" width="64px" height="64.00px" viewBox="0 0 1024 1024" version="1.1" xmlns="http://www.w3.org/2000/svg"><path  d="M512 930.133333l-13.653333-8.533333c-83.626667-52.906667-153.6-105.813333-209.92-158.72l-15.36-13.653333C184.32 665.6 34.133333 525.653333 34.133333 356.693333 34.133333 215.04 157.013333 98.986667 307.2 98.986667c80.213333 0 153.6 32.426667 204.8 88.746666 51.2-56.32 126.293333-88.746667 204.8-88.746666 150.186667 0 273.066667 116.053333 273.066667 257.706666 0 168.96-150.186667 307.2-238.933334 390.826667l-15.36 15.36c-56.32 52.906667-126.293333 105.813333-209.92 158.72l-13.653333 8.533333zM307.2 150.186667c-121.173333 0-221.866667 92.16-221.866667 206.506666 0 146.773333 139.946667 276.48 223.573334 354.986667l15.36 15.36c51.2 47.786667 114.346667 95.573333 187.733333 143.36 75.093333-47.786667 138.24-95.573333 187.733333-143.36l15.36-15.36C798.72 633.173333 938.666667 503.466667 938.666667 356.693333c0-114.346667-98.986667-206.506667-221.866667-206.506666-75.093333 0-143.36 34.133333-184.32 93.866666L512 273.066667l-20.48-29.013334c-40.96-59.733333-110.933333-93.866667-184.32-93.866666z"  /></svg>