<?xml version="1.0" standalone="no"?><!DOCTYPE svg PUBLIC "-//W3C//DTD SVG 1.1//EN" "http://www.w3.org/Graphics/SVG/1.1/DTD/svg11.dtd"><svg class="icon" width="64px" height="64.00px" viewBox="0 0 1024 1024" version="1.1" xmlns="http://www.w3.org/2000/svg"><path  d="M825.344 850.773333a25.6 25.6 0 0 1-18.090667-43.690666 417.621333 417.621333 0 0 0-590.506666-590.506667 417.450667 417.450667 0 0 0 0 590.506667 25.6 25.6 0 1 1-36.181334 36.352 468.821333 468.821333 0 0 1 662.869334-663.04 468.650667 468.650667 0 0 1 0 663.04 25.258667 25.258667 0 0 1-18.090667 7.338666zM699.733333 725.504A25.6 25.6 0 0 1 682.666667 682.666667a240.298667 240.298667 0 1 0-341.333334 0 25.6 25.6 0 1 1-36.181333 36.181333 291.498667 291.498667 0 1 1 412.330667 0 26.112 26.112 0 0 1-17.749334 6.656z"  /><path  d="M512 626.176A114.346667 114.346667 0 1 1 626.176 512 114.346667 114.346667 0 0 1 512 626.176z m0-177.322667a63.146667 63.146667 0 1 0 62.976 63.146667A62.976 62.976 0 0 0 512 448.853333z"  /><path  d="M600.576 980.650667H423.424a25.6 25.6 0 1 1 0-51.2h62.976V623.274667a114.176 114.176 0 1 1 51.2 0v306.176h62.976a25.6 25.6 0 0 1 0 51.2zM512 448.853333a63.146667 63.146667 0 1 0 62.976 63.146667A62.976 62.976 0 0 0 512 448.853333z"  /></svg>