<?xml version="1.0" standalone="no"?><!DOCTYPE svg PUBLIC "-//W3C//DTD SVG 1.1//EN" "http://www.w3.org/Graphics/SVG/1.1/DTD/svg11.dtd"><svg class="icon" width="64px" height="64.00px" viewBox="0 0 1024 1024" version="1.1" xmlns="http://www.w3.org/2000/svg"><path  d="M512 989.866667c-87.04 0-128-151.893333-145.066667-242.346667l-5.12-32.426667 32.426667 1.706667c78.506667 5.12 157.013333 5.12 235.52 0l32.426667-1.706667-5.12 32.426667C640 837.973333 599.04 989.866667 512 989.866667z m-87.04-220.16c27.306667 122.88 66.56 168.96 87.04 168.96s61.44-46.08 87.04-168.96c-58.026667 3.413333-116.053333 3.413333-174.08 0zM662.186667 308.906667l-32.426667-1.706667c-78.506667-5.12-157.013333-5.12-235.52 0l-32.426667 1.706667 5.12-32.426667C384 186.026667 424.96 34.133333 512 34.133333s128 151.893333 145.066667 242.346667l5.12 32.426667zM512 85.333333c-22.186667 0-61.44 46.08-87.04 168.96 58.026667-3.413333 117.76-3.413333 175.786667 0C573.44 131.413333 534.186667 85.333333 512 85.333333z"  /><path  d="M512 989.866667c-133.12 0-254.293333-100.693333-314.026667-261.12l-15.36-42.666667 44.373334 8.533333c174.08 34.133333 395.946667 34.133333 571.733333 0l44.373333-8.533333-15.36 42.666667C766.293333 889.173333 645.12 989.866667 512 989.866667zM262.826667 754.346667C319.146667 868.693333 411.306667 938.666667 512 938.666667s192.853333-69.973333 249.173333-184.32c-157.013333 23.893333-341.333333 23.893333-498.346666 0zM843.093333 337.92l-44.373333-8.533333c-174.08-34.133333-395.946667-34.133333-571.733333 0l-44.373334 8.533333 15.36-42.666667C257.706667 134.826667 378.88 34.133333 512 34.133333c133.12 0 254.293333 100.693333 314.026667 261.12l17.066666 42.666667zM512 85.333333c-100.693333 0-192.853333 69.973333-249.173333 184.32 157.013333-25.6 339.626667-25.6 496.64 0C704.853333 155.306667 612.693333 85.333333 512 85.333333z"  /><path  d="M512 989.866667C319.146667 989.866667 145.066667 873.813333 71.68 696.32l-22.186667-52.906667L102.4 662.186667c112.64 37.546667 257.706667 59.733333 409.6 59.733333s296.96-20.48 409.6-59.733333l54.613333-18.773334-22.186666 52.906667C878.933333 873.813333 704.853333 989.866667 512 989.866667zM143.36 728.746667C220.16 858.453333 358.4 938.666667 512 938.666667c153.6 0 291.84-80.213333 368.64-209.92-107.52 29.013333-235.52 44.373333-368.64 44.373333-133.12 0-261.12-15.36-368.64-44.373333zM974.506667 380.586667L921.6 361.813333c-112.64-37.546667-257.706667-59.733333-409.6-59.733333S215.04 324.266667 102.4 361.813333l-54.613333 18.773334 22.186666-52.906667C145.066667 150.186667 319.146667 34.133333 512 34.133333c192.853333 0 366.933333 116.053333 440.32 293.546667l22.186667 52.906667zM512 85.333333C358.4 85.333333 220.16 165.546667 143.36 295.253333c107.52-29.013333 235.52-44.373333 368.64-44.373333 133.12 0 261.12 15.36 368.64 44.373333C803.84 165.546667 665.6 85.333333 512 85.333333z"  /><path  d="M102.4 402.773333h46.08l64.853333 119.466667 22.186667 47.786667h1.706667c-1.706667-23.893333-5.12-52.906667-5.12-78.506667v-88.746667H273.066667v223.573334h-46.08l-64.853334-119.466667-22.186666-47.786667h-1.706667c1.706667 23.893333 5.12 52.906667 5.12 78.506667v88.746667H102.4V402.773333zM327.68 402.773333h136.533333v37.546667h-92.16v51.2h78.506667V529.066667h-78.506667v59.733333h95.573334v37.546667h-139.946667V402.773333zM491.52 402.773333h46.08l17.066667 109.226667 10.24 71.68h1.706666c5.12-23.893333 8.533333-47.786667 13.653334-71.68l25.6-109.226667h37.546666l25.6 109.226667c5.12 22.186667 8.533333 47.786667 13.653334 71.68h1.706666l10.24-71.68 17.066667-109.226667h42.666667l-40.96 223.573334h-56.32L631.466667 515.413333l-10.24-51.2h-1.706667l-10.24 51.2-23.893333 110.933334h-54.613334l-39.253333-223.573334zM773.12 597.333333l25.6-30.72c15.36 15.36 37.546667 23.893333 56.32 23.893334 23.893333 0 35.84-10.24 35.84-25.6 0-17.066667-13.653333-22.186667-34.133333-30.72l-29.013334-11.946667c-22.186667-8.533333-46.08-27.306667-46.08-59.733333 0-35.84 32.426667-64.853333 76.8-64.853334 25.6 0 51.2 10.24 69.973334 29.013334l-22.186667 27.306666c-13.653333-11.946667-29.013333-18.773333-47.786667-18.773333-18.773333 0-32.426667 8.533333-32.426666 23.893333 0 15.36 15.36 22.186667 34.133333 29.013334l29.013333 11.946666c27.306667 11.946667 44.373333 29.013333 44.373334 61.44 0 35.84-30.72 68.266667-81.92 68.266667-25.6 1.706667-56.32-10.24-78.506667-32.426667z"  /></svg>