<?xml version="1.0" standalone="no"?><!DOCTYPE svg PUBLIC "-//W3C//DTD SVG 1.1//EN" "http://www.w3.org/Graphics/SVG/1.1/DTD/svg11.dtd"><svg class="icon" width="64px" height="64.00px" viewBox="0 0 1024 1024" version="1.1" xmlns="http://www.w3.org/2000/svg"><path  d="M897.706667 954.026667H126.293333c-51.2 0-92.16-49.493333-92.16-109.226667V184.32c0-59.733333 40.96-109.226667 92.16-109.226667h769.706667c51.2 0 92.16 49.493333 92.16 109.226667v660.48c1.706667 59.733333-39.253333 109.226667-90.453333 109.226667zM126.293333 126.293333C104.106667 126.293333 85.333333 153.6 85.333333 184.32v660.48c0 30.72 18.773333 58.026667 40.96 58.026667h769.706667c22.186667 0 40.96-25.6 40.96-58.026667V184.32c0-30.72-18.773333-58.026667-40.96-58.026667H126.293333z"  /><path  d="M59.733333 279.893333h904.533334v51.2h-904.533334zM266.24 199.68c-13.653333 0-25.6-11.946667-25.6-25.6v-136.533333c0-13.653333 11.946667-25.6 25.6-25.6s25.6 11.946667 25.6 25.6v136.533333c0 13.653333-11.946667 25.6-25.6 25.6zM512 199.68c-13.653333 0-25.6-11.946667-25.6-25.6v-136.533333c0-13.653333 11.946667-25.6 25.6-25.6s25.6 11.946667 25.6 25.6v136.533333c0 13.653333-11.946667 25.6-25.6 25.6zM757.76 199.68c-13.653333 0-25.6-11.946667-25.6-25.6v-136.533333c0-13.653333 11.946667-25.6 25.6-25.6s25.6 11.946667 25.6 25.6v136.533333c0 13.653333-11.946667 25.6-25.6 25.6z"  /><path  d="M148.48 508.586667H187.733333l58.026667 105.813333 20.48 42.666667h1.706667c-1.706667-20.48-5.12-46.08-5.12-69.973334v-78.506666h37.546666v197.973333h-40.96l-58.026666-105.813333-20.48-42.666667h-1.706667c1.706667 22.186667 5.12 46.08 5.12 69.973333v80.213334H148.48V508.586667zM348.16 508.586667h121.173333v32.426666h-81.92v46.08h69.973334v32.426667h-69.973334v52.906667h85.333334v32.426666h-124.586667V508.586667zM493.226667 508.586667h40.96l15.36 97.28c3.413333 20.48 6.826667 42.666667 8.533333 63.146666h1.706667c3.413333-20.48 8.533333-42.666667 11.946666-63.146666l23.893334-97.28h34.133333l23.893333 97.28c5.12 20.48 8.533333 40.96 11.946667 63.146666h1.706667c3.413333-22.186667 5.12-42.666667 8.533333-63.146666l15.36-97.28h37.546667l-37.546667 197.973333h-49.493333l-22.186667-97.28c-3.413333-15.36-6.826667-30.72-8.533333-46.08h-1.706667c-3.413333 15.36-5.12 30.72-8.533333 46.08L580.266667 706.56h-47.786667l-39.253333-197.973333zM744.106667 680.96l22.186666-27.306667c13.653333 13.653333 32.426667 22.186667 51.2 22.186667 20.48 0 32.426667-8.533333 32.426667-22.186667 0-15.36-11.946667-18.773333-29.013333-27.306666l-27.306667-11.946667c-20.48-8.533333-40.96-23.893333-40.96-52.906667 0-32.426667 29.013333-58.026667 68.266667-58.026666 23.893333 0 46.08 8.533333 61.44 25.6l-20.48 25.6c-11.946667-10.24-25.6-17.066667-42.666667-17.066667s-29.013333 8.533333-29.013333 20.48c0 13.653333 13.653333 18.773333 30.72 25.6l25.6 10.24c23.893333 10.24 39.253333 25.6 39.253333 54.613333 0 32.426667-27.306667 59.733333-73.386667 59.733334-22.186667 1.706667-47.786667-8.533333-68.266666-27.306667z"  /></svg>