<?xml version="1.0" standalone="no"?><!DOCTYPE svg PUBLIC "-//W3C//DTD SVG 1.1//EN" "http://www.w3.org/Graphics/SVG/1.1/DTD/svg11.dtd"><svg class="icon" width="64px" height="64.00px" viewBox="0 0 1024 1024" version="1.1" xmlns="http://www.w3.org/2000/svg"><path  d="M861.866667 989.866667H124.586667c-51.2 0-92.16-40.96-92.16-92.16V237.226667c0-32.426667 27.306667-59.733333 59.733333-59.733334h628.053333c32.426667 0 59.733333 27.306667 59.733334 59.733334v404.48h-51.2V237.226667c0-5.12-3.413333-8.533333-8.533334-8.533334H90.453333c-5.12 0-8.533333 3.413333-8.533333 8.533334v660.48c0 22.186667 18.773333 40.96 40.96 40.96h737.28v51.2z"  /><path  d="M860.16 989.866667c-73.386667 0-133.12-63.146667-133.12-139.946667V587.093333h51.2v262.826667c0 49.493333 37.546667 88.746667 81.92 88.746667s81.92-39.253333 81.92-88.746667V93.866667c0-5.12-3.413333-8.533333-8.533333-8.533334H305.493333c-5.12 0-8.533333 3.413333-8.533333 8.533334V204.8h-51.2V93.866667C247.466667 61.44 273.066667 34.133333 305.493333 34.133333h628.053334c32.426667 0 59.733333 27.306667 59.733333 59.733334v756.053333c0 76.8-59.733333 139.946667-133.12 139.946667zM167.253333 315.733333h30.72l32.426667 61.44 11.946667 29.013334h1.706666c-1.706667-15.36-5.12-32.426667-5.12-47.786667v-42.666667h29.013334V443.733333h-30.72L204.8 382.293333l-11.946667-29.013333h-1.706666c1.706667 13.653333 3.413333 32.426667 3.413333 47.786667V443.733333H167.253333v-128z"  /><path  d="M298.666667 315.733333h81.92V341.333333h-51.2v23.893334h42.666666v25.6h-42.666666v27.306666h52.906666V443.733333h-83.626666v-128zM395.946667 315.733333H426.666667l8.533333 58.026667 5.12 40.96c1.706667-13.653333 5.12-27.306667 6.826667-40.96l13.653333-58.026667h25.6l13.653333 58.026667c3.413333 13.653333 5.12 27.306667 6.826667 40.96h1.706667l5.12-40.96 8.533333-58.026667h29.013333L529.066667 443.733333h-39.253334l-11.946666-56.32-5.12-30.72h-1.706667l-5.12 30.72-8.533333 56.32h-37.546667l-23.893333-128zM561.493333 428.373333l17.066667-20.48c8.533333 8.533333 20.48 13.653333 30.72 13.653334 11.946667 0 17.066667-5.12 17.066667-11.946667 0-6.826667-6.826667-10.24-18.773334-15.36l-17.066666-6.826667c-13.653333-5.12-25.6-17.066667-25.6-35.84 0-22.186667 18.773333-39.253333 46.08-39.253333 15.36 0 30.72 5.12 42.666666 17.066667l-15.36 18.773333c-8.533333-6.826667-17.066667-10.24-27.306666-10.24-10.24 0-15.36 3.413333-15.36 10.24 0 6.826667 8.533333 10.24 18.773333 13.653333l15.36 6.826667c15.36 6.826667 25.6 17.066667 25.6 35.84 0 22.186667-18.773333 40.96-49.493333 40.96-13.653333 0-30.72-5.12-44.373334-17.066667z"  /><path  d="M588.8 590.506667H186.026667c-13.653333 0-25.6-11.946667-25.6-25.6s11.946667-25.6 25.6-25.6h402.773333c13.653333 0 25.6 11.946667 25.6 25.6s-11.946667 25.6-25.6 25.6zM588.8 730.453333H186.026667c-13.653333 0-25.6-11.946667-25.6-25.6s11.946667-25.6 25.6-25.6h402.773333c13.653333 0 25.6 11.946667 25.6 25.6s-11.946667 25.6-25.6 25.6zM588.8 870.4H186.026667c-13.653333 0-25.6-11.946667-25.6-25.6s11.946667-25.6 25.6-25.6h402.773333c13.653333 0 25.6 11.946667 25.6 25.6s-11.946667 25.6-25.6 25.6z"  /></svg>