<?xml version="1.0" standalone="no"?><!DOCTYPE svg PUBLIC "-//W3C//DTD SVG 1.1//EN" "http://www.w3.org/Graphics/SVG/1.1/DTD/svg11.dtd"><svg class="icon" width="64px" height="64.00px" viewBox="0 0 1024 1024" version="1.1" xmlns="http://www.w3.org/2000/svg"><path  d="M896 798.72h-768c-51.2 0-93.866667-42.666667-93.866667-93.866667V201.386667c0-51.2 42.666667-93.866667 93.866667-93.866667h768c51.2 0 93.866667 42.666667 93.866667 93.866667v503.466666c0 51.2-42.666667 93.866667-93.866667 93.866667zM128 158.72C104.106667 158.72 85.333333 177.493333 85.333333 201.386667v503.466666c0 23.893333 18.773333 42.666667 42.666667 42.666667h768c23.893333 0 42.666667-18.773333 42.666667-42.666667V201.386667c0-23.893333-18.773333-42.666667-42.666667-42.666667h-768zM817.493333 916.48H206.506667c-13.653333 0-25.6-11.946667-25.6-25.6s11.946667-25.6 25.6-25.6H819.2c13.653333 0 25.6 11.946667 25.6 25.6s-11.946667 25.6-27.306667 25.6z"  /><path  d="M192.853333 349.866667h35.84l51.2 92.16 17.066667 37.546666h1.706667c-1.706667-18.773333-5.12-40.96-5.12-61.44v-69.973333h32.426666v174.08H290.133333l-51.2-93.866667-17.066666-37.546666h-1.706667c1.706667 18.773333 3.413333 40.96 3.413333 61.44v69.973333h-32.426666V349.866667zM368.64 349.866667h107.52v29.013333h-71.68v40.96h61.44v29.013333h-61.44V494.933333H477.866667v29.013334h-109.226667V349.866667zM496.64 349.866667h35.84l13.653333 85.333333c3.413333 18.773333 5.12 37.546667 8.533334 56.32h1.706666l10.24-56.32 20.48-85.333333h29.013334l20.48 85.333333c3.413333 17.066667 6.826667 37.546667 10.24 56.32h1.706666c3.413333-18.773333 5.12-37.546667 8.533334-56.32l13.653333-85.333333h32.426667l-32.426667 174.08h-42.666667l-18.773333-85.333334c-3.413333-13.653333-5.12-27.306667-6.826667-40.96h-1.706666c-1.706667 13.653333-5.12 27.306667-6.826667 40.96l-18.773333 85.333334H529.066667l-32.426667-174.08zM716.8 501.76l20.48-23.893333c11.946667 11.946667 29.013333 18.773333 44.373333 18.773333 18.773333 0 27.306667-8.533333 27.306667-20.48 0-13.653333-10.24-17.066667-25.6-23.893333l-23.893333-8.533334c-17.066667-6.826667-35.84-22.186667-35.84-46.08 0-29.013333 25.6-51.2 59.733333-51.2 20.48 0 40.96 8.533333 54.613333 22.186667l-17.066666 22.186667c-10.24-8.533333-22.186667-13.653333-37.546667-13.653334-15.36 0-25.6 6.826667-25.6 18.773334 0 11.946667 11.946667 17.066667 27.306667 22.186666l22.186666 10.24c20.48 8.533333 35.84 22.186667 35.84 47.786667 0 29.013333-23.893333 52.906667-64.853333 52.906667-22.186667-1.706667-44.373333-10.24-61.44-27.306667z"  /></svg>