<?xml version="1.0" standalone="no"?><!DOCTYPE svg PUBLIC "-//W3C//DTD SVG 1.1//EN" "http://www.w3.org/Graphics/SVG/1.1/DTD/svg11.dtd"><svg class="icon" width="64px" height="64.00px" viewBox="0 0 1024 1024" version="1.1" xmlns="http://www.w3.org/2000/svg"><path  d="M619.52 887.466667H401.066667c-51.2 0-92.16-40.96-92.16-92.16v-20.48C191.146667 706.56 119.466667 581.973333 116.053333 438.613333 112.64 242.346667 254.293333 69.973333 445.44 39.253333c116.053333-18.773333 233.813333 13.653333 322.56 88.746667 88.746667 75.093333 139.946667 186.026667 139.946667 302.08 0 148.48-73.386667 276.48-194.56 344.746667v20.48c0 51.2-42.666667 92.16-93.866667 92.16zM510.293333 85.333333c-18.773333 0-37.546667 1.706667-56.32 5.12-167.253333 27.306667-290.133333 175.786667-286.72 346.453334 1.706667 129.706667 69.973333 242.346667 179.2 298.666666l13.653334 6.826667v51.2c0 22.186667 18.773333 40.96 40.96 40.96h218.453333c22.186667 0 40.96-18.773333 40.96-40.96v-51.2l13.653333-6.826667c112.64-58.026667 180.906667-174.08 180.906667-307.2 0-100.693333-44.373333-196.266667-121.173333-262.826666-61.44-51.2-141.653333-80.213333-223.573334-80.213334zM628.053333 989.866667H395.946667c-13.653333 0-25.6-11.946667-25.6-25.6s11.946667-25.6 25.6-25.6h232.106666c13.653333 0 25.6 11.946667 25.6 25.6s-11.946667 25.6-25.6 25.6z"  /><path  d="M271.36 366.933333c-1.706667 0-5.12 0-6.826667-1.706666-13.653333-3.413333-20.48-18.773333-17.066666-32.426667 42.666667-138.24 153.6-153.6 157.013333-153.6 13.653333-1.706667 27.306667 8.533333 29.013333 22.186667 1.706667 13.653333-8.533333 27.306667-22.186666 29.013333-3.413333 0-81.92 13.653333-116.053334 119.466667-1.706667 10.24-11.946667 17.066667-23.893333 17.066666z"  /></svg>