<?xml version="1.0" standalone="no"?><!DOCTYPE svg PUBLIC "-//W3C//DTD SVG 1.1//EN" "http://www.w3.org/Graphics/SVG/1.1/DTD/svg11.dtd"><svg class="icon" width="64px" height="64.00px" viewBox="0 0 1024 1024" version="1.1" xmlns="http://www.w3.org/2000/svg"><path  d="M512 979.626667c-17.066667 0-32.426667-3.413333-47.786667-11.946667l-322.56-187.733333c-29.013333-17.066667-47.786667-47.786667-47.786666-81.92V325.973333c0-34.133333 18.773333-64.853333 47.786666-81.92L464.213333 58.026667c29.013333-17.066667 64.853333-17.066667 93.866667 0l324.266667 186.026666c29.013333 17.066667 47.786667 47.786667 47.786666 81.92V699.733333c0 34.133333-18.773333 64.853333-47.786666 81.92l-324.266667 186.026667c-13.653333 6.826667-29.013333 11.946667-46.08 11.946667z m0-884.053334c-6.826667 0-15.36 1.706667-20.48 5.12l-324.266667 187.733334c-13.653333 6.826667-20.48 22.186667-20.48 37.546666V699.733333c0 15.36 8.533333 29.013333 20.48 37.546667L489.813333 921.6c13.653333 6.826667 29.013333 6.826667 42.666667 0l324.266667-186.026667c13.653333-6.826667 20.48-22.186667 20.48-37.546666V325.973333c0-15.36-8.533333-29.013333-20.48-37.546666L532.48 102.4c-5.12-5.12-13.653333-6.826667-20.48-6.826667z"  /><path  d="M512 785.066667c-5.12 0-8.533333-1.706667-13.653333-3.413334l-85.333334-49.493333c-8.533333-5.12-13.653333-13.653333-13.653333-22.186667v-97.28c0-8.533333 5.12-17.066667 13.653333-22.186666l85.333334-49.493334c8.533333-5.12 17.066667-5.12 25.6 0l85.333333 49.493334c8.533333 5.12 13.653333 13.653333 13.653333 22.186666v97.28c0 8.533333-5.12 17.066667-13.653333 22.186667l-85.333333 49.493333c-3.413333 1.706667-6.826667 3.413333-11.946667 3.413334z m-59.733333-90.453334l59.733333 34.133334 59.733333-34.133334v-68.266666l-59.733333-34.133334-59.733333 34.133334v68.266666z m145.066666 15.36zM354.986667 554.666667c-5.12 0-8.533333-1.706667-13.653334-3.413334l-85.333333-49.493333c-8.533333-5.12-13.653333-13.653333-13.653333-22.186667v-97.28c0-8.533333 5.12-17.066667 13.653333-22.186666l85.333333-49.493334c8.533333-5.12 17.066667-5.12 25.6 0l85.333334 49.493334c8.533333 5.12 13.653333 13.653333 13.653333 22.186666v97.28c0 8.533333-5.12 17.066667-13.653333 22.186667l-85.333334 49.493333c-3.413333 1.706667-6.826667 3.413333-11.946666 3.413334z m-58.026667-88.746667l59.733333 34.133333 59.733334-34.133333v-68.266667l-59.733334-34.133333-59.733333 34.133333v68.266667z m143.36 13.653333zM669.013333 554.666667c-5.12 0-8.533333-1.706667-13.653333-3.413334l-85.333333-49.493333c-8.533333-5.12-13.653333-13.653333-13.653334-22.186667v-97.28c0-8.533333 5.12-17.066667 13.653334-22.186666l85.333333-49.493334c8.533333-5.12 17.066667-5.12 25.6 0l85.333333 49.493334c8.533333 5.12 13.653333 13.653333 13.653334 22.186666v97.28c0 8.533333-5.12 17.066667-13.653334 22.186667l-85.333333 49.493333c-3.413333 1.706667-8.533333 3.413333-11.946667 3.413334z m-59.733333-88.746667l59.733333 34.133333 59.733334-34.133333v-68.266667l-59.733334-34.133333-59.733333 34.133333v68.266667z m143.36 13.653333z"  /><path  d="M583.68 457.386667h-145.066667c-13.653333 0-25.6-11.946667-25.6-25.6s11.946667-25.6 25.6-25.6h145.066667c13.653333 0 25.6 11.946667 25.6 25.6s-10.24 25.6-25.6 25.6zM469.333333 614.4c-8.533333 0-15.36-3.413333-20.48-10.24l-59.733333-81.92c-8.533333-11.946667-5.12-27.306667 5.12-35.84 11.946667-8.533333 27.306667-5.12 35.84 5.12l59.733333 81.92c8.533333 11.946667 5.12 27.306667-5.12 35.84-5.12 3.413333-10.24 5.12-15.36 5.12zM563.2 614.4c-5.12 0-10.24-1.706667-15.36-5.12-11.946667-8.533333-13.653333-23.893333-5.12-35.84l59.733333-81.92c8.533333-11.946667 23.893333-13.653333 35.84-5.12 11.946667 8.533333 13.653333 23.893333 5.12 35.84l-59.733333 81.92c-5.12 5.12-13.653333 10.24-20.48 10.24z"  /></svg>