<?xml version="1.0" standalone="no"?><!DOCTYPE svg PUBLIC "-//W3C//DTD SVG 1.1//EN" "http://www.w3.org/Graphics/SVG/1.1/DTD/svg11.dtd"><svg class="icon" width="64px" height="64.00px" viewBox="0 0 1024 1024" version="1.1" xmlns="http://www.w3.org/2000/svg"><path  d="M682.666667 989.866667h-5.12c-10.24-1.706667-18.773333-10.24-20.48-20.48l-69.973334-351.573334c-1.706667-8.533333 1.706667-17.066667 6.826667-23.893333 6.826667-6.826667 15.36-8.533333 23.893333-6.826667l351.573334 69.973334c10.24 1.706667 18.773333 10.24 20.48 20.48 1.706667 10.24-1.706667 20.48-10.24 25.6l-80.213334 52.906666 83.626667 83.626667c5.12 5.12 6.826667 11.946667 6.826667 18.773333s-3.413333 13.653333-6.826667 18.773334l-105.813333 105.813333c-10.24 10.24-27.306667 10.24-35.84 0l-83.626667-83.626667-52.906667 80.213334c-5.12 6.826667-13.653333 10.24-22.186666 10.24z m69.973333-157.013334c6.826667 0 13.653333 3.413333 18.773333 6.826667l87.04 87.04 69.973334-69.973333-87.04-87.04c-5.12-5.12-8.533333-13.653333-6.826667-20.48s5.12-15.36 11.946667-18.773334l54.613333-35.84-254.293333-51.2 51.2 254.293334 35.84-54.613334c3.413333-6.826667 11.946667-10.24 18.773333-11.946666-1.706667 1.706667 0 1.706667 0 1.706666z"  /><path  d="M436.906667 989.866667H126.293333c-51.2 0-92.16-40.96-92.16-92.16V126.293333C34.133333 75.093333 75.093333 34.133333 126.293333 34.133333h769.706667c51.2 0 92.16 40.96 92.16 92.16V460.8c0 13.653333-11.946667 25.6-25.6 25.6s-23.893333-10.24-23.893333-23.893333V126.293333C938.666667 104.106667 919.893333 85.333333 897.706667 85.333333H126.293333C104.106667 85.333333 85.333333 104.106667 85.333333 126.293333v769.706667C85.333333 919.893333 104.106667 938.666667 126.293333 938.666667h310.613334c13.653333 0 25.6 11.946667 25.6 25.6s-11.946667 25.6-25.6 25.6z"  /></svg>