<?xml version="1.0" standalone="no"?><!DOCTYPE svg PUBLIC "-//W3C//DTD SVG 1.1//EN" "http://www.w3.org/Graphics/SVG/1.1/DTD/svg11.dtd"><svg class="icon" width="64px" height="64.00px" viewBox="0 0 1024 1024" version="1.1" xmlns="http://www.w3.org/2000/svg"><path  d="M257.706667 989.866667c-3.413333 0-6.826667 0-10.24-1.706667-22.186667-3.413333-37.546667-20.48-40.96-42.666667l-134.826667-853.333333c-3.413333-18.773333 5.12-37.546667 20.48-47.786667s37.546667-11.946667 54.613333-3.413333l779.946667 423.253333c20.48 10.24 30.72 32.426667 25.6 54.613334s-22.186667 39.253333-44.373333 40.96l-392.533334 40.96-215.04 363.52c-8.533333 17.066667-25.6 25.6-42.666666 25.6z m-136.533334-904.533334L256 938.666667l213.333333-363.52c8.533333-13.653333 22.186667-23.893333 39.253334-25.6l392.533333-40.96L121.173333 85.333333z"  /></svg>