<?xml version="1.0" standalone="no"?><!DOCTYPE svg PUBLIC "-//W3C//DTD SVG 1.1//EN" "http://www.w3.org/Graphics/SVG/1.1/DTD/svg11.dtd"><svg class="icon" width="64px" height="64.00px" viewBox="0 0 1024 1024" version="1.1" xmlns="http://www.w3.org/2000/svg"><path  d="M757.248 746.325333c-124.074667-24.405333-124.074667-51.2-124.074667-70.485333v-25.941333a257.877333 257.877333 0 0 0 73.898667-115.541334c41.301333-13.653333 55.808-68.266667 55.808-94.72a40.277333 40.277333 0 0 1 0-4.266666 92.330667 92.330667 0 0 0-17.066667-68.266667 54.442667 54.442667 0 0 0-17.066666-12.288v-136.533333l170.666666-36.522667a25.6 25.6 0 0 0-1.706666-51.2l-382.293334-54.613333h-7.168L126.122667 131.584a25.6 25.6 0 0 0-1.706667 51.2l6.997333 1.536v300.373333a25.6 25.6 0 0 0 51.2 0v-290.133333l112.64 24.064v136.533333c-19.456 8.874667-40.96 31.573333-40.96 88.234667 0 32.256 13.994667 77.994667 51.2 90.624A243.712 243.712 0 0 0 377.173333 648.533333v31.402667c0 17.066667 0 42.666667-121.173333 66.048C121.856 771.925333 80.213333 870.4 76.8 919.893333a26.282667 26.282667 0 0 0 6.826667 18.773334 25.429333 25.429333 0 0 0 18.773333 8.533333h819.2a25.6 25.6 0 0 0 25.6-25.6c0-5.632-2.218667-138.922667-189.952-175.274667zM512 128.341333l236.544 34.133334-51.2 10.752L512 212.821333l-185.856-39.936-50.688-10.752z m-5.290667 136.533334a27.648 27.648 0 0 0 10.581334 0l160.256-34.133334v40.618667L512 294.912l-165.546667-23.552v-41.642667zM428.373333 679.424v-1.706667a24.917333 24.917333 0 0 0 17.066667-11.605333 25.770667 25.770667 0 0 0-7.338667-34.645333 170.666667 170.666667 0 0 1-15.701333-10.752 24.746667 24.746667 0 0 0-6.826667-5.802667 192.682667 192.682667 0 0 1-64.170666-107.349333 25.6 25.6 0 0 0-25.088-20.48C307.2 486.4 305.493333 443.733333 305.493333 443.733333c0-10.069333 1.024-42.666667 15.36-42.666666a25.6 25.6 0 0 0 25.6-25.6v-52.394667l161.962667 23.210667h7.168l161.962667-23.210667V375.466667a25.6 25.6 0 0 0 24.746666 25.6 8.704 8.704 0 0 1 5.632 1.536c4.949333 5.290667 4.266667 24.405333 3.925334 30.549333v6.485333c0 9.557333-7.68 46.762667-24.917334 46.762667a25.6 25.6 0 0 0-24.917333 19.626667A208.213333 208.213333 0 0 1 574.293333 631.466667a25.6 25.6 0 0 0 7.68 46.08c0 41.813333 17.066667 74.581333 90.282667 99.669333L512 890.197333l-161.621333-116.224c63.658667-24.064 78.506667-55.125333 77.994666-94.549333z m-162.816 117.077333c7.850667-1.365333 15.189333-2.901333 22.186667-4.608l144.725333 104.106667H134.656c11.776-32.085333 44.032-82.773333 130.901333-99.498667z m326.997334 99.498667l144.042666-102.4 10.752 2.218667c98.986667 19.114667 132.096 68.266667 143.189334 99.498666z"  /></svg>