<?xml version="1.0" standalone="no"?><!DOCTYPE svg PUBLIC "-//W3C//DTD SVG 1.1//EN" "http://www.w3.org/Graphics/SVG/1.1/DTD/svg11.dtd"><svg class="icon" width="64px" height="64.00px" viewBox="0 0 1024 1024" version="1.1" xmlns="http://www.w3.org/2000/svg"><path  d="M498.346667 470.186667a105.472 105.472 0 0 0-60.586667 29.866666 104.106667 104.106667 0 1 0 60.586667-29.866666z m67.072 121.344A57.002667 57.002667 0 0 1 529.066667 628.224a67.242667 67.242667 0 0 1-32.938667 0 60.757333 60.757333 0 0 1-31.914667-23.722667 58.026667 58.026667 0 0 1 0-61.098666 64.170667 64.170667 0 0 1 30.72-23.722667 60.757333 60.757333 0 0 1 42.666667 3.925333 59.050667 59.050667 0 0 1 29.184 35.498667 61.781333 61.781333 0 0 1-1.365333 32.426667z"  /><path  d="M947.541333 614.4a81.92 81.92 0 0 0-48.981333-41.301333l-6.656-2.218667h-161.962667v-19.114667c0-10.410667-1.194667-23.722667-2.048-29.184a218.794667 218.794667 0 0 0-187.733333-185.514666h-4.437333V273.066667h87.381333c85.333333 0 87.381333 0 91.648-1.877334a29.013333 29.013333 0 0 0 12.629333-11.776l2.048-3.925333V85.333333l-2.730666-4.949333a31.232 31.232 0 0 0-5.973334-7.509333C713.216 68.266667 719.189333 68.266667 608.426667 68.266667h-102.4l-4.778667 2.218666a23.04 23.04 0 0 0-11.946667 12.117334c-1.877333 4.266667-1.877333 5.461333-1.877333 129.194666v124.928h-4.608a219.136 219.136 0 0 0-182.442667 161.450667 232.96 232.96 0 0 0-6.997333 53.418667v18.944h-76.8c-48.469333 0-79.018667 0-82.773333 1.024a79.530667 79.530667 0 0 0-57.856 44.202666c-8.021333 17.066667-7.509333 8.021333-7.509334 147.114667s0 130.730667 7.509334 147.114667a79.36 79.36 0 0 0 55.466666 43.861333c5.12 1.877333 54.613333 1.877333 379.562667 1.877333 250.026667 0 375.466667 0 379.392-1.024a81.578667 81.578667 0 0 0 63.317333-57.856l2.048-7.338666v-125.098667c0-142.336 0-132.096-8.192-150.016zM535.381333 170.666667V115.882667h145.578667v109.568h-145.578667zM293.546667 763.392v144.725333H139.605333l-5.12-3.584a34.133333 34.133333 0 0 1-15.018666-13.994666l-2.389334-4.778667V641.024l2.389334-4.266667a34.133333 34.133333 0 0 1 20.821333-17.066666c1.877333 0 37.376-0.853333 78.506667-0.853334h75.093333z m387.413333-39.936v184.661333h-144.384v-6.485333V815.274667l-2.56-4.949334a23.552 23.552 0 0 0-42.666667 0l-2.389333 4.949334v92.842666H341.333333V723.456c0-200.874667 0-191.317333 5.290667-212.48a169.472 169.472 0 0 1 101.376-115.2 180.394667 180.394667 0 0 1 51.2-11.776 245.930667 245.930667 0 0 1 39.424 1.877333 169.642667 169.642667 0 0 1 136.533333 125.098667c6.144 21.845333 5.802667 11.434667 5.802667 212.48z m226.133333 39.936v122.368l-2.389333 4.778667a38.058667 38.058667 0 0 1-15.701333 15.018666l-4.608 2.048h-154.794667v-290.133333h154.794667l4.608 2.218667a36.522667 36.522667 0 0 1 15.701333 14.848l2.389333 4.778666z"  /></svg>