<?xml version="1.0" standalone="no"?><!DOCTYPE svg PUBLIC "-//W3C//DTD SVG 1.1//EN" "http://www.w3.org/Graphics/SVG/1.1/DTD/svg11.dtd"><svg class="icon" width="64px" height="64.00px" viewBox="0 0 1024 1024" version="1.1" xmlns="http://www.w3.org/2000/svg"><path  d="M459.093333 588.8c-3.413333 0-8.533333-1.706667-11.946666-3.413333l-426.666667-225.28c-8.533333-5.12-13.653333-13.653333-13.653333-22.186667s5.12-18.773333 13.653333-22.186667l426.666667-225.28c6.826667-3.413333 17.066667-3.413333 23.893333 0l426.666667 225.28c8.533333 5.12 13.653333 13.653333 13.653333 22.186667s-5.12 18.773333-13.653333 22.186667l-426.666667 225.28c-3.413333 1.706667-6.826667 3.413333-11.946667 3.413333zM87.04 337.92l372.053333 196.266667 372.053334-196.266667L459.093333 143.36 87.04 337.92z"  /><path  d="M459.093333 935.253333c-17.066667 0-34.133333-3.413333-49.493333-11.946666-71.68-39.253333-145.066667-63.146667-194.56-75.093334-44.373333-11.946667-75.093333-49.493333-75.093333-93.866666v-324.266667h51.2v324.266667c0 20.48 15.36 39.253333 35.84 44.373333 51.2 13.653333 129.706667 39.253333 204.8 80.213333 15.36 8.533333 34.133333 8.533333 49.493333 0 76.8-40.96 153.6-66.56 204.8-80.213333 20.48-5.12 35.84-23.893333 35.84-44.373333v-324.266667h51.2v324.266667c0 44.373333-30.72 81.92-75.093333 93.866666-49.493333 13.653333-122.88 35.84-194.56 75.093334-10.24 8.533333-27.306667 11.946667-44.373334 11.946666zM885.76 723.626667c-13.653333 0-25.6-11.946667-25.6-25.6V337.92c0-13.653333 11.946667-25.6 25.6-25.6s25.6 11.946667 25.6 25.6v360.106667c0 13.653333-11.946667 25.6-25.6 25.6z"  /></svg>