<?xml version="1.0" standalone="no"?><!DOCTYPE svg PUBLIC "-//W3C//DTD SVG 1.1//EN" "http://www.w3.org/Graphics/SVG/1.1/DTD/svg11.dtd"><svg class="icon" width="64px" height="64.00px" viewBox="0 0 1024 1024" version="1.1" xmlns="http://www.w3.org/2000/svg"><path  d="M136.533333 913.237333A25.6 25.6 0 0 1 110.762667 887.466667v-132.437334A25.6 25.6 0 0 1 136.533333 729.429333h132.608a25.6 25.6 0 1 1 0 51.2H161.962667V887.466667A25.6 25.6 0 0 1 136.533333 913.237333zM887.466667 913.237333h-132.437334a25.6 25.6 0 0 1-25.6-25.6v-132.608a25.6 25.6 0 0 1 51.2 0v107.008H887.466667a25.6 25.6 0 0 1 0 51.2zM887.466667 294.570667h-132.437334a25.6 25.6 0 1 1 0-51.2h107.008V136.533333a25.6 25.6 0 0 1 51.2 0v132.608A25.6 25.6 0 0 1 887.466667 294.570667zM268.970667 294.570667a25.6 25.6 0 0 1-25.6-25.6V161.962667H136.533333a25.6 25.6 0 0 1 0-51.2h132.608A25.6 25.6 0 0 1 294.570667 136.533333v132.608a25.6 25.6 0 0 1-25.6 25.429334z"  /><path  d="M74.922667 603.818667a25.429333 25.429333 0 0 1-25.258667-21.674667A479.744 479.744 0 0 1 44.373333 512 466.432 466.432 0 0 1 254.805333 121.514667a25.6 25.6 0 1 1 28.16 42.666666A416.085333 416.085333 0 0 0 95.573333 512a422.229333 422.229333 0 0 0 4.778667 62.464 25.770667 25.770667 0 0 1-21.504 29.184zM512 979.456A466.261333 466.261333 0 0 1 121.514667 769.194667a25.6 25.6 0 1 1 42.666666-28.16A415.914667 415.914667 0 0 0 512 928.256a422.229333 422.229333 0 0 0 62.464-4.608 25.6 25.6 0 1 1 7.68 51.2 481.450667 481.450667 0 0 1-70.144 4.608zM755.029333 906.752a25.941333 25.941333 0 0 1-21.162666-11.434667 25.429333 25.429333 0 0 1 7.338666-35.498666A416.085333 416.085333 0 0 0 928.426667 512a426.666667 426.666667 0 0 0-4.778667-62.464 25.6 25.6 0 1 1 51.2-7.68A483.328 483.328 0 0 1 979.626667 512a466.432 466.432 0 0 1-210.432 390.485333 25.429333 25.429333 0 0 1-14.165334 4.266667zM881.152 294.570667a25.429333 25.429333 0 0 1-21.333333-11.605334A415.914667 415.914667 0 0 0 512 95.744a422.229333 422.229333 0 0 0-62.464 4.608 25.6 25.6 0 1 1-7.68-51.2A479.744 479.744 0 0 1 512 44.544a466.602667 466.602667 0 0 1 390.485333 210.261333 25.6 25.6 0 0 1-7.168 35.328 25.941333 25.941333 0 0 1-14.165333 4.437334zM435.2 691.712a25.258667 25.258667 0 0 1-12.629333-3.242667A25.770667 25.770667 0 0 1 409.6 665.6V370.005333a25.6 25.6 0 0 1 38.741333-21.845333l246.613334 147.968a25.6 25.6 0 0 1 0 43.861333l-246.613334 148.138667a26.282667 26.282667 0 0 1-13.141333 3.584z m25.6-276.48v205.653333l170.666667-102.4z"  /></svg>