<?xml version="1.0" standalone="no"?><!DOCTYPE svg PUBLIC "-//W3C//DTD SVG 1.1//EN" "http://www.w3.org/Graphics/SVG/1.1/DTD/svg11.dtd"><svg class="icon" width="64px" height="64.00px" viewBox="0 0 1024 1024" version="1.1" xmlns="http://www.w3.org/2000/svg"><path  d="M65.536 413.525333a25.6 25.6 0 0 1-25.6-25.6C39.936 176.64 151.722667 64.853333 363.178667 64.853333a25.6 25.6 0 0 1 0 51.2C180.224 116.053333 91.136 204.8 91.136 387.925333a25.6 25.6 0 0 1-25.6 25.6zM611.157333 959.146667a25.6 25.6 0 0 1 0-51.2c183.125333 0 272.042667-88.917333 272.042667-271.872a25.6 25.6 0 0 1 51.2 0c0 211.285333-111.786667 323.072-323.242667 323.072zM958.464 463.189333H611.157333a25.6 25.6 0 0 1-25.6-25.6v-99.157333a273.066667 273.066667 0 0 1 273.066667-273.066667h99.328a25.6 25.6 0 0 1 25.6 25.6v346.624a25.6 25.6 0 0 1-25.088 25.6z m-321.706667-51.2h296.106667V116.053333h-73.728a221.866667 221.866667 0 0 0-221.866667 221.866667zM164.864 959.146667H65.536a25.6 25.6 0 0 1-25.6-25.6V586.410667a25.6 25.6 0 0 1 25.6-25.6h347.306667a25.6 25.6 0 0 1 25.6 25.6v99.157333A273.066667 273.066667 0 0 1 164.864 959.146667z m-73.728-51.2h73.728a221.866667 221.866667 0 0 0 221.866667-221.866667v-74.069333H91.136z"  /></svg>