<?xml version="1.0" standalone="no"?><!DOCTYPE svg PUBLIC "-//W3C//DTD SVG 1.1//EN" "http://www.w3.org/Graphics/SVG/1.1/DTD/svg11.dtd"><svg class="icon" width="64px" height="64.00px" viewBox="0 0 1024 1024" version="1.1" xmlns="http://www.w3.org/2000/svg"><path  d="M853.333333 736.768H597.333333a25.6 25.6 0 0 1 0-51.2h256a31.402667 31.402667 0 0 0 19.285334-6.656 31.914667 31.914667 0 0 0 11.093333-17.066667l28.501333-113.834666a32.256 32.256 0 0 0 0-13.994667 32.597333 32.597333 0 0 0-5.973333-12.8 30.549333 30.549333 0 0 0-10.922667-8.874667 32.085333 32.085333 0 0 0-13.653333-3.242666H142.165333a32.085333 32.085333 0 0 0-13.653333 3.242666 30.549333 30.549333 0 0 0-10.922667 8.874667 32.597333 32.597333 0 0 0-5.973333 12.8 32.256 32.256 0 0 0 0 13.994667l28.501333 113.834666a31.914667 31.914667 0 0 0 11.093334 17.066667 31.402667 31.402667 0 0 0 19.285333 6.656H426.666667a25.6 25.6 0 0 1 0 51.2H170.666667a83.114667 83.114667 0 0 1-80.042667-62.464l-28.501333-113.834667a82.602667 82.602667 0 0 1 43.861333-94.208 83.285333 83.285333 0 0 1 36.181333-8.362666h739.669334a83.285333 83.285333 0 0 1 36.181333 8.362666 82.432 82.432 0 0 1 43.861333 94.208l-28.501333 113.834667A82.602667 82.602667 0 0 1 853.333333 736.768z"  /><path  d="M597.333333 964.266667H426.666667a25.6 25.6 0 0 1-25.6-25.6V625.834667a25.6 25.6 0 0 1 51.2 0V913.066667h119.466666V625.834667a25.6 25.6 0 0 1 51.2 0V938.666667a25.6 25.6 0 0 1-25.6 25.6zM512 509.098667a25.6 25.6 0 0 1-25.6-25.6v-113.664a25.6 25.6 0 0 1 51.2 0v113.664a25.6 25.6 0 0 1-25.6 25.6z"  /><path  d="M512 395.434667a110.933333 110.933333 0 0 1-110.933333-110.933334V170.666667a110.933333 110.933333 0 1 1 221.866666 0v113.834666a110.933333 110.933333 0 0 1-110.933333 110.933334zM512 110.933333a59.733333 59.733333 0 0 0-59.733333 59.733334v113.834666a59.221333 59.221333 0 0 0 17.066666 42.154667 61.44 61.44 0 0 0 85.333334 0 59.221333 59.221333 0 0 0 17.066666-42.154667V170.666667A59.733333 59.733333 0 0 0 512 110.933333zM739.498667 509.098667a25.258667 25.258667 0 0 1-18.090667-7.509334 25.770667 25.770667 0 0 1 0-36.181333l102.4-102.4a31.061333 31.061333 0 0 0 8.874667-21.674667 31.914667 31.914667 0 0 0-9.216-22.186666l-34.133334-33.28a25.6 25.6 0 0 1 36.352-36.181334l33.28 33.28a82.432 82.432 0 0 1 0 116.736l-102.4 102.4a24.746667 24.746667 0 0 1-17.066666 6.997334z"  /><path  d="M768 310.101333a82.432 82.432 0 0 1-82.432-82.602666A82.432 82.432 0 1 1 768 310.101333z m0-113.834666a31.914667 31.914667 0 0 0-22.186667 9.216 30.890667 30.890667 0 0 0-9.045333 22.016 31.402667 31.402667 0 0 0 9.045333 22.186666 32.256 32.256 0 0 0 44.373334 0 31.402667 31.402667 0 0 0 9.045333-22.186666A31.232 31.232 0 0 0 768 196.266667zM284.501333 509.098667a24.746667 24.746667 0 0 1-18.090666-7.509334l-102.4-102.4a82.432 82.432 0 0 1 0-116.736l33.28-33.28a25.6 25.6 0 0 1 36.352 36.181334l-34.133334 33.28a31.914667 31.914667 0 0 0-9.216 22.186666 31.061333 31.061333 0 0 0 9.216 22.016l102.4 102.4a25.770667 25.770667 0 0 1 0 36.181334 25.258667 25.258667 0 0 1-17.408 7.68z"  /><path  d="M256 310.101333a82.432 82.432 0 1 1 58.368-24.234666A82.261333 82.261333 0 0 1 256 310.101333z m0-113.834666a31.914667 31.914667 0 0 0-22.186667 9.216 30.890667 30.890667 0 0 0-9.045333 22.016 31.402667 31.402667 0 0 0 9.045333 22.186666 32.256 32.256 0 0 0 44.373334 0 31.402667 31.402667 0 0 0 9.045333-22.186666A31.232 31.232 0 0 0 256 196.266667z"  /></svg>