<?xml version="1.0" standalone="no"?><!DOCTYPE svg PUBLIC "-//W3C//DTD SVG 1.1//EN" "http://www.w3.org/Graphics/SVG/1.1/DTD/svg11.dtd"><svg class="icon" width="64px" height="64.00px" viewBox="0 0 1024 1024" version="1.1" xmlns="http://www.w3.org/2000/svg"><path  d="M512 989.866667C248.490667 989.866667 34.133333 775.509333 34.133333 512S248.490667 34.133333 512 34.133333s477.866667 214.357333 477.866667 477.866667-214.357333 477.866667-477.866667 477.866667z m0-904.533334C276.821333 85.333333 85.333333 276.650667 85.333333 512s191.317333 426.666667 426.666667 426.666667 426.666667-191.317333 426.666667-426.666667S747.349333 85.333333 512 85.333333z"  /><path  d="M460.288 592.213333c-6.485333 0-13.141333-2.56-18.090667-7.509333l-151.381333-151.381333c-10.069333-10.069333-10.069333-26.282667 0-36.181334s26.282667-10.069333 36.181333 0l151.381334 151.381334c10.069333 10.069333 10.069333 26.282667 0 36.181333-4.949333 5.12-11.605333 7.509333-18.090667 7.509333z"  /><path  d="M460.288 592.213333c-6.485333 0-13.141333-2.56-18.090667-7.509333a25.429333 25.429333 0 0 1 0-36.181333L697.173333 293.546667c10.069333-10.069333 26.282667-10.069333 36.181334 0s10.069333 26.282667 0 36.181333L478.378667 584.874667c-4.949333 4.949333-11.605333 7.338667-18.090667 7.338666zM725.504 737.792H298.496c-14.165333 0-25.6-11.434667-25.6-25.6s11.434667-25.6 25.6-25.6h427.008c14.165333 0 25.6 11.434667 25.6 25.6s-11.434667 25.6-25.6 25.6z"  /></svg>