<?xml version="1.0" standalone="no"?><!DOCTYPE svg PUBLIC "-//W3C//DTD SVG 1.1//EN" "http://www.w3.org/Graphics/SVG/1.1/DTD/svg11.dtd"><svg class="icon" width="64px" height="64.00px" viewBox="0 0 1024 1024" version="1.1" xmlns="http://www.w3.org/2000/svg"><path  d="M512 761.173333c-6.826667 0-13.653333-1.706667-18.773333-6.826666l-56.32-56.32H324.266667c-51.2 0-93.866667-42.666667-93.866667-93.866667V356.693333c0-51.2 42.666667-93.866667 93.866667-93.866666h375.466666c51.2 0 93.866667 42.666667 93.866667 93.866666v247.466667c0 51.2-42.666667 93.866667-93.866667 93.866667h-112.64l-56.32 56.32c-5.12 5.12-11.946667 6.826667-18.773333 6.826666zM324.266667 314.026667c-23.893333 0-42.666667 18.773333-42.666667 42.666666v247.466667c0 23.893333 18.773333 42.666667 42.666667 42.666667h122.88c6.826667 0 13.653333 3.413333 18.773333 6.826666L512 699.733333l46.08-46.08c5.12-5.12 11.946667-6.826667 18.773333-6.826666H699.733333c23.893333 0 42.666667-18.773333 42.666667-42.666667V356.693333c0-23.893333-18.773333-42.666667-42.666667-42.666666H324.266667z"  /><path  d="M358.4 556.373333c-13.653333 0-25.6-11.946667-25.6-25.6v-102.4c0-13.653333 11.946667-25.6 25.6-25.6s25.6 11.946667 25.6 25.6v102.4c0 15.36-11.946667 25.6-25.6 25.6zM460.8 595.626667c-13.653333 0-25.6-11.946667-25.6-25.6V390.826667c0-13.653333 11.946667-25.6 25.6-25.6s25.6 11.946667 25.6 25.6v179.2c0 13.653333-11.946667 25.6-25.6 25.6zM563.2 530.773333c-13.653333 0-25.6-11.946667-25.6-25.6v-51.2c0-13.653333 11.946667-25.6 25.6-25.6s25.6 11.946667 25.6 25.6v51.2c0 15.36-11.946667 25.6-25.6 25.6zM665.6 556.373333c-13.653333 0-25.6-11.946667-25.6-25.6v-102.4c0-13.653333 11.946667-25.6 25.6-25.6s25.6 11.946667 25.6 25.6v102.4c0 15.36-11.946667 25.6-25.6 25.6z"  /><path  d="M836.266667 989.866667H187.733333c-51.2 0-93.866667-42.666667-93.866666-93.866667v-768C93.866667 76.8 136.533333 34.133333 187.733333 34.133333h648.533334c51.2 0 93.866667 42.666667 93.866666 93.866667v768c0 51.2-42.666667 93.866667-93.866666 93.866667zM187.733333 85.333333C163.84 85.333333 145.066667 104.106667 145.066667 128v768c0 23.893333 18.773333 42.666667 42.666666 42.666667h648.533334c23.893333 0 42.666667-18.773333 42.666666-42.666667v-768C878.933333 104.106667 860.16 85.333333 836.266667 85.333333H187.733333z"  /></svg>