<?xml version="1.0" standalone="no"?><!DOCTYPE svg PUBLIC "-//W3C//DTD SVG 1.1//EN" "http://www.w3.org/Graphics/SVG/1.1/DTD/svg11.dtd"><svg class="icon" width="64px" height="64.00px" viewBox="0 0 1024 1024" version="1.1" xmlns="http://www.w3.org/2000/svg"><path  d="M512 989.866667c-15.36 0-30.72-5.12-42.666667-17.066667l-88.746666-88.746667c-1.706667-1.706667-3.413333-3.413333-6.826667-3.413333h-170.666667c-32.426667 0-59.733333-27.306667-59.733333-59.733333V648.533333c0-1.706667-1.706667-5.12-3.413333-6.826666L51.2 554.666667c-23.893333-23.893333-23.893333-61.44 0-85.333334l88.746667-88.746666c1.706667-1.706667 3.413333-3.413333 3.413333-6.826667v-170.666667c0-32.426667 27.306667-59.733333 59.733333-59.733333H375.466667c1.706667 0 5.12-1.706667 6.826666-3.413333L469.333333 51.2c23.893333-23.893333 61.44-23.893333 85.333334 0l88.746666 88.746667c1.706667 1.706667 3.413333 3.413333 6.826667 3.413333h172.373333c32.426667 0 59.733333 27.306667 59.733334 59.733333V375.466667c0 1.706667 1.706667 5.12 3.413333 6.826666l88.746667 88.746667c23.893333 23.893333 23.893333 61.44 0 85.333333l-88.746667 88.746667c-1.706667 1.706667-3.413333 3.413333-3.413333 6.826667v172.373333c0 32.426667-27.306667 59.733333-59.733334 59.733333H648.533333c-1.706667 0-5.12 1.706667-6.826666 3.413334l-87.04 85.333333c-11.946667 11.946667-27.306667 17.066667-42.666667 17.066667zM203.093333 194.56c-5.12 0-8.533333 3.413333-8.533333 8.533333V375.466667c0 15.36-6.826667 30.72-17.066667 42.666666l-88.746666 88.746667c-3.413333 3.413333-3.413333 8.533333 0 11.946667l88.746666 88.746666c11.946667 11.946667 17.066667 25.6 17.066667 42.666667v172.373333c0 5.12 3.413333 8.533333 8.533333 8.533334H375.466667c15.36 0 30.72 6.826667 42.666666 17.066666l88.746667 88.746667c3.413333 3.413333 8.533333 3.413333 11.946667 0l88.746666-88.746667c11.946667-11.946667 27.306667-17.066667 42.666667-17.066666h172.373333c5.12 0 8.533333-3.413333 8.533334-8.533334V648.533333c0-15.36 6.826667-30.72 17.066666-42.666666l88.746667-88.746667c3.413333-3.413333 3.413333-8.533333 0-11.946667l-88.746667-88.746666c-11.946667-11.946667-17.066667-27.306667-17.066666-42.666667v-170.666667c0-5.12-3.413333-8.533333-8.533334-8.533333H648.533333c-15.36 0-30.72-6.826667-42.666666-17.066667l-88.746667-88.746666c-3.413333-3.413333-8.533333-3.413333-11.946667 0l-88.746666 88.746666c-11.946667 11.946667-25.6 17.066667-42.666667 17.066667h-170.666667z"  /><path  d="M675.84 537.6H348.16c-13.653333 0-25.6-11.946667-25.6-25.6s11.946667-25.6 25.6-25.6h325.973333c13.653333 0 25.6 11.946667 25.6 25.6s-10.24 25.6-23.893333 25.6z"  /></svg>