<?xml version="1.0" standalone="no"?><!DOCTYPE svg PUBLIC "-//W3C//DTD SVG 1.1//EN" "http://www.w3.org/Graphics/SVG/1.1/DTD/svg11.dtd"><svg class="icon" width="64px" height="64.00px" viewBox="0 0 1024 1024" version="1.1" xmlns="http://www.w3.org/2000/svg"><path  d="M964.266667 512h-904.533334c-13.653333 0-25.6-10.24-25.6-25.6V296.96c0-13.653333 11.946667-25.6 25.6-25.6h331.093334V105.813333c0-13.653333 11.946667-25.6 25.6-25.6h191.146666c13.653333 0 25.6 11.946667 25.6 25.6v165.546667h331.093334c13.653333 0 25.6 11.946667 25.6 25.6v191.146667c0 13.653333-11.946667 23.893333-25.6 23.893333zM85.333333 460.8h853.333334v-139.946667H607.573333c-13.653333 0-25.6-11.946667-25.6-25.6V131.413333h-139.946666v165.546667c0 13.653333-11.946667 25.6-25.6 25.6H85.333333V460.8z"  /><path  d="M826.026667 943.786667H197.973333c-51.2 0-92.16-40.96-92.16-92.16V489.813333c0-13.653333 11.946667-25.6 25.6-25.6h761.173334c13.653333 0 25.6 11.946667 25.6 25.6v361.813334c0 49.493333-40.96 92.16-92.16 92.16zM157.013333 515.413333v336.213334c0 22.186667 18.773333 40.96 40.96 40.96h628.053334c22.186667 0 40.96-18.773333 40.96-40.96V515.413333H157.013333z"  /><path  d="M320.853333 940.373333c-13.653333 0-25.6-11.946667-25.6-25.6v-141.653333c0-13.653333 11.946667-25.6 25.6-25.6s25.6 11.946667 25.6 25.6v141.653333c0 15.36-10.24 25.6-25.6 25.6zM512 940.373333c-13.653333 0-25.6-11.946667-25.6-25.6v-143.36c0-13.653333 11.946667-25.6 25.6-25.6s25.6 11.946667 25.6 25.6v143.36c0 15.36-11.946667 25.6-25.6 25.6zM703.146667 940.373333c-13.653333 0-25.6-11.946667-25.6-25.6v-141.653333c0-13.653333 11.946667-25.6 25.6-25.6s25.6 11.946667 25.6 25.6v141.653333c0 15.36-11.946667 25.6-25.6 25.6z"  /><path  d="M797.013333 943.786667H226.986667c-13.653333 0-25.6-11.946667-25.6-25.6s11.946667-25.6 25.6-25.6h571.733333c13.653333 0 25.6 11.946667 25.6 25.6s-11.946667 25.6-27.306667 25.6z"  /></svg>