<?xml version="1.0" standalone="no"?><!DOCTYPE svg PUBLIC "-//W3C//DTD SVG 1.1//EN" "http://www.w3.org/Graphics/SVG/1.1/DTD/svg11.dtd"><svg class="icon" width="64px" height="64.00px" viewBox="0 0 1024 1024" version="1.1" xmlns="http://www.w3.org/2000/svg"><path  d="M465.578667 966.656h-358.4A73.386667 73.386667 0 0 1 34.133333 893.269333V129.877333a73.216 73.216 0 0 1 73.557334-73.216h286.378666a25.429333 25.429333 0 0 1 19.626667 9.216l111.616 133.802667h393.557333a73.557333 73.557333 0 0 1 73.386667 73.386667v214.698666a25.6 25.6 0 0 1-51.2 0V273.066667a22.186667 22.186667 0 0 0-22.186667-22.186667H513.365333a25.429333 25.429333 0 0 1-19.797333-9.216l-111.616-133.802667H107.690667A22.016 22.016 0 0 0 85.333333 129.877333v763.392a22.186667 22.186667 0 0 0 22.016 22.186667h358.4a25.6 25.6 0 0 1 0 51.2z"  /><path  d="M894.976 918.869333a25.088 25.088 0 0 1-18.090667-7.509333l-238.933333-238.933333a25.6 25.6 0 0 1 36.181333-36.181334l238.933334 238.933334a25.429333 25.429333 0 0 1 0 36.181333 24.746667 24.746667 0 0 1-18.090667 7.509333z"  /><path  d="M656.384 918.869333a25.258667 25.258667 0 0 1-18.090667-7.509333 25.770667 25.770667 0 0 1 0-36.181333l238.933334-238.933334a25.770667 25.770667 0 0 1 36.181333 0 25.429333 25.429333 0 0 1 0 36.181334l-238.933333 238.933333a24.746667 24.746667 0 0 1-18.090667 7.509333z"  /></svg>