<?xml version="1.0" standalone="no"?><!DOCTYPE svg PUBLIC "-//W3C//DTD SVG 1.1//EN" "http://www.w3.org/Graphics/SVG/1.1/DTD/svg11.dtd"><svg class="icon" width="64px" height="64.00px" viewBox="0 0 1024 1024" version="1.1" xmlns="http://www.w3.org/2000/svg"><path  d="M814.08 687.786667c-6.826667 0-13.653333-1.706667-18.773333-6.826667-10.24-10.24-10.24-25.6 0-35.84l133.12-133.12-133.12-133.12c-10.24-10.24-10.24-25.6 0-35.84s25.6-10.24 35.84 0l150.186666 150.186667c5.12 5.12 6.826667 11.946667 6.826667 18.773333s-3.413333 13.653333-6.826667 18.773333l-150.186666 150.186667c-5.12 5.12-10.24 6.826667-17.066667 6.826667zM209.92 687.786667c-6.826667 0-13.653333-1.706667-18.773333-6.826667l-150.186667-150.186667c-3.413333-5.12-6.826667-11.946667-6.826667-18.773333s3.413333-13.653333 6.826667-18.773333l150.186667-150.186667c10.24-10.24 25.6-10.24 35.84 0s10.24 25.6 0 35.84L95.573333 512l133.12 133.12c10.24 10.24 10.24 25.6 0 35.84-5.12 5.12-11.946667 6.826667-18.773333 6.826667z"  /><path  d="M964.266667 537.6h-904.533334c-13.653333 0-25.6-11.946667-25.6-25.6s11.946667-25.6 25.6-25.6h904.533334c13.653333 0 25.6 11.946667 25.6 25.6s-11.946667 25.6-25.6 25.6zM512 989.866667c-6.826667 0-13.653333-1.706667-18.773333-6.826667l-150.186667-150.186667c-10.24-10.24-10.24-25.6 0-35.84s25.6-10.24 35.84 0l133.12 133.12 133.12-133.12c10.24-10.24 25.6-10.24 35.84 0s10.24 25.6 0 35.84l-150.186667 150.186667c-5.12 5.12-11.946667 6.826667-18.773333 6.826667zM662.186667 235.52c-6.826667 0-13.653333-1.706667-18.773334-6.826667L512 95.573333l-133.12 133.12c-10.24 10.24-25.6 10.24-35.84 0s-10.24-25.6 0-35.84l150.186667-150.186666c10.24-10.24 25.6-10.24 35.84 0l150.186666 150.186666c10.24 10.24 10.24 25.6 0 35.84-3.413333 5.12-10.24 6.826667-17.066666 6.826667z"  /><path  d="M512 989.866667c-13.653333 0-25.6-11.946667-25.6-25.6v-904.533334c0-13.653333 11.946667-25.6 25.6-25.6s25.6 11.946667 25.6 25.6v904.533334c0 13.653333-11.946667 25.6-25.6 25.6z"  /></svg>