<?xml version="1.0" standalone="no"?><!DOCTYPE svg PUBLIC "-//W3C//DTD SVG 1.1//EN" "http://www.w3.org/Graphics/SVG/1.1/DTD/svg11.dtd"><svg class="icon" width="64px" height="64.00px" viewBox="0 0 1024 1024" version="1.1" xmlns="http://www.w3.org/2000/svg"><path  d="M897.706667 965.973333H126.293333c-51.2 0-92.16-40.96-92.16-92.16V150.186667c0-51.2 40.96-92.16 92.16-92.16h250.88c17.066667 0 34.133333 8.533333 46.08 20.48l98.986667 119.466666c1.706667 1.706667 3.413333 3.413333 6.826667 3.413334h370.346666c51.2 0 92.16 40.96 92.16 92.16v580.266666c-1.706667 51.2-42.666667 92.16-93.866666 92.16zM126.293333 109.226667C104.106667 109.226667 85.333333 128 85.333333 150.186667v723.626666c0 22.186667 18.773333 40.96 40.96 40.96h769.706667c22.186667 0 40.96-18.773333 40.96-40.96v-580.266666c0-22.186667-18.773333-40.96-40.96-40.96H527.36c-17.066667 0-34.133333-8.533333-46.08-20.48l-98.986667-119.466667c-1.706667-1.706667-3.413333-3.413333-6.826666-3.413333H126.293333z"  /><path  d="M711.68 604.16H310.613333c-13.653333 0-25.6-11.946667-25.6-25.6s11.946667-25.6 25.6-25.6h401.066667c13.653333 0 25.6 11.946667 25.6 25.6s-10.24 25.6-25.6 25.6z"  /><path  d="M600.746667 716.8c-6.826667 0-13.653333-1.706667-18.773334-6.826667-10.24-10.24-10.24-25.6 0-35.84l93.866667-93.866666-93.866667-93.866667c-10.24-10.24-10.24-25.6 0-35.84s25.6-10.24 35.84 0l112.64 112.64c5.12 5.12 6.826667 11.946667 6.826667 18.773333s-3.413333 13.653333-6.826667 18.773334l-112.64 112.64c-3.413333 1.706667-10.24 3.413333-17.066666 3.413333z"  /></svg>