<?xml version="1.0" standalone="no"?><!DOCTYPE svg PUBLIC "-//W3C//DTD SVG 1.1//EN" "http://www.w3.org/Graphics/SVG/1.1/DTD/svg11.dtd"><svg class="icon" width="64px" height="64.00px" viewBox="0 0 1024 1024" version="1.1" xmlns="http://www.w3.org/2000/svg"><path  d="M150.528 117.418667a34.133333 34.133333 0 0 0-34.133333 34.133333v722.432a34.133333 34.133333 0 0 0 34.133333 34.133333h722.944a34.133333 34.133333 0 0 0 34.133333-34.133333V151.04a34.133333 34.133333 0 0 0-34.133333-34.133333z m0-67.413334h722.944a100.864 100.864 0 0 1 100.864 101.034667v722.944a100.864 100.864 0 0 1-100.864 100.864H150.528a100.864 100.864 0 0 1-100.864-100.864V151.04a100.864 100.864 0 0 1 100.864-101.034667z"  /><path  d="M189.44 294.741333h257.536v57.344H258.048v121.344h159.914667v58.026667h-159.914667v140.8h195.413333v58.026667H189.44zM514.901333 294.741333h70.485334l144.384 256 45.568 92.330667h3.072c-3.584-45.056-8.874667-97.792-8.874667-145.066667V294.741333h65.024v435.541334h-70.485333l-144.384-256-45.568-91.989334h-2.901334c3.584 44.373333 9.045333 95.573333 9.045334 142.677334v204.8h-65.365334z"  /></svg>