<?xml version="1.0" standalone="no"?><!DOCTYPE svg PUBLIC "-//W3C//DTD SVG 1.1//EN" "http://www.w3.org/Graphics/SVG/1.1/DTD/svg11.dtd"><svg class="icon" width="64px" height="64.00px" viewBox="0 0 1024 1024" version="1.1" xmlns="http://www.w3.org/2000/svg"><path  d="M662.186667 692.906667H121.173333a81.92 81.92 0 0 1-85.333333-85.333334V187.733333a83.626667 83.626667 0 0 1 85.333333-87.04h541.013334a83.626667 83.626667 0 0 1 85.333333 87.04v419.84a81.92 81.92 0 0 1-85.333333 85.333334z m0-541.013334H121.173333a32.426667 32.426667 0 0 0-34.133333 35.84v419.84a32.426667 32.426667 0 0 0 34.133333 34.133334h541.013334a30.72 30.72 0 0 0 34.133333-34.133334V187.733333a32.426667 32.426667 0 0 0-34.133333-35.84z"  /><path  d="M721.92 332.8H61.44a25.6 25.6 0 0 1 0-51.2h660.48a25.6 25.6 0 0 1 0 51.2zM781.653333 812.373333H242.346667a23.893333 23.893333 0 0 1-25.6-25.6 25.6 25.6 0 0 1 25.6-25.6h539.306666a35.84 35.84 0 0 0 35.84-34.133333V307.2a25.6 25.6 0 0 1 25.6-25.6 25.6 25.6 0 0 1 25.6 25.6v419.84a90.453333 90.453333 0 0 1-25.6 61.44 88.746667 88.746667 0 0 1-61.44 23.893333z"  /><path  d="M902.826667 933.546667H361.813333a25.6 25.6 0 0 1-25.6-25.6 25.6 25.6 0 0 1 25.6-25.6h541.013334a35.84 35.84 0 0 0 34.133333-34.133334V426.666667a25.6 25.6 0 0 1 51.2 0v421.546666a80.213333 80.213333 0 0 1-25.6 59.733334 87.04 87.04 0 0 1-59.733333 25.6z"  /></svg>