<?xml version="1.0" standalone="no"?><!DOCTYPE svg PUBLIC "-//W3C//DTD SVG 1.1//EN" "http://www.w3.org/Graphics/SVG/1.1/DTD/svg11.dtd"><svg class="icon" width="64px" height="64.00px" viewBox="0 0 1024 1024" version="1.1" xmlns="http://www.w3.org/2000/svg"><path  d="M312.32 482.986667h-59.733333a25.6 25.6 0 0 1 0-51.2h59.733333a25.6 25.6 0 0 1 0 51.2zM312.32 633.173333h-59.733333a25.6 25.6 0 0 1 0-51.2h59.733333a25.6 25.6 0 1 1 0 51.2zM312.32 783.36h-59.733333a25.6 25.6 0 0 1 0-51.2h59.733333a25.6 25.6 0 1 1 0 51.2zM773.12 482.986667h-341.333333a25.6 25.6 0 0 1 0-51.2h341.333333a25.6 25.6 0 0 1 0 51.2zM773.12 633.173333h-341.333333a25.6 25.6 0 0 1 0-51.2h341.333333a25.6 25.6 0 0 1 0 51.2zM773.12 783.36h-341.333333a25.6 25.6 0 0 1 0-51.2h341.333333a25.6 25.6 0 0 1 0 51.2z"  /><path  d="M902.826667 943.786667H121.173333a83.626667 83.626667 0 0 1-85.333333-87.04V177.493333a83.626667 83.626667 0 0 1 85.333333-87.04h781.653334a83.626667 83.626667 0 0 1 85.333333 87.04v679.253334a83.626667 83.626667 0 0 1-85.333333 87.04zM121.173333 141.653333a32.426667 32.426667 0 0 0-34.133333 35.84v679.253334a34.133333 34.133333 0 0 0 34.133333 35.84h781.653334a32.426667 32.426667 0 0 0 34.133333-35.84V177.493333a34.133333 34.133333 0 0 0-34.133333-35.84z"  /><path  d="M962.56 322.56H61.44a25.6 25.6 0 1 1 0-51.2h901.12a25.6 25.6 0 1 1 0 51.2z"  /></svg>