<?xml version="1.0" standalone="no"?><!DOCTYPE svg PUBLIC "-//W3C//DTD SVG 1.1//EN" "http://www.w3.org/Graphics/SVG/1.1/DTD/svg11.dtd"><svg class="icon" width="64px" height="64.00px" viewBox="0 0 1024 1024" version="1.1" xmlns="http://www.w3.org/2000/svg"><path  d="M903.509333 781.653333a59.733333 59.733333 0 0 0 29.354667 21.333334c5.632 0.853333 0-1.024-1.024 0-2.901333 4.778667-1.706667 12.458667-6.144 17.066666s-3.925333 2.56-11.946667 1.024a81.066667 81.066667 0 0 0-20.309333-1.706666 75.093333 75.093333 0 0 0-42.154667 13.141333 72.704 72.704 0 0 0-24.746666 74.24 54.101333 54.101333 0 0 1 3.242666 10.24c0.853333-5.973333 0-1.024-4.949333 0.853333s-19.968 5.290667-13.312 9.728c-2.901333-1.877333-6.485333-13.141333-8.874667-17.066666a80.384 80.384 0 0 0-17.066666-18.090667 68.266667 68.266667 0 0 0-78.506667-4.778667 86.528 86.528 0 0 0-27.989333 28.16c-4.437333 7.168-2.218667 6.826667-9.557334 5.632s-16.042667-9.386667-20.48-8.874666 0-1.706667-1.877333 4.266666c1.024-2.901333 2.56-5.632 3.413333-8.704a73.898667 73.898667 0 0 0 3.754667-18.261333 65.706667 65.706667 0 0 0-80.725333-68.266667 63.146667 63.146667 0 0 1-13.312 2.56c-10.752-1.024 2.048 1.536 0 0s-3.754667-10.24-6.485334-14.677333c0 0-1.024-9.557333-2.389333-4.778667s1.365333 0 4.266667-1.536a82.432 82.432 0 0 0 20.309333-15.018666 69.461333 69.461333 0 0 0 17.066667-75.605334 75.093333 75.093333 0 0 0-25.258667-31.744 104.96 104.96 0 0 0-15.701333-9.728c-6.485333-3.413333 0 1.194667 0 3.242667a37.888 37.888 0 0 1 4.778666-17.066667l5.12-9.557333s-12.970667-3.072-9.045333 1.877333c1.706667 2.218667 11.776 3.413333 14.336 3.925334A77.312 77.312 0 0 0 614.4 648.533333a69.802667 69.802667 0 0 0 42.154667-66.218666 54.442667 54.442667 0 0 0-1.194667-22.869334s-1.365333-8.021333-2.730667-1.365333-0.853333 1.024 3.242667 0a108.714667 108.714667 0 0 0 15.189333-6.144c3.754667-2.218667 8.192-2.218667 1.365334-6.826667 2.218667 1.536 3.754667 8.192 5.12 10.410667a73.557333 73.557333 0 0 0 68.266666 37.546667 75.093333 75.093333 0 0 0 51.2-25.770667c2.901333-3.413333 8.704-17.066667 11.434667-18.432-4.266667 1.536 10.24 5.802667 11.946667 6.656s5.632 4.437333 6.314666 4.437333 2.218667-4.778667 1.706667-3.242666a80.213333 80.213333 0 0 0-3.072 48.981333 71.509333 71.509333 0 0 0 71.509333 51.2 155.818667 155.818667 0 0 0 25.429334-4.949333c9.216-1.706667 0.853333-1.024 0-1.706667 3.413333 2.730667 4.608 9.557333 5.973333 13.482667a75.264 75.264 0 0 0 2.730667 9.386666c-1.536-2.56 8.021333-6.485333-2.218667-2.218666a64 64 0 0 0-17.066667 12.629333 73.898667 73.898667 0 0 0-11.946666 93.525333A25.6 25.6 0 0 0 943.786667 750.933333c-10.410667-17.066667-1.706667-28.842667 13.824-37.376a42.496 42.496 0 0 0 25.088-34.133333c2.389333-27.306667-17.066667-71.509333-45.056-79.018667-17.066667-4.437333-27.989333 6.314667-44.032 5.632-21.333333 0-19.968-20.138667-15.701334-35.328 9.216-31.573333-18.261333-54.784-45.397333-64.682666a61.098667 61.098667 0 0 0-47.445333-2.730667 68.266667 68.266667 0 0 0-23.722667 27.648 21.845333 21.845333 0 0 1-34.133333 4.437333c-11.946667-11.946667-12.970667-28.842667-31.744-34.133333a91.477333 91.477333 0 0 0-81.578667 27.136 45.568 45.568 0 0 0-7.68 42.154667c2.048 17.066667 0 33.109333-19.456 34.133333-11.264 0-21.162667-6.656-32.768-5.632a51.2 51.2 0 0 0-37.888 29.013333c-15.189333 26.965333-22.016 68.266667 9.045333 86.357334 11.605333 6.997333 29.354667 14.336 21.162667 31.061333-6.997333 14.165333-25.941333 17.066667-34.986667 28.842667-18.602667 25.088-4.949333 68.266667 14.677334 88.746666a43.008 43.008 0 0 0 41.984 13.141334c12.629333-2.389333 34.133333-9.386667 36.010666 10.24 1.194667 14.848-10.752 26.624-5.802666 42.666666a60.074667 60.074667 0 0 0 30.72 32.426667c28.16 14.848 66.730667 24.917333 88.234666-5.461333 7.168-10.24 11.264-25.6 26.794667-25.6 18.261333 0 20.992 22.016 30.549333 32.768 24.405333 27.818667 77.141333 8.874667 97.962667-15.36 14.165333-17.066667 9.386667-31.061333 5.461333-49.834667-4.778667-21.674667 9.728-28.672 29.184-25.088a53.418667 53.418667 0 0 0 47.274667-6.656 79.530667 79.530667 0 0 0 26.794667-42.837333 55.466667 55.466667 0 0 0-8.362667-52.906667c-9.216-11.434667-23.552-13.994667-32.938667-25.088-21.162667-25.429333-57.173333 11.093333-36.181333 36.181333z"  /><path  d="M779.093333 640.170667a103.765333 103.765333 0 0 0-120.490666 36.010666 102.4 102.4 0 0 0 114.005333 157.184A102.4 102.4 0 0 0 785.066667 642.730667a26.112 26.112 0 0 0-34.133334 9.216 25.770667 25.770667 0 0 0 9.045334 34.133333 94.72 94.72 0 0 1 15.018666 9.045333c3.072 2.218667-3.242667-2.730667 0 0l2.218667 1.877334 2.389333 2.048s6.485333 7.68 4.096 4.266666a65.024 65.024 0 0 1 5.632 9.386667s2.389333 5.12 1.365334 2.730667 1.024 2.901333 1.194666 3.413333l1.536 5.290667c0 1.024 1.194667 6.144 0 2.730666a81.749333 81.749333 0 0 1 0 11.093334V745.984a48.128 48.128 0 0 1-1.194666 5.290667s-1.877333 5.973333-0.853334 3.072 0 1.706667-1.194666 2.218666a34.133333 34.133333 0 0 1-2.56 4.949334c0 1.194667-5.461333 7.850667-2.218667 3.754666-2.048 2.389333-4.096 4.778667-6.485333 7.168a24.746667 24.746667 0 0 0-3.242667 2.901334c-2.389333 2.56 3.242667-2.218667 0 0a81.237333 81.237333 0 0 1-8.021333 5.290666l-3.754667 1.877334c-5.802667 3.242667 2.901333 0-0.853333 0l-8.192 2.56h-4.266667c-3.754667 1.024 4.096 0 0 0h-10.24-3.925333H733.866667a46.421333 46.421333 0 0 1-9.216-2.56s-5.12-2.218667-2.56 0-1.877333-1.024-2.389334-1.365334a64.341333 64.341333 0 0 1-9.216-5.802666c3.413333 2.730667 0 0-1.365333-1.536a32.256 32.256 0 0 1-3.413333-3.413334 35.669333 35.669333 0 0 1-3.413334-3.754666c-2.730667-3.072 1.877333 2.730667 0 0a86.869333 86.869333 0 0 1-5.12-8.533334s-2.389333-5.12-1.536-2.730666-1.536-4.778667-1.877333-6.144a43.349333 43.349333 0 0 1-1.706667-18.090667v-3.584-3.413333l1.536-5.461334c0-1.194667 0-2.56 1.365334-3.925333 0 1.536 0 1.536 0 0a60.757333 60.757333 0 0 1 6.314666-9.898667c-2.218667 2.730667 0 0 0 0l5.461334-5.461333a59.392 59.392 0 0 1 14.677333-9.728c-2.56 1.194667 2.730667 0 3.242667-1.024l6.826666-1.877333a34.133333 34.133333 0 0 1 9.728 0 36.864 36.864 0 0 1 10.069334 0 120.832 120.832 0 0 1 13.312 4.266666 25.770667 25.770667 0 0 0 31.573333-17.066666 26.453333 26.453333 0 0 0-17.066667-33.792zM466.432 739.84a182.272 182.272 0 0 1 37.205333-136.533333 165.888 165.888 0 0 1 29.184-27.648 108.373333 108.373333 0 0 0 34.133334-29.013334c10.752-19.285333 7.338667-45.226667 15.872-66.048 17.066667-40.106667 46.592-73.386667 65.536-112.298666a238.933333 238.933333 0 0 0 21.674666-149.333334C631.466667 6.826667 299.178667-11.776 221.866667 183.125333a223.232 223.232 0 0 0-5.461334 144.554667c13.653333 45.226667 41.642667 82.432 65.536 122.368a172.885333 172.885333 0 0 1 23.552 53.930667 92.672 92.672 0 0 1 1.706667 29.866666c-1.024 10.410667-6.314667 37.205333-17.066667 42.496a65.877333 65.877333 0 0 1-21.674666 0H127.488a82.944 82.944 0 0 0-85.333333 72.362667 702.976 702.976 0 0 0 0 85.333333 57.002667 57.002667 0 0 0 57.685333 61.44c57.685333 1.706667 115.712 0 173.568 0h98.816a282.112 282.112 0 0 0 49.493333-1.024 55.125333 55.125333 0 0 0 44.714667-54.272l-25.6 25.6a25.6 25.6 0 0 0 0-51.2 25.941333 25.941333 0 0 0-25.6 25.6c0 8.533333-108.885333 4.096-119.466667 4.096H115.541333a63.488 63.488 0 0 1-17.066666 0c-5.973333-2.048-4.437333-2.389333-5.461334-9.045333a287.232 287.232 0 0 1 0-43.690667v-32.938666c2.389333-30.208 27.136-30.549333 51.2-30.549334h93.525334a290.133333 290.133333 0 0 0 64.512-1.365333c52.224-12.458667 62.464-87.552 54.101333-131.413333-15.36-80.896-92.16-134.826667-97.28-219.477334a164.693333 164.693333 0 0 1 144.554667-174.762666c86.698667-13.653333 185.344 22.357333 212.48 112.298666a182.442667 182.442667 0 0 1-17.066667 139.093334c-20.992 39.594667-51.2 74.24-66.389333 116.565333a159.914667 159.914667 0 0 0-8.362667 31.914667 130.218667 130.218667 0 0 1-2.048 17.066666c-2.56 7.68-8.704 9.728-15.872 14.848a225.621333 225.621333 0 0 0-55.978667 57.173334 232.789333 232.789333 0 0 0-35.669333 150.528c3.413333 31.914667 54.784 32.256 51.712-0.682667zM455.68 827.562667H68.266667A25.941333 25.941333 0 0 0 41.813333 853.333333v83.456A25.941333 25.941333 0 0 0 68.266667 962.218667h438.954666a25.941333 25.941333 0 0 0 18.090667-43.690667 229.717333 229.717333 0 0 1-44.373333-72.192 26.453333 26.453333 0 0 0-24.576-18.773333 25.6 25.6 0 0 0 0 51.2l-24.746667-18.773334a299.52 299.52 0 0 0 57.514667 94.72l18.090666-43.690666H68.266667l25.6 25.6V853.333333L68.266667 878.762667h387.413333a25.6 25.6 0 0 0 0-51.2z"  /></svg>