<?xml version="1.0" standalone="no"?><!DOCTYPE svg PUBLIC "-//W3C//DTD SVG 1.1//EN" "http://www.w3.org/Graphics/SVG/1.1/DTD/svg11.dtd"><svg class="icon" width="64px" height="64.00px" viewBox="0 0 1024 1024" version="1.1" xmlns="http://www.w3.org/2000/svg"><path  d="M836.266667 887.466667a106.154667 106.154667 0 0 1-85.333334-44.032c-26.794667-36.522667-53.76-77.141333-71.850666-104.789334a51.2 51.2 0 0 0-38.4-24.405333c-25.258667-2.048-68.266667-4.608-128.170667-4.608-47.616 0-90.624 1.536-128.170667 4.608a51.2 51.2 0 0 0-38.4 24.405333c-18.090667 27.648-45.226667 68.266667-71.850666 104.789334A104.96 104.96 0 0 1 157.013333 882.346667a399.36 399.36 0 0 1-51.2-20.821334 111.786667 111.786667 0 0 1-58.368-102.4c-2.218667-107.349333 5.802667-318.976 83.285334-529.066666a120.832 120.832 0 0 1 62.293333-69.461334 303.445333 303.445333 0 0 1 68.266667-21.845333A91.136 91.136 0 0 1 341.333333 166.570667l2.730667 2.901333a17.066667 17.066667 0 0 0 13.824 4.778667c34.133333-3.413333 98.645333-9.216 153.6-9.216s119.466667 5.802667 153.6 9.216a17.066667 17.066667 0 0 0 13.994667-4.949334l3.584-2.56a91.818667 91.818667 0 0 1 81.749333-28.501333 297.642667 297.642667 0 0 1 68.266667 21.845333 119.466667 119.466667 0 0 1 62.293333 69.461334c77.482667 210.432 85.333333 422.058667 83.285333 529.066666a111.957333 111.957333 0 0 1-58.197333 102.4 396.629333 396.629333 0 0 1-51.2 20.821334A101.034667 101.034667 0 0 1 836.266667 887.466667zM512 658.261333c61.952 0 106.154667 2.56 132.437333 4.778667a102.4 102.4 0 0 1 76.970667 47.445333c17.066667 27.136 44.202667 66.901333 70.314667 102.4a53.418667 53.418667 0 0 0 59.733333 20.650667 335.36 335.36 0 0 0 45.056-18.090667 63.658667 63.658667 0 0 0 29.696-57.344c2.048-103.765333-5.632-308.394667-80.213333-510.805333a68.266667 68.266667 0 0 0-35.328-40.448A245.248 245.248 0 0 0 754.858667 187.733333a43.008 43.008 0 0 0-36.352 14.336L716.8 204.8a68.266667 68.266667 0 0 1-55.637333 19.797333c-32.597333-3.242667-95.573333-8.874667-148.309334-8.874666s-115.541333 5.632-148.48 8.874666A68.266667 68.266667 0 0 1 308.224 204.8l-2.730667-2.901333a42.666667 42.666667 0 0 0-36.352-13.994667 244.394667 244.394667 0 0 0-55.808 18.261333 69.290667 69.290667 0 0 0-35.328 40.448c-77.482667 210.090667-81.92 426.666667-80.213333 510.805334a63.829333 63.829333 0 0 0 29.866667 57.514666 380.416 380.416 0 0 0 44.714666 17.92 53.930667 53.930667 0 0 0 59.904-20.650666c26.112-35.498667 52.565333-75.264 70.314667-102.4a102.4 102.4 0 0 1 76.970667-47.445334c38.912-2.56 83.456-4.096 132.437333-4.096zM428.202667 583.68h-20.992a25.6 25.6 0 1 1 0-51.2h20.992a25.6 25.6 0 0 1 0 51.2zM616.789333 583.68h-20.992a25.6 25.6 0 1 1 0-51.2h20.992a25.6 25.6 0 0 1 0 51.2zM324.266667 479.061333a88.917333 88.917333 0 0 1-88.576-88.576 88.746667 88.746667 0 0 1 44.373333-76.629333 88.405333 88.405333 0 0 1 132.608 76.629333 88.917333 88.917333 0 0 1-44.202667 76.629334 87.722667 87.722667 0 0 1-44.202666 11.946666z m0-125.952a36.352 36.352 0 0 0-18.602667 5.12A37.205333 37.205333 0 0 0 341.333333 422.741333a37.546667 37.546667 0 0 0 18.602667-32.256A37.546667 37.546667 0 0 0 324.266667 353.109333zM700.586667 478.890667a25.6 25.6 0 0 1-25.6-25.6v-125.781334a25.6 25.6 0 1 1 51.2 0v125.781334a25.6 25.6 0 0 1-25.6 25.6zM763.562667 416.085333h-125.781334a25.6 25.6 0 0 1 0-51.2h125.781334a25.6 25.6 0 0 1 0 51.2z" /></svg>