<?xml version="1.0" standalone="no"?><!DOCTYPE svg PUBLIC "-//W3C//DTD SVG 1.1//EN" "http://www.w3.org/Graphics/SVG/1.1/DTD/svg11.dtd"><svg class="icon" width="64px" height="64.00px" viewBox="0 0 1024 1024" version="1.1" xmlns="http://www.w3.org/2000/svg"><path  d="M512 808.96c-259.413333 0-464.213333-269.653333-472.746667-281.6-6.826667-8.533333-6.826667-22.186667 0-30.72 1.706667-3.413333 52.906667-71.68 136.533334-139.946667 10.24-8.533333 27.306667-6.826667 35.84 3.413334 8.533333 10.24 6.826667 27.306667-3.413334 35.84C153.6 442.026667 110.933333 488.106667 92.16 512 138.24 568.32 312.32 757.76 512 757.76c27.306667 0 56.32-3.413333 83.626667-10.24 13.653333-3.413333 27.306667 5.12 30.72 18.773333 3.413333 13.653333-5.12 27.306667-18.773334 30.72-30.72 8.533333-63.146667 11.946667-95.573333 11.946667z m319.146667-134.826667c-6.826667 0-15.36-3.413333-20.48-8.533333-8.533333-10.24-6.826667-27.306667 3.413333-35.84 56.32-46.08 97.28-92.16 116.053333-116.053333-44.373333-58.026667-218.453333-247.466667-418.133333-247.466667-27.306667 0-54.613333 3.413333-83.626667 10.24-13.653333 3.413333-27.306667-5.12-30.72-18.773333-3.413333-13.653333 5.12-27.306667 18.773334-30.72 32.426667-8.533333 64.853333-11.946667 95.573333-11.946667 259.413333 0 464.213333 269.653333 472.746667 281.6 6.826667 8.533333 6.826667 22.186667 0 30.72-1.706667 3.413333-52.906667 71.68-136.533334 139.946667-5.12 3.413333-10.24 6.826667-17.066666 6.826666z"  /><path  d="M512 650.24c-76.8 0-138.24-61.44-138.24-138.24 0-34.133333 13.653333-68.266667 35.84-93.866667 10.24-10.24 25.6-11.946667 35.84-1.706666 10.24 10.24 11.946667 25.6 1.706667 35.84-15.36 15.36-22.186667 37.546667-22.186667 59.733333 0 47.786667 39.253333 87.04 87.04 87.04 22.186667 0 44.373333-8.533333 61.44-25.6 10.24-10.24 25.6-10.24 35.84 0 10.24 10.24 10.24 25.6 0 35.84-25.6 27.306667-61.44 40.96-97.28 40.96z"  /><path  d="M918.186667 945.493333c-6.826667 0-13.653333-1.706667-18.773334-6.826666L87.04 122.88c-10.24-10.24-10.24-25.6 0-35.84s25.6-10.24 35.84 0l814.08 814.08c10.24 10.24 10.24 25.6 0 35.84-5.12 5.12-11.946667 8.533333-18.773333 8.533333z"  /></svg>