<?xml version="1.0" standalone="no"?><!DOCTYPE svg PUBLIC "-//W3C//DTD SVG 1.1//EN" "http://www.w3.org/Graphics/SVG/1.1/DTD/svg11.dtd"><svg class="icon" width="64px" height="64.00px" viewBox="0 0 1024 1024" version="1.1" xmlns="http://www.w3.org/2000/svg"><path  d="M512 687.786667c-150.186667 0-266.24-155.306667-271.36-160.426667-6.826667-8.533333-6.826667-22.186667 0-30.72 1.706667-1.706667 30.72-40.96 78.506667-80.213333 10.24-8.533333 27.306667-6.826667 35.84 3.413333s6.826667 27.306667-3.413334 35.84c-25.6 20.48-44.373333 42.666667-56.32 56.32 32.426667 35.84 119.466667 124.586667 218.453334 124.586667 13.653333 0 29.013333-1.706667 44.373333-5.12 13.653333-3.413333 27.306667 5.12 30.72 18.773333 3.413333 13.653333-5.12 27.306667-18.773333 30.72-20.48 5.12-39.253333 6.826667-58.026667 6.826667z m177.493333-75.093334c-6.826667 0-15.36-3.413333-20.48-8.533333-8.533333-10.24-6.826667-27.306667 3.413334-35.84 25.6-20.48 44.373333-42.666667 56.32-56.32-32.426667-35.84-119.466667-124.586667-218.453334-124.586667-13.653333 0-29.013333 1.706667-44.373333 5.12-13.653333 3.413333-27.306667-5.12-30.72-18.773333-3.413333-13.653333 5.12-27.306667 18.773333-30.72 18.773333-5.12 37.546667-6.826667 56.32-6.826667 150.186667 0 266.24 155.306667 271.36 160.426667 6.826667 8.533333 6.826667 22.186667 0 30.72-1.706667 1.706667-30.72 40.96-78.506666 80.213333-1.706667 3.413333-8.533333 5.12-13.653334 5.12z"  /><path  d="M512 600.746667c-49.493333 0-88.746667-39.253333-88.746667-88.746667 0-22.186667 8.533333-42.666667 23.893334-59.733333 10.24-10.24 25.6-10.24 35.84-1.706667 10.24 10.24 11.946667 25.6 1.706666 35.84-6.826667 6.826667-10.24 15.36-10.24 25.6 0 20.48 17.066667 37.546667 37.546667 37.546667 10.24 0 18.773333-3.413333 25.6-10.24 10.24-10.24 25.6-10.24 35.84 0 10.24 10.24 10.24 25.6 0 35.84-15.36 17.066667-37.546667 25.6-61.44 25.6z"  /><path  d="M738.986667 762.88c-6.826667 0-13.653333-1.706667-18.773334-6.826667L267.946667 303.786667c-10.24-10.24-10.24-25.6 0-35.84 10.24-10.24 25.6-10.24 35.84 0l452.266666 452.266666c10.24 10.24 10.24 25.6 0 35.84-5.12 5.12-11.946667 6.826667-17.066666 6.826667z"  /><path  d="M964.266667 310.613333c-13.653333 0-25.6-11.946667-25.6-25.6v-136.533333c0-34.133333-29.013333-63.146667-64.853334-63.146667h-136.533333c-13.653333 0-25.6-11.946667-25.6-25.6S723.626667 34.133333 738.986667 34.133333h136.533333C936.96 34.133333 989.866667 87.04 989.866667 150.186667v136.533333c0 13.653333-11.946667 23.893333-25.6 23.893333zM873.813333 989.866667h-136.533333c-13.653333 0-25.6-11.946667-25.6-25.6s11.946667-25.6 25.6-25.6h136.533333c35.84 0 64.853333-29.013333 64.853334-64.853334v-136.533333c0-13.653333 11.946667-25.6 25.6-25.6s25.6 11.946667 25.6 25.6v136.533333c0 63.146667-52.906667 116.053333-116.053334 116.053334zM286.72 989.866667h-136.533333C87.04 989.866667 34.133333 936.96 34.133333 873.813333v-136.533333c0-13.653333 11.946667-25.6 25.6-25.6s25.6 11.946667 25.6 25.6v136.533333C85.333333 909.653333 114.346667 938.666667 150.186667 938.666667h136.533333c13.653333 0 25.6 11.946667 25.6 25.6s-11.946667 25.6-25.6 25.6zM59.733333 310.613333c-13.653333 0-25.6-11.946667-25.6-25.6v-136.533333C34.133333 87.04 87.04 34.133333 150.186667 34.133333h136.533333c13.653333 0 25.6 11.946667 25.6 25.6S300.373333 85.333333 286.72 85.333333h-136.533333C114.346667 85.333333 85.333333 114.346667 85.333333 150.186667v136.533333c0 13.653333-11.946667 23.893333-25.6 23.893333z"  /></svg>