<?xml version="1.0" standalone="no"?><!DOCTYPE svg PUBLIC "-//W3C//DTD SVG 1.1//EN" "http://www.w3.org/Graphics/SVG/1.1/DTD/svg11.dtd"><svg class="icon" width="64px" height="64.00px" viewBox="0 0 1024 1024" version="1.1" xmlns="http://www.w3.org/2000/svg"><path  d="M964.266667 310.613333c-13.653333 0-25.6-11.946667-25.6-25.6v-136.533333c0-34.133333-29.013333-63.146667-64.853334-63.146667h-136.533333c-13.653333 0-25.6-11.946667-25.6-25.6S723.626667 34.133333 738.986667 34.133333h136.533333C936.96 34.133333 989.866667 87.04 989.866667 150.186667v136.533333c0 13.653333-11.946667 23.893333-25.6 23.893333zM873.813333 989.866667h-136.533333c-13.653333 0-25.6-11.946667-25.6-25.6s11.946667-25.6 25.6-25.6h136.533333c35.84 0 64.853333-29.013333 64.853334-64.853334v-136.533333c0-13.653333 11.946667-25.6 25.6-25.6s25.6 11.946667 25.6 25.6v136.533333c0 63.146667-52.906667 116.053333-116.053334 116.053334zM286.72 989.866667h-136.533333C87.04 989.866667 34.133333 936.96 34.133333 873.813333v-136.533333c0-13.653333 11.946667-25.6 25.6-25.6s25.6 11.946667 25.6 25.6v136.533333C85.333333 909.653333 114.346667 938.666667 150.186667 938.666667h136.533333c13.653333 0 25.6 11.946667 25.6 25.6s-11.946667 25.6-25.6 25.6zM59.733333 310.613333c-13.653333 0-25.6-11.946667-25.6-25.6v-136.533333C34.133333 87.04 87.04 34.133333 150.186667 34.133333h136.533333c13.653333 0 25.6 11.946667 25.6 25.6S300.373333 85.333333 286.72 85.333333h-136.533333C114.346667 85.333333 85.333333 114.346667 85.333333 150.186667v136.533333c0 13.653333-11.946667 23.893333-25.6 23.893333z"  /><path  d="M512 708.266667c-168.96 0-300.373333-174.08-305.493333-180.906667l-11.946667-15.36 11.946667-15.36c5.12-6.826667 136.533333-180.906667 305.493333-180.906667s300.373333 174.08 305.493333 180.906667l11.946667 15.36-11.946667 15.36c-5.12 6.826667-136.533333 180.906667-305.493333 180.906667zM261.12 512c34.133333 40.96 136.533333 145.066667 250.88 145.066667s216.746667-105.813333 250.88-145.066667c-34.133333-40.96-136.533333-145.066667-250.88-145.066667S295.253333 471.04 261.12 512z"  /><path  d="M512 609.28c-52.906667 0-97.28-42.666667-97.28-97.28 0-52.906667 42.666667-97.28 97.28-97.28s97.28 42.666667 97.28 97.28c0 52.906667-44.373333 97.28-97.28 97.28z m0-143.36c-25.6 0-46.08 20.48-46.08 46.08 0 25.6 20.48 46.08 46.08 46.08s46.08-20.48 46.08-46.08c0-25.6-20.48-46.08-46.08-46.08z"  /></svg>