<?xml version="1.0" standalone="no"?><!DOCTYPE svg PUBLIC "-//W3C//DTD SVG 1.1//EN" "http://www.w3.org/Graphics/SVG/1.1/DTD/svg11.dtd"><svg class="icon" width="64px" height="64.00px" viewBox="0 0 1024 1024" version="1.1" xmlns="http://www.w3.org/2000/svg"><path  d="M872.277333 798.890667a25.6 25.6 0 0 1-14.848-46.592 175.445333 175.445333 0 0 0 66.730667-197.461334c-21.504-68.266667-88.917333-111.957333-170.666667-111.957333h-51.2a25.770667 25.770667 0 0 1-24.746666-19.285333A297.472 297.472 0 1 0 165.888 694.613333a25.6 25.6 0 1 1-38.4 34.133334A348.672 348.672 0 0 1 428.544 151.04 350.890667 350.890667 0 0 1 720.725333 392.533333h31.914667c105.472 0 191.829333 57.002667 220.16 146.773334a226.986667 226.986667 0 0 1-85.333333 254.976 25.770667 25.770667 0 0 1-15.189334 4.608zM682.666667 875.178667H308.906667a25.6 25.6 0 1 1 0-51.2H682.666667a25.6 25.6 0 0 1 0 51.2z"  /><path  d="M426.666667 792.234667h-76.288a25.6 25.6 0 0 1-25.6-25.6V691.2a25.770667 25.770667 0 0 1 7.338666-18.090667L546.133333 458.581333a26.112 26.112 0 0 1 36.181334 0l75.605333 75.605334a25.429333 25.429333 0 0 1 0 36.181333L443.733333 785.066667a25.6 25.6 0 0 1-17.066666 7.168z m-50.176-51.2h39.594666l187.733334-188.757334-39.424-39.424L375.466667 701.781333z"  /></svg>