<?xml version="1.0" standalone="no"?><!DOCTYPE svg PUBLIC "-//W3C//DTD SVG 1.1//EN" "http://www.w3.org/Graphics/SVG/1.1/DTD/svg11.dtd"><svg class="icon" width="64px" height="64.00px" viewBox="0 0 1024 1024" version="1.1" xmlns="http://www.w3.org/2000/svg"><path  d="M822.613333 153.6h-128c-13.653333 0-25.6-11.946667-25.6-25.6S680.96 102.4 694.613333 102.4h128c13.653333 0 25.6 11.946667 25.6 25.6S836.266667 153.6 822.613333 153.6zM694.613333 793.6H395.946667c-13.653333 0-25.6-11.946667-25.6-25.6s11.946667-25.6 25.6-25.6h273.066666v-119.466667H165.546667v119.466667h59.733333c13.653333 0 25.6 11.946667 25.6 25.6s-11.946667 25.6-25.6 25.6h-85.333333c-13.653333 0-25.6-11.946667-25.6-25.6V597.333333c0-13.653333 11.946667-25.6 25.6-25.6h554.666666c13.653333 0 25.6 11.946667 25.6 25.6v170.666667c0 13.653333-11.946667 25.6-25.6 25.6z"  /><path  d="M950.613333 793.6h-64.853333c-13.653333 0-25.6-11.946667-25.6-25.6s11.946667-25.6 25.6-25.6h39.253333V517.12l-109.226666-235.52h-95.573334V768c0 13.653333-11.946667 25.6-25.6 25.6s-25.6-11.946667-25.6-25.6V256c0-13.653333 11.946667-25.6 25.6-25.6h138.24c10.24 0 18.773333 5.12 23.893334 15.36l117.76 256c1.706667 3.413333 1.706667 6.826667 1.706666 10.24v256c0 13.653333-11.946667 25.6-25.6 25.6zM566.613333 494.933333H160.426667c-11.946667 0-22.186667-8.533333-25.6-20.48L71.68 175.786667c-1.706667-6.826667 0-15.36 5.12-22.186667s11.946667-10.24 20.48-10.24h469.333333c13.653333 0 25.6 11.946667 25.6 25.6v298.666667c0 15.36-11.946667 27.306667-25.6 27.306666z m-385.706666-51.2h360.106666V196.266667H129.706667l51.2 247.466666z"  /><path  d="M800.426667 921.6c-61.44 0-110.933333-49.493333-110.933334-110.933333s49.493333-110.933333 110.933334-110.933334 110.933333 49.493333 110.933333 110.933334-49.493333 110.933333-110.933333 110.933333z m0-170.666667c-32.426667 0-59.733333 27.306667-59.733334 59.733334S768 870.4 800.426667 870.4s59.733333-27.306667 59.733333-59.733333-27.306667-59.733333-59.733333-59.733334zM310.613333 921.6c-61.44 0-110.933333-49.493333-110.933333-110.933333s49.493333-110.933333 110.933333-110.933334 110.933333 49.493333 110.933334 110.933334-49.493333 110.933333-110.933334 110.933333z m0-170.666667c-32.426667 0-59.733333 27.306667-59.733333 59.733334s27.306667 59.733333 59.733333 59.733333 59.733333-27.306667 59.733334-59.733333-27.306667-59.733333-59.733334-59.733334z"  /></svg>