<?xml version="1.0" standalone="no"?><!DOCTYPE svg PUBLIC "-//W3C//DTD SVG 1.1//EN" "http://www.w3.org/Graphics/SVG/1.1/DTD/svg11.dtd"><svg class="icon" width="64px" height="64.00px" viewBox="0 0 1024 1024" version="1.1" xmlns="http://www.w3.org/2000/svg"><path  d="M257.706667 343.04h184.32V392.533333h-124.586667v69.973334h105.813333v51.2h-105.813333v80.213333h129.706667v51.2H257.706667V343.04zM506.88 343.04h61.44l87.04 160.426667 30.72 64.853333h1.706667c-3.413333-30.72-8.533333-71.68-8.533334-105.813333v-119.466667h56.32v302.08h-61.44l-87.04-162.133333-30.72-64.853334h-1.706666c3.413333 32.426667 6.826667 69.973333 6.826666 105.813334v121.173333h-56.32V343.04z"  /><path  d="M498.346667 933.546667C250.88 933.546667 51.2 732.16 51.2 486.4S250.88 39.253333 498.346667 39.253333 945.493333 238.933333 945.493333 486.4c0 37.546667-5.12 73.386667-13.653333 109.226667-3.413333 13.653333-17.066667 22.186667-30.72 18.773333-13.653333-3.413333-22.186667-17.066667-18.773333-30.72 8.533333-30.72 11.946667-63.146667 11.946666-97.28C894.293333 267.946667 716.8 90.453333 498.346667 90.453333S102.4 267.946667 102.4 486.4s177.493333 395.946667 395.946667 395.946667c13.653333 0 25.6 11.946667 25.6 25.6s-11.946667 25.6-25.6 25.6z"  /><path  d="M947.2 795.306667H629.76c-13.653333 0-25.6-11.946667-25.6-25.6s11.946667-25.6 25.6-25.6h264.533333l-30.72-39.253334c-8.533333-11.946667-6.826667-27.306667 5.12-35.84 10.24-8.533333 27.306667-6.826667 35.84 5.12l64.853334 81.92c6.826667 8.533333 6.826667 18.773333 3.413333 27.306667s-15.36 11.946667-25.6 11.946667zM694.613333 983.04c-6.826667 0-15.36-3.413333-20.48-10.24l-64.853333-81.92c-6.826667-8.533333-6.826667-18.773333-3.413333-27.306667s13.653333-13.653333 22.186666-13.653333h317.44c13.653333 0 25.6 11.946667 25.6 25.6s-11.946667 25.6-25.6 25.6H682.666667l30.72 39.253333c8.533333 11.946667 6.826667 27.306667-5.12 35.84-3.413333 5.12-8.533333 6.826667-13.653334 6.826667z"  /></svg>