<?xml version="1.0" standalone="no"?><!DOCTYPE svg PUBLIC "-//W3C//DTD SVG 1.1//EN" "http://www.w3.org/Graphics/SVG/1.1/DTD/svg11.dtd"><svg class="icon" width="64px" height="64.00px" viewBox="0 0 1024 1024" version="1.1" xmlns="http://www.w3.org/2000/svg"><path  d="M889.173333 989.866667H134.826667C80.213333 989.866667 34.133333 943.786667 34.133333 889.173333V134.826667C34.133333 80.213333 80.213333 34.133333 134.826667 34.133333h754.346666C943.786667 34.133333 989.866667 80.213333 989.866667 134.826667v754.346666c0 54.613333-46.08 100.693333-100.693334 100.693334zM134.826667 85.333333C107.52 85.333333 85.333333 107.52 85.333333 134.826667v754.346666C85.333333 916.48 107.52 938.666667 134.826667 938.666667h754.346666c27.306667 0 49.493333-22.186667 49.493334-49.493334V134.826667C938.666667 107.52 916.48 85.333333 889.173333 85.333333H134.826667z"  /><path  d="M964.266667 336.213333h-904.533334c-13.653333 0-25.6-11.946667-25.6-25.6s11.946667-25.6 25.6-25.6h904.533334c13.653333 0 25.6 11.946667 25.6 25.6s-11.946667 25.6-25.6 25.6zM612.693333 738.986667c-6.826667 0-13.653333-1.706667-18.773333-6.826667L512 648.533333l-81.92 81.92c-10.24 10.24-25.6 10.24-35.84 0s-10.24-25.6 0-35.84l100.693333-100.693333c10.24-10.24 25.6-10.24 35.84 0l100.693334 100.693333c10.24 10.24 10.24 25.6 0 35.84-5.12 5.12-11.946667 8.533333-18.773334 8.533334z"  /><path  d="M59.733333 488.106667c-13.653333 0-25.6-11.946667-25.6-25.6V160.426667c0-13.653333 11.946667-25.6 25.6-25.6S85.333333 146.773333 85.333333 160.426667v302.08c0 13.653333-11.946667 25.6-25.6 25.6zM964.266667 488.106667c-13.653333 0-25.6-11.946667-25.6-25.6V160.426667c0-13.653333 11.946667-25.6 25.6-25.6s25.6 11.946667 25.6 25.6v302.08c0 13.653333-11.946667 25.6-25.6 25.6z"  /></svg>