<?xml version="1.0" standalone="no"?><!DOCTYPE svg PUBLIC "-//W3C//DTD SVG 1.1//EN" "http://www.w3.org/Graphics/SVG/1.1/DTD/svg11.dtd"><svg class="icon" width="64px" height="64.00px" viewBox="0 0 1024 1024" version="1.1" xmlns="http://www.w3.org/2000/svg"><path  d="M943.786667 517.12c-6.826667 0-13.653333-1.706667-18.773334-6.826667L512 95.573333 98.986667 510.293333c-10.24 10.24-25.6 10.24-35.84 0s-10.24-25.6 0-35.84L493.226667 40.96c10.24-10.24 25.6-10.24 35.84 0l431.786666 431.786667c10.24 10.24 10.24 25.6 0 35.84-3.413333 6.826667-10.24 8.533333-17.066666 8.533333z"  /><path  d="M943.786667 989.866667c-6.826667 0-13.653333-1.706667-18.773334-6.826667L512 568.32 98.986667 983.04c-10.24 10.24-25.6 10.24-35.84 0S51.2 955.733333 61.44 945.493333l431.786667-431.786666c10.24-10.24 25.6-10.24 35.84 0l431.786666 431.786666c10.24 10.24 10.24 25.6 0 35.84-3.413333 6.826667-10.24 8.533333-17.066666 8.533334z"  /></svg>