<?xml version="1.0" standalone="no"?><!DOCTYPE svg PUBLIC "-//W3C//DTD SVG 1.1//EN" "http://www.w3.org/Graphics/SVG/1.1/DTD/svg11.dtd"><svg class="icon" width="64px" height="64.00px" viewBox="0 0 1024 1024" version="1.1" xmlns="http://www.w3.org/2000/svg"><path  d="M824.832 147.968h-161.109333a93.866667 93.866667 0 0 0-44.373334-14.165333h-19.114666a96.768 96.768 0 0 0-176.469334 0h-9.728a91.818667 91.818667 0 0 0-54.784 14.165333h-160.085333a54.101333 54.101333 0 0 0-54.101333 54.101333v691.029334a54.101333 54.101333 0 0 0 54.101333 54.101333h625.664a54.101333 54.101333 0 0 0 54.101333-54.101333V202.069333a54.101333 54.101333 0 0 0-54.101333-54.101333z m-382.464 37.034667a25.770667 25.770667 0 0 0 25.088-20.48 45.397333 45.397333 0 0 1 89.088 0 25.770667 25.770667 0 0 0 25.088 20.48h35.328a41.642667 41.642667 0 0 1 29.184 13.824 42.666667 42.666667 0 0 1 10.922667 31.573333v17.066667h-290.133334v-18.602667a23.893333 23.893333 0 0 1 0-4.949333 41.301333 41.301333 0 0 1 45.568-38.912zM827.733333 893.098667a2.730667 2.730667 0 0 1-2.901333 2.901333H199.168a2.730667 2.730667 0 0 1-2.901333-2.901333V202.069333a2.901333 2.901333 0 0 1 2.901333-2.901333h120.832a91.989333 91.989333 0 0 0-4.266667 21.674667 87.722667 87.722667 0 0 0 0 9.557333V273.066667a25.6 25.6 0 0 0 25.6 25.6h341.333334a25.6 25.6 0 0 0 25.6-25.6v-41.301334a94.72 94.72 0 0 0-4.437334-32.597333h121.002667a2.901333 2.901333 0 0 1 2.901333 2.901333z"  /><path  d="M398.165333 540.501333H443.733333v45.568a25.6 25.6 0 0 0 25.6 25.6h85.333334a25.6 25.6 0 0 0 25.6-25.6v-45.568h45.568a25.6 25.6 0 0 0 25.6-25.6v-85.333333a25.6 25.6 0 0 0-25.6-25.6H580.266667V358.4a25.6 25.6 0 0 0-25.6-25.6h-85.333334A25.6 25.6 0 0 0 443.733333 358.4v45.568h-45.568a25.6 25.6 0 0 0-25.6 25.6v85.333333a25.6 25.6 0 0 0 25.6 25.6z m25.6-85.333333h45.568a25.6 25.6 0 0 0 25.6-25.6V384h34.133334v45.568a25.6 25.6 0 0 0 25.6 25.6h45.568v34.133333H554.666667a25.6 25.6 0 0 0-25.6 25.6v45.568h-34.133334v-45.568a25.6 25.6 0 0 0-25.6-25.6h-45.568zM668.501333 779.434667h-298.666666a25.6 25.6 0 0 0 0 51.2h298.666666a25.6 25.6 0 0 0 0-51.2zM668.501333 679.765333h-298.666666a25.6 25.6 0 0 0 0 51.2h298.666666a25.6 25.6 0 0 0 0-51.2z"  /></svg>