<?xml version="1.0" standalone="no"?><!DOCTYPE svg PUBLIC "-//W3C//DTD SVG 1.1//EN" "http://www.w3.org/Graphics/SVG/1.1/DTD/svg11.dtd"><svg class="icon" width="64px" height="64.00px" viewBox="0 0 1024 1024" version="1.1" xmlns="http://www.w3.org/2000/svg"><path  d="M267.946667 742.4H133.12V512c-17.066667-10.24-27.306667-29.013333-27.306667-51.2v-59.733333h191.146667V460.8c0 22.186667-11.946667 40.96-27.306667 51.2v230.4z m-83.626667-51.2h32.426667V467.626667h25.6s1.706667-3.413333 1.706666-8.533334v-8.533333H155.306667v10.24c0 5.12 1.706667 6.826667 3.413333 8.533333h25.6v221.866667zM472.746667 742.4h-134.826667V512c-17.066667-10.24-27.306667-29.013333-27.306667-51.2v-59.733333h191.146667V460.8c0 22.186667-11.946667 40.96-27.306667 51.2v230.4z m-83.626667-51.2h32.426667V467.626667h25.6s1.706667-3.413333 1.706666-8.533334v-8.533333h-88.746666v10.24c0 5.12 1.706667 6.826667 3.413333 8.533333h25.6v221.866667zM679.253333 742.4h-134.826666V512c-17.066667-10.24-27.306667-29.013333-27.306667-51.2v-59.733333h191.146667V460.8c0 22.186667-11.946667 40.96-27.306667 51.2v230.4z m-85.333333-51.2h32.426667V467.626667h25.6s1.706667-3.413333 1.706666-8.533334v-8.533333h-88.746666v10.24c0 5.12 1.706667 6.826667 3.413333 8.533333h25.6v221.866667zM884.053333 742.4h-134.826666V512c-17.066667-10.24-27.306667-29.013333-27.306667-51.2v-59.733333h191.146667V460.8c0 22.186667-11.946667 40.96-27.306667 51.2v230.4z m-83.626666-51.2h32.426666V467.626667h25.6s1.706667-3.413333 1.706667-8.533334v-8.533333h-88.746667v10.24c0 5.12 1.706667 6.826667 3.413334 8.533333h25.6v221.866667zM890.88 984.746667H124.586667c-32.426667 0-59.733333-25.6-59.733334-59.733334v-34.133333c0-32.426667 25.6-59.733333 59.733334-59.733333h8.533333V768h750.933333v66.56h8.533334c32.426667 0 59.733333 25.6 59.733333 59.733333v34.133334c-1.706667 30.72-29.013333 56.32-61.44 56.32zM124.586667 885.76c-3.413333 0-8.533333 3.413333-8.533334 8.533333v34.133334c0 3.413333 3.413333 8.533333 8.533334 8.533333h766.293333c3.413333 0 8.533333-3.413333 8.533333-8.533333v-34.133334c0-3.413333-3.413333-8.533333-8.533333-8.533333h-59.733333V819.2h-648.533334v66.56H124.586667zM892.586667 380.586667H122.88c-25.6 0-49.493333-18.773333-56.32-44.373334-6.826667-25.6 3.413333-52.906667 25.6-66.56L477.866667 37.546667c18.773333-10.24 40.96-10.24 58.026666 0l378.88 230.4c20.48 10.24 34.133333 30.72 34.133334 52.906666 1.706667 34.133333-23.893333 59.733333-56.32 59.733334zM506.88 80.213333h-3.413333L121.173333 315.733333c-3.413333 1.706667-3.413333 5.12-3.413333 8.533334s3.413333 5.12 6.826667 5.12h769.706666c3.413333 0 6.826667-3.413333 6.826667-8.533334 0-3.413333-1.706667-6.826667-5.12-6.826666l-3.413333-1.706667L510.293333 81.92s-1.706667-1.706667-3.413333-1.706667z m1.706667 228.693334c-46.08 0-83.626667-37.546667-83.626667-83.626667s37.546667-83.626667 83.626667-83.626667 83.626667 37.546667 83.626666 83.626667-37.546667 83.626667-83.626666 83.626667z m0-114.346667c-17.066667 0-32.426667 13.653333-32.426667 32.426667s13.653333 32.426667 32.426667 32.426666c17.066667 0 32.426667-13.653333 32.426666-32.426666s-15.36-32.426667-32.426666-32.426667z"  /></svg>