<?xml version="1.0" standalone="no"?><!DOCTYPE svg PUBLIC "-//W3C//DTD SVG 1.1//EN" "http://www.w3.org/Graphics/SVG/1.1/DTD/svg11.dtd"><svg class="icon" width="64px" height="64.00px" viewBox="0 0 1024 1024" version="1.1" xmlns="http://www.w3.org/2000/svg"><path  d="M512 597.333333c-6.826667 0-11.946667-1.706667-18.773333-3.413333l-433.493334-204.8c-15.36-6.826667-25.6-22.186667-25.6-39.253333 0-17.066667 10.24-32.426667 25.6-39.253334L493.226667 109.226667c11.946667-5.12 25.6-5.12 35.84 0l435.2 203.093333c15.36 6.826667 25.6 22.186667 25.6 39.253333 0 17.066667-10.24 32.426667-25.6 39.253334L530.773333 592.213333c-6.826667 3.413333-11.946667 5.12-18.773333 5.12zM95.573333 349.866667L512 544.426667l416.426667-194.56L512 157.013333 95.573333 349.866667z"  /><path  d="M530.773333 919.893333c-117.76 0-218.453333-46.08-271.36-73.386666-30.72-17.066667-49.493333-49.493333-49.493333-83.626667V445.44h51.2v315.733333c0 17.066667 8.533333 30.72 23.893333 39.253334 76.8 42.666667 274.773333 128 460.8 1.706666 11.946667-8.533333 18.773333-22.186667 18.773334-35.84V445.44h51.2v319.146667c0 32.426667-15.36 61.44-40.96 78.506666-83.626667 56.32-167.253333 76.8-244.053334 76.8zM128 704.853333c-13.653333 0-25.6-11.946667-25.6-25.6V394.24c0-13.653333 11.946667-25.6 25.6-25.6s25.6 10.24 25.6 25.6v285.013333c0 13.653333-11.946667 25.6-25.6 25.6z"  /></svg>