<?xml version="1.0" standalone="no"?><!DOCTYPE svg PUBLIC "-//W3C//DTD SVG 1.1//EN" "http://www.w3.org/Graphics/SVG/1.1/DTD/svg11.dtd"><svg class="icon" width="64px" height="64.00px" viewBox="0 0 1024 1024" version="1.1" xmlns="http://www.w3.org/2000/svg"><path  d="M875.52 989.866667H228.693333c-51.2 0-92.16-35.84-102.4-83.626667-1.706667-3.413333-1.706667-6.826667-1.706666-10.24V126.293333c0-51.2 40.96-92.16 92.16-92.16h593.92c51.2 0 92.16 40.96 92.16 92.16v704.853334H228.693333c-29.013333 0-52.906667 23.893333-52.906666 52.906666s23.893333 52.906667 52.906666 52.906667h646.826667c13.653333 0 25.6 11.946667 25.6 25.6s-11.946667 27.306667-25.6 27.306667zM215.04 85.333333c-22.186667 0-40.96 18.773333-40.96 40.96v669.013334c15.36-10.24 34.133333-15.36 52.906667-15.36h621.226666V126.293333c0-22.186667-18.773333-40.96-40.96-40.96H215.04z"  /><path  d="M875.52 906.24H249.173333c-13.653333 0-25.6-11.946667-25.6-25.6s11.946667-25.6 25.6-25.6h626.346667c13.653333 0 25.6 11.946667 25.6 25.6s-11.946667 25.6-25.6 25.6zM769.706667 242.346667H500.053333c-13.653333 0-25.6-11.946667-25.6-25.6s11.946667-25.6 25.6-25.6h269.653334c13.653333 0 25.6 11.946667 25.6 25.6s-11.946667 25.6-25.6 25.6zM769.706667 366.933333H500.053333c-13.653333 0-25.6-11.946667-25.6-25.6s11.946667-25.6 25.6-25.6h269.653334c13.653333 0 25.6 11.946667 25.6 25.6s-11.946667 25.6-25.6 25.6z"  /></svg>