<?xml version="1.0" standalone="no"?><!DOCTYPE svg PUBLIC "-//W3C//DTD SVG 1.1//EN" "http://www.w3.org/Graphics/SVG/1.1/DTD/svg11.dtd"><svg class="icon" width="64px" height="64.00px" viewBox="0 0 1024 1024" version="1.1" xmlns="http://www.w3.org/2000/svg"><path  d="M742.4 952.32h-119.466667c-32.426667 0-59.733333-27.306667-59.733333-59.733333V131.413333c0-32.426667 27.306667-59.733333 59.733333-59.733333h119.466667c32.426667 0 59.733333 27.306667 59.733333 59.733333v762.88c0 32.426667-25.6 58.026667-59.733333 58.026667zM624.64 122.88c-5.12 0-8.533333 3.413333-8.533333 8.533333v762.88c0 5.12 3.413333 8.533333 8.533333 8.533334h119.466667c5.12 0 8.533333-3.413333 8.533333-8.533334V131.413333c0-5.12-3.413333-8.533333-8.533333-8.533333h-119.466667z"  /><path  d="M930.133333 952.32h-119.466666c-32.426667 0-59.733333-27.306667-59.733334-59.733333V131.413333c0-32.426667 27.306667-59.733333 59.733334-59.733333h119.466666c32.426667 0 59.733333 27.306667 59.733334 59.733333v762.88c0 32.426667-27.306667 58.026667-59.733334 58.026667z m-119.466666-829.44c-5.12 0-8.533333 3.413333-8.533334 8.533333v762.88c0 5.12 3.413333 8.533333 8.533334 8.533334h119.466666c5.12 0 8.533333-3.413333 8.533334-8.533334V131.413333c0-5.12-3.413333-8.533333-8.533334-8.533333h-119.466666z"  /><path  d="M590.506667 186.026667h373.76v51.2H590.506667z"  /><path  d="M203.093333 945.493333c-8.533333 0-17.066667-1.706667-23.893333-5.12l-109.226667-47.786666c-30.72-13.653333-44.373333-47.786667-30.72-78.506667l307.2-698.026667c13.653333-30.72 47.786667-44.373333 78.506667-30.72l109.226667 47.786667c15.36 6.826667 25.6 18.773333 32.426666 32.426667 5.12 15.36 5.12 30.72-1.706666 46.08l-307.2 698.026666c-6.826667 15.36-18.773333 25.6-32.426667 32.426667-8.533333 1.706667-15.36 3.413333-22.186667 3.413333z m-3.413333-52.906666c3.413333 1.706667 5.12 0 6.826667 0 1.706667 0 3.413333-1.706667 5.12-5.12l307.2-698.026667c1.706667-3.413333 0-5.12 0-6.826667s-1.706667-3.413333-5.12-5.12l-109.226667-47.786666c-5.12-1.706667-8.533333 0-11.946667 5.12l-307.2 699.733333c-1.706667 5.12 0 8.533333 5.12 11.946667l109.226667 46.08z"  /><path  d="M328.994133 216.0128l21.6064-46.421333 170.1888 79.274666-21.623466 46.404267z"  /></svg>