<?xml version="1.0" standalone="no"?><!DOCTYPE svg PUBLIC "-//W3C//DTD SVG 1.1//EN" "http://www.w3.org/Graphics/SVG/1.1/DTD/svg11.dtd"><svg class="icon" width="64px" height="64.00px" viewBox="0 0 1024 1024" version="1.1" xmlns="http://www.w3.org/2000/svg"><path  d="M938.666667 989.866667H85.333333c-32.426667 0-59.733333-27.306667-59.733333-59.733334V634.88c0-32.426667 27.306667-59.733333 59.733333-59.733333h257.706667l168.96 170.666666 174.08-172.373333H938.666667c32.426667 0 59.733333 27.306667 59.733333 59.733333v296.96c0 32.426667-27.306667 59.733333-59.733333 59.733334zM85.333333 626.346667c-5.12 0-8.533333 3.413333-8.533333 8.533333v296.96c0 3.413333 5.12 6.826667 8.533333 6.826667h853.333334c5.12 0 8.533333-3.413333 8.533333-8.533334V634.88c0-5.12-3.413333-8.533333-8.533333-8.533333H708.266667l-165.546667 162.133333c-17.066667 17.066667-44.373333 17.066667-59.733333 0l-160.426667-162.133333H85.333333z"  /><path  d="M926.72 600.746667h-51.2V128c0-23.893333-18.773333-42.666667-42.666667-42.666667H298.666667C274.773333 85.333333 256 104.106667 256 128v472.746667h-51.2V128c0-51.2 42.666667-93.866667 93.866667-93.866667h534.186666c51.2 0 93.866667 42.666667 93.866667 93.866667v472.746667z"  /><path  d="M155.306667 600.746667h-51.2V245.76c0-51.2 42.666667-93.866667 93.866666-93.866667h34.133334v51.2h-34.133334c-23.893333 0-42.666667 18.773333-42.666666 42.666667v354.986667zM769.706667 302.08H361.813333c-13.653333 0-25.6-11.946667-25.6-25.6s11.946667-25.6 25.6-25.6h407.893334c13.653333 0 25.6 11.946667 25.6 25.6s-11.946667 25.6-25.6 25.6zM769.706667 464.213333H361.813333c-13.653333 0-25.6-11.946667-25.6-25.6s11.946667-25.6 25.6-25.6h407.893334c13.653333 0 25.6 11.946667 25.6 25.6s-11.946667 25.6-25.6 25.6z"  /></svg>