<?xml version="1.0" standalone="no"?><!DOCTYPE svg PUBLIC "-//W3C//DTD SVG 1.1//EN" "http://www.w3.org/Graphics/SVG/1.1/DTD/svg11.dtd"><svg class="icon" width="64px" height="64.00px" viewBox="0 0 1024 1024" version="1.1" xmlns="http://www.w3.org/2000/svg"><path  d="M915.968 275.968a25.258667 25.258667 0 0 1-17.92-7.338667 554.154667 554.154667 0 0 0-772.266667-1.706666 25.6 25.6 0 0 1-35.669333-36.693334A599.04 599.04 0 0 1 512 59.904 598.698667 598.698667 0 0 1 934.058667 232.106667a25.6 25.6 0 0 1 0 36.181333 25.258667 25.258667 0 0 1-18.090667 7.68z"  /><path  d="M133.632 656.725333A25.088 25.088 0 0 1 108.032 631.466667v-1.365334a405.162667 405.162667 0 0 1 404.821333-404.309333 25.6 25.6 0 0 1 0 51.2A353.962667 353.962667 0 0 0 159.232 630.442667a26.112 26.112 0 0 1-25.6 26.282666zM892.074667 656.213333a25.429333 25.429333 0 0 1-25.6-24.746666 354.474667 354.474667 0 0 0-207.36-322.901334 25.6 25.6 0 0 1 21.162666-46.762666 406.186667 406.186667 0 0 1 237.397334 368.64 25.770667 25.770667 0 0 1-25.6 25.770666z"  /><path  d="M726.186667 821.930667a25.6 25.6 0 0 1-25.6-25.6v-165.888a187.733333 187.733333 0 0 0-375.466667 0v165.888a25.6 25.6 0 0 1-51.2 0v-165.888a238.933333 238.933333 0 0 1 477.866667 0v165.888a25.6 25.6 0 0 1-25.6 25.6z"  /><path  d="M371.2 964.096a25.6 25.6 0 0 1-6.144-51.2 74.922667 74.922667 0 0 0 51.2-69.290667v-189.44a96.768 96.768 0 0 1 193.365333 0v190.293334a25.6 25.6 0 0 1-51.2 0V654.165333a45.568 45.568 0 0 0-90.965333 0v190.293334a125.781333 125.781333 0 0 1-90.112 119.466666 25.088 25.088 0 0 1-6.144 0.170667z"  /></svg>