<?xml version="1.0" standalone="no"?><!DOCTYPE svg PUBLIC "-//W3C//DTD SVG 1.1//EN" "http://www.w3.org/Graphics/SVG/1.1/DTD/svg11.dtd"><svg class="icon" width="64px" height="64.00px" viewBox="0 0 1024 1024" version="1.1" xmlns="http://www.w3.org/2000/svg"><path  d="M635.733333 929.621333a25.6 25.6 0 0 1-25.6-25.6V470.698667a98.133333 98.133333 0 0 0-196.266666 0V904.533333a25.6 25.6 0 0 1-51.2 0V470.698667a149.333333 149.333333 0 0 1 298.666666 0V904.533333a25.6 25.6 0 0 1-25.6 25.088z"  /><path  d="M759.466667 867.669333a25.6 25.6 0 0 1-25.6-25.6V470.698667a221.866667 221.866667 0 0 0-443.733334 0v371.370666a25.6 25.6 0 0 1-51.2 0V470.698667a273.066667 273.066667 0 0 1 546.133334 0v371.370666a25.6 25.6 0 0 1-25.6 25.6z"  /><path  d="M883.370667 764.586667a25.6 25.6 0 0 1-25.6-25.6V470.698667a345.770667 345.770667 0 0 0-691.541334 0V738.986667a25.6 25.6 0 0 1-51.2 0V470.698667a396.970667 396.970667 0 0 1 793.941334 0V738.986667a25.6 25.6 0 0 1-25.6 25.6z"  /><path  d="M512 950.101333a25.6 25.6 0 0 1-25.6-25.6V656.384a25.6 25.6 0 0 1 51.2 0v268.117333a25.6 25.6 0 0 1-25.6 25.6zM512 550.4a25.6 25.6 0 0 1-25.6-25.6v-56.661333a25.6 25.6 0 0 1 51.2 0v56.661333a25.6 25.6 0 0 1-25.6 25.6z"  /></svg>