<?xml version="1.0" standalone="no"?><!DOCTYPE svg PUBLIC "-//W3C//DTD SVG 1.1//EN" "http://www.w3.org/Graphics/SVG/1.1/DTD/svg11.dtd"><svg class="icon" width="64px" height="64.00px" viewBox="0 0 1024 1024" version="1.1" xmlns="http://www.w3.org/2000/svg"><path  d="M864.426667 850.432H159.573333a42.837333 42.837333 0 0 1-42.666666-42.666667v-160.256a42.666667 42.666667 0 0 1 42.666666-42.666666h704.853334a42.666667 42.666667 0 0 1 42.666666 42.666666v160.256a42.837333 42.837333 0 0 1-42.666666 42.666667z m-696.32-51.2h687.786666v-143.189333H168.106667z"  /><path  d="M512 989.866667a25.6 25.6 0 0 1-25.6-25.6v-139.434667a25.6 25.6 0 0 1 51.2 0v139.434667A25.6 25.6 0 0 1 512 989.866667z"  /><path  d="M614.4 989.866667H409.6a25.6 25.6 0 0 1 0-51.2h204.8a25.6 25.6 0 1 1 0 51.2zM710.485333 584.533333a25.941333 25.941333 0 0 1-11.605333-2.901333 25.429333 25.429333 0 0 1-11.093333-34.133333l125.781333-246.101334A25.6 25.6 0 1 1 859.136 324.266667L733.866667 570.538667a25.770667 25.770667 0 0 1-23.381334 13.994666zM575.658667 487.082667a26.624 26.624 0 0 1-11.776-2.901334 25.770667 25.770667 0 0 1-11.093334-34.133333l66.56-129.365333A25.6 25.6 0 0 1 665.6 343.722667l-66.56 129.365333a25.429333 25.429333 0 0 1-23.381333 13.994667z"  /><path  d="M780.970667 377.685333a94.208 94.208 0 0 1-19.456-2.218666L375.466667 292.181333a91.477333 91.477333 0 0 1-69.973334-108.714666l6.997334-32.085334a91.136 91.136 0 0 1 108.544-69.973333L807.253333 164.864A91.477333 91.477333 0 0 1 877.226667 273.066667l-6.826667 32.597333a91.989333 91.989333 0 0 1-89.258667 72.021333zM402.261333 130.389333a40.448 40.448 0 0 0-39.253333 31.744l-6.997333 32.256a40.618667 40.618667 0 0 0 30.72 47.786667l385.706666 83.456a40.277333 40.277333 0 0 0 29.696-5.632 39.594667 39.594667 0 0 0 17.066667-25.258667l6.997333-32.085333a40.106667 40.106667 0 0 0-30.72-47.786667L410.794667 131.413333a37.546667 37.546667 0 0 0-8.533334-1.024z m449.877334 137.557334z"  /><path  d="M239.957333 259.584a115.712 115.712 0 0 1-22.869333-2.389333l-56.32-11.605334a25.6 25.6 0 1 1 10.24-50.176l56.661333 11.605334a56.661333 56.661333 0 1 0 24.234667-110.592L195.584 85.333333a25.6 25.6 0 0 1 10.24-51.2l56.661333 11.605334a107.861333 107.861333 0 0 1-22.528 213.333333zM768 375.466667a108.373333 108.373333 0 1 1 14.677333-1.024A108.202667 108.202667 0 0 1 768 375.466667z m0-164.522667h-7.850667a56.661333 56.661333 0 1 0 63.829334 48.469333A56.661333 56.661333 0 0 0 768 210.090667zM455.68 308.906667a31.914667 31.914667 0 0 1-5.461333 0 25.258667 25.258667 0 0 1-19.456-30.378667l34.133333-160.768a25.6 25.6 0 0 1 50.176 10.752l-34.133333 160.768a25.6 25.6 0 0 1-25.258667 19.626667zM762.026667 650.24a25.429333 25.429333 0 0 1-22.357334-13.141333 261.12 261.12 0 0 0-455.338666 0 25.6 25.6 0 0 1-44.544-25.088 312.149333 312.149333 0 0 1 544.426666 0 25.770667 25.770667 0 0 1-22.186666 38.229333z"  /></svg>