<?xml version="1.0" standalone="no"?><!DOCTYPE svg PUBLIC "-//W3C//DTD SVG 1.1//EN" "http://www.w3.org/Graphics/SVG/1.1/DTD/svg11.dtd"><svg class="icon" width="64px" height="64.00px" viewBox="0 0 1024 1024" version="1.1" xmlns="http://www.w3.org/2000/svg"><path  d="M150.528 117.418667a34.133333 34.133333 0 0 0-34.133333 34.133333v722.432a34.133333 34.133333 0 0 0 34.133333 34.133333h722.944a34.133333 34.133333 0 0 0 34.133333-34.133333V151.04a34.133333 34.133333 0 0 0-34.133333-34.133333z m0-67.413334h722.944a100.864 100.864 0 0 1 100.864 101.034667v722.944a100.864 100.864 0 0 1-100.864 100.864H150.528a100.864 100.864 0 0 1-100.864-100.864V151.04a100.864 100.864 0 0 1 100.864-101.034667z"  /><path  d="M750.933333 344.405333v282.794667h-57.856v-31.914667h-153.6v187.733334h-57.685333v-187.733334h-153.6v34.133334H273.066667v-285.013334h208.725333v-102.4h57.514667v102.4zM481.792 541.525333v-143.36h-153.6v143.36z m211.285333 0v-143.36h-153.6v143.36z"  /></svg>