<?xml version="1.0" standalone="no"?><!DOCTYPE svg PUBLIC "-//W3C//DTD SVG 1.1//EN" "http://www.w3.org/Graphics/SVG/1.1/DTD/svg11.dtd"><svg class="icon" width="64px" height="64.00px" viewBox="0 0 1024 1024" version="1.1" xmlns="http://www.w3.org/2000/svg"><path  d="M512 989.866667C249.173333 989.866667 34.133333 774.826667 34.133333 512c0-13.653333 11.946667-25.6 25.6-25.6S85.333333 498.346667 85.333333 512c0 235.52 191.146667 426.666667 426.666667 426.666667 56.32 0 110.933333-10.24 163.84-32.426667 25.6-10.24 51.2-23.893333 73.386667-39.253333 23.893333-15.36 44.373333-34.133333 64.853333-52.906667s37.546667-40.96 52.906667-64.853333c8.533333-11.946667 23.893333-15.36 35.84-6.826667 11.946667 8.533333 15.36 23.893333 6.826666 35.84-17.066667 25.6-37.546667 49.493333-59.733333 71.68s-46.08 42.666667-71.68 59.733333-54.613333 32.426667-81.92 44.373334C636.586667 977.92 575.146667 989.866667 512 989.866667z m452.266667-452.266667c-13.653333 0-25.6-11.946667-25.6-25.6C938.666667 276.48 747.52 85.333333 512 85.333333c-56.32 0-110.933333 10.24-163.84 32.426667-25.6 10.24-51.2 23.893333-73.386667 39.253333-23.893333 15.36-44.373333 34.133333-64.853333 52.906667s-37.546667 40.96-52.906667 64.853333c-8.533333 11.946667-23.893333 15.36-35.84 6.826667-11.946667-8.533333-15.36-23.893333-6.826666-35.84 17.066667-25.6 37.546667-49.493333 59.733333-71.68 22.186667-22.186667 46.08-42.666667 71.68-59.733333s54.613333-32.426667 81.92-44.373334C387.413333 46.08 448.853333 34.133333 512 34.133333c262.826667 0 477.866667 215.04 477.866667 477.866667 0 13.653333-11.946667 25.6-25.6 25.6z"  /><path  d="M964.266667 537.6c-13.653333 0-25.6-11.946667-25.6-25.6V109.226667c0-13.653333 11.946667-25.6 25.6-25.6s25.6 11.946667 25.6 25.6V512c0 13.653333-11.946667 25.6-25.6 25.6zM59.733333 940.373333c-13.653333 0-25.6-11.946667-25.6-25.6V512c0-13.653333 11.946667-25.6 25.6-25.6S85.333333 498.346667 85.333333 512v402.773333c0 13.653333-11.946667 25.6-25.6 25.6z"  /></svg>