<?xml version="1.0" standalone="no"?><!DOCTYPE svg PUBLIC "-//W3C//DTD SVG 1.1//EN" "http://www.w3.org/Graphics/SVG/1.1/DTD/svg11.dtd"><svg class="icon" width="64px" height="64.00px" viewBox="0 0 1024 1024" version="1.1" xmlns="http://www.w3.org/2000/svg"><path  d="M964.266667 256H249.173333c-13.653333 0-25.6-11.946667-25.6-25.6s11.946667-25.6 25.6-25.6h715.093334c13.653333 0 25.6 11.946667 25.6 25.6s-11.946667 25.6-25.6 25.6z"  /><path  d="M810.666667 409.6c-6.826667 0-13.653333-1.706667-18.773334-6.826667-10.24-10.24-10.24-25.6 0-35.84l134.826667-134.826666-134.826667-134.826667c-10.24-10.24-10.24-25.6 0-35.84s25.6-10.24 35.84 0l153.6 153.6c5.12 5.12 6.826667 11.946667 6.826667 18.773333s-3.413333 13.653333-6.826667 18.773334l-153.6 153.6c-3.413333 1.706667-10.24 3.413333-17.066666 3.413333z"  /><path  d="M774.826667 819.2H59.733333c-13.653333 0-25.6-11.946667-25.6-25.6S46.08 768 59.733333 768h715.093334c13.653333 0 25.6 11.946667 25.6 25.6s-11.946667 25.6-25.6 25.6z"  /><path  d="M213.333333 971.093333c-6.826667 0-13.653333-1.706667-18.773333-6.826666l-153.6-153.6c-3.413333-5.12-6.826667-10.24-6.826667-17.066667s3.413333-13.653333 6.826667-18.773333l153.6-153.6c10.24-10.24 25.6-10.24 35.84 0s10.24 25.6 0 35.84l-134.826667 134.826666 134.826667 134.826667c10.24 10.24 10.24 25.6 0 35.84-5.12 6.826667-10.24 8.533333-17.066667 8.533333z"  /></svg>