<?xml version="1.0" standalone="no"?><!DOCTYPE svg PUBLIC "-//W3C//DTD SVG 1.1//EN" "http://www.w3.org/Graphics/SVG/1.1/DTD/svg11.dtd"><svg class="icon" width="64px" height="64.00px" viewBox="0 0 1024 1024" version="1.1" xmlns="http://www.w3.org/2000/svg"><path  d="M829.44 989.866667H194.56c-51.2 0-92.16-40.96-92.16-92.16V126.293333C102.4 75.093333 143.36 34.133333 194.56 34.133333h670.72c32.426667 0 59.733333 27.306667 59.733333 59.733334v61.44c0 13.653333-11.946667 25.6-25.6 25.6s-25.6-11.946667-25.6-25.6V93.866667c0-5.12-3.413333-8.533333-8.533333-8.533334H194.56C170.666667 85.333333 151.893333 104.106667 151.893333 126.293333v769.706667c0 22.186667 18.773333 40.96 40.96 40.96h636.586667c22.186667 0 40.96-18.773333 40.96-40.96V513.706667c0-13.653333 11.946667-25.6 25.6-25.6s25.6 11.946667 25.6 25.6v384c1.706667 51.2-40.96 92.16-92.16 92.16z"  /><path  d="M897.706667 351.573333H474.453333c-13.653333 0-25.6-11.946667-25.6-25.6s11.946667-25.6 25.6-25.6h423.253334c13.653333 0 25.6 11.946667 25.6 25.6s-11.946667 25.6-25.6 25.6z"  /><path  d="M773.12 474.453333c-6.826667 0-13.653333-1.706667-18.773333-6.826666-10.24-10.24-10.24-25.6 0-35.84l105.813333-105.813334-105.813333-105.813333c-10.24-10.24-10.24-25.6 0-35.84s25.6-10.24 35.84 0l122.88 122.88c10.24 10.24 10.24 25.6 0 35.84l-122.88 122.88c-3.413333 6.826667-10.24 8.533333-17.066667 8.533333z"  /></svg>