<?xml version="1.0" standalone="no"?><!DOCTYPE svg PUBLIC "-//W3C//DTD SVG 1.1//EN" "http://www.w3.org/Graphics/SVG/1.1/DTD/svg11.dtd"><svg class="icon" width="64px" height="64.00px" viewBox="0 0 1024 1024" version="1.1" xmlns="http://www.w3.org/2000/svg"><path  d="M619.52 856.746667H404.48c-37.546667 0-68.266667-30.72-68.266667-68.266667v-100.693333C223.573333 621.226667 157.013333 501.76 162.133333 370.346667 168.96 191.146667 315.733333 42.666667 494.933333 34.133333c97.28-5.12 189.44 29.013333 257.706667 97.28 69.973333 66.56 109.226667 157.013333 109.226667 252.586667 0 124.586667-66.56 238.933333-174.08 302.08v100.693333c1.706667 39.253333-29.013333 69.973333-68.266667 69.973334zM512 85.333333h-13.653333c-153.6 6.826667-278.186667 133.12-285.013334 286.72-5.12 116.053333 56.32 221.866667 158.72 276.48l13.653334 6.826667v131.413333c0 10.24 8.533333 17.066667 17.066666 17.066667h216.746667c10.24 0 17.066667-8.533333 17.066667-17.066667v-131.413333l13.653333-6.826667c98.986667-51.2 160.426667-153.6 160.426667-264.533333 0-81.92-32.426667-158.72-92.16-216.746667C662.186667 114.346667 588.8 85.333333 512 85.333333z"  /><path  d="M512 535.893333c-6.826667 0-13.653333-3.413333-18.773333-8.533333L395.946667 426.666667c-10.24-10.24-10.24-25.6 0-35.84 10.24-10.24 25.6-10.24 35.84 0l80.213333 81.92 81.92-81.92c10.24-10.24 25.6-10.24 35.84 0s10.24 25.6 0 35.84L529.066667 527.36c-3.413333 5.12-10.24 8.533333-17.066667 8.533333z"  /><path  d="M489.813333 512h51.2v319.146667h-51.2z"  /><path  d="M617.813333 989.866667H406.186667c-13.653333 0-25.6-11.946667-25.6-25.6S392.533333 938.666667 406.186667 938.666667h211.626666c13.653333 0 25.6 11.946667 25.6 25.6S631.466667 989.866667 617.813333 989.866667z"  /></svg>