<?xml version="1.0" standalone="no"?><!DOCTYPE svg PUBLIC "-//W3C//DTD SVG 1.1//EN" "http://www.w3.org/Graphics/SVG/1.1/DTD/svg11.dtd"><svg class="icon" width="64px" height="64.00px" viewBox="0 0 1024 1024" version="1.1" xmlns="http://www.w3.org/2000/svg"><path  d="M839.338667 34.133333H182.613333C133.12 34.133333 92.842667 76.288 92.842667 128v768c0 51.712 40.277333 93.866667 89.770666 93.866667h656.554667c49.493333 0 89.770667-42.154667 89.770667-93.866667v-768c0.170667-51.712-40.106667-93.866667-89.6-93.866667z m38.570666 861.866667c0 23.552-17.237333 42.666667-38.570666 42.666667H182.613333c-21.333333 0-38.570667-19.114667-38.570666-42.666667v-768C144.042667 104.448 161.450667 85.333333 182.613333 85.333333h656.554667c21.333333 0 38.570667 19.114667 38.570667 42.666667v768z"  /><path  d="M745.472 676.181333H276.48c-14.165333 0-25.6 11.434667-25.6 25.6s11.434667 25.6 25.6 25.6h468.821333c14.165333 0 25.6-11.434667 25.6-25.6s-11.264-25.6-25.429333-25.6zM745.472 811.52H276.48c-14.165333 0-25.6 11.434667-25.6 25.6s11.434667 25.6 25.6 25.6h468.821333c14.165333 0 25.6-11.434667 25.6-25.6s-11.264-25.6-25.429333-25.6zM510.976 611.328c126.976 0 230.4-103.424 230.4-230.4s-103.424-230.4-230.4-230.4-230.4 103.424-230.4 230.4 103.424 230.4 230.4 230.4z m0-409.6c98.816 0 179.2 80.384 179.2 179.2s-80.384 179.2-179.2 179.2-179.2-80.384-179.2-179.2 80.384-179.2 179.2-179.2z"  /><path  d="M449.536 396.288c-14.165333 0-25.6 11.434667-25.6 25.6s11.434667 25.6 25.6 25.6h35.84v35.84c0 14.165333 11.434667 25.6 25.6 25.6s25.6-11.434667 25.6-25.6v-35.84h35.84c14.165333 0 25.6-11.434667 25.6-25.6s-11.434667-25.6-25.6-25.6h-35.84v-10.24h35.84c14.165333 0 25.6-11.434667 25.6-25.6s-11.434667-25.6-25.6-25.6h-9.898667l27.989334-27.989333c10.069333-10.069333 10.069333-26.282667 0-36.181334a25.429333 25.429333 0 0 0-36.181334 0l-43.349333 43.349334-43.349333-43.349334a25.429333 25.429333 0 0 0-36.181334 0 25.429333 25.429333 0 0 0 0 36.181334l27.989334 27.989333h-9.898667c-14.165333 0-25.6 11.434667-25.6 25.6s11.434667 25.6 25.6 25.6h35.84v10.24h-35.84z"  /></svg>