<?xml version="1.0" standalone="no"?><!DOCTYPE svg PUBLIC "-//W3C//DTD SVG 1.1//EN" "http://www.w3.org/Graphics/SVG/1.1/DTD/svg11.dtd"><svg class="icon" width="64px" height="64.00px" viewBox="0 0 1024 1024" version="1.1" xmlns="http://www.w3.org/2000/svg"><path  d="M813.226667 989.866667h-602.453334a94.037333 94.037333 0 0 1-93.866666-93.866667v-768c0-51.712 42.154667-93.866667 93.866666-93.866667h602.453334c51.712 0 93.866667 42.154667 93.866666 93.866667v768c0 51.712-42.154667 93.866667-93.866666 93.866667zM210.773333 85.333333a42.666667 42.666667 0 0 0-42.666666 42.666667v768a42.666667 42.666667 0 0 0 42.666666 42.666667h602.453334a42.666667 42.666667 0 0 0 42.666666-42.666667v-768a42.666667 42.666667 0 0 0-42.666666-42.666667h-602.453334z"  /><path  d="M665.941333 236.373333H358.058667a94.037333 94.037333 0 0 1-93.866667-93.866666V128c0-51.712 42.154667-93.866667 93.866667-93.866667h307.882666c51.712 0 93.866667 42.154667 93.866667 93.866667v14.506667c0 51.712-42.154667 93.866667-93.866667 93.866666zM358.058667 85.333333a42.666667 42.666667 0 0 0-42.666667 42.666667v14.506667a42.666667 42.666667 0 0 0 42.666667 42.666666h307.882666a42.666667 42.666667 0 0 0 42.666667-42.666666V128a42.666667 42.666667 0 0 0-42.666667-42.666667H358.058667zM700.074667 518.997333H321.706667c-32.938667 0-59.733333-26.794667-59.733334-59.733333V433.493333c0-32.938667 26.794667-59.733333 59.733334-59.733333h116.565333v-51.370667a42.666667 42.666667 0 0 1 42.666667-42.666666h59.904a42.666667 42.666667 0 0 1 42.666666 42.666666v51.370667h116.565334c32.938667 0 59.733333 26.794667 59.733333 59.733333v25.770667c0 32.938667-26.794667 59.733333-59.733333 59.733333zM321.706667 424.96c-4.778667 0-8.533333 3.754667-8.533334 8.533333v25.770667c0 4.778667 3.754667 8.533333 8.533334 8.533333h378.197333c4.778667 0 8.533333-3.754667 8.533333-8.533333V433.493333c0-4.778667-3.754667-8.533333-8.533333-8.533333h-125.098667a42.666667 42.666667 0 0 1-42.666666-42.666667v-51.370666h-42.837334v51.370666a42.666667 42.666667 0 0 1-42.666666 42.666667h-124.928z m219.136-94.037333z"  /><path  d="M630.613333 731.477333H391.168a94.037333 94.037333 0 0 1-93.866667-93.866666v-143.189334c0-14.165333 11.434667-25.6 25.6-25.6h375.978667c14.165333 0 25.6 11.434667 25.6 25.6v143.189334c0 51.712-42.154667 93.866667-93.866667 93.866666zM348.501333 520.021333v117.589334a42.666667 42.666667 0 0 0 42.666667 42.666666h239.445333a42.666667 42.666667 0 0 0 42.666667-42.666666v-117.589334H348.501333z"  /><path  d="M416.938667 730.282667c-14.165333 0-25.6-11.434667-25.6-25.6v-70.314667c0-14.165333 11.434667-25.6 25.6-25.6s25.6 11.434667 25.6 25.6v70.314667c0 14.165333-11.434667 25.6-25.6 25.6zM510.976 730.282667c-14.165333 0-25.6-11.434667-25.6-25.6v-70.485334c0-14.165333 11.434667-25.6 25.6-25.6s25.6 11.434667 25.6 25.6v70.485334c0 14.165333-11.605333 25.6-25.6 25.6zM604.842667 730.282667c-14.165333 0-25.6-11.434667-25.6-25.6v-70.314667c0-14.165333 11.434667-25.6 25.6-25.6s25.6 11.434667 25.6 25.6v70.314667c0 14.165333-11.434667 25.6-25.6 25.6zM611.669333 845.141333H412.330667c-14.165333 0-25.6-11.434667-25.6-25.6s11.434667-25.6 25.6-25.6h199.509333c14.165333 0 25.6 11.434667 25.6 25.6s-11.605333 25.6-25.770667 25.6z"  /></svg>