<?xml version="1.0" standalone="no"?><!DOCTYPE svg PUBLIC "-//W3C//DTD SVG 1.1//EN" "http://www.w3.org/Graphics/SVG/1.1/DTD/svg11.dtd"><svg class="icon" width="64px" height="64.00px" viewBox="0 0 1024 1024" version="1.1" xmlns="http://www.w3.org/2000/svg"><path  d="M893.952 989.866667H130.048c-51.541333 0-93.525333-41.984-93.525333-93.525334V447.658667c0-27.818667 12.288-53.930667 33.621333-71.68L453.290667 55.808c34.816-29.184 85.333333-29.013333 120.149333 0.170667l380.586667 320a93.303467 93.303467 0 0 1 33.450666 71.509333v448.853333c0 51.541333-41.984 93.525333-93.525333 93.525334zM513.194667 85.333333c-9.557333 0-19.285333 3.242667-27.136 9.898667L102.912 415.232a41.984 41.984 0 0 0-15.189333 32.426667v448.682666A42.325333 42.325333 0 0 0 130.048 938.666667h763.904a42.325333 42.325333 0 0 0 42.325333-42.325334v-448.853333c0-12.458667-5.461333-24.234667-15.018666-32.426667L540.330667 95.232C532.48 88.576 522.922667 85.333333 513.194667 85.333333z"  /><path  d="M640.682667 554.325333H383.317333c-14.165333 0-25.6-11.434667-25.6-25.6s11.434667-25.6 25.6-25.6h257.365334c14.165333 0 25.6 11.434667 25.6 25.6s-11.434667 25.6-25.6 25.6zM640.682667 683.008H383.317333c-14.165333 0-25.6-11.434667-25.6-25.6s11.434667-25.6 25.6-25.6h257.365334c14.165333 0 25.6 11.434667 25.6 25.6s-11.434667 25.6-25.6 25.6z"  /><path  d="M512.170667 811.690667c-14.165333 0-25.6-11.434667-25.6-25.6V528.725333c0-14.165333 11.434667-25.6 25.6-25.6s25.6 11.434667 25.6 25.6v257.365334c0 13.994667-11.434667 25.6-25.6 25.6z"  /><path  d="M512 543.402667l-146.773333-146.773334c-10.069333-10.069333-10.069333-26.282667 0-36.181333s26.282667-10.069333 36.181333 0L512 471.04l110.592-110.592c10.069333-10.069333 26.282667-10.069333 36.181333 0s10.069333 26.282667 0 36.181333l-146.773333 146.773334z"  /></svg>