<?xml version="1.0" standalone="no"?><!DOCTYPE svg PUBLIC "-//W3C//DTD SVG 1.1//EN" "http://www.w3.org/Graphics/SVG/1.1/DTD/svg11.dtd"><svg class="icon" width="64px" height="64.00px" viewBox="0 0 1024 1024" version="1.1" xmlns="http://www.w3.org/2000/svg"><path  d="M512 85.333333c235.349333 0 426.666667 191.317333 426.666667 426.666667S747.349333 938.666667 512 938.666667 85.333333 747.349333 85.333333 512 276.650667 85.333333 512 85.333333m0-51.2C248.149333 34.133333 34.133333 248.149333 34.133333 512s214.016 477.866667 477.866667 477.866667 477.866667-214.016 477.866667-477.866667S775.850667 34.133333 512 34.133333z"  /><path  d="M701.098667 525.312H322.901333c-32.938667 0-59.733333-26.794667-59.733333-59.733333v-25.770667c0-32.938667 26.794667-59.733333 59.733333-59.733333h116.565334v-51.370667a42.666667 42.666667 0 0 1 42.666666-42.666667h59.904a42.666667 42.666667 0 0 1 42.666667 42.666667v51.370667h116.565333c32.938667 0 59.733333 26.794667 59.733334 59.733333v25.770667a60.0576 60.0576 0 0 1-59.904 59.733333z m-378.197334-94.037333c-4.778667 0-8.533333 3.754667-8.533333 8.533333v25.770667c0 4.778667 3.754667 8.533333 8.533333 8.533333h378.197334c4.778667 0 8.533333-3.754667 8.533333-8.533333v-25.770667c0-4.778667-3.754667-8.533333-8.533333-8.533333h-125.098667a42.666667 42.666667 0 0 1-42.666667-42.666667v-51.370667h-42.837333v51.370667a42.666667 42.666667 0 0 1-42.666667 42.666667h-124.928z m218.965334-93.866667z"  /><path  d="M631.808 737.792H392.192a94.037333 94.037333 0 0 1-93.866667-93.866667v-143.189333c0-14.165333 11.434667-25.6 25.6-25.6h375.978667c14.165333 0 25.6 11.434667 25.6 25.6v143.189333c0.170667 51.882667-41.984 93.866667-93.696 93.866667zM349.525333 526.336v117.589333a42.666667 42.666667 0 0 0 42.666667 42.666667h239.445333a42.666667 42.666667 0 0 0 42.666667-42.666667v-117.589333H349.525333z"  /><path  d="M417.962667 736.597333c-14.165333 0-25.6-11.434667-25.6-25.6v-70.314666c0-14.165333 11.434667-25.6 25.6-25.6s25.6 11.434667 25.6 25.6v70.314666c0 14.165333-11.434667 25.6-25.6 25.6zM512 736.597333c-14.165333 0-25.6-11.434667-25.6-25.6v-70.485333c0-14.165333 11.434667-25.6 25.6-25.6s25.6 11.434667 25.6 25.6v70.485333c0 14.165333-11.434667 25.6-25.6 25.6zM606.037333 736.597333c-14.165333 0-25.6-11.434667-25.6-25.6v-70.314666c0-14.165333 11.434667-25.6 25.6-25.6s25.6 11.434667 25.6 25.6v70.314666c0 14.165333-11.434667 25.6-25.6 25.6z"  /></svg>