<?xml version="1.0" standalone="no"?><!DOCTYPE svg PUBLIC "-//W3C//DTD SVG 1.1//EN" "http://www.w3.org/Graphics/SVG/1.1/DTD/svg11.dtd"><svg class="icon" width="64px" height="64.00px" viewBox="0 0 1024 1024" version="1.1" xmlns="http://www.w3.org/2000/svg"><path  d="M736.768 989.525333H286.890667c-79.189333 0-152.576-37.034667-196.266667-98.816-40.618667-57.514667-50.346667-129.194667-26.453333-196.608 61.44-173.226667 137.216-313.173333 225.450666-416.085333 7.168-8.192 18.602667-11.264 28.842667-7.168 87.722667 34.304 193.194667 34.816 194.218667 34.816 1.024 0 106.496-0.512 193.877333-34.816 10.069333-3.925333 21.674667-1.024 28.842667 7.168 87.381333 101.888 162.816 241.664 224.597333 415.061333 24.064 67.584 14.336 139.434667-26.453333 197.290667-44.032 62.122667-117.418667 99.157333-196.778667 99.157333zM317.098667 324.949333C237.909333 421.546667 168.96 551.424 112.469333 711.168c-18.602667 52.224-11.434667 105.472 19.968 150.016 34.133333 48.298667 91.818667 77.141333 154.453334 77.141333h450.048c62.634667 0 120.490667-29.013333 154.624-77.482666 31.573333-44.714667 38.570667-98.133333 19.968-150.698667-56.832-159.914667-125.44-289.450667-203.776-385.365333-91.989333 31.573333-190.634667 31.914667-195.072 31.914666-4.608 0.170667-103.424-0.341333-195.584-31.744z"  /><path  d="M648.021333 628.053333H376.832c-14.165333 0-25.6-11.434667-25.6-25.6s11.434667-25.6 25.6-25.6h271.189333c14.165333 0 25.6 11.434667 25.6 25.6s-11.605333 25.6-25.6 25.6zM648.021333 763.562667H376.832c-14.165333 0-25.6-11.434667-25.6-25.6s11.434667-25.6 25.6-25.6h271.189333c14.165333 0 25.6 11.434667 25.6 25.6s-11.605333 25.6-25.6 25.6z"  /><path  d="M512.512 854.016c-14.165333 0-25.6-11.434667-25.6-25.6V602.453333c0-14.165333 11.434667-25.6 25.6-25.6s25.6 11.434667 25.6 25.6v225.962667c0 14.165333-11.434667 25.6-25.6 25.6z"  /><path  d="M512.341333 628.053333c-6.485333 0-13.141333-2.56-18.090666-7.509333l-135.509334-135.509333c-10.069333-10.069333-10.069333-26.282667 0-36.181334s26.282667-10.069333 36.181334 0l117.418666 117.418667 117.418667-117.418667c10.069333-10.069333 26.282667-10.069333 36.181333 0s10.069333 26.282667 0 36.181334l-135.509333 135.509333c-4.949333 4.949333-11.434667 7.509333-18.090667 7.509333zM512.341333 356.864c-182.101333 0-319.317333-69.290667-319.317333-161.109333s137.386667-161.109333 319.317333-161.109334 319.317333 69.290667 319.317334 161.109334-137.216 161.109333-319.317334 161.109333z m0-271.189333c-158.037333 0-268.117333 58.026667-268.117333 109.909333s110.08 109.909333 268.117333 109.909333 268.117333-58.026667 268.117334-109.909333-110.08-109.909333-268.117334-109.909333z"  /></svg>