<?xml version="1.0" standalone="no"?><!DOCTYPE svg PUBLIC "-//W3C//DTD SVG 1.1//EN" "http://www.w3.org/Graphics/SVG/1.1/DTD/svg11.dtd"><svg class="icon" width="64px" height="64.00px" viewBox="0 0 1024 1024" version="1.1" xmlns="http://www.w3.org/2000/svg"><path  d="M841.898667 989.525333H182.101333c-49.664 0-89.941333-42.154667-89.941333-93.866666V451.584c0-31.573333 15.018667-60.757333 40.106667-78.165333L462.165333 144.896a86.4768 86.4768 0 0 1 99.498667 0l330.069333 228.522667c25.088 17.408 40.277333 46.592 40.277334 78.165333v444.074667c-0.170667 51.712-40.448 93.866667-90.112 93.866666zM512 180.394667c-7.168 0-14.336 2.218667-20.650667 6.485333L161.450667 415.402667c-11.434667 8.021333-18.090667 21.504-18.090667 36.181333v444.074667c0 23.552 17.408 42.666667 38.741333 42.666666h659.797334c21.333333 0 38.741333-19.114667 38.741333-42.666666V451.584c0-14.677333-6.826667-28.330667-18.090667-36.181333L532.48 187.050667c-6.144-4.437333-13.312-6.656-20.48-6.656z"  /><path  d="M941.056 340.992c-4.608 0-9.216-1.194667-13.482667-3.925333L530.090667 90.282667c-11.264-6.485333-25.088-6.485333-37.034667 0.512L96.426667 337.066667c-11.946667 7.509333-27.818667 3.754667-35.328-8.192-7.509333-11.946667-3.754667-27.818667 8.192-35.328L466.773333 46.762667c28.501333-16.384 61.781333-16.384 89.6-0.512L954.709333 293.546667c11.946667 7.509333 15.701333 23.210667 8.192 35.328-4.778667 7.850667-13.141333 12.117333-21.845333 12.117333z"  /><path  d="M512 370.858667c103.936 0 188.416 84.48 188.416 188.416 0 103.936-84.48 188.416-188.416 188.416s-188.416-84.48-188.416-188.416c0-103.765333 84.48-188.416 188.416-188.416m0-51.2c-132.437333 0-239.616 107.349333-239.616 239.616 0 132.437333 107.349333 239.616 239.616 239.616s239.616-107.349333 239.616-239.616c0-132.266667-107.178667-239.616-239.616-239.616z"  /><path  d="M512 560.128c-6.485333 0-13.141333-2.56-18.090667-7.509333l-64.512-64.512a25.429333 25.429333 0 0 1 0-36.181334 25.429333 25.429333 0 0 1 36.181334 0l64.512 64.512c10.069333 10.069333 10.069333 26.282667 0 36.181334-4.949333 5.12-11.605333 7.509333-18.090667 7.509333z"  /><path  d="M512 560.128c-6.485333 0-13.141333-2.56-18.090667-7.509333a25.429333 25.429333 0 0 1 0-36.181334l64.512-64.512c10.069333-10.069333 26.282667-10.069333 36.181334 0s10.069333 26.282667 0 36.181334l-64.512 64.512c-4.949333 5.12-11.605333 7.509333-18.090667 7.509333z"  /><path  d="M512 707.584c-14.165333 0-25.6-11.434667-25.6-25.6v-147.456c0-14.165333 11.434667-25.6 25.6-25.6s25.6 11.434667 25.6 25.6v147.456c0 14.165333-11.434667 25.6-25.6 25.6z"  /><path  d="M578.730667 572.586667h-133.632c-14.165333 0-25.6-11.434667-25.6-25.6s11.434667-25.6 25.6-25.6h133.632c14.165333 0 25.6 11.434667 25.6 25.6s-11.434667 25.6-25.6 25.6zM578.730667 638.976h-133.632c-14.165333 0-25.6-11.434667-25.6-25.6s11.434667-25.6 25.6-25.6h133.632c14.165333 0 25.6 11.434667 25.6 25.6s-11.434667 25.6-25.6 25.6z"  /></svg>