<?xml version="1.0" standalone="no"?><!DOCTYPE svg PUBLIC "-//W3C//DTD SVG 1.1//EN" "http://www.w3.org/Graphics/SVG/1.1/DTD/svg11.dtd"><svg class="icon" width="64px" height="64.00px" viewBox="0 0 1024 1024" version="1.1" xmlns="http://www.w3.org/2000/svg"><path  d="M512 85.333333c235.349333 0 426.666667 191.317333 426.666667 426.666667S747.349333 938.666667 512 938.666667 85.333333 747.349333 85.333333 512 276.650667 85.333333 512 85.333333m0-51.2C248.149333 34.133333 34.133333 248.149333 34.133333 512s214.016 477.866667 477.866667 477.866667 477.866667-214.016 477.866667-477.866667S775.850667 34.133333 512 34.133333z"  /><path  d="M385.024 710.826667c-6.826667 0-13.312-2.730667-18.090667-7.509334l-118.954666-118.954666a25.429333 25.429333 0 0 1 0-36.181334l298.837333-298.837333a25.429333 25.429333 0 0 1 36.181333 0l118.954667 118.954667a25.582933 25.582933 0 0 1 0 36.181333L403.114667 703.317333c-4.778667 4.778667-11.264 7.509333-18.090667 7.509334z m-82.773333-144.554667l82.773333 82.773333 262.656-262.656-82.773333-82.773333-262.656 262.656z"  /><path  d="M757.930667 782.165333c-6.485333 0-13.141333-2.56-18.090667-7.509333L517.802667 552.618667c-10.069333-10.069333-10.069333-26.282667 0-36.181334s26.282667-10.069333 36.181333 0l222.208 222.208c10.069333 10.069333 10.069333 26.282667 0 36.181334-5.12 4.949333-11.605333 7.338667-18.261333 7.338666z"  /></svg>