<?xml version="1.0" standalone="no"?><!DOCTYPE svg PUBLIC "-//W3C//DTD SVG 1.1//EN" "http://www.w3.org/Graphics/SVG/1.1/DTD/svg11.dtd"><svg class="icon" width="64px" height="64.00px" viewBox="0 0 1024 1024" version="1.1" xmlns="http://www.w3.org/2000/svg"><path  d="M898.56 989.525333c-8.021333 0-15.701333-3.754667-20.48-10.24l-76.458667-102.058666-76.458666 102.058666c-9.728 12.970667-31.232 12.970667-40.96 0l-76.458667-102.058666-76.458667 102.058666c-4.778667 6.485333-12.458667 10.24-20.48 10.24s-15.701333-3.754667-20.48-10.24l-76.458666-102.058666-76.458667 102.058666c-9.728 12.970667-31.232 12.970667-40.96 0L220.16 877.226667l-76.458667 102.058666c-4.778667 6.485333-12.458667 10.24-20.48 10.24-6.144 0-12.288-0.682667-18.261333-1.877333-5.802667-1.194667-11.434667-2.901333-16.896-5.290667-5.461333-2.218667-10.581333-5.12-15.36-8.362666s-9.216-6.826667-13.312-10.922667-7.850667-8.533333-10.922667-13.312c-3.242667-4.778667-5.973333-9.898667-8.362666-15.36-2.389333-5.461333-4.096-11.264-5.290667-17.066667a93.013333 93.013333 0 0 1-1.877333-18.090666V124.074667a91.648 91.648 0 0 1 7.168-35.157334c2.218667-5.290667 5.12-10.410667 8.362666-15.36 3.242667-4.778667 6.997333-9.216 11.093334-13.312 4.096-4.096 8.533333-7.850667 13.312-10.922666 4.949333-3.242667 10.069333-6.144 15.36-8.362667 5.461333-2.218667 11.093333-4.096 17.066666-5.290667 5.802667-1.194667 11.946667-1.877333 18.090667-1.877333h775.168c6.144 0 12.288 0.682667 18.261333 1.877333 5.802667 1.194667 11.605333 2.901333 17.066667 5.290667 5.290667 2.218667 10.410667 4.949333 15.189333 8.362667 4.778667 3.242667 9.216 6.997333 13.312 10.922666 4.096 4.096 7.850667 8.533333 11.093334 13.312 3.242667 4.949333 6.144 10.069333 8.362666 15.36 2.389333 5.461333 4.096 11.093333 5.290667 16.896 1.194667 5.973333 1.877333 12.117333 1.877333 18.261334v775.168a90.350933 90.350933 0 0 1-7.168 34.986666c-2.389333 5.461333-5.12 10.581333-8.362666 15.36s-6.997333 9.216-11.093334 13.312c-4.096 4.096-8.533333 7.850667-13.312 10.922667-4.778667 3.242667-9.898667 5.973333-15.36 8.362667-5.461333 2.218667-11.093333 4.096-16.896 5.290666-5.973333 1.365333-12.117333 2.048-18.261333 2.048zM801.621333 808.96c8.021333 0 15.701333 3.754667 20.48 10.24l87.893334 117.418667c1.194667-0.341333 2.56-0.853333 3.754666-1.365334 2.389333-1.024 4.437333-2.218667 6.485334-3.584 2.218667-1.365333 4.096-3.072 5.802666-4.778666 1.877333-1.877333 3.413333-3.754667 4.778667-5.802667 1.365333-2.048 2.56-4.266667 3.584-6.656s1.706667-4.778667 2.218667-7.338667c0.512-2.56 0.853333-5.12 0.853333-7.850666V124.074667c0-2.730667-0.341333-5.290667-0.853333-7.850667-0.512-2.389333-1.194667-4.949333-2.218667-7.338667a50.005333 50.005333 0 0 0-3.584-6.656c-1.365333-2.048-3.072-3.925333-4.778667-5.802666-1.706667-1.706667-3.754667-3.413333-5.802666-4.778667-2.048-1.365333-4.266667-2.56-6.485334-3.584a41.233067 41.233067 0 0 0-15.36-3.072H123.221333c-2.730667 0-5.290667 0.341333-7.850666 0.853333-2.56 0.512-4.949333 1.194667-7.168 2.218667-2.389333 1.024-4.608 2.218667-6.826667 3.584-1.877333 1.365333-3.925333 3.072-5.802667 4.778667-1.706667 1.706667-3.413333 3.754667-4.778666 5.802666-1.365333 2.048-2.56 4.266667-3.413334 6.656-1.024 2.218667-1.877333 4.778667-2.389333 7.168-0.512 2.730667-0.682667 5.290667-0.682667 8.021334v775.168c0 2.730667 0.341333 5.290667 0.853334 7.850666 0.512 2.56 1.194667 4.949333 2.218666 7.338667 1.024 2.218667 2.218667 4.608 3.584 6.656 1.365333 2.048 2.901333 3.925333 4.778667 5.802667 1.877333 1.877333 3.754667 3.413333 5.802667 4.778666 2.218667 1.365333 4.266667 2.730667 6.656 3.584 1.194667 0.512 2.389333 1.024 3.754666 1.365334L199.68 819.2c4.778667-6.485333 12.458667-10.24 20.48-10.24s15.701333 3.754667 20.48 10.24l76.458667 102.058667L393.557333 819.2c9.728-12.970667 31.232-12.970667 40.96 0l76.458667 102.058667L587.264 819.2c4.778667-6.485333 12.458667-10.24 20.48-10.24s15.701333 3.754667 20.48 10.24l76.458667 102.058667L781.141333 819.2c4.778667-6.485333 12.458667-10.24 20.48-10.24z"  /><path  d="M718.165333 729.6H273.749333c-14.165333 0-25.6-11.434667-25.6-25.6s11.434667-25.6 25.6-25.6h444.416c14.165333 0 25.6 11.434667 25.6 25.6s-11.434667 25.6-25.6 25.6zM495.957333 315.733333H273.749333c-14.165333 0-25.6-11.434667-25.6-25.6s11.434667-25.6 25.6-25.6h222.208c14.165333 0 25.6 11.434667 25.6 25.6s-11.434667 25.6-25.6 25.6zM410.282667 522.581333h-136.362667c-14.165333 0-25.6-11.434667-25.6-25.6s11.434667-25.6 25.6-25.6h136.362667c14.165333 0 25.6 11.434667 25.6 25.6s-11.434667 25.6-25.6 25.6zM636.074667 601.6c-1.024 0-2.218667 0-3.242667-0.170667l-69.973333-9.216c-11.434667-1.536-20.48-10.581333-22.016-22.016l-9.216-69.973333c-1.024-7.850667 1.706667-15.872 7.338666-21.333333l243.541334-243.541334a25.429333 25.429333 0 0 1 36.181333 0l79.189333 79.189334c10.069333 10.069333 10.069333 26.282667 0 36.181333L654.165333 594.090667c-4.778667 4.778667-11.434667 7.509333-18.090666 7.509333z m-47.274667-57.685333l38.058667 4.949333 216.405333-216.405333-43.008-43.008-216.405333 216.576 4.949333 37.888z"  /></svg>