<?xml version="1.0" standalone="no"?><!DOCTYPE svg PUBLIC "-//W3C//DTD SVG 1.1//EN" "http://www.w3.org/Graphics/SVG/1.1/DTD/svg11.dtd"><svg class="icon" width="64px" height="64.00px" viewBox="0 0 1024 1024" version="1.1" xmlns="http://www.w3.org/2000/svg"><path  d="M595.797333 926.378667c-77.994667 0-140.8-21.162667-196.266666-39.936-43.178667-14.506667-80.384-27.136-116.394667-27.136H59.733333c-14.165333 0-25.6-11.434667-25.6-25.6v-267.946667c0-6.826667 2.730667-13.312 7.509334-18.090667 57.685333-57.685333 151.210667-119.125333 241.493333-119.125333 92.501333 0 315.050667 90.282667 355.498667 144.213333 10.069333 13.482667 13.994667 29.696 10.922666 46.592-2.218667 13.312-8.533333 26.282667-16.896 38.229334 104.106667-20.138667 265.728-50.517333 298.154667-50.517334 26.453333 0 46.592 11.776 54.954667 32.256 11.776 28.330667-2.048 66.048-36.864 100.864-7.68 7.509333-188.074667 186.197333-353.109334 186.197334zM85.333333 808.106667h197.802667c44.373333 0 87.210667 14.506667 132.778667 29.866666 54.272 18.261333 110.421333 37.205333 180.053333 37.205334 115.2 0 257.706667-111.957333 316.928-171.178667 23.210667-23.210667 27.136-40.618667 25.941333-44.885333-0.512 0.341333-2.730667-0.853333-7.850666-0.853334-30.890667 0-240.469333 39.594667-374.101334 66.389334-2.048 0.512-4.096 0.512-5.973333 0.682666-2.56 0-5.12-0.512-7.68-1.365333l-133.973333-44.714667a25.6 25.6 0 0 1-16.213334-32.426666 25.6 25.6 0 0 1 32.426667-16.213334l121.685333 40.618667c22.528-17.066667 49.322667-43.008 52.224-60.757333 0.682667-3.584 0-5.290667-1.536-7.168-26.282667-34.986667-228.864-123.733333-314.538666-123.733334-70.826667 0-148.821333 50.688-197.802667 96.938667v231.594667z"  /><path  d="M883.541333 585.045333c-14.165333 0-25.6-11.434667-25.6-25.6V174.421333c0-19.797333-19.114667-35.84-42.666666-35.84h-380.586667c-23.552 0-42.666667 16.042667-42.666667 35.84v288.426667c0 14.165333-11.434667 25.6-25.6 25.6s-25.6-11.434667-25.6-25.6v-288.426667c0-47.957333 42.154667-87.04 93.866667-87.04h380.586667c51.712 0 93.866667 39.082667 93.866666 87.04v385.194667c0 13.994667-11.434667 25.429333-25.6 25.429333z"  /><path  d="M657.408 340.309333c-6.485333 0-13.141333-2.56-18.090667-7.509333l-85.333333-85.333333c-10.069333-10.069333-10.069333-26.282667 0-36.181334s26.282667-10.069333 36.181333 0l85.333334 85.333334c10.069333 10.069333 10.069333 26.282667 0 36.181333-5.12 4.949333-11.605333 7.509333-18.090667 7.509333z"  /><path  d="M657.408 340.309333c-6.485333 0-13.141333-2.56-18.090667-7.509333a25.429333 25.429333 0 0 1 0-36.181333l85.333334-85.333334c10.069333-10.069333 26.282667-10.069333 36.181333 0s10.069333 26.282667 0 36.181334l-85.333333 85.333333c-5.12 4.949333-11.605333 7.509333-18.090667 7.509333z"  /><path  d="M657.408 534.869333c-14.165333 0-25.6-11.434667-25.6-25.6v-194.56c0-14.165333 11.434667-25.6 25.6-25.6s25.6 11.434667 25.6 25.6v194.730667c0 13.994667-11.434667 25.429333-25.6 25.429333z"  /><path  d="M745.642667 356.693333H569.173333c-14.165333 0-25.6-11.434667-25.6-25.6s11.434667-25.6 25.6-25.6h176.469334c14.165333 0 25.6 11.434667 25.6 25.6s-11.434667 25.6-25.6 25.6zM745.642667 444.416H569.173333c-14.165333 0-25.6-11.434667-25.6-25.6s11.434667-25.6 25.6-25.6h176.469334c14.165333 0 25.6 11.434667 25.6 25.6s-11.434667 25.6-25.6 25.6z"  /></svg>