<?xml version="1.0" standalone="no"?><!DOCTYPE svg PUBLIC "-//W3C//DTD SVG 1.1//EN" "http://www.w3.org/Graphics/SVG/1.1/DTD/svg11.dtd"><svg class="icon" width="64px" height="64.00px" viewBox="0 0 1024 1024" version="1.1" xmlns="http://www.w3.org/2000/svg"><path  d="M805.546667 945.493333H218.453333c-39.253333 0-69.973333-32.426667-69.973333-71.68V421.546667c0-39.253333 32.426667-71.68 69.973333-71.68h588.8c39.253333 0 69.973333 32.426667 69.973334 71.68v452.266666c0 39.253333-32.426667 71.68-71.68 71.68zM218.453333 401.066667c-10.24 0-18.773333 8.533333-18.773333 20.48v452.266666c0 10.24 8.533333 20.48 18.773333 20.48h588.8c10.24 0 18.773333-8.533333 18.773334-20.48V421.546667c0-10.24-8.533333-20.48-18.773334-20.48H218.453333z"  /><path  d="M353.28 558.08m-46.08 0a46.08 46.08 0 1 0 92.16 0 46.08 46.08 0 1 0-92.16 0Z"  /><path  d="M670.72 558.08m-46.08 0a46.08 46.08 0 1 0 92.16 0 46.08 46.08 0 1 0-92.16 0Z"  /><path  d="M421.546667 692.906667c-25.6 0-46.08 20.48-46.08 46.08s20.48 46.08 46.08 46.08v-92.16z m180.906666 90.453333c25.6 0 46.08-20.48 46.08-46.08s-20.48-46.08-46.08-46.08v92.16z m-180.906666 0h180.906666v-90.453333H421.546667v90.453333zM512 401.066667c-13.653333 0-25.6-11.946667-25.6-25.6V194.56c0-13.653333 11.946667-25.6 25.6-25.6s25.6 11.946667 25.6 25.6V375.466667c0 15.36-11.946667 25.6-25.6 25.6zM59.733333 762.88c-13.653333 0-25.6-11.946667-25.6-25.6V558.08c0-13.653333 11.946667-25.6 25.6-25.6s25.6 10.24 25.6 25.6v180.906667c0 13.653333-11.946667 23.893333-25.6 23.893333zM964.266667 762.88c-13.653333 0-25.6-11.946667-25.6-25.6V558.08c0-13.653333 11.946667-25.6 25.6-25.6s25.6 11.946667 25.6 25.6v180.906667c0 13.653333-11.946667 23.893333-25.6 23.893333z"  /><path  d="M512 220.16c-39.253333 0-69.973333-32.426667-69.973333-71.68s32.426667-69.973333 69.973333-69.973333 69.973333 32.426667 69.973333 69.973333-30.72 71.68-69.973333 71.68z m0-88.746667c-10.24 0-18.773333 8.533333-18.773333 18.773334 0 10.24 8.533333 20.48 18.773333 20.48s18.773333-8.533333 18.773333-20.48c0-10.24-8.533333-18.773333-18.773333-18.773334z"  /></svg>