<?xml version="1.0" standalone="no"?><!DOCTYPE svg PUBLIC "-//W3C//DTD SVG 1.1//EN" "http://www.w3.org/Graphics/SVG/1.1/DTD/svg11.dtd"><svg class="icon" width="64px" height="64.00px" viewBox="0 0 1024 1024" version="1.1" xmlns="http://www.w3.org/2000/svg"><path  d="M126.293333 989.866667c-3.413333 0-8.533333-1.706667-11.946666-3.413334-8.533333-5.12-13.653333-13.653333-13.653334-22.186666V126.293333c0-51.2 40.96-92.16 92.16-92.16h636.586667c51.2 0 92.16 40.96 92.16 92.16v837.973334c0 10.24-5.12 18.773333-13.653333 22.186666-8.533333 5.12-18.773333 3.413333-27.306667-1.706666l-110.933333-81.92-121.173334 81.92c-8.533333 5.12-20.48 5.12-29.013333 0l-119.466667-81.92-114.346666 81.92c-8.533333 6.826667-22.186667 6.826667-30.72 0L250.88 904.533333l-109.226667 80.213334c-3.413333 3.413333-10.24 5.12-15.36 5.12z m373.76-143.36c5.12 0 10.24 1.706667 15.36 5.12l119.466667 81.92 122.88-83.626667c8.533333-6.826667 20.48-5.12 29.013333 0l85.333334 63.146667V126.293333C872.106667 104.106667 853.333333 85.333333 829.44 85.333333H194.56C170.666667 85.333333 151.893333 104.106667 151.893333 126.293333v786.773334l83.626667-61.44c8.533333-6.826667 22.186667-6.826667 30.72 0l104.106667 80.213333 114.346666-81.92c5.12-1.706667 10.24-3.413333 15.36-3.413333z"  /><path  d="M778.24 215.04H245.76c-13.653333 0-25.6-11.946667-25.6-25.6s11.946667-25.6 25.6-25.6h532.48c13.653333 0 25.6 11.946667 25.6 25.6s-11.946667 25.6-25.6 25.6zM754.346667 356.693333H576.853333c-13.653333 0-25.6-11.946667-25.6-25.6s11.946667-25.6 25.6-25.6h177.493334c13.653333 0 25.6 11.946667 25.6 25.6s-11.946667 25.6-25.6 25.6zM754.346667 493.226667H576.853333c-13.653333 0-25.6-11.946667-25.6-25.6s11.946667-25.6 25.6-25.6h177.493334c13.653333 0 25.6 11.946667 25.6 25.6s-11.946667 25.6-25.6 25.6zM754.346667 631.466667H576.853333c-13.653333 0-25.6-11.946667-25.6-25.6S563.2 580.266667 576.853333 580.266667h177.493334c13.653333 0 25.6 11.946667 25.6 25.6S768 631.466667 754.346667 631.466667zM754.346667 768H576.853333c-13.653333 0-25.6-11.946667-25.6-25.6S563.2 716.8 576.853333 716.8h177.493334c13.653333 0 25.6 11.946667 25.6 25.6S768 768 754.346667 768z"  /><path  d="M399.36 776.533333h-119.466667c-32.426667 0-59.733333-27.306667-59.733333-59.733333V356.693333c0-32.426667 27.306667-59.733333 59.733333-59.733333h119.466667c32.426667 0 59.733333 27.306667 59.733333 59.733333V716.8c0 34.133333-27.306667 59.733333-59.733333 59.733333z m-119.466667-428.373333c-5.12 0-8.533333 3.413333-8.533333 8.533333V716.8c0 5.12 3.413333 8.533333 8.533333 8.533333h119.466667c5.12 0 8.533333-3.413333 8.533333-8.533333V356.693333c0-5.12-3.413333-8.533333-8.533333-8.533333h-119.466667z"  /></svg>