<?xml version="1.0" standalone="no"?><!DOCTYPE svg PUBLIC "-//W3C//DTD SVG 1.1//EN" "http://www.w3.org/Graphics/SVG/1.1/DTD/svg11.dtd"><svg class="icon" width="64px" height="64.00px" viewBox="0 0 1024 1024" version="1.1" xmlns="http://www.w3.org/2000/svg"><path  d="M512 930.133333c-10.24 0-22.186667-3.413333-30.72-11.946666l-93.866667-93.866667H126.293333c-51.2 0-92.16-40.96-92.16-92.16v-546.133333c0-51.2 40.96-92.16 92.16-92.16h769.706667c51.2 0 92.16 40.96 92.16 92.16v544.426666c0 51.2-40.96 92.16-92.16 92.16H634.88l-93.866667 93.866667c-6.826667 8.533333-18.773333 13.653333-29.013333 13.653333zM126.293333 145.066667C104.106667 145.066667 85.333333 163.84 85.333333 186.026667v544.426666c0 22.186667 18.773333 40.96 40.96 40.96h271.36c6.826667 0 13.653333 3.413333 18.773334 6.826667l95.573333 95.573333 95.573333-95.573333c5.12-5.12 11.946667-6.826667 18.773334-6.826667h271.36c22.186667 0 40.96-18.773333 40.96-40.96V186.026667c0-22.186667-18.773333-40.96-40.96-40.96H126.293333z"  /><path  d="M421.546667 348.16h-136.533334c-13.653333 0-25.6-11.946667-25.6-25.6s11.946667-25.6 25.6-25.6h136.533334c13.653333 0 25.6 11.946667 25.6 25.6s-11.946667 25.6-25.6 25.6zM331.093333 529.066667h-44.373333c-13.653333 0-25.6-11.946667-25.6-25.6S273.066667 477.866667 286.72 477.866667h44.373333c13.653333 0 25.6 11.946667 25.6 25.6s-11.946667 25.6-25.6 25.6zM783.36 619.52c-10.24 0-18.773333-5.12-22.186667-13.653333L602.453333 290.133333c-6.826667-11.946667-1.706667-27.306667 11.946667-34.133333 11.946667-6.826667 27.306667-1.706667 34.133333 11.946667l158.72 317.44c6.826667 11.946667 1.706667 27.306667-11.946666 34.133333h-11.946667z"  /><path  d="M465.92 619.52c-3.413333 0-8.533333-1.706667-11.946667-3.413333-11.946667-6.826667-17.066667-22.186667-11.946666-34.133334l158.72-317.44c6.826667-11.946667 22.186667-17.066667 34.133333-11.946666 11.946667 6.826667 17.066667 22.186667 11.946667 34.133333l-158.72 317.44c-3.413333 10.24-11.946667 15.36-22.186667 15.36z"  /><path  d="M737.28 529.066667H512c-13.653333 0-25.6-11.946667-25.6-25.6S498.346667 477.866667 512 477.866667h225.28c13.653333 0 25.6 11.946667 25.6 25.6s-10.24 25.6-25.6 25.6z"  /></svg>