<?xml version="1.0" standalone="no"?><!DOCTYPE svg PUBLIC "-//W3C//DTD SVG 1.1//EN" "http://www.w3.org/Graphics/SVG/1.1/DTD/svg11.dtd"><svg class="icon" width="64px" height="64.00px" viewBox="0 0 1024 1024" version="1.1" xmlns="http://www.w3.org/2000/svg"><path  d="M754.346667 989.866667H146.773333c-49.493333 0-90.453333-40.96-90.453333-92.16V126.293333c0-51.2 40.96-92.16 90.453333-92.16h609.28c49.493333 0 90.453333 40.96 90.453334 92.16v723.626667c0 13.653333-11.946667 25.6-25.6 25.6s-25.6-11.946667-25.6-25.6V126.293333c0-22.186667-17.066667-40.96-39.253334-40.96H146.773333C124.586667 85.333333 107.52 104.106667 107.52 126.293333v769.706667c0 22.186667 17.066667 40.96 39.253333 40.96h609.28c13.653333 0 25.6 11.946667 25.6 25.6s-11.946667 27.306667-27.306666 27.306667z"  /><path  d="M877.226667 989.866667H269.653333c-13.653333 0-25.6-11.946667-25.6-25.6S256 938.666667 269.653333 938.666667h609.28c20.48 0 39.253333-11.946667 39.253334-25.6v-597.333334c0-13.653333-17.066667-25.6-39.253334-25.6H819.2c-13.653333 0-25.6-11.946667-25.6-25.6S805.546667 238.933333 819.2 238.933333h59.733333c49.493333 0 90.453333 34.133333 90.453334 76.8v597.333334c-1.706667 42.666667-42.666667 76.8-92.16 76.8z"  /><path  d="M665.6 600.746667H235.52c-13.653333 0-25.6-11.946667-25.6-25.6s11.946667-25.6 25.6-25.6H665.6c13.653333 0 25.6 11.946667 25.6 25.6s-11.946667 25.6-25.6 25.6zM450.56 735.573333H235.52c-13.653333 0-25.6-11.946667-25.6-25.6s11.946667-25.6 25.6-25.6h215.04c13.653333 0 25.6 11.946667 25.6 25.6s-11.946667 25.6-25.6 25.6zM631.466667 459.093333H269.653333c-32.426667 0-59.733333-27.306667-59.733333-59.733333v-129.706667c0-32.426667 27.306667-59.733333 59.733333-59.733333H631.466667c32.426667 0 59.733333 27.306667 59.733333 59.733333v129.706667c0 32.426667-27.306667 59.733333-59.733333 59.733333zM269.653333 261.12c-5.12 0-8.533333 3.413333-8.533333 8.533333v129.706667c0 5.12 3.413333 8.533333 8.533333 8.533333H631.466667c5.12 0 8.533333-3.413333 8.533333-8.533333v-129.706667c0-5.12-3.413333-8.533333-8.533333-8.533333H269.653333z"  /></svg>