<?xml version="1.0" standalone="no"?><!DOCTYPE svg PUBLIC "-//W3C//DTD SVG 1.1//EN" "http://www.w3.org/Graphics/SVG/1.1/DTD/svg11.dtd"><svg class="icon" width="64px" height="64.00px" viewBox="0 0 1024 1024" version="1.1" xmlns="http://www.w3.org/2000/svg"><path  d="M897.706667 977.92H126.293333c-51.2 0-92.16-40.96-92.16-92.16V353.28c0-51.2 40.96-92.16 92.16-92.16h769.706667c51.2 0 92.16 40.96 92.16 92.16v532.48c1.706667 51.2-39.253333 92.16-90.453333 92.16z m-771.413334-665.6c-22.186667 0-40.96 18.773333-40.96 40.96v532.48c0 22.186667 18.773333 40.96 40.96 40.96h769.706667c22.186667 0 40.96-18.773333 40.96-40.96V353.28c0-22.186667-18.773333-40.96-40.96-40.96H126.293333z"  /><path  d="M368.64 810.666667c-92.16 0-168.96-75.093333-168.96-168.96s75.093333-168.96 168.96-168.96 168.96 75.093333 168.96 168.96-75.093333 168.96-168.96 168.96z m0-285.013334c-64.853333 0-117.76 52.906667-117.76 117.76 0 64.853333 52.906667 117.76 117.76 117.76 64.853333 0 117.76-52.906667 117.76-117.76 0-64.853333-52.906667-117.76-117.76-117.76zM797.013333 573.44h-143.36c-13.653333 0-25.6-11.946667-25.6-25.6s11.946667-25.6 25.6-25.6h143.36c13.653333 0 25.6 11.946667 25.6 25.6s-10.24 25.6-25.6 25.6zM797.013333 764.586667h-143.36c-13.653333 0-25.6-11.946667-25.6-25.6s11.946667-25.6 25.6-25.6h143.36c13.653333 0 25.6 11.946667 25.6 25.6s-10.24 25.6-25.6 25.6zM107.52 312.32c-10.24 0-18.773333-5.12-22.186667-13.653333-6.826667-11.946667-1.706667-27.306667 11.946667-34.133334l426.666667-215.04c11.946667-6.826667 27.306667-1.706667 34.133333 11.946667 6.826667 11.946667 1.706667 27.306667-11.946667 34.133333L119.466667 308.906667c-5.12 1.706667-8.533333 3.413333-11.946667 3.413333z"  /></svg>