<?xml version="1.0" standalone="no"?><!DOCTYPE svg PUBLIC "-//W3C//DTD SVG 1.1//EN" "http://www.w3.org/Graphics/SVG/1.1/DTD/svg11.dtd"><svg class="icon" width="64px" height="64.00px" viewBox="0 0 1024 1024" version="1.1" xmlns="http://www.w3.org/2000/svg"><path  d="M819.2 846.506667c-6.826667 0-13.653333-1.706667-18.773333-6.826667l-167.253334-167.253333c-10.24-10.24-10.24-25.6 0-35.84s25.6-10.24 35.84 0L836.266667 802.133333c10.24 10.24 10.24 25.6 0 35.84-5.12 5.12-11.946667 8.533333-17.066667 8.533334z"  /><path  d="M650.24 846.506667c-6.826667 0-13.653333-1.706667-18.773333-6.826667-10.24-10.24-10.24-25.6 0-35.84l167.253333-167.253333c10.24-10.24 25.6-10.24 35.84 0s10.24 25.6 0 35.84l-167.253333 167.253333c-3.413333 3.413333-10.24 6.826667-17.066667 6.826667z"  /><path  d="M733.866667 972.8c-129.706667 0-235.52-105.813333-235.52-235.52 0-129.706667 105.813333-235.52 235.52-235.52 129.706667 0 235.52 105.813333 235.52 235.52C971.093333 866.986667 865.28 972.8 733.866667 972.8z m0-419.84c-102.4 0-184.32 83.626667-184.32 184.32 0 102.4 83.626667 184.32 184.32 184.32 102.4 0 184.32-83.626667 184.32-184.32 1.706667-102.4-81.92-184.32-184.32-184.32z"  /><path  d="M498.346667 989.866667H138.24c-47.786667 0-85.333333-40.96-85.333333-92.16V126.293333c0-51.2 37.546667-92.16 85.333333-92.16h617.813333c47.786667 0 85.333333 40.96 85.333334 92.16v285.013334c0 13.653333-11.946667 25.6-25.6 25.6s-25.6-11.946667-25.6-25.6V126.293333c0-22.186667-15.36-40.96-34.133334-40.96H138.24c-18.773333 0-34.133333 18.773333-34.133333 40.96v769.706667c0 22.186667 15.36 40.96 34.133333 40.96h360.106667c13.653333 0 25.6 11.946667 25.6 25.6S512 989.866667 498.346667 989.866667z"  /><path  d="M578.56 310.613333H215.04c-13.653333 0-25.6-11.946667-25.6-25.6s11.946667-25.6 25.6-25.6h363.52c13.653333 0 25.6 11.946667 25.6 25.6s-11.946667 25.6-25.6 25.6zM428.373333 513.706667H215.04c-13.653333 0-25.6-11.946667-25.6-25.6s11.946667-25.6 25.6-25.6h213.333333c13.653333 0 25.6 11.946667 25.6 25.6s-10.24 25.6-25.6 25.6z"  /></svg>