<?xml version="1.0" standalone="no"?><!DOCTYPE svg PUBLIC "-//W3C//DTD SVG 1.1//EN" "http://www.w3.org/Graphics/SVG/1.1/DTD/svg11.dtd"><svg class="icon" width="64px" height="64.00px" viewBox="0 0 1024 1024" version="1.1" xmlns="http://www.w3.org/2000/svg"><path  d="M708.266667 979.626667c-56.32 0-109.226667-22.186667-148.48-61.44-39.253333-39.253333-61.44-92.16-61.44-148.48s22.186667-109.226667 61.44-148.48c39.253333-39.253333 92.16-61.44 148.48-61.44s109.226667 22.186667 148.48 61.44c39.253333 39.253333 61.44 92.16 61.44 148.48s-22.186667 109.226667-61.44 148.48c-40.96 40.96-92.16 61.44-148.48 61.44z m0-366.933334c-40.96 0-81.92 15.36-112.64 46.08-30.72 30.72-46.08 69.973333-46.08 112.64s17.066667 81.92 46.08 112.64c61.44 61.44 162.133333 61.44 223.573333 0 30.72-30.72 46.08-69.973333 46.08-112.64s-17.066667-81.92-46.08-112.64c-30.72-30.72-69.973333-46.08-110.933333-46.08z"  /><path  d="M560.315733 658.5856l36.1984-36.1984L857.1904 883.029333l-36.215467 36.1984zM482.986667 361.813333H256c-13.653333 0-25.6-11.946667-25.6-25.6s11.946667-25.6 25.6-25.6h228.693333c13.653333 0 25.6 11.946667 25.6 25.6s-11.946667 25.6-27.306666 25.6zM389.12 563.2H256c-13.653333 0-25.6-11.946667-25.6-25.6S242.346667 512 256 512h134.826667c13.653333 0 25.6 11.946667 25.6 25.6s-11.946667 25.6-27.306667 25.6z"  /><path  d="M482.986667 989.866667H199.68c-51.2 0-92.16-40.96-92.16-92.16V126.293333c0-51.2 40.96-92.16 92.16-92.16H614.4c6.826667 0 13.653333 3.413333 18.773333 8.533334L853.333333 278.186667c5.12 5.12 6.826667 10.24 6.826667 17.066666v203.093334c0 13.653333-11.946667 25.6-25.6 25.6s-25.6-11.946667-25.6-25.6V305.493333L604.16 85.333333H199.68c-22.186667 0-40.96 18.773333-40.96 40.96v769.706667c0 22.186667 18.773333 40.96 40.96 40.96h285.013333c13.653333 0 25.6 11.946667 25.6 25.6s-11.946667 27.306667-27.306666 27.306667z"  /><path  d="M831.146667 320.853333h-136.533334c-56.32 0-102.4-51.2-102.4-116.053333V63.146667c0-10.24 6.826667-20.48 17.066667-23.893334 10.24-3.413333 20.48-1.706667 27.306667 6.826667l213.333333 232.106667c6.826667 6.826667 8.533333 18.773333 5.12 27.306666s-13.653333 15.36-23.893333 15.36z m-187.733334-191.146666v76.8c0 35.84 22.186667 64.853333 51.2 64.853333h78.506667l-129.706667-141.653333z"  /></svg>